G04 #@! TF.GenerationSoftware,KiCad,Pcbnew,(6.0.7)*
G04 #@! TF.CreationDate,2023-05-04T23:35:30-04:00*
G04 #@! TF.ProjectId,battery_board_v2,62617474-6572-4795-9f62-6f6172645f76,rev?*
G04 #@! TF.SameCoordinates,Original*
G04 #@! TF.FileFunction,Soldermask,Top*
G04 #@! TF.FilePolarity,Negative*
%FSLAX46Y46*%
G04 Gerber Fmt 4.6, Leading zero omitted, Abs format (unit mm)*
G04 Created by KiCad (PCBNEW (6.0.7)) date 2023-05-04 23:35:30*
%MOMM*%
%LPD*%
G01*
G04 APERTURE LIST*
%ADD10R,1.350000X1.350000*%
%ADD11O,1.350000X1.350000*%
%ADD12C,3.800000*%
%ADD13C,3.600000*%
%ADD14C,6.400000*%
%ADD15C,1.600000*%
%ADD16O,1.600000X1.600000*%
%ADD17R,1.700000X1.700000*%
%ADD18O,1.700000X1.700000*%
%ADD19C,2.745000*%
%ADD20C,1.000000*%
%ADD21R,1.524000X1.524000*%
%ADD22C,1.524000*%
%ADD23C,0.600000*%
%ADD24C,2.000000*%
G04 APERTURE END LIST*
D10*
X187452000Y-135906000D03*
D11*
X187452000Y-137906000D03*
D10*
X183225000Y-135475000D03*
D11*
X181225000Y-135475000D03*
X179225000Y-135475000D03*
D12*
X177038000Y-77724000D03*
D13*
X194310000Y-137922000D03*
D14*
X194310000Y-137922000D03*
D15*
X177038000Y-96520000D03*
D16*
X177038000Y-88900000D03*
D14*
X114300000Y-137795000D03*
D13*
X114300000Y-137795000D03*
D10*
X116078000Y-98298000D03*
D11*
X116078000Y-96298000D03*
D10*
X175375000Y-135525000D03*
D11*
X173375000Y-135525000D03*
X171375000Y-135525000D03*
D17*
X114066000Y-117119000D03*
D18*
X111526000Y-117119000D03*
X114066000Y-119659000D03*
X111526000Y-119659000D03*
X114066000Y-122199000D03*
X111526000Y-122199000D03*
X114066000Y-124739000D03*
X111526000Y-124739000D03*
X114066000Y-127279000D03*
X111526000Y-127279000D03*
X114066000Y-129819000D03*
X111526000Y-129819000D03*
D13*
X118110000Y-52070000D03*
D14*
X118110000Y-52070000D03*
D12*
X136398000Y-117856000D03*
D19*
X164211000Y-73406000D03*
X169291000Y-73406000D03*
X166751000Y-65786000D03*
X166751000Y-129032000D03*
X169291000Y-121406000D03*
X164211000Y-121406000D03*
D20*
X130618000Y-134067000D03*
X128618000Y-134067000D03*
X126618000Y-134067000D03*
X124618000Y-134067000D03*
X130618000Y-136067000D03*
X128618000Y-136067000D03*
X126618000Y-136067000D03*
X124618000Y-136067000D03*
D19*
X184658000Y-121444000D03*
X187198000Y-129064000D03*
X189738000Y-121444000D03*
X184658000Y-73444000D03*
X189738000Y-73444000D03*
X187198000Y-65818000D03*
D10*
X140600000Y-135450000D03*
D11*
X138600000Y-135450000D03*
D15*
X136652000Y-96577000D03*
D16*
X136652000Y-88957000D03*
D12*
X136398000Y-77724000D03*
D21*
X186690000Y-52070000D03*
D22*
X186690000Y-54610000D03*
X184150000Y-52070000D03*
X184150000Y-54610000D03*
X181610000Y-52070000D03*
X181610000Y-54610000D03*
X179070000Y-52070000D03*
X179070000Y-54610000D03*
X176530000Y-52070000D03*
X176530000Y-54610000D03*
X173990000Y-52070000D03*
X173990000Y-54610000D03*
X171450000Y-52070000D03*
X171450000Y-54610000D03*
X168910000Y-52070000D03*
X168910000Y-54610000D03*
X166370000Y-52070000D03*
X166370000Y-54610000D03*
X163830000Y-52070000D03*
X163830000Y-54610000D03*
X161290000Y-52070000D03*
X161290000Y-54610000D03*
X158750000Y-52070000D03*
X158750000Y-54610000D03*
X156210000Y-52070000D03*
X156210000Y-54610000D03*
X153670000Y-52070000D03*
X153670000Y-54610000D03*
X151130000Y-52070000D03*
X151130000Y-54610000D03*
X148590000Y-52070000D03*
X148590000Y-54610000D03*
X146050000Y-52070000D03*
X146050000Y-54610000D03*
X143510000Y-52070000D03*
X143510000Y-54610000D03*
X140970000Y-52070000D03*
X140970000Y-54610000D03*
X138430000Y-52070000D03*
X138430000Y-54610000D03*
X135890000Y-52070000D03*
X135890000Y-54610000D03*
X133350000Y-52070000D03*
X133350000Y-54610000D03*
X130810000Y-52070000D03*
X130810000Y-54610000D03*
X128270000Y-52070000D03*
X128270000Y-54610000D03*
X125730000Y-52070000D03*
X125730000Y-54610000D03*
X123190000Y-52070000D03*
X123190000Y-54610000D03*
X186690000Y-57150000D03*
X186690000Y-59690000D03*
X184150000Y-57150000D03*
X184150000Y-59690000D03*
X181610000Y-57150000D03*
X181610000Y-59690000D03*
X179070000Y-57150000D03*
X179070000Y-59690000D03*
X176530000Y-57150000D03*
X176530000Y-59690000D03*
X173990000Y-57150000D03*
X173990000Y-59690000D03*
X171450000Y-57150000D03*
X171450000Y-59690000D03*
X168910000Y-57150000D03*
X168910000Y-59690000D03*
X166370000Y-57150000D03*
X166370000Y-59690000D03*
X163830000Y-57150000D03*
X163830000Y-59690000D03*
X161290000Y-57150000D03*
X161290000Y-59690000D03*
X158750000Y-57150000D03*
X158750000Y-59690000D03*
X156210000Y-57150000D03*
X156210000Y-59690000D03*
X153670000Y-57150000D03*
X153670000Y-59690000D03*
X151130000Y-57150000D03*
X151130000Y-59690000D03*
X148590000Y-57150000D03*
X148590000Y-59690000D03*
X146050000Y-57150000D03*
X146050000Y-59690000D03*
X143510000Y-57150000D03*
X143510000Y-59690000D03*
X140970000Y-57150000D03*
X140970000Y-59690000D03*
X138430000Y-57150000D03*
X138430000Y-59690000D03*
X135890000Y-57150000D03*
X135890000Y-59690000D03*
X133350000Y-57150000D03*
X133350000Y-59690000D03*
X130810000Y-57150000D03*
X130810000Y-59690000D03*
X128270000Y-57150000D03*
X128270000Y-59690000D03*
X125730000Y-57150000D03*
X125730000Y-59690000D03*
X123190000Y-57150000D03*
X123190000Y-59690000D03*
D19*
X144018000Y-121444000D03*
X149098000Y-121444000D03*
X146558000Y-129064000D03*
X149098000Y-73444000D03*
X144018000Y-73444000D03*
X146558000Y-65818000D03*
D12*
X177038000Y-117856000D03*
D19*
X123571000Y-73406000D03*
X128651000Y-73406000D03*
X126111000Y-65786000D03*
X123571000Y-121406000D03*
X128651000Y-121406000D03*
X126111000Y-129032000D03*
D13*
X191770000Y-52070000D03*
D14*
X191770000Y-52070000D03*
D17*
X113812000Y-70134000D03*
D18*
X111272000Y-70134000D03*
X113812000Y-72674000D03*
X111272000Y-72674000D03*
X113812000Y-75214000D03*
X111272000Y-75214000D03*
X113812000Y-77754000D03*
X111272000Y-77754000D03*
X113812000Y-80294000D03*
X111272000Y-80294000D03*
D23*
X149350000Y-113150000D03*
X148850000Y-113650000D03*
X148350000Y-114150000D03*
X148350000Y-113150000D03*
X149350000Y-114150000D03*
D24*
X177546000Y-100838000D03*
X177546000Y-110236000D03*
X177546000Y-105664000D03*
X187960000Y-94742000D03*
X115316000Y-89916000D03*
D23*
X126100000Y-100700000D03*
X125600000Y-101200000D03*
X125600000Y-100200000D03*
X126600000Y-100200000D03*
X126600000Y-101200000D03*
M02*
