G04 #@! TF.GenerationSoftware,KiCad,Pcbnew,(6.0.7)*
G04 #@! TF.CreationDate,2023-05-04T23:35:29-04:00*
G04 #@! TF.ProjectId,battery_board_v2,62617474-6572-4795-9f62-6f6172645f76,rev?*
G04 #@! TF.SameCoordinates,Original*
G04 #@! TF.FileFunction,Copper,L1,Top*
G04 #@! TF.FilePolarity,Positive*
%FSLAX46Y46*%
G04 Gerber Fmt 4.6, Leading zero omitted, Abs format (unit mm)*
G04 Created by KiCad (PCBNEW (6.0.7)) date 2023-05-04 23:35:29*
%MOMM*%
%LPD*%
G01*
G04 APERTURE LIST*
G04 #@! TA.AperFunction,ComponentPad*
%ADD10R,1.350000X1.350000*%
G04 #@! TD*
G04 #@! TA.AperFunction,ComponentPad*
%ADD11O,1.350000X1.350000*%
G04 #@! TD*
G04 #@! TA.AperFunction,ComponentPad*
%ADD12C,3.800000*%
G04 #@! TD*
G04 #@! TA.AperFunction,ComponentPad*
%ADD13C,3.600000*%
G04 #@! TD*
G04 #@! TA.AperFunction,ConnectorPad*
%ADD14C,6.400000*%
G04 #@! TD*
G04 #@! TA.AperFunction,ComponentPad*
%ADD15C,1.600000*%
G04 #@! TD*
G04 #@! TA.AperFunction,ComponentPad*
%ADD16O,1.600000X1.600000*%
G04 #@! TD*
G04 #@! TA.AperFunction,ComponentPad*
%ADD17R,1.700000X1.700000*%
G04 #@! TD*
G04 #@! TA.AperFunction,ComponentPad*
%ADD18O,1.700000X1.700000*%
G04 #@! TD*
G04 #@! TA.AperFunction,ComponentPad*
%ADD19C,2.745000*%
G04 #@! TD*
G04 #@! TA.AperFunction,ComponentPad*
%ADD20C,1.000000*%
G04 #@! TD*
G04 #@! TA.AperFunction,ComponentPad*
%ADD21R,1.524000X1.524000*%
G04 #@! TD*
G04 #@! TA.AperFunction,ComponentPad*
%ADD22C,1.524000*%
G04 #@! TD*
G04 #@! TA.AperFunction,ComponentPad*
%ADD23C,0.600000*%
G04 #@! TD*
G04 #@! TA.AperFunction,SMDPad,CuDef*
%ADD24R,2.300000X2.300000*%
G04 #@! TD*
G04 #@! TA.AperFunction,ComponentPad*
%ADD25C,2.000000*%
G04 #@! TD*
G04 #@! TA.AperFunction,ViaPad*
%ADD26C,0.700000*%
G04 #@! TD*
G04 #@! TA.AperFunction,ViaPad*
%ADD27C,0.800000*%
G04 #@! TD*
G04 #@! TA.AperFunction,Conductor*
%ADD28C,0.250000*%
G04 #@! TD*
G04 #@! TA.AperFunction,Conductor*
%ADD29C,0.300000*%
G04 #@! TD*
G04 #@! TA.AperFunction,Conductor*
%ADD30C,0.500000*%
G04 #@! TD*
G04 APERTURE END LIST*
D10*
X187452000Y-135906000D03*
D11*
X187452000Y-137906000D03*
D10*
X183225000Y-135475000D03*
D11*
X181225000Y-135475000D03*
X179225000Y-135475000D03*
D12*
X177038000Y-77724000D03*
D13*
X194310000Y-137922000D03*
D14*
X194310000Y-137922000D03*
D15*
X177038000Y-96520000D03*
D16*
X177038000Y-88900000D03*
D14*
X114300000Y-137795000D03*
D13*
X114300000Y-137795000D03*
D10*
X116078000Y-98298000D03*
D11*
X116078000Y-96298000D03*
D10*
X175375000Y-135525000D03*
D11*
X173375000Y-135525000D03*
X171375000Y-135525000D03*
D17*
X114066000Y-117119000D03*
D18*
X111526000Y-117119000D03*
X114066000Y-119659000D03*
X111526000Y-119659000D03*
X114066000Y-122199000D03*
X111526000Y-122199000D03*
X114066000Y-124739000D03*
X111526000Y-124739000D03*
X114066000Y-127279000D03*
X111526000Y-127279000D03*
X114066000Y-129819000D03*
X111526000Y-129819000D03*
D13*
X118110000Y-52070000D03*
D14*
X118110000Y-52070000D03*
D12*
X136398000Y-117856000D03*
D19*
X164211000Y-73406000D03*
X169291000Y-73406000D03*
X166751000Y-65786000D03*
X166751000Y-129032000D03*
X169291000Y-121406000D03*
X164211000Y-121406000D03*
D20*
X130618000Y-134067000D03*
X128618000Y-134067000D03*
X126618000Y-134067000D03*
X124618000Y-134067000D03*
X130618000Y-136067000D03*
X128618000Y-136067000D03*
X126618000Y-136067000D03*
X124618000Y-136067000D03*
D19*
X184658000Y-121444000D03*
X187198000Y-129064000D03*
X189738000Y-121444000D03*
X184658000Y-73444000D03*
X189738000Y-73444000D03*
X187198000Y-65818000D03*
D10*
X140600000Y-135450000D03*
D11*
X138600000Y-135450000D03*
D15*
X136652000Y-96577000D03*
D16*
X136652000Y-88957000D03*
D12*
X136398000Y-77724000D03*
D21*
X186690000Y-52070000D03*
D22*
X186690000Y-54610000D03*
X184150000Y-52070000D03*
X184150000Y-54610000D03*
X181610000Y-52070000D03*
X181610000Y-54610000D03*
X179070000Y-52070000D03*
X179070000Y-54610000D03*
X176530000Y-52070000D03*
X176530000Y-54610000D03*
X173990000Y-52070000D03*
X173990000Y-54610000D03*
X171450000Y-52070000D03*
X171450000Y-54610000D03*
X168910000Y-52070000D03*
X168910000Y-54610000D03*
X166370000Y-52070000D03*
X166370000Y-54610000D03*
X163830000Y-52070000D03*
X163830000Y-54610000D03*
X161290000Y-52070000D03*
X161290000Y-54610000D03*
X158750000Y-52070000D03*
X158750000Y-54610000D03*
X156210000Y-52070000D03*
X156210000Y-54610000D03*
X153670000Y-52070000D03*
X153670000Y-54610000D03*
X151130000Y-52070000D03*
X151130000Y-54610000D03*
X148590000Y-52070000D03*
X148590000Y-54610000D03*
X146050000Y-52070000D03*
X146050000Y-54610000D03*
X143510000Y-52070000D03*
X143510000Y-54610000D03*
X140970000Y-52070000D03*
X140970000Y-54610000D03*
X138430000Y-52070000D03*
X138430000Y-54610000D03*
X135890000Y-52070000D03*
X135890000Y-54610000D03*
X133350000Y-52070000D03*
X133350000Y-54610000D03*
X130810000Y-52070000D03*
X130810000Y-54610000D03*
X128270000Y-52070000D03*
X128270000Y-54610000D03*
X125730000Y-52070000D03*
X125730000Y-54610000D03*
X123190000Y-52070000D03*
X123190000Y-54610000D03*
X186690000Y-57150000D03*
X186690000Y-59690000D03*
X184150000Y-57150000D03*
X184150000Y-59690000D03*
X181610000Y-57150000D03*
X181610000Y-59690000D03*
X179070000Y-57150000D03*
X179070000Y-59690000D03*
X176530000Y-57150000D03*
X176530000Y-59690000D03*
X173990000Y-57150000D03*
X173990000Y-59690000D03*
X171450000Y-57150000D03*
X171450000Y-59690000D03*
X168910000Y-57150000D03*
X168910000Y-59690000D03*
X166370000Y-57150000D03*
X166370000Y-59690000D03*
X163830000Y-57150000D03*
X163830000Y-59690000D03*
X161290000Y-57150000D03*
X161290000Y-59690000D03*
X158750000Y-57150000D03*
X158750000Y-59690000D03*
X156210000Y-57150000D03*
X156210000Y-59690000D03*
X153670000Y-57150000D03*
X153670000Y-59690000D03*
X151130000Y-57150000D03*
X151130000Y-59690000D03*
X148590000Y-57150000D03*
X148590000Y-59690000D03*
X146050000Y-57150000D03*
X146050000Y-59690000D03*
X143510000Y-57150000D03*
X143510000Y-59690000D03*
X140970000Y-57150000D03*
X140970000Y-59690000D03*
X138430000Y-57150000D03*
X138430000Y-59690000D03*
X135890000Y-57150000D03*
X135890000Y-59690000D03*
X133350000Y-57150000D03*
X133350000Y-59690000D03*
X130810000Y-57150000D03*
X130810000Y-59690000D03*
X128270000Y-57150000D03*
X128270000Y-59690000D03*
X125730000Y-57150000D03*
X125730000Y-59690000D03*
X123190000Y-57150000D03*
X123190000Y-59690000D03*
D19*
X144018000Y-121444000D03*
X149098000Y-121444000D03*
X146558000Y-129064000D03*
X149098000Y-73444000D03*
X144018000Y-73444000D03*
X146558000Y-65818000D03*
D12*
X177038000Y-117856000D03*
D19*
X123571000Y-73406000D03*
X128651000Y-73406000D03*
X126111000Y-65786000D03*
X123571000Y-121406000D03*
X128651000Y-121406000D03*
X126111000Y-129032000D03*
D13*
X191770000Y-52070000D03*
D14*
X191770000Y-52070000D03*
D17*
X113812000Y-70134000D03*
D18*
X111272000Y-70134000D03*
X113812000Y-72674000D03*
X111272000Y-72674000D03*
X113812000Y-75214000D03*
X111272000Y-75214000D03*
X113812000Y-77754000D03*
X111272000Y-77754000D03*
X113812000Y-80294000D03*
X111272000Y-80294000D03*
D23*
X149350000Y-113150000D03*
D24*
X148850000Y-113651000D03*
D23*
X148850000Y-113650000D03*
X148350000Y-114150000D03*
X148350000Y-113150000D03*
X149350000Y-114150000D03*
D25*
X177546000Y-100838000D03*
X177546000Y-110236000D03*
X177546000Y-105664000D03*
X187960000Y-94742000D03*
X115316000Y-89916000D03*
D23*
X126100000Y-100700000D03*
X125600000Y-101200000D03*
X125600000Y-100200000D03*
X126600000Y-100200000D03*
X126600000Y-101200000D03*
D24*
X126100000Y-100701000D03*
D26*
X122682000Y-124206000D03*
X128270000Y-61214000D03*
X188976000Y-61214000D03*
X131318000Y-123190000D03*
X163830000Y-105918000D03*
X144018000Y-116586000D03*
X129801045Y-117137402D03*
X188722000Y-78232000D03*
X162560000Y-125222000D03*
X195580000Y-123190000D03*
X140716000Y-95758000D03*
X128270000Y-86106000D03*
X151892000Y-92456000D03*
X161544000Y-104902000D03*
X140716000Y-90932000D03*
D27*
X136725000Y-87210000D03*
X176900000Y-87075000D03*
D26*
X116332000Y-83058000D03*
X172720000Y-62230000D03*
X144780000Y-62230000D03*
X179298600Y-64516000D03*
X180693516Y-70401856D03*
X175796412Y-64465894D03*
X192024000Y-108583500D03*
X146558000Y-110744000D03*
X147320000Y-116332000D03*
X181356000Y-110998000D03*
X181102000Y-102616000D03*
X188976000Y-105410000D03*
X191372000Y-97724000D03*
X184912000Y-114171500D03*
X148590000Y-108712000D03*
X168910000Y-97028000D03*
X133604000Y-62992000D03*
X151130000Y-98298000D03*
X153924000Y-130810000D03*
X153924000Y-107442000D03*
X170180000Y-62992000D03*
X123725499Y-99974500D03*
X128270000Y-91948000D03*
D27*
X147320000Y-96266000D03*
X121412000Y-83566000D03*
X122074500Y-82320000D03*
X139674647Y-92325353D03*
X115570000Y-82399500D03*
X132037451Y-91112049D03*
D26*
X112776000Y-83566000D03*
D27*
X122509961Y-81173967D03*
D26*
X126492000Y-106680000D03*
X172212000Y-86106000D03*
X131826000Y-86106000D03*
X186690000Y-105090000D03*
X179578000Y-107696000D03*
X194310000Y-106680000D03*
X187960000Y-107188000D03*
X186800000Y-112710000D03*
X180340000Y-112776000D03*
D27*
X121617854Y-85392853D03*
D26*
X154432000Y-85090000D03*
X123698000Y-84328000D03*
X123671597Y-85317596D03*
X123698000Y-86360000D03*
X123698000Y-87259503D03*
X184150000Y-140970000D03*
D27*
X130140000Y-93980000D03*
D26*
X129032000Y-83058000D03*
X172720000Y-89408000D03*
X184150000Y-139954000D03*
X124206000Y-78232000D03*
X170434000Y-89408000D03*
X151384000Y-110744000D03*
X127000000Y-79248000D03*
X132588000Y-81026000D03*
X181864000Y-116078000D03*
X159512000Y-103886000D03*
D27*
X122750000Y-97100000D03*
D26*
X178282600Y-70104000D03*
D27*
X183134000Y-131318000D03*
X144018000Y-97536000D03*
D26*
X181356000Y-114171500D03*
X148336000Y-119126000D03*
X188976000Y-108395500D03*
D27*
X130100000Y-97050000D03*
D26*
X138430000Y-104698502D03*
X190246000Y-100330000D03*
X192024000Y-109728000D03*
X128524000Y-78740000D03*
X136906000Y-107188000D03*
X151892000Y-93472000D03*
X180848000Y-64516000D03*
X151384000Y-108712000D03*
D27*
X130120000Y-95514000D03*
D26*
X176908400Y-70716200D03*
D27*
X119750000Y-99300000D03*
D26*
X151384000Y-109728000D03*
X193294000Y-104394000D03*
X136398000Y-104698502D03*
X172212000Y-87122000D03*
X146558000Y-109728000D03*
X145034000Y-113030000D03*
X116332000Y-84074000D03*
X187602141Y-111934501D03*
X127254000Y-86106000D03*
X175260000Y-72390000D03*
X176530000Y-63500000D03*
X148844000Y-116332000D03*
X138430000Y-119888000D03*
X193802000Y-111252000D03*
X194818000Y-84836000D03*
X188468000Y-111252000D03*
X197104000Y-81788000D03*
X173482000Y-121666000D03*
X183896000Y-118614500D03*
D28*
X129200000Y-69200000D02*
X126717000Y-66717000D01*
X129257000Y-73484000D02*
X129200000Y-73427000D01*
D29*
X130810000Y-124206000D02*
X122682000Y-124206000D01*
D28*
X129200000Y-73427000D02*
X129200000Y-69200000D01*
D29*
X189548000Y-121366000D02*
X184468000Y-121366000D01*
X128270000Y-61214000D02*
X188976000Y-61214000D01*
X131318000Y-123190000D02*
X131318000Y-123698000D01*
X186436000Y-126238000D02*
X132842000Y-126238000D01*
X187198000Y-127000000D02*
X186436000Y-126238000D01*
D28*
X129257000Y-73484000D02*
X124177000Y-73484000D01*
D29*
X187198000Y-129064000D02*
X187198000Y-127000000D01*
X131318000Y-123698000D02*
X130810000Y-124206000D01*
X132842000Y-126238000D02*
X130810000Y-124206000D01*
X129040000Y-121767000D02*
X123960000Y-121767000D01*
D28*
X149357000Y-121484000D02*
X144277000Y-121484000D01*
D29*
X149098000Y-121444000D02*
X153892000Y-121444000D01*
X133306598Y-117137402D02*
X129801045Y-117137402D01*
X154686000Y-117602000D02*
X154686000Y-107442000D01*
X144018000Y-116078000D02*
X143256000Y-115316000D01*
X155702000Y-106426000D02*
X154686000Y-107442000D01*
X163322000Y-106426000D02*
X155702000Y-106426000D01*
X135128000Y-115316000D02*
X133306598Y-117137402D01*
X153892000Y-121444000D02*
X154686000Y-120650000D01*
X143256000Y-115316000D02*
X135128000Y-115316000D01*
X163830000Y-105918000D02*
X163322000Y-106426000D01*
X144018000Y-116586000D02*
X144018000Y-116078000D01*
X154686000Y-120650000D02*
X154686000Y-117602000D01*
X149098000Y-73444000D02*
X144018000Y-73444000D01*
D28*
X169440000Y-73484000D02*
X164360000Y-73484000D01*
D29*
X188722000Y-78232000D02*
X186690000Y-78232000D01*
X195580000Y-123952000D02*
X194310000Y-125222000D01*
X194310000Y-125222000D02*
X162560000Y-125222000D01*
X181864000Y-73406000D02*
X169291000Y-73406000D01*
X186690000Y-78232000D02*
X181864000Y-73406000D01*
X195580000Y-123190000D02*
X195580000Y-123952000D01*
D28*
X169440000Y-121484000D02*
X164360000Y-121484000D01*
D29*
X184468000Y-73366000D02*
X189065000Y-73366000D01*
X179298600Y-64516000D02*
X179044600Y-64262000D01*
X143510000Y-57150000D02*
X143510000Y-59690000D01*
X172720000Y-62230000D02*
X144780000Y-62230000D01*
X180693516Y-70401856D02*
X180693516Y-69974916D01*
X176000306Y-64262000D02*
X175796412Y-64465894D01*
X180693516Y-69974916D02*
X180060600Y-69342000D01*
X180060600Y-69342000D02*
X180060600Y-64770000D01*
X180060600Y-64770000D02*
X179806600Y-64516000D01*
X179044600Y-64262000D02*
X176000306Y-64262000D01*
X179806600Y-64516000D02*
X179298600Y-64516000D01*
D30*
X135890000Y-57150000D02*
X135890000Y-59690000D01*
X170142000Y-63030000D02*
X133642000Y-63030000D01*
D29*
X128270000Y-91948000D02*
X126492000Y-91948000D01*
D28*
X146558000Y-96266000D02*
X146558000Y-95758000D01*
D29*
X147320000Y-106172000D02*
X146558000Y-105410000D01*
X141425000Y-132625000D02*
X138600000Y-135450000D01*
X153924000Y-107442000D02*
X153924000Y-106680000D01*
X123700000Y-94740000D02*
X123700000Y-99949001D01*
D28*
X151130000Y-98298000D02*
X168402000Y-98298000D01*
D29*
X153924000Y-130810000D02*
X153924000Y-131826000D01*
D28*
X168402000Y-98298000D02*
X168910000Y-97790000D01*
D29*
X152363000Y-132625000D02*
X141425000Y-132625000D01*
X131548000Y-91948000D02*
X128270000Y-91948000D01*
X146558000Y-105410000D02*
X146558000Y-95758000D01*
X138600000Y-135450000D02*
X132001000Y-135450000D01*
X134558000Y-94958000D02*
X131548000Y-91948000D01*
X184225000Y-132625000D02*
X152363000Y-132625000D01*
X153924000Y-106680000D02*
X153416000Y-106172000D01*
D28*
X146558000Y-95758000D02*
X146050000Y-95250000D01*
D29*
X153924000Y-131826000D02*
X153125000Y-132625000D01*
X187425000Y-135825000D02*
X184225000Y-132625000D01*
D30*
X135890000Y-59690000D02*
X133350000Y-59690000D01*
D29*
X132001000Y-135450000D02*
X130618000Y-134067000D01*
X123700000Y-99949001D02*
X123725499Y-99974500D01*
X153125000Y-132625000D02*
X152363000Y-132625000D01*
D30*
X133642000Y-63030000D02*
X133604000Y-62992000D01*
D29*
X146050000Y-95250000D02*
X145758000Y-94958000D01*
D30*
X170180000Y-62992000D02*
X170142000Y-63030000D01*
D29*
X145758000Y-94958000D02*
X134558000Y-94958000D01*
D30*
X133350000Y-57150000D02*
X133350000Y-59690000D01*
D28*
X147320000Y-96266000D02*
X146558000Y-96266000D01*
D29*
X153416000Y-106172000D02*
X147320000Y-106172000D01*
X126492000Y-91948000D02*
X123700000Y-94740000D01*
D28*
X168910000Y-97790000D02*
X168910000Y-97028000D01*
X121412000Y-83566000D02*
X121412000Y-82682805D01*
X121920000Y-51562000D02*
X122822000Y-50660000D01*
X177660000Y-50660000D02*
X179070000Y-52070000D01*
X120396000Y-65667604D02*
X121920000Y-64143604D01*
X120396000Y-81666805D02*
X120396000Y-65667604D01*
X121920000Y-64143604D02*
X121920000Y-51562000D01*
X122822000Y-50660000D02*
X177660000Y-50660000D01*
X121412000Y-82682805D02*
X120396000Y-81666805D01*
X124475000Y-54150000D02*
X125225000Y-53400000D01*
X133325402Y-92400000D02*
X139600000Y-92400000D01*
X125225000Y-53400000D02*
X132020000Y-53400000D01*
X122074500Y-82320000D02*
X122074500Y-81763104D01*
X121158000Y-80846604D02*
X121158000Y-65542000D01*
X115570000Y-82399500D02*
X114958500Y-82399500D01*
X112776000Y-120891000D02*
X114165000Y-122280000D01*
X112776000Y-113960396D02*
X112776000Y-120891000D01*
X139600000Y-92400000D02*
X139674647Y-92325353D01*
X132037451Y-91112049D02*
X133325402Y-92400000D01*
X113538000Y-83820000D02*
X113538000Y-93860909D01*
X113538000Y-93860909D02*
X113175000Y-94223909D01*
X122074500Y-81763104D02*
X121158000Y-80846604D01*
X132020000Y-53400000D02*
X133350000Y-52070000D01*
X121158000Y-65542000D02*
X124475000Y-62225000D01*
X114958500Y-82399500D02*
X113538000Y-83820000D01*
X124475000Y-62225000D02*
X124475000Y-54150000D01*
X113175000Y-113561396D02*
X112776000Y-113960396D01*
X113175000Y-94223909D02*
X113175000Y-113561396D01*
X112725000Y-84125000D02*
X112725000Y-113375000D01*
X122509961Y-81173967D02*
X122540000Y-81143928D01*
X122540000Y-81143928D02*
X122540000Y-80450000D01*
X126950000Y-56625000D02*
X127700000Y-55875000D01*
X112776000Y-83566000D02*
X112776000Y-84074000D01*
X133988251Y-55875000D02*
X134803000Y-55060251D01*
X121666000Y-65670396D02*
X126950000Y-60386396D01*
X110350000Y-115750000D02*
X110350000Y-121005000D01*
X112725000Y-113375000D02*
X110350000Y-115750000D01*
X110350000Y-121005000D02*
X111625000Y-122280000D01*
X134803000Y-55060251D02*
X134803000Y-53157000D01*
X126950000Y-60386396D02*
X126950000Y-56625000D01*
X121666000Y-79576000D02*
X121666000Y-65670396D01*
X127700000Y-55875000D02*
X133988251Y-55875000D01*
X112776000Y-84074000D02*
X112725000Y-84125000D01*
X134803000Y-53157000D02*
X135890000Y-52070000D01*
X122540000Y-80450000D02*
X121666000Y-79576000D01*
D30*
X126492000Y-107188000D02*
X119126000Y-114554000D01*
X119126000Y-114554000D02*
X119126000Y-131318000D01*
X126492000Y-106680000D02*
X126492000Y-107188000D01*
X111526000Y-131213500D02*
X111526000Y-129819000D01*
X118110000Y-132334000D02*
X112646500Y-132334000D01*
X112646500Y-132334000D02*
X111526000Y-131213500D01*
X119126000Y-131318000D02*
X118110000Y-132334000D01*
D28*
X128400000Y-136144000D02*
X126400000Y-136144000D01*
D29*
X172212000Y-86106000D02*
X131826000Y-86106000D01*
X186690000Y-105090000D02*
X180152000Y-105090000D01*
X180152000Y-105090000D02*
X179578000Y-105664000D01*
X179578000Y-105664000D02*
X179578000Y-107696000D01*
X188468000Y-107696000D02*
X193294000Y-107696000D01*
X187960000Y-107188000D02*
X188468000Y-107696000D01*
X194564000Y-107442000D02*
X194310000Y-107696000D01*
X194564000Y-106934000D02*
X194564000Y-107442000D01*
X194310000Y-107696000D02*
X193040000Y-107696000D01*
X194310000Y-106680000D02*
X194564000Y-106934000D01*
X186546000Y-113472000D02*
X186800000Y-113218000D01*
X180782000Y-113472000D02*
X186546000Y-113472000D01*
X180340000Y-113030000D02*
X180782000Y-113472000D01*
X180340000Y-112776000D02*
X180340000Y-113030000D01*
X186800000Y-113218000D02*
X186800000Y-112710000D01*
D28*
X128524000Y-84074000D02*
X128016000Y-83566000D01*
X123444707Y-83566000D02*
X121617854Y-85392853D01*
X153416000Y-84074000D02*
X128524000Y-84074000D01*
X154432000Y-85090000D02*
X153416000Y-84074000D01*
X128016000Y-83566000D02*
X123444707Y-83566000D01*
X113625000Y-114094500D02*
X115570000Y-116039500D01*
X115570000Y-116039500D02*
X115570000Y-122682000D01*
X115570000Y-122682000D02*
X114797000Y-123455000D01*
X110733001Y-123455000D02*
X110236000Y-123952001D01*
X110236000Y-125971000D02*
X111625000Y-127360000D01*
X110236000Y-123952001D02*
X110236000Y-125971000D01*
X113625000Y-94410305D02*
X113625000Y-114094500D01*
X114797000Y-123455000D02*
X110733001Y-123455000D01*
X123698000Y-84328000D02*
X123698000Y-84337305D01*
X123698000Y-84337305D02*
X113625000Y-94410305D01*
X114075000Y-94596701D02*
X114075000Y-113567000D01*
X114075000Y-113567000D02*
X116078000Y-115570000D01*
X116078000Y-115570000D02*
X116078000Y-122907000D01*
X116078000Y-122907000D02*
X114165000Y-124820000D01*
X123354105Y-85317596D02*
X114075000Y-94596701D01*
X123671597Y-85317596D02*
X123354105Y-85317596D01*
X116586000Y-124714000D02*
X115316000Y-125984000D01*
X114554000Y-113284000D02*
X116586000Y-115316000D01*
X123698000Y-86360000D02*
X122948097Y-86360000D01*
X112789000Y-125984000D02*
X111625000Y-124820000D01*
X116586000Y-115316000D02*
X116586000Y-124714000D01*
X115316000Y-125984000D02*
X112789000Y-125984000D01*
X122948097Y-86360000D02*
X114554000Y-94754097D01*
X114554000Y-94754097D02*
X114554000Y-113284000D01*
X115210000Y-127360000D02*
X114165000Y-127360000D01*
X123698000Y-87259503D02*
X122684990Y-87259503D01*
X115062000Y-113030000D02*
X117094000Y-115062000D01*
X122684990Y-87259503D02*
X115062000Y-94882493D01*
X117094000Y-125476000D02*
X115210000Y-127360000D01*
X117094000Y-115062000D02*
X117094000Y-125476000D01*
X115062000Y-94882493D02*
X115062000Y-113030000D01*
X125465000Y-135209000D02*
X124400000Y-134144000D01*
X129465000Y-135209000D02*
X125465000Y-135209000D01*
X130400000Y-136144000D02*
X129465000Y-135209000D01*
X128400000Y-134144000D02*
X126400000Y-134144000D01*
D29*
X139954000Y-118364000D02*
X148336000Y-118364000D01*
X138430000Y-119888000D02*
X139954000Y-118364000D01*
X148336000Y-118364000D02*
X148844000Y-117856000D01*
X148844000Y-117856000D02*
X148844000Y-116332000D01*
X194818000Y-84836000D02*
X197104000Y-82550000D01*
X197104000Y-82550000D02*
X197104000Y-81788000D01*
X193802000Y-111252000D02*
X188468000Y-111252000D01*
X156210000Y-57150000D02*
X156210000Y-59690000D01*
X173482000Y-121158000D02*
X173482000Y-121666000D01*
X174244000Y-120396000D02*
X173482000Y-121158000D01*
X183896000Y-119380000D02*
X182880000Y-120396000D01*
X183896000Y-118614500D02*
X183896000Y-119380000D01*
X182880000Y-120396000D02*
X174244000Y-120396000D01*
M02*
