G04 #@! TF.GenerationSoftware,KiCad,Pcbnew,(6.0.7)*
G04 #@! TF.CreationDate,2023-05-04T23:35:30-04:00*
G04 #@! TF.ProjectId,battery_board_v2,62617474-6572-4795-9f62-6f6172645f76,rev?*
G04 #@! TF.SameCoordinates,Original*
G04 #@! TF.FileFunction,Soldermask,Bot*
G04 #@! TF.FilePolarity,Negative*
%FSLAX46Y46*%
G04 Gerber Fmt 4.6, Leading zero omitted, Abs format (unit mm)*
G04 Created by KiCad (PCBNEW (6.0.7)) date 2023-05-04 23:35:30*
%MOMM*%
%LPD*%
G01*
G04 APERTURE LIST*
G04 Aperture macros list*
%AMRoundRect*
0 Rectangle with rounded corners*
0 $1 Rounding radius*
0 $2 $3 $4 $5 $6 $7 $8 $9 X,Y pos of 4 corners*
0 Add a 4 corners polygon primitive as box body*
4,1,4,$2,$3,$4,$5,$6,$7,$8,$9,$2,$3,0*
0 Add four circle primitives for the rounded corners*
1,1,$1+$1,$2,$3*
1,1,$1+$1,$4,$5*
1,1,$1+$1,$6,$7*
1,1,$1+$1,$8,$9*
0 Add four rect primitives between the rounded corners*
20,1,$1+$1,$2,$3,$4,$5,0*
20,1,$1+$1,$4,$5,$6,$7,0*
20,1,$1+$1,$6,$7,$8,$9,0*
20,1,$1+$1,$8,$9,$2,$3,0*%
%AMFreePoly0*
4,1,17,2.675000,1.605000,1.875000,1.605000,1.875000,0.935000,2.675000,0.935000,2.675000,0.335000,1.875000,0.335000,1.875000,-0.335000,2.675000,-0.335000,2.675000,-0.935000,1.875000,-0.935000,1.875000,-1.605000,2.675000,-1.605000,2.675000,-2.205000,-1.875000,-2.205000,-1.875000,2.205000,2.675000,2.205000,2.675000,1.605000,2.675000,1.605000,$1*%
G04 Aperture macros list end*
%ADD10R,1.350000X1.350000*%
%ADD11O,1.350000X1.350000*%
%ADD12C,3.800000*%
%ADD13C,3.600000*%
%ADD14C,6.400000*%
%ADD15C,1.600000*%
%ADD16O,1.600000X1.600000*%
%ADD17R,1.700000X1.700000*%
%ADD18O,1.700000X1.700000*%
%ADD19C,2.745000*%
%ADD20C,1.000000*%
%ADD21R,1.524000X1.524000*%
%ADD22C,1.524000*%
%ADD23RoundRect,0.225000X0.225000X0.250000X-0.225000X0.250000X-0.225000X-0.250000X0.225000X-0.250000X0*%
%ADD24RoundRect,0.200000X0.275000X-0.200000X0.275000X0.200000X-0.275000X0.200000X-0.275000X-0.200000X0*%
%ADD25R,1.200000X1.400000*%
%ADD26R,1.000000X1.500000*%
%ADD27O,0.420000X0.990000*%
%ADD28RoundRect,0.070000X0.140000X-0.140000X0.140000X0.140000X-0.140000X0.140000X-0.140000X-0.140000X0*%
%ADD29R,0.700000X0.250000*%
%ADD30R,0.600000X0.230000*%
%ADD31R,0.900000X0.650000*%
%ADD32C,0.600000*%
%ADD33R,2.150000X1.700000*%
%ADD34RoundRect,0.225000X-0.225000X-0.250000X0.225000X-0.250000X0.225000X0.250000X-0.225000X0.250000X0*%
%ADD35RoundRect,0.135000X-0.135000X-0.185000X0.135000X-0.185000X0.135000X0.185000X-0.135000X0.185000X0*%
%ADD36RoundRect,0.150000X-0.825000X-0.150000X0.825000X-0.150000X0.825000X0.150000X-0.825000X0.150000X0*%
%ADD37FreePoly0,90.000000*%
%ADD38R,0.500000X0.850000*%
%ADD39RoundRect,0.225000X0.250000X-0.225000X0.250000X0.225000X-0.250000X0.225000X-0.250000X-0.225000X0*%
%ADD40RoundRect,0.135000X-0.185000X0.135000X-0.185000X-0.135000X0.185000X-0.135000X0.185000X0.135000X0*%
%ADD41RoundRect,0.135000X0.135000X0.185000X-0.135000X0.185000X-0.135000X-0.185000X0.135000X-0.185000X0*%
%ADD42R,0.280000X0.850000*%
%ADD43R,0.280000X0.750000*%
%ADD44RoundRect,0.200000X-0.200000X-0.275000X0.200000X-0.275000X0.200000X0.275000X-0.200000X0.275000X0*%
%ADD45RoundRect,0.218750X0.218750X0.256250X-0.218750X0.256250X-0.218750X-0.256250X0.218750X-0.256250X0*%
%ADD46FreePoly0,270.000000*%
%ADD47RoundRect,0.200000X-0.275000X0.200000X-0.275000X-0.200000X0.275000X-0.200000X0.275000X0.200000X0*%
%ADD48RoundRect,0.140000X0.170000X-0.140000X0.170000X0.140000X-0.170000X0.140000X-0.170000X-0.140000X0*%
%ADD49RoundRect,0.250000X0.450000X-0.325000X0.450000X0.325000X-0.450000X0.325000X-0.450000X-0.325000X0*%
%ADD50RoundRect,0.140000X-0.140000X-0.170000X0.140000X-0.170000X0.140000X0.170000X-0.140000X0.170000X0*%
%ADD51RoundRect,0.135000X0.185000X-0.135000X0.185000X0.135000X-0.185000X0.135000X-0.185000X-0.135000X0*%
%ADD52C,2.000000*%
%ADD53R,0.400000X1.500000*%
%ADD54RoundRect,0.147500X-0.147500X-0.172500X0.147500X-0.172500X0.147500X0.172500X-0.147500X0.172500X0*%
%ADD55R,0.812800X0.254000*%
%ADD56R,1.752600X1.447800*%
%ADD57RoundRect,0.140000X0.140000X0.170000X-0.140000X0.170000X-0.140000X-0.170000X0.140000X-0.170000X0*%
%ADD58RoundRect,0.200000X0.200000X0.275000X-0.200000X0.275000X-0.200000X-0.275000X0.200000X-0.275000X0*%
%ADD59RoundRect,0.140000X-0.170000X0.140000X-0.170000X-0.140000X0.170000X-0.140000X0.170000X0.140000X0*%
%ADD60RoundRect,0.229494X-1.020506X0.269406X-1.020506X-0.269406X1.020506X-0.269406X1.020506X0.269406X0*%
%ADD61R,0.660000X0.300000*%
%ADD62RoundRect,0.100000X0.637500X0.100000X-0.637500X0.100000X-0.637500X-0.100000X0.637500X-0.100000X0*%
%ADD63RoundRect,0.009000X-0.244700X-0.141000X0.244700X-0.141000X0.244700X0.141000X-0.244700X0.141000X0*%
%ADD64RoundRect,0.009000X0.141000X-0.244700X0.141000X0.244700X-0.141000X0.244700X-0.141000X-0.244700X0*%
%ADD65RoundRect,0.050000X1.075000X-1.868000X1.075000X1.868000X-1.075000X1.868000X-1.075000X-1.868000X0*%
%ADD66RoundRect,0.050000X1.075000X-0.707000X1.075000X0.707000X-1.075000X0.707000X-1.075000X-0.707000X0*%
G04 APERTURE END LIST*
D10*
X187452000Y-135906000D03*
D11*
X187452000Y-137906000D03*
D10*
X183225000Y-135475000D03*
D11*
X181225000Y-135475000D03*
X179225000Y-135475000D03*
D12*
X177038000Y-77724000D03*
D13*
X194310000Y-137922000D03*
D14*
X194310000Y-137922000D03*
D15*
X177038000Y-96520000D03*
D16*
X177038000Y-88900000D03*
D14*
X114300000Y-137795000D03*
D13*
X114300000Y-137795000D03*
D10*
X116078000Y-98298000D03*
D11*
X116078000Y-96298000D03*
D10*
X175375000Y-135525000D03*
D11*
X173375000Y-135525000D03*
X171375000Y-135525000D03*
D17*
X114066000Y-117119000D03*
D18*
X111526000Y-117119000D03*
X114066000Y-119659000D03*
X111526000Y-119659000D03*
X114066000Y-122199000D03*
X111526000Y-122199000D03*
X114066000Y-124739000D03*
X111526000Y-124739000D03*
X114066000Y-127279000D03*
X111526000Y-127279000D03*
X114066000Y-129819000D03*
X111526000Y-129819000D03*
D13*
X118110000Y-52070000D03*
D14*
X118110000Y-52070000D03*
D12*
X136398000Y-117856000D03*
D19*
X164211000Y-73406000D03*
X169291000Y-73406000D03*
X166751000Y-65786000D03*
X166751000Y-129032000D03*
X169291000Y-121406000D03*
X164211000Y-121406000D03*
D20*
X130618000Y-134067000D03*
X128618000Y-134067000D03*
X126618000Y-134067000D03*
X124618000Y-134067000D03*
X130618000Y-136067000D03*
X128618000Y-136067000D03*
X126618000Y-136067000D03*
X124618000Y-136067000D03*
D19*
X184658000Y-121444000D03*
X187198000Y-129064000D03*
X189738000Y-121444000D03*
X184658000Y-73444000D03*
X189738000Y-73444000D03*
X187198000Y-65818000D03*
D10*
X140600000Y-135450000D03*
D11*
X138600000Y-135450000D03*
D15*
X136652000Y-96577000D03*
D16*
X136652000Y-88957000D03*
D12*
X136398000Y-77724000D03*
D21*
X186690000Y-52070000D03*
D22*
X186690000Y-54610000D03*
X184150000Y-52070000D03*
X184150000Y-54610000D03*
X181610000Y-52070000D03*
X181610000Y-54610000D03*
X179070000Y-52070000D03*
X179070000Y-54610000D03*
X176530000Y-52070000D03*
X176530000Y-54610000D03*
X173990000Y-52070000D03*
X173990000Y-54610000D03*
X171450000Y-52070000D03*
X171450000Y-54610000D03*
X168910000Y-52070000D03*
X168910000Y-54610000D03*
X166370000Y-52070000D03*
X166370000Y-54610000D03*
X163830000Y-52070000D03*
X163830000Y-54610000D03*
X161290000Y-52070000D03*
X161290000Y-54610000D03*
X158750000Y-52070000D03*
X158750000Y-54610000D03*
X156210000Y-52070000D03*
X156210000Y-54610000D03*
X153670000Y-52070000D03*
X153670000Y-54610000D03*
X151130000Y-52070000D03*
X151130000Y-54610000D03*
X148590000Y-52070000D03*
X148590000Y-54610000D03*
X146050000Y-52070000D03*
X146050000Y-54610000D03*
X143510000Y-52070000D03*
X143510000Y-54610000D03*
X140970000Y-52070000D03*
X140970000Y-54610000D03*
X138430000Y-52070000D03*
X138430000Y-54610000D03*
X135890000Y-52070000D03*
X135890000Y-54610000D03*
X133350000Y-52070000D03*
X133350000Y-54610000D03*
X130810000Y-52070000D03*
X130810000Y-54610000D03*
X128270000Y-52070000D03*
X128270000Y-54610000D03*
X125730000Y-52070000D03*
X125730000Y-54610000D03*
X123190000Y-52070000D03*
X123190000Y-54610000D03*
X186690000Y-57150000D03*
X186690000Y-59690000D03*
X184150000Y-57150000D03*
X184150000Y-59690000D03*
X181610000Y-57150000D03*
X181610000Y-59690000D03*
X179070000Y-57150000D03*
X179070000Y-59690000D03*
X176530000Y-57150000D03*
X176530000Y-59690000D03*
X173990000Y-57150000D03*
X173990000Y-59690000D03*
X171450000Y-57150000D03*
X171450000Y-59690000D03*
X168910000Y-57150000D03*
X168910000Y-59690000D03*
X166370000Y-57150000D03*
X166370000Y-59690000D03*
X163830000Y-57150000D03*
X163830000Y-59690000D03*
X161290000Y-57150000D03*
X161290000Y-59690000D03*
X158750000Y-57150000D03*
X158750000Y-59690000D03*
X156210000Y-57150000D03*
X156210000Y-59690000D03*
X153670000Y-57150000D03*
X153670000Y-59690000D03*
X151130000Y-57150000D03*
X151130000Y-59690000D03*
X148590000Y-57150000D03*
X148590000Y-59690000D03*
X146050000Y-57150000D03*
X146050000Y-59690000D03*
X143510000Y-57150000D03*
X143510000Y-59690000D03*
X140970000Y-57150000D03*
X140970000Y-59690000D03*
X138430000Y-57150000D03*
X138430000Y-59690000D03*
X135890000Y-57150000D03*
X135890000Y-59690000D03*
X133350000Y-57150000D03*
X133350000Y-59690000D03*
X130810000Y-57150000D03*
X130810000Y-59690000D03*
X128270000Y-57150000D03*
X128270000Y-59690000D03*
X125730000Y-57150000D03*
X125730000Y-59690000D03*
X123190000Y-57150000D03*
X123190000Y-59690000D03*
D19*
X144018000Y-121444000D03*
X149098000Y-121444000D03*
X146558000Y-129064000D03*
X149098000Y-73444000D03*
X144018000Y-73444000D03*
X146558000Y-65818000D03*
D12*
X177038000Y-117856000D03*
D19*
X123571000Y-73406000D03*
X128651000Y-73406000D03*
X126111000Y-65786000D03*
X123571000Y-121406000D03*
X128651000Y-121406000D03*
X126111000Y-129032000D03*
D13*
X191770000Y-52070000D03*
D14*
X191770000Y-52070000D03*
D17*
X113812000Y-70134000D03*
D18*
X111272000Y-70134000D03*
X113812000Y-72674000D03*
X111272000Y-72674000D03*
X113812000Y-75214000D03*
X111272000Y-75214000D03*
X113812000Y-77754000D03*
X111272000Y-77754000D03*
X113812000Y-80294000D03*
X111272000Y-80294000D03*
D23*
X161303000Y-122174000D03*
X159753000Y-122174000D03*
D24*
X141986000Y-92519000D03*
X141986000Y-90869000D03*
D25*
X131406000Y-78826000D03*
X131406000Y-81026000D03*
X129706000Y-81026000D03*
X129706000Y-78826000D03*
D26*
X156270000Y-97536000D03*
X157570000Y-97536000D03*
D27*
X149850000Y-115125000D03*
D28*
X149850000Y-115410000D03*
X149350000Y-115410000D03*
D27*
X149350000Y-115125000D03*
X148850000Y-115125000D03*
D28*
X148850000Y-115410000D03*
X148350000Y-115410000D03*
D27*
X148350000Y-115125000D03*
D28*
X147850000Y-115410000D03*
D27*
X147850000Y-115125000D03*
D28*
X147850000Y-111890000D03*
D27*
X147850000Y-112175000D03*
D28*
X148350000Y-111890000D03*
D27*
X148350000Y-112175000D03*
D28*
X148850000Y-111890000D03*
D27*
X148850000Y-112175000D03*
X149350000Y-112175000D03*
D28*
X149350000Y-111890000D03*
X149850000Y-111890000D03*
D27*
X149850000Y-112175000D03*
D29*
X147425000Y-113850000D03*
D30*
X150275000Y-113050000D03*
D31*
X149410000Y-113215000D03*
D30*
X147425000Y-113050000D03*
X147425000Y-114250000D03*
X147425000Y-113450000D03*
D32*
X149350000Y-113150000D03*
D29*
X147425000Y-114250000D03*
D31*
X149410000Y-114085000D03*
D29*
X150275000Y-114250000D03*
X150275000Y-113850000D03*
D32*
X148850000Y-113650000D03*
X148350000Y-114150000D03*
D29*
X150275000Y-113050000D03*
D30*
X150275000Y-113850000D03*
D29*
X147425000Y-113050000D03*
D32*
X148350000Y-113150000D03*
D30*
X147425000Y-113850000D03*
X150275000Y-114250000D03*
D33*
X148850000Y-113650000D03*
D32*
X149350000Y-114150000D03*
D31*
X148290000Y-114085000D03*
D29*
X147425000Y-113450000D03*
X150275000Y-113450000D03*
D31*
X148290000Y-113215000D03*
D30*
X150275000Y-113450000D03*
D34*
X127425000Y-95504000D03*
X128975000Y-95504000D03*
D35*
X147318000Y-110744000D03*
X148338000Y-110744000D03*
D36*
X144060000Y-96266000D03*
X144060000Y-94996000D03*
X144060000Y-93726000D03*
X144060000Y-92456000D03*
X149010000Y-92456000D03*
X149010000Y-93726000D03*
X149010000Y-94996000D03*
X149010000Y-96266000D03*
D37*
X161544000Y-114412000D03*
D38*
X163449000Y-117962000D03*
X162179000Y-117962000D03*
X160909000Y-117962000D03*
X159639000Y-117962000D03*
D39*
X190246000Y-99327000D03*
X190246000Y-97777000D03*
D40*
X187960000Y-104900000D03*
X187960000Y-105920000D03*
X180340000Y-110996000D03*
X180340000Y-112016000D03*
D35*
X190244000Y-109728000D03*
X191264000Y-109728000D03*
D41*
X183898000Y-114046000D03*
X182878000Y-114046000D03*
D42*
X153408000Y-75307000D03*
D43*
X152908000Y-75357000D03*
X152408000Y-75357000D03*
X152408000Y-74207000D03*
X152908000Y-74207000D03*
X153408000Y-74207000D03*
D44*
X192215000Y-71374000D03*
X193865000Y-71374000D03*
D45*
X189001500Y-141732000D03*
X187426500Y-141732000D03*
D46*
X150964000Y-80606000D03*
D38*
X149059000Y-77056000D03*
X150329000Y-77056000D03*
X151599000Y-77056000D03*
X152869000Y-77056000D03*
D35*
X173226000Y-86106000D03*
X174246000Y-86106000D03*
D47*
X154940000Y-76137000D03*
X154940000Y-77787000D03*
D48*
X150876000Y-93444000D03*
X150876000Y-92484000D03*
D46*
X145200000Y-80518000D03*
D38*
X143295000Y-76968000D03*
X144565000Y-76968000D03*
X145835000Y-76968000D03*
X147105000Y-76968000D03*
D42*
X119388000Y-119871000D03*
D43*
X119888000Y-119821000D03*
X120388000Y-119821000D03*
X120388000Y-120971000D03*
X119888000Y-120971000D03*
X119388000Y-120971000D03*
D35*
X182878000Y-115062000D03*
X183898000Y-115062000D03*
D41*
X183898000Y-116078000D03*
X182878000Y-116078000D03*
D49*
X152146000Y-114830000D03*
X152146000Y-112780000D03*
D50*
X149634000Y-110744000D03*
X150594000Y-110744000D03*
D51*
X146304000Y-116334000D03*
X146304000Y-115314000D03*
D47*
X195580000Y-76391000D03*
X195580000Y-78041000D03*
D52*
X177546000Y-100838000D03*
X177546000Y-110236000D03*
D53*
X188610000Y-100644000D03*
X187960000Y-100644000D03*
X187310000Y-100644000D03*
X187310000Y-97984000D03*
X188610000Y-97984000D03*
D41*
X135892000Y-107188000D03*
X134872000Y-107188000D03*
D54*
X127254000Y-84074000D03*
X128224000Y-84074000D03*
D55*
X185707800Y-111260001D03*
X185707800Y-111760000D03*
X185707800Y-112259999D03*
X182812200Y-112259999D03*
X182812200Y-111760000D03*
X182812200Y-111260001D03*
D56*
X184260000Y-111760000D03*
D37*
X167386000Y-114412000D03*
D38*
X169291000Y-117962000D03*
X168021000Y-117962000D03*
X166751000Y-117962000D03*
X165481000Y-117962000D03*
D41*
X148338000Y-109728000D03*
X147318000Y-109728000D03*
X191264000Y-108458000D03*
X190244000Y-108458000D03*
D37*
X136818000Y-102274000D03*
D38*
X138723000Y-105824000D03*
X137453000Y-105824000D03*
X136183000Y-105824000D03*
X134913000Y-105824000D03*
D34*
X127425000Y-93980000D03*
X128975000Y-93980000D03*
D23*
X126492000Y-105410000D03*
X124942000Y-105410000D03*
D37*
X127508000Y-114720000D03*
D38*
X129413000Y-118270000D03*
X128143000Y-118270000D03*
X126873000Y-118270000D03*
X125603000Y-118270000D03*
D23*
X122725000Y-99250000D03*
X121175000Y-99250000D03*
D57*
X176502000Y-73152000D03*
X175542000Y-73152000D03*
D58*
X121221000Y-123952000D03*
X119571000Y-123952000D03*
D41*
X135892000Y-108204000D03*
X134872000Y-108204000D03*
D50*
X130076000Y-82550000D03*
X131036000Y-82550000D03*
D35*
X173226000Y-87122000D03*
X174246000Y-87122000D03*
D59*
X117348000Y-83086000D03*
X117348000Y-84046000D03*
D47*
X123220000Y-100935000D03*
X123220000Y-102585000D03*
D37*
X121754000Y-114720000D03*
D38*
X123659000Y-118270000D03*
X122389000Y-118270000D03*
X121119000Y-118270000D03*
X119849000Y-118270000D03*
D52*
X177546000Y-105664000D03*
D48*
X180848000Y-66266000D03*
X180848000Y-65306000D03*
D58*
X125675000Y-97100000D03*
X124025000Y-97100000D03*
D44*
X151575000Y-70972000D03*
X153225000Y-70972000D03*
D60*
X171450000Y-138962000D03*
X171450000Y-141962000D03*
D58*
X149923000Y-98298000D03*
X148273000Y-98298000D03*
D51*
X180848000Y-68328000D03*
X180848000Y-67308000D03*
D35*
X125220000Y-79248000D03*
X126240000Y-79248000D03*
D51*
X178816000Y-140972000D03*
X178816000Y-139952000D03*
D61*
X182276000Y-140066000D03*
X182276000Y-140716000D03*
X182276000Y-141366000D03*
X180436000Y-141366000D03*
X180436000Y-140716000D03*
X180436000Y-140066000D03*
D52*
X187960000Y-94742000D03*
D34*
X192265000Y-72898000D03*
X193815000Y-72898000D03*
D50*
X127259000Y-83058000D03*
X128219000Y-83058000D03*
D46*
X185928000Y-80606000D03*
D38*
X184023000Y-77056000D03*
X185293000Y-77056000D03*
X186563000Y-77056000D03*
X187833000Y-77056000D03*
D60*
X174752000Y-138986000D03*
X174752000Y-141986000D03*
D24*
X117856000Y-118935000D03*
X117856000Y-117285000D03*
D34*
X151625000Y-72496000D03*
X153175000Y-72496000D03*
D51*
X183134000Y-133352000D03*
X183134000Y-132332000D03*
D34*
X127425000Y-97050000D03*
X128975000Y-97050000D03*
D50*
X123218000Y-79248000D03*
X124178000Y-79248000D03*
D47*
X141986000Y-93917000D03*
X141986000Y-95567000D03*
D46*
X191770000Y-80660000D03*
D38*
X189865000Y-77110000D03*
X191135000Y-77110000D03*
X192405000Y-77110000D03*
X193675000Y-77110000D03*
D42*
X159266000Y-119505000D03*
D43*
X159766000Y-119455000D03*
X160266000Y-119455000D03*
X160266000Y-120605000D03*
X159766000Y-120605000D03*
X159266000Y-120605000D03*
D26*
X159878000Y-97536000D03*
X161178000Y-97536000D03*
D24*
X135636000Y-133921000D03*
X135636000Y-132271000D03*
D23*
X126492000Y-103886000D03*
X124942000Y-103886000D03*
D46*
X172466000Y-91948000D03*
D38*
X170561000Y-88398000D03*
X171831000Y-88398000D03*
X173101000Y-88398000D03*
X174371000Y-88398000D03*
D58*
X161353000Y-123698000D03*
X159703000Y-123698000D03*
D44*
X124143000Y-95504000D03*
X125793000Y-95504000D03*
D57*
X149324000Y-117348000D03*
X148364000Y-117348000D03*
D24*
X157734000Y-118681000D03*
X157734000Y-117031000D03*
D62*
X125798500Y-80387000D03*
X125798500Y-81037000D03*
X125798500Y-81687000D03*
X125798500Y-82337000D03*
X125798500Y-82987000D03*
X125798500Y-83637000D03*
X125798500Y-84287000D03*
X125798500Y-84937000D03*
X125798500Y-85587000D03*
X125798500Y-86237000D03*
X120073500Y-86237000D03*
X120073500Y-85587000D03*
X120073500Y-84937000D03*
X120073500Y-84287000D03*
X120073500Y-83637000D03*
X120073500Y-82987000D03*
X120073500Y-82337000D03*
X120073500Y-81687000D03*
X120073500Y-81037000D03*
X120073500Y-80387000D03*
D57*
X131036000Y-77216000D03*
X130076000Y-77216000D03*
D42*
X194048000Y-75455000D03*
D43*
X193548000Y-75505000D03*
X193048000Y-75505000D03*
X193048000Y-74355000D03*
X193548000Y-74355000D03*
X194048000Y-74355000D03*
D59*
X118364000Y-83086000D03*
X118364000Y-84046000D03*
D50*
X149606000Y-109728000D03*
X150566000Y-109728000D03*
D59*
X188976000Y-106228000D03*
X188976000Y-107188000D03*
X181356000Y-111788000D03*
X181356000Y-112748000D03*
D49*
X129320000Y-101755000D03*
X129320000Y-99705000D03*
D36*
X156086000Y-103632000D03*
X156086000Y-102362000D03*
X156086000Y-101092000D03*
X156086000Y-99822000D03*
X161036000Y-99822000D03*
X161036000Y-101092000D03*
X161036000Y-102362000D03*
X161036000Y-103632000D03*
D26*
X182258000Y-104328000D03*
X180958000Y-104328000D03*
D59*
X146304000Y-112042000D03*
X146304000Y-113002000D03*
D57*
X160500000Y-104902000D03*
X159540000Y-104902000D03*
X128219000Y-85090000D03*
X127259000Y-85090000D03*
X178534000Y-63500000D03*
X177574000Y-63500000D03*
D63*
X175895000Y-71218200D03*
X175895000Y-70716200D03*
X175895000Y-70216200D03*
X175895000Y-69716200D03*
X175895000Y-69215000D03*
X175895000Y-68713000D03*
X175895000Y-68213000D03*
X175895000Y-67713000D03*
X175895000Y-67255800D03*
X175895000Y-66753800D03*
X175895000Y-66253800D03*
X175895000Y-65753800D03*
X175895000Y-65252600D03*
D64*
X176504600Y-64846200D03*
X177004600Y-64846200D03*
X177504600Y-64846200D03*
X178028600Y-64846200D03*
X178528600Y-64846200D03*
D63*
X179247800Y-65252600D03*
X179247800Y-65753800D03*
X179247800Y-66253800D03*
X179247800Y-66753800D03*
X179247800Y-67255800D03*
X179247800Y-67713000D03*
X179247800Y-68213000D03*
X179247800Y-68713000D03*
X179247800Y-69215000D03*
X179247800Y-69716200D03*
X179247800Y-70216200D03*
X179247800Y-70716200D03*
X179247800Y-71218200D03*
D64*
X178528600Y-71653400D03*
X178028600Y-71653400D03*
X177504600Y-71653400D03*
X177004600Y-71653400D03*
X176504600Y-71653400D03*
D65*
X177571400Y-67284600D03*
D66*
X177571400Y-70332600D03*
D52*
X115316000Y-89916000D03*
D27*
X127100000Y-102175000D03*
D28*
X127100000Y-102460000D03*
X126600000Y-102460000D03*
D27*
X126600000Y-102175000D03*
D28*
X126100000Y-102460000D03*
D27*
X126100000Y-102175000D03*
D28*
X125600000Y-102460000D03*
D27*
X125600000Y-102175000D03*
D28*
X125100000Y-102460000D03*
D27*
X125100000Y-102175000D03*
D28*
X125100000Y-98940000D03*
D27*
X125100000Y-99225000D03*
D28*
X125600000Y-98940000D03*
D27*
X125600000Y-99225000D03*
D28*
X126100000Y-98940000D03*
D27*
X126100000Y-99225000D03*
D28*
X126600000Y-98940000D03*
D27*
X126600000Y-99225000D03*
X127100000Y-99225000D03*
D28*
X127100000Y-98940000D03*
D29*
X124675000Y-100500000D03*
X127525000Y-100900000D03*
D30*
X124675000Y-100100000D03*
D32*
X126100000Y-100700000D03*
D30*
X124675000Y-100900000D03*
D32*
X125600000Y-101200000D03*
D31*
X125540000Y-101135000D03*
D30*
X127525000Y-100100000D03*
D32*
X125600000Y-100200000D03*
D31*
X126660000Y-101135000D03*
D30*
X124675000Y-101300000D03*
D32*
X126600000Y-100200000D03*
X126600000Y-101200000D03*
D29*
X127525000Y-101300000D03*
D30*
X127525000Y-101300000D03*
D29*
X124675000Y-100100000D03*
X127525000Y-100500000D03*
D31*
X126660000Y-100265000D03*
D33*
X126100000Y-100700000D03*
D29*
X127525000Y-100100000D03*
D30*
X127525000Y-100900000D03*
X127525000Y-100500000D03*
D31*
X125540000Y-100265000D03*
D29*
X124675000Y-100900000D03*
D30*
X124675000Y-100500000D03*
D29*
X124675000Y-101300000D03*
D26*
X182258000Y-106868000D03*
X180958000Y-106868000D03*
D55*
X193217800Y-105672001D03*
X193217800Y-106172000D03*
X193217800Y-106671999D03*
X190322200Y-106671999D03*
X190322200Y-106172000D03*
X190322200Y-105672001D03*
D56*
X191770000Y-106172000D03*
D23*
X121171000Y-122428000D03*
X119621000Y-122428000D03*
D50*
X149606000Y-108712000D03*
X150566000Y-108712000D03*
D57*
X149324000Y-118364000D03*
X148364000Y-118364000D03*
M02*
