%TF.GenerationSoftware,KiCad,Pcbnew,(6.0.7-1)-1*%
%TF.CreationDate,2023-05-01T11:39:35-04:00*%
%TF.ProjectId,antenna-db,616e7465-6e6e-4612-9d64-622e6b696361,rev?*%
%TF.SameCoordinates,Original*%
%TF.FileFunction,Legend,Top*%
%TF.FilePolarity,Positive*%
%FSLAX46Y46*%
G04 Gerber Fmt 4.6, Leading zero omitted, Abs format (unit mm)*
G04 Created by KiCad (PCBNEW (6.0.7-1)-1) date 2023-05-01 11:39:35*
%MOMM*%
%LPD*%
G01*
G04 APERTURE LIST*
G04 Aperture macros list*
%AMRoundRect*
0 Rectangle with rounded corners*
0 $1 Rounding radius*
0 $2 $3 $4 $5 $6 $7 $8 $9 X,Y pos of 4 corners*
0 Add a 4 corners polygon primitive as box body*
4,1,4,$2,$3,$4,$5,$6,$7,$8,$9,$2,$3,0*
0 Add four circle primitives for the rounded corners*
1,1,$1+$1,$2,$3*
1,1,$1+$1,$4,$5*
1,1,$1+$1,$6,$7*
1,1,$1+$1,$8,$9*
0 Add four rect primitives between the rounded corners*
20,1,$1+$1,$2,$3,$4,$5,0*
20,1,$1+$1,$4,$5,$6,$7,0*
20,1,$1+$1,$6,$7,$8,$9,0*
20,1,$1+$1,$8,$9,$2,$3,0*%
G04 Aperture macros list end*
%ADD10C,0.150000*%
%ADD11C,0.300000*%
%ADD12C,0.127000*%
%ADD13C,0.200000*%
%ADD14C,0.120000*%
%ADD15RoundRect,0.033000X-0.117000X0.747000X-0.117000X-0.747000X0.117000X-0.747000X0.117000X0.747000X0*%
%ADD16RoundRect,0.033000X0.747000X0.117000X-0.747000X0.117000X-0.747000X-0.117000X0.747000X-0.117000X0*%
%ADD17RoundRect,0.033000X0.117000X-0.747000X0.117000X0.747000X-0.117000X0.747000X-0.117000X-0.747000X0*%
%ADD18RoundRect,0.033000X-0.747000X-0.117000X0.747000X-0.117000X0.747000X0.117000X-0.747000X0.117000X0*%
%ADD19R,3.180000X1.270000*%
%ADD20R,2.000000X2.000000*%
%ADD21R,1.270000X3.180000*%
%ADD22RoundRect,0.225000X0.250000X-0.225000X0.250000X0.225000X-0.250000X0.225000X-0.250000X-0.225000X0*%
%ADD23RoundRect,0.225000X0.225000X0.250000X-0.225000X0.250000X-0.225000X-0.250000X0.225000X-0.250000X0*%
%ADD24RoundRect,0.225000X-0.225000X-0.250000X0.225000X-0.250000X0.225000X0.250000X-0.225000X0.250000X0*%
%ADD25C,1.400000*%
%ADD26RoundRect,0.218750X0.256250X-0.218750X0.256250X0.218750X-0.256250X0.218750X-0.256250X-0.218750X0*%
%ADD27RoundRect,0.200000X0.275000X-0.200000X0.275000X0.200000X-0.275000X0.200000X-0.275000X-0.200000X0*%
%ADD28RoundRect,0.225000X-0.250000X0.225000X-0.250000X-0.225000X0.250000X-0.225000X0.250000X0.225000X0*%
%ADD29R,0.889000X0.711200*%
%ADD30C,4.400000*%
%ADD31C,2.600000*%
%ADD32RoundRect,0.218750X-0.256250X0.218750X-0.256250X-0.218750X0.256250X-0.218750X0.256250X0.218750X0*%
%ADD33R,4.000000X4.000000*%
%ADD34R,0.711200X0.889000*%
%ADD35RoundRect,0.150000X-0.825000X-0.150000X0.825000X-0.150000X0.825000X0.150000X-0.825000X0.150000X0*%
%ADD36R,2.290000X3.000000*%
%ADD37R,0.400000X0.650000*%
%ADD38RoundRect,0.237500X0.250000X0.237500X-0.250000X0.237500X-0.250000X-0.237500X0.250000X-0.237500X0*%
%ADD39RoundRect,0.200000X-0.275000X0.200000X-0.275000X-0.200000X0.275000X-0.200000X0.275000X0.200000X0*%
%ADD40RoundRect,0.237500X-0.250000X-0.237500X0.250000X-0.237500X0.250000X0.237500X-0.250000X0.237500X0*%
G04 APERTURE END LIST*
D10*
X182308761Y-96020000D02*
X182213523Y-95972380D01*
X182070666Y-95972380D01*
X181927809Y-96020000D01*
X181832571Y-96115238D01*
X181784952Y-96210476D01*
X181737333Y-96400952D01*
X181737333Y-96543809D01*
X181784952Y-96734285D01*
X181832571Y-96829523D01*
X181927809Y-96924761D01*
X182070666Y-96972380D01*
X182165904Y-96972380D01*
X182308761Y-96924761D01*
X182356380Y-96877142D01*
X182356380Y-96543809D01*
X182165904Y-96543809D01*
X182784952Y-96972380D02*
X182784952Y-95972380D01*
X183165904Y-95972380D01*
X183261142Y-96020000D01*
X183308761Y-96067619D01*
X183356380Y-96162857D01*
X183356380Y-96305714D01*
X183308761Y-96400952D01*
X183261142Y-96448571D01*
X183165904Y-96496190D01*
X182784952Y-96496190D01*
X183784952Y-96972380D02*
X183784952Y-95972380D01*
X184451619Y-95972380D02*
X184642095Y-95972380D01*
X184737333Y-96020000D01*
X184832571Y-96115238D01*
X184880190Y-96305714D01*
X184880190Y-96639047D01*
X184832571Y-96829523D01*
X184737333Y-96924761D01*
X184642095Y-96972380D01*
X184451619Y-96972380D01*
X184356380Y-96924761D01*
X184261142Y-96829523D01*
X184213523Y-96639047D01*
X184213523Y-96305714D01*
X184261142Y-96115238D01*
X184356380Y-96020000D01*
X184451619Y-95972380D01*
X185308761Y-96591428D02*
X186070666Y-96591428D01*
X186499238Y-96067619D02*
X186546857Y-96020000D01*
X186642095Y-95972380D01*
X186880190Y-95972380D01*
X186975428Y-96020000D01*
X187023047Y-96067619D01*
X187070666Y-96162857D01*
X187070666Y-96258095D01*
X187023047Y-96400952D01*
X186451619Y-96972380D01*
X187070666Y-96972380D01*
X182308761Y-93607000D02*
X182213523Y-93559380D01*
X182070666Y-93559380D01*
X181927809Y-93607000D01*
X181832571Y-93702238D01*
X181784952Y-93797476D01*
X181737333Y-93987952D01*
X181737333Y-94130809D01*
X181784952Y-94321285D01*
X181832571Y-94416523D01*
X181927809Y-94511761D01*
X182070666Y-94559380D01*
X182165904Y-94559380D01*
X182308761Y-94511761D01*
X182356380Y-94464142D01*
X182356380Y-94130809D01*
X182165904Y-94130809D01*
X182784952Y-94559380D02*
X182784952Y-93559380D01*
X183165904Y-93559380D01*
X183261142Y-93607000D01*
X183308761Y-93654619D01*
X183356380Y-93749857D01*
X183356380Y-93892714D01*
X183308761Y-93987952D01*
X183261142Y-94035571D01*
X183165904Y-94083190D01*
X182784952Y-94083190D01*
X183784952Y-94559380D02*
X183784952Y-93559380D01*
X184451619Y-93559380D02*
X184642095Y-93559380D01*
X184737333Y-93607000D01*
X184832571Y-93702238D01*
X184880190Y-93892714D01*
X184880190Y-94226047D01*
X184832571Y-94416523D01*
X184737333Y-94511761D01*
X184642095Y-94559380D01*
X184451619Y-94559380D01*
X184356380Y-94511761D01*
X184261142Y-94416523D01*
X184213523Y-94226047D01*
X184213523Y-93892714D01*
X184261142Y-93702238D01*
X184356380Y-93607000D01*
X184451619Y-93559380D01*
X185308761Y-94178428D02*
X186070666Y-94178428D01*
X187070666Y-94559380D02*
X186499238Y-94559380D01*
X186784952Y-94559380D02*
X186784952Y-93559380D01*
X186689714Y-93702238D01*
X186594476Y-93797476D01*
X186499238Y-93845095D01*
X201803000Y-51943000D02*
X189357000Y-51943000D01*
X189728261Y-52241380D02*
X189638976Y-52955666D01*
X189573500Y-53098523D01*
X189466357Y-53193761D01*
X189317547Y-53241380D01*
X189222309Y-53241380D01*
X190508023Y-53241380D02*
X190573500Y-52717571D01*
X190537785Y-52622333D01*
X190448500Y-52574714D01*
X190258023Y-52574714D01*
X190156833Y-52622333D01*
X190513976Y-53193761D02*
X190412785Y-53241380D01*
X190174690Y-53241380D01*
X190085404Y-53193761D01*
X190049690Y-53098523D01*
X190061595Y-53003285D01*
X190121119Y-52908047D01*
X190222309Y-52860428D01*
X190460404Y-52860428D01*
X190561595Y-52812809D01*
X191418738Y-53193761D02*
X191317547Y-53241380D01*
X191127071Y-53241380D01*
X191037785Y-53193761D01*
X190996119Y-53146142D01*
X190960404Y-53050904D01*
X190996119Y-52765190D01*
X191055642Y-52669952D01*
X191109214Y-52622333D01*
X191210404Y-52574714D01*
X191400880Y-52574714D01*
X191490166Y-52622333D01*
X191984214Y-53241380D02*
X191894928Y-53193761D01*
X191853261Y-53146142D01*
X191817547Y-53050904D01*
X191853261Y-52765190D01*
X191912785Y-52669952D01*
X191966357Y-52622333D01*
X192067547Y-52574714D01*
X192210404Y-52574714D01*
X192299690Y-52622333D01*
X192341357Y-52669952D01*
X192377071Y-52765190D01*
X192341357Y-53050904D01*
X192281833Y-53146142D01*
X192228261Y-53193761D01*
X192127071Y-53241380D01*
X191984214Y-53241380D01*
X192746119Y-53241380D02*
X192871119Y-52241380D01*
X192823500Y-52622333D02*
X192924690Y-52574714D01*
X193115166Y-52574714D01*
X193204452Y-52622333D01*
X193246119Y-52669952D01*
X193281833Y-52765190D01*
X193246119Y-53050904D01*
X193186595Y-53146142D01*
X193133023Y-53193761D01*
X193031833Y-53241380D01*
X192841357Y-53241380D01*
X192752071Y-53193761D01*
X194888976Y-53241380D02*
X194412785Y-53241380D01*
X194537785Y-52241380D01*
X195650880Y-53241380D02*
X195716357Y-52717571D01*
X195680642Y-52622333D01*
X195591357Y-52574714D01*
X195400880Y-52574714D01*
X195299690Y-52622333D01*
X195656833Y-53193761D02*
X195555642Y-53241380D01*
X195317547Y-53241380D01*
X195228261Y-53193761D01*
X195192547Y-53098523D01*
X195204452Y-53003285D01*
X195263976Y-52908047D01*
X195365166Y-52860428D01*
X195603261Y-52860428D01*
X195704452Y-52812809D01*
X196127071Y-53241380D02*
X196210404Y-52574714D01*
X196198500Y-52669952D02*
X196252071Y-52622333D01*
X196353261Y-52574714D01*
X196496119Y-52574714D01*
X196585404Y-52622333D01*
X196621119Y-52717571D01*
X196555642Y-53241380D01*
X196621119Y-52717571D02*
X196680642Y-52622333D01*
X196781833Y-52574714D01*
X196924690Y-52574714D01*
X197013976Y-52622333D01*
X197049690Y-52717571D01*
X196984214Y-53241380D01*
X197460404Y-53241380D02*
X197585404Y-52241380D01*
X197537785Y-52622333D02*
X197638976Y-52574714D01*
X197829452Y-52574714D01*
X197918738Y-52622333D01*
X197960404Y-52669952D01*
X197996119Y-52765190D01*
X197960404Y-53050904D01*
X197900880Y-53146142D01*
X197847309Y-53193761D01*
X197746119Y-53241380D01*
X197555642Y-53241380D01*
X197466357Y-53193761D01*
X198752071Y-53193761D02*
X198650880Y-53241380D01*
X198460404Y-53241380D01*
X198371119Y-53193761D01*
X198335404Y-53098523D01*
X198383023Y-52717571D01*
X198442547Y-52622333D01*
X198543738Y-52574714D01*
X198734214Y-52574714D01*
X198823500Y-52622333D01*
X198859214Y-52717571D01*
X198847309Y-52812809D01*
X198359214Y-52908047D01*
X199222309Y-53241380D02*
X199305642Y-52574714D01*
X199281833Y-52765190D02*
X199341357Y-52669952D01*
X199394928Y-52622333D01*
X199496119Y-52574714D01*
X199591357Y-52574714D01*
X199781833Y-52574714D02*
X200162785Y-52574714D01*
X199966357Y-52241380D02*
X199859214Y-53098523D01*
X199894928Y-53193761D01*
X199984214Y-53241380D01*
X200079452Y-53241380D01*
X189275880Y-54803761D02*
X189412785Y-54851380D01*
X189650880Y-54851380D01*
X189752071Y-54803761D01*
X189805642Y-54756142D01*
X189865166Y-54660904D01*
X189877071Y-54565666D01*
X189841357Y-54470428D01*
X189799690Y-54422809D01*
X189710404Y-54375190D01*
X189525880Y-54327571D01*
X189436595Y-54279952D01*
X189394928Y-54232333D01*
X189359214Y-54137095D01*
X189371119Y-54041857D01*
X189430642Y-53946619D01*
X189484214Y-53899000D01*
X189585404Y-53851380D01*
X189823500Y-53851380D01*
X189960404Y-53899000D01*
X190656833Y-54803761D02*
X190555642Y-54851380D01*
X190365166Y-54851380D01*
X190275880Y-54803761D01*
X190240166Y-54708523D01*
X190287785Y-54327571D01*
X190347309Y-54232333D01*
X190448500Y-54184714D01*
X190638976Y-54184714D01*
X190728261Y-54232333D01*
X190763976Y-54327571D01*
X190752071Y-54422809D01*
X190263976Y-54518047D01*
X191555642Y-54851380D02*
X191621119Y-54327571D01*
X191585404Y-54232333D01*
X191496119Y-54184714D01*
X191305642Y-54184714D01*
X191204452Y-54232333D01*
X191561595Y-54803761D02*
X191460404Y-54851380D01*
X191222309Y-54851380D01*
X191133023Y-54803761D01*
X191097309Y-54708523D01*
X191109214Y-54613285D01*
X191168738Y-54518047D01*
X191269928Y-54470428D01*
X191508023Y-54470428D01*
X191609214Y-54422809D01*
X192115166Y-54184714D02*
X192031833Y-54851380D01*
X192103261Y-54279952D02*
X192156833Y-54232333D01*
X192258023Y-54184714D01*
X192400880Y-54184714D01*
X192490166Y-54232333D01*
X192525880Y-54327571D01*
X192460404Y-54851380D01*
X193680642Y-53851380D02*
X194252071Y-53851380D01*
X193841357Y-54851380D02*
X193966357Y-53851380D01*
X194847309Y-54803761D02*
X194746119Y-54851380D01*
X194555642Y-54851380D01*
X194466357Y-54803761D01*
X194430642Y-54708523D01*
X194478261Y-54327571D01*
X194537785Y-54232333D01*
X194638976Y-54184714D01*
X194829452Y-54184714D01*
X194918738Y-54232333D01*
X194954452Y-54327571D01*
X194942547Y-54422809D01*
X194454452Y-54518047D01*
X195746119Y-54851380D02*
X195871119Y-53851380D01*
X195752071Y-54803761D02*
X195650880Y-54851380D01*
X195460404Y-54851380D01*
X195371119Y-54803761D01*
X195329452Y-54756142D01*
X195293738Y-54660904D01*
X195329452Y-54375190D01*
X195388976Y-54279952D01*
X195442547Y-54232333D01*
X195543738Y-54184714D01*
X195734214Y-54184714D01*
X195823500Y-54232333D01*
X196609214Y-54803761D02*
X196508023Y-54851380D01*
X196317547Y-54851380D01*
X196228261Y-54803761D01*
X196192547Y-54708523D01*
X196240166Y-54327571D01*
X196299690Y-54232333D01*
X196400880Y-54184714D01*
X196591357Y-54184714D01*
X196680642Y-54232333D01*
X196716357Y-54327571D01*
X196704452Y-54422809D01*
X196216357Y-54518047D01*
X197037785Y-54803761D02*
X197127071Y-54851380D01*
X197317547Y-54851380D01*
X197418738Y-54803761D01*
X197478261Y-54708523D01*
X197484214Y-54660904D01*
X197448500Y-54565666D01*
X197359214Y-54518047D01*
X197216357Y-54518047D01*
X197127071Y-54470428D01*
X197091357Y-54375190D01*
X197097309Y-54327571D01*
X197156833Y-54232333D01*
X197258023Y-54184714D01*
X197400880Y-54184714D01*
X197490166Y-54232333D01*
X198323500Y-54803761D02*
X198222309Y-54851380D01*
X198031833Y-54851380D01*
X197942547Y-54803761D01*
X197900880Y-54756142D01*
X197865166Y-54660904D01*
X197900880Y-54375190D01*
X197960404Y-54279952D01*
X198013976Y-54232333D01*
X198115166Y-54184714D01*
X198305642Y-54184714D01*
X198394928Y-54232333D01*
X198888976Y-54851380D02*
X198799690Y-54803761D01*
X198758023Y-54756142D01*
X198722309Y-54660904D01*
X198758023Y-54375190D01*
X198817547Y-54279952D01*
X198871119Y-54232333D01*
X198972309Y-54184714D01*
X199115166Y-54184714D01*
X199204452Y-54232333D01*
X199246119Y-54279952D01*
X199281833Y-54375190D01*
X199246119Y-54660904D01*
X199186595Y-54756142D01*
X199133023Y-54803761D01*
X199031833Y-54851380D01*
X198888976Y-54851380D01*
X189521041Y-51347666D02*
X189997232Y-51347666D01*
X189390089Y-51633380D02*
X189848422Y-50633380D01*
X190056755Y-51633380D01*
X190390089Y-51633380D02*
X190515089Y-50633380D01*
X190961517Y-51633380D01*
X191086517Y-50633380D01*
X191419851Y-50633380D02*
X191991279Y-50633380D01*
X191580565Y-51633380D02*
X191705565Y-50633380D01*
X192181755Y-50633380D02*
X192753184Y-50633380D01*
X192342470Y-51633380D02*
X192467470Y-50633380D01*
X193009136Y-51252428D02*
X193771041Y-51252428D01*
X194199613Y-51633380D02*
X194324613Y-50633380D01*
X194562708Y-50633380D01*
X194699613Y-50681000D01*
X194782946Y-50776238D01*
X194818660Y-50871476D01*
X194842470Y-51061952D01*
X194824613Y-51204809D01*
X194753184Y-51395285D01*
X194693660Y-51490523D01*
X194586517Y-51585761D01*
X194437708Y-51633380D01*
X194199613Y-51633380D01*
X195598422Y-51109571D02*
X195735327Y-51157190D01*
X195776994Y-51204809D01*
X195812708Y-51300047D01*
X195794851Y-51442904D01*
X195735327Y-51538142D01*
X195681755Y-51585761D01*
X195580565Y-51633380D01*
X195199613Y-51633380D01*
X195324613Y-50633380D01*
X195657946Y-50633380D01*
X195747232Y-50681000D01*
X195788898Y-50728619D01*
X195824613Y-50823857D01*
X195812708Y-50919095D01*
X195753184Y-51014333D01*
X195699613Y-51061952D01*
X195598422Y-51109571D01*
X195265089Y-51109571D01*
X196199613Y-51633380D02*
X196324613Y-50633380D01*
X196562708Y-50633380D01*
X196699613Y-50681000D01*
X196782946Y-50776238D01*
X196818660Y-50871476D01*
X196842470Y-51061952D01*
X196824613Y-51204809D01*
X196753184Y-51395285D01*
X196693660Y-51490523D01*
X196586517Y-51585761D01*
X196437708Y-51633380D01*
X196199613Y-51633380D01*
X197247232Y-51252428D02*
X198009136Y-51252428D01*
X199009136Y-51633380D02*
X198735327Y-51157190D01*
X198437708Y-51633380D02*
X198562708Y-50633380D01*
X198943660Y-50633380D01*
X199032946Y-50681000D01*
X199074613Y-50728619D01*
X199110327Y-50823857D01*
X199092470Y-50966714D01*
X199032946Y-51061952D01*
X198979375Y-51109571D01*
X198878184Y-51157190D01*
X198497232Y-51157190D01*
X199824613Y-51585761D02*
X199723422Y-51633380D01*
X199532946Y-51633380D01*
X199443660Y-51585761D01*
X199407946Y-51490523D01*
X199455565Y-51109571D01*
X199515089Y-51014333D01*
X199616279Y-50966714D01*
X199806755Y-50966714D01*
X199896041Y-51014333D01*
X199931755Y-51109571D01*
X199919851Y-51204809D01*
X199431755Y-51300047D01*
X200282946Y-50966714D02*
X200437708Y-51633380D01*
X200759136Y-50966714D01*
X201044851Y-51347666D02*
X201521041Y-51347666D01*
X200913898Y-51633380D02*
X201372232Y-50633380D01*
X201580565Y-51633380D01*
D11*
X119761000Y-66448714D02*
X119832428Y-66520142D01*
X119761000Y-66591571D01*
X119689571Y-66520142D01*
X119761000Y-66448714D01*
X119761000Y-66591571D01*
X183515000Y-119153714D02*
X183586428Y-119225142D01*
X183515000Y-119296571D01*
X183443571Y-119225142D01*
X183515000Y-119153714D01*
X183515000Y-119296571D01*
D10*
X194790428Y-130702857D02*
X195004714Y-130774285D01*
X195076142Y-130845714D01*
X195147571Y-130988571D01*
X195147571Y-131202857D01*
X195076142Y-131345714D01*
X195004714Y-131417142D01*
X194861857Y-131488571D01*
X194290428Y-131488571D01*
X194290428Y-129988571D01*
X194790428Y-129988571D01*
X194933285Y-130060000D01*
X195004714Y-130131428D01*
X195076142Y-130274285D01*
X195076142Y-130417142D01*
X195004714Y-130560000D01*
X194933285Y-130631428D01*
X194790428Y-130702857D01*
X194290428Y-130702857D01*
X195647571Y-129988571D02*
X196004714Y-131488571D01*
X196290428Y-130417142D01*
X196576142Y-131488571D01*
X196933285Y-129988571D01*
X197504714Y-130917142D02*
X198647571Y-130917142D01*
X198076142Y-131488571D02*
X198076142Y-130345714D01*
X194536428Y-138703857D02*
X194750714Y-138775285D01*
X194822142Y-138846714D01*
X194893571Y-138989571D01*
X194893571Y-139203857D01*
X194822142Y-139346714D01*
X194750714Y-139418142D01*
X194607857Y-139489571D01*
X194036428Y-139489571D01*
X194036428Y-137989571D01*
X194536428Y-137989571D01*
X194679285Y-138061000D01*
X194750714Y-138132428D01*
X194822142Y-138275285D01*
X194822142Y-138418142D01*
X194750714Y-138561000D01*
X194679285Y-138632428D01*
X194536428Y-138703857D01*
X194036428Y-138703857D01*
X195393571Y-137989571D02*
X195750714Y-139489571D01*
X196036428Y-138418142D01*
X196322142Y-139489571D01*
X196679285Y-137989571D01*
X197250714Y-138918142D02*
X198393571Y-138918142D01*
X116050428Y-51835857D02*
X116264714Y-51907285D01*
X116336142Y-51978714D01*
X116407571Y-52121571D01*
X116407571Y-52335857D01*
X116336142Y-52478714D01*
X116264714Y-52550142D01*
X116121857Y-52621571D01*
X115550428Y-52621571D01*
X115550428Y-51121571D01*
X116050428Y-51121571D01*
X116193285Y-51193000D01*
X116264714Y-51264428D01*
X116336142Y-51407285D01*
X116336142Y-51550142D01*
X116264714Y-51693000D01*
X116193285Y-51764428D01*
X116050428Y-51835857D01*
X115550428Y-51835857D01*
X116907571Y-51121571D02*
X117264714Y-52621571D01*
X117550428Y-51550142D01*
X117836142Y-52621571D01*
X118193285Y-51121571D01*
X118764714Y-52050142D02*
X119907571Y-52050142D01*
X115415428Y-59963857D02*
X115629714Y-60035285D01*
X115701142Y-60106714D01*
X115772571Y-60249571D01*
X115772571Y-60463857D01*
X115701142Y-60606714D01*
X115629714Y-60678142D01*
X115486857Y-60749571D01*
X114915428Y-60749571D01*
X114915428Y-59249571D01*
X115415428Y-59249571D01*
X115558285Y-59321000D01*
X115629714Y-59392428D01*
X115701142Y-59535285D01*
X115701142Y-59678142D01*
X115629714Y-59821000D01*
X115558285Y-59892428D01*
X115415428Y-59963857D01*
X114915428Y-59963857D01*
X116272571Y-59249571D02*
X116629714Y-60749571D01*
X116915428Y-59678142D01*
X117201142Y-60749571D01*
X117558285Y-59249571D01*
X118129714Y-60178142D02*
X119272571Y-60178142D01*
X118701142Y-60749571D02*
X118701142Y-59606714D01*
X182308761Y-90940000D02*
X182213523Y-90892380D01*
X182070666Y-90892380D01*
X181927809Y-90940000D01*
X181832571Y-91035238D01*
X181784952Y-91130476D01*
X181737333Y-91320952D01*
X181737333Y-91463809D01*
X181784952Y-91654285D01*
X181832571Y-91749523D01*
X181927809Y-91844761D01*
X182070666Y-91892380D01*
X182165904Y-91892380D01*
X182308761Y-91844761D01*
X182356380Y-91797142D01*
X182356380Y-91463809D01*
X182165904Y-91463809D01*
X182784952Y-91892380D02*
X182784952Y-90892380D01*
X183165904Y-90892380D01*
X183261142Y-90940000D01*
X183308761Y-90987619D01*
X183356380Y-91082857D01*
X183356380Y-91225714D01*
X183308761Y-91320952D01*
X183261142Y-91368571D01*
X183165904Y-91416190D01*
X182784952Y-91416190D01*
X183784952Y-91892380D02*
X183784952Y-90892380D01*
X184451619Y-90892380D02*
X184642095Y-90892380D01*
X184737333Y-90940000D01*
X184832571Y-91035238D01*
X184880190Y-91225714D01*
X184880190Y-91559047D01*
X184832571Y-91749523D01*
X184737333Y-91844761D01*
X184642095Y-91892380D01*
X184451619Y-91892380D01*
X184356380Y-91844761D01*
X184261142Y-91749523D01*
X184213523Y-91559047D01*
X184213523Y-91225714D01*
X184261142Y-91035238D01*
X184356380Y-90940000D01*
X184451619Y-90892380D01*
X185308761Y-91511428D02*
X186070666Y-91511428D01*
X186737333Y-90892380D02*
X186832571Y-90892380D01*
X186927809Y-90940000D01*
X186975428Y-90987619D01*
X187023047Y-91082857D01*
X187070666Y-91273333D01*
X187070666Y-91511428D01*
X187023047Y-91701904D01*
X186975428Y-91797142D01*
X186927809Y-91844761D01*
X186832571Y-91892380D01*
X186737333Y-91892380D01*
X186642095Y-91844761D01*
X186594476Y-91797142D01*
X186546857Y-91701904D01*
X186499238Y-91511428D01*
X186499238Y-91273333D01*
X186546857Y-91082857D01*
X186594476Y-90987619D01*
X186642095Y-90940000D01*
X186737333Y-90892380D01*
X127174857Y-135957571D02*
X128103428Y-135957571D01*
X127603428Y-136529000D01*
X127817714Y-136529000D01*
X127960571Y-136600428D01*
X128032000Y-136671857D01*
X128103428Y-136814714D01*
X128103428Y-137171857D01*
X128032000Y-137314714D01*
X127960571Y-137386142D01*
X127817714Y-137457571D01*
X127389142Y-137457571D01*
X127246285Y-137386142D01*
X127174857Y-137314714D01*
X128532000Y-135957571D02*
X129032000Y-137457571D01*
X129532000Y-135957571D01*
X129889142Y-135957571D02*
X130817714Y-135957571D01*
X130317714Y-136529000D01*
X130532000Y-136529000D01*
X130674857Y-136600428D01*
X130746285Y-136671857D01*
X130817714Y-136814714D01*
X130817714Y-137171857D01*
X130746285Y-137314714D01*
X130674857Y-137386142D01*
X130532000Y-137457571D01*
X130103428Y-137457571D01*
X129960571Y-137386142D01*
X129889142Y-137314714D01*
X127889142Y-138442000D02*
X127746285Y-138370571D01*
X127532000Y-138370571D01*
X127317714Y-138442000D01*
X127174857Y-138584857D01*
X127103428Y-138727714D01*
X127032000Y-139013428D01*
X127032000Y-139227714D01*
X127103428Y-139513428D01*
X127174857Y-139656285D01*
X127317714Y-139799142D01*
X127532000Y-139870571D01*
X127674857Y-139870571D01*
X127889142Y-139799142D01*
X127960571Y-139727714D01*
X127960571Y-139227714D01*
X127674857Y-139227714D01*
X128603428Y-139870571D02*
X128603428Y-138370571D01*
X129460571Y-139870571D01*
X129460571Y-138370571D01*
X130174857Y-139870571D02*
X130174857Y-138370571D01*
X130532000Y-138370571D01*
X130746285Y-138442000D01*
X130889142Y-138584857D01*
X130960571Y-138727714D01*
X131032000Y-139013428D01*
X131032000Y-139227714D01*
X130960571Y-139513428D01*
X130889142Y-139656285D01*
X130746285Y-139799142D01*
X130532000Y-139870571D01*
X130174857Y-139870571D01*
X132842000Y-65024000D02*
X123952000Y-65024000D01*
X180975000Y-127508000D02*
X189992000Y-127508000D01*
X159258000Y-132715000D02*
X168148000Y-132715000D01*
X168148000Y-119126000D02*
X168148000Y-132715000D01*
X159258000Y-119126000D02*
X159258000Y-132715000D01*
X159258000Y-119126000D02*
X168148000Y-119126000D01*
X145542000Y-132715000D02*
X154432000Y-132715000D01*
X145542000Y-119126000D02*
X145542000Y-132715000D01*
X154432000Y-119126000D02*
X154432000Y-132715000D01*
X145542000Y-119126000D02*
X154432000Y-119126000D01*
X167032714Y-131019857D02*
X167104142Y-131091285D01*
X167175571Y-131305571D01*
X167175571Y-131448428D01*
X167104142Y-131662714D01*
X166961285Y-131805571D01*
X166818428Y-131877000D01*
X166532714Y-131948428D01*
X166318428Y-131948428D01*
X166032714Y-131877000D01*
X165889857Y-131805571D01*
X165747000Y-131662714D01*
X165675571Y-131448428D01*
X165675571Y-131305571D01*
X165747000Y-131091285D01*
X165818428Y-131019857D01*
X165675571Y-130091285D02*
X165675571Y-129805571D01*
X165747000Y-129662714D01*
X165889857Y-129519857D01*
X166175571Y-129448428D01*
X166675571Y-129448428D01*
X166961285Y-129519857D01*
X167104142Y-129662714D01*
X167175571Y-129805571D01*
X167175571Y-130091285D01*
X167104142Y-130234142D01*
X166961285Y-130377000D01*
X166675571Y-130448428D01*
X166175571Y-130448428D01*
X165889857Y-130377000D01*
X165747000Y-130234142D01*
X165675571Y-130091285D01*
X166747000Y-128877000D02*
X166747000Y-128162714D01*
X167175571Y-129019857D02*
X165675571Y-128519857D01*
X167175571Y-128019857D01*
X165675571Y-127662714D02*
X167175571Y-126662714D01*
X165675571Y-126662714D02*
X167175571Y-127662714D01*
X165818428Y-126162714D02*
X165747000Y-126091285D01*
X165675571Y-125948428D01*
X165675571Y-125591285D01*
X165747000Y-125448428D01*
X165818428Y-125377000D01*
X165961285Y-125305571D01*
X166104142Y-125305571D01*
X166318428Y-125377000D01*
X167175571Y-126234142D01*
X167175571Y-125305571D01*
X166604142Y-123519857D02*
X166604142Y-122377000D01*
X153316714Y-131019857D02*
X153388142Y-131091285D01*
X153459571Y-131305571D01*
X153459571Y-131448428D01*
X153388142Y-131662714D01*
X153245285Y-131805571D01*
X153102428Y-131877000D01*
X152816714Y-131948428D01*
X152602428Y-131948428D01*
X152316714Y-131877000D01*
X152173857Y-131805571D01*
X152031000Y-131662714D01*
X151959571Y-131448428D01*
X151959571Y-131305571D01*
X152031000Y-131091285D01*
X152102428Y-131019857D01*
X151959571Y-130091285D02*
X151959571Y-129805571D01*
X152031000Y-129662714D01*
X152173857Y-129519857D01*
X152459571Y-129448428D01*
X152959571Y-129448428D01*
X153245285Y-129519857D01*
X153388142Y-129662714D01*
X153459571Y-129805571D01*
X153459571Y-130091285D01*
X153388142Y-130234142D01*
X153245285Y-130377000D01*
X152959571Y-130448428D01*
X152459571Y-130448428D01*
X152173857Y-130377000D01*
X152031000Y-130234142D01*
X151959571Y-130091285D01*
X153031000Y-128877000D02*
X153031000Y-128162714D01*
X153459571Y-129019857D02*
X151959571Y-128519857D01*
X153459571Y-128019857D01*
X151959571Y-127662714D02*
X153459571Y-126662714D01*
X151959571Y-126662714D02*
X153459571Y-127662714D01*
X153459571Y-125305571D02*
X153459571Y-126162714D01*
X153459571Y-125734142D02*
X151959571Y-125734142D01*
X152173857Y-125877000D01*
X152316714Y-126019857D01*
X152388142Y-126162714D01*
X152888142Y-123519857D02*
X152888142Y-122377000D01*
X161444714Y-131019857D02*
X161516142Y-131091285D01*
X161587571Y-131305571D01*
X161587571Y-131448428D01*
X161516142Y-131662714D01*
X161373285Y-131805571D01*
X161230428Y-131877000D01*
X160944714Y-131948428D01*
X160730428Y-131948428D01*
X160444714Y-131877000D01*
X160301857Y-131805571D01*
X160159000Y-131662714D01*
X160087571Y-131448428D01*
X160087571Y-131305571D01*
X160159000Y-131091285D01*
X160230428Y-131019857D01*
X160087571Y-130091285D02*
X160087571Y-129805571D01*
X160159000Y-129662714D01*
X160301857Y-129519857D01*
X160587571Y-129448428D01*
X161087571Y-129448428D01*
X161373285Y-129519857D01*
X161516142Y-129662714D01*
X161587571Y-129805571D01*
X161587571Y-130091285D01*
X161516142Y-130234142D01*
X161373285Y-130377000D01*
X161087571Y-130448428D01*
X160587571Y-130448428D01*
X160301857Y-130377000D01*
X160159000Y-130234142D01*
X160087571Y-130091285D01*
X161159000Y-128877000D02*
X161159000Y-128162714D01*
X161587571Y-129019857D02*
X160087571Y-128519857D01*
X161587571Y-128019857D01*
X160087571Y-127662714D02*
X161587571Y-126662714D01*
X160087571Y-126662714D02*
X161587571Y-127662714D01*
X160230428Y-126162714D02*
X160159000Y-126091285D01*
X160087571Y-125948428D01*
X160087571Y-125591285D01*
X160159000Y-125448428D01*
X160230428Y-125377000D01*
X160373285Y-125305571D01*
X160516142Y-125305571D01*
X160730428Y-125377000D01*
X161587571Y-126234142D01*
X161587571Y-125305571D01*
X161016142Y-123519857D02*
X161016142Y-122377000D01*
X161587571Y-122948428D02*
X160444714Y-122948428D01*
X147728714Y-131019857D02*
X147800142Y-131091285D01*
X147871571Y-131305571D01*
X147871571Y-131448428D01*
X147800142Y-131662714D01*
X147657285Y-131805571D01*
X147514428Y-131877000D01*
X147228714Y-131948428D01*
X147014428Y-131948428D01*
X146728714Y-131877000D01*
X146585857Y-131805571D01*
X146443000Y-131662714D01*
X146371571Y-131448428D01*
X146371571Y-131305571D01*
X146443000Y-131091285D01*
X146514428Y-131019857D01*
X146371571Y-130091285D02*
X146371571Y-129805571D01*
X146443000Y-129662714D01*
X146585857Y-129519857D01*
X146871571Y-129448428D01*
X147371571Y-129448428D01*
X147657285Y-129519857D01*
X147800142Y-129662714D01*
X147871571Y-129805571D01*
X147871571Y-130091285D01*
X147800142Y-130234142D01*
X147657285Y-130377000D01*
X147371571Y-130448428D01*
X146871571Y-130448428D01*
X146585857Y-130377000D01*
X146443000Y-130234142D01*
X146371571Y-130091285D01*
X147443000Y-128877000D02*
X147443000Y-128162714D01*
X147871571Y-129019857D02*
X146371571Y-128519857D01*
X147871571Y-128019857D01*
X146371571Y-127662714D02*
X147871571Y-126662714D01*
X146371571Y-126662714D02*
X147871571Y-127662714D01*
X147871571Y-125305571D02*
X147871571Y-126162714D01*
X147871571Y-125734142D02*
X146371571Y-125734142D01*
X146585857Y-125877000D01*
X146728714Y-126019857D01*
X146800142Y-126162714D01*
X147300142Y-123519857D02*
X147300142Y-122377000D01*
X147871571Y-122948428D02*
X146728714Y-122948428D01*
X124025642Y-64686571D02*
X124025642Y-63186571D01*
X124382785Y-63186571D01*
X124597071Y-63258000D01*
X124739928Y-63400857D01*
X124811357Y-63543714D01*
X124882785Y-63829428D01*
X124882785Y-64043714D01*
X124811357Y-64329428D01*
X124739928Y-64472285D01*
X124597071Y-64615142D01*
X124382785Y-64686571D01*
X124025642Y-64686571D01*
X125525642Y-64686571D02*
X125525642Y-63186571D01*
X126168500Y-64615142D02*
X126382785Y-64686571D01*
X126739928Y-64686571D01*
X126882785Y-64615142D01*
X126954214Y-64543714D01*
X127025642Y-64400857D01*
X127025642Y-64258000D01*
X126954214Y-64115142D01*
X126882785Y-64043714D01*
X126739928Y-63972285D01*
X126454214Y-63900857D01*
X126311357Y-63829428D01*
X126239928Y-63758000D01*
X126168500Y-63615142D01*
X126168500Y-63472285D01*
X126239928Y-63329428D01*
X126311357Y-63258000D01*
X126454214Y-63186571D01*
X126811357Y-63186571D01*
X127025642Y-63258000D01*
X127597071Y-64258000D02*
X128311357Y-64258000D01*
X127454214Y-64686571D02*
X127954214Y-63186571D01*
X128454214Y-64686571D01*
X129811357Y-64686571D02*
X129311357Y-63972285D01*
X128954214Y-64686571D02*
X128954214Y-63186571D01*
X129525642Y-63186571D01*
X129668500Y-63258000D01*
X129739928Y-63329428D01*
X129811357Y-63472285D01*
X129811357Y-63686571D01*
X129739928Y-63829428D01*
X129668500Y-63900857D01*
X129525642Y-63972285D01*
X128954214Y-63972285D01*
X130454214Y-64686571D02*
X130454214Y-63186571D01*
X130954214Y-64258000D01*
X131454214Y-63186571D01*
X131454214Y-64686571D01*
X191643142Y-114693000D02*
X191500285Y-114621571D01*
X191286000Y-114621571D01*
X191071714Y-114693000D01*
X190928857Y-114835857D01*
X190857428Y-114978714D01*
X190786000Y-115264428D01*
X190786000Y-115478714D01*
X190857428Y-115764428D01*
X190928857Y-115907285D01*
X191071714Y-116050142D01*
X191286000Y-116121571D01*
X191428857Y-116121571D01*
X191643142Y-116050142D01*
X191714571Y-115978714D01*
X191714571Y-115478714D01*
X191428857Y-115478714D01*
X192357428Y-116121571D02*
X192357428Y-114621571D01*
X193214571Y-116121571D01*
X193214571Y-114621571D01*
X193928857Y-116121571D02*
X193928857Y-114621571D01*
X194286000Y-114621571D01*
X194500285Y-114693000D01*
X194643142Y-114835857D01*
X194714571Y-114978714D01*
X194786000Y-115264428D01*
X194786000Y-115478714D01*
X194714571Y-115764428D01*
X194643142Y-115907285D01*
X194500285Y-116050142D01*
X194286000Y-116121571D01*
X193928857Y-116121571D01*
X190960857Y-113581571D02*
X190960857Y-112081571D01*
X191318000Y-112081571D01*
X191532285Y-112153000D01*
X191675142Y-112295857D01*
X191746571Y-112438714D01*
X191818000Y-112724428D01*
X191818000Y-112938714D01*
X191746571Y-113224428D01*
X191675142Y-113367285D01*
X191532285Y-113510142D01*
X191318000Y-113581571D01*
X190960857Y-113581571D01*
X192460857Y-112795857D02*
X192960857Y-112795857D01*
X193175142Y-113581571D02*
X192460857Y-113581571D01*
X192460857Y-112081571D01*
X193175142Y-112081571D01*
X193818000Y-113581571D02*
X193818000Y-112081571D01*
X194389428Y-112081571D01*
X194532285Y-112153000D01*
X194603714Y-112224428D01*
X194675142Y-112367285D01*
X194675142Y-112581571D01*
X194603714Y-112724428D01*
X194532285Y-112795857D01*
X194389428Y-112867285D01*
X193818000Y-112867285D01*
X196032285Y-113581571D02*
X195318000Y-113581571D01*
X195318000Y-112081571D01*
X196818000Y-112081571D02*
X197103714Y-112081571D01*
X197246571Y-112153000D01*
X197389428Y-112295857D01*
X197460857Y-112581571D01*
X197460857Y-113081571D01*
X197389428Y-113367285D01*
X197246571Y-113510142D01*
X197103714Y-113581571D01*
X196818000Y-113581571D01*
X196675142Y-113510142D01*
X196532285Y-113367285D01*
X196460857Y-113081571D01*
X196460857Y-112581571D01*
X196532285Y-112295857D01*
X196675142Y-112153000D01*
X196818000Y-112081571D01*
X198389428Y-112867285D02*
X198389428Y-113581571D01*
X197889428Y-112081571D02*
X198389428Y-112867285D01*
X198889428Y-112081571D01*
X116332142Y-77482000D02*
X116189285Y-77410571D01*
X115975000Y-77410571D01*
X115760714Y-77482000D01*
X115617857Y-77624857D01*
X115546428Y-77767714D01*
X115475000Y-78053428D01*
X115475000Y-78267714D01*
X115546428Y-78553428D01*
X115617857Y-78696285D01*
X115760714Y-78839142D01*
X115975000Y-78910571D01*
X116117857Y-78910571D01*
X116332142Y-78839142D01*
X116403571Y-78767714D01*
X116403571Y-78267714D01*
X116117857Y-78267714D01*
X117046428Y-78910571D02*
X117046428Y-77410571D01*
X117903571Y-78910571D01*
X117903571Y-77410571D01*
X118617857Y-78910571D02*
X118617857Y-77410571D01*
X118975000Y-77410571D01*
X119189285Y-77482000D01*
X119332142Y-77624857D01*
X119403571Y-77767714D01*
X119475000Y-78053428D01*
X119475000Y-78267714D01*
X119403571Y-78553428D01*
X119332142Y-78696285D01*
X119189285Y-78839142D01*
X118975000Y-78910571D01*
X118617857Y-78910571D01*
X111585857Y-76243571D02*
X111585857Y-74743571D01*
X111943000Y-74743571D01*
X112157285Y-74815000D01*
X112300142Y-74957857D01*
X112371571Y-75100714D01*
X112443000Y-75386428D01*
X112443000Y-75600714D01*
X112371571Y-75886428D01*
X112300142Y-76029285D01*
X112157285Y-76172142D01*
X111943000Y-76243571D01*
X111585857Y-76243571D01*
X113085857Y-75457857D02*
X113585857Y-75457857D01*
X113800142Y-76243571D02*
X113085857Y-76243571D01*
X113085857Y-74743571D01*
X113800142Y-74743571D01*
X114443000Y-76243571D02*
X114443000Y-74743571D01*
X115014428Y-74743571D01*
X115157285Y-74815000D01*
X115228714Y-74886428D01*
X115300142Y-75029285D01*
X115300142Y-75243571D01*
X115228714Y-75386428D01*
X115157285Y-75457857D01*
X115014428Y-75529285D01*
X114443000Y-75529285D01*
X116657285Y-76243571D02*
X115943000Y-76243571D01*
X115943000Y-74743571D01*
X117443000Y-74743571D02*
X117728714Y-74743571D01*
X117871571Y-74815000D01*
X118014428Y-74957857D01*
X118085857Y-75243571D01*
X118085857Y-75743571D01*
X118014428Y-76029285D01*
X117871571Y-76172142D01*
X117728714Y-76243571D01*
X117443000Y-76243571D01*
X117300142Y-76172142D01*
X117157285Y-76029285D01*
X117085857Y-75743571D01*
X117085857Y-75243571D01*
X117157285Y-74957857D01*
X117300142Y-74815000D01*
X117443000Y-74743571D01*
X119014428Y-75529285D02*
X119014428Y-76243571D01*
X118514428Y-74743571D02*
X119014428Y-75529285D01*
X119514428Y-74743571D01*
X183650142Y-106624380D02*
X183650142Y-105624380D01*
X184221571Y-106624380D01*
X184221571Y-105624380D01*
X185269190Y-106624380D02*
X184935857Y-106148190D01*
X184697761Y-106624380D02*
X184697761Y-105624380D01*
X185078714Y-105624380D01*
X185173952Y-105672000D01*
X185221571Y-105719619D01*
X185269190Y-105814857D01*
X185269190Y-105957714D01*
X185221571Y-106052952D01*
X185173952Y-106100571D01*
X185078714Y-106148190D01*
X184697761Y-106148190D01*
X185650142Y-106576761D02*
X185793000Y-106624380D01*
X186031095Y-106624380D01*
X186126333Y-106576761D01*
X186173952Y-106529142D01*
X186221571Y-106433904D01*
X186221571Y-106338666D01*
X186173952Y-106243428D01*
X186126333Y-106195809D01*
X186031095Y-106148190D01*
X185840619Y-106100571D01*
X185745380Y-106052952D01*
X185697761Y-106005333D01*
X185650142Y-105910095D01*
X185650142Y-105814857D01*
X185697761Y-105719619D01*
X185745380Y-105672000D01*
X185840619Y-105624380D01*
X186078714Y-105624380D01*
X186221571Y-105672000D01*
X186507285Y-105624380D02*
X187078714Y-105624380D01*
X186793000Y-106624380D02*
X186793000Y-105624380D01*
X182650095Y-104036761D02*
X182792952Y-104084380D01*
X183031047Y-104084380D01*
X183126285Y-104036761D01*
X183173904Y-103989142D01*
X183221523Y-103893904D01*
X183221523Y-103798666D01*
X183173904Y-103703428D01*
X183126285Y-103655809D01*
X183031047Y-103608190D01*
X182840571Y-103560571D01*
X182745333Y-103512952D01*
X182697714Y-103465333D01*
X182650095Y-103370095D01*
X182650095Y-103274857D01*
X182697714Y-103179619D01*
X182745333Y-103132000D01*
X182840571Y-103084380D01*
X183078666Y-103084380D01*
X183221523Y-103132000D01*
X183554857Y-103084380D02*
X183792952Y-104084380D01*
X183983428Y-103370095D01*
X184173904Y-104084380D01*
X184412000Y-103084380D01*
X185364380Y-103989142D02*
X185316761Y-104036761D01*
X185173904Y-104084380D01*
X185078666Y-104084380D01*
X184935809Y-104036761D01*
X184840571Y-103941523D01*
X184792952Y-103846285D01*
X184745333Y-103655809D01*
X184745333Y-103512952D01*
X184792952Y-103322476D01*
X184840571Y-103227238D01*
X184935809Y-103132000D01*
X185078666Y-103084380D01*
X185173904Y-103084380D01*
X185316761Y-103132000D01*
X185364380Y-103179619D01*
X186269142Y-104084380D02*
X185792952Y-104084380D01*
X185792952Y-103084380D01*
X186602476Y-104084380D02*
X186602476Y-103084380D01*
X187173904Y-104084380D02*
X186745333Y-103512952D01*
X187173904Y-103084380D02*
X186602476Y-103655809D01*
X182919952Y-101623761D02*
X183062809Y-101671380D01*
X183300904Y-101671380D01*
X183396142Y-101623761D01*
X183443761Y-101576142D01*
X183491380Y-101480904D01*
X183491380Y-101385666D01*
X183443761Y-101290428D01*
X183396142Y-101242809D01*
X183300904Y-101195190D01*
X183110428Y-101147571D01*
X183015190Y-101099952D01*
X182967571Y-101052333D01*
X182919952Y-100957095D01*
X182919952Y-100861857D01*
X182967571Y-100766619D01*
X183015190Y-100719000D01*
X183110428Y-100671380D01*
X183348523Y-100671380D01*
X183491380Y-100719000D01*
X183824714Y-100671380D02*
X184062809Y-101671380D01*
X184253285Y-100957095D01*
X184443761Y-101671380D01*
X184681857Y-100671380D01*
X185062809Y-101671380D02*
X185062809Y-100671380D01*
X185300904Y-100671380D01*
X185443761Y-100719000D01*
X185539000Y-100814238D01*
X185586619Y-100909476D01*
X185634238Y-101099952D01*
X185634238Y-101242809D01*
X185586619Y-101433285D01*
X185539000Y-101528523D01*
X185443761Y-101623761D01*
X185300904Y-101671380D01*
X185062809Y-101671380D01*
X186062809Y-101671380D02*
X186062809Y-100671380D01*
X186729476Y-100671380D02*
X186919952Y-100671380D01*
X187015190Y-100719000D01*
X187110428Y-100814238D01*
X187158047Y-101004714D01*
X187158047Y-101338047D01*
X187110428Y-101528523D01*
X187015190Y-101623761D01*
X186919952Y-101671380D01*
X186729476Y-101671380D01*
X186634238Y-101623761D01*
X186539000Y-101528523D01*
X186491380Y-101338047D01*
X186491380Y-101004714D01*
X186539000Y-100814238D01*
X186634238Y-100719000D01*
X186729476Y-100671380D01*
X185166095Y-86622000D02*
X185070857Y-86574380D01*
X184928000Y-86574380D01*
X184785142Y-86622000D01*
X184689904Y-86717238D01*
X184642285Y-86812476D01*
X184594666Y-87002952D01*
X184594666Y-87145809D01*
X184642285Y-87336285D01*
X184689904Y-87431523D01*
X184785142Y-87526761D01*
X184928000Y-87574380D01*
X185023238Y-87574380D01*
X185166095Y-87526761D01*
X185213714Y-87479142D01*
X185213714Y-87145809D01*
X185023238Y-87145809D01*
X185642285Y-87574380D02*
X185642285Y-86574380D01*
X186213714Y-87574380D01*
X186213714Y-86574380D01*
X186689904Y-87574380D02*
X186689904Y-86574380D01*
X186928000Y-86574380D01*
X187070857Y-86622000D01*
X187166095Y-86717238D01*
X187213714Y-86812476D01*
X187261333Y-87002952D01*
X187261333Y-87145809D01*
X187213714Y-87336285D01*
X187166095Y-87431523D01*
X187070857Y-87526761D01*
X186928000Y-87574380D01*
X186689904Y-87574380D01*
X184642285Y-84986761D02*
X184785142Y-85034380D01*
X185023238Y-85034380D01*
X185118476Y-84986761D01*
X185166095Y-84939142D01*
X185213714Y-84843904D01*
X185213714Y-84748666D01*
X185166095Y-84653428D01*
X185118476Y-84605809D01*
X185023238Y-84558190D01*
X184832761Y-84510571D01*
X184737523Y-84462952D01*
X184689904Y-84415333D01*
X184642285Y-84320095D01*
X184642285Y-84224857D01*
X184689904Y-84129619D01*
X184737523Y-84082000D01*
X184832761Y-84034380D01*
X185070857Y-84034380D01*
X185213714Y-84082000D01*
X186213714Y-84939142D02*
X186166095Y-84986761D01*
X186023238Y-85034380D01*
X185928000Y-85034380D01*
X185785142Y-84986761D01*
X185689904Y-84891523D01*
X185642285Y-84796285D01*
X185594666Y-84605809D01*
X185594666Y-84462952D01*
X185642285Y-84272476D01*
X185689904Y-84177238D01*
X185785142Y-84082000D01*
X185928000Y-84034380D01*
X186023238Y-84034380D01*
X186166095Y-84082000D01*
X186213714Y-84129619D01*
X186642285Y-85034380D02*
X186642285Y-84034380D01*
X187213714Y-85034380D02*
X186785142Y-84462952D01*
X187213714Y-84034380D02*
X186642285Y-84605809D01*
X184713714Y-82446761D02*
X184856571Y-82494380D01*
X185094666Y-82494380D01*
X185189904Y-82446761D01*
X185237523Y-82399142D01*
X185285142Y-82303904D01*
X185285142Y-82208666D01*
X185237523Y-82113428D01*
X185189904Y-82065809D01*
X185094666Y-82018190D01*
X184904190Y-81970571D01*
X184808952Y-81922952D01*
X184761333Y-81875333D01*
X184713714Y-81780095D01*
X184713714Y-81684857D01*
X184761333Y-81589619D01*
X184808952Y-81542000D01*
X184904190Y-81494380D01*
X185142285Y-81494380D01*
X185285142Y-81542000D01*
X185713714Y-82494380D02*
X185713714Y-81494380D01*
X185951809Y-81494380D01*
X186094666Y-81542000D01*
X186189904Y-81637238D01*
X186237523Y-81732476D01*
X186285142Y-81922952D01*
X186285142Y-82065809D01*
X186237523Y-82256285D01*
X186189904Y-82351523D01*
X186094666Y-82446761D01*
X185951809Y-82494380D01*
X185713714Y-82494380D01*
X186666095Y-82208666D02*
X187142285Y-82208666D01*
X186570857Y-82494380D02*
X186904190Y-81494380D01*
X187237523Y-82494380D01*
X184689904Y-78954380D02*
X185308952Y-78954380D01*
X184975619Y-79335333D01*
X185118476Y-79335333D01*
X185213714Y-79382952D01*
X185261333Y-79430571D01*
X185308952Y-79525809D01*
X185308952Y-79763904D01*
X185261333Y-79859142D01*
X185213714Y-79906761D01*
X185118476Y-79954380D01*
X184832761Y-79954380D01*
X184737523Y-79906761D01*
X184689904Y-79859142D01*
X185594666Y-78954380D02*
X185928000Y-79954380D01*
X186261333Y-78954380D01*
X186499428Y-78954380D02*
X187118476Y-78954380D01*
X186785142Y-79335333D01*
X186928000Y-79335333D01*
X187023238Y-79382952D01*
X187070857Y-79430571D01*
X187118476Y-79525809D01*
X187118476Y-79763904D01*
X187070857Y-79859142D01*
X187023238Y-79906761D01*
X186928000Y-79954380D01*
X186642285Y-79954380D01*
X186547047Y-79906761D01*
X186499428Y-79859142D01*
X181048642Y-127297571D02*
X181048642Y-125797571D01*
X181405785Y-125797571D01*
X181620071Y-125869000D01*
X181762928Y-126011857D01*
X181834357Y-126154714D01*
X181905785Y-126440428D01*
X181905785Y-126654714D01*
X181834357Y-126940428D01*
X181762928Y-127083285D01*
X181620071Y-127226142D01*
X181405785Y-127297571D01*
X181048642Y-127297571D01*
X182548642Y-127297571D02*
X182548642Y-125797571D01*
X183191500Y-127226142D02*
X183405785Y-127297571D01*
X183762928Y-127297571D01*
X183905785Y-127226142D01*
X183977214Y-127154714D01*
X184048642Y-127011857D01*
X184048642Y-126869000D01*
X183977214Y-126726142D01*
X183905785Y-126654714D01*
X183762928Y-126583285D01*
X183477214Y-126511857D01*
X183334357Y-126440428D01*
X183262928Y-126369000D01*
X183191500Y-126226142D01*
X183191500Y-126083285D01*
X183262928Y-125940428D01*
X183334357Y-125869000D01*
X183477214Y-125797571D01*
X183834357Y-125797571D01*
X184048642Y-125869000D01*
X184620071Y-126869000D02*
X185334357Y-126869000D01*
X184477214Y-127297571D02*
X184977214Y-125797571D01*
X185477214Y-127297571D01*
X186834357Y-127297571D02*
X186334357Y-126583285D01*
X185977214Y-127297571D02*
X185977214Y-125797571D01*
X186548642Y-125797571D01*
X186691500Y-125869000D01*
X186762928Y-125940428D01*
X186834357Y-126083285D01*
X186834357Y-126297571D01*
X186762928Y-126440428D01*
X186691500Y-126511857D01*
X186548642Y-126583285D01*
X185977214Y-126583285D01*
X187477214Y-127297571D02*
X187477214Y-125797571D01*
X187977214Y-126869000D01*
X188477214Y-125797571D01*
X188477214Y-127297571D01*
X151637273Y-65364790D02*
X151637273Y-66175187D01*
X151684943Y-66270528D01*
X151732614Y-66318198D01*
X151827954Y-66365869D01*
X152018636Y-66365869D01*
X152113977Y-66318198D01*
X152161647Y-66270528D01*
X152209318Y-66175187D01*
X152209318Y-65364790D01*
X153162726Y-65364790D02*
X152686022Y-65364790D01*
X152638352Y-65841494D01*
X152686022Y-65793823D01*
X152781363Y-65746153D01*
X153019715Y-65746153D01*
X153115056Y-65793823D01*
X153162726Y-65841494D01*
X153210397Y-65936835D01*
X153210397Y-66175187D01*
X153162726Y-66270528D01*
X153115056Y-66318198D01*
X153019715Y-66365869D01*
X152781363Y-66365869D01*
X152686022Y-66318198D01*
X152638352Y-66270528D01*
X194103666Y-98385380D02*
X194103666Y-99099666D01*
X194056047Y-99242523D01*
X193960809Y-99337761D01*
X193817952Y-99385380D01*
X193722714Y-99385380D01*
X195056047Y-98385380D02*
X194579857Y-98385380D01*
X194532238Y-98861571D01*
X194579857Y-98813952D01*
X194675095Y-98766333D01*
X194913190Y-98766333D01*
X195008428Y-98813952D01*
X195056047Y-98861571D01*
X195103666Y-98956809D01*
X195103666Y-99194904D01*
X195056047Y-99290142D01*
X195008428Y-99337761D01*
X194913190Y-99385380D01*
X194675095Y-99385380D01*
X194579857Y-99337761D01*
X194532238Y-99290142D01*
X183181666Y-134326380D02*
X183181666Y-135040666D01*
X183134047Y-135183523D01*
X183038809Y-135278761D01*
X182895952Y-135326380D01*
X182800714Y-135326380D01*
X184086428Y-134659714D02*
X184086428Y-135326380D01*
X183848333Y-134278761D02*
X183610238Y-134993047D01*
X184229285Y-134993047D01*
X130095666Y-55325380D02*
X130095666Y-56039666D01*
X130048047Y-56182523D01*
X129952809Y-56277761D01*
X129809952Y-56325380D01*
X129714714Y-56325380D01*
X130476619Y-55325380D02*
X131095666Y-55325380D01*
X130762333Y-55706333D01*
X130905190Y-55706333D01*
X131000428Y-55753952D01*
X131048047Y-55801571D01*
X131095666Y-55896809D01*
X131095666Y-56134904D01*
X131048047Y-56230142D01*
X131000428Y-56277761D01*
X130905190Y-56325380D01*
X130619476Y-56325380D01*
X130524238Y-56277761D01*
X130476619Y-56230142D01*
X194103666Y-88733380D02*
X194103666Y-89447666D01*
X194056047Y-89590523D01*
X193960809Y-89685761D01*
X193817952Y-89733380D01*
X193722714Y-89733380D01*
X194532238Y-88828619D02*
X194579857Y-88781000D01*
X194675095Y-88733380D01*
X194913190Y-88733380D01*
X195008428Y-88781000D01*
X195056047Y-88828619D01*
X195103666Y-88923857D01*
X195103666Y-89019095D01*
X195056047Y-89161952D01*
X194484619Y-89733380D01*
X195103666Y-89733380D01*
X194096666Y-107876880D02*
X194096666Y-108591166D01*
X194049047Y-108734023D01*
X193953809Y-108829261D01*
X193810952Y-108876880D01*
X193715714Y-108876880D01*
X195096666Y-108876880D02*
X194525238Y-108876880D01*
X194810952Y-108876880D02*
X194810952Y-107876880D01*
X194715714Y-108019738D01*
X194620476Y-108114976D01*
X194525238Y-108162595D01*
X150029942Y-54408342D02*
X149982323Y-54455961D01*
X149839466Y-54503580D01*
X149744228Y-54503580D01*
X149601371Y-54455961D01*
X149506133Y-54360723D01*
X149458514Y-54265485D01*
X149410895Y-54075009D01*
X149410895Y-53932152D01*
X149458514Y-53741676D01*
X149506133Y-53646438D01*
X149601371Y-53551200D01*
X149744228Y-53503580D01*
X149839466Y-53503580D01*
X149982323Y-53551200D01*
X150029942Y-53598819D01*
X150982323Y-54503580D02*
X150410895Y-54503580D01*
X150696609Y-54503580D02*
X150696609Y-53503580D01*
X150601371Y-53646438D01*
X150506133Y-53741676D01*
X150410895Y-53789295D01*
X151363276Y-53598819D02*
X151410895Y-53551200D01*
X151506133Y-53503580D01*
X151744228Y-53503580D01*
X151839466Y-53551200D01*
X151887085Y-53598819D01*
X151934704Y-53694057D01*
X151934704Y-53789295D01*
X151887085Y-53932152D01*
X151315657Y-54503580D01*
X151934704Y-54503580D01*
X161663142Y-66524142D02*
X161615523Y-66571761D01*
X161472666Y-66619380D01*
X161377428Y-66619380D01*
X161234571Y-66571761D01*
X161139333Y-66476523D01*
X161091714Y-66381285D01*
X161044095Y-66190809D01*
X161044095Y-66047952D01*
X161091714Y-65857476D01*
X161139333Y-65762238D01*
X161234571Y-65667000D01*
X161377428Y-65619380D01*
X161472666Y-65619380D01*
X161615523Y-65667000D01*
X161663142Y-65714619D01*
X162615523Y-66619380D02*
X162044095Y-66619380D01*
X162329809Y-66619380D02*
X162329809Y-65619380D01*
X162234571Y-65762238D01*
X162139333Y-65857476D01*
X162044095Y-65905095D01*
X163567904Y-66619380D02*
X162996476Y-66619380D01*
X163282190Y-66619380D02*
X163282190Y-65619380D01*
X163186952Y-65762238D01*
X163091714Y-65857476D01*
X162996476Y-65905095D01*
X154265333Y-51284142D02*
X154217714Y-51331761D01*
X154074857Y-51379380D01*
X153979619Y-51379380D01*
X153836761Y-51331761D01*
X153741523Y-51236523D01*
X153693904Y-51141285D01*
X153646285Y-50950809D01*
X153646285Y-50807952D01*
X153693904Y-50617476D01*
X153741523Y-50522238D01*
X153836761Y-50427000D01*
X153979619Y-50379380D01*
X154074857Y-50379380D01*
X154217714Y-50427000D01*
X154265333Y-50474619D01*
X154598666Y-50379380D02*
X155265333Y-50379380D01*
X154836761Y-51379380D01*
X146613666Y-63072971D02*
X146280333Y-63072971D01*
X146280333Y-63596780D02*
X146280333Y-62596780D01*
X146756523Y-62596780D01*
X147470809Y-63072971D02*
X147613666Y-63120590D01*
X147661285Y-63168209D01*
X147708904Y-63263447D01*
X147708904Y-63406304D01*
X147661285Y-63501542D01*
X147613666Y-63549161D01*
X147518428Y-63596780D01*
X147137476Y-63596780D01*
X147137476Y-62596780D01*
X147470809Y-62596780D01*
X147566047Y-62644400D01*
X147613666Y-62692019D01*
X147661285Y-62787257D01*
X147661285Y-62882495D01*
X147613666Y-62977733D01*
X147566047Y-63025352D01*
X147470809Y-63072971D01*
X147137476Y-63072971D01*
X148661285Y-63596780D02*
X148089857Y-63596780D01*
X148375571Y-63596780D02*
X148375571Y-62596780D01*
X148280333Y-62739638D01*
X148185095Y-62834876D01*
X148089857Y-62882495D01*
X129278142Y-125928380D02*
X128944809Y-125452190D01*
X128706714Y-125928380D02*
X128706714Y-124928380D01*
X129087666Y-124928380D01*
X129182904Y-124976000D01*
X129230523Y-125023619D01*
X129278142Y-125118857D01*
X129278142Y-125261714D01*
X129230523Y-125356952D01*
X129182904Y-125404571D01*
X129087666Y-125452190D01*
X128706714Y-125452190D01*
X130230523Y-125928380D02*
X129659095Y-125928380D01*
X129944809Y-125928380D02*
X129944809Y-124928380D01*
X129849571Y-125071238D01*
X129754333Y-125166476D01*
X129659095Y-125214095D01*
X130611476Y-125023619D02*
X130659095Y-124976000D01*
X130754333Y-124928380D01*
X130992428Y-124928380D01*
X131087666Y-124976000D01*
X131135285Y-125023619D01*
X131182904Y-125118857D01*
X131182904Y-125214095D01*
X131135285Y-125356952D01*
X130563857Y-125928380D01*
X131182904Y-125928380D01*
X126484142Y-125928380D02*
X126150809Y-125452190D01*
X125912714Y-125928380D02*
X125912714Y-124928380D01*
X126293666Y-124928380D01*
X126388904Y-124976000D01*
X126436523Y-125023619D01*
X126484142Y-125118857D01*
X126484142Y-125261714D01*
X126436523Y-125356952D01*
X126388904Y-125404571D01*
X126293666Y-125452190D01*
X125912714Y-125452190D01*
X127436523Y-125928380D02*
X126865095Y-125928380D01*
X127150809Y-125928380D02*
X127150809Y-124928380D01*
X127055571Y-125071238D01*
X126960333Y-125166476D01*
X126865095Y-125214095D01*
X128388904Y-125928380D02*
X127817476Y-125928380D01*
X128103190Y-125928380D02*
X128103190Y-124928380D01*
X128007952Y-125071238D01*
X127912714Y-125166476D01*
X127817476Y-125214095D01*
X186133742Y-69467880D02*
X185800409Y-68991690D01*
X185562314Y-69467880D02*
X185562314Y-68467880D01*
X185943266Y-68467880D01*
X186038504Y-68515500D01*
X186086123Y-68563119D01*
X186133742Y-68658357D01*
X186133742Y-68801214D01*
X186086123Y-68896452D01*
X186038504Y-68944071D01*
X185943266Y-68991690D01*
X185562314Y-68991690D01*
X187086123Y-69467880D02*
X186514695Y-69467880D01*
X186800409Y-69467880D02*
X186800409Y-68467880D01*
X186705171Y-68610738D01*
X186609933Y-68705976D01*
X186514695Y-68753595D01*
X187705171Y-68467880D02*
X187800409Y-68467880D01*
X187895647Y-68515500D01*
X187943266Y-68563119D01*
X187990885Y-68658357D01*
X188038504Y-68848833D01*
X188038504Y-69086928D01*
X187990885Y-69277404D01*
X187943266Y-69372642D01*
X187895647Y-69420261D01*
X187800409Y-69467880D01*
X187705171Y-69467880D01*
X187609933Y-69420261D01*
X187562314Y-69372642D01*
X187514695Y-69277404D01*
X187467076Y-69086928D01*
X187467076Y-68848833D01*
X187514695Y-68658357D01*
X187562314Y-68563119D01*
X187609933Y-68515500D01*
X187705171Y-68467880D01*
X183942933Y-69467880D02*
X183609600Y-68991690D01*
X183371504Y-69467880D02*
X183371504Y-68467880D01*
X183752457Y-68467880D01*
X183847695Y-68515500D01*
X183895314Y-68563119D01*
X183942933Y-68658357D01*
X183942933Y-68801214D01*
X183895314Y-68896452D01*
X183847695Y-68944071D01*
X183752457Y-68991690D01*
X183371504Y-68991690D01*
X184419123Y-69467880D02*
X184609600Y-69467880D01*
X184704838Y-69420261D01*
X184752457Y-69372642D01*
X184847695Y-69229785D01*
X184895314Y-69039309D01*
X184895314Y-68658357D01*
X184847695Y-68563119D01*
X184800076Y-68515500D01*
X184704838Y-68467880D01*
X184514361Y-68467880D01*
X184419123Y-68515500D01*
X184371504Y-68563119D01*
X184323885Y-68658357D01*
X184323885Y-68896452D01*
X184371504Y-68991690D01*
X184419123Y-69039309D01*
X184514361Y-69086928D01*
X184704838Y-69086928D01*
X184800076Y-69039309D01*
X184847695Y-68991690D01*
X184895314Y-68896452D01*
X144010142Y-63463142D02*
X143962523Y-63510761D01*
X143819666Y-63558380D01*
X143724428Y-63558380D01*
X143581571Y-63510761D01*
X143486333Y-63415523D01*
X143438714Y-63320285D01*
X143391095Y-63129809D01*
X143391095Y-62986952D01*
X143438714Y-62796476D01*
X143486333Y-62701238D01*
X143581571Y-62606000D01*
X143724428Y-62558380D01*
X143819666Y-62558380D01*
X143962523Y-62606000D01*
X144010142Y-62653619D01*
X144962523Y-63558380D02*
X144391095Y-63558380D01*
X144676809Y-63558380D02*
X144676809Y-62558380D01*
X144581571Y-62701238D01*
X144486333Y-62796476D01*
X144391095Y-62844095D01*
X145581571Y-62558380D02*
X145676809Y-62558380D01*
X145772047Y-62606000D01*
X145819666Y-62653619D01*
X145867285Y-62748857D01*
X145914904Y-62939333D01*
X145914904Y-63177428D01*
X145867285Y-63367904D01*
X145819666Y-63463142D01*
X145772047Y-63510761D01*
X145676809Y-63558380D01*
X145581571Y-63558380D01*
X145486333Y-63510761D01*
X145438714Y-63463142D01*
X145391095Y-63367904D01*
X145343476Y-63177428D01*
X145343476Y-62939333D01*
X145391095Y-62748857D01*
X145438714Y-62653619D01*
X145486333Y-62606000D01*
X145581571Y-62558380D01*
X149439333Y-63463142D02*
X149391714Y-63510761D01*
X149248857Y-63558380D01*
X149153619Y-63558380D01*
X149010761Y-63510761D01*
X148915523Y-63415523D01*
X148867904Y-63320285D01*
X148820285Y-63129809D01*
X148820285Y-62986952D01*
X148867904Y-62796476D01*
X148915523Y-62701238D01*
X149010761Y-62606000D01*
X149153619Y-62558380D01*
X149248857Y-62558380D01*
X149391714Y-62606000D01*
X149439333Y-62653619D01*
X149915523Y-63558380D02*
X150106000Y-63558380D01*
X150201238Y-63510761D01*
X150248857Y-63463142D01*
X150344095Y-63320285D01*
X150391714Y-63129809D01*
X150391714Y-62748857D01*
X150344095Y-62653619D01*
X150296476Y-62606000D01*
X150201238Y-62558380D01*
X150010761Y-62558380D01*
X149915523Y-62606000D01*
X149867904Y-62653619D01*
X149820285Y-62748857D01*
X149820285Y-62986952D01*
X149867904Y-63082190D01*
X149915523Y-63129809D01*
X150010761Y-63177428D01*
X150201238Y-63177428D01*
X150296476Y-63129809D01*
X150344095Y-63082190D01*
X150391714Y-62986952D01*
X185809095Y-113518380D02*
X186380523Y-113518380D01*
X186094809Y-114518380D02*
X186094809Y-113518380D01*
X186713857Y-114518380D02*
X186713857Y-113518380D01*
X187094809Y-113518380D01*
X187190047Y-113566000D01*
X187237666Y-113613619D01*
X187285285Y-113708857D01*
X187285285Y-113851714D01*
X187237666Y-113946952D01*
X187190047Y-113994571D01*
X187094809Y-114042190D01*
X186713857Y-114042190D01*
X187666238Y-113613619D02*
X187713857Y-113566000D01*
X187809095Y-113518380D01*
X188047190Y-113518380D01*
X188142428Y-113566000D01*
X188190047Y-113613619D01*
X188237666Y-113708857D01*
X188237666Y-113804095D01*
X188190047Y-113946952D01*
X187618619Y-114518380D01*
X188237666Y-114518380D01*
X122055095Y-76287380D02*
X122626523Y-76287380D01*
X122340809Y-77287380D02*
X122340809Y-76287380D01*
X122959857Y-77287380D02*
X122959857Y-76287380D01*
X123340809Y-76287380D01*
X123436047Y-76335000D01*
X123483666Y-76382619D01*
X123531285Y-76477857D01*
X123531285Y-76620714D01*
X123483666Y-76715952D01*
X123436047Y-76763571D01*
X123340809Y-76811190D01*
X122959857Y-76811190D01*
X124483666Y-77287380D02*
X123912238Y-77287380D01*
X124197952Y-77287380D02*
X124197952Y-76287380D01*
X124102714Y-76430238D01*
X124007476Y-76525476D01*
X123912238Y-76573095D01*
X163155333Y-55729142D02*
X163107714Y-55776761D01*
X162964857Y-55824380D01*
X162869619Y-55824380D01*
X162726761Y-55776761D01*
X162631523Y-55681523D01*
X162583904Y-55586285D01*
X162536285Y-55395809D01*
X162536285Y-55252952D01*
X162583904Y-55062476D01*
X162631523Y-54967238D01*
X162726761Y-54872000D01*
X162869619Y-54824380D01*
X162964857Y-54824380D01*
X163107714Y-54872000D01*
X163155333Y-54919619D01*
X163726761Y-55252952D02*
X163631523Y-55205333D01*
X163583904Y-55157714D01*
X163536285Y-55062476D01*
X163536285Y-55014857D01*
X163583904Y-54919619D01*
X163631523Y-54872000D01*
X163726761Y-54824380D01*
X163917238Y-54824380D01*
X164012476Y-54872000D01*
X164060095Y-54919619D01*
X164107714Y-55014857D01*
X164107714Y-55062476D01*
X164060095Y-55157714D01*
X164012476Y-55205333D01*
X163917238Y-55252952D01*
X163726761Y-55252952D01*
X163631523Y-55300571D01*
X163583904Y-55348190D01*
X163536285Y-55443428D01*
X163536285Y-55633904D01*
X163583904Y-55729142D01*
X163631523Y-55776761D01*
X163726761Y-55824380D01*
X163917238Y-55824380D01*
X164012476Y-55776761D01*
X164060095Y-55729142D01*
X164107714Y-55633904D01*
X164107714Y-55443428D01*
X164060095Y-55348190D01*
X164012476Y-55300571D01*
X163917238Y-55252952D01*
X164933333Y-55729142D02*
X164885714Y-55776761D01*
X164742857Y-55824380D01*
X164647619Y-55824380D01*
X164504761Y-55776761D01*
X164409523Y-55681523D01*
X164361904Y-55586285D01*
X164314285Y-55395809D01*
X164314285Y-55252952D01*
X164361904Y-55062476D01*
X164409523Y-54967238D01*
X164504761Y-54872000D01*
X164647619Y-54824380D01*
X164742857Y-54824380D01*
X164885714Y-54872000D01*
X164933333Y-54919619D01*
X165790476Y-54824380D02*
X165600000Y-54824380D01*
X165504761Y-54872000D01*
X165457142Y-54919619D01*
X165361904Y-55062476D01*
X165314285Y-55252952D01*
X165314285Y-55633904D01*
X165361904Y-55729142D01*
X165409523Y-55776761D01*
X165504761Y-55824380D01*
X165695238Y-55824380D01*
X165790476Y-55776761D01*
X165838095Y-55729142D01*
X165885714Y-55633904D01*
X165885714Y-55395809D01*
X165838095Y-55300571D01*
X165790476Y-55252952D01*
X165695238Y-55205333D01*
X165504761Y-55205333D01*
X165409523Y-55252952D01*
X165361904Y-55300571D01*
X165314285Y-55395809D01*
X163423695Y-92060780D02*
X163995123Y-92060780D01*
X163709409Y-93060780D02*
X163709409Y-92060780D01*
X164280838Y-92156019D02*
X164328457Y-92108400D01*
X164423695Y-92060780D01*
X164661790Y-92060780D01*
X164757028Y-92108400D01*
X164804647Y-92156019D01*
X164852266Y-92251257D01*
X164852266Y-92346495D01*
X164804647Y-92489352D01*
X164233219Y-93060780D01*
X164852266Y-93060780D01*
X164185600Y-94854780D02*
X164185600Y-95092876D01*
X163947504Y-94997638D02*
X164185600Y-95092876D01*
X164423695Y-94997638D01*
X164042742Y-95283352D02*
X164185600Y-95092876D01*
X164328457Y-95283352D01*
X158221142Y-53551380D02*
X157887809Y-53075190D01*
X157649714Y-53551380D02*
X157649714Y-52551380D01*
X158030666Y-52551380D01*
X158125904Y-52599000D01*
X158173523Y-52646619D01*
X158221142Y-52741857D01*
X158221142Y-52884714D01*
X158173523Y-52979952D01*
X158125904Y-53027571D01*
X158030666Y-53075190D01*
X157649714Y-53075190D01*
X159173523Y-53551380D02*
X158602095Y-53551380D01*
X158887809Y-53551380D02*
X158887809Y-52551380D01*
X158792571Y-52694238D01*
X158697333Y-52789476D01*
X158602095Y-52837095D01*
X159506857Y-52551380D02*
X160125904Y-52551380D01*
X159792571Y-52932333D01*
X159935428Y-52932333D01*
X160030666Y-52979952D01*
X160078285Y-53027571D01*
X160125904Y-53122809D01*
X160125904Y-53360904D01*
X160078285Y-53456142D01*
X160030666Y-53503761D01*
X159935428Y-53551380D01*
X159649714Y-53551380D01*
X159554476Y-53503761D01*
X159506857Y-53456142D01*
X179297104Y-129687580D02*
X179297104Y-128687580D01*
X179535200Y-128687580D01*
X179678057Y-128735200D01*
X179773295Y-128830438D01*
X179820914Y-128925676D01*
X179868533Y-129116152D01*
X179868533Y-129259009D01*
X179820914Y-129449485D01*
X179773295Y-129544723D01*
X179678057Y-129639961D01*
X179535200Y-129687580D01*
X179297104Y-129687580D01*
X180249485Y-128782819D02*
X180297104Y-128735200D01*
X180392342Y-128687580D01*
X180630438Y-128687580D01*
X180725676Y-128735200D01*
X180773295Y-128782819D01*
X180820914Y-128878057D01*
X180820914Y-128973295D01*
X180773295Y-129116152D01*
X180201866Y-129687580D01*
X180820914Y-129687580D01*
X117435333Y-73255142D02*
X117387714Y-73302761D01*
X117244857Y-73350380D01*
X117149619Y-73350380D01*
X117006761Y-73302761D01*
X116911523Y-73207523D01*
X116863904Y-73112285D01*
X116816285Y-72921809D01*
X116816285Y-72778952D01*
X116863904Y-72588476D01*
X116911523Y-72493238D01*
X117006761Y-72398000D01*
X117149619Y-72350380D01*
X117244857Y-72350380D01*
X117387714Y-72398000D01*
X117435333Y-72445619D01*
X118387714Y-73350380D02*
X117816285Y-73350380D01*
X118102000Y-73350380D02*
X118102000Y-72350380D01*
X118006761Y-72493238D01*
X117911523Y-72588476D01*
X117816285Y-72636095D01*
X126579333Y-73636142D02*
X126531714Y-73683761D01*
X126388857Y-73731380D01*
X126293619Y-73731380D01*
X126150761Y-73683761D01*
X126055523Y-73588523D01*
X126007904Y-73493285D01*
X125960285Y-73302809D01*
X125960285Y-73159952D01*
X126007904Y-72969476D01*
X126055523Y-72874238D01*
X126150761Y-72779000D01*
X126293619Y-72731380D01*
X126388857Y-72731380D01*
X126531714Y-72779000D01*
X126579333Y-72826619D01*
X126960285Y-72826619D02*
X127007904Y-72779000D01*
X127103142Y-72731380D01*
X127341238Y-72731380D01*
X127436476Y-72779000D01*
X127484095Y-72826619D01*
X127531714Y-72921857D01*
X127531714Y-73017095D01*
X127484095Y-73159952D01*
X126912666Y-73731380D01*
X127531714Y-73731380D01*
X156184695Y-98131380D02*
X156756123Y-98131380D01*
X156470409Y-99131380D02*
X156470409Y-98131380D01*
X157613266Y-99131380D02*
X157041838Y-99131380D01*
X157327552Y-99131380D02*
X157327552Y-98131380D01*
X157232314Y-98274238D01*
X157137076Y-98369476D01*
X157041838Y-98417095D01*
X156271980Y-101981000D02*
X156510076Y-101981000D01*
X156414838Y-102219095D02*
X156510076Y-101981000D01*
X156414838Y-101742904D01*
X156700552Y-102123857D02*
X156510076Y-101981000D01*
X156700552Y-101838142D01*
X116840095Y-67016380D02*
X116840095Y-67825904D01*
X116887714Y-67921142D01*
X116935333Y-67968761D01*
X117030571Y-68016380D01*
X117221047Y-68016380D01*
X117316285Y-67968761D01*
X117363904Y-67921142D01*
X117411523Y-67825904D01*
X117411523Y-67016380D01*
X118411523Y-68016380D02*
X117840095Y-68016380D01*
X118125809Y-68016380D02*
X118125809Y-67016380D01*
X118030571Y-67159238D01*
X117935333Y-67254476D01*
X117840095Y-67302095D01*
X184543795Y-60856880D02*
X184543795Y-61666404D01*
X184591414Y-61761642D01*
X184639033Y-61809261D01*
X184734271Y-61856880D01*
X184924747Y-61856880D01*
X185019985Y-61809261D01*
X185067604Y-61761642D01*
X185115223Y-61666404D01*
X185115223Y-60856880D01*
X185496176Y-60856880D02*
X186115223Y-60856880D01*
X185781890Y-61237833D01*
X185924747Y-61237833D01*
X186019985Y-61285452D01*
X186067604Y-61333071D01*
X186115223Y-61428309D01*
X186115223Y-61666404D01*
X186067604Y-61761642D01*
X186019985Y-61809261D01*
X185924747Y-61856880D01*
X185639033Y-61856880D01*
X185543795Y-61809261D01*
X185496176Y-61761642D01*
X192300333Y-124067142D02*
X192252714Y-124114761D01*
X192109857Y-124162380D01*
X192014619Y-124162380D01*
X191871761Y-124114761D01*
X191776523Y-124019523D01*
X191728904Y-123924285D01*
X191681285Y-123733809D01*
X191681285Y-123590952D01*
X191728904Y-123400476D01*
X191776523Y-123305238D01*
X191871761Y-123210000D01*
X192014619Y-123162380D01*
X192109857Y-123162380D01*
X192252714Y-123210000D01*
X192300333Y-123257619D01*
X193157476Y-123495714D02*
X193157476Y-124162380D01*
X192919380Y-123114761D02*
X192681285Y-123829047D01*
X193300333Y-123829047D01*
X193951333Y-121876380D02*
X193618000Y-121400190D01*
X193379904Y-121876380D02*
X193379904Y-120876380D01*
X193760857Y-120876380D01*
X193856095Y-120924000D01*
X193903714Y-120971619D01*
X193951333Y-121066857D01*
X193951333Y-121209714D01*
X193903714Y-121304952D01*
X193856095Y-121352571D01*
X193760857Y-121400190D01*
X193379904Y-121400190D01*
X194284666Y-120876380D02*
X194903714Y-120876380D01*
X194570380Y-121257333D01*
X194713238Y-121257333D01*
X194808476Y-121304952D01*
X194856095Y-121352571D01*
X194903714Y-121447809D01*
X194903714Y-121685904D01*
X194856095Y-121781142D01*
X194808476Y-121828761D01*
X194713238Y-121876380D01*
X194427523Y-121876380D01*
X194332285Y-121828761D01*
X194284666Y-121781142D01*
X179792333Y-132754880D02*
X179459000Y-132278690D01*
X179220904Y-132754880D02*
X179220904Y-131754880D01*
X179601857Y-131754880D01*
X179697095Y-131802500D01*
X179744714Y-131850119D01*
X179792333Y-131945357D01*
X179792333Y-132088214D01*
X179744714Y-132183452D01*
X179697095Y-132231071D01*
X179601857Y-132278690D01*
X179220904Y-132278690D01*
X180125666Y-131754880D02*
X180792333Y-131754880D01*
X180363761Y-132754880D01*
X150556933Y-58929542D02*
X150509314Y-58977161D01*
X150366457Y-59024780D01*
X150271219Y-59024780D01*
X150128361Y-58977161D01*
X150033123Y-58881923D01*
X149985504Y-58786685D01*
X149937885Y-58596209D01*
X149937885Y-58453352D01*
X149985504Y-58262876D01*
X150033123Y-58167638D01*
X150128361Y-58072400D01*
X150271219Y-58024780D01*
X150366457Y-58024780D01*
X150509314Y-58072400D01*
X150556933Y-58120019D01*
X151461695Y-58024780D02*
X150985504Y-58024780D01*
X150937885Y-58500971D01*
X150985504Y-58453352D01*
X151080742Y-58405733D01*
X151318838Y-58405733D01*
X151414076Y-58453352D01*
X151461695Y-58500971D01*
X151509314Y-58596209D01*
X151509314Y-58834304D01*
X151461695Y-58929542D01*
X151414076Y-58977161D01*
X151318838Y-59024780D01*
X151080742Y-59024780D01*
X150985504Y-58977161D01*
X150937885Y-58929542D01*
X133246904Y-61920380D02*
X133246904Y-60920380D01*
X133485000Y-60920380D01*
X133627857Y-60968000D01*
X133723095Y-61063238D01*
X133770714Y-61158476D01*
X133818333Y-61348952D01*
X133818333Y-61491809D01*
X133770714Y-61682285D01*
X133723095Y-61777523D01*
X133627857Y-61872761D01*
X133485000Y-61920380D01*
X133246904Y-61920380D01*
X134770714Y-61920380D02*
X134199285Y-61920380D01*
X134485000Y-61920380D02*
X134485000Y-60920380D01*
X134389761Y-61063238D01*
X134294523Y-61158476D01*
X134199285Y-61206095D01*
X180656095Y-119606380D02*
X180656095Y-120415904D01*
X180703714Y-120511142D01*
X180751333Y-120558761D01*
X180846571Y-120606380D01*
X181037047Y-120606380D01*
X181132285Y-120558761D01*
X181179904Y-120511142D01*
X181227523Y-120415904D01*
X181227523Y-119606380D01*
X181656095Y-119701619D02*
X181703714Y-119654000D01*
X181798952Y-119606380D01*
X182037047Y-119606380D01*
X182132285Y-119654000D01*
X182179904Y-119701619D01*
X182227523Y-119796857D01*
X182227523Y-119892095D01*
X182179904Y-120034952D01*
X181608476Y-120606380D01*
X182227523Y-120606380D01*
X130897333Y-67635380D02*
X130564000Y-67159190D01*
X130325904Y-67635380D02*
X130325904Y-66635380D01*
X130706857Y-66635380D01*
X130802095Y-66683000D01*
X130849714Y-66730619D01*
X130897333Y-66825857D01*
X130897333Y-66968714D01*
X130849714Y-67063952D01*
X130802095Y-67111571D01*
X130706857Y-67159190D01*
X130325904Y-67159190D01*
X131278285Y-66730619D02*
X131325904Y-66683000D01*
X131421142Y-66635380D01*
X131659238Y-66635380D01*
X131754476Y-66683000D01*
X131802095Y-66730619D01*
X131849714Y-66825857D01*
X131849714Y-66921095D01*
X131802095Y-67063952D01*
X131230666Y-67635380D01*
X131849714Y-67635380D01*
X183221333Y-132182880D02*
X182888000Y-131706690D01*
X182649904Y-132182880D02*
X182649904Y-131182880D01*
X183030857Y-131182880D01*
X183126095Y-131230500D01*
X183173714Y-131278119D01*
X183221333Y-131373357D01*
X183221333Y-131516214D01*
X183173714Y-131611452D01*
X183126095Y-131659071D01*
X183030857Y-131706690D01*
X182649904Y-131706690D01*
X183792761Y-131611452D02*
X183697523Y-131563833D01*
X183649904Y-131516214D01*
X183602285Y-131420976D01*
X183602285Y-131373357D01*
X183649904Y-131278119D01*
X183697523Y-131230500D01*
X183792761Y-131182880D01*
X183983238Y-131182880D01*
X184078476Y-131230500D01*
X184126095Y-131278119D01*
X184173714Y-131373357D01*
X184173714Y-131420976D01*
X184126095Y-131516214D01*
X184078476Y-131563833D01*
X183983238Y-131611452D01*
X183792761Y-131611452D01*
X183697523Y-131659071D01*
X183649904Y-131706690D01*
X183602285Y-131801928D01*
X183602285Y-131992404D01*
X183649904Y-132087642D01*
X183697523Y-132135261D01*
X183792761Y-132182880D01*
X183983238Y-132182880D01*
X184078476Y-132135261D01*
X184126095Y-132087642D01*
X184173714Y-131992404D01*
X184173714Y-131801928D01*
X184126095Y-131706690D01*
X184078476Y-131659071D01*
X183983238Y-131611452D01*
X178903333Y-124105942D02*
X178855714Y-124153561D01*
X178712857Y-124201180D01*
X178617619Y-124201180D01*
X178474761Y-124153561D01*
X178379523Y-124058323D01*
X178331904Y-123963085D01*
X178284285Y-123772609D01*
X178284285Y-123629752D01*
X178331904Y-123439276D01*
X178379523Y-123344038D01*
X178474761Y-123248800D01*
X178617619Y-123201180D01*
X178712857Y-123201180D01*
X178855714Y-123248800D01*
X178903333Y-123296419D01*
X179236666Y-123201180D02*
X179855714Y-123201180D01*
X179522380Y-123582133D01*
X179665238Y-123582133D01*
X179760476Y-123629752D01*
X179808095Y-123677371D01*
X179855714Y-123772609D01*
X179855714Y-124010704D01*
X179808095Y-124105942D01*
X179760476Y-124153561D01*
X179665238Y-124201180D01*
X179379523Y-124201180D01*
X179284285Y-124153561D01*
X179236666Y-124105942D01*
X130389333Y-59507380D02*
X130056000Y-59031190D01*
X129817904Y-59507380D02*
X129817904Y-58507380D01*
X130198857Y-58507380D01*
X130294095Y-58555000D01*
X130341714Y-58602619D01*
X130389333Y-58697857D01*
X130389333Y-58840714D01*
X130341714Y-58935952D01*
X130294095Y-58983571D01*
X130198857Y-59031190D01*
X129817904Y-59031190D01*
X131246476Y-58507380D02*
X131056000Y-58507380D01*
X130960761Y-58555000D01*
X130913142Y-58602619D01*
X130817904Y-58745476D01*
X130770285Y-58935952D01*
X130770285Y-59316904D01*
X130817904Y-59412142D01*
X130865523Y-59459761D01*
X130960761Y-59507380D01*
X131151238Y-59507380D01*
X131246476Y-59459761D01*
X131294095Y-59412142D01*
X131341714Y-59316904D01*
X131341714Y-59078809D01*
X131294095Y-58983571D01*
X131246476Y-58935952D01*
X131151238Y-58888333D01*
X130960761Y-58888333D01*
X130865523Y-58935952D01*
X130817904Y-58983571D01*
X130770285Y-59078809D01*
X130897333Y-69159380D02*
X130564000Y-68683190D01*
X130325904Y-69159380D02*
X130325904Y-68159380D01*
X130706857Y-68159380D01*
X130802095Y-68207000D01*
X130849714Y-68254619D01*
X130897333Y-68349857D01*
X130897333Y-68492714D01*
X130849714Y-68587952D01*
X130802095Y-68635571D01*
X130706857Y-68683190D01*
X130325904Y-68683190D01*
X131849714Y-69159380D02*
X131278285Y-69159380D01*
X131564000Y-69159380D02*
X131564000Y-68159380D01*
X131468761Y-68302238D01*
X131373523Y-68397476D01*
X131278285Y-68445095D01*
X128397095Y-117181380D02*
X128397095Y-117990904D01*
X128444714Y-118086142D01*
X128492333Y-118133761D01*
X128587571Y-118181380D01*
X128778047Y-118181380D01*
X128873285Y-118133761D01*
X128920904Y-118086142D01*
X128968523Y-117990904D01*
X128968523Y-117181380D01*
X129873285Y-117514714D02*
X129873285Y-118181380D01*
X129635190Y-117133761D02*
X129397095Y-117848047D01*
X130016142Y-117848047D01*
X133691333Y-58872380D02*
X133358000Y-58396190D01*
X133119904Y-58872380D02*
X133119904Y-57872380D01*
X133500857Y-57872380D01*
X133596095Y-57920000D01*
X133643714Y-57967619D01*
X133691333Y-58062857D01*
X133691333Y-58205714D01*
X133643714Y-58300952D01*
X133596095Y-58348571D01*
X133500857Y-58396190D01*
X133119904Y-58396190D01*
X134596095Y-57872380D02*
X134119904Y-57872380D01*
X134072285Y-58348571D01*
X134119904Y-58300952D01*
X134215142Y-58253333D01*
X134453238Y-58253333D01*
X134548476Y-58300952D01*
X134596095Y-58348571D01*
X134643714Y-58443809D01*
X134643714Y-58681904D01*
X134596095Y-58777142D01*
X134548476Y-58824761D01*
X134453238Y-58872380D01*
X134215142Y-58872380D01*
X134119904Y-58824761D01*
X134072285Y-58777142D01*
X193951333Y-120352380D02*
X193618000Y-119876190D01*
X193379904Y-120352380D02*
X193379904Y-119352380D01*
X193760857Y-119352380D01*
X193856095Y-119400000D01*
X193903714Y-119447619D01*
X193951333Y-119542857D01*
X193951333Y-119685714D01*
X193903714Y-119780952D01*
X193856095Y-119828571D01*
X193760857Y-119876190D01*
X193379904Y-119876190D01*
X194808476Y-119685714D02*
X194808476Y-120352380D01*
X194570380Y-119304761D02*
X194332285Y-120019047D01*
X194951333Y-120019047D01*
D12*
X152157803Y-56644000D02*
G75*
G03*
X152157803Y-56644000I-62803J0D01*
G01*
X154461225Y-57344000D02*
G75*
G03*
X154461225Y-57344000I-316225J0D01*
G01*
X160345000Y-56444000D02*
X160045000Y-56444000D01*
X160345000Y-56744000D02*
X160345000Y-56444000D01*
X160345000Y-63444000D02*
X160345000Y-63144000D01*
X160045000Y-63444000D02*
X160345000Y-63444000D01*
X153345000Y-63444000D02*
X153645000Y-63444000D01*
X153345000Y-63144000D02*
X153345000Y-63444000D01*
X153345000Y-56444000D02*
X153345000Y-56744000D01*
X153645000Y-56444000D02*
X153345000Y-56444000D01*
D13*
X189257000Y-89520000D02*
G75*
G03*
X189257000Y-89520000I-100000J0D01*
G01*
X193167000Y-90170000D02*
X195707000Y-90170000D01*
X193167000Y-97790000D02*
X193167000Y-90170000D01*
X195707000Y-97790000D02*
X195707000Y-90170000D01*
X195707000Y-97790000D02*
X193167000Y-97790000D01*
G36*
X116934028Y-128365968D02*
G01*
X117028976Y-128627178D01*
X115119727Y-128627178D01*
X115119727Y-130646850D01*
X115119787Y-130924455D01*
X115119968Y-131184031D01*
X115120266Y-131425353D01*
X115120683Y-131648197D01*
X115121215Y-131852338D01*
X115121863Y-132037552D01*
X115122626Y-132203615D01*
X115123501Y-132350302D01*
X115124488Y-132477389D01*
X115125585Y-132584651D01*
X115126792Y-132671865D01*
X115128108Y-132738805D01*
X115129531Y-132785248D01*
X115130711Y-132807051D01*
X115159006Y-133060778D01*
X115203824Y-133303780D01*
X115266056Y-133539200D01*
X115346595Y-133770183D01*
X115446331Y-133999875D01*
X115499616Y-134107351D01*
X115595280Y-134283169D01*
X115696294Y-134448380D01*
X115805288Y-134606519D01*
X115924889Y-134761123D01*
X116057726Y-134915726D01*
X116206427Y-135073866D01*
X116253261Y-135121261D01*
X116493869Y-135347562D01*
X116748988Y-135558942D01*
X117018715Y-135755472D01*
X117303147Y-135937221D01*
X117602383Y-136104259D01*
X117695252Y-136151610D01*
X117771373Y-136189058D01*
X117830879Y-136217034D01*
X117875412Y-136236230D01*
X117906615Y-136247338D01*
X117926130Y-136251049D01*
X117930593Y-136250711D01*
X117955411Y-136243240D01*
X117996339Y-136227884D01*
X118050667Y-136205841D01*
X118115687Y-136178310D01*
X118188689Y-136146491D01*
X118266965Y-136111581D01*
X118347806Y-136074782D01*
X118428502Y-136037290D01*
X118506345Y-136000307D01*
X118578625Y-135965029D01*
X118599036Y-135954850D01*
X118756943Y-135872948D01*
X118895965Y-135794978D01*
X119017535Y-135719989D01*
X119123088Y-135647032D01*
X119214055Y-135575156D01*
X119291872Y-135503411D01*
X119313294Y-135481318D01*
X119354740Y-135433454D01*
X119390038Y-135385167D01*
X119416660Y-135340508D01*
X119432080Y-135303532D01*
X119434906Y-135286275D01*
X119435886Y-135276522D01*
X119439217Y-135275529D01*
X119445484Y-135284704D01*
X119455271Y-135305451D01*
X119469164Y-135339178D01*
X119487746Y-135387291D01*
X119511604Y-135451196D01*
X119541322Y-135532301D01*
X119569463Y-135609835D01*
X119685942Y-135931652D01*
X119655363Y-135976096D01*
X119604458Y-136037869D01*
X119533807Y-136104244D01*
X119443971Y-136174899D01*
X119335512Y-136249513D01*
X119208994Y-136327765D01*
X119064979Y-136409333D01*
X118904027Y-136493896D01*
X118726702Y-136581134D01*
X118533566Y-136670725D01*
X118325182Y-136762347D01*
X118151382Y-136835443D01*
X118088774Y-136861063D01*
X118032332Y-136883734D01*
X117985022Y-136902300D01*
X117949811Y-136915604D01*
X117929664Y-136922489D01*
X117926406Y-136923188D01*
X117913277Y-136918913D01*
X117884647Y-136907063D01*
X117843856Y-136889104D01*
X117794244Y-136866500D01*
X117750379Y-136846022D01*
X117415432Y-136678902D01*
X117096198Y-136500974D01*
X116793241Y-136312631D01*
X116507126Y-136114263D01*
X116238419Y-135906264D01*
X115987684Y-135689025D01*
X115755486Y-135462938D01*
X115751131Y-135458429D01*
X115553628Y-135241136D01*
X115371810Y-135015418D01*
X115206267Y-134782435D01*
X115057590Y-134543349D01*
X114926371Y-134299322D01*
X114813201Y-134051514D01*
X114718671Y-133801088D01*
X114643373Y-133549205D01*
X114587896Y-133297027D01*
X114561093Y-133120291D01*
X114559318Y-133103929D01*
X114557676Y-133084281D01*
X114556162Y-133060535D01*
X114554772Y-133031884D01*
X114553500Y-132997517D01*
X114552341Y-132956627D01*
X114551290Y-132908402D01*
X114550342Y-132852034D01*
X114549492Y-132786714D01*
X114548736Y-132711633D01*
X114548067Y-132625980D01*
X114547481Y-132528947D01*
X114546973Y-132419725D01*
X114546538Y-132297504D01*
X114546170Y-132161474D01*
X114545866Y-132010828D01*
X114545619Y-131844754D01*
X114545425Y-131662445D01*
X114545278Y-131463090D01*
X114545174Y-131245880D01*
X114545108Y-131010007D01*
X114545074Y-130754660D01*
X114545067Y-130547379D01*
X114545067Y-128104759D01*
X116839080Y-128104759D01*
X116934028Y-128365968D01*
G37*
G36*
X118170653Y-133318498D02*
G01*
X117710924Y-133318498D01*
X117710924Y-134749926D01*
X117616889Y-134749926D01*
X117616889Y-133318498D01*
X117167609Y-133318498D01*
X117167609Y-133234911D01*
X118170653Y-133234911D01*
X118170653Y-133318498D01*
G37*
G36*
X119278180Y-133318498D02*
G01*
X118463207Y-133318498D01*
X118463207Y-133914056D01*
X119079661Y-133914056D01*
X119079661Y-133997643D01*
X118463207Y-133997643D01*
X118463207Y-134666339D01*
X119319974Y-134666339D01*
X119319974Y-134749926D01*
X118369172Y-134749926D01*
X118369172Y-133234911D01*
X119278180Y-133234911D01*
X119278180Y-133318498D01*
G37*
G36*
X119674223Y-134000104D02*
G01*
X119678781Y-133987194D01*
X119942539Y-133240135D01*
X120053192Y-133240135D01*
X120318466Y-133992418D01*
X120360737Y-134112318D01*
X120400936Y-134226388D01*
X120438529Y-134333109D01*
X120472982Y-134430967D01*
X120503763Y-134518444D01*
X120530337Y-134594024D01*
X120552171Y-134656189D01*
X120568732Y-134703424D01*
X120579487Y-134734211D01*
X120583902Y-134747034D01*
X120583984Y-134747314D01*
X120574753Y-134748832D01*
X120550982Y-134749774D01*
X120534264Y-134749926D01*
X120484301Y-134749926D01*
X120335801Y-134326766D01*
X119660537Y-134326766D01*
X119586846Y-134535734D01*
X119513156Y-134744701D01*
X119463583Y-134747886D01*
X119434841Y-134748159D01*
X119417207Y-134745286D01*
X119414516Y-134742662D01*
X119417994Y-134731695D01*
X119427904Y-134702565D01*
X119443709Y-134656809D01*
X119464870Y-134595965D01*
X119490851Y-134521568D01*
X119521113Y-134435156D01*
X119555119Y-134338267D01*
X119592331Y-134232437D01*
X119593147Y-134230119D01*
X119695934Y-134230119D01*
X119705892Y-134231891D01*
X119733570Y-134233473D01*
X119775801Y-134234848D01*
X119829417Y-134236001D01*
X119891251Y-134236914D01*
X119958137Y-134237572D01*
X120026907Y-134237957D01*
X120094394Y-134238053D01*
X120157431Y-134237843D01*
X120212851Y-134237312D01*
X120257487Y-134236443D01*
X120288173Y-134235219D01*
X120301740Y-134233624D01*
X120302121Y-134233273D01*
X120298778Y-134222253D01*
X120289328Y-134194008D01*
X120274636Y-134151012D01*
X120255571Y-134095738D01*
X120232999Y-134030660D01*
X120207787Y-133958250D01*
X120180803Y-133880984D01*
X120152914Y-133801334D01*
X120124986Y-133721773D01*
X120097887Y-133644776D01*
X120072483Y-133572815D01*
X120049642Y-133508365D01*
X120030230Y-133453898D01*
X120015116Y-133411889D01*
X120005165Y-133384810D01*
X120001373Y-133375303D01*
X119996959Y-133382759D01*
X119986580Y-133407560D01*
X119971094Y-133447304D01*
X119951360Y-133499586D01*
X119928237Y-133562001D01*
X119902585Y-133632145D01*
X119875262Y-133707613D01*
X119847128Y-133786002D01*
X119819042Y-133864907D01*
X119791863Y-133941924D01*
X119766450Y-134014648D01*
X119743662Y-134080674D01*
X119724358Y-134137600D01*
X119709398Y-134183019D01*
X119699640Y-134214529D01*
X119695943Y-134229724D01*
X119695934Y-134230119D01*
X119593147Y-134230119D01*
X119632212Y-134119204D01*
X119674223Y-134000104D01*
G37*
G36*
X121148510Y-133914235D02*
G01*
X121192521Y-134027243D01*
X121234308Y-134134293D01*
X121273260Y-134233830D01*
X121308763Y-134324302D01*
X121340205Y-134404156D01*
X121366974Y-134471838D01*
X121388458Y-134525795D01*
X121404043Y-134564475D01*
X121413118Y-134586323D01*
X121415271Y-134590768D01*
X121419227Y-134581033D01*
X121430023Y-134553743D01*
X121446911Y-134510814D01*
X121469144Y-134454160D01*
X121495973Y-134385698D01*
X121526650Y-134307341D01*
X121560428Y-134221006D01*
X121596557Y-134128607D01*
X121634290Y-134032061D01*
X121672878Y-133933282D01*
X121711574Y-133834185D01*
X121749628Y-133736685D01*
X121786294Y-133642699D01*
X121820823Y-133554141D01*
X121852467Y-133472926D01*
X121880478Y-133400969D01*
X121904106Y-133340187D01*
X121922606Y-133292494D01*
X121935227Y-133259805D01*
X121937761Y-133253196D01*
X121947020Y-133241988D01*
X121967087Y-133236381D01*
X122001100Y-133234911D01*
X122057448Y-133234911D01*
X122057448Y-134749926D01*
X121963413Y-134749926D01*
X121963102Y-134094290D01*
X121962791Y-133438655D01*
X121708120Y-134091678D01*
X121453448Y-134744701D01*
X121376298Y-134744701D01*
X121121627Y-134091678D01*
X120866955Y-133438655D01*
X120866644Y-134094290D01*
X120866333Y-134749926D01*
X120772298Y-134749926D01*
X120772298Y-133234911D01*
X120884247Y-133234911D01*
X121148510Y-133914235D01*
G37*
G36*
X120399143Y-131063810D02*
G01*
X120459261Y-131070883D01*
X120469295Y-131072989D01*
X120555368Y-131102924D01*
X120638147Y-131151055D01*
X120714168Y-131214685D01*
X120779965Y-131291112D01*
X120811863Y-131339872D01*
X120838970Y-131387319D01*
X120855404Y-131420462D01*
X120861641Y-131442672D01*
X120858156Y-131457320D01*
X120845424Y-131467776D01*
X120830871Y-131474571D01*
X120804931Y-131484449D01*
X120787573Y-131489326D01*
X120785694Y-131489445D01*
X120777570Y-131480409D01*
X120763638Y-131457088D01*
X120746700Y-131424237D01*
X120744138Y-131418918D01*
X120691418Y-131330530D01*
X120625331Y-131257956D01*
X120546307Y-131201643D01*
X120524107Y-131189924D01*
X120485230Y-131171346D01*
X120455185Y-131159789D01*
X120426505Y-131153641D01*
X120391727Y-131151288D01*
X120344457Y-131151111D01*
X120269311Y-131154777D01*
X120207830Y-131166333D01*
X120154156Y-131188260D01*
X120102429Y-131223036D01*
X120046791Y-131273142D01*
X120039833Y-131280042D01*
X119978583Y-131349327D01*
X119930597Y-131423109D01*
X119893078Y-131506584D01*
X119863229Y-131604947D01*
X119861823Y-131610611D01*
X119846045Y-131699430D01*
X119838356Y-131799408D01*
X119838760Y-131902701D01*
X119847266Y-132001465D01*
X119861415Y-132078226D01*
X119898000Y-132193529D01*
X119947059Y-132293630D01*
X120008061Y-132377777D01*
X120080472Y-132445219D01*
X120153342Y-132490216D01*
X120192399Y-132508844D01*
X120222766Y-132520448D01*
X120251971Y-132526681D01*
X120287539Y-132529196D01*
X120332924Y-132529646D01*
X120382233Y-132528982D01*
X120418098Y-132526011D01*
X120447954Y-132519262D01*
X120479239Y-132507264D01*
X120504267Y-132495763D01*
X120585458Y-132445892D01*
X120656263Y-132378644D01*
X120715977Y-132295159D01*
X120763894Y-132196581D01*
X120799308Y-132084050D01*
X120817565Y-131988942D01*
X120823226Y-131949761D01*
X120406605Y-131949761D01*
X120406605Y-131866174D01*
X120921274Y-131866174D01*
X120914105Y-131952373D01*
X120894641Y-132089293D01*
X120860273Y-132212512D01*
X120811195Y-132321622D01*
X120747603Y-132416214D01*
X120669692Y-132495880D01*
X120644813Y-132515854D01*
X120584495Y-132557212D01*
X120527036Y-132585566D01*
X120465791Y-132603168D01*
X120394113Y-132612269D01*
X120354363Y-132614269D01*
X120276810Y-132614234D01*
X120217489Y-132608540D01*
X120194375Y-132603402D01*
X120097189Y-132564858D01*
X120009437Y-132508506D01*
X119932105Y-132435651D01*
X119866179Y-132347601D01*
X119812647Y-132245660D01*
X119772495Y-132131133D01*
X119747689Y-132012194D01*
X119740601Y-131936065D01*
X119739016Y-131848760D01*
X119742583Y-131757644D01*
X119750954Y-131670085D01*
X119763780Y-131593451D01*
X119768463Y-131573620D01*
X119807344Y-131455179D01*
X119859784Y-131351355D01*
X119927011Y-131259894D01*
X119957049Y-131227547D01*
X120021611Y-131168348D01*
X120084285Y-131125014D01*
X120150918Y-131093997D01*
X120204881Y-131077235D01*
X120262468Y-131067138D01*
X120330384Y-131062613D01*
X120399143Y-131063810D01*
G37*
G36*
X128945914Y-131063810D02*
G01*
X129006032Y-131070883D01*
X129016066Y-131072989D01*
X129102139Y-131102924D01*
X129184918Y-131151055D01*
X129260939Y-131214685D01*
X129326736Y-131291112D01*
X129358633Y-131339872D01*
X129385741Y-131387319D01*
X129402175Y-131420462D01*
X129408411Y-131442672D01*
X129404926Y-131457320D01*
X129392195Y-131467776D01*
X129377642Y-131474571D01*
X129351701Y-131484449D01*
X129334344Y-131489326D01*
X129332465Y-131489445D01*
X129324341Y-131480409D01*
X129310409Y-131457088D01*
X129293470Y-131424237D01*
X129290909Y-131418918D01*
X129238188Y-131330530D01*
X129172102Y-131257956D01*
X129093078Y-131201643D01*
X129070877Y-131189924D01*
X129032001Y-131171346D01*
X129001955Y-131159789D01*
X128973276Y-131153641D01*
X128938498Y-131151288D01*
X128891227Y-131151111D01*
X128816081Y-131154777D01*
X128754601Y-131166333D01*
X128700927Y-131188260D01*
X128649200Y-131223036D01*
X128593561Y-131273142D01*
X128586604Y-131280042D01*
X128525353Y-131349327D01*
X128477367Y-131423109D01*
X128439849Y-131506584D01*
X128409999Y-131604947D01*
X128408594Y-131610611D01*
X128392816Y-131699430D01*
X128385127Y-131799408D01*
X128385531Y-131902701D01*
X128394037Y-132001465D01*
X128408186Y-132078226D01*
X128444770Y-132193529D01*
X128493830Y-132293630D01*
X128554832Y-132377777D01*
X128627243Y-132445219D01*
X128700112Y-132490216D01*
X128739170Y-132508844D01*
X128769537Y-132520448D01*
X128798742Y-132526681D01*
X128834310Y-132529196D01*
X128879695Y-132529646D01*
X128929004Y-132528982D01*
X128964869Y-132526011D01*
X128994725Y-132519262D01*
X129026009Y-132507264D01*
X129051038Y-132495763D01*
X129132228Y-132445892D01*
X129203034Y-132378644D01*
X129262748Y-132295159D01*
X129310665Y-132196581D01*
X129346079Y-132084050D01*
X129364336Y-131988942D01*
X129369997Y-131949761D01*
X128953376Y-131949761D01*
X128953376Y-131866174D01*
X129468045Y-131866174D01*
X129460875Y-131952373D01*
X129441412Y-132089293D01*
X129407044Y-132212512D01*
X129357966Y-132321622D01*
X129294374Y-132416214D01*
X129216462Y-132495880D01*
X129191584Y-132515854D01*
X129131266Y-132557212D01*
X129073807Y-132585566D01*
X129012562Y-132603168D01*
X128940883Y-132612269D01*
X128901134Y-132614269D01*
X128823581Y-132614234D01*
X128764260Y-132608540D01*
X128741146Y-132603402D01*
X128643960Y-132564858D01*
X128556208Y-132508506D01*
X128478876Y-132435651D01*
X128412950Y-132347601D01*
X128359418Y-132245660D01*
X128319266Y-132131133D01*
X128294460Y-132012194D01*
X128287372Y-131936065D01*
X128285786Y-131848760D01*
X128289354Y-131757644D01*
X128297725Y-131670085D01*
X128310551Y-131593451D01*
X128315234Y-131573620D01*
X128354115Y-131455179D01*
X128406555Y-131351355D01*
X128473782Y-131259894D01*
X128503820Y-131227547D01*
X128568382Y-131168348D01*
X128631055Y-131125014D01*
X128697689Y-131093997D01*
X128751652Y-131077235D01*
X128809239Y-131067138D01*
X128877155Y-131062613D01*
X128945914Y-131063810D01*
G37*
G36*
X118181101Y-131166133D02*
G01*
X117366128Y-131166133D01*
X117366128Y-131761690D01*
X117982582Y-131761690D01*
X117982582Y-131845277D01*
X117366128Y-131845277D01*
X117366128Y-132513973D01*
X118222895Y-132513973D01*
X118222895Y-132597560D01*
X117272092Y-132597560D01*
X117272092Y-131082546D01*
X118181101Y-131082546D01*
X118181101Y-131166133D01*
G37*
G36*
X118541026Y-131087770D02*
G01*
X118969681Y-131761100D01*
X119398337Y-132434430D01*
X119403713Y-131082546D01*
X119497596Y-131082546D01*
X119497596Y-132597560D01*
X119394576Y-132597560D01*
X118531122Y-131240672D01*
X118525746Y-132597560D01*
X118431862Y-132597560D01*
X118431862Y-131081454D01*
X118541026Y-131087770D01*
G37*
G36*
X121252923Y-132597560D02*
G01*
X121158888Y-132597560D01*
X121158888Y-131082546D01*
X121252923Y-131082546D01*
X121252923Y-132597560D01*
G37*
G36*
X121685987Y-131087770D02*
G01*
X122114642Y-131761100D01*
X122543298Y-132434430D01*
X122548674Y-131082546D01*
X122642557Y-131082546D01*
X122642557Y-132597560D01*
X122539537Y-132597560D01*
X121676083Y-131240672D01*
X121670707Y-132597560D01*
X121576823Y-132597560D01*
X121576823Y-131081454D01*
X121685987Y-131087770D01*
G37*
G36*
X123865017Y-131166133D02*
G01*
X123050044Y-131166133D01*
X123050044Y-131761690D01*
X123666498Y-131761690D01*
X123666498Y-131845277D01*
X123050044Y-131845277D01*
X123050044Y-132513973D01*
X123906811Y-132513973D01*
X123906811Y-132597560D01*
X122956008Y-132597560D01*
X122956008Y-131082546D01*
X123865017Y-131082546D01*
X123865017Y-131166133D01*
G37*
G36*
X125024787Y-131166133D02*
G01*
X124209814Y-131166133D01*
X124209814Y-131761690D01*
X124826268Y-131761690D01*
X124826268Y-131845277D01*
X124209814Y-131845277D01*
X124209814Y-132513973D01*
X125066580Y-132513973D01*
X125066580Y-132597560D01*
X124115778Y-132597560D01*
X124115778Y-131082546D01*
X125024787Y-131082546D01*
X125024787Y-131166133D01*
G37*
G36*
X125654555Y-131084660D02*
G01*
X126023113Y-131087770D01*
X126092262Y-131121829D01*
X126159392Y-131163189D01*
X126213599Y-131216123D01*
X126258475Y-131284412D01*
X126271924Y-131311121D01*
X126286229Y-131342666D01*
X126295636Y-131369073D01*
X126301165Y-131396238D01*
X126303835Y-131430059D01*
X126304667Y-131476433D01*
X126304713Y-131500716D01*
X126304379Y-131553691D01*
X126302684Y-131591594D01*
X126298584Y-131620248D01*
X126291038Y-131645473D01*
X126279002Y-131673094D01*
X126270847Y-131689884D01*
X126222902Y-131765162D01*
X126160666Y-131828086D01*
X126087374Y-131876287D01*
X126006260Y-131907395D01*
X125962043Y-131916033D01*
X125904360Y-131923640D01*
X126055681Y-132169177D01*
X126098956Y-132239380D01*
X126141884Y-132308988D01*
X126182274Y-132374452D01*
X126217935Y-132432222D01*
X126246677Y-132478748D01*
X126263946Y-132506666D01*
X126320891Y-132598618D01*
X126203187Y-132592336D01*
X125997250Y-132257988D01*
X125791314Y-131923640D01*
X125380032Y-131917974D01*
X125380032Y-132597560D01*
X125285996Y-132597560D01*
X125285996Y-131835990D01*
X125380032Y-131835990D01*
X125685647Y-131832797D01*
X125991261Y-131829605D01*
X126044754Y-131801385D01*
X126098500Y-131765741D01*
X126141413Y-131719550D01*
X126177762Y-131658041D01*
X126183116Y-131646758D01*
X126197356Y-131611663D01*
X126205523Y-131577809D01*
X126209105Y-131537006D01*
X126209680Y-131500481D01*
X126208397Y-131450098D01*
X126203555Y-131412319D01*
X126193668Y-131378956D01*
X126183116Y-131354204D01*
X126147406Y-131289875D01*
X126105797Y-131241609D01*
X126054022Y-131204634D01*
X126044754Y-131199576D01*
X125991261Y-131171357D01*
X125685647Y-131168165D01*
X125380032Y-131164972D01*
X125380032Y-131835990D01*
X125285996Y-131835990D01*
X125285996Y-131081550D01*
X125654555Y-131084660D01*
G37*
G36*
X126644285Y-132597560D02*
G01*
X126550250Y-132597560D01*
X126550250Y-131082546D01*
X126644285Y-131082546D01*
X126644285Y-132597560D01*
G37*
G36*
X127022766Y-131084612D02*
G01*
X127077348Y-131087770D01*
X127506004Y-131761100D01*
X127934659Y-132434430D01*
X127937348Y-131758488D01*
X127940036Y-131082546D01*
X128033919Y-131082546D01*
X128033919Y-132597560D01*
X127930898Y-132597560D01*
X127067444Y-131240672D01*
X127064756Y-131919116D01*
X127062069Y-132597560D01*
X126968185Y-132597560D01*
X126968185Y-131081454D01*
X127022766Y-131084612D01*
G37*
G36*
X117778005Y-128928426D02*
G01*
X117877249Y-128952824D01*
X117967284Y-128991832D01*
X118045407Y-129044201D01*
X118108914Y-129108685D01*
X118123206Y-129128013D01*
X118154122Y-129172692D01*
X118117982Y-129202527D01*
X118081841Y-129232363D01*
X118061593Y-129204040D01*
X117997123Y-129131184D01*
X117920263Y-129073782D01*
X117833749Y-129032870D01*
X117740317Y-129009486D01*
X117642702Y-129004664D01*
X117562549Y-129015055D01*
X117480266Y-129040385D01*
X117414554Y-129077758D01*
X117365794Y-129126756D01*
X117334371Y-129186959D01*
X117320665Y-129257949D01*
X117320058Y-129280201D01*
X117323062Y-129330758D01*
X117332605Y-129374682D01*
X117350475Y-129413608D01*
X117378458Y-129449170D01*
X117418341Y-129483001D01*
X117471913Y-129516736D01*
X117540958Y-129552009D01*
X117627266Y-129590454D01*
X117686126Y-129614926D01*
X117794237Y-129661434D01*
X117884099Y-129705514D01*
X117958014Y-129748517D01*
X118018285Y-129791798D01*
X118067213Y-129836707D01*
X118071549Y-129841316D01*
X118114659Y-129894728D01*
X118142222Y-129947828D01*
X118156292Y-130006597D01*
X118158921Y-130077012D01*
X118158214Y-130093786D01*
X118145507Y-130181916D01*
X118116745Y-130257873D01*
X118070940Y-130323967D01*
X118050411Y-130345476D01*
X117993634Y-130390139D01*
X117924071Y-130428641D01*
X117849732Y-130456871D01*
X117817506Y-130464994D01*
X117767125Y-130471931D01*
X117706231Y-130475038D01*
X117642373Y-130474416D01*
X117583100Y-130470165D01*
X117535961Y-130462385D01*
X117531347Y-130461184D01*
X117449232Y-130431189D01*
X117377741Y-130387942D01*
X117318570Y-130336113D01*
X117283667Y-130297896D01*
X117251213Y-130256572D01*
X117224250Y-130216646D01*
X117205817Y-130182620D01*
X117198954Y-130158999D01*
X117198954Y-130158925D01*
X117206826Y-130148096D01*
X117225677Y-130133716D01*
X117248363Y-130120148D01*
X117267739Y-130111758D01*
X117276122Y-130111780D01*
X117282548Y-130122715D01*
X117295233Y-130146700D01*
X117308044Y-130171839D01*
X117354840Y-130242667D01*
X117417846Y-130303706D01*
X117493324Y-130351396D01*
X117499860Y-130354562D01*
X117532359Y-130369306D01*
X117559215Y-130378844D01*
X117586608Y-130384256D01*
X117620722Y-130386625D01*
X117667736Y-130387034D01*
X117684803Y-130386939D01*
X117743261Y-130385596D01*
X117787080Y-130381935D01*
X117822468Y-130375111D01*
X117855630Y-130364278D01*
X117858030Y-130363347D01*
X117931504Y-130324624D01*
X117989505Y-130272743D01*
X118030937Y-130209267D01*
X118054707Y-130135756D01*
X118060285Y-130074890D01*
X118055516Y-130018170D01*
X118040000Y-129966980D01*
X118012304Y-129920024D01*
X117970993Y-129876010D01*
X117914634Y-129833645D01*
X117841793Y-129791635D01*
X117751035Y-129748685D01*
X117654411Y-129708773D01*
X117567975Y-129673707D01*
X117498175Y-129642601D01*
X117441594Y-129613544D01*
X117394812Y-129584624D01*
X117354411Y-129553930D01*
X117318183Y-129520748D01*
X117272387Y-129469518D01*
X117242338Y-129419534D01*
X117225881Y-129364967D01*
X117220861Y-129299989D01*
X117222025Y-129260693D01*
X117235881Y-129175700D01*
X117267004Y-129101830D01*
X117314612Y-129039674D01*
X117377924Y-128989825D01*
X117456155Y-128952876D01*
X117548526Y-128929417D01*
X117654253Y-128920041D01*
X117672257Y-128919887D01*
X117778005Y-128928426D01*
G37*
G36*
X121277443Y-128927381D02*
G01*
X121343163Y-128939139D01*
X121380652Y-128950493D01*
X121455191Y-128987725D01*
X121527629Y-129040050D01*
X121591153Y-129102202D01*
X121614521Y-129131299D01*
X121647325Y-129178603D01*
X121675142Y-129223989D01*
X121695996Y-129263722D01*
X121707911Y-129294068D01*
X121709274Y-129310503D01*
X121696906Y-129321518D01*
X121672537Y-129332692D01*
X121666816Y-129334573D01*
X121629161Y-129346130D01*
X121590540Y-129272634D01*
X121534888Y-129185316D01*
X121469018Y-129114166D01*
X121394612Y-129060030D01*
X121313350Y-129023757D01*
X121226913Y-129006195D01*
X121136979Y-129008191D01*
X121086007Y-129018094D01*
X121007565Y-129045229D01*
X120939162Y-129085267D01*
X120874469Y-129141970D01*
X120870175Y-129146392D01*
X120806654Y-129226798D01*
X120756175Y-129320512D01*
X120718720Y-129424529D01*
X120694271Y-129535843D01*
X120682810Y-129651451D01*
X120684320Y-129768346D01*
X120698783Y-129883523D01*
X120726180Y-129993978D01*
X120766495Y-130096704D01*
X120819708Y-130188698D01*
X120876777Y-130257964D01*
X120949413Y-130318529D01*
X121028983Y-130360773D01*
X121112889Y-130384933D01*
X121198535Y-130391245D01*
X121283323Y-130379947D01*
X121364658Y-130351276D01*
X121439942Y-130305468D01*
X121506578Y-130242762D01*
X121541197Y-130197321D01*
X121561587Y-130166822D01*
X121576808Y-130143932D01*
X121583690Y-130133418D01*
X121583752Y-130133315D01*
X121594247Y-130133244D01*
X121615648Y-130139417D01*
X121640091Y-130148895D01*
X121659711Y-130158739D01*
X121666298Y-130164164D01*
X121665350Y-130180645D01*
X121652193Y-130208197D01*
X121629324Y-130243039D01*
X121599238Y-130281392D01*
X121564430Y-130319478D01*
X121562380Y-130321538D01*
X121484414Y-130385574D01*
X121395238Y-130434566D01*
X121320404Y-130460542D01*
X121265333Y-130470262D01*
X121200358Y-130474741D01*
X121133798Y-130473952D01*
X121073973Y-130467867D01*
X121043956Y-130461436D01*
X120945675Y-130423197D01*
X120857322Y-130367003D01*
X120779584Y-130293640D01*
X120713149Y-130203897D01*
X120658704Y-130098560D01*
X120616937Y-129978417D01*
X120614592Y-129969794D01*
X120599135Y-129892666D01*
X120589373Y-129802437D01*
X120585474Y-129706156D01*
X120587610Y-129610877D01*
X120595949Y-129523650D01*
X120602874Y-129483430D01*
X120636636Y-129359132D01*
X120683356Y-129248090D01*
X120742153Y-129151341D01*
X120812144Y-129069927D01*
X120892448Y-129004886D01*
X120982182Y-128957259D01*
X121072557Y-128929664D01*
X121134091Y-128922099D01*
X121205070Y-128921519D01*
X121277443Y-128927381D01*
G37*
G36*
X118759325Y-128940629D02*
G01*
X118862721Y-128940764D01*
X118947665Y-128941391D01*
X119016600Y-128942839D01*
X119071969Y-128945439D01*
X119116217Y-128949521D01*
X119151788Y-128955417D01*
X119181124Y-128963456D01*
X119206669Y-128973969D01*
X119230868Y-128987286D01*
X119256164Y-129003739D01*
X119263596Y-129008829D01*
X119325634Y-129063771D01*
X119374593Y-129132265D01*
X119409723Y-129210993D01*
X119430271Y-129296633D01*
X119435489Y-129385866D01*
X119424624Y-129475372D01*
X119396927Y-129561831D01*
X119391409Y-129574047D01*
X119352073Y-129637608D01*
X119298401Y-129696166D01*
X119236678Y-129743463D01*
X119202863Y-129761817D01*
X119137127Y-129792172D01*
X118821064Y-129795349D01*
X118505001Y-129798525D01*
X118505001Y-130455643D01*
X118410965Y-130455643D01*
X118410965Y-129715243D01*
X118505001Y-129715243D01*
X118805391Y-129711861D01*
X118895812Y-129710677D01*
X118967790Y-129709289D01*
X119023779Y-129707548D01*
X119066233Y-129705303D01*
X119097605Y-129702407D01*
X119120349Y-129698708D01*
X119136919Y-129694059D01*
X119143810Y-129691262D01*
X119199138Y-129656773D01*
X119250201Y-129607604D01*
X119290960Y-129549896D01*
X119300001Y-129532421D01*
X119327437Y-129453524D01*
X119337312Y-129373222D01*
X119330685Y-129294492D01*
X119308617Y-129220310D01*
X119272167Y-129153654D01*
X119222395Y-129097500D01*
X119160360Y-129054825D01*
X119124405Y-129039232D01*
X119105381Y-129034635D01*
X119075690Y-129031025D01*
X119033346Y-129028315D01*
X118976365Y-129026417D01*
X118902763Y-129025243D01*
X118810554Y-129024706D01*
X118794943Y-129024675D01*
X118505001Y-129024216D01*
X118505001Y-129715243D01*
X118410965Y-129715243D01*
X118410965Y-128940629D01*
X118759325Y-128940629D01*
G37*
G36*
X119590636Y-129705822D02*
G01*
X119595194Y-129692912D01*
X119858952Y-128945853D01*
X119969605Y-128945853D01*
X120234879Y-129698136D01*
X120277150Y-129818036D01*
X120317349Y-129932105D01*
X120354942Y-130038827D01*
X120389395Y-130136685D01*
X120420176Y-130224162D01*
X120446750Y-130299742D01*
X120468584Y-130361907D01*
X120485145Y-130409142D01*
X120495900Y-130439929D01*
X120500315Y-130452752D01*
X120500397Y-130453031D01*
X120491166Y-130454550D01*
X120467395Y-130455492D01*
X120450677Y-130455643D01*
X120400714Y-130455643D01*
X120326464Y-130244064D01*
X120252214Y-130032484D01*
X119576950Y-130032484D01*
X119503259Y-130241452D01*
X119429569Y-130450419D01*
X119379996Y-130453604D01*
X119351254Y-130453877D01*
X119333620Y-130451004D01*
X119330929Y-130448380D01*
X119334407Y-130437413D01*
X119344317Y-130408283D01*
X119360122Y-130362527D01*
X119381283Y-130301682D01*
X119407264Y-130227286D01*
X119437526Y-130140874D01*
X119471532Y-130043985D01*
X119508744Y-129938155D01*
X119509560Y-129935837D01*
X119612347Y-129935837D01*
X119622305Y-129937609D01*
X119649983Y-129939191D01*
X119692214Y-129940566D01*
X119745830Y-129941719D01*
X119807664Y-129942632D01*
X119874550Y-129943289D01*
X119943320Y-129943674D01*
X120010807Y-129943770D01*
X120073844Y-129943561D01*
X120129264Y-129943030D01*
X120173900Y-129942161D01*
X120204586Y-129940937D01*
X120218153Y-129939341D01*
X120218534Y-129938991D01*
X120215191Y-129927971D01*
X120205741Y-129899726D01*
X120191049Y-129856730D01*
X120171984Y-129801456D01*
X120149412Y-129736377D01*
X120124200Y-129663968D01*
X120097216Y-129586702D01*
X120069327Y-129507051D01*
X120041399Y-129427491D01*
X120014300Y-129350493D01*
X119988896Y-129278533D01*
X119966055Y-129214083D01*
X119946643Y-129159616D01*
X119931529Y-129117607D01*
X119921578Y-129090528D01*
X119917786Y-129081021D01*
X119913372Y-129088477D01*
X119902993Y-129113278D01*
X119887507Y-129153022D01*
X119867773Y-129205304D01*
X119844650Y-129267719D01*
X119818998Y-129337862D01*
X119791675Y-129413331D01*
X119763541Y-129491720D01*
X119735455Y-129570625D01*
X119708276Y-129647641D01*
X119682863Y-129720365D01*
X119660075Y-129786392D01*
X119640771Y-129843317D01*
X119625811Y-129888737D01*
X119616053Y-129920247D01*
X119612356Y-129935442D01*
X119612347Y-129935837D01*
X119509560Y-129935837D01*
X119548625Y-129824922D01*
X119590636Y-129705822D01*
G37*
G36*
X122861973Y-129024216D02*
G01*
X122047000Y-129024216D01*
X122047000Y-129619773D01*
X122663454Y-129619773D01*
X122663454Y-129703360D01*
X122047000Y-129703360D01*
X122047000Y-130372056D01*
X122903767Y-130372056D01*
X122903767Y-130455643D01*
X121952964Y-130455643D01*
X121952964Y-128940629D01*
X122861973Y-128940629D01*
X122861973Y-129024216D01*
G37*
G36*
X117217146Y-127452924D02*
G01*
X117221691Y-127375993D01*
X117230444Y-127310119D01*
X117244370Y-127250447D01*
X117264431Y-127192119D01*
X117291593Y-127130279D01*
X117302939Y-127106939D01*
X117357205Y-127012250D01*
X117417914Y-126935394D01*
X117487241Y-126873746D01*
X117508796Y-126858653D01*
X117567254Y-126822897D01*
X117620652Y-126798225D01*
X117675363Y-126782853D01*
X117737762Y-126774998D01*
X117814222Y-126772878D01*
X117815408Y-126772880D01*
X117893696Y-126775684D01*
X117957935Y-126784951D01*
X118014473Y-126802598D01*
X118069657Y-126830542D01*
X118122899Y-126865712D01*
X118200746Y-126933786D01*
X118268549Y-127019209D01*
X118325390Y-127120535D01*
X118370353Y-127236314D01*
X118381517Y-127274113D01*
X118390145Y-127308224D01*
X118396351Y-127341125D01*
X118400513Y-127377280D01*
X118403011Y-127421156D01*
X118404221Y-127477217D01*
X118404523Y-127545771D01*
X118404187Y-127617466D01*
X118402928Y-127672735D01*
X118400366Y-127716040D01*
X118396122Y-127751846D01*
X118389818Y-127784616D01*
X118381457Y-127817429D01*
X118348256Y-127915739D01*
X118305197Y-128008875D01*
X118254707Y-128092700D01*
X118199213Y-128163078D01*
X118152902Y-128206875D01*
X118113371Y-128238588D01*
X118186417Y-128344312D01*
X118215919Y-128387001D01*
X118242106Y-128424873D01*
X118262114Y-128453788D01*
X118273027Y-128469530D01*
X118279660Y-128483378D01*
X118273982Y-128494898D01*
X118252947Y-128509811D01*
X118250897Y-128511083D01*
X118227508Y-128524946D01*
X118212895Y-128532502D01*
X118211213Y-128532979D01*
X118204109Y-128524857D01*
X118187255Y-128502623D01*
X118162874Y-128469294D01*
X118133190Y-128427884D01*
X118119522Y-128408591D01*
X118031823Y-128284367D01*
X117988918Y-128300991D01*
X117957927Y-128309430D01*
X117914563Y-128314889D01*
X117855523Y-128317697D01*
X117815408Y-128318230D01*
X117737993Y-128316529D01*
X117675270Y-128309472D01*
X117621352Y-128295348D01*
X117570354Y-128272447D01*
X117516393Y-128239058D01*
X117497468Y-128225830D01*
X117419622Y-128157756D01*
X117351819Y-128072333D01*
X117294977Y-127971007D01*
X117250014Y-127855228D01*
X117238851Y-127817429D01*
X117230223Y-127783318D01*
X117224017Y-127750417D01*
X117219854Y-127714262D01*
X117217357Y-127670386D01*
X117216147Y-127614325D01*
X117216012Y-127583709D01*
X117308312Y-127583709D01*
X117318245Y-127695134D01*
X117339854Y-127802869D01*
X117372998Y-127904265D01*
X117417535Y-127996671D01*
X117473323Y-128077439D01*
X117540220Y-128143918D01*
X117564826Y-128162349D01*
X117643340Y-128204578D01*
X117730819Y-128230341D01*
X117822185Y-128238651D01*
X117908835Y-128229294D01*
X117939897Y-128221215D01*
X117961545Y-128212949D01*
X117967106Y-128208924D01*
X117963715Y-128197218D01*
X117950175Y-128172602D01*
X117928780Y-128138959D01*
X117908013Y-128108809D01*
X117843312Y-128017770D01*
X117873765Y-127993402D01*
X117895611Y-127977456D01*
X117910575Y-127969268D01*
X117912112Y-127968982D01*
X117921405Y-127976898D01*
X117939173Y-127997996D01*
X117962076Y-128028224D01*
X117969578Y-128038650D01*
X117996174Y-128075422D01*
X118021162Y-128108892D01*
X118039766Y-128132684D01*
X118041942Y-128135297D01*
X118064734Y-128162225D01*
X118120390Y-128104759D01*
X118183994Y-128024895D01*
X118234879Y-127931766D01*
X118273049Y-127828350D01*
X118298510Y-127717623D01*
X118311265Y-127602564D01*
X118311319Y-127486149D01*
X118298676Y-127371357D01*
X118273340Y-127261164D01*
X118235316Y-127158547D01*
X118184608Y-127066485D01*
X118121221Y-126987955D01*
X118118760Y-126985475D01*
X118043602Y-126923661D01*
X117962156Y-126880727D01*
X117876750Y-126856671D01*
X117789714Y-126851490D01*
X117703378Y-126865182D01*
X117620070Y-126897746D01*
X117542120Y-126949179D01*
X117501864Y-126986033D01*
X117438759Y-127063960D01*
X117388182Y-127154094D01*
X117349991Y-127253785D01*
X117324043Y-127360385D01*
X117310198Y-127471242D01*
X117308312Y-127583709D01*
X117216012Y-127583709D01*
X117215845Y-127545771D01*
X117217146Y-127452924D01*
G37*
G36*
X118737653Y-127328967D02*
G01*
X118738748Y-127452919D01*
X118739881Y-127557808D01*
X118741119Y-127645470D01*
X118742526Y-127717738D01*
X118744167Y-127776448D01*
X118746110Y-127823433D01*
X118748418Y-127860529D01*
X118751158Y-127889570D01*
X118754394Y-127912390D01*
X118758193Y-127930823D01*
X118759294Y-127935173D01*
X118790582Y-128026779D01*
X118832234Y-128100610D01*
X118885428Y-128157659D01*
X118951345Y-128198923D01*
X119031162Y-128225395D01*
X119117669Y-128237526D01*
X119219233Y-128237143D01*
X119309378Y-128221214D01*
X119387072Y-128190204D01*
X119451285Y-128144577D01*
X119500984Y-128084798D01*
X119516214Y-128057741D01*
X119528654Y-128032646D01*
X119539206Y-128009910D01*
X119548038Y-127987625D01*
X119555317Y-127963883D01*
X119561211Y-127936776D01*
X119565887Y-127904395D01*
X119569512Y-127864833D01*
X119572254Y-127816180D01*
X119574279Y-127756529D01*
X119575755Y-127683971D01*
X119576850Y-127596597D01*
X119577730Y-127492501D01*
X119578563Y-127369773D01*
X119578726Y-127344640D01*
X119582355Y-126788264D01*
X119675219Y-126788264D01*
X119675140Y-127302846D01*
X119674908Y-127412131D01*
X119674273Y-127515429D01*
X119673275Y-127610562D01*
X119671953Y-127695348D01*
X119670347Y-127767609D01*
X119668495Y-127825163D01*
X119666438Y-127865832D01*
X119664582Y-127885343D01*
X119640584Y-127995661D01*
X119604976Y-128089012D01*
X119557230Y-128166144D01*
X119496816Y-128227807D01*
X119423205Y-128274751D01*
X119375338Y-128295138D01*
X119340604Y-128305718D01*
X119301752Y-128312907D01*
X119253343Y-128317415D01*
X119189939Y-128319950D01*
X119184145Y-128320087D01*
X119129170Y-128320487D01*
X119077395Y-128319353D01*
X119034813Y-128316909D01*
X119008365Y-128313580D01*
X118918048Y-128284834D01*
X118840015Y-128239287D01*
X118774751Y-128177385D01*
X118722743Y-128099577D01*
X118688819Y-128019775D01*
X118678243Y-127984929D01*
X118669273Y-127947203D01*
X118661790Y-127904675D01*
X118655672Y-127855424D01*
X118650799Y-127797529D01*
X118647049Y-127729069D01*
X118644301Y-127648123D01*
X118642435Y-127552770D01*
X118641330Y-127441087D01*
X118640864Y-127311155D01*
X118640830Y-127257334D01*
X118640830Y-126788264D01*
X118733227Y-126788264D01*
X118737653Y-127328967D01*
G37*
G36*
X124611242Y-126776061D02*
G01*
X124710486Y-126800459D01*
X124800521Y-126839466D01*
X124878644Y-126891836D01*
X124942151Y-126956320D01*
X124956443Y-126975648D01*
X124987359Y-127020327D01*
X124915079Y-127079997D01*
X124894831Y-127051675D01*
X124830360Y-126978818D01*
X124753500Y-126921416D01*
X124666986Y-126880505D01*
X124573554Y-126857120D01*
X124475940Y-126852298D01*
X124395786Y-126862690D01*
X124313504Y-126888020D01*
X124247791Y-126925393D01*
X124199032Y-126974390D01*
X124167608Y-127034593D01*
X124153903Y-127105583D01*
X124153295Y-127127836D01*
X124156299Y-127178393D01*
X124165842Y-127222317D01*
X124183712Y-127261243D01*
X124211695Y-127296805D01*
X124251579Y-127330636D01*
X124305150Y-127364371D01*
X124374196Y-127399644D01*
X124460503Y-127438088D01*
X124519363Y-127462560D01*
X124627475Y-127509068D01*
X124717337Y-127553148D01*
X124791252Y-127596152D01*
X124851522Y-127639432D01*
X124900450Y-127684341D01*
X124904786Y-127688950D01*
X124947896Y-127742363D01*
X124975460Y-127795463D01*
X124989529Y-127854231D01*
X124992158Y-127924647D01*
X124991452Y-127941420D01*
X124978744Y-128029550D01*
X124949982Y-128105508D01*
X124904177Y-128171601D01*
X124883649Y-128193111D01*
X124826871Y-128237774D01*
X124757308Y-128276275D01*
X124682969Y-128304506D01*
X124650743Y-128312629D01*
X124600362Y-128319566D01*
X124539468Y-128322673D01*
X124475610Y-128322051D01*
X124416337Y-128317800D01*
X124369198Y-128310020D01*
X124364584Y-128308818D01*
X124282470Y-128278824D01*
X124210978Y-128235577D01*
X124151808Y-128183748D01*
X124116904Y-128145530D01*
X124084451Y-128104207D01*
X124057487Y-128064281D01*
X124039054Y-128030255D01*
X124032191Y-128006634D01*
X124032191Y-128006559D01*
X124040063Y-127995731D01*
X124058914Y-127981350D01*
X124081601Y-127967783D01*
X124100976Y-127959393D01*
X124109359Y-127959415D01*
X124115786Y-127970350D01*
X124128470Y-127994335D01*
X124141281Y-128019474D01*
X124188078Y-128090302D01*
X124251083Y-128151341D01*
X124326561Y-128199031D01*
X124333097Y-128202196D01*
X124365596Y-128216941D01*
X124392452Y-128226479D01*
X124419846Y-128231891D01*
X124453959Y-128234260D01*
X124500973Y-128234669D01*
X124518041Y-128234574D01*
X124576498Y-128233231D01*
X124620318Y-128229570D01*
X124655705Y-128222745D01*
X124688867Y-128211913D01*
X124691268Y-128210982D01*
X124764741Y-128172259D01*
X124822742Y-128120378D01*
X124864175Y-128056902D01*
X124887945Y-127983391D01*
X124893522Y-127922524D01*
X124888753Y-127865805D01*
X124873237Y-127814614D01*
X124845541Y-127767659D01*
X124804230Y-127723645D01*
X124747871Y-127681280D01*
X124675030Y-127639269D01*
X124584273Y-127596320D01*
X124487648Y-127556407D01*
X124401212Y-127521341D01*
X124331413Y-127490236D01*
X124274831Y-127461179D01*
X124228049Y-127432259D01*
X124187648Y-127401564D01*
X124151420Y-127368383D01*
X124105624Y-127317153D01*
X124075575Y-127267169D01*
X124059118Y-127212601D01*
X124054098Y-127147623D01*
X124055262Y-127108328D01*
X124069118Y-127023335D01*
X124100241Y-126949465D01*
X124147850Y-126887309D01*
X124211161Y-126837460D01*
X124289393Y-126800510D01*
X124381763Y-126777051D01*
X124487490Y-126767675D01*
X124505494Y-126767521D01*
X124611242Y-126776061D01*
G37*
G36*
X120876782Y-126871851D02*
G01*
X120061809Y-126871851D01*
X120061809Y-127467408D01*
X120678263Y-127467408D01*
X120678263Y-127550995D01*
X120061809Y-127550995D01*
X120061809Y-128219691D01*
X120918575Y-128219691D01*
X120918575Y-128303278D01*
X119967773Y-128303278D01*
X119967773Y-126788264D01*
X120876782Y-126788264D01*
X120876782Y-126871851D01*
G37*
G36*
X122047000Y-126871851D02*
G01*
X121232027Y-126871851D01*
X121232027Y-127467408D01*
X121848481Y-127467408D01*
X121848481Y-127550995D01*
X121232027Y-127550995D01*
X121232027Y-128219691D01*
X122088793Y-128219691D01*
X122088793Y-128303278D01*
X121137991Y-128303278D01*
X121137991Y-126788264D01*
X122047000Y-126788264D01*
X122047000Y-126871851D01*
G37*
G36*
X122406925Y-126793488D02*
G01*
X122835580Y-127466818D01*
X123264236Y-128140148D01*
X123269612Y-126788264D01*
X123363495Y-126788264D01*
X123363495Y-128303278D01*
X123260475Y-128303278D01*
X122828748Y-127624834D01*
X122397020Y-126946390D01*
X122394333Y-127624834D01*
X122391645Y-128303278D01*
X122297761Y-128303278D01*
X122297761Y-126787172D01*
X122406925Y-126793488D01*
G37*
G36*
X123880351Y-126793286D02*
G01*
X123884340Y-126798069D01*
X123879393Y-126810217D01*
X123867317Y-126838934D01*
X123849230Y-126881588D01*
X123826250Y-126935547D01*
X123799496Y-126998180D01*
X123770982Y-127064767D01*
X123736689Y-127144352D01*
X123709253Y-127206482D01*
X123687465Y-127252980D01*
X123670119Y-127285669D01*
X123656006Y-127306373D01*
X123643919Y-127316913D01*
X123632651Y-127319115D01*
X123620995Y-127314799D01*
X123610163Y-127307578D01*
X123604783Y-127302307D01*
X123601864Y-127294292D01*
X123601948Y-127281115D01*
X123605577Y-127260362D01*
X123613294Y-127229618D01*
X123625638Y-127186468D01*
X123643153Y-127128496D01*
X123666379Y-127053288D01*
X123669338Y-127043756D01*
X123747048Y-126793488D01*
X123817518Y-126790375D01*
X123857990Y-126790047D01*
X123880351Y-126793286D01*
G37*
D14*
X159709000Y-121977000D02*
X159709000Y-119577000D01*
X162109000Y-121977000D02*
X159709000Y-121977000D01*
X162109000Y-119577000D02*
X162109000Y-121977000D01*
X159709000Y-119577000D02*
X162109000Y-119577000D01*
X165297000Y-121977000D02*
X165297000Y-119577000D01*
X167697000Y-121977000D02*
X165297000Y-121977000D01*
X167697000Y-119577000D02*
X167697000Y-121977000D01*
X165297000Y-119577000D02*
X167697000Y-119577000D01*
X145967600Y-121951600D02*
X145967600Y-119551600D01*
X148367600Y-121951600D02*
X145967600Y-121951600D01*
X148367600Y-119551600D02*
X148367600Y-121951600D01*
X145967600Y-119551600D02*
X148367600Y-119551600D01*
X151606400Y-121951600D02*
X151606400Y-119551600D01*
X154006400Y-121951600D02*
X151606400Y-121951600D01*
X154006400Y-119551600D02*
X154006400Y-121951600D01*
X151606400Y-119551600D02*
X154006400Y-119551600D01*
D13*
X184658000Y-133604000D02*
X189738000Y-133604000D01*
X184658000Y-136144000D02*
X184658000Y-133604000D01*
X189738000Y-133604000D02*
X189738000Y-136144000D01*
X184658000Y-136144000D02*
X189738000Y-136144000D01*
X190488000Y-129594000D02*
G75*
G03*
X190488000Y-129594000I-100000J0D01*
G01*
X129286000Y-57143000D02*
X124206000Y-57143000D01*
X129286000Y-54603000D02*
X129286000Y-57143000D01*
X124206000Y-57143000D02*
X124206000Y-54603000D01*
X129286000Y-54603000D02*
X124206000Y-54603000D01*
X123656000Y-61153000D02*
G75*
G03*
X123656000Y-61153000I-100000J0D01*
G01*
X193167000Y-88392000D02*
X193167000Y-78232000D01*
X195707000Y-88392000D02*
X195707000Y-78232000D01*
X195707000Y-88392000D02*
X193167000Y-88392000D01*
X193167000Y-78232000D02*
X195707000Y-78232000D01*
X189257000Y-77582000D02*
G75*
G03*
X189257000Y-77582000I-100000J0D01*
G01*
X195707000Y-107442000D02*
X193167000Y-107442000D01*
X195707000Y-107442000D02*
X195707000Y-99822000D01*
X193167000Y-107442000D02*
X193167000Y-99822000D01*
X193167000Y-99822000D02*
X195707000Y-99822000D01*
X189257000Y-99172000D02*
G75*
G03*
X189257000Y-99172000I-100000J0D01*
G01*
D14*
X151284400Y-56325380D02*
X151284400Y-56044220D01*
X150264400Y-56325380D02*
X150264400Y-56044220D01*
X159652580Y-65657000D02*
X159371420Y-65657000D01*
X159652580Y-66677000D02*
X159371420Y-66677000D01*
X154278420Y-53482000D02*
X154559580Y-53482000D01*
X154278420Y-52462000D02*
X154559580Y-52462000D01*
D10*
X132696000Y-130296000D02*
X132196000Y-129796000D01*
X133496000Y-125696000D02*
X133996000Y-126196000D01*
X132196000Y-126196000D02*
X132696000Y-125696000D01*
X132196000Y-129796000D02*
X132196000Y-126196000D01*
X133996000Y-129796000D02*
X133496000Y-130296000D01*
X133496000Y-130296000D02*
X132696000Y-130296000D01*
X132696000Y-125696000D02*
X133496000Y-125696000D01*
X133996000Y-126196000D02*
X133996000Y-129796000D01*
X122053000Y-118599000D02*
X122553000Y-118099000D01*
X126653000Y-119399000D02*
X126153000Y-119899000D01*
X126153000Y-118099000D02*
X126653000Y-118599000D01*
X122553000Y-118099000D02*
X126153000Y-118099000D01*
X122553000Y-119899000D02*
X122053000Y-119399000D01*
X122053000Y-119399000D02*
X122053000Y-118599000D01*
X126653000Y-118599000D02*
X126653000Y-119399000D01*
X126153000Y-119899000D02*
X122553000Y-119899000D01*
X187077000Y-71228000D02*
X187577000Y-70728000D01*
X191677000Y-72028000D02*
X191177000Y-72528000D01*
X191177000Y-70728000D02*
X191677000Y-71228000D01*
X187577000Y-70728000D02*
X191177000Y-70728000D01*
X187577000Y-72528000D02*
X187077000Y-72028000D01*
X187077000Y-72028000D02*
X187077000Y-71228000D01*
X191677000Y-71228000D02*
X191677000Y-72028000D01*
X191177000Y-72528000D02*
X187577000Y-72528000D01*
X180067000Y-65145000D02*
X179567000Y-64645000D01*
X180867000Y-60545000D02*
X181367000Y-61045000D01*
X179567000Y-61045000D02*
X180067000Y-60545000D01*
X179567000Y-64645000D02*
X179567000Y-61045000D01*
X181367000Y-64645000D02*
X180867000Y-65145000D01*
X180867000Y-65145000D02*
X180067000Y-65145000D01*
X180067000Y-60545000D02*
X180867000Y-60545000D01*
X181367000Y-61045000D02*
X181367000Y-64645000D01*
D14*
X148592000Y-61109779D02*
X148592000Y-60784221D01*
X147572000Y-61109779D02*
X147572000Y-60784221D01*
D10*
X133369000Y-135642000D02*
X133869000Y-136142000D01*
X132569000Y-140242000D02*
X132069000Y-139742000D01*
X133869000Y-139742000D02*
X133369000Y-140242000D01*
X133869000Y-136142000D02*
X133869000Y-139742000D01*
X132069000Y-136142000D02*
X132569000Y-135642000D01*
X132569000Y-135642000D02*
X133369000Y-135642000D01*
X133369000Y-140242000D02*
X132569000Y-140242000D01*
X132069000Y-139742000D02*
X132069000Y-136142000D01*
D14*
X130951500Y-123427258D02*
X130951500Y-122952742D01*
X129906500Y-123427258D02*
X129906500Y-122952742D01*
X129427500Y-123427258D02*
X129427500Y-122952742D01*
X128382500Y-123427258D02*
X128382500Y-122952742D01*
X186171100Y-66975258D02*
X186171100Y-66500742D01*
X185126100Y-66975258D02*
X185126100Y-66500742D01*
X184647100Y-66975258D02*
X184647100Y-66500742D01*
X183602100Y-66975258D02*
X183602100Y-66500742D01*
X146048000Y-60806420D02*
X146048000Y-61087580D01*
X147068000Y-60806420D02*
X147068000Y-61087580D01*
X150116000Y-61087580D02*
X150116000Y-60806420D01*
X149096000Y-61087580D02*
X149096000Y-60806420D01*
X199079000Y-132010000D02*
X199079000Y-129610000D01*
X201479000Y-132010000D02*
X199079000Y-132010000D01*
X201479000Y-129610000D02*
X201479000Y-132010000D01*
X199079000Y-129610000D02*
X201479000Y-129610000D01*
X191078000Y-140011000D02*
X191078000Y-137611000D01*
X193478000Y-140011000D02*
X191078000Y-140011000D01*
X193478000Y-137611000D02*
X193478000Y-140011000D01*
X191078000Y-137611000D02*
X193478000Y-137611000D01*
X112211000Y-61144000D02*
X112211000Y-58744000D01*
X114611000Y-61144000D02*
X112211000Y-61144000D01*
X114611000Y-58744000D02*
X114611000Y-61144000D01*
X112211000Y-58744000D02*
X114611000Y-58744000D01*
X120212000Y-53143000D02*
X120212000Y-50743000D01*
X122612000Y-53143000D02*
X120212000Y-53143000D01*
X122612000Y-50743000D02*
X122612000Y-53143000D01*
X120212000Y-50743000D02*
X122612000Y-50743000D01*
D10*
X188584000Y-115993000D02*
X188584000Y-112393000D01*
X189884000Y-116493000D02*
X189084000Y-116493000D01*
X189084000Y-111893000D02*
X189884000Y-111893000D01*
X188584000Y-112393000D02*
X189084000Y-111893000D01*
X190384000Y-112393000D02*
X190384000Y-115993000D01*
X190384000Y-115993000D02*
X189884000Y-116493000D01*
X189084000Y-116493000D02*
X188584000Y-115993000D01*
X189884000Y-111893000D02*
X190384000Y-112393000D01*
X121177000Y-74555000D02*
X121677000Y-75055000D01*
X120377000Y-79155000D02*
X119877000Y-78655000D01*
X121677000Y-78655000D02*
X121177000Y-79155000D01*
X121677000Y-75055000D02*
X121677000Y-78655000D01*
X119877000Y-75055000D02*
X120377000Y-74555000D01*
X120377000Y-74555000D02*
X121177000Y-74555000D01*
X121177000Y-79155000D02*
X120377000Y-79155000D01*
X119877000Y-78655000D02*
X119877000Y-75055000D01*
D14*
X162812000Y-57263420D02*
X162812000Y-57544580D01*
X163832000Y-57263420D02*
X163832000Y-57544580D01*
X164336000Y-57263420D02*
X164336000Y-57544580D01*
X165356000Y-57263420D02*
X165356000Y-57544580D01*
X160680400Y-96672400D02*
G75*
G03*
X160680400Y-96672400I-101600J0D01*
G01*
X162661600Y-97510600D02*
X165709600Y-97510600D01*
X165709600Y-93294200D02*
X162661600Y-93294200D01*
X156182500Y-52447258D02*
X156182500Y-51972742D01*
X157227500Y-52447258D02*
X157227500Y-51972742D01*
X181002000Y-127769500D02*
X181002000Y-130054500D01*
X182472000Y-127769500D02*
X181002000Y-127769500D01*
X182472000Y-130054500D02*
X182472000Y-127769500D01*
X117092000Y-70879580D02*
X117092000Y-70598420D01*
X118112000Y-70879580D02*
X118112000Y-70598420D01*
X126236000Y-71260580D02*
X126236000Y-70979420D01*
X127256000Y-71260580D02*
X127256000Y-70979420D01*
X172171000Y-97577000D02*
X172171000Y-93177000D01*
X172171000Y-93177000D02*
X176571000Y-93177000D01*
X176571000Y-97577000D02*
X172171000Y-97577000D01*
X176571000Y-93177000D02*
X176571000Y-97577000D01*
X154711400Y-100457000D02*
X154711400Y-103505000D01*
X158927800Y-103505000D02*
X158927800Y-100457000D01*
X155651200Y-98374200D02*
G75*
G03*
X155651200Y-98374200I-101600J0D01*
G01*
X122174000Y-72029000D02*
X120224000Y-72029000D01*
X122174000Y-72029000D02*
X124124000Y-72029000D01*
X122174000Y-66909000D02*
X124124000Y-66909000D01*
X122174000Y-66909000D02*
X118724000Y-66909000D01*
X159172000Y-79924000D02*
X154772000Y-79924000D01*
X154772000Y-79924000D02*
X154772000Y-75524000D01*
X159172000Y-75524000D02*
X159172000Y-79924000D01*
X154772000Y-75524000D02*
X159172000Y-75524000D01*
X183599600Y-62863000D02*
X183599600Y-64763000D01*
X185919600Y-64263000D02*
X185919600Y-62863000D01*
X159045000Y-110703000D02*
X159045000Y-115103000D01*
X159045000Y-115103000D02*
X154645000Y-115103000D01*
X154645000Y-115103000D02*
X154645000Y-110703000D01*
X154645000Y-110703000D02*
X159045000Y-110703000D01*
X191199000Y-123850580D02*
X191199000Y-123569420D01*
X190179000Y-123850580D02*
X190179000Y-123569420D01*
X141392000Y-93177000D02*
X141392000Y-97577000D01*
X141392000Y-97577000D02*
X136992000Y-97577000D01*
X136992000Y-93177000D02*
X141392000Y-93177000D01*
X136992000Y-97577000D02*
X136992000Y-93177000D01*
X191832724Y-121946500D02*
X191323276Y-121946500D01*
X191832724Y-120901500D02*
X191323276Y-120901500D01*
X181214500Y-132065242D02*
X181214500Y-132539758D01*
X182259500Y-132065242D02*
X182259500Y-132539758D01*
X147460580Y-58930000D02*
X147179420Y-58930000D01*
X147460580Y-57910000D02*
X147179420Y-57910000D01*
X132942000Y-62953000D02*
X132942000Y-60668000D01*
X131472000Y-60668000D02*
X131472000Y-62953000D01*
X131472000Y-62953000D02*
X132942000Y-62953000D01*
X186117000Y-124873000D02*
X184167000Y-124873000D01*
X186117000Y-124873000D02*
X188067000Y-124873000D01*
X186117000Y-119753000D02*
X188067000Y-119753000D01*
X186117000Y-119753000D02*
X182667000Y-119753000D01*
X127380276Y-66660500D02*
X127889724Y-66660500D01*
X127380276Y-67705500D02*
X127889724Y-67705500D01*
X183783500Y-129017242D02*
X183783500Y-129491758D01*
X182738500Y-129017242D02*
X182738500Y-129491758D01*
X181035000Y-123850580D02*
X181035000Y-123569420D01*
X182055000Y-123850580D02*
X182055000Y-123569420D01*
X131205500Y-61705258D02*
X131205500Y-61230742D01*
X130160500Y-61705258D02*
X130160500Y-61230742D01*
X127889724Y-69356500D02*
X127380276Y-69356500D01*
X127889724Y-68311500D02*
X127380276Y-68311500D01*
X130954000Y-120715000D02*
X130954000Y-119315000D01*
X128634000Y-119315000D02*
X128634000Y-121215000D01*
X132729500Y-58657258D02*
X132729500Y-58182742D01*
X131684500Y-58657258D02*
X131684500Y-58182742D01*
X191323276Y-120422500D02*
X191832724Y-120422500D01*
X191323276Y-119377500D02*
X191832724Y-119377500D01*
%LPC*%
D13*
G36*
X140970000Y-142367000D02*
G01*
X139573000Y-142367000D01*
X139573000Y-116078000D01*
X140970000Y-116078000D01*
X140970000Y-142367000D01*
G37*
X140970000Y-142367000D02*
X139573000Y-142367000D01*
X139573000Y-116078000D01*
X140970000Y-116078000D01*
X140970000Y-142367000D01*
G36*
X140970000Y-117475000D02*
G01*
X133096000Y-117475000D01*
X133096000Y-116078000D01*
X140970000Y-116078000D01*
X140970000Y-117475000D01*
G37*
X140970000Y-117475000D02*
X133096000Y-117475000D01*
X133096000Y-116078000D01*
X140970000Y-116078000D01*
X140970000Y-117475000D01*
G36*
X134493000Y-117475000D02*
G01*
X133096000Y-117475000D01*
X133096000Y-71628000D01*
X134493000Y-71628000D01*
X134493000Y-117475000D01*
G37*
X134493000Y-117475000D02*
X133096000Y-117475000D01*
X133096000Y-71628000D01*
X134493000Y-71628000D01*
X134493000Y-117475000D01*
G36*
X180594000Y-73025000D02*
G01*
X133096000Y-73025000D01*
X133096000Y-71628000D01*
X180594000Y-71628000D01*
X180594000Y-73025000D01*
G37*
X180594000Y-73025000D02*
X133096000Y-73025000D01*
X133096000Y-71628000D01*
X180594000Y-71628000D01*
X180594000Y-73025000D01*
G36*
X180594000Y-117475000D02*
G01*
X179197000Y-117475000D01*
X179197000Y-71628000D01*
X180594000Y-71628000D01*
X180594000Y-117475000D01*
G37*
X180594000Y-117475000D02*
X179197000Y-117475000D01*
X179197000Y-71628000D01*
X180594000Y-71628000D01*
X180594000Y-117475000D01*
G36*
X180594000Y-117475000D02*
G01*
X171450000Y-117475000D01*
X171450000Y-116078000D01*
X180594000Y-116078000D01*
X180594000Y-117475000D01*
G37*
X180594000Y-117475000D02*
X171450000Y-117475000D01*
X171450000Y-116078000D01*
X180594000Y-116078000D01*
X180594000Y-117475000D01*
G36*
X172847000Y-142367000D02*
G01*
X171450000Y-142367000D01*
X171450000Y-116078000D01*
X172847000Y-116078000D01*
X172847000Y-142367000D01*
G37*
X172847000Y-142367000D02*
X171450000Y-142367000D01*
X171450000Y-116078000D01*
X172847000Y-116078000D01*
X172847000Y-142367000D01*
G36*
X203835000Y-49784000D02*
G01*
X109855000Y-49784000D01*
X109855000Y-48387000D01*
X203835000Y-48387000D01*
X203835000Y-49784000D01*
G37*
X203835000Y-49784000D02*
X109855000Y-49784000D01*
X109855000Y-48387000D01*
X203835000Y-48387000D01*
X203835000Y-49784000D01*
G36*
X203835000Y-142367000D02*
G01*
X109855000Y-142367000D01*
X109855000Y-140970000D01*
X203835000Y-140970000D01*
X203835000Y-142367000D01*
G37*
X203835000Y-142367000D02*
X109855000Y-142367000D01*
X109855000Y-140970000D01*
X203835000Y-140970000D01*
X203835000Y-142367000D01*
G36*
X203835000Y-142367000D02*
G01*
X202438000Y-142367000D01*
X202438000Y-48387000D01*
X203835000Y-48387000D01*
X203835000Y-142367000D01*
G37*
X203835000Y-142367000D02*
X202438000Y-142367000D01*
X202438000Y-48387000D01*
X203835000Y-48387000D01*
X203835000Y-142367000D01*
G36*
X111252000Y-142367000D02*
G01*
X109855000Y-142367000D01*
X109855000Y-48387000D01*
X111252000Y-48387000D01*
X111252000Y-142367000D01*
G37*
X111252000Y-142367000D02*
X109855000Y-142367000D01*
X109855000Y-48387000D01*
X111252000Y-48387000D01*
X111252000Y-142367000D01*
D15*
X154095000Y-55764000D03*
X154595000Y-55764000D03*
X155095000Y-55764000D03*
X155595000Y-55764000D03*
X156095000Y-55764000D03*
X156595000Y-55764000D03*
X157095000Y-55764000D03*
X157595000Y-55764000D03*
X158095000Y-55764000D03*
X158595000Y-55764000D03*
X159095000Y-55764000D03*
X159595000Y-55764000D03*
D16*
X161025000Y-57194000D03*
X161025000Y-57694000D03*
X161025000Y-58194000D03*
X161025000Y-58694000D03*
X161025000Y-59194000D03*
X161025000Y-59694000D03*
X161025000Y-60194000D03*
X161025000Y-60694000D03*
X161025000Y-61194000D03*
X161025000Y-61694000D03*
X161025000Y-62194000D03*
X161025000Y-62694000D03*
D17*
X159595000Y-64124000D03*
X159095000Y-64124000D03*
X158595000Y-64124000D03*
X158095000Y-64124000D03*
X157595000Y-64124000D03*
X157095000Y-64124000D03*
X156595000Y-64124000D03*
X156095000Y-64124000D03*
X155595000Y-64124000D03*
X155095000Y-64124000D03*
X154595000Y-64124000D03*
X154095000Y-64124000D03*
D18*
X152665000Y-62694000D03*
X152665000Y-62194000D03*
X152665000Y-61694000D03*
X152665000Y-61194000D03*
X152665000Y-60694000D03*
X152665000Y-60194000D03*
X152665000Y-59694000D03*
X152665000Y-59194000D03*
X152665000Y-58694000D03*
X152665000Y-58194000D03*
X152665000Y-57694000D03*
X152665000Y-57194000D03*
D19*
X189157000Y-96520000D03*
X189157000Y-93980000D03*
X189157000Y-91440000D03*
D20*
X160909000Y-120777000D03*
X166497000Y-120777000D03*
X147167600Y-120751600D03*
X152806400Y-120751600D03*
D21*
X188468000Y-129594000D03*
X185928000Y-129594000D03*
X125476000Y-61153000D03*
X128016000Y-61153000D03*
D19*
X189157000Y-79502000D03*
X189157000Y-82042000D03*
X189157000Y-84582000D03*
X189157000Y-87122000D03*
X189157000Y-101092000D03*
X189157000Y-103632000D03*
X189157000Y-106172000D03*
D22*
X150774400Y-56959800D03*
X150774400Y-55409800D03*
D23*
X160287000Y-66167000D03*
X158737000Y-66167000D03*
D24*
X153644000Y-52972000D03*
X155194000Y-52972000D03*
D25*
X133096000Y-129266000D03*
X133096000Y-126726000D03*
X123083000Y-118999000D03*
X125623000Y-118999000D03*
X188107000Y-71628000D03*
X190647000Y-71628000D03*
X180467000Y-64115000D03*
X180467000Y-61575000D03*
D26*
X148082000Y-61734500D03*
X148082000Y-60159500D03*
D25*
X132969000Y-136672000D03*
X132969000Y-139212000D03*
D27*
X130429000Y-124015000D03*
X130429000Y-122365000D03*
X128905000Y-124015000D03*
X128905000Y-122365000D03*
X185648600Y-67563000D03*
X185648600Y-65913000D03*
X184124600Y-67563000D03*
X184124600Y-65913000D03*
D28*
X146558000Y-60172000D03*
X146558000Y-61722000D03*
D22*
X149606000Y-61722000D03*
X149606000Y-60172000D03*
D20*
X200279000Y-130810000D03*
X192278000Y-138811000D03*
X113411000Y-59944000D03*
X121412000Y-51943000D03*
D25*
X189484000Y-115463000D03*
X189484000Y-112923000D03*
X120777000Y-75585000D03*
X120777000Y-78125000D03*
D28*
X163322000Y-56629000D03*
X163322000Y-58179000D03*
X164846000Y-56629000D03*
X164846000Y-58179000D03*
D29*
X166027100Y-96672400D03*
X166027100Y-94132400D03*
X162344100Y-94132400D03*
X162344100Y-95402400D03*
X162344100Y-96672400D03*
D30*
X189357000Y-75438000D03*
D31*
X189357000Y-75438000D03*
D27*
X156705000Y-53035000D03*
X156705000Y-51385000D03*
D32*
X181737000Y-128467000D03*
X181737000Y-130042000D03*
D30*
X124333000Y-115316000D03*
D31*
X124333000Y-115316000D03*
D22*
X117602000Y-69964000D03*
X117602000Y-71514000D03*
X126746000Y-70345000D03*
X126746000Y-71895000D03*
D33*
X174371000Y-95377000D03*
D30*
X136906000Y-138430000D03*
D31*
X136906000Y-138430000D03*
D30*
X138176000Y-69088000D03*
D31*
X138176000Y-69088000D03*
D34*
X155549600Y-100139500D03*
X156819600Y-100139500D03*
X158089600Y-100139500D03*
X158089600Y-103822500D03*
X155549600Y-103822500D03*
D30*
X113792000Y-115316000D03*
D31*
X113792000Y-115316000D03*
X200025000Y-120269000D03*
D30*
X200025000Y-120269000D03*
D35*
X119699000Y-67564000D03*
X119699000Y-68834000D03*
X119699000Y-70104000D03*
X119699000Y-71374000D03*
X124649000Y-71374000D03*
X124649000Y-70104000D03*
X124649000Y-68834000D03*
X124649000Y-67564000D03*
D36*
X122174000Y-69469000D03*
D31*
X144272000Y-95377000D03*
D30*
X144272000Y-95377000D03*
D33*
X156972000Y-77724000D03*
D37*
X184109600Y-64513000D03*
X184759600Y-64513000D03*
X185409600Y-64513000D03*
X185409600Y-62613000D03*
X184109600Y-62613000D03*
D33*
X156845000Y-112903000D03*
D22*
X190689000Y-124485000D03*
X190689000Y-122935000D03*
D30*
X183134000Y-114046000D03*
D31*
X183134000Y-114046000D03*
D30*
X176784000Y-52324000D03*
D31*
X176784000Y-52324000D03*
D33*
X139192000Y-95377000D03*
D38*
X192490500Y-121424000D03*
X190665500Y-121424000D03*
D31*
X175514000Y-121666000D03*
D30*
X175514000Y-121666000D03*
D39*
X181737000Y-133127500D03*
X181737000Y-131477500D03*
D30*
X199898000Y-75438000D03*
D31*
X199898000Y-75438000D03*
D30*
X132080000Y-52197000D03*
D31*
X132080000Y-52197000D03*
D23*
X148095000Y-58420000D03*
X146545000Y-58420000D03*
D30*
X156845000Y-82804000D03*
D31*
X156845000Y-82804000D03*
D26*
X132207000Y-62255500D03*
X132207000Y-60680500D03*
D35*
X183642000Y-120408000D03*
X183642000Y-121678000D03*
X183642000Y-122948000D03*
X183642000Y-124218000D03*
X188592000Y-124218000D03*
X188592000Y-122948000D03*
X188592000Y-121678000D03*
X188592000Y-120408000D03*
D36*
X186117000Y-122313000D03*
D40*
X128547500Y-67183000D03*
X126722500Y-67183000D03*
D30*
X130556000Y-76708000D03*
D31*
X130556000Y-76708000D03*
D39*
X183261000Y-128429500D03*
X183261000Y-130079500D03*
D30*
X169291000Y-95377000D03*
D31*
X169291000Y-95377000D03*
D30*
X176784000Y-62865000D03*
D31*
X176784000Y-62865000D03*
D30*
X156845000Y-107823000D03*
D31*
X156845000Y-107823000D03*
D22*
X181545000Y-124485000D03*
X181545000Y-122935000D03*
D27*
X130683000Y-62293000D03*
X130683000Y-60643000D03*
D38*
X126722500Y-68834000D03*
X128547500Y-68834000D03*
D30*
X181610000Y-138557000D03*
D31*
X181610000Y-138557000D03*
D37*
X129144000Y-120965000D03*
X129794000Y-120965000D03*
X130444000Y-120965000D03*
X130444000Y-119065000D03*
X129144000Y-119065000D03*
D30*
X136906000Y-127889000D03*
D31*
X136906000Y-127889000D03*
X113665000Y-70612000D03*
D30*
X113665000Y-70612000D03*
D27*
X132207000Y-59245000D03*
X132207000Y-57595000D03*
D40*
X190665500Y-119900000D03*
X192490500Y-119900000D03*
M02*
