G04 #@! TF.GenerationSoftware,KiCad,Pcbnew,(5.0.2)-1*
G04 #@! TF.CreationDate,2019-03-14T13:57:24-04:00*
G04 #@! TF.ProjectId,PCB10,50434231-302e-46b6-9963-61645f706362,rev?*
G04 #@! TF.SameCoordinates,Original*
G04 #@! TF.FileFunction,Legend,Top*
G04 #@! TF.FilePolarity,Positive*
%FSLAX46Y46*%
G04 Gerber Fmt 4.6, Leading zero omitted, Abs format (unit mm)*
G04 Created by KiCad (PCBNEW (5.0.2)-1) date 3/14/2019 1:57:24 PM*
%MOMM*%
%LPD*%
G01*
G04 APERTURE LIST*
%ADD10C,0.120000*%
%ADD11C,0.100000*%
%ADD12C,0.150000*%
G04 APERTURE END LIST*
D10*
G04 #@! TO.C,L1*
X175258000Y-94706221D02*
X175258000Y-95031779D01*
X176278000Y-94706221D02*
X176278000Y-95031779D01*
G04 #@! TO.C,J4*
X176780500Y-106937500D02*
X174120500Y-106937500D01*
X176780500Y-122237500D02*
X176780500Y-106937500D01*
X174120500Y-122237500D02*
X174120500Y-106937500D01*
X176780500Y-122237500D02*
X174120500Y-122237500D01*
X176780500Y-123507500D02*
X176780500Y-124837500D01*
X176780500Y-124837500D02*
X175450500Y-124837500D01*
G04 #@! TO.C,PowerPin1*
X133353500Y-86236500D02*
X134683500Y-86236500D01*
X133353500Y-87566500D02*
X133353500Y-86236500D01*
X133353500Y-88836500D02*
X136013500Y-88836500D01*
X136013500Y-88836500D02*
X136013500Y-88896500D01*
X133353500Y-88836500D02*
X133353500Y-88896500D01*
X133353500Y-88896500D02*
X136013500Y-88896500D01*
G04 #@! TO.C,GNDPin1*
X177422500Y-130489000D02*
X180082500Y-130489000D01*
X177422500Y-130429000D02*
X177422500Y-130489000D01*
X180082500Y-130429000D02*
X180082500Y-130489000D01*
X177422500Y-130429000D02*
X180082500Y-130429000D01*
X177422500Y-129159000D02*
X177422500Y-127829000D01*
X177422500Y-127829000D02*
X178752500Y-127829000D01*
G04 #@! TO.C,J2*
X133036000Y-79886500D02*
X133036000Y-82546500D01*
X153416000Y-79886500D02*
X133036000Y-79886500D01*
X153416000Y-82546500D02*
X133036000Y-82546500D01*
X153416000Y-79886500D02*
X153416000Y-82546500D01*
X154686000Y-79886500D02*
X156016000Y-79886500D01*
X156016000Y-79886500D02*
X156016000Y-81216500D01*
G04 #@! TO.C,J1*
X137735000Y-89221000D02*
X139065000Y-89221000D01*
X137735000Y-90551000D02*
X137735000Y-89221000D01*
X137735000Y-91821000D02*
X140395000Y-91821000D01*
X140395000Y-91821000D02*
X140395000Y-124901000D01*
X137735000Y-91821000D02*
X137735000Y-124901000D01*
X137735000Y-124901000D02*
X140395000Y-124901000D01*
G04 #@! TO.C,J3*
X175383500Y-130425500D02*
X175383500Y-127765500D01*
X142303500Y-130425500D02*
X175383500Y-130425500D01*
X142303500Y-127765500D02*
X175383500Y-127765500D01*
X142303500Y-130425500D02*
X142303500Y-127765500D01*
X141033500Y-130425500D02*
X139703500Y-130425500D01*
X139703500Y-130425500D02*
X139703500Y-129095500D01*
D11*
G04 #@! TO.C,Y1*
X158915542Y-91346714D02*
X158915542Y-88298714D01*
X158915542Y-88298714D02*
X161582542Y-88298714D01*
X161582542Y-88298714D02*
X161582542Y-91346714D01*
X161582542Y-91346714D02*
X158915542Y-91346714D01*
D10*
G04 #@! TO.C,Coaxial_Port1*
X190473000Y-98548000D02*
X190973000Y-98298000D01*
X190473000Y-98048000D02*
X190473000Y-98548000D01*
X190973000Y-98298000D02*
X190473000Y-98048000D01*
G04 #@! TO.C,L1*
D12*
X177650380Y-95035666D02*
X177650380Y-95511857D01*
X176650380Y-95511857D01*
X177650380Y-94178523D02*
X177650380Y-94749952D01*
X177650380Y-94464238D02*
X176650380Y-94464238D01*
X176793238Y-94559476D01*
X176888476Y-94654714D01*
X176936095Y-94749952D01*
G04 #@! TO.C,J4*
X175117166Y-125289880D02*
X175117166Y-126004166D01*
X175069547Y-126147023D01*
X174974309Y-126242261D01*
X174831452Y-126289880D01*
X174736214Y-126289880D01*
X176021928Y-125623214D02*
X176021928Y-126289880D01*
X175783833Y-125242261D02*
X175545738Y-125956547D01*
X176164785Y-125956547D01*
G04 #@! TO.C,PowerPin1*
X131040642Y-85688880D02*
X131040642Y-84688880D01*
X131421595Y-84688880D01*
X131516833Y-84736500D01*
X131564452Y-84784119D01*
X131612071Y-84879357D01*
X131612071Y-85022214D01*
X131564452Y-85117452D01*
X131516833Y-85165071D01*
X131421595Y-85212690D01*
X131040642Y-85212690D01*
X132183500Y-85688880D02*
X132088261Y-85641261D01*
X132040642Y-85593642D01*
X131993023Y-85498404D01*
X131993023Y-85212690D01*
X132040642Y-85117452D01*
X132088261Y-85069833D01*
X132183500Y-85022214D01*
X132326357Y-85022214D01*
X132421595Y-85069833D01*
X132469214Y-85117452D01*
X132516833Y-85212690D01*
X132516833Y-85498404D01*
X132469214Y-85593642D01*
X132421595Y-85641261D01*
X132326357Y-85688880D01*
X132183500Y-85688880D01*
X132850166Y-85022214D02*
X133040642Y-85688880D01*
X133231119Y-85212690D01*
X133421595Y-85688880D01*
X133612071Y-85022214D01*
X134373976Y-85641261D02*
X134278738Y-85688880D01*
X134088261Y-85688880D01*
X133993023Y-85641261D01*
X133945404Y-85546023D01*
X133945404Y-85165071D01*
X133993023Y-85069833D01*
X134088261Y-85022214D01*
X134278738Y-85022214D01*
X134373976Y-85069833D01*
X134421595Y-85165071D01*
X134421595Y-85260309D01*
X133945404Y-85355547D01*
X134850166Y-85688880D02*
X134850166Y-85022214D01*
X134850166Y-85212690D02*
X134897785Y-85117452D01*
X134945404Y-85069833D01*
X135040642Y-85022214D01*
X135135880Y-85022214D01*
X135469214Y-85688880D02*
X135469214Y-84688880D01*
X135850166Y-84688880D01*
X135945404Y-84736500D01*
X135993023Y-84784119D01*
X136040642Y-84879357D01*
X136040642Y-85022214D01*
X135993023Y-85117452D01*
X135945404Y-85165071D01*
X135850166Y-85212690D01*
X135469214Y-85212690D01*
X136469214Y-85688880D02*
X136469214Y-85022214D01*
X136469214Y-84688880D02*
X136421595Y-84736500D01*
X136469214Y-84784119D01*
X136516833Y-84736500D01*
X136469214Y-84688880D01*
X136469214Y-84784119D01*
X136945404Y-85022214D02*
X136945404Y-85688880D01*
X136945404Y-85117452D02*
X136993023Y-85069833D01*
X137088261Y-85022214D01*
X137231119Y-85022214D01*
X137326357Y-85069833D01*
X137373976Y-85165071D01*
X137373976Y-85688880D01*
X138373976Y-85688880D02*
X137802547Y-85688880D01*
X138088261Y-85688880D02*
X138088261Y-84688880D01*
X137993023Y-84831738D01*
X137897785Y-84926976D01*
X137802547Y-84974595D01*
G04 #@! TO.C,GNDPin1*
X176323928Y-126329000D02*
X176228690Y-126281380D01*
X176085833Y-126281380D01*
X175942976Y-126329000D01*
X175847738Y-126424238D01*
X175800119Y-126519476D01*
X175752500Y-126709952D01*
X175752500Y-126852809D01*
X175800119Y-127043285D01*
X175847738Y-127138523D01*
X175942976Y-127233761D01*
X176085833Y-127281380D01*
X176181071Y-127281380D01*
X176323928Y-127233761D01*
X176371547Y-127186142D01*
X176371547Y-126852809D01*
X176181071Y-126852809D01*
X176800119Y-127281380D02*
X176800119Y-126281380D01*
X177371547Y-127281380D01*
X177371547Y-126281380D01*
X177847738Y-127281380D02*
X177847738Y-126281380D01*
X178085833Y-126281380D01*
X178228690Y-126329000D01*
X178323928Y-126424238D01*
X178371547Y-126519476D01*
X178419166Y-126709952D01*
X178419166Y-126852809D01*
X178371547Y-127043285D01*
X178323928Y-127138523D01*
X178228690Y-127233761D01*
X178085833Y-127281380D01*
X177847738Y-127281380D01*
X178847738Y-127281380D02*
X178847738Y-126281380D01*
X179228690Y-126281380D01*
X179323928Y-126329000D01*
X179371547Y-126376619D01*
X179419166Y-126471857D01*
X179419166Y-126614714D01*
X179371547Y-126709952D01*
X179323928Y-126757571D01*
X179228690Y-126805190D01*
X178847738Y-126805190D01*
X179847738Y-127281380D02*
X179847738Y-126614714D01*
X179847738Y-126281380D02*
X179800119Y-126329000D01*
X179847738Y-126376619D01*
X179895357Y-126329000D01*
X179847738Y-126281380D01*
X179847738Y-126376619D01*
X180323928Y-126614714D02*
X180323928Y-127281380D01*
X180323928Y-126709952D02*
X180371547Y-126662333D01*
X180466785Y-126614714D01*
X180609642Y-126614714D01*
X180704880Y-126662333D01*
X180752500Y-126757571D01*
X180752500Y-127281380D01*
X181752500Y-127281380D02*
X181181071Y-127281380D01*
X181466785Y-127281380D02*
X181466785Y-126281380D01*
X181371547Y-126424238D01*
X181276309Y-126519476D01*
X181181071Y-126567095D01*
G04 #@! TO.C,J2*
X156468380Y-81549833D02*
X157182666Y-81549833D01*
X157325523Y-81597452D01*
X157420761Y-81692690D01*
X157468380Y-81835547D01*
X157468380Y-81930785D01*
X156563619Y-81121261D02*
X156516000Y-81073642D01*
X156468380Y-80978404D01*
X156468380Y-80740309D01*
X156516000Y-80645071D01*
X156563619Y-80597452D01*
X156658857Y-80549833D01*
X156754095Y-80549833D01*
X156896952Y-80597452D01*
X157468380Y-81168880D01*
X157468380Y-80549833D01*
G04 #@! TO.C,J1*
X138731666Y-87673380D02*
X138731666Y-88387666D01*
X138684047Y-88530523D01*
X138588809Y-88625761D01*
X138445952Y-88673380D01*
X138350714Y-88673380D01*
X139731666Y-88673380D02*
X139160238Y-88673380D01*
X139445952Y-88673380D02*
X139445952Y-87673380D01*
X139350714Y-87816238D01*
X139255476Y-87911476D01*
X139160238Y-87959095D01*
G04 #@! TO.C,J3*
X138155880Y-129428833D02*
X138870166Y-129428833D01*
X139013023Y-129476452D01*
X139108261Y-129571690D01*
X139155880Y-129714547D01*
X139155880Y-129809785D01*
X138155880Y-129047880D02*
X138155880Y-128428833D01*
X138536833Y-128762166D01*
X138536833Y-128619309D01*
X138584452Y-128524071D01*
X138632071Y-128476452D01*
X138727309Y-128428833D01*
X138965404Y-128428833D01*
X139060642Y-128476452D01*
X139108261Y-128524071D01*
X139155880Y-128619309D01*
X139155880Y-128905023D01*
X139108261Y-129000261D01*
X139060642Y-129047880D01*
G04 #@! TO.C,Transceiver1*
X152186261Y-104227380D02*
X152757690Y-104227380D01*
X152471976Y-105227380D02*
X152471976Y-104227380D01*
X153091023Y-105227380D02*
X153091023Y-104560714D01*
X153091023Y-104751190D02*
X153138642Y-104655952D01*
X153186261Y-104608333D01*
X153281500Y-104560714D01*
X153376738Y-104560714D01*
X154138642Y-105227380D02*
X154138642Y-104703571D01*
X154091023Y-104608333D01*
X153995785Y-104560714D01*
X153805309Y-104560714D01*
X153710071Y-104608333D01*
X154138642Y-105179761D02*
X154043404Y-105227380D01*
X153805309Y-105227380D01*
X153710071Y-105179761D01*
X153662452Y-105084523D01*
X153662452Y-104989285D01*
X153710071Y-104894047D01*
X153805309Y-104846428D01*
X154043404Y-104846428D01*
X154138642Y-104798809D01*
X154614833Y-104560714D02*
X154614833Y-105227380D01*
X154614833Y-104655952D02*
X154662452Y-104608333D01*
X154757690Y-104560714D01*
X154900547Y-104560714D01*
X154995785Y-104608333D01*
X155043404Y-104703571D01*
X155043404Y-105227380D01*
X155471976Y-105179761D02*
X155567214Y-105227380D01*
X155757690Y-105227380D01*
X155852928Y-105179761D01*
X155900547Y-105084523D01*
X155900547Y-105036904D01*
X155852928Y-104941666D01*
X155757690Y-104894047D01*
X155614833Y-104894047D01*
X155519595Y-104846428D01*
X155471976Y-104751190D01*
X155471976Y-104703571D01*
X155519595Y-104608333D01*
X155614833Y-104560714D01*
X155757690Y-104560714D01*
X155852928Y-104608333D01*
X156757690Y-105179761D02*
X156662452Y-105227380D01*
X156471976Y-105227380D01*
X156376738Y-105179761D01*
X156329119Y-105132142D01*
X156281500Y-105036904D01*
X156281500Y-104751190D01*
X156329119Y-104655952D01*
X156376738Y-104608333D01*
X156471976Y-104560714D01*
X156662452Y-104560714D01*
X156757690Y-104608333D01*
X157567214Y-105179761D02*
X157471976Y-105227380D01*
X157281500Y-105227380D01*
X157186261Y-105179761D01*
X157138642Y-105084523D01*
X157138642Y-104703571D01*
X157186261Y-104608333D01*
X157281500Y-104560714D01*
X157471976Y-104560714D01*
X157567214Y-104608333D01*
X157614833Y-104703571D01*
X157614833Y-104798809D01*
X157138642Y-104894047D01*
X158043404Y-105227380D02*
X158043404Y-104560714D01*
X158043404Y-104227380D02*
X157995785Y-104275000D01*
X158043404Y-104322619D01*
X158091023Y-104275000D01*
X158043404Y-104227380D01*
X158043404Y-104322619D01*
X158424357Y-104560714D02*
X158662452Y-105227380D01*
X158900547Y-104560714D01*
X159662452Y-105179761D02*
X159567214Y-105227380D01*
X159376738Y-105227380D01*
X159281500Y-105179761D01*
X159233880Y-105084523D01*
X159233880Y-104703571D01*
X159281500Y-104608333D01*
X159376738Y-104560714D01*
X159567214Y-104560714D01*
X159662452Y-104608333D01*
X159710071Y-104703571D01*
X159710071Y-104798809D01*
X159233880Y-104894047D01*
X160138642Y-105227380D02*
X160138642Y-104560714D01*
X160138642Y-104751190D02*
X160186261Y-104655952D01*
X160233880Y-104608333D01*
X160329119Y-104560714D01*
X160424357Y-104560714D01*
X161281500Y-105227380D02*
X160710071Y-105227380D01*
X160995785Y-105227380D02*
X160995785Y-104227380D01*
X160900547Y-104370238D01*
X160805309Y-104465476D01*
X160710071Y-104513095D01*
G04 #@! TO.C,Y1*
X167845232Y-90298904D02*
X168321422Y-90298904D01*
X167321422Y-90632237D02*
X167845232Y-90298904D01*
X167321422Y-89965571D01*
X168321422Y-89108428D02*
X168321422Y-89679856D01*
X168321422Y-89394142D02*
X167321422Y-89394142D01*
X167464280Y-89489380D01*
X167559518Y-89584618D01*
X167607137Y-89679856D01*
G04 #@! TO.C,CrystalCap1*
X156734333Y-92749642D02*
X156686714Y-92797261D01*
X156543857Y-92844880D01*
X156448619Y-92844880D01*
X156305761Y-92797261D01*
X156210523Y-92702023D01*
X156162904Y-92606785D01*
X156115285Y-92416309D01*
X156115285Y-92273452D01*
X156162904Y-92082976D01*
X156210523Y-91987738D01*
X156305761Y-91892500D01*
X156448619Y-91844880D01*
X156543857Y-91844880D01*
X156686714Y-91892500D01*
X156734333Y-91940119D01*
X157162904Y-92844880D02*
X157162904Y-92178214D01*
X157162904Y-92368690D02*
X157210523Y-92273452D01*
X157258142Y-92225833D01*
X157353380Y-92178214D01*
X157448619Y-92178214D01*
X157686714Y-92178214D02*
X157924809Y-92844880D01*
X158162904Y-92178214D02*
X157924809Y-92844880D01*
X157829571Y-93082976D01*
X157781952Y-93130595D01*
X157686714Y-93178214D01*
X158496238Y-92797261D02*
X158591476Y-92844880D01*
X158781952Y-92844880D01*
X158877190Y-92797261D01*
X158924809Y-92702023D01*
X158924809Y-92654404D01*
X158877190Y-92559166D01*
X158781952Y-92511547D01*
X158639095Y-92511547D01*
X158543857Y-92463928D01*
X158496238Y-92368690D01*
X158496238Y-92321071D01*
X158543857Y-92225833D01*
X158639095Y-92178214D01*
X158781952Y-92178214D01*
X158877190Y-92225833D01*
X159210523Y-92178214D02*
X159591476Y-92178214D01*
X159353380Y-91844880D02*
X159353380Y-92702023D01*
X159401000Y-92797261D01*
X159496238Y-92844880D01*
X159591476Y-92844880D01*
X160353380Y-92844880D02*
X160353380Y-92321071D01*
X160305761Y-92225833D01*
X160210523Y-92178214D01*
X160020047Y-92178214D01*
X159924809Y-92225833D01*
X160353380Y-92797261D02*
X160258142Y-92844880D01*
X160020047Y-92844880D01*
X159924809Y-92797261D01*
X159877190Y-92702023D01*
X159877190Y-92606785D01*
X159924809Y-92511547D01*
X160020047Y-92463928D01*
X160258142Y-92463928D01*
X160353380Y-92416309D01*
X160972428Y-92844880D02*
X160877190Y-92797261D01*
X160829571Y-92702023D01*
X160829571Y-91844880D01*
X161924809Y-92749642D02*
X161877190Y-92797261D01*
X161734333Y-92844880D01*
X161639095Y-92844880D01*
X161496238Y-92797261D01*
X161401000Y-92702023D01*
X161353380Y-92606785D01*
X161305761Y-92416309D01*
X161305761Y-92273452D01*
X161353380Y-92082976D01*
X161401000Y-91987738D01*
X161496238Y-91892500D01*
X161639095Y-91844880D01*
X161734333Y-91844880D01*
X161877190Y-91892500D01*
X161924809Y-91940119D01*
X162781952Y-92844880D02*
X162781952Y-92321071D01*
X162734333Y-92225833D01*
X162639095Y-92178214D01*
X162448619Y-92178214D01*
X162353380Y-92225833D01*
X162781952Y-92797261D02*
X162686714Y-92844880D01*
X162448619Y-92844880D01*
X162353380Y-92797261D01*
X162305761Y-92702023D01*
X162305761Y-92606785D01*
X162353380Y-92511547D01*
X162448619Y-92463928D01*
X162686714Y-92463928D01*
X162781952Y-92416309D01*
X163258142Y-92178214D02*
X163258142Y-93178214D01*
X163258142Y-92225833D02*
X163353380Y-92178214D01*
X163543857Y-92178214D01*
X163639095Y-92225833D01*
X163686714Y-92273452D01*
X163734333Y-92368690D01*
X163734333Y-92654404D01*
X163686714Y-92749642D01*
X163639095Y-92797261D01*
X163543857Y-92844880D01*
X163353380Y-92844880D01*
X163258142Y-92797261D01*
X164686714Y-92844880D02*
X164115285Y-92844880D01*
X164401000Y-92844880D02*
X164401000Y-91844880D01*
X164305761Y-91987738D01*
X164210523Y-92082976D01*
X164115285Y-92130595D01*
G04 #@! TO.C,Crystalcap2*
X156805761Y-87669642D02*
X156758142Y-87717261D01*
X156615285Y-87764880D01*
X156520047Y-87764880D01*
X156377190Y-87717261D01*
X156281952Y-87622023D01*
X156234333Y-87526785D01*
X156186714Y-87336309D01*
X156186714Y-87193452D01*
X156234333Y-87002976D01*
X156281952Y-86907738D01*
X156377190Y-86812500D01*
X156520047Y-86764880D01*
X156615285Y-86764880D01*
X156758142Y-86812500D01*
X156805761Y-86860119D01*
X157234333Y-87764880D02*
X157234333Y-87098214D01*
X157234333Y-87288690D02*
X157281952Y-87193452D01*
X157329571Y-87145833D01*
X157424809Y-87098214D01*
X157520047Y-87098214D01*
X157758142Y-87098214D02*
X157996238Y-87764880D01*
X158234333Y-87098214D02*
X157996238Y-87764880D01*
X157901000Y-88002976D01*
X157853380Y-88050595D01*
X157758142Y-88098214D01*
X158567666Y-87717261D02*
X158662904Y-87764880D01*
X158853380Y-87764880D01*
X158948619Y-87717261D01*
X158996238Y-87622023D01*
X158996238Y-87574404D01*
X158948619Y-87479166D01*
X158853380Y-87431547D01*
X158710523Y-87431547D01*
X158615285Y-87383928D01*
X158567666Y-87288690D01*
X158567666Y-87241071D01*
X158615285Y-87145833D01*
X158710523Y-87098214D01*
X158853380Y-87098214D01*
X158948619Y-87145833D01*
X159281952Y-87098214D02*
X159662904Y-87098214D01*
X159424809Y-86764880D02*
X159424809Y-87622023D01*
X159472428Y-87717261D01*
X159567666Y-87764880D01*
X159662904Y-87764880D01*
X160424809Y-87764880D02*
X160424809Y-87241071D01*
X160377190Y-87145833D01*
X160281952Y-87098214D01*
X160091476Y-87098214D01*
X159996238Y-87145833D01*
X160424809Y-87717261D02*
X160329571Y-87764880D01*
X160091476Y-87764880D01*
X159996238Y-87717261D01*
X159948619Y-87622023D01*
X159948619Y-87526785D01*
X159996238Y-87431547D01*
X160091476Y-87383928D01*
X160329571Y-87383928D01*
X160424809Y-87336309D01*
X161043857Y-87764880D02*
X160948619Y-87717261D01*
X160901000Y-87622023D01*
X160901000Y-86764880D01*
X161853380Y-87717261D02*
X161758142Y-87764880D01*
X161567666Y-87764880D01*
X161472428Y-87717261D01*
X161424809Y-87669642D01*
X161377190Y-87574404D01*
X161377190Y-87288690D01*
X161424809Y-87193452D01*
X161472428Y-87145833D01*
X161567666Y-87098214D01*
X161758142Y-87098214D01*
X161853380Y-87145833D01*
X162710523Y-87764880D02*
X162710523Y-87241071D01*
X162662904Y-87145833D01*
X162567666Y-87098214D01*
X162377190Y-87098214D01*
X162281952Y-87145833D01*
X162710523Y-87717261D02*
X162615285Y-87764880D01*
X162377190Y-87764880D01*
X162281952Y-87717261D01*
X162234333Y-87622023D01*
X162234333Y-87526785D01*
X162281952Y-87431547D01*
X162377190Y-87383928D01*
X162615285Y-87383928D01*
X162710523Y-87336309D01*
X163186714Y-87098214D02*
X163186714Y-88098214D01*
X163186714Y-87145833D02*
X163281952Y-87098214D01*
X163472428Y-87098214D01*
X163567666Y-87145833D01*
X163615285Y-87193452D01*
X163662904Y-87288690D01*
X163662904Y-87574404D01*
X163615285Y-87669642D01*
X163567666Y-87717261D01*
X163472428Y-87764880D01*
X163281952Y-87764880D01*
X163186714Y-87717261D01*
X164043857Y-86860119D02*
X164091476Y-86812500D01*
X164186714Y-86764880D01*
X164424809Y-86764880D01*
X164520047Y-86812500D01*
X164567666Y-86860119D01*
X164615285Y-86955357D01*
X164615285Y-87050595D01*
X164567666Y-87193452D01*
X163996238Y-87764880D01*
X164615285Y-87764880D01*
G04 #@! TO.C,C4*
X167790833Y-90119142D02*
X167743214Y-90166761D01*
X167600357Y-90214380D01*
X167505119Y-90214380D01*
X167362261Y-90166761D01*
X167267023Y-90071523D01*
X167219404Y-89976285D01*
X167171785Y-89785809D01*
X167171785Y-89642952D01*
X167219404Y-89452476D01*
X167267023Y-89357238D01*
X167362261Y-89262000D01*
X167505119Y-89214380D01*
X167600357Y-89214380D01*
X167743214Y-89262000D01*
X167790833Y-89309619D01*
X168647976Y-89547714D02*
X168647976Y-90214380D01*
X168409880Y-89166761D02*
X168171785Y-89881047D01*
X168790833Y-89881047D01*
G04 #@! TO.C,C8*
X167917833Y-87833142D02*
X167870214Y-87880761D01*
X167727357Y-87928380D01*
X167632119Y-87928380D01*
X167489261Y-87880761D01*
X167394023Y-87785523D01*
X167346404Y-87690285D01*
X167298785Y-87499809D01*
X167298785Y-87356952D01*
X167346404Y-87166476D01*
X167394023Y-87071238D01*
X167489261Y-86976000D01*
X167632119Y-86928380D01*
X167727357Y-86928380D01*
X167870214Y-86976000D01*
X167917833Y-87023619D01*
X168489261Y-87356952D02*
X168394023Y-87309333D01*
X168346404Y-87261714D01*
X168298785Y-87166476D01*
X168298785Y-87118857D01*
X168346404Y-87023619D01*
X168394023Y-86976000D01*
X168489261Y-86928380D01*
X168679738Y-86928380D01*
X168774976Y-86976000D01*
X168822595Y-87023619D01*
X168870214Y-87118857D01*
X168870214Y-87166476D01*
X168822595Y-87261714D01*
X168774976Y-87309333D01*
X168679738Y-87356952D01*
X168489261Y-87356952D01*
X168394023Y-87404571D01*
X168346404Y-87452190D01*
X168298785Y-87547428D01*
X168298785Y-87737904D01*
X168346404Y-87833142D01*
X168394023Y-87880761D01*
X168489261Y-87928380D01*
X168679738Y-87928380D01*
X168774976Y-87880761D01*
X168822595Y-87833142D01*
X168870214Y-87737904D01*
X168870214Y-87547428D01*
X168822595Y-87452190D01*
X168774976Y-87404571D01*
X168679738Y-87356952D01*
G04 #@! TO.C,C1*
X177295142Y-92114666D02*
X177342761Y-92162285D01*
X177390380Y-92305142D01*
X177390380Y-92400380D01*
X177342761Y-92543238D01*
X177247523Y-92638476D01*
X177152285Y-92686095D01*
X176961809Y-92733714D01*
X176818952Y-92733714D01*
X176628476Y-92686095D01*
X176533238Y-92638476D01*
X176438000Y-92543238D01*
X176390380Y-92400380D01*
X176390380Y-92305142D01*
X176438000Y-92162285D01*
X176485619Y-92114666D01*
X177390380Y-91162285D02*
X177390380Y-91733714D01*
X177390380Y-91448000D02*
X176390380Y-91448000D01*
X176533238Y-91543238D01*
X176628476Y-91638476D01*
X176676095Y-91733714D01*
G04 #@! TO.C,Coaxial_Port1*
X190580142Y-99655142D02*
X190627761Y-99702761D01*
X190675380Y-99845619D01*
X190675380Y-99940857D01*
X190627761Y-100083714D01*
X190532523Y-100178952D01*
X190437285Y-100226571D01*
X190246809Y-100274190D01*
X190103952Y-100274190D01*
X189913476Y-100226571D01*
X189818238Y-100178952D01*
X189723000Y-100083714D01*
X189675380Y-99940857D01*
X189675380Y-99845619D01*
X189723000Y-99702761D01*
X189770619Y-99655142D01*
X190675380Y-99083714D02*
X190627761Y-99178952D01*
X190580142Y-99226571D01*
X190484904Y-99274190D01*
X190199190Y-99274190D01*
X190103952Y-99226571D01*
X190056333Y-99178952D01*
X190008714Y-99083714D01*
X190008714Y-98940857D01*
X190056333Y-98845619D01*
X190103952Y-98798000D01*
X190199190Y-98750380D01*
X190484904Y-98750380D01*
X190580142Y-98798000D01*
X190627761Y-98845619D01*
X190675380Y-98940857D01*
X190675380Y-99083714D01*
X190675380Y-97893238D02*
X190151571Y-97893238D01*
X190056333Y-97940857D01*
X190008714Y-98036095D01*
X190008714Y-98226571D01*
X190056333Y-98321809D01*
X190627761Y-97893238D02*
X190675380Y-97988476D01*
X190675380Y-98226571D01*
X190627761Y-98321809D01*
X190532523Y-98369428D01*
X190437285Y-98369428D01*
X190342047Y-98321809D01*
X190294428Y-98226571D01*
X190294428Y-97988476D01*
X190246809Y-97893238D01*
X190675380Y-97512285D02*
X190008714Y-96988476D01*
X190008714Y-97512285D02*
X190675380Y-96988476D01*
X190675380Y-96607523D02*
X190008714Y-96607523D01*
X189675380Y-96607523D02*
X189723000Y-96655142D01*
X189770619Y-96607523D01*
X189723000Y-96559904D01*
X189675380Y-96607523D01*
X189770619Y-96607523D01*
X190675380Y-95702761D02*
X190151571Y-95702761D01*
X190056333Y-95750380D01*
X190008714Y-95845619D01*
X190008714Y-96036095D01*
X190056333Y-96131333D01*
X190627761Y-95702761D02*
X190675380Y-95798000D01*
X190675380Y-96036095D01*
X190627761Y-96131333D01*
X190532523Y-96178952D01*
X190437285Y-96178952D01*
X190342047Y-96131333D01*
X190294428Y-96036095D01*
X190294428Y-95798000D01*
X190246809Y-95702761D01*
X190675380Y-95083714D02*
X190627761Y-95178952D01*
X190532523Y-95226571D01*
X189675380Y-95226571D01*
X190770619Y-94940857D02*
X190770619Y-94178952D01*
X190675380Y-93940857D02*
X189675380Y-93940857D01*
X189675380Y-93559904D01*
X189723000Y-93464666D01*
X189770619Y-93417047D01*
X189865857Y-93369428D01*
X190008714Y-93369428D01*
X190103952Y-93417047D01*
X190151571Y-93464666D01*
X190199190Y-93559904D01*
X190199190Y-93940857D01*
X190675380Y-92798000D02*
X190627761Y-92893238D01*
X190580142Y-92940857D01*
X190484904Y-92988476D01*
X190199190Y-92988476D01*
X190103952Y-92940857D01*
X190056333Y-92893238D01*
X190008714Y-92798000D01*
X190008714Y-92655142D01*
X190056333Y-92559904D01*
X190103952Y-92512285D01*
X190199190Y-92464666D01*
X190484904Y-92464666D01*
X190580142Y-92512285D01*
X190627761Y-92559904D01*
X190675380Y-92655142D01*
X190675380Y-92798000D01*
X190675380Y-92036095D02*
X190008714Y-92036095D01*
X190199190Y-92036095D02*
X190103952Y-91988476D01*
X190056333Y-91940857D01*
X190008714Y-91845619D01*
X190008714Y-91750380D01*
X190008714Y-91559904D02*
X190008714Y-91178952D01*
X189675380Y-91417047D02*
X190532523Y-91417047D01*
X190627761Y-91369428D01*
X190675380Y-91274190D01*
X190675380Y-91178952D01*
X190675380Y-90321809D02*
X190675380Y-90893238D01*
X190675380Y-90607523D02*
X189675380Y-90607523D01*
X189818238Y-90702761D01*
X189913476Y-90798000D01*
X189961095Y-90893238D01*
G04 #@! TD*
M02*
