G04 #@! TF.GenerationSoftware,KiCad,Pcbnew,(6.0.7)*
G04 #@! TF.CreationDate,2022-12-20T16:10:49-05:00*
G04 #@! TF.ProjectId,obc-db,6f62632d-6462-42e6-9b69-6361645f7063,rev?*
G04 #@! TF.SameCoordinates,Original*
G04 #@! TF.FileFunction,Copper,L4,Bot*
G04 #@! TF.FilePolarity,Positive*
%FSLAX46Y46*%
G04 Gerber Fmt 4.6, Leading zero omitted, Abs format (unit mm)*
G04 Created by KiCad (PCBNEW (6.0.7)) date 2022-12-20 16:10:49*
%MOMM*%
%LPD*%
G01*
G04 APERTURE LIST*
G04 #@! TA.AperFunction,ConnectorPad*
%ADD10C,6.400000*%
G04 #@! TD*
G04 #@! TA.AperFunction,ComponentPad*
%ADD11C,3.600000*%
G04 #@! TD*
G04 #@! TA.AperFunction,ComponentPad*
%ADD12C,2.600000*%
G04 #@! TD*
G04 #@! TA.AperFunction,ConnectorPad*
%ADD13C,4.400000*%
G04 #@! TD*
G04 #@! TA.AperFunction,ComponentPad*
%ADD14R,1.700000X1.700000*%
G04 #@! TD*
G04 #@! TA.AperFunction,ComponentPad*
%ADD15O,1.700000X1.700000*%
G04 #@! TD*
G04 #@! TA.AperFunction,ComponentPad*
%ADD16C,2.159000*%
G04 #@! TD*
G04 #@! TA.AperFunction,ComponentPad*
%ADD17R,1.524000X1.524000*%
G04 #@! TD*
G04 #@! TA.AperFunction,ComponentPad*
%ADD18C,1.524000*%
G04 #@! TD*
G04 #@! TA.AperFunction,ViaPad*
%ADD19C,1.000000*%
G04 #@! TD*
G04 #@! TA.AperFunction,Conductor*
%ADD20C,0.254000*%
G04 #@! TD*
G04 #@! TA.AperFunction,Conductor*
%ADD21C,0.508000*%
G04 #@! TD*
G04 APERTURE END LIST*
D10*
X191770000Y-52070000D03*
D11*
X191770000Y-52070000D03*
X118110000Y-52070000D03*
D10*
X118110000Y-52070000D03*
D12*
X188976000Y-117602000D03*
D13*
X188976000Y-117602000D03*
D14*
X196088000Y-108077000D03*
D15*
X196088000Y-110617000D03*
X196088000Y-113157000D03*
X196088000Y-115697000D03*
D16*
X183642000Y-139954000D03*
X178891999Y-139954000D03*
X174141999Y-139954000D03*
D10*
X114300000Y-137795000D03*
D11*
X114300000Y-137795000D03*
D14*
X183866000Y-69870000D03*
D15*
X183866000Y-67330000D03*
X181326000Y-69870000D03*
X181326000Y-67330000D03*
X178786000Y-69870000D03*
X178786000Y-67330000D03*
X176246000Y-69870000D03*
X176246000Y-67330000D03*
X173706000Y-69870000D03*
X173706000Y-67330000D03*
X171166000Y-69870000D03*
X171166000Y-67330000D03*
X168626000Y-69870000D03*
X168626000Y-67330000D03*
X166086000Y-69870000D03*
X166086000Y-67330000D03*
X163546000Y-69870000D03*
X163546000Y-67330000D03*
X161006000Y-69870000D03*
X161006000Y-67330000D03*
X158466000Y-69870000D03*
X158466000Y-67330000D03*
X155926000Y-69870000D03*
X155926000Y-67330000D03*
X153386000Y-69870000D03*
X153386000Y-67330000D03*
X150846000Y-69870000D03*
X150846000Y-67330000D03*
X148306000Y-69870000D03*
X148306000Y-67330000D03*
X145766000Y-69870000D03*
X145766000Y-67330000D03*
X143226000Y-69870000D03*
X143226000Y-67330000D03*
X140686000Y-69870000D03*
X140686000Y-67330000D03*
X138146000Y-69870000D03*
X138146000Y-67330000D03*
X135606000Y-69870000D03*
X135606000Y-67330000D03*
D14*
X184113000Y-102845000D03*
D15*
X186653000Y-102845000D03*
X184113000Y-100305000D03*
X186653000Y-100305000D03*
X184113000Y-97765000D03*
X186653000Y-97765000D03*
X184113000Y-95225000D03*
X186653000Y-95225000D03*
X184113000Y-92685000D03*
X186653000Y-92685000D03*
X184113000Y-90145000D03*
X186653000Y-90145000D03*
D12*
X130810000Y-68580000D03*
D13*
X130810000Y-68580000D03*
D12*
X130810000Y-117602000D03*
D13*
X130810000Y-117602000D03*
D17*
X186690000Y-52070000D03*
D18*
X186690000Y-54610000D03*
X184150000Y-52070000D03*
X184150000Y-54610000D03*
X181610000Y-52070000D03*
X181610000Y-54610000D03*
X179070000Y-52070000D03*
X179070000Y-54610000D03*
X176530000Y-52070000D03*
X176530000Y-54610000D03*
X173990000Y-52070000D03*
X173990000Y-54610000D03*
X171450000Y-52070000D03*
X171450000Y-54610000D03*
X168910000Y-52070000D03*
X168910000Y-54610000D03*
X166370000Y-52070000D03*
X166370000Y-54610000D03*
X163830000Y-52070000D03*
X163830000Y-54610000D03*
X161290000Y-52070000D03*
X161290000Y-54610000D03*
X158750000Y-52070000D03*
X158750000Y-54610000D03*
X156210000Y-52070000D03*
X156210000Y-54610000D03*
X153670000Y-52070000D03*
X153670000Y-54610000D03*
X151130000Y-52070000D03*
X151130000Y-54610000D03*
X148590000Y-52070000D03*
X148590000Y-54610000D03*
X146050000Y-52070000D03*
X146050000Y-54610000D03*
X143510000Y-52070000D03*
X143510000Y-54610000D03*
X140970000Y-52070000D03*
X140970000Y-54610000D03*
X138430000Y-52070000D03*
X138430000Y-54610000D03*
X135890000Y-52070000D03*
X135890000Y-54610000D03*
X133350000Y-52070000D03*
X133350000Y-54610000D03*
X130810000Y-52070000D03*
X130810000Y-54610000D03*
X128270000Y-52070000D03*
X128270000Y-54610000D03*
X125730000Y-52070000D03*
X125730000Y-54610000D03*
X123190000Y-52070000D03*
X123190000Y-54610000D03*
X186690000Y-57150000D03*
X186690000Y-59690000D03*
X184150000Y-57150000D03*
X184150000Y-59690000D03*
X181610000Y-57150000D03*
X181610000Y-59690000D03*
X179070000Y-57150000D03*
X179070000Y-59690000D03*
X176530000Y-57150000D03*
X176530000Y-59690000D03*
X173990000Y-57150000D03*
X173990000Y-59690000D03*
X171450000Y-57150000D03*
X171450000Y-59690000D03*
X168910000Y-57150000D03*
X168910000Y-59690000D03*
X166370000Y-57150000D03*
X166370000Y-59690000D03*
X163830000Y-57150000D03*
X163830000Y-59690000D03*
X161290000Y-57150000D03*
X161290000Y-59690000D03*
X158750000Y-57150000D03*
X158750000Y-59690000D03*
X156210000Y-57150000D03*
X156210000Y-59690000D03*
X153670000Y-57150000D03*
X153670000Y-59690000D03*
X151130000Y-57150000D03*
X151130000Y-59690000D03*
X148590000Y-57150000D03*
X148590000Y-59690000D03*
X146050000Y-57150000D03*
X146050000Y-59690000D03*
X143510000Y-57150000D03*
X143510000Y-59690000D03*
X140970000Y-57150000D03*
X140970000Y-59690000D03*
X138430000Y-57150000D03*
X138430000Y-59690000D03*
X135890000Y-57150000D03*
X135890000Y-59690000D03*
X133350000Y-57150000D03*
X133350000Y-59690000D03*
X130810000Y-57150000D03*
X130810000Y-59690000D03*
X128270000Y-57150000D03*
X128270000Y-59690000D03*
X125730000Y-57150000D03*
X125730000Y-59690000D03*
X123190000Y-57150000D03*
X123190000Y-59690000D03*
D12*
X188976000Y-68580000D03*
D13*
X188976000Y-68580000D03*
D11*
X194310000Y-137795000D03*
D10*
X194310000Y-137795000D03*
D14*
X196088000Y-119380000D03*
D15*
X196088000Y-121920000D03*
X196088000Y-124460000D03*
X196088000Y-127000000D03*
D19*
X182118000Y-64451500D03*
X167563576Y-63169576D03*
X170180000Y-62420000D03*
X167640000Y-48006000D03*
X133477000Y-64451500D03*
X132461000Y-89662000D03*
X187452000Y-112836150D03*
X136525000Y-64451500D03*
X137732500Y-96273362D03*
X193294000Y-109728000D03*
X116078000Y-123444000D03*
X193294000Y-120396000D03*
X143256000Y-88900000D03*
X168275000Y-107315000D03*
X130810000Y-89916000D03*
X119126000Y-133604000D03*
X130302000Y-133350000D03*
X189357000Y-78613000D03*
X112014000Y-120142000D03*
X188722000Y-100330000D03*
X185928000Y-109982000D03*
X125730000Y-128524000D03*
X194818000Y-69088000D03*
X188595000Y-84201000D03*
X117602000Y-118618000D03*
X183134000Y-109982000D03*
X130810000Y-96774000D03*
X132588000Y-96774000D03*
X111760000Y-133604000D03*
X168275000Y-110109000D03*
X191008000Y-64516000D03*
X194564000Y-60198000D03*
X125730000Y-133350000D03*
X181610000Y-100330000D03*
X168275000Y-108712000D03*
X119380000Y-118618000D03*
X180086000Y-118364000D03*
X127254000Y-128524000D03*
X166370000Y-139700000D03*
X137414000Y-91186000D03*
X176276000Y-85661000D03*
X166370000Y-75184000D03*
X181610000Y-115570000D03*
X190474500Y-80772000D03*
X122936000Y-118618000D03*
X166370000Y-81534000D03*
X184912000Y-113792000D03*
X186436000Y-62992000D03*
X193294000Y-106934000D03*
X186436000Y-64008000D03*
X130302000Y-127254000D03*
X137414000Y-87376000D03*
X130302000Y-128778000D03*
X178562000Y-115570000D03*
X131318000Y-111760000D03*
X140208000Y-61976000D03*
X143002000Y-92710000D03*
X181610000Y-102870000D03*
X137414000Y-89154000D03*
X132588000Y-111760000D03*
X132334000Y-63246000D03*
X166370000Y-82804000D03*
X188468000Y-64008000D03*
X154686000Y-139700000D03*
X166370000Y-84074000D03*
X193294000Y-117856000D03*
X187452000Y-64008000D03*
X196810773Y-83272773D03*
X161036000Y-77280500D03*
X161036000Y-81026500D03*
X155575000Y-117221000D03*
X118618000Y-126562497D03*
X158496000Y-80899000D03*
X155575000Y-113538000D03*
X118618000Y-122174000D03*
X158496000Y-77216000D03*
X156464000Y-110744000D03*
X118618000Y-124206000D03*
X118618000Y-127762000D03*
X154051000Y-120777000D03*
X187198000Y-111183150D03*
X176276000Y-78486000D03*
X192913000Y-76708000D03*
X194310000Y-58674000D03*
X176022000Y-73914000D03*
D20*
X188112517Y-53492517D02*
X186690000Y-52070000D01*
X187125000Y-60779000D02*
X187141079Y-60779000D01*
X176246000Y-67330000D02*
X178298000Y-65278000D01*
X188112517Y-59807562D02*
X188112517Y-53492517D01*
X178298000Y-65278000D02*
X182626000Y-65278000D01*
X182626000Y-65278000D02*
X187125000Y-60779000D01*
X187141079Y-60779000D02*
X188112517Y-59807562D01*
X182118000Y-64451500D02*
X176584500Y-64451500D01*
X176584500Y-64451500D02*
X173706000Y-67330000D01*
X172720000Y-65786000D02*
X175006000Y-63500000D01*
X185420000Y-61214000D02*
X185420000Y-53340000D01*
X175006000Y-63500000D02*
X183134000Y-63500000D01*
X183134000Y-63500000D02*
X185420000Y-61214000D01*
X172710000Y-65786000D02*
X172720000Y-65786000D01*
X185420000Y-53340000D02*
X184150000Y-52070000D01*
X171166000Y-67330000D02*
X172710000Y-65786000D01*
X167563576Y-63169576D02*
X166086000Y-64647152D01*
X166086000Y-64647152D02*
X166086000Y-67330000D01*
X169926000Y-68630000D02*
X171166000Y-69870000D01*
X171958000Y-62738000D02*
X169926000Y-64770000D01*
X181356000Y-62738000D02*
X171958000Y-62738000D01*
X181610000Y-52070000D02*
X182880000Y-53340000D01*
X182880000Y-53340000D02*
X182880000Y-61214000D01*
X169926000Y-64770000D02*
X169926000Y-68630000D01*
X182880000Y-61214000D02*
X181356000Y-62738000D01*
X169482000Y-62420000D02*
X167354550Y-64547450D01*
X170180000Y-62420000D02*
X169482000Y-62420000D01*
X168626000Y-69870000D02*
X167354550Y-68598550D01*
X167354550Y-68598550D02*
X167354550Y-64547450D01*
X179070000Y-52070000D02*
X180340000Y-53340000D01*
X180340000Y-60198000D02*
X178945000Y-61593000D01*
X164814550Y-68598550D02*
X166086000Y-69870000D01*
X180340000Y-53340000D02*
X180340000Y-60198000D01*
X166245000Y-61593000D02*
X164814550Y-63023450D01*
X164814550Y-63023450D02*
X164814550Y-68598550D01*
X178945000Y-61593000D02*
X166245000Y-61593000D01*
D21*
X195580000Y-48006000D02*
X198628000Y-51054000D01*
X195580000Y-82804000D02*
X195580000Y-85344000D01*
X198628000Y-51054000D02*
X198628000Y-79756000D01*
X167640000Y-48006000D02*
X195580000Y-48006000D01*
X198628000Y-79756000D02*
X195580000Y-82804000D01*
X190779000Y-90145000D02*
X186653000Y-90145000D01*
X195580000Y-85344000D02*
X190779000Y-90145000D01*
D20*
X192278000Y-113792000D02*
X192278000Y-115316000D01*
X194310000Y-115824000D02*
X196088000Y-115824000D01*
X192278000Y-124968000D02*
X194310000Y-127000000D01*
X187452000Y-112836150D02*
X189798150Y-112836150D01*
X186653000Y-97765000D02*
X187935000Y-97765000D01*
X192278000Y-115316000D02*
X192278000Y-124968000D01*
X136525000Y-64451500D02*
X133477000Y-64451500D01*
X187935000Y-97765000D02*
X192278000Y-102108000D01*
X137732500Y-94933500D02*
X137732500Y-96273362D01*
X192278000Y-113792000D02*
X194310000Y-115824000D01*
X189798150Y-112836150D02*
X192278000Y-115316000D01*
X192278000Y-102108000D02*
X192278000Y-113792000D01*
X194310000Y-127000000D02*
X196088000Y-127000000D01*
X132461000Y-89662000D02*
X137732500Y-94933500D01*
D21*
X195286537Y-141986000D02*
X185674000Y-141986000D01*
X198628000Y-107696000D02*
X198628000Y-138644537D01*
X196342000Y-83741546D02*
X196342000Y-105410000D01*
X196810773Y-83272773D02*
X196342000Y-83741546D01*
X198628000Y-138644537D02*
X195286537Y-141986000D01*
X185674000Y-141986000D02*
X183642000Y-139954000D01*
X196342000Y-105410000D02*
X198628000Y-107696000D01*
D20*
X124206000Y-123952000D02*
X121666000Y-126492000D01*
X155575000Y-117221000D02*
X155510500Y-117221000D01*
X148779500Y-123952000D02*
X124206000Y-123952000D01*
X118688497Y-126492000D02*
X118618000Y-126562497D01*
X121666000Y-126492000D02*
X118688497Y-126492000D01*
X155510500Y-117221000D02*
X148779500Y-123952000D01*
X161036000Y-77280500D02*
X161036000Y-81026500D01*
X147066000Y-122174000D02*
X118618000Y-122174000D01*
X158496000Y-77216000D02*
X158496000Y-80899000D01*
X155575000Y-113665000D02*
X147066000Y-122174000D01*
X155575000Y-113538000D02*
X155575000Y-113665000D01*
X119634000Y-123190000D02*
X118618000Y-124206000D01*
X156464000Y-110744000D02*
X156464000Y-114554000D01*
X147828000Y-123190000D02*
X119634000Y-123190000D01*
X156464000Y-114554000D02*
X147828000Y-123190000D01*
X118618000Y-127762000D02*
X122047000Y-127762000D01*
X150302052Y-124525948D02*
X125283052Y-124525948D01*
X122047000Y-127762000D02*
X125283052Y-124525948D01*
X154051000Y-120777000D02*
X150302052Y-124525948D01*
X186653000Y-92685000D02*
X185476000Y-91508000D01*
X148306000Y-72868000D02*
X148306000Y-69870000D01*
X185476000Y-91508000D02*
X166946000Y-91508000D01*
X166946000Y-91508000D02*
X148306000Y-72868000D01*
X184113000Y-92685000D02*
X167107000Y-92685000D01*
X145766000Y-71344000D02*
X145766000Y-69870000D01*
X167107000Y-92685000D02*
X145766000Y-71344000D01*
X139323000Y-73402000D02*
X139319000Y-73406000D01*
X140686000Y-67330000D02*
X139323000Y-68693000D01*
X139954000Y-74041000D02*
X147193000Y-74041000D01*
X147193000Y-74041000D02*
X167132000Y-93980000D01*
X139319000Y-73406000D02*
X139954000Y-74041000D01*
X185408000Y-93980000D02*
X186653000Y-95225000D01*
X167132000Y-93980000D02*
X185408000Y-93980000D01*
X139323000Y-68693000D02*
X139323000Y-73402000D01*
X136969000Y-68507000D02*
X136969000Y-73850000D01*
X138146000Y-67330000D02*
X136969000Y-68507000D01*
X136969000Y-73850000D02*
X138303000Y-75184000D01*
X146939000Y-75184000D02*
X166980000Y-95225000D01*
X166980000Y-95225000D02*
X184113000Y-95225000D01*
X138303000Y-75184000D02*
X146939000Y-75184000D01*
X186563000Y-109093000D02*
X187198000Y-109728000D01*
X133965900Y-73894900D02*
X136779000Y-76708000D01*
X135606000Y-67330000D02*
X133965900Y-68970100D01*
X136779000Y-76708000D02*
X147066000Y-76708000D01*
X133965900Y-68970100D02*
X133965900Y-73894900D01*
X179451000Y-109093000D02*
X186563000Y-109093000D01*
X147066000Y-76708000D02*
X179451000Y-109093000D01*
X187198000Y-109728000D02*
X187198000Y-111183150D01*
X192913000Y-76708000D02*
X178054000Y-76708000D01*
X176276000Y-78486000D02*
X178054000Y-76708000D01*
X194310000Y-58674000D02*
X193040000Y-59944000D01*
X176022000Y-73914000D02*
X183896000Y-73914000D01*
X193040000Y-59944000D02*
X193040000Y-68580000D01*
X193040000Y-68580000D02*
X187706000Y-73914000D01*
X187706000Y-73914000D02*
X183896000Y-73914000D01*
M02*
