G04 #@! TF.GenerationSoftware,KiCad,Pcbnew,(6.0.7)*
G04 #@! TF.CreationDate,2022-12-20T16:10:49-05:00*
G04 #@! TF.ProjectId,obc-db,6f62632d-6462-42e6-9b69-6361645f7063,rev?*
G04 #@! TF.SameCoordinates,Original*
G04 #@! TF.FileFunction,Paste,Top*
G04 #@! TF.FilePolarity,Positive*
%FSLAX46Y46*%
G04 Gerber Fmt 4.6, Leading zero omitted, Abs format (unit mm)*
G04 Created by KiCad (PCBNEW (6.0.7)) date 2022-12-20 16:10:49*
%MOMM*%
%LPD*%
G01*
G04 APERTURE LIST*
G04 Aperture macros list*
%AMRoundRect*
0 Rectangle with rounded corners*
0 $1 Rounding radius*
0 $2 $3 $4 $5 $6 $7 $8 $9 X,Y pos of 4 corners*
0 Add a 4 corners polygon primitive as box body*
4,1,4,$2,$3,$4,$5,$6,$7,$8,$9,$2,$3,0*
0 Add four circle primitives for the rounded corners*
1,1,$1+$1,$2,$3*
1,1,$1+$1,$4,$5*
1,1,$1+$1,$6,$7*
1,1,$1+$1,$8,$9*
0 Add four rect primitives between the rounded corners*
20,1,$1+$1,$2,$3,$4,$5,0*
20,1,$1+$1,$4,$5,$6,$7,0*
20,1,$1+$1,$6,$7,$8,$9,0*
20,1,$1+$1,$8,$9,$2,$3,0*%
G04 Aperture macros list end*
%ADD10RoundRect,0.218750X0.256250X-0.218750X0.256250X0.218750X-0.256250X0.218750X-0.256250X-0.218750X0*%
%ADD11RoundRect,0.135000X0.135000X0.185000X-0.135000X0.185000X-0.135000X-0.185000X0.135000X-0.185000X0*%
%ADD12R,1.500000X2.000000*%
%ADD13R,3.800000X2.000000*%
%ADD14RoundRect,0.200000X-0.275000X0.200000X-0.275000X-0.200000X0.275000X-0.200000X0.275000X0.200000X0*%
%ADD15RoundRect,0.200000X0.200000X0.275000X-0.200000X0.275000X-0.200000X-0.275000X0.200000X-0.275000X0*%
%ADD16RoundRect,0.225000X0.225000X0.250000X-0.225000X0.250000X-0.225000X-0.250000X0.225000X-0.250000X0*%
%ADD17RoundRect,0.225000X-0.225000X-0.250000X0.225000X-0.250000X0.225000X0.250000X-0.225000X0.250000X0*%
%ADD18R,3.050000X4.570000*%
%ADD19R,0.812800X0.254000*%
%ADD20R,1.752600X1.549400*%
%ADD21RoundRect,0.225000X-0.250000X0.225000X-0.250000X-0.225000X0.250000X-0.225000X0.250000X0.225000X0*%
%ADD22RoundRect,0.350001X0.899999X0.000001X0.899999X-0.000001X-0.899999X-0.000001X-0.899999X0.000001X0*%
%ADD23R,1.981200X0.558800*%
%ADD24R,0.711200X0.635000*%
%ADD25R,0.558800X1.549400*%
%ADD26R,0.711200X0.711200*%
%ADD27R,1.447800X0.558800*%
%ADD28R,1.651000X0.508000*%
%ADD29R,1.955800X0.558800*%
%ADD30R,1.854200X0.558800*%
%ADD31R,0.812800X0.508000*%
%ADD32R,1.143000X0.508000*%
%ADD33R,1.473200X1.016000*%
%ADD34RoundRect,0.218750X-0.218750X-0.256250X0.218750X-0.256250X0.218750X0.256250X-0.218750X0.256250X0*%
%ADD35RoundRect,0.218750X0.218750X0.256250X-0.218750X0.256250X-0.218750X-0.256250X0.218750X-0.256250X0*%
%ADD36RoundRect,0.200000X-0.200000X-0.275000X0.200000X-0.275000X0.200000X0.275000X-0.200000X0.275000X0*%
%ADD37R,1.200000X0.600000*%
G04 APERTURE END LIST*
D10*
X128778000Y-130327500D03*
X128778000Y-128752500D03*
D11*
X189486000Y-62992000D03*
X188466000Y-62992000D03*
D10*
X180086000Y-114071500D03*
X180086000Y-112496500D03*
D12*
X191248000Y-78690000D03*
X193548000Y-78690000D03*
D13*
X193548000Y-72390000D03*
D12*
X195848000Y-78690000D03*
D14*
X189992000Y-82487000D03*
X189992000Y-84137000D03*
D15*
X193865000Y-64516000D03*
X192215000Y-64516000D03*
D16*
X196355000Y-70358000D03*
X194805000Y-70358000D03*
D15*
X139001000Y-61976000D03*
X137351000Y-61976000D03*
D17*
X131051000Y-95250000D03*
X132601000Y-95250000D03*
D18*
X135387000Y-108712000D03*
X165857000Y-108712000D03*
D19*
X185801000Y-112509651D03*
X185801000Y-112009650D03*
X185801000Y-111509650D03*
X185801000Y-111009649D03*
X183007000Y-111009649D03*
X183007000Y-111509650D03*
X183007000Y-112009650D03*
X183007000Y-112509651D03*
D20*
X184404000Y-111759650D03*
D15*
X143128000Y-93980000D03*
X141478000Y-93980000D03*
D21*
X127254000Y-125717000D03*
X127254000Y-127267000D03*
D14*
X176276000Y-79756000D03*
X176276000Y-81406000D03*
D21*
X125730000Y-125717000D03*
X125730000Y-127267000D03*
D17*
X131038000Y-91186000D03*
X132588000Y-91186000D03*
D22*
X196506000Y-62357000D03*
X196506000Y-61087000D03*
X196506000Y-59817000D03*
X196506000Y-58547000D03*
X191606000Y-58547000D03*
X191606000Y-59817000D03*
X191606000Y-61087000D03*
X191606000Y-62357000D03*
D10*
X132588000Y-110261500D03*
X132588000Y-108686500D03*
D23*
X134797800Y-92583000D03*
X134797800Y-93853000D03*
X134797800Y-95123000D03*
X134797800Y-96393000D03*
X139522200Y-96393000D03*
X139522200Y-95123000D03*
X139522200Y-93853000D03*
X139522200Y-92583000D03*
D24*
X117358492Y-128756749D03*
X117358492Y-127656749D03*
X117358492Y-126556749D03*
X117358492Y-125456748D03*
X117358492Y-124356748D03*
X117358492Y-123256748D03*
X117358492Y-122156750D03*
X117358492Y-121056749D03*
D25*
X124133493Y-121161748D03*
D26*
X123558493Y-123056748D03*
D27*
X110133493Y-133071775D03*
D28*
X117083493Y-133096775D03*
D29*
X123728493Y-133071775D03*
D30*
X123783492Y-119701748D03*
D31*
X120498492Y-119676748D03*
D32*
X118283492Y-119676748D03*
D33*
X110258492Y-119921748D03*
D10*
X128778000Y-127279500D03*
X128778000Y-125704500D03*
X178562000Y-114071500D03*
X178562000Y-112496500D03*
D34*
X191719000Y-82550000D03*
X193294000Y-82550000D03*
D35*
X140233500Y-87630000D03*
X138658500Y-87630000D03*
D22*
X173646000Y-84010000D03*
X173646000Y-82740000D03*
X173646000Y-81470000D03*
X173646000Y-80200000D03*
X173646000Y-78930000D03*
X173646000Y-77660000D03*
X173646000Y-76390000D03*
X173646000Y-75120000D03*
X168746000Y-75120000D03*
X168746000Y-76390000D03*
X168746000Y-77660000D03*
X168746000Y-78930000D03*
X168746000Y-80200000D03*
X168746000Y-81470000D03*
X168746000Y-82740000D03*
X168746000Y-84010000D03*
D34*
X194741500Y-80772000D03*
X196316500Y-80772000D03*
D14*
X128778000Y-131763000D03*
X128778000Y-133413000D03*
D36*
X132779000Y-61976000D03*
X134429000Y-61976000D03*
D21*
X181610000Y-112509000D03*
X181610000Y-114059000D03*
D34*
X138658500Y-89154000D03*
X140233500Y-89154000D03*
D36*
X141669000Y-87630000D03*
X143319000Y-87630000D03*
D37*
X132588000Y-92618000D03*
X132588000Y-93818000D03*
D14*
X180086000Y-115507000D03*
X180086000Y-117157000D03*
D10*
X132588000Y-106451500D03*
X132588000Y-104876500D03*
D14*
X176276000Y-82804000D03*
X176276000Y-84454000D03*
D17*
X138658000Y-90678000D03*
X140208000Y-90678000D03*
X191731500Y-80772000D03*
X193281500Y-80772000D03*
D34*
X195300500Y-64516000D03*
X196875500Y-64516000D03*
M02*
