G04 #@! TF.GenerationSoftware,KiCad,Pcbnew,(6.0.7)*
G04 #@! TF.CreationDate,2022-12-20T16:10:49-05:00*
G04 #@! TF.ProjectId,obc-db,6f62632d-6462-42e6-9b69-6361645f7063,rev?*
G04 #@! TF.SameCoordinates,Original*
G04 #@! TF.FileFunction,Copper,L1,Top*
G04 #@! TF.FilePolarity,Positive*
%FSLAX46Y46*%
G04 Gerber Fmt 4.6, Leading zero omitted, Abs format (unit mm)*
G04 Created by KiCad (PCBNEW (6.0.7)) date 2022-12-20 16:10:49*
%MOMM*%
%LPD*%
G01*
G04 APERTURE LIST*
G04 Aperture macros list*
%AMRoundRect*
0 Rectangle with rounded corners*
0 $1 Rounding radius*
0 $2 $3 $4 $5 $6 $7 $8 $9 X,Y pos of 4 corners*
0 Add a 4 corners polygon primitive as box body*
4,1,4,$2,$3,$4,$5,$6,$7,$8,$9,$2,$3,0*
0 Add four circle primitives for the rounded corners*
1,1,$1+$1,$2,$3*
1,1,$1+$1,$4,$5*
1,1,$1+$1,$6,$7*
1,1,$1+$1,$8,$9*
0 Add four rect primitives between the rounded corners*
20,1,$1+$1,$2,$3,$4,$5,0*
20,1,$1+$1,$4,$5,$6,$7,0*
20,1,$1+$1,$6,$7,$8,$9,0*
20,1,$1+$1,$8,$9,$2,$3,0*%
G04 Aperture macros list end*
G04 #@! TA.AperFunction,SMDPad,CuDef*
%ADD10RoundRect,0.218750X0.256250X-0.218750X0.256250X0.218750X-0.256250X0.218750X-0.256250X-0.218750X0*%
G04 #@! TD*
G04 #@! TA.AperFunction,SMDPad,CuDef*
%ADD11RoundRect,0.135000X0.135000X0.185000X-0.135000X0.185000X-0.135000X-0.185000X0.135000X-0.185000X0*%
G04 #@! TD*
G04 #@! TA.AperFunction,ConnectorPad*
%ADD12C,6.400000*%
G04 #@! TD*
G04 #@! TA.AperFunction,ComponentPad*
%ADD13C,3.600000*%
G04 #@! TD*
G04 #@! TA.AperFunction,SMDPad,CuDef*
%ADD14R,1.500000X2.000000*%
G04 #@! TD*
G04 #@! TA.AperFunction,SMDPad,CuDef*
%ADD15R,3.800000X2.000000*%
G04 #@! TD*
G04 #@! TA.AperFunction,SMDPad,CuDef*
%ADD16RoundRect,0.200000X-0.275000X0.200000X-0.275000X-0.200000X0.275000X-0.200000X0.275000X0.200000X0*%
G04 #@! TD*
G04 #@! TA.AperFunction,SMDPad,CuDef*
%ADD17R,2.000000X2.000000*%
G04 #@! TD*
G04 #@! TA.AperFunction,SMDPad,CuDef*
%ADD18RoundRect,0.200000X0.200000X0.275000X-0.200000X0.275000X-0.200000X-0.275000X0.200000X-0.275000X0*%
G04 #@! TD*
G04 #@! TA.AperFunction,SMDPad,CuDef*
%ADD19RoundRect,0.225000X0.225000X0.250000X-0.225000X0.250000X-0.225000X-0.250000X0.225000X-0.250000X0*%
G04 #@! TD*
G04 #@! TA.AperFunction,SMDPad,CuDef*
%ADD20RoundRect,0.225000X-0.225000X-0.250000X0.225000X-0.250000X0.225000X0.250000X-0.225000X0.250000X0*%
G04 #@! TD*
G04 #@! TA.AperFunction,ComponentPad*
%ADD21C,2.600000*%
G04 #@! TD*
G04 #@! TA.AperFunction,ConnectorPad*
%ADD22C,4.400000*%
G04 #@! TD*
G04 #@! TA.AperFunction,SMDPad,CuDef*
%ADD23R,3.050000X4.570000*%
G04 #@! TD*
G04 #@! TA.AperFunction,ComponentPad*
%ADD24R,1.700000X1.700000*%
G04 #@! TD*
G04 #@! TA.AperFunction,ComponentPad*
%ADD25O,1.700000X1.700000*%
G04 #@! TD*
G04 #@! TA.AperFunction,ComponentPad*
%ADD26C,2.159000*%
G04 #@! TD*
G04 #@! TA.AperFunction,SMDPad,CuDef*
%ADD27R,0.812800X0.254000*%
G04 #@! TD*
G04 #@! TA.AperFunction,SMDPad,CuDef*
%ADD28R,1.752600X1.549400*%
G04 #@! TD*
G04 #@! TA.AperFunction,SMDPad,CuDef*
%ADD29RoundRect,0.225000X-0.250000X0.225000X-0.250000X-0.225000X0.250000X-0.225000X0.250000X0.225000X0*%
G04 #@! TD*
G04 #@! TA.AperFunction,SMDPad,CuDef*
%ADD30RoundRect,0.350001X0.899999X0.000001X0.899999X-0.000001X-0.899999X-0.000001X-0.899999X0.000001X0*%
G04 #@! TD*
G04 #@! TA.AperFunction,SMDPad,CuDef*
%ADD31R,1.981200X0.558800*%
G04 #@! TD*
G04 #@! TA.AperFunction,SMDPad,CuDef*
%ADD32R,0.711200X0.635000*%
G04 #@! TD*
G04 #@! TA.AperFunction,SMDPad,CuDef*
%ADD33R,0.558800X1.549400*%
G04 #@! TD*
G04 #@! TA.AperFunction,SMDPad,CuDef*
%ADD34R,0.711200X0.711200*%
G04 #@! TD*
G04 #@! TA.AperFunction,SMDPad,CuDef*
%ADD35R,1.447800X0.558800*%
G04 #@! TD*
G04 #@! TA.AperFunction,SMDPad,CuDef*
%ADD36R,1.651000X0.508000*%
G04 #@! TD*
G04 #@! TA.AperFunction,SMDPad,CuDef*
%ADD37R,1.955800X0.558800*%
G04 #@! TD*
G04 #@! TA.AperFunction,SMDPad,CuDef*
%ADD38R,1.854200X0.558800*%
G04 #@! TD*
G04 #@! TA.AperFunction,SMDPad,CuDef*
%ADD39R,0.812800X0.508000*%
G04 #@! TD*
G04 #@! TA.AperFunction,SMDPad,CuDef*
%ADD40R,1.143000X0.508000*%
G04 #@! TD*
G04 #@! TA.AperFunction,SMDPad,CuDef*
%ADD41R,1.473200X1.016000*%
G04 #@! TD*
G04 #@! TA.AperFunction,SMDPad,CuDef*
%ADD42RoundRect,0.218750X-0.218750X-0.256250X0.218750X-0.256250X0.218750X0.256250X-0.218750X0.256250X0*%
G04 #@! TD*
G04 #@! TA.AperFunction,SMDPad,CuDef*
%ADD43RoundRect,0.218750X0.218750X0.256250X-0.218750X0.256250X-0.218750X-0.256250X0.218750X-0.256250X0*%
G04 #@! TD*
G04 #@! TA.AperFunction,ComponentPad*
%ADD44R,1.524000X1.524000*%
G04 #@! TD*
G04 #@! TA.AperFunction,ComponentPad*
%ADD45C,1.524000*%
G04 #@! TD*
G04 #@! TA.AperFunction,SMDPad,CuDef*
%ADD46RoundRect,0.200000X-0.200000X-0.275000X0.200000X-0.275000X0.200000X0.275000X-0.200000X0.275000X0*%
G04 #@! TD*
G04 #@! TA.AperFunction,SMDPad,CuDef*
%ADD47R,1.200000X0.600000*%
G04 #@! TD*
G04 #@! TA.AperFunction,ViaPad*
%ADD48C,1.000000*%
G04 #@! TD*
G04 #@! TA.AperFunction,Conductor*
%ADD49C,0.254000*%
G04 #@! TD*
G04 #@! TA.AperFunction,Conductor*
%ADD50C,0.508000*%
G04 #@! TD*
G04 APERTURE END LIST*
D10*
X128778000Y-130327500D03*
X128778000Y-128752500D03*
D11*
X189486000Y-62992000D03*
X188466000Y-62992000D03*
D12*
X191770000Y-52070000D03*
D13*
X191770000Y-52070000D03*
D10*
X180086000Y-114071500D03*
X180086000Y-112496500D03*
D14*
X191248000Y-78690000D03*
X193548000Y-78690000D03*
D15*
X193548000Y-72390000D03*
D14*
X195848000Y-78690000D03*
D16*
X189992000Y-82487000D03*
X189992000Y-84137000D03*
D17*
X164084000Y-138684000D03*
D18*
X193865000Y-64516000D03*
X192215000Y-64516000D03*
D19*
X196355000Y-70358000D03*
X194805000Y-70358000D03*
D13*
X118110000Y-52070000D03*
D12*
X118110000Y-52070000D03*
D18*
X139001000Y-61976000D03*
X137351000Y-61976000D03*
D20*
X131051000Y-95250000D03*
X132601000Y-95250000D03*
D21*
X188976000Y-117602000D03*
D22*
X188976000Y-117602000D03*
D23*
X135387000Y-108712000D03*
X165857000Y-108712000D03*
D24*
X196088000Y-108077000D03*
D25*
X196088000Y-110617000D03*
X196088000Y-113157000D03*
X196088000Y-115697000D03*
D26*
X183642000Y-139954000D03*
X178891999Y-139954000D03*
X174141999Y-139954000D03*
D27*
X185801000Y-112509651D03*
X185801000Y-112009650D03*
X185801000Y-111509650D03*
X185801000Y-111009649D03*
X183007000Y-111009649D03*
X183007000Y-111509650D03*
X183007000Y-112009650D03*
X183007000Y-112509651D03*
D28*
X184404000Y-111759650D03*
D18*
X143128000Y-93980000D03*
X141478000Y-93980000D03*
D29*
X127254000Y-125717000D03*
X127254000Y-127267000D03*
D12*
X114300000Y-137795000D03*
D13*
X114300000Y-137795000D03*
D16*
X176276000Y-79756000D03*
X176276000Y-81406000D03*
D24*
X183866000Y-69870000D03*
D25*
X183866000Y-67330000D03*
X181326000Y-69870000D03*
X181326000Y-67330000D03*
X178786000Y-69870000D03*
X178786000Y-67330000D03*
X176246000Y-69870000D03*
X176246000Y-67330000D03*
X173706000Y-69870000D03*
X173706000Y-67330000D03*
X171166000Y-69870000D03*
X171166000Y-67330000D03*
X168626000Y-69870000D03*
X168626000Y-67330000D03*
X166086000Y-69870000D03*
X166086000Y-67330000D03*
X163546000Y-69870000D03*
X163546000Y-67330000D03*
X161006000Y-69870000D03*
X161006000Y-67330000D03*
X158466000Y-69870000D03*
X158466000Y-67330000D03*
X155926000Y-69870000D03*
X155926000Y-67330000D03*
X153386000Y-69870000D03*
X153386000Y-67330000D03*
X150846000Y-69870000D03*
X150846000Y-67330000D03*
X148306000Y-69870000D03*
X148306000Y-67330000D03*
X145766000Y-69870000D03*
X145766000Y-67330000D03*
X143226000Y-69870000D03*
X143226000Y-67330000D03*
X140686000Y-69870000D03*
X140686000Y-67330000D03*
X138146000Y-69870000D03*
X138146000Y-67330000D03*
X135606000Y-69870000D03*
X135606000Y-67330000D03*
D29*
X125730000Y-125717000D03*
X125730000Y-127267000D03*
D20*
X131038000Y-91186000D03*
X132588000Y-91186000D03*
D30*
X196506000Y-62357000D03*
X196506000Y-61087000D03*
X196506000Y-59817000D03*
X196506000Y-58547000D03*
X191606000Y-58547000D03*
X191606000Y-59817000D03*
X191606000Y-61087000D03*
X191606000Y-62357000D03*
D10*
X132588000Y-110261500D03*
X132588000Y-108686500D03*
D31*
X134797800Y-92583000D03*
X134797800Y-93853000D03*
X134797800Y-95123000D03*
X134797800Y-96393000D03*
X139522200Y-96393000D03*
X139522200Y-95123000D03*
X139522200Y-93853000D03*
X139522200Y-92583000D03*
D24*
X184113000Y-102845000D03*
D25*
X186653000Y-102845000D03*
X184113000Y-100305000D03*
X186653000Y-100305000D03*
X184113000Y-97765000D03*
X186653000Y-97765000D03*
X184113000Y-95225000D03*
X186653000Y-95225000D03*
X184113000Y-92685000D03*
X186653000Y-92685000D03*
X184113000Y-90145000D03*
X186653000Y-90145000D03*
D32*
X117358492Y-128756749D03*
X117358492Y-127656749D03*
X117358492Y-126556749D03*
X117358492Y-125456748D03*
X117358492Y-124356748D03*
X117358492Y-123256748D03*
X117358492Y-122156750D03*
X117358492Y-121056749D03*
D33*
X124133493Y-121161748D03*
D34*
X123558493Y-123056748D03*
D35*
X110133493Y-133071775D03*
D36*
X117083493Y-133096775D03*
D37*
X123728493Y-133071775D03*
D38*
X123783492Y-119701748D03*
D39*
X120498492Y-119676748D03*
D40*
X118283492Y-119676748D03*
D41*
X110258492Y-119921748D03*
D21*
X130810000Y-68580000D03*
D22*
X130810000Y-68580000D03*
D10*
X128778000Y-127279500D03*
X128778000Y-125704500D03*
X178562000Y-114071500D03*
X178562000Y-112496500D03*
D17*
X156972000Y-138684000D03*
D42*
X191719000Y-82550000D03*
X193294000Y-82550000D03*
D22*
X130810000Y-117602000D03*
D21*
X130810000Y-117602000D03*
D43*
X140233500Y-87630000D03*
X138658500Y-87630000D03*
D44*
X186690000Y-52070000D03*
D45*
X186690000Y-54610000D03*
X184150000Y-52070000D03*
X184150000Y-54610000D03*
X181610000Y-52070000D03*
X181610000Y-54610000D03*
X179070000Y-52070000D03*
X179070000Y-54610000D03*
X176530000Y-52070000D03*
X176530000Y-54610000D03*
X173990000Y-52070000D03*
X173990000Y-54610000D03*
X171450000Y-52070000D03*
X171450000Y-54610000D03*
X168910000Y-52070000D03*
X168910000Y-54610000D03*
X166370000Y-52070000D03*
X166370000Y-54610000D03*
X163830000Y-52070000D03*
X163830000Y-54610000D03*
X161290000Y-52070000D03*
X161290000Y-54610000D03*
X158750000Y-52070000D03*
X158750000Y-54610000D03*
X156210000Y-52070000D03*
X156210000Y-54610000D03*
X153670000Y-52070000D03*
X153670000Y-54610000D03*
X151130000Y-52070000D03*
X151130000Y-54610000D03*
X148590000Y-52070000D03*
X148590000Y-54610000D03*
X146050000Y-52070000D03*
X146050000Y-54610000D03*
X143510000Y-52070000D03*
X143510000Y-54610000D03*
X140970000Y-52070000D03*
X140970000Y-54610000D03*
X138430000Y-52070000D03*
X138430000Y-54610000D03*
X135890000Y-52070000D03*
X135890000Y-54610000D03*
X133350000Y-52070000D03*
X133350000Y-54610000D03*
X130810000Y-52070000D03*
X130810000Y-54610000D03*
X128270000Y-52070000D03*
X128270000Y-54610000D03*
X125730000Y-52070000D03*
X125730000Y-54610000D03*
X123190000Y-52070000D03*
X123190000Y-54610000D03*
X186690000Y-57150000D03*
X186690000Y-59690000D03*
X184150000Y-57150000D03*
X184150000Y-59690000D03*
X181610000Y-57150000D03*
X181610000Y-59690000D03*
X179070000Y-57150000D03*
X179070000Y-59690000D03*
X176530000Y-57150000D03*
X176530000Y-59690000D03*
X173990000Y-57150000D03*
X173990000Y-59690000D03*
X171450000Y-57150000D03*
X171450000Y-59690000D03*
X168910000Y-57150000D03*
X168910000Y-59690000D03*
X166370000Y-57150000D03*
X166370000Y-59690000D03*
X163830000Y-57150000D03*
X163830000Y-59690000D03*
X161290000Y-57150000D03*
X161290000Y-59690000D03*
X158750000Y-57150000D03*
X158750000Y-59690000D03*
X156210000Y-57150000D03*
X156210000Y-59690000D03*
X153670000Y-57150000D03*
X153670000Y-59690000D03*
X151130000Y-57150000D03*
X151130000Y-59690000D03*
X148590000Y-57150000D03*
X148590000Y-59690000D03*
X146050000Y-57150000D03*
X146050000Y-59690000D03*
X143510000Y-57150000D03*
X143510000Y-59690000D03*
X140970000Y-57150000D03*
X140970000Y-59690000D03*
X138430000Y-57150000D03*
X138430000Y-59690000D03*
X135890000Y-57150000D03*
X135890000Y-59690000D03*
X133350000Y-57150000D03*
X133350000Y-59690000D03*
X130810000Y-57150000D03*
X130810000Y-59690000D03*
X128270000Y-57150000D03*
X128270000Y-59690000D03*
X125730000Y-57150000D03*
X125730000Y-59690000D03*
X123190000Y-57150000D03*
X123190000Y-59690000D03*
D30*
X173646000Y-84010000D03*
X173646000Y-82740000D03*
X173646000Y-81470000D03*
X173646000Y-80200000D03*
X173646000Y-78930000D03*
X173646000Y-77660000D03*
X173646000Y-76390000D03*
X173646000Y-75120000D03*
X168746000Y-75120000D03*
X168746000Y-76390000D03*
X168746000Y-77660000D03*
X168746000Y-78930000D03*
X168746000Y-80200000D03*
X168746000Y-81470000D03*
X168746000Y-82740000D03*
X168746000Y-84010000D03*
D42*
X194741500Y-80772000D03*
X196316500Y-80772000D03*
D16*
X128778000Y-131763000D03*
X128778000Y-133413000D03*
D46*
X132779000Y-61976000D03*
X134429000Y-61976000D03*
D22*
X188976000Y-68580000D03*
D21*
X188976000Y-68580000D03*
D29*
X181610000Y-112509000D03*
X181610000Y-114059000D03*
D42*
X138658500Y-89154000D03*
X140233500Y-89154000D03*
D17*
X160528000Y-138684000D03*
D46*
X141669000Y-87630000D03*
X143319000Y-87630000D03*
D47*
X132588000Y-92618000D03*
X132588000Y-93818000D03*
D16*
X180086000Y-115507000D03*
X180086000Y-117157000D03*
D13*
X194310000Y-137795000D03*
D12*
X194310000Y-137795000D03*
D10*
X132588000Y-106451500D03*
X132588000Y-104876500D03*
D16*
X176276000Y-82804000D03*
X176276000Y-84454000D03*
D20*
X138658000Y-90678000D03*
X140208000Y-90678000D03*
D24*
X196088000Y-119380000D03*
D25*
X196088000Y-121920000D03*
X196088000Y-124460000D03*
X196088000Y-127000000D03*
D20*
X191731500Y-80772000D03*
X193281500Y-80772000D03*
D42*
X195300500Y-64516000D03*
X196875500Y-64516000D03*
D48*
X182118000Y-64451500D03*
X167563576Y-63169576D03*
X170180000Y-62420000D03*
X167640000Y-48006000D03*
X133477000Y-64451500D03*
X132461000Y-89662000D03*
X187452000Y-112836150D03*
X136525000Y-64451500D03*
X137732500Y-96273362D03*
X193294000Y-109728000D03*
X116078000Y-123444000D03*
X193294000Y-120396000D03*
X143256000Y-88900000D03*
X168275000Y-107315000D03*
X130810000Y-89916000D03*
X119126000Y-133604000D03*
X130302000Y-133350000D03*
X189357000Y-78613000D03*
X112014000Y-120142000D03*
X188722000Y-100330000D03*
X185928000Y-109982000D03*
X125730000Y-128524000D03*
X194818000Y-69088000D03*
X188595000Y-84201000D03*
X117602000Y-118618000D03*
X183134000Y-109982000D03*
X130810000Y-96774000D03*
X132588000Y-96774000D03*
X111760000Y-133604000D03*
X168275000Y-110109000D03*
X191008000Y-64516000D03*
X194564000Y-60198000D03*
X125730000Y-133350000D03*
X181610000Y-100330000D03*
X168275000Y-108712000D03*
X119380000Y-118618000D03*
X180086000Y-118364000D03*
X127254000Y-128524000D03*
X166370000Y-139700000D03*
X137414000Y-91186000D03*
X176276000Y-85661000D03*
X166370000Y-75184000D03*
X181610000Y-115570000D03*
X190474500Y-80772000D03*
X122936000Y-118618000D03*
X166370000Y-81534000D03*
X184912000Y-113792000D03*
X186436000Y-62992000D03*
X193294000Y-106934000D03*
X186436000Y-64008000D03*
X130302000Y-127254000D03*
X137414000Y-87376000D03*
X130302000Y-128778000D03*
X178562000Y-115570000D03*
X131318000Y-111760000D03*
X140208000Y-61976000D03*
X143002000Y-92710000D03*
X181610000Y-102870000D03*
X137414000Y-89154000D03*
X132588000Y-111760000D03*
X132334000Y-63246000D03*
X166370000Y-82804000D03*
X188468000Y-64008000D03*
X154686000Y-139700000D03*
X166370000Y-84074000D03*
X193294000Y-117856000D03*
X187452000Y-64008000D03*
X196810773Y-83272773D03*
X161036000Y-77280500D03*
X161036000Y-81026500D03*
X155575000Y-117221000D03*
X118618000Y-126562497D03*
X158496000Y-80899000D03*
X155575000Y-113538000D03*
X118618000Y-122174000D03*
X158496000Y-77216000D03*
X156464000Y-110744000D03*
X118618000Y-124206000D03*
X118618000Y-127762000D03*
X154051000Y-120777000D03*
X187198000Y-111183150D03*
X176276000Y-78486000D03*
X192913000Y-76708000D03*
X194310000Y-58674000D03*
X176022000Y-73914000D03*
D49*
X188214000Y-56134000D02*
X188214000Y-59706079D01*
X183468579Y-64451500D02*
X182118000Y-64451500D01*
X186690000Y-54610000D02*
X188214000Y-56134000D01*
X188214000Y-59706079D02*
X183468579Y-64451500D01*
X167640500Y-63246500D02*
X183387500Y-63246500D01*
X185420000Y-61214000D02*
X185420000Y-55880000D01*
X167563576Y-63169576D02*
X167640500Y-63246500D01*
X185420000Y-55880000D02*
X184150000Y-54610000D01*
X183387500Y-63246500D02*
X185420000Y-61214000D01*
X182880000Y-57658000D02*
X182880000Y-60960000D01*
X181610000Y-54610000D02*
X182880000Y-55880000D01*
X182880000Y-55880000D02*
X182880000Y-57658000D01*
X181420000Y-62420000D02*
X170180000Y-62420000D01*
X182880000Y-60960000D02*
X181420000Y-62420000D01*
D50*
X165608000Y-50038000D02*
X167640000Y-48006000D01*
X148590000Y-54610000D02*
X149860000Y-53340000D01*
X151130000Y-50038000D02*
X165608000Y-50038000D01*
X149860000Y-53340000D02*
X149860000Y-51308000D01*
X149860000Y-51308000D02*
X151130000Y-50038000D01*
D49*
X185801000Y-112509651D02*
X187125501Y-112509651D01*
X127127000Y-67183000D02*
X127127000Y-84328000D01*
X138430000Y-64770000D02*
X137223000Y-63563000D01*
X187125501Y-112509651D02*
X187452000Y-112836150D01*
X180086000Y-66773099D02*
X178082901Y-64770000D01*
X139402562Y-96273362D02*
X139522200Y-96393000D01*
X180086000Y-68630000D02*
X180086000Y-66773099D01*
X178308000Y-72888000D02*
X178308000Y-93472000D01*
X129858500Y-64451500D02*
X127127000Y-67183000D01*
X185378450Y-96490450D02*
X181326450Y-96490450D01*
X137223000Y-63563000D02*
X137223000Y-53403000D01*
X137732500Y-96273362D02*
X139402562Y-96273362D01*
X181326000Y-69870000D02*
X180086000Y-68630000D01*
X181326000Y-69870000D02*
X178308000Y-72888000D01*
X133477000Y-64451500D02*
X129858500Y-64451500D01*
X181326450Y-96490450D02*
X178308000Y-93472000D01*
X185378450Y-96490450D02*
X186653000Y-97765000D01*
X178082901Y-64770000D02*
X138430000Y-64770000D01*
X137223000Y-53403000D02*
X135890000Y-52070000D01*
X127127000Y-84328000D02*
X132461000Y-89662000D01*
X136843500Y-64770000D02*
X136525000Y-64451500D01*
X138430000Y-64770000D02*
X136843500Y-64770000D01*
X133350000Y-52070000D02*
X134439000Y-53159000D01*
X181635000Y-97765000D02*
X184113000Y-97765000D01*
X178786000Y-69870000D02*
X177546000Y-68630000D01*
X177546000Y-68630000D02*
X177546000Y-66548000D01*
X128016000Y-83947000D02*
X137160000Y-93091000D01*
X130048000Y-65278000D02*
X128016000Y-67310000D01*
X177546000Y-93726000D02*
X181610000Y-97790000D01*
X178786000Y-69870000D02*
X177546000Y-71110000D01*
X135890000Y-65278000D02*
X130048000Y-65278000D01*
X177546000Y-71110000D02*
X177546000Y-93726000D01*
X181610000Y-97790000D02*
X181635000Y-97765000D01*
X138049000Y-95123000D02*
X139522200Y-95123000D01*
X196088000Y-124460000D02*
X194310000Y-124460000D01*
X137160000Y-94234000D02*
X138049000Y-95123000D01*
X192278000Y-122428000D02*
X192278000Y-113792000D01*
X134439000Y-53159000D02*
X134439000Y-62220000D01*
X194310000Y-124460000D02*
X192278000Y-122428000D01*
X190495650Y-112009650D02*
X192278000Y-113792000D01*
X134429000Y-63817000D02*
X134429000Y-61976000D01*
X177546000Y-66548000D02*
X176276000Y-65278000D01*
X137160000Y-93091000D02*
X137160000Y-94234000D01*
X135890000Y-65278000D02*
X134429000Y-63817000D01*
X176276000Y-65278000D02*
X135890000Y-65278000D01*
X184113000Y-97765000D02*
X185384450Y-99036450D01*
X192278000Y-113792000D02*
X192278000Y-111252000D01*
X196088000Y-113284000D02*
X194310000Y-113284000D01*
X185384450Y-104358450D02*
X192278000Y-111252000D01*
X185801000Y-112009650D02*
X190495650Y-112009650D01*
X185384450Y-99036450D02*
X185384450Y-104358450D01*
X194310000Y-113284000D02*
X192278000Y-111252000D01*
X128016000Y-67310000D02*
X128016000Y-83947000D01*
X168746000Y-75120000D02*
X166434000Y-75120000D01*
X184113000Y-100305000D02*
X181635000Y-100305000D01*
X116265252Y-123256748D02*
X116078000Y-123444000D01*
X183007000Y-110109000D02*
X183134000Y-109982000D01*
X131038000Y-90144000D02*
X130810000Y-89916000D01*
X117358492Y-123256748D02*
X116265252Y-123256748D01*
X111793748Y-119921748D02*
X112014000Y-120142000D01*
X185801000Y-111009649D02*
X185801000Y-110109000D01*
X184404000Y-111759650D02*
X184404000Y-113284000D01*
X166434000Y-81470000D02*
X166370000Y-81534000D01*
X196506000Y-59817000D02*
X194945000Y-59817000D01*
X189992000Y-84137000D02*
X188659000Y-84137000D01*
X191731500Y-80772000D02*
X190474500Y-80772000D01*
X132969000Y-96393000D02*
X132588000Y-96774000D01*
X110258492Y-119921748D02*
X111793748Y-119921748D01*
X192215000Y-64516000D02*
X191008000Y-64516000D01*
X181635000Y-100305000D02*
X181610000Y-100330000D01*
X181610000Y-114059000D02*
X181610000Y-115570000D01*
X120498492Y-119676748D02*
X120438748Y-119676748D01*
X165857000Y-108712000D02*
X168275000Y-108712000D01*
D50*
X189434000Y-78690000D02*
X189357000Y-78613000D01*
D49*
X137922000Y-90678000D02*
X137414000Y-91186000D01*
X185801000Y-110109000D02*
X185928000Y-109982000D01*
X131051000Y-96533000D02*
X130810000Y-96774000D01*
X165857000Y-108712000D02*
X167254000Y-110109000D01*
X128778000Y-133413000D02*
X130239000Y-133413000D01*
X118283492Y-119676748D02*
X118283492Y-119299492D01*
X118283492Y-119299492D02*
X117602000Y-118618000D01*
X188697000Y-100305000D02*
X188722000Y-100330000D01*
X143319000Y-88837000D02*
X143256000Y-88900000D01*
X194945000Y-59817000D02*
X194564000Y-60198000D01*
X184404000Y-113284000D02*
X184912000Y-113792000D01*
D50*
X191248000Y-78690000D02*
X189434000Y-78690000D01*
D49*
X183007000Y-111009649D02*
X183007000Y-110109000D01*
X168746000Y-81470000D02*
X166434000Y-81470000D01*
X130239000Y-133413000D02*
X130302000Y-133350000D01*
X194310000Y-110744000D02*
X193294000Y-109728000D01*
X183007000Y-112009650D02*
X183007000Y-111509650D01*
X167254000Y-107315000D02*
X168275000Y-107315000D01*
X131038000Y-91186000D02*
X131038000Y-90144000D01*
X131051000Y-95250000D02*
X131051000Y-96533000D01*
X118618775Y-133096775D02*
X119126000Y-133604000D01*
X123783492Y-119465492D02*
X122936000Y-118618000D01*
X143319000Y-87630000D02*
X143319000Y-88837000D01*
X111227775Y-133071775D02*
X111760000Y-133604000D01*
X164084000Y-138684000D02*
X165354000Y-138684000D01*
X196088000Y-110744000D02*
X194310000Y-110744000D01*
X186653000Y-100305000D02*
X188697000Y-100305000D01*
X194805000Y-69101000D02*
X194818000Y-69088000D01*
X183007000Y-111509650D02*
X183007000Y-111009649D01*
X196088000Y-121920000D02*
X194818000Y-121920000D01*
X166434000Y-75120000D02*
X166370000Y-75184000D01*
X194818000Y-121920000D02*
X193294000Y-120396000D01*
X194805000Y-70358000D02*
X194805000Y-69101000D01*
X125451775Y-133071775D02*
X125730000Y-133350000D01*
X167254000Y-110109000D02*
X168275000Y-110109000D01*
X138658000Y-90678000D02*
X137922000Y-90678000D01*
X123783492Y-119701748D02*
X123783492Y-119465492D01*
X134797800Y-96393000D02*
X132969000Y-96393000D01*
X127254000Y-127267000D02*
X127254000Y-128524000D01*
X110133493Y-133071775D02*
X111227775Y-133071775D01*
X125730000Y-127267000D02*
X125730000Y-128524000D01*
X117083493Y-133096775D02*
X118618775Y-133096775D01*
X188659000Y-84137000D02*
X188595000Y-84201000D01*
X180086000Y-117157000D02*
X180086000Y-118364000D01*
X165354000Y-138684000D02*
X166370000Y-139700000D01*
X123728493Y-133071775D02*
X125451775Y-133071775D01*
X120438748Y-119676748D02*
X119380000Y-118618000D01*
X165857000Y-108712000D02*
X167254000Y-107315000D01*
X176276000Y-84454000D02*
X176276000Y-85661000D01*
D50*
X195580000Y-48006000D02*
X198628000Y-51054000D01*
X198628000Y-138644537D02*
X195286537Y-141986000D01*
X198628000Y-107696000D02*
X198628000Y-138644537D01*
X170180000Y-58420000D02*
X170180000Y-50292000D01*
X196342000Y-85090000D02*
X196342000Y-105410000D01*
X193777000Y-102845000D02*
X196342000Y-105410000D01*
X180923999Y-141986000D02*
X178891999Y-139954000D01*
X168910000Y-59690000D02*
X170180000Y-58420000D01*
X170180000Y-50292000D02*
X172466000Y-48006000D01*
X172466000Y-48006000D02*
X195580000Y-48006000D01*
X195286537Y-141986000D02*
X180923999Y-141986000D01*
X186653000Y-102845000D02*
X193777000Y-102845000D01*
X198628000Y-51054000D02*
X198628000Y-82804000D01*
X198628000Y-82804000D02*
X196342000Y-85090000D01*
X196342000Y-105410000D02*
X198628000Y-107696000D01*
X186436000Y-62992000D02*
X187452000Y-62992000D01*
D49*
X196088000Y-119380000D02*
X194818000Y-119380000D01*
X139001000Y-61976000D02*
X140208000Y-61976000D01*
D50*
X187452000Y-64008000D02*
X187452000Y-64006000D01*
D49*
X194564000Y-108204000D02*
X193294000Y-106934000D01*
X196088000Y-108204000D02*
X194564000Y-108204000D01*
X128778000Y-127279500D02*
X130276500Y-127279500D01*
X137668000Y-87630000D02*
X137414000Y-87376000D01*
X130276500Y-127279500D02*
X130302000Y-127254000D01*
X132588000Y-110261500D02*
X132588000Y-110490000D01*
D50*
X186436000Y-64008000D02*
X187452000Y-62992000D01*
D49*
X184113000Y-102845000D02*
X181635000Y-102845000D01*
X178562000Y-114071500D02*
X178562000Y-115570000D01*
X166434000Y-82740000D02*
X166370000Y-82804000D01*
X132779000Y-61976000D02*
X132779000Y-62801000D01*
X155702000Y-138684000D02*
X154686000Y-139700000D01*
X130276500Y-128752500D02*
X130302000Y-128778000D01*
X143128000Y-93980000D02*
X143128000Y-92836000D01*
X168746000Y-84010000D02*
X166434000Y-84010000D01*
D50*
X187452000Y-62992000D02*
X188466000Y-62992000D01*
D49*
X138658500Y-89154000D02*
X137414000Y-89154000D01*
X156972000Y-138684000D02*
X155702000Y-138684000D01*
X128778000Y-128752500D02*
X130276500Y-128752500D01*
D50*
X188466000Y-64006000D02*
X188466000Y-62992000D01*
D49*
X132588000Y-110490000D02*
X131318000Y-111760000D01*
X188466000Y-61216000D02*
X188466000Y-62992000D01*
X194818000Y-119380000D02*
X193294000Y-117856000D01*
X168746000Y-82740000D02*
X166434000Y-82740000D01*
X181635000Y-102845000D02*
X181610000Y-102870000D01*
X138658500Y-87630000D02*
X137668000Y-87630000D01*
X132779000Y-62801000D02*
X132334000Y-63246000D01*
D50*
X187452000Y-64006000D02*
X188466000Y-62992000D01*
D49*
X166434000Y-84010000D02*
X166370000Y-84074000D01*
X189865000Y-59817000D02*
X188466000Y-61216000D01*
X132588000Y-110261500D02*
X132588000Y-111760000D01*
X191606000Y-59817000D02*
X189865000Y-59817000D01*
X143128000Y-92836000D02*
X143002000Y-92710000D01*
D50*
X188468000Y-64008000D02*
X188466000Y-64006000D01*
X197104000Y-80772000D02*
X197866000Y-80010000D01*
X188722000Y-75692000D02*
X186182000Y-73152000D01*
X197866000Y-80010000D02*
X197866000Y-77216000D01*
X196316500Y-82778500D02*
X196810773Y-83272773D01*
X186182000Y-68326000D02*
X185166000Y-67310000D01*
X196342000Y-75692000D02*
X188722000Y-75692000D01*
X186182000Y-73152000D02*
X186182000Y-68326000D01*
X196316500Y-80772000D02*
X197104000Y-80772000D01*
X197866000Y-77216000D02*
X196342000Y-75692000D01*
X196316500Y-80772000D02*
X196316500Y-82778500D01*
D49*
X160528000Y-138684000D02*
X161855000Y-137357000D01*
X161855000Y-137357000D02*
X181045000Y-137357000D01*
D50*
X185166000Y-67310000D02*
X185146000Y-67330000D01*
X185146000Y-67330000D02*
X183866000Y-67330000D01*
X181326000Y-67330000D02*
X183866000Y-67330000D01*
D49*
X181045000Y-137357000D02*
X183642000Y-139954000D01*
X155575000Y-117221000D02*
X161036000Y-111760000D01*
X117358492Y-126556749D02*
X118612252Y-126556749D01*
X163512000Y-77660000D02*
X168746000Y-77660000D01*
X118612252Y-126556749D02*
X118618000Y-126562497D01*
X161036000Y-69900000D02*
X161036000Y-75184000D01*
X161006000Y-69870000D02*
X161036000Y-69900000D01*
X161036000Y-75184000D02*
X163512000Y-77660000D01*
X161036000Y-77280500D02*
X161036000Y-75184000D01*
X161036000Y-111760000D02*
X161036000Y-81026500D01*
X117358492Y-122156750D02*
X118600750Y-122156750D01*
X118600750Y-122156750D02*
X118618000Y-122174000D01*
X158496000Y-77216000D02*
X158496000Y-76073000D01*
X158496000Y-110744000D02*
X158496000Y-80899000D01*
X158466000Y-75916000D02*
X158466000Y-76043000D01*
X161353000Y-78930000D02*
X168746000Y-78930000D01*
X158466000Y-76043000D02*
X161353000Y-78930000D01*
X158496000Y-76073000D02*
X158466000Y-76043000D01*
X155575000Y-113538000D02*
X155702000Y-113538000D01*
X155702000Y-113538000D02*
X158496000Y-110744000D01*
X158466000Y-69870000D02*
X158466000Y-75916000D01*
X168746000Y-80200000D02*
X159702000Y-80200000D01*
X156464000Y-76073000D02*
X156464000Y-109982000D01*
X159702000Y-80200000D02*
X156464000Y-76962000D01*
X155926000Y-71725000D02*
X156337000Y-72136000D01*
X118467252Y-124356748D02*
X118618000Y-124206000D01*
X156464000Y-109982000D02*
X156464000Y-110744000D01*
X156337000Y-72136000D02*
X156464000Y-72263000D01*
X156464000Y-72263000D02*
X156464000Y-76073000D01*
X155926000Y-69870000D02*
X155926000Y-71725000D01*
X117358492Y-124356748D02*
X118467252Y-124356748D01*
X156464000Y-76962000D02*
X156464000Y-76073000D01*
X165544000Y-76390000D02*
X168746000Y-76390000D01*
X161438450Y-68601450D02*
X162369000Y-69532000D01*
X157197450Y-68601450D02*
X161438450Y-68601450D01*
X155926000Y-67330000D02*
X157197450Y-68601450D01*
X162369000Y-73215000D02*
X165544000Y-76390000D01*
X162369000Y-69532000D02*
X162369000Y-73215000D01*
X154559000Y-110744000D02*
X154559000Y-120269000D01*
X154559000Y-75692000D02*
X154559000Y-110744000D01*
X154563000Y-75688000D02*
X154559000Y-75692000D01*
X154563000Y-68507000D02*
X154563000Y-75688000D01*
X153386000Y-67330000D02*
X154563000Y-68507000D01*
X154559000Y-120269000D02*
X154051000Y-120777000D01*
X117358492Y-127656749D02*
X118512749Y-127656749D01*
X118512749Y-127656749D02*
X118618000Y-127762000D01*
X185801000Y-111509650D02*
X186871500Y-111509650D01*
X186871500Y-111509650D02*
X187198000Y-111183150D01*
X139649200Y-93980000D02*
X139522200Y-93853000D01*
X141478000Y-93980000D02*
X139649200Y-93980000D01*
D50*
X193294000Y-82550000D02*
X193294000Y-80784500D01*
X195848000Y-78690000D02*
X195848000Y-79665500D01*
X195848000Y-79665500D02*
X194741500Y-80772000D01*
X193294000Y-80784500D02*
X193281500Y-80772000D01*
X194741500Y-80772000D02*
X193281500Y-80772000D01*
D49*
X191719000Y-82550000D02*
X190055000Y-82550000D01*
X190055000Y-82550000D02*
X189992000Y-82487000D01*
X193548000Y-78690000D02*
X193548000Y-77343000D01*
D50*
X196355000Y-72123000D02*
X196355000Y-70358000D01*
X196355000Y-69583000D02*
X196875500Y-69062500D01*
X191606000Y-62357000D02*
X191606000Y-62828000D01*
X196088000Y-72390000D02*
X193548000Y-72390000D01*
X196875500Y-64516000D02*
X196875500Y-63525500D01*
D49*
X193548000Y-77343000D02*
X192913000Y-76708000D01*
D50*
X196875500Y-63525500D02*
X196506000Y-63156000D01*
X191606000Y-62357000D02*
X191606000Y-62648000D01*
X191008000Y-63246000D02*
X189740000Y-63246000D01*
X196506000Y-63156000D02*
X196506000Y-62357000D01*
X192303500Y-63525500D02*
X196875500Y-63525500D01*
X191606000Y-62648000D02*
X191008000Y-63246000D01*
X196875500Y-69062500D02*
X196875500Y-64516000D01*
X196355000Y-70358000D02*
X196355000Y-69583000D01*
X191606000Y-62828000D02*
X192303500Y-63525500D01*
X196088000Y-72390000D02*
X196355000Y-72123000D01*
X189740000Y-63246000D02*
X189486000Y-62992000D01*
D49*
X176276000Y-79756000D02*
X176276000Y-78486000D01*
X173710000Y-82804000D02*
X173646000Y-82740000D01*
X176276000Y-82804000D02*
X173710000Y-82804000D01*
X176276000Y-81406000D02*
X176276000Y-82804000D01*
X173646000Y-84010000D02*
X172402000Y-84010000D01*
X194437000Y-58547000D02*
X194310000Y-58674000D01*
X171704000Y-83312000D02*
X171704000Y-74676000D01*
X171704000Y-74676000D02*
X172466000Y-73914000D01*
X172402000Y-84010000D02*
X171704000Y-83312000D01*
X172466000Y-73914000D02*
X176022000Y-73914000D01*
X196506000Y-58547000D02*
X194437000Y-58547000D01*
X128778000Y-130327500D02*
X128778000Y-131763000D01*
X132613500Y-108712000D02*
X132588000Y-108686500D01*
X132588000Y-108686500D02*
X132588000Y-106451500D01*
X135387000Y-108712000D02*
X132613500Y-108712000D01*
X134762800Y-92618000D02*
X134797800Y-92583000D01*
X132588000Y-91186000D02*
X132588000Y-92618000D01*
X132588000Y-92618000D02*
X134762800Y-92618000D01*
X132623000Y-93853000D02*
X132588000Y-93818000D01*
X132601000Y-95250000D02*
X132601000Y-93831000D01*
X132601000Y-93831000D02*
X132588000Y-93818000D01*
X134797800Y-93853000D02*
X132623000Y-93853000D01*
X140208000Y-89179500D02*
X140233500Y-89154000D01*
X140208000Y-90678000D02*
X140208000Y-89179500D01*
X140208000Y-91897200D02*
X140208000Y-90678000D01*
X139522200Y-92583000D02*
X140208000Y-91897200D01*
X136906000Y-96012000D02*
X136906000Y-97282000D01*
X132588000Y-104876500D02*
X132588000Y-101600000D01*
X136017000Y-95123000D02*
X136906000Y-96012000D01*
X134797800Y-95123000D02*
X136017000Y-95123000D01*
X136906000Y-97282000D02*
X132588000Y-101600000D01*
X140233500Y-87630000D02*
X141669000Y-87630000D01*
X180086000Y-112496500D02*
X178562000Y-112496500D01*
X181610000Y-112509000D02*
X180098500Y-112509000D01*
X183007000Y-112509651D02*
X181864651Y-112509651D01*
X180098500Y-112509000D02*
X180086000Y-112496500D01*
X180086000Y-114071500D02*
X180086000Y-115507000D01*
X195300500Y-64516000D02*
X193865000Y-64516000D01*
X127266500Y-125704500D02*
X127254000Y-125717000D01*
X125469748Y-125456748D02*
X117358492Y-125456748D01*
X128778000Y-125704500D02*
X127266500Y-125704500D01*
X125730000Y-125717000D02*
X125469748Y-125456748D01*
X127254000Y-125717000D02*
X125730000Y-125717000D01*
M02*
