G04 #@! TF.GenerationSoftware,KiCad,Pcbnew,(6.0.7-1)-1*
G04 #@! TF.CreationDate,2023-01-01T23:11:57-05:00*
G04 #@! TF.ProjectId,obc-db,6f62632d-6462-42e6-9b69-6361645f7063,rev?*
G04 #@! TF.SameCoordinates,Original*
G04 #@! TF.FileFunction,Soldermask,Top*
G04 #@! TF.FilePolarity,Negative*
%FSLAX46Y46*%
G04 Gerber Fmt 4.6, Leading zero omitted, Abs format (unit mm)*
G04 Created by KiCad (PCBNEW (6.0.7-1)-1) date 2023-01-01 23:11:57*
%MOMM*%
%LPD*%
G01*
G04 APERTURE LIST*
G04 Aperture macros list*
%AMRoundRect*
0 Rectangle with rounded corners*
0 $1 Rounding radius*
0 $2 $3 $4 $5 $6 $7 $8 $9 X,Y pos of 4 corners*
0 Add a 4 corners polygon primitive as box body*
4,1,4,$2,$3,$4,$5,$6,$7,$8,$9,$2,$3,0*
0 Add four circle primitives for the rounded corners*
1,1,$1+$1,$2,$3*
1,1,$1+$1,$4,$5*
1,1,$1+$1,$6,$7*
1,1,$1+$1,$8,$9*
0 Add four rect primitives between the rounded corners*
20,1,$1+$1,$2,$3,$4,$5,0*
20,1,$1+$1,$4,$5,$6,$7,0*
20,1,$1+$1,$6,$7,$8,$9,0*
20,1,$1+$1,$8,$9,$2,$3,0*%
G04 Aperture macros list end*
%ADD10RoundRect,0.218750X0.256250X-0.218750X0.256250X0.218750X-0.256250X0.218750X-0.256250X-0.218750X0*%
%ADD11RoundRect,0.135000X0.135000X0.185000X-0.135000X0.185000X-0.135000X-0.185000X0.135000X-0.185000X0*%
%ADD12C,6.400000*%
%ADD13C,3.600000*%
%ADD14R,1.500000X2.000000*%
%ADD15R,3.800000X2.000000*%
%ADD16RoundRect,0.200000X-0.275000X0.200000X-0.275000X-0.200000X0.275000X-0.200000X0.275000X0.200000X0*%
%ADD17R,2.000000X2.000000*%
%ADD18RoundRect,0.200000X0.200000X0.275000X-0.200000X0.275000X-0.200000X-0.275000X0.200000X-0.275000X0*%
%ADD19RoundRect,0.225000X0.225000X0.250000X-0.225000X0.250000X-0.225000X-0.250000X0.225000X-0.250000X0*%
%ADD20RoundRect,0.225000X-0.225000X-0.250000X0.225000X-0.250000X0.225000X0.250000X-0.225000X0.250000X0*%
%ADD21C,2.600000*%
%ADD22C,4.400000*%
%ADD23R,3.050000X4.570000*%
%ADD24R,1.700000X1.700000*%
%ADD25O,1.700000X1.700000*%
%ADD26C,2.159000*%
%ADD27R,0.812800X0.254000*%
%ADD28R,1.752600X1.549400*%
%ADD29RoundRect,0.225000X-0.250000X0.225000X-0.250000X-0.225000X0.250000X-0.225000X0.250000X0.225000X0*%
%ADD30RoundRect,0.350001X0.899999X0.000001X0.899999X-0.000001X-0.899999X-0.000001X-0.899999X0.000001X0*%
%ADD31R,1.981200X0.558800*%
%ADD32R,1.900000X0.700000*%
%ADD33R,1.600000X1.200000*%
%ADD34R,2.200000X1.200000*%
%ADD35R,1.400000X1.600000*%
%ADD36RoundRect,0.218750X-0.218750X-0.256250X0.218750X-0.256250X0.218750X0.256250X-0.218750X0.256250X0*%
%ADD37RoundRect,0.218750X0.218750X0.256250X-0.218750X0.256250X-0.218750X-0.256250X0.218750X-0.256250X0*%
%ADD38R,1.524000X1.524000*%
%ADD39C,1.524000*%
%ADD40RoundRect,0.200000X-0.200000X-0.275000X0.200000X-0.275000X0.200000X0.275000X-0.200000X0.275000X0*%
%ADD41R,1.200000X0.600000*%
G04 APERTURE END LIST*
D10*
X130750000Y-133937500D03*
X130750000Y-132362500D03*
D11*
X189486000Y-62992000D03*
X188466000Y-62992000D03*
D12*
X191770000Y-52070000D03*
D13*
X191770000Y-52070000D03*
D10*
X180086000Y-114071500D03*
X180086000Y-112496500D03*
D14*
X191248000Y-78690000D03*
X193548000Y-78690000D03*
D15*
X193548000Y-72390000D03*
D14*
X195848000Y-78690000D03*
D16*
X189992000Y-82487000D03*
X189992000Y-84137000D03*
D17*
X164084000Y-138684000D03*
D18*
X193865000Y-64516000D03*
X192215000Y-64516000D03*
D19*
X196355000Y-70358000D03*
X194805000Y-70358000D03*
D13*
X118110000Y-52070000D03*
D12*
X118110000Y-52070000D03*
D18*
X139001000Y-61976000D03*
X137351000Y-61976000D03*
D20*
X131051000Y-95250000D03*
X132601000Y-95250000D03*
D21*
X188976000Y-117602000D03*
D22*
X188976000Y-117602000D03*
D23*
X135387000Y-108712000D03*
X165857000Y-108712000D03*
D24*
X196088000Y-108077000D03*
D25*
X196088000Y-110617000D03*
X196088000Y-113157000D03*
X196088000Y-115697000D03*
D26*
X183642000Y-139954000D03*
X178891999Y-139954000D03*
X174141999Y-139954000D03*
D27*
X185801000Y-112509651D03*
X185801000Y-112009650D03*
X185801000Y-111509650D03*
X185801000Y-111009649D03*
X183007000Y-111009649D03*
X183007000Y-111509650D03*
X183007000Y-112009650D03*
X183007000Y-112509651D03*
D28*
X184404000Y-111759650D03*
D18*
X143128000Y-93980000D03*
X141478000Y-93980000D03*
D29*
X129226000Y-129327000D03*
X129226000Y-130877000D03*
D12*
X114300000Y-137795000D03*
D13*
X114300000Y-137795000D03*
D16*
X176276000Y-79756000D03*
X176276000Y-81406000D03*
D24*
X183866000Y-69870000D03*
D25*
X183866000Y-67330000D03*
X181326000Y-69870000D03*
X181326000Y-67330000D03*
X178786000Y-69870000D03*
X178786000Y-67330000D03*
X176246000Y-69870000D03*
X176246000Y-67330000D03*
X173706000Y-69870000D03*
X173706000Y-67330000D03*
X171166000Y-69870000D03*
X171166000Y-67330000D03*
X168626000Y-69870000D03*
X168626000Y-67330000D03*
X166086000Y-69870000D03*
X166086000Y-67330000D03*
X163546000Y-69870000D03*
X163546000Y-67330000D03*
X161006000Y-69870000D03*
X161006000Y-67330000D03*
X158466000Y-69870000D03*
X158466000Y-67330000D03*
X155926000Y-69870000D03*
X155926000Y-67330000D03*
X153386000Y-69870000D03*
X153386000Y-67330000D03*
X150846000Y-69870000D03*
X150846000Y-67330000D03*
X148306000Y-69870000D03*
X148306000Y-67330000D03*
X145766000Y-69870000D03*
X145766000Y-67330000D03*
X143226000Y-69870000D03*
X143226000Y-67330000D03*
X140686000Y-69870000D03*
X140686000Y-67330000D03*
X138146000Y-69870000D03*
X138146000Y-67330000D03*
X135606000Y-69870000D03*
X135606000Y-67330000D03*
D29*
X127702000Y-129327000D03*
X127702000Y-130877000D03*
D20*
X131038000Y-91186000D03*
X132588000Y-91186000D03*
D30*
X196506000Y-62357000D03*
X196506000Y-61087000D03*
X196506000Y-59817000D03*
X196506000Y-58547000D03*
X191606000Y-58547000D03*
X191606000Y-59817000D03*
X191606000Y-61087000D03*
X191606000Y-62357000D03*
D10*
X132588000Y-110261500D03*
X132588000Y-108686500D03*
D31*
X134797800Y-92583000D03*
X134797800Y-93853000D03*
X134797800Y-95123000D03*
X134797800Y-96393000D03*
X139522200Y-96393000D03*
X139522200Y-95123000D03*
X139522200Y-93853000D03*
X139522200Y-92583000D03*
D24*
X184113000Y-102845000D03*
D25*
X186653000Y-102845000D03*
X184113000Y-100305000D03*
X186653000Y-100305000D03*
X184113000Y-97765000D03*
X186653000Y-97765000D03*
X184113000Y-95225000D03*
X186653000Y-95225000D03*
X184113000Y-92685000D03*
X186653000Y-92685000D03*
X184113000Y-90145000D03*
X186653000Y-90145000D03*
D21*
X130810000Y-68580000D03*
D22*
X130810000Y-68580000D03*
D10*
X130750000Y-130889500D03*
X130750000Y-129314500D03*
X178562000Y-114071500D03*
X178562000Y-112496500D03*
D32*
X124410000Y-128005000D03*
X124410000Y-126905000D03*
X124410000Y-125805000D03*
X124410000Y-124705000D03*
X124410000Y-123605000D03*
X124410000Y-122505000D03*
X124410000Y-121405000D03*
X124410000Y-120305000D03*
X124410000Y-119205000D03*
D33*
X123658000Y-118005000D03*
D34*
X114158000Y-118005000D03*
X114158000Y-133505000D03*
D35*
X123758000Y-132605000D03*
D17*
X156972000Y-138684000D03*
D36*
X191719000Y-82550000D03*
X193294000Y-82550000D03*
D22*
X130810000Y-117602000D03*
D21*
X130810000Y-117602000D03*
D37*
X140233500Y-87630000D03*
X138658500Y-87630000D03*
D38*
X186690000Y-52070000D03*
D39*
X186690000Y-54610000D03*
X184150000Y-52070000D03*
X184150000Y-54610000D03*
X181610000Y-52070000D03*
X181610000Y-54610000D03*
X179070000Y-52070000D03*
X179070000Y-54610000D03*
X176530000Y-52070000D03*
X176530000Y-54610000D03*
X173990000Y-52070000D03*
X173990000Y-54610000D03*
X171450000Y-52070000D03*
X171450000Y-54610000D03*
X168910000Y-52070000D03*
X168910000Y-54610000D03*
X166370000Y-52070000D03*
X166370000Y-54610000D03*
X163830000Y-52070000D03*
X163830000Y-54610000D03*
X161290000Y-52070000D03*
X161290000Y-54610000D03*
X158750000Y-52070000D03*
X158750000Y-54610000D03*
X156210000Y-52070000D03*
X156210000Y-54610000D03*
X153670000Y-52070000D03*
X153670000Y-54610000D03*
X151130000Y-52070000D03*
X151130000Y-54610000D03*
X148590000Y-52070000D03*
X148590000Y-54610000D03*
X146050000Y-52070000D03*
X146050000Y-54610000D03*
X143510000Y-52070000D03*
X143510000Y-54610000D03*
X140970000Y-52070000D03*
X140970000Y-54610000D03*
X138430000Y-52070000D03*
X138430000Y-54610000D03*
X135890000Y-52070000D03*
X135890000Y-54610000D03*
X133350000Y-52070000D03*
X133350000Y-54610000D03*
X130810000Y-52070000D03*
X130810000Y-54610000D03*
X128270000Y-52070000D03*
X128270000Y-54610000D03*
X125730000Y-52070000D03*
X125730000Y-54610000D03*
X123190000Y-52070000D03*
X123190000Y-54610000D03*
X186690000Y-57150000D03*
X186690000Y-59690000D03*
X184150000Y-57150000D03*
X184150000Y-59690000D03*
X181610000Y-57150000D03*
X181610000Y-59690000D03*
X179070000Y-57150000D03*
X179070000Y-59690000D03*
X176530000Y-57150000D03*
X176530000Y-59690000D03*
X173990000Y-57150000D03*
X173990000Y-59690000D03*
X171450000Y-57150000D03*
X171450000Y-59690000D03*
X168910000Y-57150000D03*
X168910000Y-59690000D03*
X166370000Y-57150000D03*
X166370000Y-59690000D03*
X163830000Y-57150000D03*
X163830000Y-59690000D03*
X161290000Y-57150000D03*
X161290000Y-59690000D03*
X158750000Y-57150000D03*
X158750000Y-59690000D03*
X156210000Y-57150000D03*
X156210000Y-59690000D03*
X153670000Y-57150000D03*
X153670000Y-59690000D03*
X151130000Y-57150000D03*
X151130000Y-59690000D03*
X148590000Y-57150000D03*
X148590000Y-59690000D03*
X146050000Y-57150000D03*
X146050000Y-59690000D03*
X143510000Y-57150000D03*
X143510000Y-59690000D03*
X140970000Y-57150000D03*
X140970000Y-59690000D03*
X138430000Y-57150000D03*
X138430000Y-59690000D03*
X135890000Y-57150000D03*
X135890000Y-59690000D03*
X133350000Y-57150000D03*
X133350000Y-59690000D03*
X130810000Y-57150000D03*
X130810000Y-59690000D03*
X128270000Y-57150000D03*
X128270000Y-59690000D03*
X125730000Y-57150000D03*
X125730000Y-59690000D03*
X123190000Y-57150000D03*
X123190000Y-59690000D03*
D30*
X173646000Y-84010000D03*
X173646000Y-82740000D03*
X173646000Y-81470000D03*
X173646000Y-80200000D03*
X173646000Y-78930000D03*
X173646000Y-77660000D03*
X173646000Y-76390000D03*
X173646000Y-75120000D03*
X168746000Y-75120000D03*
X168746000Y-76390000D03*
X168746000Y-77660000D03*
X168746000Y-78930000D03*
X168746000Y-80200000D03*
X168746000Y-81470000D03*
X168746000Y-82740000D03*
X168746000Y-84010000D03*
D36*
X194741500Y-80772000D03*
X196316500Y-80772000D03*
D16*
X130750000Y-135373000D03*
X130750000Y-137023000D03*
D40*
X132779000Y-61976000D03*
X134429000Y-61976000D03*
D22*
X188976000Y-68580000D03*
D21*
X188976000Y-68580000D03*
D29*
X181610000Y-112509000D03*
X181610000Y-114059000D03*
D36*
X138658500Y-89154000D03*
X140233500Y-89154000D03*
D17*
X160528000Y-138684000D03*
D40*
X141669000Y-87630000D03*
X143319000Y-87630000D03*
D41*
X132588000Y-92618000D03*
X132588000Y-93818000D03*
D16*
X180086000Y-115507000D03*
X180086000Y-117157000D03*
D13*
X194310000Y-137795000D03*
D12*
X194310000Y-137795000D03*
D10*
X132588000Y-106451500D03*
X132588000Y-104876500D03*
D16*
X176276000Y-82804000D03*
X176276000Y-84454000D03*
D20*
X138658000Y-90678000D03*
X140208000Y-90678000D03*
D24*
X196088000Y-119380000D03*
D25*
X196088000Y-121920000D03*
X196088000Y-124460000D03*
X196088000Y-127000000D03*
D20*
X191731500Y-80772000D03*
X193281500Y-80772000D03*
D36*
X195300500Y-64516000D03*
X196875500Y-64516000D03*
M02*
