%TF.GenerationSoftware,KiCad,Pcbnew,(6.0.7)*%
%TF.CreationDate,2022-12-20T16:15:47-05:00*%
%TF.ProjectId,obc-db,6f62632d-6462-42e6-9b69-6361645f7063,rev?*%
%TF.SameCoordinates,Original*%
%TF.FileFunction,Drillmap*%
%TF.FilePolarity,Positive*%
%FSLAX45Y45*%
G04 Gerber Fmt 4.5, Leading zero omitted, Abs format (unit mm)*
G04 Created by KiCad (PCBNEW (6.0.7)) date 2022-12-20 16:15:47*
%MOMM*%
%LPD*%
G01*
G04 APERTURE LIST*
%ADD10C,0.100000*%
%ADD11C,0.200000*%
%ADD12C,0.060000*%
%ADD13C,0.165100*%
%ADD14C,0.220000*%
%ADD15C,0.320000*%
G04 APERTURE END LIST*
D10*
X11430000Y-4699000D02*
G75*
G03*
X10922000Y-5207000I0J-508000D01*
G01*
X14546120Y-4813300D02*
G75*
G03*
X14431822Y-4699000I-114300J0D01*
G01*
X19939000Y-8356600D02*
X19939000Y-5207000D01*
X11150600Y-8559800D02*
G75*
G03*
X11036300Y-8445500I-114300J0D01*
G01*
X11036300Y-10532920D02*
G75*
G03*
X10922000Y-10647222I0J-114300D01*
G01*
X14660422Y-4927600D02*
X16459200Y-4927600D01*
X19431000Y-14287500D02*
G75*
G03*
X19939000Y-13779500I0J508000D01*
G01*
X19824700Y-8470900D02*
G75*
G03*
X19939000Y-8356600I0J114300D01*
G01*
X11430000Y-4699000D02*
X14431822Y-4699000D01*
X10922000Y-10647222D02*
X10922000Y-13779500D01*
X16459200Y-4927600D02*
G75*
G03*
X16573500Y-4813300I0J114300D01*
G01*
X19824700Y-8470900D02*
G75*
G03*
X19710400Y-8585200I0J-114300D01*
G01*
X16687800Y-4699000D02*
G75*
G03*
X16573500Y-4813300I0J-114300D01*
G01*
X16687800Y-4699000D02*
X19431000Y-4699000D01*
X16598900Y-14173200D02*
G75*
G03*
X16713200Y-14287500I114300J0D01*
G01*
X19710400Y-10439400D02*
G75*
G03*
X19824700Y-10553700I114300J0D01*
G01*
X16713200Y-14287500D02*
X19431000Y-14287500D01*
X19710400Y-10439400D02*
X19710400Y-8585200D01*
X19939000Y-13779500D02*
X19939000Y-10668000D01*
X11430000Y-14287500D02*
X14376400Y-14287500D01*
X14592300Y-14071600D02*
X16497300Y-14071600D01*
X14592300Y-14071600D02*
G75*
G03*
X14490700Y-14173200I0J-101600D01*
G01*
X16598900Y-14173200D02*
G75*
G03*
X16497300Y-14071600I-101600J0D01*
G01*
X14376400Y-14287500D02*
G75*
G03*
X14490700Y-14173200I0J114300D01*
G01*
X19939000Y-10668000D02*
G75*
G03*
X19824700Y-10553700I-114300J0D01*
G01*
X14546120Y-4813300D02*
G75*
G03*
X14660422Y-4927600I114300J0D01*
G01*
X11150600Y-8559800D02*
X11150600Y-10418622D01*
X11036300Y-10532920D02*
G75*
G03*
X11150600Y-10418622I0J114300D01*
G01*
X10922000Y-5207000D02*
X10922000Y-8331200D01*
X10922000Y-13779500D02*
G75*
G03*
X11430000Y-14287500I508000J0D01*
G01*
X19939000Y-5207000D02*
G75*
G03*
X19431000Y-4699000I-508000J0D01*
G01*
X10922000Y-8331200D02*
G75*
G03*
X11036300Y-8445500I114300J0D01*
G01*
D11*
D12*
X11146000Y-13330400D02*
X11206000Y-13390400D01*
X11206000Y-13330400D02*
X11146000Y-13390400D01*
X11171400Y-11984200D02*
X11231400Y-12044200D01*
X11231400Y-11984200D02*
X11171400Y-12044200D01*
X11577800Y-12314400D02*
X11637800Y-12374400D01*
X11637800Y-12314400D02*
X11577800Y-12374400D01*
X11730200Y-11831800D02*
X11790200Y-11891800D01*
X11790200Y-11831800D02*
X11730200Y-11891800D01*
X11831800Y-12187400D02*
X11891800Y-12247400D01*
X11891800Y-12187400D02*
X11831800Y-12247400D01*
X11831800Y-12390600D02*
X11891800Y-12450600D01*
X11891800Y-12390600D02*
X11831800Y-12450600D01*
X11831800Y-12626250D02*
X11891800Y-12686250D01*
X11891800Y-12626250D02*
X11831800Y-12686250D01*
X11831800Y-12746200D02*
X11891800Y-12806200D01*
X11891800Y-12746200D02*
X11831800Y-12806200D01*
X11882600Y-13330400D02*
X11942600Y-13390400D01*
X11942600Y-13330400D02*
X11882600Y-13390400D01*
X11908000Y-11831800D02*
X11968000Y-11891800D01*
X11968000Y-11831800D02*
X11908000Y-11891800D01*
X12263600Y-11831800D02*
X12323600Y-11891800D01*
X12323600Y-11831800D02*
X12263600Y-11891800D01*
X12543000Y-12822400D02*
X12603000Y-12882400D01*
X12603000Y-12822400D02*
X12543000Y-12882400D01*
X12543000Y-13305000D02*
X12603000Y-13365000D01*
X12603000Y-13305000D02*
X12543000Y-13365000D01*
X12695400Y-12822400D02*
X12755400Y-12882400D01*
X12755400Y-12822400D02*
X12695400Y-12882400D01*
X13000200Y-12695400D02*
X13060200Y-12755400D01*
X13060200Y-12695400D02*
X13000200Y-12755400D01*
X13000200Y-12847800D02*
X13060200Y-12907800D01*
X13060200Y-12847800D02*
X13000200Y-12907800D01*
X13000200Y-13305000D02*
X13060200Y-13365000D01*
X13060200Y-13305000D02*
X13000200Y-13365000D01*
X13051000Y-8961600D02*
X13111000Y-9021600D01*
X13111000Y-8961600D02*
X13051000Y-9021600D01*
X13051000Y-9647400D02*
X13111000Y-9707400D01*
X13111000Y-9647400D02*
X13051000Y-9707400D01*
X13101800Y-11146000D02*
X13161800Y-11206000D01*
X13161800Y-11146000D02*
X13101800Y-11206000D01*
X13203400Y-6294600D02*
X13263400Y-6354600D01*
X13263400Y-6294600D02*
X13203400Y-6354600D01*
X13216100Y-8936200D02*
X13276100Y-8996200D01*
X13276100Y-8936200D02*
X13216100Y-8996200D01*
X13228800Y-9647400D02*
X13288800Y-9707400D01*
X13288800Y-9647400D02*
X13228800Y-9707400D01*
X13228800Y-11146000D02*
X13288800Y-11206000D01*
X13288800Y-11146000D02*
X13228800Y-11206000D01*
X13317700Y-6415150D02*
X13377700Y-6475150D01*
X13377700Y-6415150D02*
X13317700Y-6475150D01*
X13622500Y-6415150D02*
X13682500Y-6475150D01*
X13682500Y-6415150D02*
X13622500Y-6475150D01*
X13711400Y-8707600D02*
X13771400Y-8767600D01*
X13771400Y-8707600D02*
X13711400Y-8767600D01*
X13711400Y-8885400D02*
X13771400Y-8945400D01*
X13771400Y-8885400D02*
X13711400Y-8945400D01*
X13711400Y-9088600D02*
X13771400Y-9148600D01*
X13771400Y-9088600D02*
X13711400Y-9148600D01*
X13743250Y-9597336D02*
X13803250Y-9657336D01*
X13803250Y-9597336D02*
X13743250Y-9657336D01*
X13990800Y-6167600D02*
X14050800Y-6227600D01*
X14050800Y-6167600D02*
X13990800Y-6227600D01*
X14270200Y-9241000D02*
X14330200Y-9301000D01*
X14330200Y-9241000D02*
X14270200Y-9301000D01*
X14295600Y-8860000D02*
X14355600Y-8920000D01*
X14355600Y-8860000D02*
X14295600Y-8920000D01*
X15375100Y-12047700D02*
X15435100Y-12107700D01*
X15435100Y-12047700D02*
X15375100Y-12107700D01*
X15438600Y-13940000D02*
X15498600Y-14000000D01*
X15498600Y-13940000D02*
X15438600Y-14000000D01*
X15527500Y-11323800D02*
X15587500Y-11383800D01*
X15587500Y-11323800D02*
X15527500Y-11383800D01*
X15527500Y-11692100D02*
X15587500Y-11752100D01*
X15587500Y-11692100D02*
X15527500Y-11752100D01*
X15616400Y-11044400D02*
X15676400Y-11104400D01*
X15676400Y-11044400D02*
X15616400Y-11104400D01*
X15819600Y-7691600D02*
X15879600Y-7751600D01*
X15879600Y-7691600D02*
X15819600Y-7751600D01*
X15819600Y-8059900D02*
X15879600Y-8119900D01*
X15879600Y-8059900D02*
X15819600Y-8119900D01*
X16073600Y-7698050D02*
X16133600Y-7758050D01*
X16133600Y-7698050D02*
X16073600Y-7758050D01*
X16073600Y-8072650D02*
X16133600Y-8132650D01*
X16133600Y-8072650D02*
X16073600Y-8132650D01*
X16607000Y-7488400D02*
X16667000Y-7548400D01*
X16667000Y-7488400D02*
X16607000Y-7548400D01*
X16607000Y-8123400D02*
X16667000Y-8183400D01*
X16667000Y-8123400D02*
X16607000Y-8183400D01*
X16607000Y-8250400D02*
X16667000Y-8310400D01*
X16667000Y-8250400D02*
X16607000Y-8310400D01*
X16607000Y-8377400D02*
X16667000Y-8437400D01*
X16667000Y-8377400D02*
X16607000Y-8437400D01*
X16607000Y-13940000D02*
X16667000Y-14000000D01*
X16667000Y-13940000D02*
X16607000Y-14000000D01*
X16726358Y-6286958D02*
X16786358Y-6346958D01*
X16786358Y-6286958D02*
X16726358Y-6346958D01*
X16734000Y-4770600D02*
X16794000Y-4830600D01*
X16794000Y-4770600D02*
X16734000Y-4830600D01*
X16797500Y-10701500D02*
X16857500Y-10761500D01*
X16857500Y-10701500D02*
X16797500Y-10761500D01*
X16797500Y-10841200D02*
X16857500Y-10901200D01*
X16857500Y-10841200D02*
X16797500Y-10901200D01*
X16797500Y-10980900D02*
X16857500Y-11040900D01*
X16857500Y-10980900D02*
X16797500Y-11040900D01*
X16988000Y-6212000D02*
X17048000Y-6272000D01*
X17048000Y-6212000D02*
X16988000Y-6272000D01*
X17572200Y-7361400D02*
X17632200Y-7421400D01*
X17632200Y-7361400D02*
X17572200Y-7421400D01*
X17597600Y-7818600D02*
X17657600Y-7878600D01*
X17657600Y-7818600D02*
X17597600Y-7878600D01*
X17597600Y-8536100D02*
X17657600Y-8596100D01*
X17657600Y-8536100D02*
X17597600Y-8596100D01*
X17826200Y-11527000D02*
X17886200Y-11587000D01*
X17886200Y-11527000D02*
X17826200Y-11587000D01*
X17978600Y-11806400D02*
X18038600Y-11866400D01*
X18038600Y-11806400D02*
X17978600Y-11866400D01*
X18131000Y-10003000D02*
X18191000Y-10063000D01*
X18191000Y-10003000D02*
X18131000Y-10063000D01*
X18131000Y-10257000D02*
X18191000Y-10317000D01*
X18191000Y-10257000D02*
X18131000Y-10317000D01*
X18131000Y-11527000D02*
X18191000Y-11587000D01*
X18191000Y-11527000D02*
X18131000Y-11587000D01*
X18181800Y-6415150D02*
X18241800Y-6475150D01*
X18241800Y-6415150D02*
X18181800Y-6475150D01*
X18283400Y-10968200D02*
X18343400Y-11028200D01*
X18343400Y-10968200D02*
X18283400Y-11028200D01*
X18461200Y-11349200D02*
X18521200Y-11409200D01*
X18521200Y-11349200D02*
X18461200Y-11409200D01*
X18562800Y-10968200D02*
X18622800Y-11028200D01*
X18622800Y-10968200D02*
X18562800Y-11028200D01*
X18613600Y-6269200D02*
X18673600Y-6329200D01*
X18673600Y-6269200D02*
X18613600Y-6329200D01*
X18613600Y-6370800D02*
X18673600Y-6430800D01*
X18673600Y-6370800D02*
X18613600Y-6430800D01*
X18689800Y-11088315D02*
X18749800Y-11148315D01*
X18749800Y-11088315D02*
X18689800Y-11148315D01*
X18715200Y-6370800D02*
X18775200Y-6430800D01*
X18775200Y-6370800D02*
X18715200Y-6430800D01*
X18715200Y-11253615D02*
X18775200Y-11313615D01*
X18775200Y-11253615D02*
X18715200Y-11313615D01*
X18816800Y-6370800D02*
X18876800Y-6430800D01*
X18876800Y-6370800D02*
X18816800Y-6430800D01*
X18829500Y-8390100D02*
X18889500Y-8450100D01*
X18889500Y-8390100D02*
X18829500Y-8450100D01*
X18842200Y-10003000D02*
X18902200Y-10063000D01*
X18902200Y-10003000D02*
X18842200Y-10063000D01*
X18905700Y-7831300D02*
X18965700Y-7891300D01*
X18965700Y-7831300D02*
X18905700Y-7891300D01*
X19017450Y-8047200D02*
X19077450Y-8107200D01*
X19077450Y-8047200D02*
X19017450Y-8107200D01*
X19070800Y-6421600D02*
X19130800Y-6481600D01*
X19130800Y-6421600D02*
X19070800Y-6481600D01*
X19261300Y-7640800D02*
X19321300Y-7700800D01*
X19321300Y-7640800D02*
X19261300Y-7700800D01*
X19299400Y-10663400D02*
X19359400Y-10723400D01*
X19359400Y-10663400D02*
X19299400Y-10723400D01*
X19299400Y-10942800D02*
X19359400Y-11002800D01*
X19359400Y-10942800D02*
X19299400Y-11002800D01*
X19299400Y-11755600D02*
X19359400Y-11815600D01*
X19359400Y-11755600D02*
X19299400Y-11815600D01*
X19299400Y-12009600D02*
X19359400Y-12069600D01*
X19359400Y-12009600D02*
X19299400Y-12069600D01*
X19401000Y-5837400D02*
X19461000Y-5897400D01*
X19461000Y-5837400D02*
X19401000Y-5897400D01*
X19426400Y-5989800D02*
X19486400Y-6049800D01*
X19486400Y-5989800D02*
X19426400Y-6049800D01*
X19451800Y-6878800D02*
X19511800Y-6938800D01*
X19511800Y-6878800D02*
X19451800Y-6938800D01*
X19651077Y-8297277D02*
X19711077Y-8357277D01*
X19711077Y-8297277D02*
X19651077Y-8357277D01*
D10*
X12369000Y-5207000D02*
G75*
G03*
X12369000Y-5207000I-50000J0D01*
G01*
X12369000Y-5461000D02*
G75*
G03*
X12369000Y-5461000I-50000J0D01*
G01*
X12369000Y-5715000D02*
G75*
G03*
X12369000Y-5715000I-50000J0D01*
G01*
X12369000Y-5969000D02*
G75*
G03*
X12369000Y-5969000I-50000J0D01*
G01*
X12623000Y-5207000D02*
G75*
G03*
X12623000Y-5207000I-50000J0D01*
G01*
X12623000Y-5461000D02*
G75*
G03*
X12623000Y-5461000I-50000J0D01*
G01*
X12623000Y-5715000D02*
G75*
G03*
X12623000Y-5715000I-50000J0D01*
G01*
X12623000Y-5969000D02*
G75*
G03*
X12623000Y-5969000I-50000J0D01*
G01*
X12877000Y-5207000D02*
G75*
G03*
X12877000Y-5207000I-50000J0D01*
G01*
X12877000Y-5461000D02*
G75*
G03*
X12877000Y-5461000I-50000J0D01*
G01*
X12877000Y-5715000D02*
G75*
G03*
X12877000Y-5715000I-50000J0D01*
G01*
X12877000Y-5969000D02*
G75*
G03*
X12877000Y-5969000I-50000J0D01*
G01*
X13131000Y-5207000D02*
G75*
G03*
X13131000Y-5207000I-50000J0D01*
G01*
X13131000Y-5461000D02*
G75*
G03*
X13131000Y-5461000I-50000J0D01*
G01*
X13131000Y-5715000D02*
G75*
G03*
X13131000Y-5715000I-50000J0D01*
G01*
X13131000Y-5969000D02*
G75*
G03*
X13131000Y-5969000I-50000J0D01*
G01*
X13385000Y-5207000D02*
G75*
G03*
X13385000Y-5207000I-50000J0D01*
G01*
X13385000Y-5461000D02*
G75*
G03*
X13385000Y-5461000I-50000J0D01*
G01*
X13385000Y-5715000D02*
G75*
G03*
X13385000Y-5715000I-50000J0D01*
G01*
X13385000Y-5969000D02*
G75*
G03*
X13385000Y-5969000I-50000J0D01*
G01*
X13610600Y-6733000D02*
G75*
G03*
X13610600Y-6733000I-50000J0D01*
G01*
X13610600Y-6987000D02*
G75*
G03*
X13610600Y-6987000I-50000J0D01*
G01*
X13639000Y-5207000D02*
G75*
G03*
X13639000Y-5207000I-50000J0D01*
G01*
X13639000Y-5461000D02*
G75*
G03*
X13639000Y-5461000I-50000J0D01*
G01*
X13639000Y-5715000D02*
G75*
G03*
X13639000Y-5715000I-50000J0D01*
G01*
X13639000Y-5969000D02*
G75*
G03*
X13639000Y-5969000I-50000J0D01*
G01*
X13864600Y-6733000D02*
G75*
G03*
X13864600Y-6733000I-50000J0D01*
G01*
X13864600Y-6987000D02*
G75*
G03*
X13864600Y-6987000I-50000J0D01*
G01*
X13893000Y-5207000D02*
G75*
G03*
X13893000Y-5207000I-50000J0D01*
G01*
X13893000Y-5461000D02*
G75*
G03*
X13893000Y-5461000I-50000J0D01*
G01*
X13893000Y-5715000D02*
G75*
G03*
X13893000Y-5715000I-50000J0D01*
G01*
X13893000Y-5969000D02*
G75*
G03*
X13893000Y-5969000I-50000J0D01*
G01*
X14118600Y-6733000D02*
G75*
G03*
X14118600Y-6733000I-50000J0D01*
G01*
X14118600Y-6987000D02*
G75*
G03*
X14118600Y-6987000I-50000J0D01*
G01*
X14147000Y-5207000D02*
G75*
G03*
X14147000Y-5207000I-50000J0D01*
G01*
X14147000Y-5461000D02*
G75*
G03*
X14147000Y-5461000I-50000J0D01*
G01*
X14147000Y-5715000D02*
G75*
G03*
X14147000Y-5715000I-50000J0D01*
G01*
X14147000Y-5969000D02*
G75*
G03*
X14147000Y-5969000I-50000J0D01*
G01*
X14372600Y-6733000D02*
G75*
G03*
X14372600Y-6733000I-50000J0D01*
G01*
X14372600Y-6987000D02*
G75*
G03*
X14372600Y-6987000I-50000J0D01*
G01*
X14401000Y-5207000D02*
G75*
G03*
X14401000Y-5207000I-50000J0D01*
G01*
X14401000Y-5461000D02*
G75*
G03*
X14401000Y-5461000I-50000J0D01*
G01*
X14401000Y-5715000D02*
G75*
G03*
X14401000Y-5715000I-50000J0D01*
G01*
X14401000Y-5969000D02*
G75*
G03*
X14401000Y-5969000I-50000J0D01*
G01*
X14626600Y-6733000D02*
G75*
G03*
X14626600Y-6733000I-50000J0D01*
G01*
X14626600Y-6987000D02*
G75*
G03*
X14626600Y-6987000I-50000J0D01*
G01*
X14655000Y-5207000D02*
G75*
G03*
X14655000Y-5207000I-50000J0D01*
G01*
X14655000Y-5461000D02*
G75*
G03*
X14655000Y-5461000I-50000J0D01*
G01*
X14655000Y-5715000D02*
G75*
G03*
X14655000Y-5715000I-50000J0D01*
G01*
X14655000Y-5969000D02*
G75*
G03*
X14655000Y-5969000I-50000J0D01*
G01*
X14880600Y-6733000D02*
G75*
G03*
X14880600Y-6733000I-50000J0D01*
G01*
X14880600Y-6987000D02*
G75*
G03*
X14880600Y-6987000I-50000J0D01*
G01*
X14909000Y-5207000D02*
G75*
G03*
X14909000Y-5207000I-50000J0D01*
G01*
X14909000Y-5461000D02*
G75*
G03*
X14909000Y-5461000I-50000J0D01*
G01*
X14909000Y-5715000D02*
G75*
G03*
X14909000Y-5715000I-50000J0D01*
G01*
X14909000Y-5969000D02*
G75*
G03*
X14909000Y-5969000I-50000J0D01*
G01*
X15134600Y-6733000D02*
G75*
G03*
X15134600Y-6733000I-50000J0D01*
G01*
X15134600Y-6987000D02*
G75*
G03*
X15134600Y-6987000I-50000J0D01*
G01*
X15163000Y-5207000D02*
G75*
G03*
X15163000Y-5207000I-50000J0D01*
G01*
X15163000Y-5461000D02*
G75*
G03*
X15163000Y-5461000I-50000J0D01*
G01*
X15163000Y-5715000D02*
G75*
G03*
X15163000Y-5715000I-50000J0D01*
G01*
X15163000Y-5969000D02*
G75*
G03*
X15163000Y-5969000I-50000J0D01*
G01*
X15388600Y-6733000D02*
G75*
G03*
X15388600Y-6733000I-50000J0D01*
G01*
X15388600Y-6987000D02*
G75*
G03*
X15388600Y-6987000I-50000J0D01*
G01*
X15417000Y-5207000D02*
G75*
G03*
X15417000Y-5207000I-50000J0D01*
G01*
X15417000Y-5461000D02*
G75*
G03*
X15417000Y-5461000I-50000J0D01*
G01*
X15417000Y-5715000D02*
G75*
G03*
X15417000Y-5715000I-50000J0D01*
G01*
X15417000Y-5969000D02*
G75*
G03*
X15417000Y-5969000I-50000J0D01*
G01*
X15642600Y-6733000D02*
G75*
G03*
X15642600Y-6733000I-50000J0D01*
G01*
X15642600Y-6987000D02*
G75*
G03*
X15642600Y-6987000I-50000J0D01*
G01*
X15671000Y-5207000D02*
G75*
G03*
X15671000Y-5207000I-50000J0D01*
G01*
X15671000Y-5461000D02*
G75*
G03*
X15671000Y-5461000I-50000J0D01*
G01*
X15671000Y-5715000D02*
G75*
G03*
X15671000Y-5715000I-50000J0D01*
G01*
X15671000Y-5969000D02*
G75*
G03*
X15671000Y-5969000I-50000J0D01*
G01*
X15896600Y-6733000D02*
G75*
G03*
X15896600Y-6733000I-50000J0D01*
G01*
X15896600Y-6987000D02*
G75*
G03*
X15896600Y-6987000I-50000J0D01*
G01*
X15925000Y-5207000D02*
G75*
G03*
X15925000Y-5207000I-50000J0D01*
G01*
X15925000Y-5461000D02*
G75*
G03*
X15925000Y-5461000I-50000J0D01*
G01*
X15925000Y-5715000D02*
G75*
G03*
X15925000Y-5715000I-50000J0D01*
G01*
X15925000Y-5969000D02*
G75*
G03*
X15925000Y-5969000I-50000J0D01*
G01*
X16150600Y-6733000D02*
G75*
G03*
X16150600Y-6733000I-50000J0D01*
G01*
X16150600Y-6987000D02*
G75*
G03*
X16150600Y-6987000I-50000J0D01*
G01*
X16179000Y-5207000D02*
G75*
G03*
X16179000Y-5207000I-50000J0D01*
G01*
X16179000Y-5461000D02*
G75*
G03*
X16179000Y-5461000I-50000J0D01*
G01*
X16179000Y-5715000D02*
G75*
G03*
X16179000Y-5715000I-50000J0D01*
G01*
X16179000Y-5969000D02*
G75*
G03*
X16179000Y-5969000I-50000J0D01*
G01*
X16404600Y-6733000D02*
G75*
G03*
X16404600Y-6733000I-50000J0D01*
G01*
X16404600Y-6987000D02*
G75*
G03*
X16404600Y-6987000I-50000J0D01*
G01*
X16433000Y-5207000D02*
G75*
G03*
X16433000Y-5207000I-50000J0D01*
G01*
X16433000Y-5461000D02*
G75*
G03*
X16433000Y-5461000I-50000J0D01*
G01*
X16433000Y-5715000D02*
G75*
G03*
X16433000Y-5715000I-50000J0D01*
G01*
X16433000Y-5969000D02*
G75*
G03*
X16433000Y-5969000I-50000J0D01*
G01*
X16658600Y-6733000D02*
G75*
G03*
X16658600Y-6733000I-50000J0D01*
G01*
X16658600Y-6987000D02*
G75*
G03*
X16658600Y-6987000I-50000J0D01*
G01*
X16687000Y-5207000D02*
G75*
G03*
X16687000Y-5207000I-50000J0D01*
G01*
X16687000Y-5461000D02*
G75*
G03*
X16687000Y-5461000I-50000J0D01*
G01*
X16687000Y-5715000D02*
G75*
G03*
X16687000Y-5715000I-50000J0D01*
G01*
X16687000Y-5969000D02*
G75*
G03*
X16687000Y-5969000I-50000J0D01*
G01*
X16912600Y-6733000D02*
G75*
G03*
X16912600Y-6733000I-50000J0D01*
G01*
X16912600Y-6987000D02*
G75*
G03*
X16912600Y-6987000I-50000J0D01*
G01*
X16941000Y-5207000D02*
G75*
G03*
X16941000Y-5207000I-50000J0D01*
G01*
X16941000Y-5461000D02*
G75*
G03*
X16941000Y-5461000I-50000J0D01*
G01*
X16941000Y-5715000D02*
G75*
G03*
X16941000Y-5715000I-50000J0D01*
G01*
X16941000Y-5969000D02*
G75*
G03*
X16941000Y-5969000I-50000J0D01*
G01*
X17166600Y-6733000D02*
G75*
G03*
X17166600Y-6733000I-50000J0D01*
G01*
X17166600Y-6987000D02*
G75*
G03*
X17166600Y-6987000I-50000J0D01*
G01*
X17195000Y-5207000D02*
G75*
G03*
X17195000Y-5207000I-50000J0D01*
G01*
X17195000Y-5461000D02*
G75*
G03*
X17195000Y-5461000I-50000J0D01*
G01*
X17195000Y-5715000D02*
G75*
G03*
X17195000Y-5715000I-50000J0D01*
G01*
X17195000Y-5969000D02*
G75*
G03*
X17195000Y-5969000I-50000J0D01*
G01*
X17420600Y-6733000D02*
G75*
G03*
X17420600Y-6733000I-50000J0D01*
G01*
X17420600Y-6987000D02*
G75*
G03*
X17420600Y-6987000I-50000J0D01*
G01*
X17449000Y-5207000D02*
G75*
G03*
X17449000Y-5207000I-50000J0D01*
G01*
X17449000Y-5461000D02*
G75*
G03*
X17449000Y-5461000I-50000J0D01*
G01*
X17449000Y-5715000D02*
G75*
G03*
X17449000Y-5715000I-50000J0D01*
G01*
X17449000Y-5969000D02*
G75*
G03*
X17449000Y-5969000I-50000J0D01*
G01*
X17674600Y-6733000D02*
G75*
G03*
X17674600Y-6733000I-50000J0D01*
G01*
X17674600Y-6987000D02*
G75*
G03*
X17674600Y-6987000I-50000J0D01*
G01*
X17703000Y-5207000D02*
G75*
G03*
X17703000Y-5207000I-50000J0D01*
G01*
X17703000Y-5461000D02*
G75*
G03*
X17703000Y-5461000I-50000J0D01*
G01*
X17703000Y-5715000D02*
G75*
G03*
X17703000Y-5715000I-50000J0D01*
G01*
X17703000Y-5969000D02*
G75*
G03*
X17703000Y-5969000I-50000J0D01*
G01*
X17928600Y-6733000D02*
G75*
G03*
X17928600Y-6733000I-50000J0D01*
G01*
X17928600Y-6987000D02*
G75*
G03*
X17928600Y-6987000I-50000J0D01*
G01*
X17957000Y-5207000D02*
G75*
G03*
X17957000Y-5207000I-50000J0D01*
G01*
X17957000Y-5461000D02*
G75*
G03*
X17957000Y-5461000I-50000J0D01*
G01*
X17957000Y-5715000D02*
G75*
G03*
X17957000Y-5715000I-50000J0D01*
G01*
X17957000Y-5969000D02*
G75*
G03*
X17957000Y-5969000I-50000J0D01*
G01*
X18182600Y-6733000D02*
G75*
G03*
X18182600Y-6733000I-50000J0D01*
G01*
X18182600Y-6987000D02*
G75*
G03*
X18182600Y-6987000I-50000J0D01*
G01*
X18211000Y-5207000D02*
G75*
G03*
X18211000Y-5207000I-50000J0D01*
G01*
X18211000Y-5461000D02*
G75*
G03*
X18211000Y-5461000I-50000J0D01*
G01*
X18211000Y-5715000D02*
G75*
G03*
X18211000Y-5715000I-50000J0D01*
G01*
X18211000Y-5969000D02*
G75*
G03*
X18211000Y-5969000I-50000J0D01*
G01*
X18436600Y-6733000D02*
G75*
G03*
X18436600Y-6733000I-50000J0D01*
G01*
X18436600Y-6987000D02*
G75*
G03*
X18436600Y-6987000I-50000J0D01*
G01*
X18461300Y-9014500D02*
G75*
G03*
X18461300Y-9014500I-50000J0D01*
G01*
X18461300Y-9268500D02*
G75*
G03*
X18461300Y-9268500I-50000J0D01*
G01*
X18461300Y-9522500D02*
G75*
G03*
X18461300Y-9522500I-50000J0D01*
G01*
X18461300Y-9776500D02*
G75*
G03*
X18461300Y-9776500I-50000J0D01*
G01*
X18461300Y-10030500D02*
G75*
G03*
X18461300Y-10030500I-50000J0D01*
G01*
X18461300Y-10284500D02*
G75*
G03*
X18461300Y-10284500I-50000J0D01*
G01*
X18465000Y-5207000D02*
G75*
G03*
X18465000Y-5207000I-50000J0D01*
G01*
X18465000Y-5461000D02*
G75*
G03*
X18465000Y-5461000I-50000J0D01*
G01*
X18465000Y-5715000D02*
G75*
G03*
X18465000Y-5715000I-50000J0D01*
G01*
X18465000Y-5969000D02*
G75*
G03*
X18465000Y-5969000I-50000J0D01*
G01*
X18715300Y-9014500D02*
G75*
G03*
X18715300Y-9014500I-50000J0D01*
G01*
X18715300Y-9268500D02*
G75*
G03*
X18715300Y-9268500I-50000J0D01*
G01*
X18715300Y-9522500D02*
G75*
G03*
X18715300Y-9522500I-50000J0D01*
G01*
X18715300Y-9776500D02*
G75*
G03*
X18715300Y-9776500I-50000J0D01*
G01*
X18715300Y-10030500D02*
G75*
G03*
X18715300Y-10030500I-50000J0D01*
G01*
X18715300Y-10284500D02*
G75*
G03*
X18715300Y-10284500I-50000J0D01*
G01*
X18719000Y-5207000D02*
G75*
G03*
X18719000Y-5207000I-50000J0D01*
G01*
X18719000Y-5461000D02*
G75*
G03*
X18719000Y-5461000I-50000J0D01*
G01*
X18719000Y-5715000D02*
G75*
G03*
X18719000Y-5715000I-50000J0D01*
G01*
X18719000Y-5969000D02*
G75*
G03*
X18719000Y-5969000I-50000J0D01*
G01*
X19658800Y-10807700D02*
G75*
G03*
X19658800Y-10807700I-50000J0D01*
G01*
X19658800Y-11061700D02*
G75*
G03*
X19658800Y-11061700I-50000J0D01*
G01*
X19658800Y-11315700D02*
G75*
G03*
X19658800Y-11315700I-50000J0D01*
G01*
X19658800Y-11569700D02*
G75*
G03*
X19658800Y-11569700I-50000J0D01*
G01*
X19658800Y-11938000D02*
G75*
G03*
X19658800Y-11938000I-50000J0D01*
G01*
X19658800Y-12192000D02*
G75*
G03*
X19658800Y-12192000I-50000J0D01*
G01*
X19658800Y-12446000D02*
G75*
G03*
X19658800Y-12446000I-50000J0D01*
G01*
X19658800Y-12700000D02*
G75*
G03*
X19658800Y-12700000I-50000J0D01*
G01*
D13*
X17414200Y-13912850D02*
X17414200Y-14077950D01*
X17331650Y-13995400D02*
X17496750Y-13995400D01*
X17889200Y-13912850D02*
X17889200Y-14077950D01*
X17806650Y-13995400D02*
X17971750Y-13995400D01*
X18364200Y-13912850D02*
X18364200Y-14077950D01*
X18281650Y-13995400D02*
X18446750Y-13995400D01*
D14*
X13158782Y-6935782D02*
X13158782Y-6780217D01*
X13003217Y-6780217D01*
X13003217Y-6935782D01*
X13158782Y-6935782D01*
X13158782Y-11837982D02*
X13158782Y-11682417D01*
X13003217Y-11682417D01*
X13003217Y-11837982D01*
X13158782Y-11837982D01*
X18975383Y-6935782D02*
X18975383Y-6780217D01*
X18819818Y-6780217D01*
X18819818Y-6935782D01*
X18975383Y-6935782D01*
X18975383Y-11837982D02*
X18975383Y-11682417D01*
X18819818Y-11682417D01*
X18819818Y-11837982D01*
X18975383Y-11837982D01*
D15*
X11430000Y-13939500D02*
X11590000Y-13779500D01*
X11430000Y-13619500D01*
X11270000Y-13779500D01*
X11430000Y-13939500D01*
X11811000Y-5367000D02*
X11971000Y-5207000D01*
X11811000Y-5047000D01*
X11651000Y-5207000D01*
X11811000Y-5367000D01*
X19177000Y-5367000D02*
X19337000Y-5207000D01*
X19177000Y-5047000D01*
X19017000Y-5207000D01*
X19177000Y-5367000D01*
X19431000Y-13939500D02*
X19591000Y-13779500D01*
X19431000Y-13619500D01*
X19271000Y-13779500D01*
X19431000Y-13939500D01*
D11*
X11174619Y-14602976D02*
X11174619Y-14402976D01*
X11222238Y-14402976D01*
X11250809Y-14412500D01*
X11269857Y-14431548D01*
X11279381Y-14450595D01*
X11288905Y-14488690D01*
X11288905Y-14517262D01*
X11279381Y-14555357D01*
X11269857Y-14574405D01*
X11250809Y-14593452D01*
X11222238Y-14602976D01*
X11174619Y-14602976D01*
X11374619Y-14602976D02*
X11374619Y-14469643D01*
X11374619Y-14507738D02*
X11384143Y-14488690D01*
X11393667Y-14479167D01*
X11412714Y-14469643D01*
X11431762Y-14469643D01*
X11498428Y-14602976D02*
X11498428Y-14469643D01*
X11498428Y-14402976D02*
X11488905Y-14412500D01*
X11498428Y-14422024D01*
X11507952Y-14412500D01*
X11498428Y-14402976D01*
X11498428Y-14422024D01*
X11622238Y-14602976D02*
X11603190Y-14593452D01*
X11593667Y-14574405D01*
X11593667Y-14402976D01*
X11727000Y-14602976D02*
X11707952Y-14593452D01*
X11698428Y-14574405D01*
X11698428Y-14402976D01*
X11955571Y-14602976D02*
X11955571Y-14402976D01*
X12022238Y-14545833D01*
X12088905Y-14402976D01*
X12088905Y-14602976D01*
X12269857Y-14602976D02*
X12269857Y-14498214D01*
X12260333Y-14479167D01*
X12241286Y-14469643D01*
X12203190Y-14469643D01*
X12184143Y-14479167D01*
X12269857Y-14593452D02*
X12250809Y-14602976D01*
X12203190Y-14602976D01*
X12184143Y-14593452D01*
X12174619Y-14574405D01*
X12174619Y-14555357D01*
X12184143Y-14536309D01*
X12203190Y-14526786D01*
X12250809Y-14526786D01*
X12269857Y-14517262D01*
X12365095Y-14469643D02*
X12365095Y-14669643D01*
X12365095Y-14479167D02*
X12384143Y-14469643D01*
X12422238Y-14469643D01*
X12441286Y-14479167D01*
X12450809Y-14488690D01*
X12460333Y-14507738D01*
X12460333Y-14564881D01*
X12450809Y-14583928D01*
X12441286Y-14593452D01*
X12422238Y-14602976D01*
X12384143Y-14602976D01*
X12365095Y-14593452D01*
X12546048Y-14583928D02*
X12555571Y-14593452D01*
X12546048Y-14602976D01*
X12536524Y-14593452D01*
X12546048Y-14583928D01*
X12546048Y-14602976D01*
X12546048Y-14479167D02*
X12555571Y-14488690D01*
X12546048Y-14498214D01*
X12536524Y-14488690D01*
X12546048Y-14479167D01*
X12546048Y-14498214D01*
D12*
X10857000Y-14902500D02*
X10917000Y-14962500D01*
X10917000Y-14902500D02*
X10857000Y-14962500D01*
D11*
X11212714Y-14822976D02*
X11231762Y-14822976D01*
X11250809Y-14832500D01*
X11260333Y-14842024D01*
X11269857Y-14861071D01*
X11279381Y-14899167D01*
X11279381Y-14946786D01*
X11269857Y-14984881D01*
X11260333Y-15003928D01*
X11250809Y-15013452D01*
X11231762Y-15022976D01*
X11212714Y-15022976D01*
X11193667Y-15013452D01*
X11184143Y-15003928D01*
X11174619Y-14984881D01*
X11165095Y-14946786D01*
X11165095Y-14899167D01*
X11174619Y-14861071D01*
X11184143Y-14842024D01*
X11193667Y-14832500D01*
X11212714Y-14822976D01*
X11365095Y-15003928D02*
X11374619Y-15013452D01*
X11365095Y-15022976D01*
X11355571Y-15013452D01*
X11365095Y-15003928D01*
X11365095Y-15022976D01*
X11546048Y-14822976D02*
X11507952Y-14822976D01*
X11488905Y-14832500D01*
X11479381Y-14842024D01*
X11460333Y-14870595D01*
X11450809Y-14908690D01*
X11450809Y-14984881D01*
X11460333Y-15003928D01*
X11469857Y-15013452D01*
X11488905Y-15022976D01*
X11527000Y-15022976D01*
X11546048Y-15013452D01*
X11555571Y-15003928D01*
X11565095Y-14984881D01*
X11565095Y-14937262D01*
X11555571Y-14918214D01*
X11546048Y-14908690D01*
X11527000Y-14899167D01*
X11488905Y-14899167D01*
X11469857Y-14908690D01*
X11460333Y-14918214D01*
X11450809Y-14937262D01*
X11688905Y-14822976D02*
X11707952Y-14822976D01*
X11727000Y-14832500D01*
X11736524Y-14842024D01*
X11746048Y-14861071D01*
X11755571Y-14899167D01*
X11755571Y-14946786D01*
X11746048Y-14984881D01*
X11736524Y-15003928D01*
X11727000Y-15013452D01*
X11707952Y-15022976D01*
X11688905Y-15022976D01*
X11669857Y-15013452D01*
X11660333Y-15003928D01*
X11650809Y-14984881D01*
X11641286Y-14946786D01*
X11641286Y-14899167D01*
X11650809Y-14861071D01*
X11660333Y-14842024D01*
X11669857Y-14832500D01*
X11688905Y-14822976D01*
X11879381Y-14822976D02*
X11898428Y-14822976D01*
X11917476Y-14832500D01*
X11927000Y-14842024D01*
X11936524Y-14861071D01*
X11946048Y-14899167D01*
X11946048Y-14946786D01*
X11936524Y-14984881D01*
X11927000Y-15003928D01*
X11917476Y-15013452D01*
X11898428Y-15022976D01*
X11879381Y-15022976D01*
X11860333Y-15013452D01*
X11850809Y-15003928D01*
X11841286Y-14984881D01*
X11831762Y-14946786D01*
X11831762Y-14899167D01*
X11841286Y-14861071D01*
X11850809Y-14842024D01*
X11860333Y-14832500D01*
X11879381Y-14822976D01*
X12031762Y-15022976D02*
X12031762Y-14889643D01*
X12031762Y-14908690D02*
X12041286Y-14899167D01*
X12060333Y-14889643D01*
X12088905Y-14889643D01*
X12107952Y-14899167D01*
X12117476Y-14918214D01*
X12117476Y-15022976D01*
X12117476Y-14918214D02*
X12127000Y-14899167D01*
X12146048Y-14889643D01*
X12174619Y-14889643D01*
X12193667Y-14899167D01*
X12203190Y-14918214D01*
X12203190Y-15022976D01*
X12298428Y-15022976D02*
X12298428Y-14889643D01*
X12298428Y-14908690D02*
X12307952Y-14899167D01*
X12327000Y-14889643D01*
X12355571Y-14889643D01*
X12374619Y-14899167D01*
X12384143Y-14918214D01*
X12384143Y-15022976D01*
X12384143Y-14918214D02*
X12393667Y-14899167D01*
X12412714Y-14889643D01*
X12441286Y-14889643D01*
X12460333Y-14899167D01*
X12469857Y-14918214D01*
X12469857Y-15022976D01*
X12860333Y-14813452D02*
X12688905Y-15070595D01*
X13117476Y-14822976D02*
X13136524Y-14822976D01*
X13155571Y-14832500D01*
X13165095Y-14842024D01*
X13174619Y-14861071D01*
X13184143Y-14899167D01*
X13184143Y-14946786D01*
X13174619Y-14984881D01*
X13165095Y-15003928D01*
X13155571Y-15013452D01*
X13136524Y-15022976D01*
X13117476Y-15022976D01*
X13098428Y-15013452D01*
X13088905Y-15003928D01*
X13079381Y-14984881D01*
X13069857Y-14946786D01*
X13069857Y-14899167D01*
X13079381Y-14861071D01*
X13088905Y-14842024D01*
X13098428Y-14832500D01*
X13117476Y-14822976D01*
X13269857Y-15003928D02*
X13279381Y-15013452D01*
X13269857Y-15022976D01*
X13260333Y-15013452D01*
X13269857Y-15003928D01*
X13269857Y-15022976D01*
X13403190Y-14822976D02*
X13422238Y-14822976D01*
X13441286Y-14832500D01*
X13450809Y-14842024D01*
X13460333Y-14861071D01*
X13469857Y-14899167D01*
X13469857Y-14946786D01*
X13460333Y-14984881D01*
X13450809Y-15003928D01*
X13441286Y-15013452D01*
X13422238Y-15022976D01*
X13403190Y-15022976D01*
X13384143Y-15013452D01*
X13374619Y-15003928D01*
X13365095Y-14984881D01*
X13355571Y-14946786D01*
X13355571Y-14899167D01*
X13365095Y-14861071D01*
X13374619Y-14842024D01*
X13384143Y-14832500D01*
X13403190Y-14822976D01*
X13546048Y-14842024D02*
X13555571Y-14832500D01*
X13574619Y-14822976D01*
X13622238Y-14822976D01*
X13641286Y-14832500D01*
X13650809Y-14842024D01*
X13660333Y-14861071D01*
X13660333Y-14880119D01*
X13650809Y-14908690D01*
X13536524Y-15022976D01*
X13660333Y-15022976D01*
X13727000Y-14822976D02*
X13850809Y-14822976D01*
X13784143Y-14899167D01*
X13812714Y-14899167D01*
X13831762Y-14908690D01*
X13841286Y-14918214D01*
X13850809Y-14937262D01*
X13850809Y-14984881D01*
X13841286Y-15003928D01*
X13831762Y-15013452D01*
X13812714Y-15022976D01*
X13755571Y-15022976D01*
X13736524Y-15013452D01*
X13727000Y-15003928D01*
X14022238Y-14822976D02*
X13984143Y-14822976D01*
X13965095Y-14832500D01*
X13955571Y-14842024D01*
X13936524Y-14870595D01*
X13927000Y-14908690D01*
X13927000Y-14984881D01*
X13936524Y-15003928D01*
X13946048Y-15013452D01*
X13965095Y-15022976D01*
X14003190Y-15022976D01*
X14022238Y-15013452D01*
X14031762Y-15003928D01*
X14041286Y-14984881D01*
X14041286Y-14937262D01*
X14031762Y-14918214D01*
X14022238Y-14908690D01*
X14003190Y-14899167D01*
X13965095Y-14899167D01*
X13946048Y-14908690D01*
X13936524Y-14918214D01*
X13927000Y-14937262D01*
X14117476Y-14822976D02*
X14117476Y-14861071D01*
X14193667Y-14822976D02*
X14193667Y-14861071D01*
X14488905Y-15099167D02*
X14479381Y-15089643D01*
X14460333Y-15061071D01*
X14450809Y-15042024D01*
X14441286Y-15013452D01*
X14431762Y-14965833D01*
X14431762Y-14927738D01*
X14441286Y-14880119D01*
X14450809Y-14851548D01*
X14460333Y-14832500D01*
X14479381Y-14803928D01*
X14488905Y-14794405D01*
X14593667Y-14908690D02*
X14574619Y-14899167D01*
X14565095Y-14889643D01*
X14555571Y-14870595D01*
X14555571Y-14861071D01*
X14565095Y-14842024D01*
X14574619Y-14832500D01*
X14593667Y-14822976D01*
X14631762Y-14822976D01*
X14650809Y-14832500D01*
X14660333Y-14842024D01*
X14669857Y-14861071D01*
X14669857Y-14870595D01*
X14660333Y-14889643D01*
X14650809Y-14899167D01*
X14631762Y-14908690D01*
X14593667Y-14908690D01*
X14574619Y-14918214D01*
X14565095Y-14927738D01*
X14555571Y-14946786D01*
X14555571Y-14984881D01*
X14565095Y-15003928D01*
X14574619Y-15013452D01*
X14593667Y-15022976D01*
X14631762Y-15022976D01*
X14650809Y-15013452D01*
X14660333Y-15003928D01*
X14669857Y-14984881D01*
X14669857Y-14946786D01*
X14660333Y-14927738D01*
X14650809Y-14918214D01*
X14631762Y-14908690D01*
X14850809Y-14822976D02*
X14755571Y-14822976D01*
X14746048Y-14918214D01*
X14755571Y-14908690D01*
X14774619Y-14899167D01*
X14822238Y-14899167D01*
X14841286Y-14908690D01*
X14850809Y-14918214D01*
X14860333Y-14937262D01*
X14860333Y-14984881D01*
X14850809Y-15003928D01*
X14841286Y-15013452D01*
X14822238Y-15022976D01*
X14774619Y-15022976D01*
X14755571Y-15013452D01*
X14746048Y-15003928D01*
X15098428Y-15022976D02*
X15098428Y-14822976D01*
X15184143Y-15022976D02*
X15184143Y-14918214D01*
X15174619Y-14899167D01*
X15155571Y-14889643D01*
X15127000Y-14889643D01*
X15107952Y-14899167D01*
X15098428Y-14908690D01*
X15307952Y-15022976D02*
X15288905Y-15013452D01*
X15279381Y-15003928D01*
X15269857Y-14984881D01*
X15269857Y-14927738D01*
X15279381Y-14908690D01*
X15288905Y-14899167D01*
X15307952Y-14889643D01*
X15336524Y-14889643D01*
X15355571Y-14899167D01*
X15365095Y-14908690D01*
X15374619Y-14927738D01*
X15374619Y-14984881D01*
X15365095Y-15003928D01*
X15355571Y-15013452D01*
X15336524Y-15022976D01*
X15307952Y-15022976D01*
X15488905Y-15022976D02*
X15469857Y-15013452D01*
X15460333Y-14994405D01*
X15460333Y-14822976D01*
X15641286Y-15013452D02*
X15622238Y-15022976D01*
X15584143Y-15022976D01*
X15565095Y-15013452D01*
X15555571Y-14994405D01*
X15555571Y-14918214D01*
X15565095Y-14899167D01*
X15584143Y-14889643D01*
X15622238Y-14889643D01*
X15641286Y-14899167D01*
X15650809Y-14918214D01*
X15650809Y-14937262D01*
X15555571Y-14956309D01*
X15727000Y-15013452D02*
X15746048Y-15022976D01*
X15784143Y-15022976D01*
X15803190Y-15013452D01*
X15812714Y-14994405D01*
X15812714Y-14984881D01*
X15803190Y-14965833D01*
X15784143Y-14956309D01*
X15755571Y-14956309D01*
X15736524Y-14946786D01*
X15727000Y-14927738D01*
X15727000Y-14918214D01*
X15736524Y-14899167D01*
X15755571Y-14889643D01*
X15784143Y-14889643D01*
X15803190Y-14899167D01*
X15879381Y-15099167D02*
X15888905Y-15089643D01*
X15907952Y-15061071D01*
X15917476Y-15042024D01*
X15927000Y-15013452D01*
X15936524Y-14965833D01*
X15936524Y-14927738D01*
X15927000Y-14880119D01*
X15917476Y-14851548D01*
X15907952Y-14832500D01*
X15888905Y-14803928D01*
X15879381Y-14794405D01*
D10*
X10917000Y-15196500D02*
G75*
G03*
X10917000Y-15196500I-50000J0D01*
G01*
D11*
X11279381Y-15286976D02*
X11165095Y-15286976D01*
X11222238Y-15286976D02*
X11222238Y-15086976D01*
X11203190Y-15115548D01*
X11184143Y-15134595D01*
X11165095Y-15144119D01*
X11365095Y-15267928D02*
X11374619Y-15277452D01*
X11365095Y-15286976D01*
X11355571Y-15277452D01*
X11365095Y-15267928D01*
X11365095Y-15286976D01*
X11498428Y-15086976D02*
X11517476Y-15086976D01*
X11536524Y-15096500D01*
X11546048Y-15106024D01*
X11555571Y-15125071D01*
X11565095Y-15163167D01*
X11565095Y-15210786D01*
X11555571Y-15248881D01*
X11546048Y-15267928D01*
X11536524Y-15277452D01*
X11517476Y-15286976D01*
X11498428Y-15286976D01*
X11479381Y-15277452D01*
X11469857Y-15267928D01*
X11460333Y-15248881D01*
X11450809Y-15210786D01*
X11450809Y-15163167D01*
X11460333Y-15125071D01*
X11469857Y-15106024D01*
X11479381Y-15096500D01*
X11498428Y-15086976D01*
X11688905Y-15086976D02*
X11707952Y-15086976D01*
X11727000Y-15096500D01*
X11736524Y-15106024D01*
X11746048Y-15125071D01*
X11755571Y-15163167D01*
X11755571Y-15210786D01*
X11746048Y-15248881D01*
X11736524Y-15267928D01*
X11727000Y-15277452D01*
X11707952Y-15286976D01*
X11688905Y-15286976D01*
X11669857Y-15277452D01*
X11660333Y-15267928D01*
X11650809Y-15248881D01*
X11641286Y-15210786D01*
X11641286Y-15163167D01*
X11650809Y-15125071D01*
X11660333Y-15106024D01*
X11669857Y-15096500D01*
X11688905Y-15086976D01*
X11879381Y-15086976D02*
X11898428Y-15086976D01*
X11917476Y-15096500D01*
X11927000Y-15106024D01*
X11936524Y-15125071D01*
X11946048Y-15163167D01*
X11946048Y-15210786D01*
X11936524Y-15248881D01*
X11927000Y-15267928D01*
X11917476Y-15277452D01*
X11898428Y-15286976D01*
X11879381Y-15286976D01*
X11860333Y-15277452D01*
X11850809Y-15267928D01*
X11841286Y-15248881D01*
X11831762Y-15210786D01*
X11831762Y-15163167D01*
X11841286Y-15125071D01*
X11850809Y-15106024D01*
X11860333Y-15096500D01*
X11879381Y-15086976D01*
X12031762Y-15286976D02*
X12031762Y-15153643D01*
X12031762Y-15172690D02*
X12041286Y-15163167D01*
X12060333Y-15153643D01*
X12088905Y-15153643D01*
X12107952Y-15163167D01*
X12117476Y-15182214D01*
X12117476Y-15286976D01*
X12117476Y-15182214D02*
X12127000Y-15163167D01*
X12146048Y-15153643D01*
X12174619Y-15153643D01*
X12193667Y-15163167D01*
X12203190Y-15182214D01*
X12203190Y-15286976D01*
X12298428Y-15286976D02*
X12298428Y-15153643D01*
X12298428Y-15172690D02*
X12307952Y-15163167D01*
X12327000Y-15153643D01*
X12355571Y-15153643D01*
X12374619Y-15163167D01*
X12384143Y-15182214D01*
X12384143Y-15286976D01*
X12384143Y-15182214D02*
X12393667Y-15163167D01*
X12412714Y-15153643D01*
X12441286Y-15153643D01*
X12460333Y-15163167D01*
X12469857Y-15182214D01*
X12469857Y-15286976D01*
X12860333Y-15077452D02*
X12688905Y-15334595D01*
X13117476Y-15086976D02*
X13136524Y-15086976D01*
X13155571Y-15096500D01*
X13165095Y-15106024D01*
X13174619Y-15125071D01*
X13184143Y-15163167D01*
X13184143Y-15210786D01*
X13174619Y-15248881D01*
X13165095Y-15267928D01*
X13155571Y-15277452D01*
X13136524Y-15286976D01*
X13117476Y-15286976D01*
X13098428Y-15277452D01*
X13088905Y-15267928D01*
X13079381Y-15248881D01*
X13069857Y-15210786D01*
X13069857Y-15163167D01*
X13079381Y-15125071D01*
X13088905Y-15106024D01*
X13098428Y-15096500D01*
X13117476Y-15086976D01*
X13269857Y-15267928D02*
X13279381Y-15277452D01*
X13269857Y-15286976D01*
X13260333Y-15277452D01*
X13269857Y-15267928D01*
X13269857Y-15286976D01*
X13403190Y-15086976D02*
X13422238Y-15086976D01*
X13441286Y-15096500D01*
X13450809Y-15106024D01*
X13460333Y-15125071D01*
X13469857Y-15163167D01*
X13469857Y-15210786D01*
X13460333Y-15248881D01*
X13450809Y-15267928D01*
X13441286Y-15277452D01*
X13422238Y-15286976D01*
X13403190Y-15286976D01*
X13384143Y-15277452D01*
X13374619Y-15267928D01*
X13365095Y-15248881D01*
X13355571Y-15210786D01*
X13355571Y-15163167D01*
X13365095Y-15125071D01*
X13374619Y-15106024D01*
X13384143Y-15096500D01*
X13403190Y-15086976D01*
X13536524Y-15086976D02*
X13660333Y-15086976D01*
X13593667Y-15163167D01*
X13622238Y-15163167D01*
X13641286Y-15172690D01*
X13650809Y-15182214D01*
X13660333Y-15201262D01*
X13660333Y-15248881D01*
X13650809Y-15267928D01*
X13641286Y-15277452D01*
X13622238Y-15286976D01*
X13565095Y-15286976D01*
X13546048Y-15277452D01*
X13536524Y-15267928D01*
X13755571Y-15286976D02*
X13793667Y-15286976D01*
X13812714Y-15277452D01*
X13822238Y-15267928D01*
X13841286Y-15239357D01*
X13850809Y-15201262D01*
X13850809Y-15125071D01*
X13841286Y-15106024D01*
X13831762Y-15096500D01*
X13812714Y-15086976D01*
X13774619Y-15086976D01*
X13755571Y-15096500D01*
X13746048Y-15106024D01*
X13736524Y-15125071D01*
X13736524Y-15172690D01*
X13746048Y-15191738D01*
X13755571Y-15201262D01*
X13774619Y-15210786D01*
X13812714Y-15210786D01*
X13831762Y-15201262D01*
X13841286Y-15191738D01*
X13850809Y-15172690D01*
X14022238Y-15153643D02*
X14022238Y-15286976D01*
X13974619Y-15077452D02*
X13927000Y-15220309D01*
X14050809Y-15220309D01*
X14117476Y-15086976D02*
X14117476Y-15125071D01*
X14193667Y-15086976D02*
X14193667Y-15125071D01*
X14488905Y-15363167D02*
X14479381Y-15353643D01*
X14460333Y-15325071D01*
X14450809Y-15306024D01*
X14441286Y-15277452D01*
X14431762Y-15229833D01*
X14431762Y-15191738D01*
X14441286Y-15144119D01*
X14450809Y-15115548D01*
X14460333Y-15096500D01*
X14479381Y-15067928D01*
X14488905Y-15058405D01*
X14669857Y-15286976D02*
X14555571Y-15286976D01*
X14612714Y-15286976D02*
X14612714Y-15086976D01*
X14593667Y-15115548D01*
X14574619Y-15134595D01*
X14555571Y-15144119D01*
X14841286Y-15086976D02*
X14803190Y-15086976D01*
X14784143Y-15096500D01*
X14774619Y-15106024D01*
X14755571Y-15134595D01*
X14746048Y-15172690D01*
X14746048Y-15248881D01*
X14755571Y-15267928D01*
X14765095Y-15277452D01*
X14784143Y-15286976D01*
X14822238Y-15286976D01*
X14841286Y-15277452D01*
X14850809Y-15267928D01*
X14860333Y-15248881D01*
X14860333Y-15201262D01*
X14850809Y-15182214D01*
X14841286Y-15172690D01*
X14822238Y-15163167D01*
X14784143Y-15163167D01*
X14765095Y-15172690D01*
X14755571Y-15182214D01*
X14746048Y-15201262D01*
X15031762Y-15153643D02*
X15031762Y-15286976D01*
X14984143Y-15077452D02*
X14936524Y-15220309D01*
X15060333Y-15220309D01*
X15288905Y-15286976D02*
X15288905Y-15086976D01*
X15374619Y-15286976D02*
X15374619Y-15182214D01*
X15365095Y-15163167D01*
X15346048Y-15153643D01*
X15317476Y-15153643D01*
X15298428Y-15163167D01*
X15288905Y-15172690D01*
X15498428Y-15286976D02*
X15479381Y-15277452D01*
X15469857Y-15267928D01*
X15460333Y-15248881D01*
X15460333Y-15191738D01*
X15469857Y-15172690D01*
X15479381Y-15163167D01*
X15498428Y-15153643D01*
X15527000Y-15153643D01*
X15546048Y-15163167D01*
X15555571Y-15172690D01*
X15565095Y-15191738D01*
X15565095Y-15248881D01*
X15555571Y-15267928D01*
X15546048Y-15277452D01*
X15527000Y-15286976D01*
X15498428Y-15286976D01*
X15679381Y-15286976D02*
X15660333Y-15277452D01*
X15650809Y-15258405D01*
X15650809Y-15086976D01*
X15831762Y-15277452D02*
X15812714Y-15286976D01*
X15774619Y-15286976D01*
X15755571Y-15277452D01*
X15746048Y-15258405D01*
X15746048Y-15182214D01*
X15755571Y-15163167D01*
X15774619Y-15153643D01*
X15812714Y-15153643D01*
X15831762Y-15163167D01*
X15841286Y-15182214D01*
X15841286Y-15201262D01*
X15746048Y-15220309D01*
X15917476Y-15277452D02*
X15936524Y-15286976D01*
X15974619Y-15286976D01*
X15993667Y-15277452D01*
X16003190Y-15258405D01*
X16003190Y-15248881D01*
X15993667Y-15229833D01*
X15974619Y-15220309D01*
X15946048Y-15220309D01*
X15927000Y-15210786D01*
X15917476Y-15191738D01*
X15917476Y-15182214D01*
X15927000Y-15163167D01*
X15946048Y-15153643D01*
X15974619Y-15153643D01*
X15993667Y-15163167D01*
X16069857Y-15363167D02*
X16079381Y-15353643D01*
X16098428Y-15325071D01*
X16107952Y-15306024D01*
X16117476Y-15277452D01*
X16127000Y-15229833D01*
X16127000Y-15191738D01*
X16117476Y-15144119D01*
X16107952Y-15115548D01*
X16098428Y-15096500D01*
X16079381Y-15067928D01*
X16069857Y-15058405D01*
D13*
X10834450Y-15377950D02*
X10834450Y-15543050D01*
X10751900Y-15460500D02*
X10917000Y-15460500D01*
D11*
X11279381Y-15550976D02*
X11165095Y-15550976D01*
X11222238Y-15550976D02*
X11222238Y-15350976D01*
X11203190Y-15379548D01*
X11184143Y-15398595D01*
X11165095Y-15408119D01*
X11365095Y-15531928D02*
X11374619Y-15541452D01*
X11365095Y-15550976D01*
X11355571Y-15541452D01*
X11365095Y-15531928D01*
X11365095Y-15550976D01*
X11546048Y-15350976D02*
X11507952Y-15350976D01*
X11488905Y-15360500D01*
X11479381Y-15370024D01*
X11460333Y-15398595D01*
X11450809Y-15436690D01*
X11450809Y-15512881D01*
X11460333Y-15531928D01*
X11469857Y-15541452D01*
X11488905Y-15550976D01*
X11527000Y-15550976D01*
X11546048Y-15541452D01*
X11555571Y-15531928D01*
X11565095Y-15512881D01*
X11565095Y-15465262D01*
X11555571Y-15446214D01*
X11546048Y-15436690D01*
X11527000Y-15427167D01*
X11488905Y-15427167D01*
X11469857Y-15436690D01*
X11460333Y-15446214D01*
X11450809Y-15465262D01*
X11746048Y-15350976D02*
X11650809Y-15350976D01*
X11641286Y-15446214D01*
X11650809Y-15436690D01*
X11669857Y-15427167D01*
X11717476Y-15427167D01*
X11736524Y-15436690D01*
X11746048Y-15446214D01*
X11755571Y-15465262D01*
X11755571Y-15512881D01*
X11746048Y-15531928D01*
X11736524Y-15541452D01*
X11717476Y-15550976D01*
X11669857Y-15550976D01*
X11650809Y-15541452D01*
X11641286Y-15531928D01*
X11946048Y-15550976D02*
X11831762Y-15550976D01*
X11888905Y-15550976D02*
X11888905Y-15350976D01*
X11869857Y-15379548D01*
X11850809Y-15398595D01*
X11831762Y-15408119D01*
X12031762Y-15550976D02*
X12031762Y-15417643D01*
X12031762Y-15436690D02*
X12041286Y-15427167D01*
X12060333Y-15417643D01*
X12088905Y-15417643D01*
X12107952Y-15427167D01*
X12117476Y-15446214D01*
X12117476Y-15550976D01*
X12117476Y-15446214D02*
X12127000Y-15427167D01*
X12146048Y-15417643D01*
X12174619Y-15417643D01*
X12193667Y-15427167D01*
X12203190Y-15446214D01*
X12203190Y-15550976D01*
X12298428Y-15550976D02*
X12298428Y-15417643D01*
X12298428Y-15436690D02*
X12307952Y-15427167D01*
X12327000Y-15417643D01*
X12355571Y-15417643D01*
X12374619Y-15427167D01*
X12384143Y-15446214D01*
X12384143Y-15550976D01*
X12384143Y-15446214D02*
X12393667Y-15427167D01*
X12412714Y-15417643D01*
X12441286Y-15417643D01*
X12460333Y-15427167D01*
X12469857Y-15446214D01*
X12469857Y-15550976D01*
X12860333Y-15341452D02*
X12688905Y-15598595D01*
X13117476Y-15350976D02*
X13136524Y-15350976D01*
X13155571Y-15360500D01*
X13165095Y-15370024D01*
X13174619Y-15389071D01*
X13184143Y-15427167D01*
X13184143Y-15474786D01*
X13174619Y-15512881D01*
X13165095Y-15531928D01*
X13155571Y-15541452D01*
X13136524Y-15550976D01*
X13117476Y-15550976D01*
X13098428Y-15541452D01*
X13088905Y-15531928D01*
X13079381Y-15512881D01*
X13069857Y-15474786D01*
X13069857Y-15427167D01*
X13079381Y-15389071D01*
X13088905Y-15370024D01*
X13098428Y-15360500D01*
X13117476Y-15350976D01*
X13269857Y-15531928D02*
X13279381Y-15541452D01*
X13269857Y-15550976D01*
X13260333Y-15541452D01*
X13269857Y-15531928D01*
X13269857Y-15550976D01*
X13403190Y-15350976D02*
X13422238Y-15350976D01*
X13441286Y-15360500D01*
X13450809Y-15370024D01*
X13460333Y-15389071D01*
X13469857Y-15427167D01*
X13469857Y-15474786D01*
X13460333Y-15512881D01*
X13450809Y-15531928D01*
X13441286Y-15541452D01*
X13422238Y-15550976D01*
X13403190Y-15550976D01*
X13384143Y-15541452D01*
X13374619Y-15531928D01*
X13365095Y-15512881D01*
X13355571Y-15474786D01*
X13355571Y-15427167D01*
X13365095Y-15389071D01*
X13374619Y-15370024D01*
X13384143Y-15360500D01*
X13403190Y-15350976D01*
X13641286Y-15350976D02*
X13603190Y-15350976D01*
X13584143Y-15360500D01*
X13574619Y-15370024D01*
X13555571Y-15398595D01*
X13546048Y-15436690D01*
X13546048Y-15512881D01*
X13555571Y-15531928D01*
X13565095Y-15541452D01*
X13584143Y-15550976D01*
X13622238Y-15550976D01*
X13641286Y-15541452D01*
X13650809Y-15531928D01*
X13660333Y-15512881D01*
X13660333Y-15465262D01*
X13650809Y-15446214D01*
X13641286Y-15436690D01*
X13622238Y-15427167D01*
X13584143Y-15427167D01*
X13565095Y-15436690D01*
X13555571Y-15446214D01*
X13546048Y-15465262D01*
X13841286Y-15350976D02*
X13746048Y-15350976D01*
X13736524Y-15446214D01*
X13746048Y-15436690D01*
X13765095Y-15427167D01*
X13812714Y-15427167D01*
X13831762Y-15436690D01*
X13841286Y-15446214D01*
X13850809Y-15465262D01*
X13850809Y-15512881D01*
X13841286Y-15531928D01*
X13831762Y-15541452D01*
X13812714Y-15550976D01*
X13765095Y-15550976D01*
X13746048Y-15541452D01*
X13736524Y-15531928D01*
X13974619Y-15350976D02*
X13993667Y-15350976D01*
X14012714Y-15360500D01*
X14022238Y-15370024D01*
X14031762Y-15389071D01*
X14041286Y-15427167D01*
X14041286Y-15474786D01*
X14031762Y-15512881D01*
X14022238Y-15531928D01*
X14012714Y-15541452D01*
X13993667Y-15550976D01*
X13974619Y-15550976D01*
X13955571Y-15541452D01*
X13946048Y-15531928D01*
X13936524Y-15512881D01*
X13927000Y-15474786D01*
X13927000Y-15427167D01*
X13936524Y-15389071D01*
X13946048Y-15370024D01*
X13955571Y-15360500D01*
X13974619Y-15350976D01*
X14117476Y-15350976D02*
X14117476Y-15389071D01*
X14193667Y-15350976D02*
X14193667Y-15389071D01*
X14488905Y-15627167D02*
X14479381Y-15617643D01*
X14460333Y-15589071D01*
X14450809Y-15570024D01*
X14441286Y-15541452D01*
X14431762Y-15493833D01*
X14431762Y-15455738D01*
X14441286Y-15408119D01*
X14450809Y-15379548D01*
X14460333Y-15360500D01*
X14479381Y-15331928D01*
X14488905Y-15322405D01*
X14546048Y-15350976D02*
X14669857Y-15350976D01*
X14603190Y-15427167D01*
X14631762Y-15427167D01*
X14650809Y-15436690D01*
X14660333Y-15446214D01*
X14669857Y-15465262D01*
X14669857Y-15512881D01*
X14660333Y-15531928D01*
X14650809Y-15541452D01*
X14631762Y-15550976D01*
X14574619Y-15550976D01*
X14555571Y-15541452D01*
X14546048Y-15531928D01*
X14907952Y-15550976D02*
X14907952Y-15350976D01*
X14993667Y-15550976D02*
X14993667Y-15446214D01*
X14984143Y-15427167D01*
X14965095Y-15417643D01*
X14936524Y-15417643D01*
X14917476Y-15427167D01*
X14907952Y-15436690D01*
X15117476Y-15550976D02*
X15098428Y-15541452D01*
X15088905Y-15531928D01*
X15079381Y-15512881D01*
X15079381Y-15455738D01*
X15088905Y-15436690D01*
X15098428Y-15427167D01*
X15117476Y-15417643D01*
X15146048Y-15417643D01*
X15165095Y-15427167D01*
X15174619Y-15436690D01*
X15184143Y-15455738D01*
X15184143Y-15512881D01*
X15174619Y-15531928D01*
X15165095Y-15541452D01*
X15146048Y-15550976D01*
X15117476Y-15550976D01*
X15298428Y-15550976D02*
X15279381Y-15541452D01*
X15269857Y-15522405D01*
X15269857Y-15350976D01*
X15450809Y-15541452D02*
X15431762Y-15550976D01*
X15393667Y-15550976D01*
X15374619Y-15541452D01*
X15365095Y-15522405D01*
X15365095Y-15446214D01*
X15374619Y-15427167D01*
X15393667Y-15417643D01*
X15431762Y-15417643D01*
X15450809Y-15427167D01*
X15460333Y-15446214D01*
X15460333Y-15465262D01*
X15365095Y-15484309D01*
X15536524Y-15541452D02*
X15555571Y-15550976D01*
X15593667Y-15550976D01*
X15612714Y-15541452D01*
X15622238Y-15522405D01*
X15622238Y-15512881D01*
X15612714Y-15493833D01*
X15593667Y-15484309D01*
X15565095Y-15484309D01*
X15546048Y-15474786D01*
X15536524Y-15455738D01*
X15536524Y-15446214D01*
X15546048Y-15427167D01*
X15565095Y-15417643D01*
X15593667Y-15417643D01*
X15612714Y-15427167D01*
X15688905Y-15627167D02*
X15698428Y-15617643D01*
X15717476Y-15589071D01*
X15727000Y-15570024D01*
X15736524Y-15541452D01*
X15746048Y-15493833D01*
X15746048Y-15455738D01*
X15736524Y-15408119D01*
X15727000Y-15379548D01*
X15717476Y-15360500D01*
X15698428Y-15331928D01*
X15688905Y-15322405D01*
X10887711Y-15816311D02*
X10887711Y-15674889D01*
X10746289Y-15674889D01*
X10746289Y-15816311D01*
X10887711Y-15816311D01*
X11165095Y-15655124D02*
X11174619Y-15645600D01*
X11193667Y-15636076D01*
X11241286Y-15636076D01*
X11260333Y-15645600D01*
X11269857Y-15655124D01*
X11279381Y-15674171D01*
X11279381Y-15693219D01*
X11269857Y-15721790D01*
X11155571Y-15836076D01*
X11279381Y-15836076D01*
X11365095Y-15817028D02*
X11374619Y-15826552D01*
X11365095Y-15836076D01*
X11355571Y-15826552D01*
X11365095Y-15817028D01*
X11365095Y-15836076D01*
X11450809Y-15655124D02*
X11460333Y-15645600D01*
X11479381Y-15636076D01*
X11527000Y-15636076D01*
X11546048Y-15645600D01*
X11555571Y-15655124D01*
X11565095Y-15674171D01*
X11565095Y-15693219D01*
X11555571Y-15721790D01*
X11441286Y-15836076D01*
X11565095Y-15836076D01*
X11688905Y-15636076D02*
X11707952Y-15636076D01*
X11727000Y-15645600D01*
X11736524Y-15655124D01*
X11746048Y-15674171D01*
X11755571Y-15712267D01*
X11755571Y-15759886D01*
X11746048Y-15797981D01*
X11736524Y-15817028D01*
X11727000Y-15826552D01*
X11707952Y-15836076D01*
X11688905Y-15836076D01*
X11669857Y-15826552D01*
X11660333Y-15817028D01*
X11650809Y-15797981D01*
X11641286Y-15759886D01*
X11641286Y-15712267D01*
X11650809Y-15674171D01*
X11660333Y-15655124D01*
X11669857Y-15645600D01*
X11688905Y-15636076D01*
X11879381Y-15636076D02*
X11898428Y-15636076D01*
X11917476Y-15645600D01*
X11927000Y-15655124D01*
X11936524Y-15674171D01*
X11946048Y-15712267D01*
X11946048Y-15759886D01*
X11936524Y-15797981D01*
X11927000Y-15817028D01*
X11917476Y-15826552D01*
X11898428Y-15836076D01*
X11879381Y-15836076D01*
X11860333Y-15826552D01*
X11850809Y-15817028D01*
X11841286Y-15797981D01*
X11831762Y-15759886D01*
X11831762Y-15712267D01*
X11841286Y-15674171D01*
X11850809Y-15655124D01*
X11860333Y-15645600D01*
X11879381Y-15636076D01*
X12031762Y-15836076D02*
X12031762Y-15702743D01*
X12031762Y-15721790D02*
X12041286Y-15712267D01*
X12060333Y-15702743D01*
X12088905Y-15702743D01*
X12107952Y-15712267D01*
X12117476Y-15731314D01*
X12117476Y-15836076D01*
X12117476Y-15731314D02*
X12127000Y-15712267D01*
X12146048Y-15702743D01*
X12174619Y-15702743D01*
X12193667Y-15712267D01*
X12203190Y-15731314D01*
X12203190Y-15836076D01*
X12298428Y-15836076D02*
X12298428Y-15702743D01*
X12298428Y-15721790D02*
X12307952Y-15712267D01*
X12327000Y-15702743D01*
X12355571Y-15702743D01*
X12374619Y-15712267D01*
X12384143Y-15731314D01*
X12384143Y-15836076D01*
X12384143Y-15731314D02*
X12393667Y-15712267D01*
X12412714Y-15702743D01*
X12441286Y-15702743D01*
X12460333Y-15712267D01*
X12469857Y-15731314D01*
X12469857Y-15836076D01*
X12860333Y-15626552D02*
X12688905Y-15883695D01*
X13117476Y-15636076D02*
X13136524Y-15636076D01*
X13155571Y-15645600D01*
X13165095Y-15655124D01*
X13174619Y-15674171D01*
X13184143Y-15712267D01*
X13184143Y-15759886D01*
X13174619Y-15797981D01*
X13165095Y-15817028D01*
X13155571Y-15826552D01*
X13136524Y-15836076D01*
X13117476Y-15836076D01*
X13098428Y-15826552D01*
X13088905Y-15817028D01*
X13079381Y-15797981D01*
X13069857Y-15759886D01*
X13069857Y-15712267D01*
X13079381Y-15674171D01*
X13088905Y-15655124D01*
X13098428Y-15645600D01*
X13117476Y-15636076D01*
X13269857Y-15817028D02*
X13279381Y-15826552D01*
X13269857Y-15836076D01*
X13260333Y-15826552D01*
X13269857Y-15817028D01*
X13269857Y-15836076D01*
X13403190Y-15636076D02*
X13422238Y-15636076D01*
X13441286Y-15645600D01*
X13450809Y-15655124D01*
X13460333Y-15674171D01*
X13469857Y-15712267D01*
X13469857Y-15759886D01*
X13460333Y-15797981D01*
X13450809Y-15817028D01*
X13441286Y-15826552D01*
X13422238Y-15836076D01*
X13403190Y-15836076D01*
X13384143Y-15826552D01*
X13374619Y-15817028D01*
X13365095Y-15797981D01*
X13355571Y-15759886D01*
X13355571Y-15712267D01*
X13365095Y-15674171D01*
X13374619Y-15655124D01*
X13384143Y-15645600D01*
X13403190Y-15636076D01*
X13584143Y-15721790D02*
X13565095Y-15712267D01*
X13555571Y-15702743D01*
X13546048Y-15683695D01*
X13546048Y-15674171D01*
X13555571Y-15655124D01*
X13565095Y-15645600D01*
X13584143Y-15636076D01*
X13622238Y-15636076D01*
X13641286Y-15645600D01*
X13650809Y-15655124D01*
X13660333Y-15674171D01*
X13660333Y-15683695D01*
X13650809Y-15702743D01*
X13641286Y-15712267D01*
X13622238Y-15721790D01*
X13584143Y-15721790D01*
X13565095Y-15731314D01*
X13555571Y-15740838D01*
X13546048Y-15759886D01*
X13546048Y-15797981D01*
X13555571Y-15817028D01*
X13565095Y-15826552D01*
X13584143Y-15836076D01*
X13622238Y-15836076D01*
X13641286Y-15826552D01*
X13650809Y-15817028D01*
X13660333Y-15797981D01*
X13660333Y-15759886D01*
X13650809Y-15740838D01*
X13641286Y-15731314D01*
X13622238Y-15721790D01*
X13831762Y-15636076D02*
X13793667Y-15636076D01*
X13774619Y-15645600D01*
X13765095Y-15655124D01*
X13746048Y-15683695D01*
X13736524Y-15721790D01*
X13736524Y-15797981D01*
X13746048Y-15817028D01*
X13755571Y-15826552D01*
X13774619Y-15836076D01*
X13812714Y-15836076D01*
X13831762Y-15826552D01*
X13841286Y-15817028D01*
X13850809Y-15797981D01*
X13850809Y-15750362D01*
X13841286Y-15731314D01*
X13831762Y-15721790D01*
X13812714Y-15712267D01*
X13774619Y-15712267D01*
X13755571Y-15721790D01*
X13746048Y-15731314D01*
X13736524Y-15750362D01*
X14022238Y-15636076D02*
X13984143Y-15636076D01*
X13965095Y-15645600D01*
X13955571Y-15655124D01*
X13936524Y-15683695D01*
X13927000Y-15721790D01*
X13927000Y-15797981D01*
X13936524Y-15817028D01*
X13946048Y-15826552D01*
X13965095Y-15836076D01*
X14003190Y-15836076D01*
X14022238Y-15826552D01*
X14031762Y-15817028D01*
X14041286Y-15797981D01*
X14041286Y-15750362D01*
X14031762Y-15731314D01*
X14022238Y-15721790D01*
X14003190Y-15712267D01*
X13965095Y-15712267D01*
X13946048Y-15721790D01*
X13936524Y-15731314D01*
X13927000Y-15750362D01*
X14117476Y-15636076D02*
X14117476Y-15674171D01*
X14193667Y-15636076D02*
X14193667Y-15674171D01*
X14488905Y-15912267D02*
X14479381Y-15902743D01*
X14460333Y-15874171D01*
X14450809Y-15855124D01*
X14441286Y-15826552D01*
X14431762Y-15778933D01*
X14431762Y-15740838D01*
X14441286Y-15693219D01*
X14450809Y-15664648D01*
X14460333Y-15645600D01*
X14479381Y-15617028D01*
X14488905Y-15607505D01*
X14650809Y-15702743D02*
X14650809Y-15836076D01*
X14603190Y-15626552D02*
X14555571Y-15769409D01*
X14679381Y-15769409D01*
X14907952Y-15836076D02*
X14907952Y-15636076D01*
X14993667Y-15836076D02*
X14993667Y-15731314D01*
X14984143Y-15712267D01*
X14965095Y-15702743D01*
X14936524Y-15702743D01*
X14917476Y-15712267D01*
X14907952Y-15721790D01*
X15117476Y-15836076D02*
X15098428Y-15826552D01*
X15088905Y-15817028D01*
X15079381Y-15797981D01*
X15079381Y-15740838D01*
X15088905Y-15721790D01*
X15098428Y-15712267D01*
X15117476Y-15702743D01*
X15146048Y-15702743D01*
X15165095Y-15712267D01*
X15174619Y-15721790D01*
X15184143Y-15740838D01*
X15184143Y-15797981D01*
X15174619Y-15817028D01*
X15165095Y-15826552D01*
X15146048Y-15836076D01*
X15117476Y-15836076D01*
X15298428Y-15836076D02*
X15279381Y-15826552D01*
X15269857Y-15807505D01*
X15269857Y-15636076D01*
X15450809Y-15826552D02*
X15431762Y-15836076D01*
X15393667Y-15836076D01*
X15374619Y-15826552D01*
X15365095Y-15807505D01*
X15365095Y-15731314D01*
X15374619Y-15712267D01*
X15393667Y-15702743D01*
X15431762Y-15702743D01*
X15450809Y-15712267D01*
X15460333Y-15731314D01*
X15460333Y-15750362D01*
X15365095Y-15769409D01*
X15536524Y-15826552D02*
X15555571Y-15836076D01*
X15593667Y-15836076D01*
X15612714Y-15826552D01*
X15622238Y-15807505D01*
X15622238Y-15797981D01*
X15612714Y-15778933D01*
X15593667Y-15769409D01*
X15565095Y-15769409D01*
X15546048Y-15759886D01*
X15536524Y-15740838D01*
X15536524Y-15731314D01*
X15546048Y-15712267D01*
X15565095Y-15702743D01*
X15593667Y-15702743D01*
X15612714Y-15712267D01*
X15688905Y-15912267D02*
X15698428Y-15902743D01*
X15717476Y-15874171D01*
X15727000Y-15855124D01*
X15736524Y-15826552D01*
X15746048Y-15778933D01*
X15746048Y-15740838D01*
X15736524Y-15693219D01*
X15727000Y-15664648D01*
X15717476Y-15645600D01*
X15698428Y-15617028D01*
X15688905Y-15607505D01*
X10817000Y-16165600D02*
X10917000Y-16065600D01*
X10817000Y-15965600D01*
X10717000Y-16065600D01*
X10817000Y-16165600D01*
X11155571Y-15956076D02*
X11279381Y-15956076D01*
X11212714Y-16032267D01*
X11241286Y-16032267D01*
X11260333Y-16041790D01*
X11269857Y-16051314D01*
X11279381Y-16070362D01*
X11279381Y-16117981D01*
X11269857Y-16137028D01*
X11260333Y-16146552D01*
X11241286Y-16156076D01*
X11184143Y-16156076D01*
X11165095Y-16146552D01*
X11155571Y-16137028D01*
X11365095Y-16137028D02*
X11374619Y-16146552D01*
X11365095Y-16156076D01*
X11355571Y-16146552D01*
X11365095Y-16137028D01*
X11365095Y-16156076D01*
X11450809Y-15975124D02*
X11460333Y-15965600D01*
X11479381Y-15956076D01*
X11527000Y-15956076D01*
X11546048Y-15965600D01*
X11555571Y-15975124D01*
X11565095Y-15994171D01*
X11565095Y-16013219D01*
X11555571Y-16041790D01*
X11441286Y-16156076D01*
X11565095Y-16156076D01*
X11688905Y-15956076D02*
X11707952Y-15956076D01*
X11727000Y-15965600D01*
X11736524Y-15975124D01*
X11746048Y-15994171D01*
X11755571Y-16032267D01*
X11755571Y-16079886D01*
X11746048Y-16117981D01*
X11736524Y-16137028D01*
X11727000Y-16146552D01*
X11707952Y-16156076D01*
X11688905Y-16156076D01*
X11669857Y-16146552D01*
X11660333Y-16137028D01*
X11650809Y-16117981D01*
X11641286Y-16079886D01*
X11641286Y-16032267D01*
X11650809Y-15994171D01*
X11660333Y-15975124D01*
X11669857Y-15965600D01*
X11688905Y-15956076D01*
X11879381Y-15956076D02*
X11898428Y-15956076D01*
X11917476Y-15965600D01*
X11927000Y-15975124D01*
X11936524Y-15994171D01*
X11946048Y-16032267D01*
X11946048Y-16079886D01*
X11936524Y-16117981D01*
X11927000Y-16137028D01*
X11917476Y-16146552D01*
X11898428Y-16156076D01*
X11879381Y-16156076D01*
X11860333Y-16146552D01*
X11850809Y-16137028D01*
X11841286Y-16117981D01*
X11831762Y-16079886D01*
X11831762Y-16032267D01*
X11841286Y-15994171D01*
X11850809Y-15975124D01*
X11860333Y-15965600D01*
X11879381Y-15956076D01*
X12031762Y-16156076D02*
X12031762Y-16022743D01*
X12031762Y-16041790D02*
X12041286Y-16032267D01*
X12060333Y-16022743D01*
X12088905Y-16022743D01*
X12107952Y-16032267D01*
X12117476Y-16051314D01*
X12117476Y-16156076D01*
X12117476Y-16051314D02*
X12127000Y-16032267D01*
X12146048Y-16022743D01*
X12174619Y-16022743D01*
X12193667Y-16032267D01*
X12203190Y-16051314D01*
X12203190Y-16156076D01*
X12298428Y-16156076D02*
X12298428Y-16022743D01*
X12298428Y-16041790D02*
X12307952Y-16032267D01*
X12327000Y-16022743D01*
X12355571Y-16022743D01*
X12374619Y-16032267D01*
X12384143Y-16051314D01*
X12384143Y-16156076D01*
X12384143Y-16051314D02*
X12393667Y-16032267D01*
X12412714Y-16022743D01*
X12441286Y-16022743D01*
X12460333Y-16032267D01*
X12469857Y-16051314D01*
X12469857Y-16156076D01*
X12860333Y-15946552D02*
X12688905Y-16203695D01*
X13117476Y-15956076D02*
X13136524Y-15956076D01*
X13155571Y-15965600D01*
X13165095Y-15975124D01*
X13174619Y-15994171D01*
X13184143Y-16032267D01*
X13184143Y-16079886D01*
X13174619Y-16117981D01*
X13165095Y-16137028D01*
X13155571Y-16146552D01*
X13136524Y-16156076D01*
X13117476Y-16156076D01*
X13098428Y-16146552D01*
X13088905Y-16137028D01*
X13079381Y-16117981D01*
X13069857Y-16079886D01*
X13069857Y-16032267D01*
X13079381Y-15994171D01*
X13088905Y-15975124D01*
X13098428Y-15965600D01*
X13117476Y-15956076D01*
X13269857Y-16137028D02*
X13279381Y-16146552D01*
X13269857Y-16156076D01*
X13260333Y-16146552D01*
X13269857Y-16137028D01*
X13269857Y-16156076D01*
X13469857Y-16156076D02*
X13355571Y-16156076D01*
X13412714Y-16156076D02*
X13412714Y-15956076D01*
X13393667Y-15984648D01*
X13374619Y-16003695D01*
X13355571Y-16013219D01*
X13546048Y-15975124D02*
X13555571Y-15965600D01*
X13574619Y-15956076D01*
X13622238Y-15956076D01*
X13641286Y-15965600D01*
X13650809Y-15975124D01*
X13660333Y-15994171D01*
X13660333Y-16013219D01*
X13650809Y-16041790D01*
X13536524Y-16156076D01*
X13660333Y-16156076D01*
X13831762Y-15956076D02*
X13793667Y-15956076D01*
X13774619Y-15965600D01*
X13765095Y-15975124D01*
X13746048Y-16003695D01*
X13736524Y-16041790D01*
X13736524Y-16117981D01*
X13746048Y-16137028D01*
X13755571Y-16146552D01*
X13774619Y-16156076D01*
X13812714Y-16156076D01*
X13831762Y-16146552D01*
X13841286Y-16137028D01*
X13850809Y-16117981D01*
X13850809Y-16070362D01*
X13841286Y-16051314D01*
X13831762Y-16041790D01*
X13812714Y-16032267D01*
X13774619Y-16032267D01*
X13755571Y-16041790D01*
X13746048Y-16051314D01*
X13736524Y-16070362D01*
X13974619Y-15956076D02*
X13993667Y-15956076D01*
X14012714Y-15965600D01*
X14022238Y-15975124D01*
X14031762Y-15994171D01*
X14041286Y-16032267D01*
X14041286Y-16079886D01*
X14031762Y-16117981D01*
X14022238Y-16137028D01*
X14012714Y-16146552D01*
X13993667Y-16156076D01*
X13974619Y-16156076D01*
X13955571Y-16146552D01*
X13946048Y-16137028D01*
X13936524Y-16117981D01*
X13927000Y-16079886D01*
X13927000Y-16032267D01*
X13936524Y-15994171D01*
X13946048Y-15975124D01*
X13955571Y-15965600D01*
X13974619Y-15956076D01*
X14117476Y-15956076D02*
X14117476Y-15994171D01*
X14193667Y-15956076D02*
X14193667Y-15994171D01*
X14488905Y-16232267D02*
X14479381Y-16222743D01*
X14460333Y-16194171D01*
X14450809Y-16175124D01*
X14441286Y-16146552D01*
X14431762Y-16098933D01*
X14431762Y-16060838D01*
X14441286Y-16013219D01*
X14450809Y-15984648D01*
X14460333Y-15965600D01*
X14479381Y-15937028D01*
X14488905Y-15927505D01*
X14650809Y-16022743D02*
X14650809Y-16156076D01*
X14603190Y-15946552D02*
X14555571Y-16089409D01*
X14679381Y-16089409D01*
X14907952Y-16156076D02*
X14907952Y-15956076D01*
X14993667Y-16156076D02*
X14993667Y-16051314D01*
X14984143Y-16032267D01*
X14965095Y-16022743D01*
X14936524Y-16022743D01*
X14917476Y-16032267D01*
X14907952Y-16041790D01*
X15117476Y-16156076D02*
X15098428Y-16146552D01*
X15088905Y-16137028D01*
X15079381Y-16117981D01*
X15079381Y-16060838D01*
X15088905Y-16041790D01*
X15098428Y-16032267D01*
X15117476Y-16022743D01*
X15146048Y-16022743D01*
X15165095Y-16032267D01*
X15174619Y-16041790D01*
X15184143Y-16060838D01*
X15184143Y-16117981D01*
X15174619Y-16137028D01*
X15165095Y-16146552D01*
X15146048Y-16156076D01*
X15117476Y-16156076D01*
X15298428Y-16156076D02*
X15279381Y-16146552D01*
X15269857Y-16127505D01*
X15269857Y-15956076D01*
X15450809Y-16146552D02*
X15431762Y-16156076D01*
X15393667Y-16156076D01*
X15374619Y-16146552D01*
X15365095Y-16127505D01*
X15365095Y-16051314D01*
X15374619Y-16032267D01*
X15393667Y-16022743D01*
X15431762Y-16022743D01*
X15450809Y-16032267D01*
X15460333Y-16051314D01*
X15460333Y-16070362D01*
X15365095Y-16089409D01*
X15536524Y-16146552D02*
X15555571Y-16156076D01*
X15593667Y-16156076D01*
X15612714Y-16146552D01*
X15622238Y-16127505D01*
X15622238Y-16117981D01*
X15612714Y-16098933D01*
X15593667Y-16089409D01*
X15565095Y-16089409D01*
X15546048Y-16079886D01*
X15536524Y-16060838D01*
X15536524Y-16051314D01*
X15546048Y-16032267D01*
X15565095Y-16022743D01*
X15593667Y-16022743D01*
X15612714Y-16032267D01*
X15688905Y-16232267D02*
X15698428Y-16222743D01*
X15717476Y-16194171D01*
X15727000Y-16175124D01*
X15736524Y-16146552D01*
X15746048Y-16098933D01*
X15746048Y-16060838D01*
X15736524Y-16013219D01*
X15727000Y-15984648D01*
X15717476Y-15965600D01*
X15698428Y-15937028D01*
X15688905Y-15927505D01*
M02*
