M48
; DRILL file {KiCad (6.0.7)} date Thu May  4 23:35:55 2023
; FORMAT={-:-/ absolute / metric / decimal}
; #@! TF.CreationDate,2023-05-04T23:35:55-04:00
; #@! TF.GenerationSoftware,Kicad,Pcbnew,(6.0.7)
; #@! TF.FileFunction,Plated,1,4,PTH
FMAT,2
METRIC
; #@! TA.AperFunction,Plated,PTH,ViaDrill
T1C0.300
; #@! TA.AperFunction,Plated,PTH,ComponentDrill
T2C0.300
; #@! TA.AperFunction,Plated,PTH,ViaDrill
T3C0.400
; #@! TA.AperFunction,Plated,PTH,ComponentDrill
T4C0.700
; #@! TA.AperFunction,Plated,PTH,ComponentDrill
T5C0.762
; #@! TA.AperFunction,Plated,PTH,ComponentDrill
T6C0.800
; #@! TA.AperFunction,Plated,PTH,ComponentDrill
T7C1.000
; #@! TA.AperFunction,Plated,PTH,ComponentDrill
T8C1.830
; #@! TA.AperFunction,Plated,PTH,ComponentDrill
T9C2.200
; #@! TA.AperFunction,Plated,PTH,ComponentDrill
T10C3.200
%
G90
G05
T1
X112.776Y-83.566
X116.332Y-83.058
X116.332Y-84.074
X122.682Y-124.206
X123.672Y-85.318
X123.698Y-84.328
X123.698Y-86.36
X123.698Y-87.26
X123.725Y-99.974
X124.206Y-78.232
X127.0Y-79.248
X127.254Y-86.106
X128.27Y-61.214
X128.27Y-86.106
X128.27Y-91.948
X128.524Y-78.74
X129.032Y-83.058
X129.801Y-117.137
X131.318Y-123.19
X131.826Y-86.106
X132.588Y-81.026
X136.398Y-104.699
X136.906Y-107.188
X138.43Y-104.699
X138.43Y-119.888
X140.716Y-90.932
X140.716Y-95.758
X144.018Y-116.586
X144.78Y-62.23
X145.034Y-113.03
X146.558Y-109.728
X146.558Y-110.744
X147.32Y-116.332
X148.336Y-119.126
X148.59Y-108.712
X148.844Y-116.332
X151.13Y-98.298
X151.384Y-108.712
X151.384Y-109.728
X151.384Y-110.744
X151.892Y-92.456
X151.892Y-93.472
X153.924Y-107.442
X153.924Y-130.81
X154.432Y-85.09
X159.512Y-103.886
X161.544Y-104.902
X162.56Y-125.222
X163.83Y-105.918
X168.91Y-97.028
X170.434Y-89.408
X172.212Y-86.106
X172.212Y-87.122
X172.72Y-62.23
X172.72Y-89.408
X173.482Y-121.666
X175.26Y-72.39
X175.796Y-64.466
X176.53Y-63.5
X176.908Y-70.716
X178.283Y-70.104
X179.299Y-64.516
X179.578Y-107.696
X180.34Y-112.776
X180.694Y-70.402
X180.848Y-64.516
X181.102Y-102.616
X181.356Y-110.998
X181.356Y-114.171
X181.864Y-116.078
X183.896Y-118.614
X184.15Y-139.954
X184.15Y-140.97
X184.912Y-114.171
X186.69Y-105.09
X186.8Y-112.71
X187.602Y-111.935
X187.96Y-107.188
X188.468Y-111.252
X188.722Y-78.232
X188.976Y-61.214
X188.976Y-105.41
X188.976Y-108.395
X190.246Y-100.33
X191.372Y-97.724
X192.024Y-108.584
X192.024Y-109.728
X193.294Y-104.394
X193.802Y-111.252
X194.31Y-106.68
X194.818Y-84.836
X195.58Y-123.19
X197.104Y-81.788
T2
X125.6Y-100.2
X125.6Y-101.2
X126.1Y-100.7
X126.6Y-100.2
X126.6Y-101.2
X148.35Y-113.15
X148.35Y-114.15
X148.85Y-113.65
X149.35Y-113.15
X149.35Y-114.15
T3
X115.57Y-82.4
X119.75Y-99.3
X121.412Y-83.566
X121.618Y-85.393
X122.075Y-82.32
X122.51Y-81.174
X122.75Y-97.1
X126.492Y-106.68
X130.1Y-97.05
X130.12Y-95.514
X130.14Y-93.98
X132.037Y-91.112
X133.604Y-62.992
X136.725Y-87.21
X139.675Y-92.325
X144.018Y-97.536
X147.32Y-96.266
X170.18Y-62.992
X176.9Y-87.075
X183.134Y-131.318
T4
X124.618Y-134.067
X124.618Y-136.067
X126.618Y-134.067
X126.618Y-136.067
X128.618Y-134.067
X128.618Y-136.067
X130.618Y-134.067
X130.618Y-136.067
T5
X123.19Y-52.07
X123.19Y-54.61
X123.19Y-57.15
X123.19Y-59.69
X125.73Y-52.07
X125.73Y-54.61
X125.73Y-57.15
X125.73Y-59.69
X128.27Y-52.07
X128.27Y-54.61
X128.27Y-57.15
X128.27Y-59.69
X130.81Y-52.07
X130.81Y-54.61
X130.81Y-57.15
X130.81Y-59.69
X133.35Y-52.07
X133.35Y-54.61
X133.35Y-57.15
X133.35Y-59.69
X135.89Y-52.07
X135.89Y-54.61
X135.89Y-57.15
X135.89Y-59.69
X138.43Y-52.07
X138.43Y-54.61
X138.43Y-57.15
X138.43Y-59.69
X140.97Y-52.07
X140.97Y-54.61
X140.97Y-57.15
X140.97Y-59.69
X143.51Y-52.07
X143.51Y-54.61
X143.51Y-57.15
X143.51Y-59.69
X146.05Y-52.07
X146.05Y-54.61
X146.05Y-57.15
X146.05Y-59.69
X148.59Y-52.07
X148.59Y-54.61
X148.59Y-57.15
X148.59Y-59.69
X151.13Y-52.07
X151.13Y-54.61
X151.13Y-57.15
X151.13Y-59.69
X153.67Y-52.07
X153.67Y-54.61
X153.67Y-57.15
X153.67Y-59.69
X156.21Y-52.07
X156.21Y-54.61
X156.21Y-57.15
X156.21Y-59.69
X158.75Y-52.07
X158.75Y-54.61
X158.75Y-57.15
X158.75Y-59.69
X161.29Y-52.07
X161.29Y-54.61
X161.29Y-57.15
X161.29Y-59.69
X163.83Y-52.07
X163.83Y-54.61
X163.83Y-57.15
X163.83Y-59.69
X166.37Y-52.07
X166.37Y-54.61
X166.37Y-57.15
X166.37Y-59.69
X168.91Y-52.07
X168.91Y-54.61
X168.91Y-57.15
X168.91Y-59.69
X171.45Y-52.07
X171.45Y-54.61
X171.45Y-57.15
X171.45Y-59.69
X173.99Y-52.07
X173.99Y-54.61
X173.99Y-57.15
X173.99Y-59.69
X176.53Y-52.07
X176.53Y-54.61
X176.53Y-57.15
X176.53Y-59.69
X179.07Y-52.07
X179.07Y-54.61
X179.07Y-57.15
X179.07Y-59.69
X181.61Y-52.07
X181.61Y-54.61
X181.61Y-57.15
X181.61Y-59.69
X184.15Y-52.07
X184.15Y-54.61
X184.15Y-57.15
X184.15Y-59.69
X186.69Y-52.07
X186.69Y-54.61
X186.69Y-57.15
X186.69Y-59.69
T6
X116.078Y-96.298
X116.078Y-98.298
X136.652Y-88.957
X136.652Y-96.577
X138.6Y-135.45
X140.6Y-135.45
X171.375Y-135.525
X173.375Y-135.525
X175.375Y-135.525
X177.038Y-88.9
X177.038Y-96.52
X179.225Y-135.475
X181.225Y-135.475
X183.225Y-135.475
X187.452Y-135.906
X187.452Y-137.906
T7
X111.272Y-70.134
X111.272Y-72.674
X111.272Y-75.214
X111.272Y-77.754
X111.272Y-80.294
X111.526Y-117.119
X111.526Y-119.659
X111.526Y-122.199
X111.526Y-124.739
X111.526Y-127.279
X111.526Y-129.819
X113.812Y-70.134
X113.812Y-72.674
X113.812Y-75.214
X113.812Y-77.754
X113.812Y-80.294
X114.066Y-117.119
X114.066Y-119.659
X114.066Y-122.199
X114.066Y-124.739
X114.066Y-127.279
X114.066Y-129.819
X115.316Y-89.916
X177.546Y-100.838
X177.546Y-105.664
X177.546Y-110.236
X187.96Y-94.742
T8
X123.571Y-73.406
X123.571Y-121.406
X126.111Y-65.786
X126.111Y-129.032
X128.651Y-73.406
X128.651Y-121.406
X144.018Y-73.444
X144.018Y-121.444
X146.558Y-65.818
X146.558Y-129.064
X149.098Y-73.444
X149.098Y-121.444
X164.211Y-73.406
X164.211Y-121.406
X166.751Y-65.786
X166.751Y-129.032
X169.291Y-73.406
X169.291Y-121.406
X184.658Y-73.444
X184.658Y-121.444
X187.198Y-65.818
X187.198Y-129.064
X189.738Y-73.444
X189.738Y-121.444
T9
X136.398Y-77.724
X136.398Y-117.856
X177.038Y-77.724
X177.038Y-117.856
T10
X114.3Y-137.795
X118.11Y-52.07
X191.77Y-52.07
X194.31Y-137.922
T0
M30
