M48
;DRILL file {KiCad 4.0.7} date 05/18/18 17:47:49
;FORMAT={-:-/ absolute / metric / decimal}
FMAT,2
METRIC,TZ
T1C0.250
T2C0.400
T3C1.600
T4C3.180
T5C3.200
%
G90
G05
M71
T2
X105.7Y-69.49
X170.51Y-108.65
T3
X108.05Y-60.4
X108.05Y-79.7
X108.05Y-99.
X108.05Y-118.3
X180.96Y-60.4
X180.96Y-79.7
X180.96Y-99.
X180.96Y-118.3
T4
X101.635Y-51.885
X101.635Y-125.545
X187.365Y-49.345
X187.365Y-129.355
T5
X124.505Y-47.9
X124.505Y-130.8
X164.505Y-47.9
X164.505Y-130.8
T1
X102.24Y-86.912G85X102.24Y-86.412
G05
X102.24Y-88.409G85X102.24Y-87.909
G05
X102.24Y-89.906G85X102.24Y-89.406
G05
X102.24Y-91.403G85X102.24Y-90.903
G05
T0
M30
