G04 #@! TF.FileFunction,Copper,L1,Top,Signal*
%FSLAX46Y46*%
G04 Gerber Fmt 4.6, Leading zero omitted, Abs format (unit mm)*
G04 Created by KiCad (PCBNEW 4.0.7) date 05/18/18 17:47:47*
%MOMM*%
%LPD*%
G01*
G04 APERTURE LIST*
%ADD10C,0.100000*%
%ADD11C,5.000000*%
%ADD12C,6.350000*%
%ADD13C,2.500000*%
%ADD14O,0.400000X0.900000*%
%ADD15C,0.600000*%
%ADD16C,0.450000*%
G04 APERTURE END LIST*
D10*
D11*
X164505000Y-130800000D03*
X164505000Y-47900000D03*
D12*
X187365000Y-129355000D03*
X187365000Y-49345000D03*
X101635000Y-125545000D03*
D13*
X108050000Y-60400000D03*
X180960000Y-60400000D03*
X108050000Y-79700000D03*
X108050000Y-99000000D03*
X108050000Y-118300000D03*
X180960000Y-79700000D03*
X180960000Y-99000000D03*
X180960000Y-118300000D03*
D12*
X101635000Y-51885000D03*
D11*
X124505000Y-47900000D03*
X124505000Y-130800000D03*
D14*
X102240000Y-91153000D03*
X102240000Y-89656000D03*
X102240000Y-88159000D03*
X102240000Y-86662000D03*
D15*
X170510000Y-108650000D03*
X105700000Y-69490000D03*
D16*
X180960000Y-108650000D02*
X170510000Y-108650000D01*
X105710000Y-69480000D02*
X108050000Y-69480000D01*
X105700000Y-69490000D02*
X105710000Y-69480000D01*
X123830000Y-93120000D02*
X157590000Y-93120000D01*
X157590000Y-93120000D02*
X180960000Y-69750000D01*
X108050000Y-108660000D02*
X108260000Y-108660000D01*
X123800000Y-93120000D02*
X123830000Y-93120000D01*
X108260000Y-108660000D02*
X123800000Y-93120000D01*
X108050000Y-118300000D02*
X108050000Y-109250000D01*
X108050000Y-109250000D02*
X108050000Y-108660000D01*
X108050000Y-108660000D02*
X108050000Y-99000000D01*
X180960000Y-118300000D02*
X180960000Y-108650000D01*
X180960000Y-108650000D02*
X180960000Y-108200000D01*
X180960000Y-108200000D02*
X180960000Y-99000000D01*
X180960000Y-60400000D02*
X180960000Y-68700000D01*
X180960000Y-68700000D02*
X180960000Y-69750000D01*
X180960000Y-69750000D02*
X180960000Y-70050000D01*
X180960000Y-70050000D02*
X180960000Y-79700000D01*
X108050000Y-79700000D02*
X108050000Y-70050000D01*
X108050000Y-69820000D02*
X108050000Y-69480000D01*
X108050000Y-70050000D02*
X108050000Y-69820000D01*
X108050000Y-69480000D02*
X108050000Y-69300000D01*
X108050000Y-69300000D02*
X108050000Y-60400000D01*
M02*
