G04 #@! TF.FileFunction,Copper,L2,Bot,Signal*
%FSLAX46Y46*%
G04 Gerber Fmt 4.6, Leading zero omitted, Abs format (unit mm)*
G04 Created by KiCad (PCBNEW 4.0.7) date 05/18/18 17:47:47*
%MOMM*%
%LPD*%
G01*
G04 APERTURE LIST*
%ADD10C,0.100000*%
%ADD11C,5.000000*%
%ADD12C,6.350000*%
%ADD13C,2.500000*%
%ADD14O,0.400000X0.900000*%
%ADD15C,0.600000*%
%ADD16C,0.450000*%
G04 APERTURE END LIST*
D10*
D11*
X164505000Y-130800000D03*
X164505000Y-47900000D03*
D12*
X187365000Y-129355000D03*
X187365000Y-49345000D03*
X101635000Y-125545000D03*
D13*
X108050000Y-60400000D03*
X180960000Y-60400000D03*
X108050000Y-79700000D03*
X108050000Y-99000000D03*
X108050000Y-118300000D03*
X180960000Y-79700000D03*
X180960000Y-99000000D03*
X180960000Y-118300000D03*
D12*
X101635000Y-51885000D03*
D11*
X124505000Y-47900000D03*
X124505000Y-130800000D03*
D14*
X102240000Y-91153000D03*
X102240000Y-89656000D03*
X102240000Y-88159000D03*
X102240000Y-86662000D03*
D15*
X170510000Y-108650000D03*
X105700000Y-69490000D03*
D16*
X106565000Y-89325000D02*
X102571000Y-89325000D01*
X102571000Y-89325000D02*
X102240000Y-89656000D01*
X104737000Y-91153000D02*
X102240000Y-91153000D01*
X106580000Y-89310000D02*
X106565000Y-89325000D01*
X106565000Y-89325000D02*
X104737000Y-91153000D01*
X151170000Y-89310000D02*
X106580000Y-89310000D01*
X170510000Y-108650000D02*
X151170000Y-89310000D01*
X104800000Y-84710000D02*
X104800000Y-70390000D01*
X104800000Y-70390000D02*
X105700000Y-69490000D01*
X104800000Y-84710000D02*
X104192000Y-84710000D01*
X104192000Y-84710000D02*
X102240000Y-86662000D01*
X104800000Y-85599000D02*
X102240000Y-88159000D01*
X104800000Y-84710000D02*
X104800000Y-85599000D01*
M02*
