G04 #@! TF.FileFunction,Profile,NP*
%FSLAX46Y46*%
G04 Gerber Fmt 4.6, Leading zero omitted, Abs format (unit mm)*
G04 Created by KiCad (PCBNEW 4.0.7) date 05/18/18 17:47:47*
%MOMM*%
%LPD*%
G01*
G04 APERTURE LIST*
%ADD10C,0.100000*%
%ADD11C,0.150000*%
G04 APERTURE END LIST*
D10*
D11*
X190860000Y-118730000D02*
X192430000Y-118730000D01*
X192430000Y-59980000D02*
X192430000Y-118730000D01*
X176950000Y-45910000D02*
X191140000Y-45910000D01*
X191140000Y-59980000D02*
X191140000Y-45910000D01*
X192430000Y-59980000D02*
X191140000Y-59980000D01*
X113860000Y-44260000D02*
X176950000Y-44260000D01*
X176950000Y-44280000D02*
X176950000Y-45910000D01*
X176930000Y-132930000D02*
X190860000Y-132930000D01*
X190860000Y-118730000D02*
X190860000Y-132930000D01*
X112070000Y-134420000D02*
X176930000Y-134420000D01*
X176930000Y-134410000D02*
X176930000Y-132930000D01*
X97960000Y-119030000D02*
X97960000Y-132040000D01*
X112070000Y-132040000D02*
X97960000Y-132040000D01*
X112070000Y-134420000D02*
X112070000Y-132040000D01*
X96560000Y-59990000D02*
X98120000Y-59990000D01*
X96560000Y-119030000D02*
X96560000Y-59990000D01*
X97670000Y-119030000D02*
X97960000Y-119030000D01*
X96560000Y-119030000D02*
X97730000Y-119030000D01*
X98120000Y-59990000D02*
X98120000Y-46440000D01*
X113860000Y-46440000D02*
X98120000Y-46440000D01*
X113860000Y-44260000D02*
X113860000Y-46440000D01*
M02*
