%TF.GenerationSoftware,KiCad,Pcbnew,(6.0.1)*%
%TF.CreationDate,2022-02-13T11:40:04-05:00*%
%TF.ProjectId,STM32_Breakout,53544d33-325f-4427-9265-616b6f75742e,rev?*%
%TF.SameCoordinates,Original*%
%TF.FileFunction,Legend,Bot*%
%TF.FilePolarity,Positive*%
%FSLAX46Y46*%
G04 Gerber Fmt 4.6, Leading zero omitted, Abs format (unit mm)*
G04 Created by KiCad (PCBNEW (6.0.1)) date 2022-02-13 11:40:04*
%MOMM*%
%LPD*%
G01*
G04 APERTURE LIST*
%ADD10C,0.150000*%
G04 APERTURE END LIST*
D10*
X143476023Y-100928619D02*
X143428404Y-100881000D01*
X143333166Y-100833380D01*
X143095071Y-100833380D01*
X142999833Y-100881000D01*
X142952214Y-100928619D01*
X142904595Y-101023857D01*
X142904595Y-101119095D01*
X142952214Y-101261952D01*
X143523642Y-101833380D01*
X142904595Y-101833380D01*
X142285547Y-100833380D02*
X142190309Y-100833380D01*
X142095071Y-100881000D01*
X142047452Y-100928619D01*
X141999833Y-101023857D01*
X141952214Y-101214333D01*
X141952214Y-101452428D01*
X141999833Y-101642904D01*
X142047452Y-101738142D01*
X142095071Y-101785761D01*
X142190309Y-101833380D01*
X142285547Y-101833380D01*
X142380785Y-101785761D01*
X142428404Y-101738142D01*
X142476023Y-101642904D01*
X142523642Y-101452428D01*
X142523642Y-101214333D01*
X142476023Y-101023857D01*
X142428404Y-100928619D01*
X142380785Y-100881000D01*
X142285547Y-100833380D01*
X141571261Y-100928619D02*
X141523642Y-100881000D01*
X141428404Y-100833380D01*
X141190309Y-100833380D01*
X141095071Y-100881000D01*
X141047452Y-100928619D01*
X140999833Y-101023857D01*
X140999833Y-101119095D01*
X141047452Y-101261952D01*
X141618880Y-101833380D01*
X140999833Y-101833380D01*
X140047452Y-101833380D02*
X140618880Y-101833380D01*
X140333166Y-101833380D02*
X140333166Y-100833380D01*
X140428404Y-100976238D01*
X140523642Y-101071476D01*
X140618880Y-101119095D01*
X139618880Y-101452428D02*
X138856976Y-101452428D01*
X138428404Y-100928619D02*
X138380785Y-100881000D01*
X138285547Y-100833380D01*
X138047452Y-100833380D01*
X137952214Y-100881000D01*
X137904595Y-100928619D01*
X137856976Y-101023857D01*
X137856976Y-101119095D01*
X137904595Y-101261952D01*
X138476023Y-101833380D01*
X137856976Y-101833380D01*
X137237928Y-100833380D02*
X137142690Y-100833380D01*
X137047452Y-100881000D01*
X136999833Y-100928619D01*
X136952214Y-101023857D01*
X136904595Y-101214333D01*
X136904595Y-101452428D01*
X136952214Y-101642904D01*
X136999833Y-101738142D01*
X137047452Y-101785761D01*
X137142690Y-101833380D01*
X137237928Y-101833380D01*
X137333166Y-101785761D01*
X137380785Y-101738142D01*
X137428404Y-101642904D01*
X137476023Y-101452428D01*
X137476023Y-101214333D01*
X137428404Y-101023857D01*
X137380785Y-100928619D01*
X137333166Y-100881000D01*
X137237928Y-100833380D01*
X136523642Y-100928619D02*
X136476023Y-100881000D01*
X136380785Y-100833380D01*
X136142690Y-100833380D01*
X136047452Y-100881000D01*
X135999833Y-100928619D01*
X135952214Y-101023857D01*
X135952214Y-101119095D01*
X135999833Y-101261952D01*
X136571261Y-101833380D01*
X135952214Y-101833380D01*
X135571261Y-100928619D02*
X135523642Y-100881000D01*
X135428404Y-100833380D01*
X135190309Y-100833380D01*
X135095071Y-100881000D01*
X135047452Y-100928619D01*
X134999833Y-101023857D01*
X134999833Y-101119095D01*
X135047452Y-101261952D01*
X135618880Y-101833380D01*
X134999833Y-101833380D01*
X133618880Y-100833380D02*
X133428404Y-100833380D01*
X133333166Y-100881000D01*
X133237928Y-100976238D01*
X133190309Y-101166714D01*
X133190309Y-101500047D01*
X133237928Y-101690523D01*
X133333166Y-101785761D01*
X133428404Y-101833380D01*
X133618880Y-101833380D01*
X133714119Y-101785761D01*
X133809357Y-101690523D01*
X133856976Y-101500047D01*
X133856976Y-101166714D01*
X133809357Y-100976238D01*
X133714119Y-100881000D01*
X133618880Y-100833380D01*
X132428404Y-101309571D02*
X132285547Y-101357190D01*
X132237928Y-101404809D01*
X132190309Y-101500047D01*
X132190309Y-101642904D01*
X132237928Y-101738142D01*
X132285547Y-101785761D01*
X132380785Y-101833380D01*
X132761738Y-101833380D01*
X132761738Y-100833380D01*
X132428404Y-100833380D01*
X132333166Y-100881000D01*
X132285547Y-100928619D01*
X132237928Y-101023857D01*
X132237928Y-101119095D01*
X132285547Y-101214333D01*
X132333166Y-101261952D01*
X132428404Y-101309571D01*
X132761738Y-101309571D01*
X131190309Y-101738142D02*
X131237928Y-101785761D01*
X131380785Y-101833380D01*
X131476023Y-101833380D01*
X131618880Y-101785761D01*
X131714119Y-101690523D01*
X131761738Y-101595285D01*
X131809357Y-101404809D01*
X131809357Y-101261952D01*
X131761738Y-101071476D01*
X131714119Y-100976238D01*
X131618880Y-100881000D01*
X131476023Y-100833380D01*
X131380785Y-100833380D01*
X131237928Y-100881000D01*
X131190309Y-100928619D01*
X130142690Y-100833380D02*
X129571261Y-100833380D01*
X129856976Y-101833380D02*
X129856976Y-100833380D01*
X128856976Y-101785761D02*
X128952214Y-101833380D01*
X129142690Y-101833380D01*
X129237928Y-101785761D01*
X129285547Y-101690523D01*
X129285547Y-101309571D01*
X129237928Y-101214333D01*
X129142690Y-101166714D01*
X128952214Y-101166714D01*
X128856976Y-101214333D01*
X128809357Y-101309571D01*
X128809357Y-101404809D01*
X129285547Y-101500047D01*
X127952214Y-101833380D02*
X127952214Y-101309571D01*
X127999833Y-101214333D01*
X128095071Y-101166714D01*
X128285547Y-101166714D01*
X128380785Y-101214333D01*
X127952214Y-101785761D02*
X128047452Y-101833380D01*
X128285547Y-101833380D01*
X128380785Y-101785761D01*
X128428404Y-101690523D01*
X128428404Y-101595285D01*
X128380785Y-101500047D01*
X128285547Y-101452428D01*
X128047452Y-101452428D01*
X127952214Y-101404809D01*
X127476023Y-101833380D02*
X127476023Y-101166714D01*
X127476023Y-101261952D02*
X127428404Y-101214333D01*
X127333166Y-101166714D01*
X127190309Y-101166714D01*
X127095071Y-101214333D01*
X127047452Y-101309571D01*
X127047452Y-101833380D01*
X127047452Y-101309571D02*
X126999833Y-101214333D01*
X126904595Y-101166714D01*
X126761738Y-101166714D01*
X126666500Y-101214333D01*
X126618880Y-101309571D01*
X126618880Y-101833380D01*
X126142690Y-101738142D02*
X126095071Y-101785761D01*
X126142690Y-101833380D01*
X126190309Y-101785761D01*
X126142690Y-101738142D01*
X126142690Y-101833380D01*
X126142690Y-101214333D02*
X126095071Y-101261952D01*
X126142690Y-101309571D01*
X126190309Y-101261952D01*
X126142690Y-101214333D01*
X126142690Y-101309571D01*
X143142690Y-102443380D02*
X143142690Y-103157666D01*
X143190309Y-103300523D01*
X143285547Y-103395761D01*
X143428404Y-103443380D01*
X143523642Y-103443380D01*
X142237928Y-103443380D02*
X142237928Y-102919571D01*
X142285547Y-102824333D01*
X142380785Y-102776714D01*
X142571261Y-102776714D01*
X142666500Y-102824333D01*
X142237928Y-103395761D02*
X142333166Y-103443380D01*
X142571261Y-103443380D01*
X142666500Y-103395761D01*
X142714119Y-103300523D01*
X142714119Y-103205285D01*
X142666500Y-103110047D01*
X142571261Y-103062428D01*
X142333166Y-103062428D01*
X142237928Y-103014809D01*
X141761738Y-103443380D02*
X141761738Y-102443380D01*
X141666500Y-103062428D02*
X141380785Y-103443380D01*
X141380785Y-102776714D02*
X141761738Y-103157666D01*
X140571261Y-103395761D02*
X140666500Y-103443380D01*
X140856976Y-103443380D01*
X140952214Y-103395761D01*
X140999833Y-103300523D01*
X140999833Y-102919571D01*
X140952214Y-102824333D01*
X140856976Y-102776714D01*
X140666500Y-102776714D01*
X140571261Y-102824333D01*
X140523642Y-102919571D01*
X140523642Y-103014809D01*
X140999833Y-103110047D01*
X139333166Y-103443380D02*
X139333166Y-102443380D01*
X138999833Y-103157666D01*
X138666500Y-102443380D01*
X138666500Y-103443380D01*
X138190309Y-103443380D02*
X138190309Y-102776714D01*
X138190309Y-102443380D02*
X138237928Y-102491000D01*
X138190309Y-102538619D01*
X138142690Y-102491000D01*
X138190309Y-102443380D01*
X138190309Y-102538619D01*
X137571261Y-103443380D02*
X137666500Y-103395761D01*
X137714119Y-103300523D01*
X137714119Y-102443380D01*
X137047452Y-103443380D02*
X137142690Y-103395761D01*
X137190309Y-103300523D01*
X137190309Y-102443380D01*
X136285547Y-103395761D02*
X136380785Y-103443380D01*
X136571261Y-103443380D01*
X136666500Y-103395761D01*
X136714119Y-103300523D01*
X136714119Y-102919571D01*
X136666500Y-102824333D01*
X136571261Y-102776714D01*
X136380785Y-102776714D01*
X136285547Y-102824333D01*
X136237928Y-102919571D01*
X136237928Y-103014809D01*
X136714119Y-103110047D01*
X135904595Y-102776714D02*
X135666500Y-103443380D01*
X135428404Y-102776714D02*
X135666500Y-103443380D01*
X135761738Y-103681476D01*
X135809357Y-103729095D01*
X135904595Y-103776714D01*
X143476023Y-105005761D02*
X143333166Y-105053380D01*
X143095071Y-105053380D01*
X142999833Y-105005761D01*
X142952214Y-104958142D01*
X142904595Y-104862904D01*
X142904595Y-104767666D01*
X142952214Y-104672428D01*
X142999833Y-104624809D01*
X143095071Y-104577190D01*
X143285547Y-104529571D01*
X143380785Y-104481952D01*
X143428404Y-104434333D01*
X143476023Y-104339095D01*
X143476023Y-104243857D01*
X143428404Y-104148619D01*
X143380785Y-104101000D01*
X143285547Y-104053380D01*
X143047452Y-104053380D01*
X142904595Y-104101000D01*
X142476023Y-105053380D02*
X142476023Y-104053380D01*
X142047452Y-105053380D02*
X142047452Y-104529571D01*
X142095071Y-104434333D01*
X142190309Y-104386714D01*
X142333166Y-104386714D01*
X142428404Y-104434333D01*
X142476023Y-104481952D01*
X141190309Y-105005761D02*
X141285547Y-105053380D01*
X141476023Y-105053380D01*
X141571261Y-105005761D01*
X141618880Y-104910523D01*
X141618880Y-104529571D01*
X141571261Y-104434333D01*
X141476023Y-104386714D01*
X141285547Y-104386714D01*
X141190309Y-104434333D01*
X141142690Y-104529571D01*
X141142690Y-104624809D01*
X141618880Y-104720047D01*
X140714119Y-104386714D02*
X140714119Y-105053380D01*
X140714119Y-104481952D02*
X140666500Y-104434333D01*
X140571261Y-104386714D01*
X140428404Y-104386714D01*
X140333166Y-104434333D01*
X140285547Y-104529571D01*
X140285547Y-105053380D01*
X139380785Y-104386714D02*
X139380785Y-105196238D01*
X139428404Y-105291476D01*
X139476023Y-105339095D01*
X139571261Y-105386714D01*
X139714119Y-105386714D01*
X139809357Y-105339095D01*
X139380785Y-105005761D02*
X139476023Y-105053380D01*
X139666500Y-105053380D01*
X139761738Y-105005761D01*
X139809357Y-104958142D01*
X139856976Y-104862904D01*
X139856976Y-104577190D01*
X139809357Y-104481952D01*
X139761738Y-104434333D01*
X139666500Y-104386714D01*
X139476023Y-104386714D01*
X139380785Y-104434333D01*
X138904595Y-105053380D02*
X138904595Y-104053380D01*
X138476023Y-105053380D02*
X138476023Y-104529571D01*
X138523642Y-104434333D01*
X138618880Y-104386714D01*
X138761738Y-104386714D01*
X138856976Y-104434333D01*
X138904595Y-104481952D01*
X137571261Y-105053380D02*
X137571261Y-104529571D01*
X137618880Y-104434333D01*
X137714119Y-104386714D01*
X137904595Y-104386714D01*
X137999833Y-104434333D01*
X137571261Y-105005761D02*
X137666500Y-105053380D01*
X137904595Y-105053380D01*
X137999833Y-105005761D01*
X138047452Y-104910523D01*
X138047452Y-104815285D01*
X137999833Y-104720047D01*
X137904595Y-104672428D01*
X137666500Y-104672428D01*
X137571261Y-104624809D01*
X136952214Y-105053380D02*
X137047452Y-105005761D01*
X137095071Y-104958142D01*
X137142690Y-104862904D01*
X137142690Y-104577190D01*
X137095071Y-104481952D01*
X137047452Y-104434333D01*
X136952214Y-104386714D01*
X136809357Y-104386714D01*
X136714119Y-104434333D01*
X136666500Y-104481952D01*
X136618880Y-104577190D01*
X136618880Y-104862904D01*
X136666500Y-104958142D01*
X136714119Y-105005761D01*
X136809357Y-105053380D01*
X136952214Y-105053380D01*
X135142690Y-104053380D02*
X135142690Y-104767666D01*
X135190309Y-104910523D01*
X135285547Y-105005761D01*
X135428404Y-105053380D01*
X135523642Y-105053380D01*
X134666500Y-105053380D02*
X134666500Y-104386714D01*
X134666500Y-104053380D02*
X134714119Y-104101000D01*
X134666500Y-104148619D01*
X134618880Y-104101000D01*
X134666500Y-104053380D01*
X134666500Y-104148619D01*
X134190309Y-104386714D02*
X134190309Y-105053380D01*
X134190309Y-104481952D02*
X134142690Y-104434333D01*
X134047452Y-104386714D01*
X133904595Y-104386714D01*
X133809357Y-104434333D01*
X133761738Y-104529571D01*
X133761738Y-105053380D01*
X143142690Y-105663380D02*
X143142690Y-106377666D01*
X143190309Y-106520523D01*
X143285547Y-106615761D01*
X143428404Y-106663380D01*
X143523642Y-106663380D01*
X142285547Y-106615761D02*
X142380785Y-106663380D01*
X142571261Y-106663380D01*
X142666500Y-106615761D01*
X142714119Y-106520523D01*
X142714119Y-106139571D01*
X142666500Y-106044333D01*
X142571261Y-105996714D01*
X142380785Y-105996714D01*
X142285547Y-106044333D01*
X142237928Y-106139571D01*
X142237928Y-106234809D01*
X142714119Y-106330047D01*
X141809357Y-106663380D02*
X141809357Y-105996714D01*
X141809357Y-106187190D02*
X141761738Y-106091952D01*
X141714119Y-106044333D01*
X141618880Y-105996714D01*
X141523642Y-105996714D01*
X140809357Y-106615761D02*
X140904595Y-106663380D01*
X141095071Y-106663380D01*
X141190309Y-106615761D01*
X141237928Y-106520523D01*
X141237928Y-106139571D01*
X141190309Y-106044333D01*
X141095071Y-105996714D01*
X140904595Y-105996714D01*
X140809357Y-106044333D01*
X140761738Y-106139571D01*
X140761738Y-106234809D01*
X141237928Y-106330047D01*
X140333166Y-106663380D02*
X140333166Y-105996714D01*
X140333166Y-106091952D02*
X140285547Y-106044333D01*
X140190309Y-105996714D01*
X140047452Y-105996714D01*
X139952214Y-106044333D01*
X139904595Y-106139571D01*
X139904595Y-106663380D01*
X139904595Y-106139571D02*
X139856976Y-106044333D01*
X139761738Y-105996714D01*
X139618880Y-105996714D01*
X139523642Y-106044333D01*
X139476023Y-106139571D01*
X139476023Y-106663380D01*
X139095071Y-105996714D02*
X138856976Y-106663380D01*
X138618880Y-105996714D02*
X138856976Y-106663380D01*
X138952214Y-106901476D01*
X138999833Y-106949095D01*
X139095071Y-106996714D01*
X137476023Y-106663380D02*
X137476023Y-105663380D01*
X137237928Y-105663380D01*
X137095071Y-105711000D01*
X136999833Y-105806238D01*
X136952214Y-105901476D01*
X136904595Y-106091952D01*
X136904595Y-106234809D01*
X136952214Y-106425285D01*
X136999833Y-106520523D01*
X137095071Y-106615761D01*
X137237928Y-106663380D01*
X137476023Y-106663380D01*
X136047452Y-105996714D02*
X136047452Y-106663380D01*
X136476023Y-105996714D02*
X136476023Y-106520523D01*
X136428404Y-106615761D01*
X136333166Y-106663380D01*
X136190309Y-106663380D01*
X136095071Y-106615761D01*
X136047452Y-106568142D01*
X135571261Y-106663380D02*
X135571261Y-105663380D01*
X135571261Y-106044333D02*
X135476023Y-105996714D01*
X135285547Y-105996714D01*
X135190309Y-106044333D01*
X135142690Y-106091952D01*
X135095071Y-106187190D01*
X135095071Y-106472904D01*
X135142690Y-106568142D01*
X135190309Y-106615761D01*
X135285547Y-106663380D01*
X135476023Y-106663380D01*
X135571261Y-106615761D01*
X134285547Y-106615761D02*
X134380785Y-106663380D01*
X134571261Y-106663380D01*
X134666500Y-106615761D01*
X134714119Y-106520523D01*
X134714119Y-106139571D01*
X134666500Y-106044333D01*
X134571261Y-105996714D01*
X134380785Y-105996714D01*
X134285547Y-106044333D01*
X134237928Y-106139571D01*
X134237928Y-106234809D01*
X134714119Y-106330047D01*
X142856976Y-108178142D02*
X142904595Y-108225761D01*
X143047452Y-108273380D01*
X143142690Y-108273380D01*
X143285547Y-108225761D01*
X143380785Y-108130523D01*
X143428404Y-108035285D01*
X143476023Y-107844809D01*
X143476023Y-107701952D01*
X143428404Y-107511476D01*
X143380785Y-107416238D01*
X143285547Y-107321000D01*
X143142690Y-107273380D01*
X143047452Y-107273380D01*
X142904595Y-107321000D01*
X142856976Y-107368619D01*
X141999833Y-108273380D02*
X141999833Y-107749571D01*
X142047452Y-107654333D01*
X142142690Y-107606714D01*
X142333166Y-107606714D01*
X142428404Y-107654333D01*
X141999833Y-108225761D02*
X142095071Y-108273380D01*
X142333166Y-108273380D01*
X142428404Y-108225761D01*
X142476023Y-108130523D01*
X142476023Y-108035285D01*
X142428404Y-107940047D01*
X142333166Y-107892428D01*
X142095071Y-107892428D01*
X141999833Y-107844809D01*
X141571261Y-108225761D02*
X141476023Y-108273380D01*
X141285547Y-108273380D01*
X141190309Y-108225761D01*
X141142690Y-108130523D01*
X141142690Y-108082904D01*
X141190309Y-107987666D01*
X141285547Y-107940047D01*
X141428404Y-107940047D01*
X141523642Y-107892428D01*
X141571261Y-107797190D01*
X141571261Y-107749571D01*
X141523642Y-107654333D01*
X141428404Y-107606714D01*
X141285547Y-107606714D01*
X141190309Y-107654333D01*
X140761738Y-108225761D02*
X140666500Y-108273380D01*
X140476023Y-108273380D01*
X140380785Y-108225761D01*
X140333166Y-108130523D01*
X140333166Y-108082904D01*
X140380785Y-107987666D01*
X140476023Y-107940047D01*
X140618880Y-107940047D01*
X140714119Y-107892428D01*
X140761738Y-107797190D01*
X140761738Y-107749571D01*
X140714119Y-107654333D01*
X140618880Y-107606714D01*
X140476023Y-107606714D01*
X140380785Y-107654333D01*
X139904595Y-108273380D02*
X139904595Y-107606714D01*
X139904595Y-107273380D02*
X139952214Y-107321000D01*
X139904595Y-107368619D01*
X139856976Y-107321000D01*
X139904595Y-107273380D01*
X139904595Y-107368619D01*
X138999833Y-108273380D02*
X138999833Y-107273380D01*
X138999833Y-108225761D02*
X139095071Y-108273380D01*
X139285547Y-108273380D01*
X139380785Y-108225761D01*
X139428404Y-108178142D01*
X139476023Y-108082904D01*
X139476023Y-107797190D01*
X139428404Y-107701952D01*
X139380785Y-107654333D01*
X139285547Y-107606714D01*
X139095071Y-107606714D01*
X138999833Y-107654333D01*
X138618880Y-107606714D02*
X138380785Y-108273380D01*
X138142690Y-107606714D02*
X138380785Y-108273380D01*
X138476023Y-108511476D01*
X138523642Y-108559095D01*
X138618880Y-108606714D01*
X137047452Y-108225761D02*
X136904595Y-108273380D01*
X136666500Y-108273380D01*
X136571261Y-108225761D01*
X136523642Y-108178142D01*
X136476023Y-108082904D01*
X136476023Y-107987666D01*
X136523642Y-107892428D01*
X136571261Y-107844809D01*
X136666500Y-107797190D01*
X136856976Y-107749571D01*
X136952214Y-107701952D01*
X136999833Y-107654333D01*
X137047452Y-107559095D01*
X137047452Y-107463857D01*
X136999833Y-107368619D01*
X136952214Y-107321000D01*
X136856976Y-107273380D01*
X136618880Y-107273380D01*
X136476023Y-107321000D01*
X135618880Y-108273380D02*
X135618880Y-107749571D01*
X135666500Y-107654333D01*
X135761738Y-107606714D01*
X135952214Y-107606714D01*
X136047452Y-107654333D01*
X135618880Y-108225761D02*
X135714119Y-108273380D01*
X135952214Y-108273380D01*
X136047452Y-108225761D01*
X136095071Y-108130523D01*
X136095071Y-108035285D01*
X136047452Y-107940047D01*
X135952214Y-107892428D01*
X135714119Y-107892428D01*
X135618880Y-107844809D01*
X135142690Y-108273380D02*
X135142690Y-107606714D01*
X135142690Y-107701952D02*
X135095071Y-107654333D01*
X134999833Y-107606714D01*
X134856976Y-107606714D01*
X134761738Y-107654333D01*
X134714119Y-107749571D01*
X134714119Y-108273380D01*
X134714119Y-107749571D02*
X134666500Y-107654333D01*
X134571261Y-107606714D01*
X134428404Y-107606714D01*
X134333166Y-107654333D01*
X134285547Y-107749571D01*
X134285547Y-108273380D01*
X133666500Y-108273380D02*
X133761738Y-108225761D01*
X133809357Y-108178142D01*
X133856976Y-108082904D01*
X133856976Y-107797190D01*
X133809357Y-107701952D01*
X133761738Y-107654333D01*
X133666500Y-107606714D01*
X133523642Y-107606714D01*
X133428404Y-107654333D01*
X133380785Y-107701952D01*
X133333166Y-107797190D01*
X133333166Y-108082904D01*
X133380785Y-108178142D01*
X133428404Y-108225761D01*
X133523642Y-108273380D01*
X133666500Y-108273380D01*
X132999833Y-107606714D02*
X132761738Y-108273380D01*
X132523642Y-107606714D02*
X132761738Y-108273380D01*
X132856976Y-108511476D01*
X132904595Y-108559095D01*
X132999833Y-108606714D01*
X131999833Y-108273380D02*
X132095071Y-108225761D01*
X132142690Y-108130523D01*
X132142690Y-107273380D01*
X131476023Y-108273380D02*
X131571261Y-108225761D01*
X131618880Y-108178142D01*
X131666500Y-108082904D01*
X131666500Y-107797190D01*
X131618880Y-107701952D01*
X131571261Y-107654333D01*
X131476023Y-107606714D01*
X131333166Y-107606714D01*
X131237928Y-107654333D01*
X131190309Y-107701952D01*
X131142690Y-107797190D01*
X131142690Y-108082904D01*
X131190309Y-108178142D01*
X131237928Y-108225761D01*
X131333166Y-108273380D01*
X131476023Y-108273380D01*
X130856976Y-107606714D02*
X130476023Y-107606714D01*
X130714119Y-108273380D02*
X130714119Y-107416238D01*
X130666500Y-107321000D01*
X130571261Y-107273380D01*
X130476023Y-107273380D01*
X130285547Y-107606714D02*
X129904595Y-107606714D01*
X130142690Y-108273380D02*
X130142690Y-107416238D01*
X130095071Y-107321000D01*
X129999833Y-107273380D01*
X129904595Y-107273380D01*
X143142690Y-108883380D02*
X143142690Y-109597666D01*
X143190309Y-109740523D01*
X143285547Y-109835761D01*
X143428404Y-109883380D01*
X143523642Y-109883380D01*
X142237928Y-109883380D02*
X142237928Y-109359571D01*
X142285547Y-109264333D01*
X142380785Y-109216714D01*
X142571261Y-109216714D01*
X142666500Y-109264333D01*
X142237928Y-109835761D02*
X142333166Y-109883380D01*
X142571261Y-109883380D01*
X142666500Y-109835761D01*
X142714119Y-109740523D01*
X142714119Y-109645285D01*
X142666500Y-109550047D01*
X142571261Y-109502428D01*
X142333166Y-109502428D01*
X142237928Y-109454809D01*
X141333166Y-109835761D02*
X141428404Y-109883380D01*
X141618880Y-109883380D01*
X141714119Y-109835761D01*
X141761738Y-109788142D01*
X141809357Y-109692904D01*
X141809357Y-109407190D01*
X141761738Y-109311952D01*
X141714119Y-109264333D01*
X141618880Y-109216714D01*
X141428404Y-109216714D01*
X141333166Y-109264333D01*
X140761738Y-109883380D02*
X140856976Y-109835761D01*
X140904595Y-109788142D01*
X140952214Y-109692904D01*
X140952214Y-109407190D01*
X140904595Y-109311952D01*
X140856976Y-109264333D01*
X140761738Y-109216714D01*
X140618880Y-109216714D01*
X140523642Y-109264333D01*
X140476023Y-109311952D01*
X140428404Y-109407190D01*
X140428404Y-109692904D01*
X140476023Y-109788142D01*
X140523642Y-109835761D01*
X140618880Y-109883380D01*
X140761738Y-109883380D01*
X139999833Y-109883380D02*
X139999833Y-108883380D01*
X139999833Y-109264333D02*
X139904595Y-109216714D01*
X139714119Y-109216714D01*
X139618880Y-109264333D01*
X139571261Y-109311952D01*
X139523642Y-109407190D01*
X139523642Y-109692904D01*
X139571261Y-109788142D01*
X139618880Y-109835761D01*
X139714119Y-109883380D01*
X139904595Y-109883380D01*
X139999833Y-109835761D01*
X138380785Y-109835761D02*
X138237928Y-109883380D01*
X137999833Y-109883380D01*
X137904595Y-109835761D01*
X137856976Y-109788142D01*
X137809357Y-109692904D01*
X137809357Y-109597666D01*
X137856976Y-109502428D01*
X137904595Y-109454809D01*
X137999833Y-109407190D01*
X138190309Y-109359571D01*
X138285547Y-109311952D01*
X138333166Y-109264333D01*
X138380785Y-109169095D01*
X138380785Y-109073857D01*
X138333166Y-108978619D01*
X138285547Y-108931000D01*
X138190309Y-108883380D01*
X137952214Y-108883380D01*
X137809357Y-108931000D01*
X136952214Y-109883380D02*
X136952214Y-109359571D01*
X136999833Y-109264333D01*
X137095071Y-109216714D01*
X137285547Y-109216714D01*
X137380785Y-109264333D01*
X136952214Y-109835761D02*
X137047452Y-109883380D01*
X137285547Y-109883380D01*
X137380785Y-109835761D01*
X137428404Y-109740523D01*
X137428404Y-109645285D01*
X137380785Y-109550047D01*
X137285547Y-109502428D01*
X137047452Y-109502428D01*
X136952214Y-109454809D01*
X136047452Y-109216714D02*
X136047452Y-110026238D01*
X136095071Y-110121476D01*
X136142690Y-110169095D01*
X136237928Y-110216714D01*
X136380785Y-110216714D01*
X136476023Y-110169095D01*
X136047452Y-109835761D02*
X136142690Y-109883380D01*
X136333166Y-109883380D01*
X136428404Y-109835761D01*
X136476023Y-109788142D01*
X136523642Y-109692904D01*
X136523642Y-109407190D01*
X136476023Y-109311952D01*
X136428404Y-109264333D01*
X136333166Y-109216714D01*
X136142690Y-109216714D01*
X136047452Y-109264333D01*
X135142690Y-109883380D02*
X135142690Y-109359571D01*
X135190309Y-109264333D01*
X135285547Y-109216714D01*
X135476023Y-109216714D01*
X135571261Y-109264333D01*
X135142690Y-109835761D02*
X135237928Y-109883380D01*
X135476023Y-109883380D01*
X135571261Y-109835761D01*
X135618880Y-109740523D01*
X135618880Y-109645285D01*
X135571261Y-109550047D01*
X135476023Y-109502428D01*
X135237928Y-109502428D01*
X135142690Y-109454809D01*
X134523642Y-109883380D02*
X134618880Y-109835761D01*
X134666500Y-109740523D01*
X134666500Y-108883380D01*
X133999833Y-109883380D02*
X134095071Y-109835761D01*
X134142690Y-109788142D01*
X134190309Y-109692904D01*
X134190309Y-109407190D01*
X134142690Y-109311952D01*
X134095071Y-109264333D01*
X133999833Y-109216714D01*
X133856976Y-109216714D01*
X133761738Y-109264333D01*
X133714119Y-109311952D01*
X133666500Y-109407190D01*
X133666500Y-109692904D01*
X133714119Y-109788142D01*
X133761738Y-109835761D01*
X133856976Y-109883380D01*
X133999833Y-109883380D01*
X133333166Y-109216714D02*
X133095071Y-109883380D01*
X132856976Y-109216714D01*
X132476023Y-109883380D02*
X132476023Y-109216714D01*
X132476023Y-108883380D02*
X132523642Y-108931000D01*
X132476023Y-108978619D01*
X132428404Y-108931000D01*
X132476023Y-108883380D01*
X132476023Y-108978619D01*
X132142690Y-109216714D02*
X131761738Y-109216714D01*
X131999833Y-108883380D02*
X131999833Y-109740523D01*
X131952214Y-109835761D01*
X131856976Y-109883380D01*
X131761738Y-109883380D01*
X130999833Y-109835761D02*
X131095071Y-109883380D01*
X131285547Y-109883380D01*
X131380785Y-109835761D01*
X131428404Y-109788142D01*
X131476023Y-109692904D01*
X131476023Y-109407190D01*
X131428404Y-109311952D01*
X131380785Y-109264333D01*
X131285547Y-109216714D01*
X131095071Y-109216714D01*
X130999833Y-109264333D01*
X130571261Y-109883380D02*
X130571261Y-108883380D01*
X130142690Y-109883380D02*
X130142690Y-109359571D01*
X130190309Y-109264333D01*
X130285547Y-109216714D01*
X130428404Y-109216714D01*
X130523642Y-109264333D01*
X130571261Y-109311952D01*
X143428404Y-111493380D02*
X143428404Y-110493380D01*
X142856976Y-111493380D02*
X143285547Y-110921952D01*
X142856976Y-110493380D02*
X143428404Y-111064809D01*
X142428404Y-111493380D02*
X142428404Y-110826714D01*
X142428404Y-110493380D02*
X142476023Y-110541000D01*
X142428404Y-110588619D01*
X142380785Y-110541000D01*
X142428404Y-110493380D01*
X142428404Y-110588619D01*
X141999833Y-111445761D02*
X141904595Y-111493380D01*
X141714119Y-111493380D01*
X141618880Y-111445761D01*
X141571261Y-111350523D01*
X141571261Y-111302904D01*
X141618880Y-111207666D01*
X141714119Y-111160047D01*
X141856976Y-111160047D01*
X141952214Y-111112428D01*
X141999833Y-111017190D01*
X141999833Y-110969571D01*
X141952214Y-110874333D01*
X141856976Y-110826714D01*
X141714119Y-110826714D01*
X141618880Y-110874333D01*
X141142690Y-111493380D02*
X141142690Y-110493380D01*
X140714119Y-111493380D02*
X140714119Y-110969571D01*
X140761738Y-110874333D01*
X140856976Y-110826714D01*
X140999833Y-110826714D01*
X141095071Y-110874333D01*
X141142690Y-110921952D01*
X140095071Y-111493380D02*
X140190309Y-111445761D01*
X140237928Y-111398142D01*
X140285547Y-111302904D01*
X140285547Y-111017190D01*
X140237928Y-110921952D01*
X140190309Y-110874333D01*
X140095071Y-110826714D01*
X139952214Y-110826714D01*
X139856976Y-110874333D01*
X139809357Y-110921952D01*
X139761738Y-111017190D01*
X139761738Y-111302904D01*
X139809357Y-111398142D01*
X139856976Y-111445761D01*
X139952214Y-111493380D01*
X140095071Y-111493380D01*
X139333166Y-111493380D02*
X139333166Y-110826714D01*
X139333166Y-111017190D02*
X139285547Y-110921952D01*
X139237928Y-110874333D01*
X139142690Y-110826714D01*
X139047452Y-110826714D01*
X138714119Y-111493380D02*
X138714119Y-110826714D01*
X138714119Y-110493380D02*
X138761738Y-110541000D01*
X138714119Y-110588619D01*
X138666500Y-110541000D01*
X138714119Y-110493380D01*
X138714119Y-110588619D01*
X137476023Y-111493380D02*
X137476023Y-110493380D01*
X136904595Y-111493380D02*
X137333166Y-110921952D01*
X136904595Y-110493380D02*
X137476023Y-111064809D01*
X136047452Y-110826714D02*
X136047452Y-111493380D01*
X136476023Y-110826714D02*
X136476023Y-111350523D01*
X136428404Y-111445761D01*
X136333166Y-111493380D01*
X136190309Y-111493380D01*
X136095071Y-111445761D01*
X136047452Y-111398142D01*
X135142690Y-110826714D02*
X135142690Y-111636238D01*
X135190309Y-111731476D01*
X135237928Y-111779095D01*
X135333166Y-111826714D01*
X135476023Y-111826714D01*
X135571261Y-111779095D01*
X135142690Y-111445761D02*
X135237928Y-111493380D01*
X135428404Y-111493380D01*
X135523642Y-111445761D01*
X135571261Y-111398142D01*
X135618880Y-111302904D01*
X135618880Y-111017190D01*
X135571261Y-110921952D01*
X135523642Y-110874333D01*
X135428404Y-110826714D01*
X135237928Y-110826714D01*
X135142690Y-110874333D01*
X134237928Y-111493380D02*
X134237928Y-110969571D01*
X134285547Y-110874333D01*
X134380785Y-110826714D01*
X134571261Y-110826714D01*
X134666500Y-110874333D01*
X134237928Y-111445761D02*
X134333166Y-111493380D01*
X134571261Y-111493380D01*
X134666500Y-111445761D01*
X134714119Y-111350523D01*
X134714119Y-111255285D01*
X134666500Y-111160047D01*
X134571261Y-111112428D01*
X134333166Y-111112428D01*
X134237928Y-111064809D01*
X133761738Y-110826714D02*
X133761738Y-111493380D01*
X133761738Y-110921952D02*
X133714119Y-110874333D01*
X133618880Y-110826714D01*
X133476023Y-110826714D01*
X133380785Y-110874333D01*
X133333166Y-110969571D01*
X133333166Y-111493380D01*
X132476023Y-111445761D02*
X132571261Y-111493380D01*
X132761738Y-111493380D01*
X132856976Y-111445761D01*
X132904595Y-111350523D01*
X132904595Y-110969571D01*
X132856976Y-110874333D01*
X132761738Y-110826714D01*
X132571261Y-110826714D01*
X132476023Y-110874333D01*
X132428404Y-110969571D01*
X132428404Y-111064809D01*
X132904595Y-111160047D01*
X132047452Y-111445761D02*
X131952214Y-111493380D01*
X131761738Y-111493380D01*
X131666500Y-111445761D01*
X131618880Y-111350523D01*
X131618880Y-111302904D01*
X131666500Y-111207666D01*
X131761738Y-111160047D01*
X131904595Y-111160047D01*
X131999833Y-111112428D01*
X132047452Y-111017190D01*
X132047452Y-110969571D01*
X131999833Y-110874333D01*
X131904595Y-110826714D01*
X131761738Y-110826714D01*
X131666500Y-110874333D01*
X131285547Y-110826714D02*
X131095071Y-111493380D01*
X130904595Y-111017190D01*
X130714119Y-111493380D01*
X130523642Y-110826714D01*
X129714119Y-111493380D02*
X129714119Y-110969571D01*
X129761738Y-110874333D01*
X129856976Y-110826714D01*
X130047452Y-110826714D01*
X130142690Y-110874333D01*
X129714119Y-111445761D02*
X129809357Y-111493380D01*
X130047452Y-111493380D01*
X130142690Y-111445761D01*
X130190309Y-111350523D01*
X130190309Y-111255285D01*
X130142690Y-111160047D01*
X130047452Y-111112428D01*
X129809357Y-111112428D01*
X129714119Y-111064809D01*
X129237928Y-111493380D02*
X129237928Y-110826714D01*
X129237928Y-111017190D02*
X129190309Y-110921952D01*
X129142690Y-110874333D01*
X129047452Y-110826714D01*
X128952214Y-110826714D01*
X128190309Y-111493380D02*
X128190309Y-110969571D01*
X128237928Y-110874333D01*
X128333166Y-110826714D01*
X128523642Y-110826714D01*
X128618880Y-110874333D01*
X128190309Y-111445761D02*
X128285547Y-111493380D01*
X128523642Y-111493380D01*
X128618880Y-111445761D01*
X128666500Y-111350523D01*
X128666500Y-111255285D01*
X128618880Y-111160047D01*
X128523642Y-111112428D01*
X128285547Y-111112428D01*
X128190309Y-111064809D01*
X127714119Y-110826714D02*
X127714119Y-111493380D01*
X127714119Y-110921952D02*
X127666500Y-110874333D01*
X127571261Y-110826714D01*
X127428404Y-110826714D01*
X127333166Y-110874333D01*
X127285547Y-110969571D01*
X127285547Y-111493380D01*
X143428404Y-113103380D02*
X143428404Y-112103380D01*
X143428404Y-112579571D02*
X142856976Y-112579571D01*
X142856976Y-113103380D02*
X142856976Y-112103380D01*
X141952214Y-113103380D02*
X141952214Y-112579571D01*
X141999833Y-112484333D01*
X142095071Y-112436714D01*
X142285547Y-112436714D01*
X142380785Y-112484333D01*
X141952214Y-113055761D02*
X142047452Y-113103380D01*
X142285547Y-113103380D01*
X142380785Y-113055761D01*
X142428404Y-112960523D01*
X142428404Y-112865285D01*
X142380785Y-112770047D01*
X142285547Y-112722428D01*
X142047452Y-112722428D01*
X141952214Y-112674809D01*
X141476023Y-113103380D02*
X141476023Y-112436714D01*
X141476023Y-112627190D02*
X141428404Y-112531952D01*
X141380785Y-112484333D01*
X141285547Y-112436714D01*
X141190309Y-112436714D01*
X140856976Y-113103380D02*
X140856976Y-112436714D01*
X140856976Y-112627190D02*
X140809357Y-112531952D01*
X140761738Y-112484333D01*
X140666500Y-112436714D01*
X140571261Y-112436714D01*
X140237928Y-113103380D02*
X140237928Y-112436714D01*
X140237928Y-112103380D02*
X140285547Y-112151000D01*
X140237928Y-112198619D01*
X140190309Y-112151000D01*
X140237928Y-112103380D01*
X140237928Y-112198619D01*
X139809357Y-113055761D02*
X139714119Y-113103380D01*
X139523642Y-113103380D01*
X139428404Y-113055761D01*
X139380785Y-112960523D01*
X139380785Y-112912904D01*
X139428404Y-112817666D01*
X139523642Y-112770047D01*
X139666500Y-112770047D01*
X139761738Y-112722428D01*
X139809357Y-112627190D01*
X139809357Y-112579571D01*
X139761738Y-112484333D01*
X139666500Y-112436714D01*
X139523642Y-112436714D01*
X139428404Y-112484333D01*
X138809357Y-113103380D02*
X138904595Y-113055761D01*
X138952214Y-113008142D01*
X138999833Y-112912904D01*
X138999833Y-112627190D01*
X138952214Y-112531952D01*
X138904595Y-112484333D01*
X138809357Y-112436714D01*
X138666500Y-112436714D01*
X138571261Y-112484333D01*
X138523642Y-112531952D01*
X138476023Y-112627190D01*
X138476023Y-112912904D01*
X138523642Y-113008142D01*
X138571261Y-113055761D01*
X138666500Y-113103380D01*
X138809357Y-113103380D01*
X138047452Y-112436714D02*
X138047452Y-113103380D01*
X138047452Y-112531952D02*
X137999833Y-112484333D01*
X137904595Y-112436714D01*
X137761738Y-112436714D01*
X137666500Y-112484333D01*
X137618880Y-112579571D01*
X137618880Y-113103380D01*
X135856976Y-112151000D02*
X135952214Y-112103380D01*
X136095071Y-112103380D01*
X136237928Y-112151000D01*
X136333166Y-112246238D01*
X136380785Y-112341476D01*
X136428404Y-112531952D01*
X136428404Y-112674809D01*
X136380785Y-112865285D01*
X136333166Y-112960523D01*
X136237928Y-113055761D01*
X136095071Y-113103380D01*
X135999833Y-113103380D01*
X135856976Y-113055761D01*
X135809357Y-113008142D01*
X135809357Y-112674809D01*
X135999833Y-112674809D01*
X135237928Y-113103380D02*
X135333166Y-113055761D01*
X135380785Y-113008142D01*
X135428404Y-112912904D01*
X135428404Y-112627190D01*
X135380785Y-112531952D01*
X135333166Y-112484333D01*
X135237928Y-112436714D01*
X135095071Y-112436714D01*
X134999833Y-112484333D01*
X134952214Y-112531952D01*
X134904595Y-112627190D01*
X134904595Y-112912904D01*
X134952214Y-113008142D01*
X134999833Y-113055761D01*
X135095071Y-113103380D01*
X135237928Y-113103380D01*
X134476023Y-113103380D02*
X134476023Y-112436714D01*
X134476023Y-112627190D02*
X134428404Y-112531952D01*
X134380785Y-112484333D01*
X134285547Y-112436714D01*
X134190309Y-112436714D01*
X133428404Y-113103380D02*
X133428404Y-112103380D01*
X133428404Y-113055761D02*
X133523642Y-113103380D01*
X133714119Y-113103380D01*
X133809357Y-113055761D01*
X133856976Y-113008142D01*
X133904595Y-112912904D01*
X133904595Y-112627190D01*
X133856976Y-112531952D01*
X133809357Y-112484333D01*
X133714119Y-112436714D01*
X133523642Y-112436714D01*
X133428404Y-112484333D01*
X132809357Y-113103380D02*
X132904595Y-113055761D01*
X132952214Y-113008142D01*
X132999833Y-112912904D01*
X132999833Y-112627190D01*
X132952214Y-112531952D01*
X132904595Y-112484333D01*
X132809357Y-112436714D01*
X132666500Y-112436714D01*
X132571261Y-112484333D01*
X132523642Y-112531952D01*
X132476023Y-112627190D01*
X132476023Y-112912904D01*
X132523642Y-113008142D01*
X132571261Y-113055761D01*
X132666500Y-113103380D01*
X132809357Y-113103380D01*
X132047452Y-112436714D02*
X132047452Y-113103380D01*
X132047452Y-112531952D02*
X131999833Y-112484333D01*
X131904595Y-112436714D01*
X131761738Y-112436714D01*
X131666500Y-112484333D01*
X131618880Y-112579571D01*
X131618880Y-113103380D01*
X143476023Y-114427666D02*
X142999833Y-114427666D01*
X143571261Y-114713380D02*
X143237928Y-113713380D01*
X142904595Y-114713380D01*
X142571261Y-114713380D02*
X142571261Y-114046714D01*
X142571261Y-114237190D02*
X142523642Y-114141952D01*
X142476023Y-114094333D01*
X142380785Y-114046714D01*
X142285547Y-114046714D01*
X141952214Y-114713380D02*
X141952214Y-114046714D01*
X141952214Y-114141952D02*
X141904595Y-114094333D01*
X141809357Y-114046714D01*
X141666500Y-114046714D01*
X141571261Y-114094333D01*
X141523642Y-114189571D01*
X141523642Y-114713380D01*
X141523642Y-114189571D02*
X141476023Y-114094333D01*
X141380785Y-114046714D01*
X141237928Y-114046714D01*
X141142690Y-114094333D01*
X141095071Y-114189571D01*
X141095071Y-114713380D01*
X140190309Y-114713380D02*
X140190309Y-114189571D01*
X140237928Y-114094333D01*
X140333166Y-114046714D01*
X140523642Y-114046714D01*
X140618880Y-114094333D01*
X140190309Y-114665761D02*
X140285547Y-114713380D01*
X140523642Y-114713380D01*
X140618880Y-114665761D01*
X140666500Y-114570523D01*
X140666500Y-114475285D01*
X140618880Y-114380047D01*
X140523642Y-114332428D01*
X140285547Y-114332428D01*
X140190309Y-114284809D01*
X139714119Y-114046714D02*
X139714119Y-114713380D01*
X139714119Y-114141952D02*
X139666500Y-114094333D01*
X139571261Y-114046714D01*
X139428404Y-114046714D01*
X139333166Y-114094333D01*
X139285547Y-114189571D01*
X139285547Y-114713380D01*
X138380785Y-114713380D02*
X138380785Y-113713380D01*
X138380785Y-114665761D02*
X138476023Y-114713380D01*
X138666500Y-114713380D01*
X138761738Y-114665761D01*
X138809357Y-114618142D01*
X138856976Y-114522904D01*
X138856976Y-114237190D01*
X138809357Y-114141952D01*
X138761738Y-114094333D01*
X138666500Y-114046714D01*
X138476023Y-114046714D01*
X138380785Y-114094333D01*
X137761738Y-114713380D02*
X137856976Y-114665761D01*
X137904595Y-114618142D01*
X137952214Y-114522904D01*
X137952214Y-114237190D01*
X137904595Y-114141952D01*
X137856976Y-114094333D01*
X137761738Y-114046714D01*
X137618880Y-114046714D01*
X137523642Y-114094333D01*
X137476023Y-114141952D01*
X137428404Y-114237190D01*
X137428404Y-114522904D01*
X137476023Y-114618142D01*
X137523642Y-114665761D01*
X137618880Y-114713380D01*
X137761738Y-114713380D01*
X135666500Y-114618142D02*
X135714119Y-114665761D01*
X135856976Y-114713380D01*
X135952214Y-114713380D01*
X136095071Y-114665761D01*
X136190309Y-114570523D01*
X136237928Y-114475285D01*
X136285547Y-114284809D01*
X136285547Y-114141952D01*
X136237928Y-113951476D01*
X136190309Y-113856238D01*
X136095071Y-113761000D01*
X135952214Y-113713380D01*
X135856976Y-113713380D01*
X135714119Y-113761000D01*
X135666500Y-113808619D01*
X134809357Y-114713380D02*
X134809357Y-114189571D01*
X134856976Y-114094333D01*
X134952214Y-114046714D01*
X135142690Y-114046714D01*
X135237928Y-114094333D01*
X134809357Y-114665761D02*
X134904595Y-114713380D01*
X135142690Y-114713380D01*
X135237928Y-114665761D01*
X135285547Y-114570523D01*
X135285547Y-114475285D01*
X135237928Y-114380047D01*
X135142690Y-114332428D01*
X134904595Y-114332428D01*
X134809357Y-114284809D01*
X134380785Y-114665761D02*
X134285547Y-114713380D01*
X134095071Y-114713380D01*
X133999833Y-114665761D01*
X133952214Y-114570523D01*
X133952214Y-114522904D01*
X133999833Y-114427666D01*
X134095071Y-114380047D01*
X134237928Y-114380047D01*
X134333166Y-114332428D01*
X134380785Y-114237190D01*
X134380785Y-114189571D01*
X134333166Y-114094333D01*
X134237928Y-114046714D01*
X134095071Y-114046714D01*
X133999833Y-114094333D01*
X133095071Y-114713380D02*
X133095071Y-114189571D01*
X133142690Y-114094333D01*
X133237928Y-114046714D01*
X133428404Y-114046714D01*
X133523642Y-114094333D01*
X133095071Y-114665761D02*
X133190309Y-114713380D01*
X133428404Y-114713380D01*
X133523642Y-114665761D01*
X133571261Y-114570523D01*
X133571261Y-114475285D01*
X133523642Y-114380047D01*
X133428404Y-114332428D01*
X133190309Y-114332428D01*
X133095071Y-114284809D01*
X132618880Y-114046714D02*
X132618880Y-114713380D01*
X132618880Y-114141952D02*
X132571261Y-114094333D01*
X132476023Y-114046714D01*
X132333166Y-114046714D01*
X132237928Y-114094333D01*
X132190309Y-114189571D01*
X132190309Y-114713380D01*
X131571261Y-114713380D02*
X131666500Y-114665761D01*
X131714119Y-114618142D01*
X131761738Y-114522904D01*
X131761738Y-114237190D01*
X131714119Y-114141952D01*
X131666500Y-114094333D01*
X131571261Y-114046714D01*
X131428404Y-114046714D01*
X131333166Y-114094333D01*
X131285547Y-114141952D01*
X131237928Y-114237190D01*
X131237928Y-114522904D01*
X131285547Y-114618142D01*
X131333166Y-114665761D01*
X131428404Y-114713380D01*
X131571261Y-114713380D01*
X130904595Y-114046714D02*
X130666500Y-114713380D01*
X130428404Y-114046714D01*
X129618880Y-114713380D02*
X129618880Y-114189571D01*
X129666500Y-114094333D01*
X129761738Y-114046714D01*
X129952214Y-114046714D01*
X130047452Y-114094333D01*
X129618880Y-114665761D02*
X129714119Y-114713380D01*
X129952214Y-114713380D01*
X130047452Y-114665761D01*
X130095071Y-114570523D01*
X130095071Y-114475285D01*
X130047452Y-114380047D01*
X129952214Y-114332428D01*
X129714119Y-114332428D01*
X129618880Y-114284809D01*
X143571261Y-115323380D02*
X142999833Y-115323380D01*
X143285547Y-116323380D02*
X143285547Y-115323380D01*
X142523642Y-116323380D02*
X142618880Y-116275761D01*
X142666500Y-116228142D01*
X142714119Y-116132904D01*
X142714119Y-115847190D01*
X142666500Y-115751952D01*
X142618880Y-115704333D01*
X142523642Y-115656714D01*
X142380785Y-115656714D01*
X142285547Y-115704333D01*
X142237928Y-115751952D01*
X142190309Y-115847190D01*
X142190309Y-116132904D01*
X142237928Y-116228142D01*
X142285547Y-116275761D01*
X142380785Y-116323380D01*
X142523642Y-116323380D01*
X141761738Y-116323380D02*
X141761738Y-115656714D01*
X141761738Y-115751952D02*
X141714119Y-115704333D01*
X141618880Y-115656714D01*
X141476023Y-115656714D01*
X141380785Y-115704333D01*
X141333166Y-115799571D01*
X141333166Y-116323380D01*
X141333166Y-115799571D02*
X141285547Y-115704333D01*
X141190309Y-115656714D01*
X141047452Y-115656714D01*
X140952214Y-115704333D01*
X140904595Y-115799571D01*
X140904595Y-116323380D01*
X139999833Y-116323380D02*
X139999833Y-115799571D01*
X140047452Y-115704333D01*
X140142690Y-115656714D01*
X140333166Y-115656714D01*
X140428404Y-115704333D01*
X139999833Y-116275761D02*
X140095071Y-116323380D01*
X140333166Y-116323380D01*
X140428404Y-116275761D01*
X140476023Y-116180523D01*
X140476023Y-116085285D01*
X140428404Y-115990047D01*
X140333166Y-115942428D01*
X140095071Y-115942428D01*
X139999833Y-115894809D01*
X139571261Y-116275761D02*
X139476023Y-116323380D01*
X139285547Y-116323380D01*
X139190309Y-116275761D01*
X139142690Y-116180523D01*
X139142690Y-116132904D01*
X139190309Y-116037666D01*
X139285547Y-115990047D01*
X139428404Y-115990047D01*
X139523642Y-115942428D01*
X139571261Y-115847190D01*
X139571261Y-115799571D01*
X139523642Y-115704333D01*
X139428404Y-115656714D01*
X139285547Y-115656714D01*
X139190309Y-115704333D01*
X137952214Y-116323380D02*
X137952214Y-115323380D01*
X137952214Y-115799571D02*
X137380785Y-115799571D01*
X137380785Y-116323380D02*
X137380785Y-115323380D01*
X136476023Y-116323380D02*
X136476023Y-115799571D01*
X136523642Y-115704333D01*
X136618880Y-115656714D01*
X136809357Y-115656714D01*
X136904595Y-115704333D01*
X136476023Y-116275761D02*
X136571261Y-116323380D01*
X136809357Y-116323380D01*
X136904595Y-116275761D01*
X136952214Y-116180523D01*
X136952214Y-116085285D01*
X136904595Y-115990047D01*
X136809357Y-115942428D01*
X136571261Y-115942428D01*
X136476023Y-115894809D01*
X135999833Y-116323380D02*
X135999833Y-115656714D01*
X135999833Y-115847190D02*
X135952214Y-115751952D01*
X135904595Y-115704333D01*
X135809357Y-115656714D01*
X135714119Y-115656714D01*
X135380785Y-116323380D02*
X135380785Y-115656714D01*
X135380785Y-115751952D02*
X135333166Y-115704333D01*
X135237928Y-115656714D01*
X135095071Y-115656714D01*
X134999833Y-115704333D01*
X134952214Y-115799571D01*
X134952214Y-116323380D01*
X134952214Y-115799571D02*
X134904595Y-115704333D01*
X134809357Y-115656714D01*
X134666500Y-115656714D01*
X134571261Y-115704333D01*
X134523642Y-115799571D01*
X134523642Y-116323380D01*
X133666500Y-116275761D02*
X133761738Y-116323380D01*
X133952214Y-116323380D01*
X134047452Y-116275761D01*
X134095071Y-116180523D01*
X134095071Y-115799571D01*
X134047452Y-115704333D01*
X133952214Y-115656714D01*
X133761738Y-115656714D01*
X133666500Y-115704333D01*
X133618880Y-115799571D01*
X133618880Y-115894809D01*
X134095071Y-115990047D01*
X133190309Y-116323380D02*
X133190309Y-115656714D01*
X133190309Y-115847190D02*
X133142690Y-115751952D01*
X133095071Y-115704333D01*
X132999833Y-115656714D01*
X132904595Y-115656714D01*
X143428404Y-117933380D02*
X143428404Y-116933380D01*
X143047452Y-117266714D02*
X142809357Y-117933380D01*
X142571261Y-117266714D01*
X141761738Y-117933380D02*
X141761738Y-117409571D01*
X141809357Y-117314333D01*
X141904595Y-117266714D01*
X142095071Y-117266714D01*
X142190309Y-117314333D01*
X141761738Y-117885761D02*
X141856976Y-117933380D01*
X142095071Y-117933380D01*
X142190309Y-117885761D01*
X142237928Y-117790523D01*
X142237928Y-117695285D01*
X142190309Y-117600047D01*
X142095071Y-117552428D01*
X141856976Y-117552428D01*
X141761738Y-117504809D01*
X141285547Y-117266714D02*
X141285547Y-117933380D01*
X141285547Y-117361952D02*
X141237928Y-117314333D01*
X141142690Y-117266714D01*
X140999833Y-117266714D01*
X140904595Y-117314333D01*
X140856976Y-117409571D01*
X140856976Y-117933380D01*
X139142690Y-117933380D02*
X139618880Y-117933380D01*
X139618880Y-116933380D01*
X138809357Y-117933380D02*
X138809357Y-117266714D01*
X138809357Y-116933380D02*
X138856976Y-116981000D01*
X138809357Y-117028619D01*
X138761738Y-116981000D01*
X138809357Y-116933380D01*
X138809357Y-117028619D01*
X138333166Y-117266714D02*
X138333166Y-118266714D01*
X138333166Y-117314333D02*
X138237928Y-117266714D01*
X138047452Y-117266714D01*
X137952214Y-117314333D01*
X137904595Y-117361952D01*
X137856976Y-117457190D01*
X137856976Y-117742904D01*
X137904595Y-117838142D01*
X137952214Y-117885761D01*
X138047452Y-117933380D01*
X138237928Y-117933380D01*
X138333166Y-117885761D01*
X137476023Y-117885761D02*
X137380785Y-117933380D01*
X137190309Y-117933380D01*
X137095071Y-117885761D01*
X137047452Y-117790523D01*
X137047452Y-117742904D01*
X137095071Y-117647666D01*
X137190309Y-117600047D01*
X137333166Y-117600047D01*
X137428404Y-117552428D01*
X137476023Y-117457190D01*
X137476023Y-117409571D01*
X137428404Y-117314333D01*
X137333166Y-117266714D01*
X137190309Y-117266714D01*
X137095071Y-117314333D01*
X136618880Y-117933380D02*
X136618880Y-116933380D01*
X136523642Y-117552428D02*
X136237928Y-117933380D01*
X136237928Y-117266714D02*
X136618880Y-117647666D01*
X135809357Y-117933380D02*
X135809357Y-117266714D01*
X135809357Y-116933380D02*
X135856976Y-116981000D01*
X135809357Y-117028619D01*
X135761738Y-116981000D01*
X135809357Y-116933380D01*
X135809357Y-117028619D01*
X143142690Y-118543380D02*
X143142690Y-119257666D01*
X143190309Y-119400523D01*
X143285547Y-119495761D01*
X143428404Y-119543380D01*
X143523642Y-119543380D01*
X142666500Y-119543380D02*
X142666500Y-118876714D01*
X142666500Y-118543380D02*
X142714119Y-118591000D01*
X142666500Y-118638619D01*
X142618880Y-118591000D01*
X142666500Y-118543380D01*
X142666500Y-118638619D01*
X142047452Y-119543380D02*
X142142690Y-119495761D01*
X142190309Y-119400523D01*
X142190309Y-118543380D01*
X141523642Y-119543380D02*
X141618880Y-119495761D01*
X141666500Y-119400523D01*
X141666500Y-118543380D01*
X141142690Y-119543380D02*
X141142690Y-118876714D01*
X141142690Y-118543380D02*
X141190309Y-118591000D01*
X141142690Y-118638619D01*
X141095071Y-118591000D01*
X141142690Y-118543380D01*
X141142690Y-118638619D01*
X140237928Y-119543380D02*
X140237928Y-119019571D01*
X140285547Y-118924333D01*
X140380785Y-118876714D01*
X140571261Y-118876714D01*
X140666500Y-118924333D01*
X140237928Y-119495761D02*
X140333166Y-119543380D01*
X140571261Y-119543380D01*
X140666500Y-119495761D01*
X140714119Y-119400523D01*
X140714119Y-119305285D01*
X140666500Y-119210047D01*
X140571261Y-119162428D01*
X140333166Y-119162428D01*
X140237928Y-119114809D01*
X139761738Y-118876714D02*
X139761738Y-119543380D01*
X139761738Y-118971952D02*
X139714119Y-118924333D01*
X139618880Y-118876714D01*
X139476023Y-118876714D01*
X139380785Y-118924333D01*
X139333166Y-119019571D01*
X139333166Y-119543380D01*
X138095071Y-119543380D02*
X138095071Y-118543380D01*
X137761738Y-119257666D01*
X137428404Y-118543380D01*
X137428404Y-119543380D01*
X136523642Y-119543380D02*
X136523642Y-119019571D01*
X136571261Y-118924333D01*
X136666500Y-118876714D01*
X136856976Y-118876714D01*
X136952214Y-118924333D01*
X136523642Y-119495761D02*
X136618880Y-119543380D01*
X136856976Y-119543380D01*
X136952214Y-119495761D01*
X136999833Y-119400523D01*
X136999833Y-119305285D01*
X136952214Y-119210047D01*
X136856976Y-119162428D01*
X136618880Y-119162428D01*
X136523642Y-119114809D01*
X135904595Y-119543380D02*
X135999833Y-119495761D01*
X136047452Y-119400523D01*
X136047452Y-118543380D01*
X135523642Y-119543380D02*
X135523642Y-118543380D01*
X135095071Y-119543380D02*
X135095071Y-119019571D01*
X135142690Y-118924333D01*
X135237928Y-118876714D01*
X135380785Y-118876714D01*
X135476023Y-118924333D01*
X135523642Y-118971952D01*
X134237928Y-119495761D02*
X134333166Y-119543380D01*
X134523642Y-119543380D01*
X134618880Y-119495761D01*
X134666500Y-119400523D01*
X134666500Y-119019571D01*
X134618880Y-118924333D01*
X134523642Y-118876714D01*
X134333166Y-118876714D01*
X134237928Y-118924333D01*
X134190309Y-119019571D01*
X134190309Y-119114809D01*
X134666500Y-119210047D01*
X133761738Y-119543380D02*
X133761738Y-118876714D01*
X133761738Y-119067190D02*
X133714119Y-118971952D01*
X133666500Y-118924333D01*
X133571261Y-118876714D01*
X133476023Y-118876714D01*
X133142690Y-119543380D02*
X133142690Y-118543380D01*
X133142690Y-118924333D02*
X133047452Y-118876714D01*
X132856976Y-118876714D01*
X132761738Y-118924333D01*
X132714119Y-118971952D01*
X132666500Y-119067190D01*
X132666500Y-119352904D01*
X132714119Y-119448142D01*
X132761738Y-119495761D01*
X132856976Y-119543380D01*
X133047452Y-119543380D01*
X133142690Y-119495761D01*
X131856976Y-119495761D02*
X131952214Y-119543380D01*
X132142690Y-119543380D01*
X132237928Y-119495761D01*
X132285547Y-119400523D01*
X132285547Y-119019571D01*
X132237928Y-118924333D01*
X132142690Y-118876714D01*
X131952214Y-118876714D01*
X131856976Y-118924333D01*
X131809357Y-119019571D01*
X131809357Y-119114809D01*
X132285547Y-119210047D01*
M02*
