%TF.GenerationSoftware,KiCad,Pcbnew,(6.0.1)*%
%TF.CreationDate,2022-02-13T11:40:04-05:00*%
%TF.ProjectId,STM32_Breakout,53544d33-325f-4427-9265-616b6f75742e,rev?*%
%TF.SameCoordinates,Original*%
%TF.FileFunction,Soldermask,Bot*%
%TF.FilePolarity,Negative*%
%FSLAX46Y46*%
G04 Gerber Fmt 4.6, Leading zero omitted, Abs format (unit mm)*
G04 Created by KiCad (PCBNEW (6.0.1)) date 2022-02-13 11:40:04*
%MOMM*%
%LPD*%
G01*
G04 APERTURE LIST*
%ADD10C,2.625000*%
%ADD11R,2.625000X2.625000*%
%ADD12C,0.900000*%
%ADD13C,8.600000*%
%ADD14R,1.700000X1.700000*%
%ADD15O,1.700000X1.700000*%
%ADD16C,1.450000*%
%ADD17R,1.370000X1.370000*%
%ADD18C,1.370000*%
G04 APERTURE END LIST*
D10*
%TO.C,S1*%
X60579000Y-103198000D03*
D11*
X65179000Y-103198000D03*
%TD*%
D12*
%TO.C,H1*%
X139780419Y-59780419D03*
X137500000Y-60725000D03*
X134275000Y-57500000D03*
X140725000Y-57500000D03*
X139780419Y-55219581D03*
X135219581Y-55219581D03*
X135219581Y-59780419D03*
D13*
X137500000Y-57500000D03*
D12*
X137500000Y-54275000D03*
%TD*%
D13*
%TO.C,H2*%
X57500000Y-137500000D03*
D12*
X55219581Y-139780419D03*
X54275000Y-137500000D03*
X60725000Y-137500000D03*
X59780419Y-135219581D03*
X59780419Y-139780419D03*
X57500000Y-140725000D03*
X55219581Y-135219581D03*
X57500000Y-134275000D03*
%TD*%
%TO.C,H3*%
X59780419Y-55219581D03*
X57500000Y-54275000D03*
X54275000Y-57500000D03*
D13*
X57500000Y-57500000D03*
D12*
X55219581Y-59780419D03*
X57500000Y-60725000D03*
X55219581Y-55219581D03*
X59780419Y-59780419D03*
X60725000Y-57500000D03*
%TD*%
%TO.C,H4*%
X134275000Y-137500000D03*
X139780419Y-135219581D03*
X139780419Y-139780419D03*
X137500000Y-140725000D03*
X140725000Y-137500000D03*
D13*
X137500000Y-137500000D03*
D12*
X135219581Y-135219581D03*
X137500000Y-134275000D03*
X135219581Y-139780419D03*
%TD*%
D14*
%TO.C,J1*%
X75000000Y-59500000D03*
D15*
X75000000Y-56960000D03*
X77540000Y-59500000D03*
X77540000Y-56960000D03*
X80080000Y-59500000D03*
X80080000Y-56960000D03*
X82620000Y-59500000D03*
X82620000Y-56960000D03*
X85160000Y-59500000D03*
X85160000Y-56960000D03*
X87700000Y-59500000D03*
X87700000Y-56960000D03*
X90240000Y-59500000D03*
X90240000Y-56960000D03*
X92780000Y-59500000D03*
X92780000Y-56960000D03*
X95320000Y-59500000D03*
X95320000Y-56960000D03*
X97860000Y-59500000D03*
X97860000Y-56960000D03*
X100400000Y-59500000D03*
X100400000Y-56960000D03*
X102940000Y-59500000D03*
X102940000Y-56960000D03*
X105480000Y-59500000D03*
X105480000Y-56960000D03*
X108020000Y-59500000D03*
X108020000Y-56960000D03*
X110560000Y-59500000D03*
X110560000Y-56960000D03*
X113100000Y-59500000D03*
X113100000Y-56960000D03*
X115640000Y-59500000D03*
X115640000Y-56960000D03*
X118180000Y-59500000D03*
X118180000Y-56960000D03*
X120720000Y-59500000D03*
X120720000Y-56960000D03*
X123260000Y-59500000D03*
X123260000Y-56960000D03*
%TD*%
D14*
%TO.C,J2*%
X123595000Y-141940000D03*
D15*
X126135000Y-141940000D03*
%TD*%
D16*
%TO.C,J4*%
X81320000Y-121760000D03*
X86320000Y-121760000D03*
%TD*%
D14*
%TO.C,J3*%
X72265000Y-142780000D03*
D15*
X69725000Y-142780000D03*
%TD*%
D17*
%TO.C,J5*%
X136270000Y-73920000D03*
D18*
X133730000Y-73920000D03*
X136270000Y-76460000D03*
X133730000Y-76460000D03*
X136270000Y-79000000D03*
X133730000Y-79000000D03*
X136270000Y-81540000D03*
X133730000Y-81540000D03*
X136270000Y-84080000D03*
X133730000Y-84080000D03*
%TD*%
D17*
%TO.C,J6*%
X61270000Y-73920000D03*
D18*
X58730000Y-73920000D03*
X61270000Y-76460000D03*
X58730000Y-76460000D03*
X61270000Y-79000000D03*
X58730000Y-79000000D03*
X61270000Y-81540000D03*
X58730000Y-81540000D03*
X61270000Y-84080000D03*
X58730000Y-84080000D03*
%TD*%
D16*
%TO.C,J8*%
X129380000Y-95480000D03*
X129380000Y-90480000D03*
%TD*%
M02*
