M48
; DRILL file {KiCad (6.0.1)} date Sun Feb 13 11:40:09 2022
; FORMAT={-:-/ absolute / inch / decimal}
; #@! TF.CreationDate,2022-02-13T11:40:09-05:00
; #@! TF.GenerationSoftware,Kicad,Pcbnew,(6.0.1)
; #@! TF.FileFunction,Plated,1,4,PTH
FMAT,2
INCH
; #@! TA.AperFunction,Plated,PTH,ViaDrill
T1C0.0157
; #@! TA.AperFunction,Plated,PTH,ViaDrill
T2C0.0236
; #@! TA.AperFunction,Plated,PTH,ComponentDrill
T3C0.0236
; #@! TA.AperFunction,Plated,PTH,ComponentDrill
T4C0.0335
; #@! TA.AperFunction,Plated,PTH,ComponentDrill
T5C0.0394
; #@! TA.AperFunction,Plated,PTH,ComponentDrill
T6C0.0402
; #@! TA.AperFunction,Plated,PTH,ComponentDrill
T7C0.0689
; #@! TA.AperFunction,Plated,PTH,ComponentDrill
T8C0.1693
%
G90
G05
T1
X2.065Y-4.795
X2.065Y-4.88
X2.07Y-4.18
X2.115Y-4.625
X2.16Y-2.66
X2.32Y-4.31
X2.38Y-5.185
X2.43Y-2.665
X2.55Y-4.66
X2.55Y-4.94
X2.625Y-3.905
X2.6406Y-3.7144
X2.66Y-4.615
X2.68Y-4.555
X2.685Y-3.88
X2.7Y-3.755
X2.735Y-3.53
X2.7492Y-4.4114
X2.7508Y-4.3303
X2.7626Y-4.8774
X2.772Y-3.7205
X2.795Y-3.835
X2.799Y-2.9005
X2.8Y-4.8
X2.83Y-4.625
X2.8303Y-4.7051
X2.8413Y-4.8772
X2.855Y-2.74
X2.87Y-3.375
X2.87Y-4.95
X2.8713Y-5.015
X2.885Y-2.625
X2.895Y-2.55
X2.9016Y-2.8084
X2.926Y-4.7453
X2.935Y-2.685
X2.935Y-4.475
X2.94Y-4.535
X2.9409Y-4.865
X2.9725Y-3.8
X3.0Y-3.0
X3.0Y-4.9
X3.005Y-5.025
X3.0249Y-3.4119
X3.0278Y-2.9
X3.03Y-3.23
X3.045Y-4.98
X3.054Y-4.2591
X3.0603Y-3.2897
X3.067Y-3.7894
X3.0819Y-4.2248
X3.0834Y-3.0653
X3.09Y-3.245
X3.1087Y-4.5187
X3.113Y-4.1004
X3.1142Y-3.0408
X3.1238Y-3.2762
X3.1353Y-3.8139
X3.1457Y-3.0653
X3.1508Y-2.465
X3.16Y-3.2
X3.1616Y-3.8432
X3.1726Y-4.7
X3.1784Y-2.4307
X3.1784Y-3.0295
X3.1786Y-4.1105
X3.197Y-3.1997
X3.2008Y-3.7301
X3.2059Y-3.0587
X3.225Y-4.26
X3.2281Y-4.1386
X3.2451Y-3.0548
X3.2508Y-2.4606
X3.2558Y-3.7354
X3.2595Y-3.6887
X3.2657Y-4.3977
X3.2673Y-4.1358
X3.2713Y-3.6512
X3.28Y-4.22
X3.29Y-4.62
X3.3043Y-2.8803
X3.31Y-4.745
X3.3115Y-4.1411
X3.3203Y-2.8098
X3.3479Y-2.7378
X3.35Y-3.635
X3.35Y-4.75
X3.36Y-3.05
X3.3689Y-3.8618
X3.3874Y-2.1449
X3.39Y-3.65
X3.39Y-5.2
X3.3945Y-3.0653
X3.3947Y-3.2036
X3.4008Y-2.8374
X3.4031Y-3.8941
X3.41Y-3.745
X3.4126Y-4.396
X3.43Y-5.165
X3.4339Y-3.0653
X3.4341Y-3.2034
X3.4382Y-3.9307
X3.448Y-2.7394
X3.45Y-5.08
X3.45Y-5.125
X3.4516Y-4.1931
X3.465Y-3.455
X3.471Y-2.6504
X3.4744Y-3.0653
X3.4744Y-3.202
X3.489Y-4.2343
X3.4949Y-4.3614
X3.5Y-4.6
X3.5011Y-4.4066
X3.5075Y-4.269
X3.5136Y-3.199
X3.5138Y-3.0653
X3.5142Y-2.9471
X3.5148Y-4.4435
X3.515Y-2.79
X3.535Y-3.335
X3.5417Y-2.9807
X3.5457Y-4.3063
X3.55Y-2.795
X3.5504Y-4.1936
X3.555Y-4.06
X3.5592Y-4.1492
X3.56Y-3.705
X3.58Y-2.645
X3.585Y-2.81
X3.5917Y-2.8701
X3.595Y-3.375
X3.6Y-3.0337
X3.6Y-4.8
X3.6Y-5.6
X3.6081Y-4.3852
X3.6121Y-3.2213
X3.6138Y-4.8866
X3.615Y-3.93
X3.62Y-4.925
X3.6276Y-4.4494
X3.6285Y-2.9183
X3.63Y-4.965
X3.6303Y-4.8275
X3.6364Y-2.815
X3.6378Y-2.8701
X3.6407Y-4.34
X3.6416Y-4.1604
X3.655Y-4.745
X3.6621Y-4.2187
X3.6681Y-4.8551
X3.675Y-4.7
X3.6751Y-4.3592
X3.6783Y-2.9737
X3.6803Y-2.815
X3.6815Y-2.8701
X3.685Y-4.0165
X3.69Y-5.075
X3.7Y-5.12
X3.7001Y-3.199
X3.7004Y-3.537
X3.705Y-5.165
X3.7051Y-3.2551
X3.7139Y-3.0634
X3.715Y-5.21
X3.7385Y-2.9747
X3.749Y-3.5908
X3.7495Y-2.933
X3.7498Y-3.2584
X3.75Y-2.63
X3.755Y-3.89
X3.7687Y-3.0259
X3.7689Y-3.0653
X3.77Y-4.7
X3.78Y-3.375
X3.7803Y-3.7
X3.785Y-2.72
X3.785Y-3.825
X3.786Y-3.6043
X3.7967Y-3.9
X3.7969Y-3.2275
X3.8Y-4.5402
X3.8052Y-3.7913
X3.8083Y-3.0653
X3.8084Y-4.2085
X3.8112Y-4.3122
X3.8123Y-4.0155
X3.8236Y-3.5926
X3.845Y-2.62
X3.8476Y-3.0653
X3.8598Y-3.6079
X3.8886Y-3.0653
X3.8913Y-2.7668
X3.894Y-3.5252
X3.9023Y-4.7523
X3.9117Y-4.4247
X3.9125Y-3.6875
X3.92Y-2.64
X3.922Y-4.3868
X3.9229Y-3.0453
X3.9279Y-3.589
X3.9347Y-2.4955
X3.9436Y-3.0787
X3.95Y-4.48
X3.9575Y-2.4634
X3.9725Y-3.1055
X3.9878Y-2.4311
X3.9895Y-3.5716
X4.0Y-4.2
X4.0Y-5.6
X4.0Y-3.1344
X4.0086Y-4.3264
X4.0275Y-3.1646
X4.0382Y-3.5436
X4.0413Y-3.7516
X4.0484Y-4.5138
X4.0508Y-4.3969
X4.0553Y-3.1924
X4.0571Y-3.7
X4.0797Y-4.4435
X4.0832Y-3.2203
X4.0854Y-3.6
X4.0862Y-4.005
X4.095Y-3.915
X4.1Y-3.845
X4.105Y-4.955
X4.1102Y-3.8806
X4.1405Y-3.6
X4.1508Y-4.4039
X4.1514Y-4.3644
X4.1642Y-5.4331
X4.18Y-4.4901
X4.1823Y-5.4898
X4.19Y-4.795
X4.1976Y-3.5
X4.2055Y-2.5264
X4.22Y-2.585
X4.2205Y-4.8988
X4.225Y-3.97
X4.235Y-4.605
X4.24Y-3.92
X4.2529Y-4.0286
X4.26Y-4.195
X4.2606Y-4.8311
X4.2607Y-4.4978
X4.2698Y-4.8694
X4.27Y-4.745
X4.2799Y-4.0
X4.285Y-3.2
X4.29Y-4.94
X4.295Y-5.635
X4.3Y-3.3725
X4.3Y-4.5
X4.3Y-5.21
X4.315Y-4.275
X4.32Y-2.58
X4.32Y-4.37
X4.34Y-4.705
X4.36Y-4.51
X4.36Y-4.915
X4.365Y-4.74
X4.375Y-3.205
X4.38Y-4.81
X4.38Y-4.87
X4.4Y-3.6118
X4.4Y-3.9
X4.4Y-5.375
X4.44Y-4.53
X4.4425Y-3.0527
X4.48Y-3.755
X4.4856Y-2.4144
X4.5Y-3.5
X4.5Y-3.9
X4.5Y-4.0
X4.5Y-4.222
X4.505Y-4.13
X4.515Y-2.645
X4.52Y-4.4924
X4.52Y-4.615
X4.525Y-4.565
X4.535Y-4.1039
X4.54Y-4.855
X4.555Y-4.77
X4.565Y-4.705
X4.5695Y-4.2695
X4.5718Y-2.6466
X4.5728Y-2.8433
X4.575Y-4.815
X4.5766Y-4.9063
X4.5813Y-3.9646
X4.59Y-3.785
X4.5995Y-3.9995
X4.61Y-5.43
X4.613Y-2.8433
X4.62Y-2.91
X4.6226Y-4.2378
X4.6273Y-3.9717
X4.635Y-5.255
X4.6413Y-2.6056
X4.645Y-5.31
X4.675Y-4.9055
X4.68Y-4.76
X4.68Y-4.81
X4.6862Y-4.2378
X4.7Y-4.4
X4.71Y-4.495
X4.715Y-4.1306
X4.7263Y-3.9507
X4.735Y-4.055
X4.735Y-4.715
X4.735Y-4.815
X4.74Y-3.835
X4.755Y-5.42
X4.7576Y-3.5035
X4.765Y-5.0
X4.78Y-3.755
X4.78Y-3.82
X4.78Y-4.125
X4.8Y-4.305
X4.8Y-4.4
X4.81Y-4.6562
X4.83Y-3.925
X4.8588Y-4.63
X4.88Y-5.08
X4.92Y-4.1379
X4.925Y-3.455
X4.9349Y-4.635
X4.95Y-3.925
X4.96Y-3.83
X4.96Y-4.25
X4.98Y-3.475
X4.98Y-3.965
X5.005Y-4.96
X5.0217Y-4.4563
X5.035Y-3.63
X5.04Y-3.595
X5.0459Y-4.9419
X5.055Y-4.785
X5.055Y-5.04
X5.06Y-3.8461
X5.06Y-4.661
X5.075Y-5.26
X5.105Y-3.815
X5.15Y-4.89
X5.1504Y-4.0
X5.16Y-4.6586
X5.1748Y-4.94
X5.225Y-4.685
X5.2323Y-4.0823
X5.24Y-4.83
X5.24Y-4.875
X5.24Y-4.975
X5.2764Y-5.1276
X5.3Y-2.675
X5.325Y-2.72
X5.395Y-4.2
X5.4297Y-5.1581
X5.435Y-4.19
X5.48Y-4.285
X5.4927Y-4.5073
X5.51Y-2.61
X5.54Y-2.655
X5.59Y-4.375
T2
X4.465Y-4.715
X4.47Y-4.915
T3
X2.1368Y-2.2638
X2.1368Y-5.4134
X2.174Y-2.174
X2.174Y-2.3536
X2.174Y-5.3236
X2.174Y-5.5032
X2.2638Y-2.1368
X2.2638Y-2.3907
X2.2638Y-5.2864
X2.2638Y-5.5404
X2.3536Y-2.174
X2.3536Y-2.3536
X2.3536Y-5.3236
X2.3536Y-5.5032
X2.3907Y-2.2638
X2.3907Y-5.4134
X5.2864Y-2.2638
X5.2864Y-5.4134
X5.3236Y-2.174
X5.3236Y-2.3536
X5.3236Y-5.3236
X5.3236Y-5.5032
X5.4134Y-2.1368
X5.4134Y-2.3907
X5.4134Y-5.2864
X5.4134Y-5.5404
X5.5032Y-2.174
X5.5032Y-2.3536
X5.5032Y-5.3236
X5.5032Y-5.5032
X5.5404Y-2.2638
X5.5404Y-5.4134
T4
X3.2016Y-4.7937
X3.3984Y-4.7937
X5.0937Y-3.5622
X5.0937Y-3.7591
T5
X2.7451Y-5.6213
X2.8451Y-5.6213
X2.9528Y-2.2425
X2.9528Y-2.3425
X3.0528Y-2.2425
X3.0528Y-2.3425
X3.1528Y-2.2425
X3.1528Y-2.3425
X3.2528Y-2.2425
X3.2528Y-2.3425
X3.3528Y-2.2425
X3.3528Y-2.3425
X3.4528Y-2.2425
X3.4528Y-2.3425
X3.5528Y-2.2425
X3.5528Y-2.3425
X3.6528Y-2.2425
X3.6528Y-2.3425
X3.7528Y-2.2425
X3.7528Y-2.3425
X3.8528Y-2.2425
X3.8528Y-2.3425
X3.9528Y-2.2425
X3.9528Y-2.3425
X4.0528Y-2.2425
X4.0528Y-2.3425
X4.1528Y-2.2425
X4.1528Y-2.3425
X4.2528Y-2.2425
X4.2528Y-2.3425
X4.3528Y-2.2425
X4.3528Y-2.3425
X4.4528Y-2.2425
X4.4528Y-2.3425
X4.5528Y-2.2425
X4.5528Y-2.3425
X4.6528Y-2.2425
X4.6528Y-2.3425
X4.7528Y-2.2425
X4.7528Y-2.3425
X4.8528Y-2.2425
X4.8528Y-2.3425
X4.8659Y-5.5882
X4.9659Y-5.5882
T6
X2.3122Y-2.9102
X2.3122Y-3.0102
X2.3122Y-3.1102
X2.3122Y-3.2102
X2.3122Y-3.3102
X2.4122Y-2.9102
X2.4122Y-3.0102
X2.4122Y-3.1102
X2.4122Y-3.2102
X2.4122Y-3.3102
X5.265Y-2.9102
X5.265Y-3.0102
X5.265Y-3.1102
X5.265Y-3.2102
X5.265Y-3.3102
X5.365Y-2.9102
X5.365Y-3.0102
X5.365Y-3.1102
X5.365Y-3.2102
X5.365Y-3.3102
T7
X2.385Y-4.0629
X2.5661Y-4.0629
T8
X2.2638Y-2.2638
X2.2638Y-5.4134
X5.4134Y-2.2638
X5.4134Y-5.4134
T3
G00X3.1622Y-4.8862
M15
G01X3.1622Y-4.9138
M16
G05
G00X3.4378Y-4.8862
M15
G01X3.4378Y-4.9138
M16
G05
G00X5.1862Y-3.5228
M15
G01X5.2138Y-3.5228
M16
G05
G00X5.1862Y-3.7984
M15
G01X5.2138Y-3.7984
M16
G05
T0
M30
