M48
; DRILL file {KiCad (6.0.7-1)-1} date Wednesday, January 04, 2023 at 12:50:36 pm
; FORMAT={-:-/ absolute / metric / decimal}
; #@! TF.CreationDate,2023-01-04T12:50:36-05:00
; #@! TF.GenerationSoftware,Kicad,Pcbnew,(6.0.7-1)-1
; #@! TF.FileFunction,Plated,1,4,PTH
FMAT,2
METRIC
; #@! TA.AperFunction,Plated,PTH,ViaDrill
T1C0.300
; #@! TA.AperFunction,Plated,PTH,ViaDrill
T2C0.600
; #@! TA.AperFunction,Plated,PTH,ComponentDrill
T3C1.000
; #@! TA.AperFunction,Plated,PTH,ComponentDrill
T4C1.500
; #@! TA.AperFunction,Plated,PTH,ComponentDrill
T5C1.700
; #@! TA.AperFunction,Plated,PTH,ComponentDrill
T6C3.200
%
G90
G05
T1
X110.084Y-117.246
X110.084Y-119.329
X110.084Y-124.46
X110.084Y-129.515
X110.084Y-134.645
X110.084Y-138.786
X111.303Y-115.976
X112.065Y-95.453
X113.309Y-141.986
X113.69Y-111.76
X113.69Y-114.368
X114.503Y-100.025
X116.815Y-115.976
X117.907Y-66.294
X119.329Y-141.986
X119.939Y-61.57
X121.92Y-115.976
X122.834Y-121.564
X123.139Y-122.53
X123.139Y-123.495
X124.46Y-141.986
X124.511Y-112.302
X124.538Y-118.364
X124.612Y-66.243
X124.663Y-73.863
X124.714Y-71.374
X125.832Y-122.53
X125.832Y-123.495
X125.91Y-117.907
X127.025Y-115.976
X129.489Y-141.986
X130.126Y-118.262
X131.47Y-84.938
X132.131Y-115.976
X133.096Y-117.145
X133.858Y-84.023
X133.993Y-74.346
X134.569Y-141.986
X135.246Y-75.59
X135.28Y-85.649
X137.16Y-115.976
X137.871Y-81.128
X137.871Y-82.652
X138.963Y-141.986
X139.294Y-115.976
X139.497Y-84.125
X140.779Y-117.462
X140.843Y-140.284
X142.342Y-134.645
X142.342Y-136.5
X142.342Y-138.582
X142.367Y-119.05
X142.392Y-121.082
X142.392Y-123.165
X148.082Y-87.579
X152.146Y-112.928
X152.146Y-113.741
X152.146Y-115.062
X152.451Y-80.772
X154.229Y-82.55
X154.432Y-112.928
X155.55Y-113.741
X156.007Y-80.772
X156.616Y-120.853
X156.882Y-83.402
X157.074Y-82.55
X157.582Y-115.062
X158.648Y-86.055
X159.309Y-84.029
X159.385Y-95.86
X160.748Y-84.063
X162.255Y-96.723
X162.306Y-79.807
X162.814Y-88.748
X164.309Y-84.684
X165.562Y-82.601
X166.218Y-84.661
X166.624Y-140.716
X168.743Y-83.907
X170.282Y-85.649
X172.72Y-89.205
X172.72Y-109.169
X173.634Y-107.798
X173.93Y-90.259
X174.142Y-140.665
X175.057Y-109.169
X175.158Y-90.758
X175.87Y-91.592
X175.87Y-109.169
X176.835Y-92.261
X176.835Y-109.169
X177.902Y-92.759
X177.902Y-109.169
X179.578Y-70.053
X179.578Y-71.272
X183.642Y-70.053
X183.642Y-71.272
X184.048Y-87.63
X188.773Y-91.643
X188.773Y-101.498
X190.449Y-80.01
X191.262Y-91.643
X191.262Y-101.498
X193.091Y-59.233
X193.091Y-61.671
X197.144Y-70.002
X197.307Y-67.564
X197.358Y-68.783
X197.409Y-66.192
T2
X122.072Y-96.215
X122.123Y-107.696
X144.678Y-107.696
X152.502Y-102.565
X152.502Y-103.835
X152.857Y-77.267
X153.873Y-77.267
X153.975Y-67.158
X154.889Y-77.267
X155.905Y-77.267
X156.566Y-96.926
X158.09Y-92.913
X158.191Y-71.222
X158.394Y-97.231
X158.445Y-65.38
X159.36Y-99.111
X159.664Y-74.473
X160.274Y-100.686
X161.696Y-89.059
X163.982Y-103.784
X164.287Y-67.107
X164.389Y-118.364
X164.389Y-129.794
X164.897Y-93.828
X165.773Y-100.48
X166.522Y-104.597
X168.046Y-104.648
X168.453Y-73.711
X169.57Y-104.597
X170.79Y-101.803
X170.84Y-98.755
X170.84Y-100.279
X171.552Y-88.24
X171.806Y-97.953
X183.845Y-73.863
X183.896Y-76.352
X186.589Y-49.073
X186.944Y-129.794
X190.856Y-73.863
X194.869Y-124.714
X194.869Y-126.035
T3
X119.925Y-63.734
X119.925Y-66.274
X119.925Y-68.814
X119.925Y-71.354
X119.925Y-73.894
X122.465Y-63.734
X122.465Y-66.274
X122.465Y-68.814
X122.465Y-71.354
X122.465Y-73.894
X123.19Y-52.07
X123.19Y-54.61
X123.19Y-57.15
X123.19Y-59.69
X125.73Y-52.07
X125.73Y-54.61
X125.73Y-57.15
X125.73Y-59.69
X128.27Y-52.07
X128.27Y-54.61
X128.27Y-57.15
X128.27Y-59.69
X130.81Y-52.07
X130.81Y-54.61
X130.81Y-57.15
X130.81Y-59.69
X133.35Y-52.07
X133.35Y-54.61
X133.35Y-57.15
X133.35Y-59.69
X135.89Y-52.07
X135.89Y-54.61
X135.89Y-57.15
X135.89Y-59.69
X138.43Y-52.07
X138.43Y-54.61
X138.43Y-57.15
X138.43Y-59.69
X140.97Y-52.07
X140.97Y-54.61
X140.97Y-57.15
X140.97Y-59.69
X143.51Y-52.07
X143.51Y-54.61
X143.51Y-57.15
X143.51Y-59.69
X146.05Y-52.07
X146.05Y-54.61
X146.05Y-57.15
X146.05Y-59.69
X148.59Y-52.07
X148.59Y-54.61
X148.59Y-57.15
X148.59Y-59.69
X151.13Y-52.07
X151.13Y-54.61
X151.13Y-57.15
X151.13Y-59.69
X153.67Y-52.07
X153.67Y-54.61
X153.67Y-57.15
X153.67Y-59.69
X156.21Y-52.07
X156.21Y-54.61
X156.21Y-57.15
X156.21Y-59.69
X158.75Y-52.07
X158.75Y-54.61
X158.75Y-57.15
X158.75Y-59.69
X161.29Y-52.07
X161.29Y-54.61
X161.29Y-57.15
X161.29Y-59.69
X163.83Y-52.07
X163.83Y-54.61
X163.83Y-57.15
X163.83Y-59.69
X166.37Y-52.07
X166.37Y-54.61
X166.37Y-57.15
X166.37Y-59.69
X168.91Y-52.07
X168.91Y-54.61
X168.91Y-57.15
X168.91Y-59.69
X171.45Y-52.07
X171.45Y-54.61
X171.45Y-57.15
X171.45Y-59.69
X173.99Y-52.07
X173.99Y-54.61
X173.99Y-57.15
X173.99Y-59.69
X176.53Y-52.07
X176.53Y-54.61
X176.53Y-57.15
X176.53Y-59.69
X179.07Y-52.07
X179.07Y-54.61
X179.07Y-57.15
X179.07Y-59.69
X181.61Y-52.07
X181.61Y-54.61
X181.61Y-57.15
X181.61Y-59.69
X184.15Y-52.07
X184.15Y-54.61
X184.15Y-57.15
X184.15Y-59.69
X186.233Y-80.0
X186.233Y-82.54
X186.233Y-85.08
X186.233Y-87.62
X186.272Y-63.678
X186.272Y-66.218
X186.272Y-68.758
X186.272Y-71.298
X186.272Y-73.838
X186.272Y-76.378
X186.69Y-52.07
X186.69Y-54.61
X186.69Y-57.15
X186.69Y-59.69
X188.773Y-80.0
X188.773Y-82.54
X188.773Y-85.08
X188.773Y-87.62
X188.812Y-63.678
X188.812Y-66.218
X188.812Y-68.758
X188.812Y-71.298
X188.812Y-73.838
X188.812Y-76.378
T4
X115.367Y-130.048
X115.418Y-120.65
T5
X112.827Y-127.508
X112.827Y-132.588
X112.878Y-118.11
X112.878Y-123.19
X117.907Y-127.508
X117.907Y-132.588
X117.958Y-118.11
X117.958Y-123.19
T6
X114.3Y-137.795
X118.11Y-52.07
X191.77Y-52.07
X194.31Y-137.795
T0
M30
