G04 #@! TF.GenerationSoftware,KiCad,Pcbnew,(6.0.7-1)-1*
G04 #@! TF.CreationDate,2023-01-04T12:49:58-05:00*
G04 #@! TF.ProjectId,comm-rfb,636f6d6d-2d72-4666-922e-6b696361645f,rev?*
G04 #@! TF.SameCoordinates,Original*
G04 #@! TF.FileFunction,Copper,L4,Bot*
G04 #@! TF.FilePolarity,Positive*
%FSLAX46Y46*%
G04 Gerber Fmt 4.6, Leading zero omitted, Abs format (unit mm)*
G04 Created by KiCad (PCBNEW (6.0.7-1)-1) date 2023-01-04 12:49:58*
%MOMM*%
%LPD*%
G01*
G04 APERTURE LIST*
G04 #@! TA.AperFunction,ConnectorPad*
%ADD10C,6.400000*%
G04 #@! TD*
G04 #@! TA.AperFunction,ComponentPad*
%ADD11C,3.600000*%
G04 #@! TD*
G04 #@! TA.AperFunction,ComponentPad*
%ADD12C,2.050000*%
G04 #@! TD*
G04 #@! TA.AperFunction,ComponentPad*
%ADD13C,2.250000*%
G04 #@! TD*
G04 #@! TA.AperFunction,ComponentPad*
%ADD14R,1.524000X1.524000*%
G04 #@! TD*
G04 #@! TA.AperFunction,ComponentPad*
%ADD15C,1.524000*%
G04 #@! TD*
G04 #@! TA.AperFunction,ComponentPad*
%ADD16R,1.700000X1.700000*%
G04 #@! TD*
G04 #@! TA.AperFunction,ComponentPad*
%ADD17O,1.700000X1.700000*%
G04 #@! TD*
G04 #@! TA.AperFunction,ViaPad*
%ADD18C,0.600000*%
G04 #@! TD*
G04 #@! TA.AperFunction,ViaPad*
%ADD19C,1.000000*%
G04 #@! TD*
G04 #@! TA.AperFunction,Conductor*
%ADD20C,0.254000*%
G04 #@! TD*
G04 #@! TA.AperFunction,Conductor*
%ADD21C,0.508000*%
G04 #@! TD*
G04 #@! TA.AperFunction,Conductor*
%ADD22C,0.250000*%
G04 #@! TD*
G04 APERTURE END LIST*
D10*
X191770000Y-52070000D03*
D11*
X191770000Y-52070000D03*
X118110000Y-52070000D03*
D10*
X118110000Y-52070000D03*
X114300000Y-137795000D03*
D11*
X114300000Y-137795000D03*
D12*
X115366800Y-130048000D03*
D13*
X117906800Y-127508000D03*
X117906800Y-132588000D03*
X112826800Y-127508000D03*
X112826800Y-132588000D03*
D12*
X115417600Y-120650000D03*
D13*
X117957600Y-118110000D03*
X112877600Y-118110000D03*
X117957600Y-123190000D03*
X112877600Y-123190000D03*
D14*
X186690000Y-52070000D03*
D15*
X186690000Y-54610000D03*
X184150000Y-52070000D03*
X184150000Y-54610000D03*
X181610000Y-52070000D03*
X181610000Y-54610000D03*
X179070000Y-52070000D03*
X179070000Y-54610000D03*
X176530000Y-52070000D03*
X176530000Y-54610000D03*
X173990000Y-52070000D03*
X173990000Y-54610000D03*
X171450000Y-52070000D03*
X171450000Y-54610000D03*
X168910000Y-52070000D03*
X168910000Y-54610000D03*
X166370000Y-52070000D03*
X166370000Y-54610000D03*
X163830000Y-52070000D03*
X163830000Y-54610000D03*
X161290000Y-52070000D03*
X161290000Y-54610000D03*
X158750000Y-52070000D03*
X158750000Y-54610000D03*
X156210000Y-52070000D03*
X156210000Y-54610000D03*
X153670000Y-52070000D03*
X153670000Y-54610000D03*
X151130000Y-52070000D03*
X151130000Y-54610000D03*
X148590000Y-52070000D03*
X148590000Y-54610000D03*
X146050000Y-52070000D03*
X146050000Y-54610000D03*
X143510000Y-52070000D03*
X143510000Y-54610000D03*
X140970000Y-52070000D03*
X140970000Y-54610000D03*
X138430000Y-52070000D03*
X138430000Y-54610000D03*
X135890000Y-52070000D03*
X135890000Y-54610000D03*
X133350000Y-52070000D03*
X133350000Y-54610000D03*
X130810000Y-52070000D03*
X130810000Y-54610000D03*
X128270000Y-52070000D03*
X128270000Y-54610000D03*
X125730000Y-52070000D03*
X125730000Y-54610000D03*
X123190000Y-52070000D03*
X123190000Y-54610000D03*
X186690000Y-57150000D03*
X186690000Y-59690000D03*
X184150000Y-57150000D03*
X184150000Y-59690000D03*
X181610000Y-57150000D03*
X181610000Y-59690000D03*
X179070000Y-57150000D03*
X179070000Y-59690000D03*
X176530000Y-57150000D03*
X176530000Y-59690000D03*
X173990000Y-57150000D03*
X173990000Y-59690000D03*
X171450000Y-57150000D03*
X171450000Y-59690000D03*
X168910000Y-57150000D03*
X168910000Y-59690000D03*
X166370000Y-57150000D03*
X166370000Y-59690000D03*
X163830000Y-57150000D03*
X163830000Y-59690000D03*
X161290000Y-57150000D03*
X161290000Y-59690000D03*
X158750000Y-57150000D03*
X158750000Y-59690000D03*
X156210000Y-57150000D03*
X156210000Y-59690000D03*
X153670000Y-57150000D03*
X153670000Y-59690000D03*
X151130000Y-57150000D03*
X151130000Y-59690000D03*
X148590000Y-57150000D03*
X148590000Y-59690000D03*
X146050000Y-57150000D03*
X146050000Y-59690000D03*
X143510000Y-57150000D03*
X143510000Y-59690000D03*
X140970000Y-57150000D03*
X140970000Y-59690000D03*
X138430000Y-57150000D03*
X138430000Y-59690000D03*
X135890000Y-57150000D03*
X135890000Y-59690000D03*
X133350000Y-57150000D03*
X133350000Y-59690000D03*
X130810000Y-57150000D03*
X130810000Y-59690000D03*
X128270000Y-57150000D03*
X128270000Y-59690000D03*
X125730000Y-57150000D03*
X125730000Y-59690000D03*
X123190000Y-57150000D03*
X123190000Y-59690000D03*
D16*
X186232800Y-87620000D03*
D17*
X188772800Y-87620000D03*
X186232800Y-85080000D03*
X188772800Y-85080000D03*
X186232800Y-82540000D03*
X188772800Y-82540000D03*
X186232800Y-80000000D03*
X188772800Y-80000000D03*
D11*
X194310000Y-137795000D03*
D10*
X194310000Y-137795000D03*
D16*
X122465000Y-63734000D03*
D17*
X119925000Y-63734000D03*
X122465000Y-66274000D03*
X119925000Y-66274000D03*
X122465000Y-68814000D03*
X119925000Y-68814000D03*
X122465000Y-71354000D03*
X119925000Y-71354000D03*
X122465000Y-73894000D03*
X119925000Y-73894000D03*
D16*
X186272000Y-76378200D03*
D17*
X188812000Y-76378200D03*
X186272000Y-73838200D03*
X188812000Y-73838200D03*
X186272000Y-71298200D03*
X188812000Y-71298200D03*
X186272000Y-68758200D03*
X188812000Y-68758200D03*
X186272000Y-66218200D03*
X188812000Y-66218200D03*
X186272000Y-63678200D03*
X188812000Y-63678200D03*
D18*
X139496800Y-84124800D03*
X142392400Y-123164600D03*
X142341600Y-138582400D03*
X124663200Y-73863200D03*
D19*
X164388800Y-118364000D03*
D18*
X113309400Y-141986000D03*
X139293600Y-115976400D03*
D19*
X153974800Y-67157600D03*
X163982400Y-103784400D03*
D18*
X124612400Y-66243200D03*
D19*
X164287200Y-67106800D03*
D18*
X110083600Y-138785600D03*
D19*
X183845200Y-73863200D03*
D18*
X133858000Y-84023200D03*
D19*
X159664400Y-74472800D03*
D18*
X135280400Y-85648800D03*
D19*
X159359600Y-99110800D03*
D18*
X110083600Y-129514600D03*
X129489200Y-141986000D03*
X140779500Y-117462300D03*
X138963400Y-141986000D03*
X125909800Y-117906800D03*
D19*
X166522400Y-104597200D03*
D18*
X140843000Y-140284200D03*
X110083600Y-124460000D03*
D19*
X158394400Y-97231200D03*
X156565600Y-96926400D03*
D18*
X184048400Y-87630000D03*
X132130800Y-115976400D03*
X119329200Y-141986000D03*
X119938800Y-61569600D03*
X121920000Y-115976400D03*
D19*
X171551600Y-88239600D03*
D18*
X123139200Y-122529600D03*
D19*
X170840400Y-98755200D03*
D18*
X137871200Y-81127600D03*
X134569200Y-141986000D03*
X123139200Y-123494800D03*
D19*
X122123200Y-107696000D03*
X158191200Y-71221600D03*
X122072400Y-96215200D03*
X158445200Y-65379600D03*
D18*
X142392400Y-121081800D03*
X174142400Y-140665200D03*
X131470400Y-84937600D03*
X110083600Y-134645400D03*
X142367000Y-119049800D03*
X160748246Y-84062651D03*
D19*
X168452800Y-73710800D03*
X160274000Y-100685600D03*
D18*
X122834400Y-121564400D03*
D19*
X164896800Y-93827600D03*
X168046400Y-104648000D03*
X165773400Y-100479800D03*
D18*
X116814600Y-115976400D03*
X142341600Y-136499600D03*
X111302800Y-115976400D03*
D19*
X144678400Y-107696000D03*
D18*
X142341600Y-134645400D03*
D19*
X190855600Y-73863200D03*
X158089600Y-92913200D03*
X170840400Y-100279200D03*
D18*
X130126200Y-118262400D03*
D19*
X164388800Y-129794000D03*
D18*
X127025400Y-115976400D03*
X110083600Y-117246400D03*
D19*
X186944000Y-129794000D03*
D18*
X137160000Y-115976400D03*
X124460000Y-141986000D03*
X110083600Y-119329200D03*
X183642000Y-71272400D03*
X133993500Y-74345800D03*
X156006800Y-80772000D03*
X135246500Y-75590400D03*
X152450800Y-80772000D03*
X179578000Y-71272400D03*
X172720000Y-89204800D03*
X124510800Y-112301900D03*
X172720000Y-109169200D03*
X124538200Y-118364000D03*
D19*
X153873200Y-77266800D03*
D18*
X159308800Y-84028897D03*
X159385000Y-95859600D03*
D19*
X170789600Y-101803200D03*
X152501600Y-102565200D03*
X183896000Y-76352400D03*
X194868800Y-124714000D03*
X194868800Y-126034800D03*
D18*
X124714000Y-71374000D03*
X133096000Y-117144800D03*
D19*
X154889200Y-77266800D03*
X169570400Y-104597200D03*
D18*
X117906800Y-66294000D03*
X166624000Y-140716000D03*
D19*
X155905200Y-77266800D03*
D18*
X137871200Y-82651600D03*
X170281600Y-85648800D03*
X125831600Y-123494800D03*
D19*
X152857200Y-77266800D03*
D18*
X125831600Y-122529600D03*
X162255200Y-96723200D03*
X190449200Y-80010000D03*
D19*
X152501600Y-103835200D03*
D18*
X164309100Y-84683600D03*
X165562100Y-82600800D03*
X193090800Y-61671200D03*
X193090800Y-59232800D03*
D19*
X186589111Y-49072800D03*
D18*
X175056800Y-109169200D03*
X175157647Y-90757947D03*
X156616400Y-120853200D03*
X177901600Y-109169200D03*
X113690400Y-114367700D03*
X152146000Y-115062000D03*
X113690400Y-111760000D03*
X177901600Y-92758700D03*
X157581600Y-115062000D03*
X175869600Y-109169200D03*
X154432000Y-112928400D03*
X175869600Y-91592400D03*
X152146000Y-112928400D03*
X152146000Y-113741200D03*
X155549600Y-113741200D03*
X176834800Y-92260700D03*
X176834800Y-109169200D03*
D19*
X171805600Y-97952900D03*
X161696400Y-89058700D03*
D18*
X114503200Y-100025200D03*
X112064800Y-95453200D03*
X173929932Y-90258700D03*
X173634400Y-107797600D03*
X158648400Y-86055200D03*
X162814000Y-88747600D03*
X179578000Y-70053200D03*
X157073600Y-82550000D03*
X154228800Y-82550000D03*
X183642000Y-70053200D03*
X162306000Y-79806800D03*
X188772800Y-91643200D03*
X188772800Y-101498400D03*
X166218236Y-84660559D03*
X168743403Y-83907403D03*
X191262000Y-101498400D03*
X191262000Y-91643200D03*
X197307200Y-67564000D03*
X197408800Y-66192400D03*
X197144300Y-70002400D03*
X197358000Y-68783200D03*
X156881603Y-83402397D03*
X148082000Y-87579200D03*
D20*
X152450800Y-80772000D02*
X156006800Y-80772000D01*
X135238100Y-75590400D02*
X135246500Y-75590400D01*
X183642000Y-71272400D02*
X179578000Y-71272400D01*
X133993500Y-74345800D02*
X135238100Y-75590400D01*
X172720000Y-106172000D02*
X172720000Y-109169200D01*
X124538200Y-118364000D02*
X124538200Y-116867400D01*
X172720000Y-89204800D02*
X172720000Y-105257600D01*
X172720000Y-105257600D02*
X172720000Y-106172000D01*
X124510800Y-116840000D02*
X124510800Y-112301900D01*
X124538200Y-116867400D02*
X124510800Y-116840000D01*
D21*
X198577200Y-73253600D02*
X198577200Y-51917600D01*
X194310000Y-47650400D02*
X172973289Y-47650400D01*
X188812000Y-76378200D02*
X195452600Y-76378200D01*
X195452600Y-76378200D02*
X198577200Y-73253600D01*
X172973289Y-47650400D02*
X170180000Y-50443689D01*
X170180000Y-55880000D02*
X168910000Y-57150000D01*
X198577200Y-51917600D02*
X194310000Y-47650400D01*
X170180000Y-50443689D02*
X170180000Y-55880000D01*
D20*
X164309100Y-84683600D02*
X164236400Y-84610900D01*
X164236400Y-83921600D02*
X164241300Y-83921600D01*
X164241300Y-83921600D02*
X165562100Y-82600800D01*
X164236400Y-84610900D02*
X164236400Y-83921600D01*
X193090800Y-59232800D02*
X193090800Y-61671200D01*
D21*
X188812000Y-63678200D02*
X187962000Y-62828200D01*
X187962000Y-50445689D02*
X186589111Y-49072800D01*
X187962000Y-62828200D02*
X187962000Y-50445689D01*
D20*
X175056800Y-105003600D02*
X175056800Y-106172000D01*
X175056800Y-90858794D02*
X175056800Y-105003600D01*
X175056800Y-106172000D02*
X175056800Y-109169200D01*
X175157647Y-90757947D02*
X175056800Y-90858794D01*
D22*
X155448000Y-120091200D02*
X156210000Y-120853200D01*
D20*
X156159200Y-115062000D02*
X152146000Y-115062000D01*
D22*
X156210000Y-115112800D02*
X155448000Y-115874800D01*
X155448000Y-115874800D02*
X155448000Y-120091200D01*
X156210000Y-120853200D02*
X156616400Y-120853200D01*
D20*
X113690400Y-111760000D02*
X113690400Y-114367700D01*
D22*
X177901600Y-106172000D02*
X177901600Y-109169200D01*
X177901600Y-92758700D02*
X177901600Y-106172000D01*
X156260800Y-115062000D02*
X157581600Y-115062000D01*
D20*
X175869600Y-106158703D02*
X175869600Y-109169200D01*
X175869600Y-91592400D02*
X175869600Y-106158703D01*
X154432000Y-112928400D02*
X152146000Y-112928400D01*
X152146000Y-113741200D02*
X155549600Y-113741200D01*
X176834800Y-105511600D02*
X176834800Y-106172000D01*
X176834800Y-106172000D02*
X176834800Y-109169200D01*
X176834800Y-92260700D02*
X176834800Y-105511600D01*
X170738800Y-97688400D02*
X171541100Y-97688400D01*
X167487600Y-94437200D02*
X170738800Y-97688400D01*
X171541100Y-97688400D02*
X171805600Y-97952900D01*
X162109100Y-89058700D02*
X167487600Y-94437200D01*
X161696400Y-89058700D02*
X162109100Y-89058700D01*
X112064800Y-95453200D02*
X112064800Y-98907600D01*
X113182400Y-100025200D02*
X114503200Y-100025200D01*
X112064800Y-98907600D02*
X113182400Y-100025200D01*
X173634400Y-107797600D02*
X173990000Y-107442000D01*
X173990000Y-107442000D02*
X173990000Y-90318768D01*
X173990000Y-90318768D02*
X173929932Y-90258700D01*
X161061400Y-88036400D02*
X159080200Y-86055200D01*
X162814000Y-88747600D02*
X162102800Y-88036400D01*
X162102800Y-88036400D02*
X161061400Y-88036400D01*
X159080200Y-86055200D02*
X158648400Y-86055200D01*
X156018003Y-82538797D02*
X154240003Y-82538797D01*
X162306000Y-79806800D02*
X158750000Y-79806800D01*
X158750000Y-79806800D02*
X156018003Y-82538797D01*
X154240003Y-82538797D02*
X154228800Y-82550000D01*
X183642000Y-70053200D02*
X179578000Y-70053200D01*
X156018003Y-82538797D02*
X157062397Y-82538797D01*
X157062397Y-82538797D02*
X157073600Y-82550000D01*
X188772800Y-91643200D02*
X188772800Y-101498400D01*
X166979600Y-83921600D02*
X166240641Y-84660559D01*
X166240641Y-84660559D02*
X166218236Y-84660559D01*
X168743403Y-83907403D02*
X168729206Y-83921600D01*
X168729206Y-83921600D02*
X166979600Y-83921600D01*
X191262000Y-91643200D02*
X191262000Y-101498400D01*
X197307200Y-67564000D02*
X187466200Y-67564000D01*
X187466200Y-67564000D02*
X186272000Y-68758200D01*
X197408800Y-66192400D02*
X197383000Y-66218200D01*
X197383000Y-66218200D02*
X188812000Y-66218200D01*
X184962800Y-70002400D02*
X184454800Y-69494400D01*
X184454800Y-66751200D02*
X184987800Y-66218200D01*
X184454800Y-69494400D02*
X184454800Y-66751200D01*
X197144300Y-70002400D02*
X184962800Y-70002400D01*
X184987800Y-66218200D02*
X186272000Y-66218200D01*
X197333000Y-68758200D02*
X188812000Y-68758200D01*
X197358000Y-68783200D02*
X197333000Y-68758200D01*
X156870400Y-83413600D02*
X155143200Y-83413600D01*
X148082000Y-87579200D02*
X150977600Y-87579200D01*
X156881603Y-83402397D02*
X156870400Y-83413600D01*
X150977600Y-87579200D02*
X155143200Y-83413600D01*
M02*
