G04 #@! TF.GenerationSoftware,KiCad,Pcbnew,(6.0.7-1)-1*
G04 #@! TF.CreationDate,2023-01-09T18:43:15-05:00*
G04 #@! TF.ProjectId,DebugBoard,44656275-6742-46f6-9172-642e6b696361,rev?*
G04 #@! TF.SameCoordinates,Original*
G04 #@! TF.FileFunction,Copper,L4,Bot*
G04 #@! TF.FilePolarity,Positive*
%FSLAX46Y46*%
G04 Gerber Fmt 4.6, Leading zero omitted, Abs format (unit mm)*
G04 Created by KiCad (PCBNEW (6.0.7-1)-1) date 2023-01-09 18:43:15*
%MOMM*%
%LPD*%
G01*
G04 APERTURE LIST*
G04 #@! TA.AperFunction,ComponentPad*
%ADD10C,2.159000*%
G04 #@! TD*
G04 #@! TA.AperFunction,ComponentPad*
%ADD11O,1.700000X1.700000*%
G04 #@! TD*
G04 #@! TA.AperFunction,ComponentPad*
%ADD12R,1.700000X1.700000*%
G04 #@! TD*
G04 #@! TA.AperFunction,ComponentPad*
%ADD13C,4.400000*%
G04 #@! TD*
G04 #@! TA.AperFunction,ComponentPad*
%ADD14C,1.600000*%
G04 #@! TD*
G04 #@! TA.AperFunction,ComponentPad*
%ADD15O,1.600000X1.600000*%
G04 #@! TD*
G04 #@! TA.AperFunction,ComponentPad*
%ADD16R,1.800000X1.800000*%
G04 #@! TD*
G04 #@! TA.AperFunction,ComponentPad*
%ADD17C,1.800000*%
G04 #@! TD*
G04 #@! TA.AperFunction,ComponentPad*
%ADD18C,0.700000*%
G04 #@! TD*
G04 #@! TA.AperFunction,ComponentPad*
%ADD19O,1.700000X0.900000*%
G04 #@! TD*
G04 #@! TA.AperFunction,ComponentPad*
%ADD20O,2.400000X0.900000*%
G04 #@! TD*
G04 #@! TA.AperFunction,ViaPad*
%ADD21C,0.800000*%
G04 #@! TD*
G04 #@! TA.AperFunction,Conductor*
%ADD22C,0.254000*%
G04 #@! TD*
G04 APERTURE END LIST*
D10*
X124130001Y-107982250D03*
X119380000Y-107982250D03*
X114630000Y-107982250D03*
D11*
X132683400Y-87670400D03*
X132683400Y-85130400D03*
D12*
X132683400Y-82590400D03*
D13*
X100330000Y-76200000D03*
D12*
X132760000Y-95915000D03*
D11*
X132760000Y-93375000D03*
D14*
X107950000Y-85090000D03*
D15*
X107950000Y-92710000D03*
D16*
X101600000Y-82550000D03*
D17*
X101600000Y-80010000D03*
D12*
X104710000Y-109220000D03*
D11*
X102170000Y-109220000D03*
X104710000Y-106680000D03*
X102170000Y-106680000D03*
X104710000Y-104140000D03*
X102170000Y-104140000D03*
X104710000Y-101600000D03*
X102170000Y-101600000D03*
X104710000Y-99060000D03*
X102170000Y-99060000D03*
X104710000Y-96520000D03*
X102170000Y-96520000D03*
D18*
X133770000Y-108385000D03*
X133770000Y-107535000D03*
X133770000Y-106685000D03*
X133770000Y-105835000D03*
X133770000Y-104985000D03*
X133770000Y-104135000D03*
X133770000Y-103285000D03*
X133770000Y-102435000D03*
X135120000Y-102435000D03*
X135120000Y-103285000D03*
X135120000Y-104135000D03*
X135120000Y-104985000D03*
X135120000Y-105835000D03*
X135120000Y-106685000D03*
X135120000Y-107535000D03*
X135120000Y-108385000D03*
D19*
X138130000Y-109735000D03*
D20*
X134750000Y-101085000D03*
X134750000Y-109735000D03*
D19*
X138130000Y-101085000D03*
D13*
X100330000Y-114300000D03*
X140335000Y-76200000D03*
X140335000Y-114300000D03*
D14*
X114300000Y-85090000D03*
D15*
X114300000Y-92710000D03*
D14*
X101600000Y-85090000D03*
D15*
X101600000Y-92710000D03*
D16*
X107950000Y-82550000D03*
D17*
X107950000Y-80010000D03*
D16*
X114300000Y-82550000D03*
D17*
X114300000Y-80010000D03*
D21*
X115290600Y-115087400D03*
X132765800Y-97713800D03*
X102158800Y-110693200D03*
X104571800Y-115062000D03*
X126365000Y-87757000D03*
X114630000Y-107982250D03*
D22*
X132683400Y-85130400D02*
X134112000Y-83701800D01*
X134112000Y-81457800D02*
X133299200Y-80645000D01*
X113173000Y-94987530D02*
X105197530Y-102963000D01*
X133299200Y-80645000D02*
X124694814Y-80645000D01*
X134112000Y-83701800D02*
X134112000Y-81457800D01*
X124694814Y-80645000D02*
X113173000Y-92166814D01*
X113173000Y-92166814D02*
X113173000Y-94987530D01*
X102819200Y-104140000D02*
X102170000Y-104140000D01*
X105197530Y-102963000D02*
X103996200Y-102963000D01*
X103996200Y-102963000D02*
X102819200Y-104140000D01*
X104710000Y-104140000D02*
X126249200Y-82600800D01*
X126249200Y-82600800D02*
X132673000Y-82600800D01*
X103533000Y-102777000D02*
X104710000Y-101600000D01*
X100373000Y-81237000D02*
X100373000Y-101467530D01*
X101682470Y-102777000D02*
X103533000Y-102777000D01*
X101600000Y-80010000D02*
X100373000Y-81237000D01*
X100373000Y-101467530D02*
X101682470Y-102777000D01*
X103347000Y-100423000D02*
X102170000Y-101600000D01*
X107950000Y-80010000D02*
X103347000Y-84613000D01*
X103347000Y-84613000D02*
X103347000Y-100423000D01*
X109077000Y-94693000D02*
X104710000Y-99060000D01*
X114300000Y-80010000D02*
X109077000Y-85233000D01*
X109077000Y-85233000D02*
X109077000Y-94693000D01*
M02*
