G04 #@! TF.GenerationSoftware,KiCad,Pcbnew,(6.0.7-1)-1*
G04 #@! TF.CreationDate,2023-01-09T18:43:15-05:00*
G04 #@! TF.ProjectId,DebugBoard,44656275-6742-46f6-9172-642e6b696361,rev?*
G04 #@! TF.SameCoordinates,Original*
G04 #@! TF.FileFunction,Copper,L3,Inr*
G04 #@! TF.FilePolarity,Positive*
%FSLAX46Y46*%
G04 Gerber Fmt 4.6, Leading zero omitted, Abs format (unit mm)*
G04 Created by KiCad (PCBNEW (6.0.7-1)-1) date 2023-01-09 18:43:15*
%MOMM*%
%LPD*%
G01*
G04 APERTURE LIST*
G04 #@! TA.AperFunction,ComponentPad*
%ADD10C,2.159000*%
G04 #@! TD*
G04 #@! TA.AperFunction,ComponentPad*
%ADD11O,1.700000X1.700000*%
G04 #@! TD*
G04 #@! TA.AperFunction,ComponentPad*
%ADD12R,1.700000X1.700000*%
G04 #@! TD*
G04 #@! TA.AperFunction,ComponentPad*
%ADD13C,4.400000*%
G04 #@! TD*
G04 #@! TA.AperFunction,ComponentPad*
%ADD14C,1.600000*%
G04 #@! TD*
G04 #@! TA.AperFunction,ComponentPad*
%ADD15O,1.600000X1.600000*%
G04 #@! TD*
G04 #@! TA.AperFunction,ComponentPad*
%ADD16R,1.800000X1.800000*%
G04 #@! TD*
G04 #@! TA.AperFunction,ComponentPad*
%ADD17C,1.800000*%
G04 #@! TD*
G04 #@! TA.AperFunction,ComponentPad*
%ADD18C,0.700000*%
G04 #@! TD*
G04 #@! TA.AperFunction,ComponentPad*
%ADD19O,1.700000X0.900000*%
G04 #@! TD*
G04 #@! TA.AperFunction,ComponentPad*
%ADD20O,2.400000X0.900000*%
G04 #@! TD*
G04 #@! TA.AperFunction,ViaPad*
%ADD21C,0.800000*%
G04 #@! TD*
G04 APERTURE END LIST*
D10*
X124130001Y-107982250D03*
X119380000Y-107982250D03*
X114630000Y-107982250D03*
D11*
X132683400Y-87670400D03*
X132683400Y-85130400D03*
D12*
X132683400Y-82590400D03*
D13*
X100330000Y-76200000D03*
D12*
X132760000Y-95915000D03*
D11*
X132760000Y-93375000D03*
D14*
X107950000Y-85090000D03*
D15*
X107950000Y-92710000D03*
D16*
X101600000Y-82550000D03*
D17*
X101600000Y-80010000D03*
D12*
X104710000Y-109220000D03*
D11*
X102170000Y-109220000D03*
X104710000Y-106680000D03*
X102170000Y-106680000D03*
X104710000Y-104140000D03*
X102170000Y-104140000D03*
X104710000Y-101600000D03*
X102170000Y-101600000D03*
X104710000Y-99060000D03*
X102170000Y-99060000D03*
X104710000Y-96520000D03*
X102170000Y-96520000D03*
D18*
X133770000Y-108385000D03*
X133770000Y-107535000D03*
X133770000Y-106685000D03*
X133770000Y-105835000D03*
X133770000Y-104985000D03*
X133770000Y-104135000D03*
X133770000Y-103285000D03*
X133770000Y-102435000D03*
X135120000Y-102435000D03*
X135120000Y-103285000D03*
X135120000Y-104135000D03*
X135120000Y-104985000D03*
X135120000Y-105835000D03*
X135120000Y-106685000D03*
X135120000Y-107535000D03*
X135120000Y-108385000D03*
D19*
X138130000Y-109735000D03*
D20*
X134750000Y-101085000D03*
X134750000Y-109735000D03*
D19*
X138130000Y-101085000D03*
D13*
X100330000Y-114300000D03*
X140335000Y-76200000D03*
X140335000Y-114300000D03*
D14*
X114300000Y-85090000D03*
D15*
X114300000Y-92710000D03*
D14*
X101600000Y-85090000D03*
D15*
X101600000Y-92710000D03*
D16*
X107950000Y-82550000D03*
D17*
X107950000Y-80010000D03*
D16*
X114300000Y-82550000D03*
D17*
X114300000Y-80010000D03*
D21*
X115290600Y-115087400D03*
X132765800Y-97713800D03*
X102158800Y-110693200D03*
X104571800Y-115062000D03*
X126365000Y-87757000D03*
X114630000Y-107982250D03*
G04 #@! TA.AperFunction,Conductor*
G36*
X138298297Y-74188502D02*
G01*
X138344790Y-74242158D01*
X138354894Y-74312432D01*
X138325400Y-74377012D01*
X138323702Y-74378819D01*
X138323755Y-74378867D01*
X138321220Y-74381682D01*
X138318513Y-74384347D01*
X138316149Y-74387314D01*
X138316146Y-74387317D01*
X138301516Y-74405677D01*
X138114991Y-74639751D01*
X137943626Y-74917757D01*
X137806902Y-75214336D01*
X137805741Y-75217940D01*
X137805741Y-75217941D01*
X137797196Y-75244477D01*
X137706797Y-75525192D01*
X137706079Y-75528903D01*
X137706078Y-75528907D01*
X137645482Y-75842105D01*
X137645481Y-75842114D01*
X137644763Y-75845824D01*
X137621698Y-76171585D01*
X137637936Y-76497759D01*
X137638577Y-76501490D01*
X137638578Y-76501498D01*
X137653109Y-76586060D01*
X137693241Y-76819619D01*
X137786814Y-77132504D01*
X137917297Y-77431881D01*
X137919220Y-77435152D01*
X137919222Y-77435156D01*
X137961584Y-77507215D01*
X138082802Y-77713414D01*
X138085103Y-77716429D01*
X138278631Y-77970012D01*
X138278636Y-77970017D01*
X138280931Y-77973025D01*
X138342931Y-78036670D01*
X138492510Y-78190216D01*
X138508814Y-78206953D01*
X138630331Y-78304830D01*
X138760196Y-78409431D01*
X138760201Y-78409435D01*
X138763149Y-78411809D01*
X139040253Y-78584627D01*
X139336112Y-78722903D01*
X139339721Y-78724086D01*
X139623632Y-78817157D01*
X139646440Y-78824634D01*
X139966742Y-78888346D01*
X139970514Y-78888633D01*
X139970522Y-78888634D01*
X140288602Y-78912829D01*
X140288607Y-78912829D01*
X140292379Y-78913116D01*
X140618633Y-78898586D01*
X140678425Y-78888634D01*
X140937037Y-78845590D01*
X140937042Y-78845589D01*
X140940778Y-78844967D01*
X141254149Y-78753034D01*
X141257616Y-78751544D01*
X141257620Y-78751543D01*
X141550721Y-78625616D01*
X141550723Y-78625615D01*
X141554205Y-78624119D01*
X141836601Y-78460091D01*
X142097245Y-78263324D01*
X142153052Y-78209526D01*
X142215978Y-78176648D01*
X142286689Y-78183010D01*
X142342735Y-78226591D01*
X142366500Y-78300239D01*
X142366500Y-112196332D01*
X142346498Y-112264453D01*
X142292842Y-112310946D01*
X142222568Y-112321050D01*
X142157988Y-112291556D01*
X142151173Y-112285195D01*
X142142742Y-112276720D01*
X142140070Y-112274034D01*
X141883603Y-112071852D01*
X141604705Y-111901945D01*
X141601261Y-111900379D01*
X141601257Y-111900377D01*
X141490667Y-111850095D01*
X141307414Y-111766775D01*
X140996037Y-111668300D01*
X140778492Y-111627390D01*
X140678809Y-111608645D01*
X140678807Y-111608645D01*
X140675086Y-111607945D01*
X140349208Y-111586586D01*
X140345428Y-111586794D01*
X140345427Y-111586794D01*
X140247897Y-111592162D01*
X140023124Y-111604532D01*
X140019397Y-111605193D01*
X140019393Y-111605193D01*
X139862341Y-111633027D01*
X139701557Y-111661522D01*
X139697941Y-111662624D01*
X139697933Y-111662626D01*
X139392789Y-111755627D01*
X139389167Y-111756731D01*
X139090477Y-111888781D01*
X139065041Y-111903914D01*
X138813074Y-112053817D01*
X138813068Y-112053821D01*
X138809814Y-112055757D01*
X138806812Y-112058073D01*
X138625076Y-112198282D01*
X138551244Y-112255243D01*
X138318513Y-112484347D01*
X138316149Y-112487314D01*
X138316146Y-112487317D01*
X138299220Y-112508558D01*
X138114991Y-112739751D01*
X137943626Y-113017757D01*
X137806902Y-113314336D01*
X137805741Y-113317940D01*
X137805741Y-113317941D01*
X137797196Y-113344477D01*
X137706797Y-113625192D01*
X137706079Y-113628903D01*
X137706078Y-113628907D01*
X137645482Y-113942105D01*
X137645481Y-113942114D01*
X137644763Y-113945824D01*
X137621698Y-114271585D01*
X137637936Y-114597759D01*
X137638577Y-114601490D01*
X137638578Y-114601498D01*
X137688357Y-114891194D01*
X137693241Y-114919619D01*
X137786814Y-115232504D01*
X137788327Y-115235975D01*
X137788329Y-115235981D01*
X137819929Y-115308482D01*
X137917297Y-115531881D01*
X137919220Y-115535152D01*
X137919222Y-115535156D01*
X137992063Y-115659062D01*
X138082802Y-115813414D01*
X138085103Y-115816429D01*
X138278631Y-116070012D01*
X138278636Y-116070017D01*
X138280931Y-116073025D01*
X138283575Y-116075739D01*
X138324333Y-116117578D01*
X138357539Y-116180330D01*
X138351548Y-116251073D01*
X138308262Y-116307348D01*
X138241422Y-116331286D01*
X138234079Y-116331500D01*
X102433802Y-116331500D01*
X102365681Y-116311498D01*
X102319188Y-116257842D01*
X102309084Y-116187568D01*
X102336089Y-116125952D01*
X102533549Y-115883410D01*
X102693911Y-115629252D01*
X102705788Y-115610428D01*
X102705790Y-115610425D01*
X102707815Y-115607215D01*
X102847638Y-115312084D01*
X102857139Y-115283606D01*
X102922598Y-115087400D01*
X114377096Y-115087400D01*
X114377786Y-115093965D01*
X114391965Y-115228867D01*
X114397058Y-115277328D01*
X114456073Y-115458956D01*
X114551560Y-115624344D01*
X114679347Y-115766266D01*
X114833848Y-115878518D01*
X114839876Y-115881202D01*
X114839878Y-115881203D01*
X115002281Y-115953509D01*
X115008312Y-115956194D01*
X115101712Y-115976047D01*
X115188656Y-115994528D01*
X115188661Y-115994528D01*
X115195113Y-115995900D01*
X115386087Y-115995900D01*
X115392539Y-115994528D01*
X115392544Y-115994528D01*
X115479488Y-115976047D01*
X115572888Y-115956194D01*
X115578919Y-115953509D01*
X115741322Y-115881203D01*
X115741324Y-115881202D01*
X115747352Y-115878518D01*
X115901853Y-115766266D01*
X116029640Y-115624344D01*
X116125127Y-115458956D01*
X116184142Y-115277328D01*
X116189236Y-115228867D01*
X116203414Y-115093965D01*
X116204104Y-115087400D01*
X116184142Y-114897472D01*
X116125127Y-114715844D01*
X116029640Y-114550456D01*
X115901853Y-114408534D01*
X115769746Y-114312552D01*
X115752694Y-114300163D01*
X115752693Y-114300162D01*
X115747352Y-114296282D01*
X115741324Y-114293598D01*
X115741322Y-114293597D01*
X115578919Y-114221291D01*
X115578918Y-114221291D01*
X115572888Y-114218606D01*
X115479487Y-114198753D01*
X115392544Y-114180272D01*
X115392539Y-114180272D01*
X115386087Y-114178900D01*
X115195113Y-114178900D01*
X115188661Y-114180272D01*
X115188656Y-114180272D01*
X115101713Y-114198753D01*
X115008312Y-114218606D01*
X115002282Y-114221291D01*
X115002281Y-114221291D01*
X114839878Y-114293597D01*
X114839876Y-114293598D01*
X114833848Y-114296282D01*
X114828507Y-114300162D01*
X114828506Y-114300163D01*
X114811454Y-114312552D01*
X114679347Y-114408534D01*
X114551560Y-114550456D01*
X114456073Y-114715844D01*
X114397058Y-114897472D01*
X114377096Y-115087400D01*
X102922598Y-115087400D01*
X102949790Y-115005897D01*
X102949792Y-115005891D01*
X102950992Y-115002293D01*
X103016381Y-114682329D01*
X103021525Y-114619092D01*
X103042674Y-114359061D01*
X103042856Y-114356826D01*
X103043451Y-114300000D01*
X103041510Y-114267796D01*
X103024026Y-113977793D01*
X103024026Y-113977789D01*
X103023798Y-113974015D01*
X103018650Y-113945824D01*
X102965805Y-113656473D01*
X102965804Y-113656469D01*
X102965125Y-113652751D01*
X102957722Y-113628907D01*
X102869404Y-113344477D01*
X102868282Y-113340863D01*
X102734670Y-113042869D01*
X102566226Y-112763084D01*
X102563899Y-112760100D01*
X102563894Y-112760093D01*
X102367726Y-112508558D01*
X102367724Y-112508556D01*
X102365390Y-112505563D01*
X102135070Y-112274034D01*
X101878603Y-112071852D01*
X101599705Y-111901945D01*
X101596261Y-111900379D01*
X101596257Y-111900377D01*
X101485667Y-111850095D01*
X101302414Y-111766775D01*
X100991037Y-111668300D01*
X100773492Y-111627390D01*
X100673809Y-111608645D01*
X100673807Y-111608645D01*
X100670086Y-111607945D01*
X100344208Y-111586586D01*
X100340428Y-111586794D01*
X100340427Y-111586794D01*
X100242897Y-111592162D01*
X100018124Y-111604532D01*
X100014397Y-111605193D01*
X100014393Y-111605193D01*
X99857341Y-111633027D01*
X99696557Y-111661522D01*
X99692941Y-111662624D01*
X99692933Y-111662626D01*
X99387789Y-111755627D01*
X99384167Y-111756731D01*
X99085477Y-111888781D01*
X99060041Y-111903914D01*
X98808074Y-112053817D01*
X98808068Y-112053821D01*
X98804814Y-112055757D01*
X98801812Y-112058073D01*
X98620076Y-112198282D01*
X98546244Y-112255243D01*
X98512891Y-112288076D01*
X98450315Y-112321609D01*
X98379541Y-112315988D01*
X98323042Y-112272996D01*
X98298754Y-112206283D01*
X98298500Y-112198282D01*
X98298500Y-109487966D01*
X100838257Y-109487966D01*
X100868565Y-109622446D01*
X100871645Y-109632275D01*
X100951770Y-109829603D01*
X100956413Y-109838794D01*
X101067694Y-110020388D01*
X101073777Y-110028699D01*
X101213213Y-110189667D01*
X101220580Y-110196883D01*
X101384434Y-110332916D01*
X101392881Y-110338831D01*
X101576756Y-110446279D01*
X101586042Y-110450729D01*
X101785001Y-110526703D01*
X101794899Y-110529579D01*
X101898250Y-110550606D01*
X101912299Y-110549410D01*
X101916000Y-110539065D01*
X101916000Y-109492115D01*
X101911525Y-109476876D01*
X101910135Y-109475671D01*
X101902452Y-109474000D01*
X100853225Y-109474000D01*
X100839694Y-109477973D01*
X100838257Y-109487966D01*
X98298500Y-109487966D01*
X98298500Y-106646695D01*
X100807251Y-106646695D01*
X100807548Y-106651848D01*
X100807548Y-106651851D01*
X100813011Y-106746590D01*
X100820110Y-106869715D01*
X100821247Y-106874761D01*
X100821248Y-106874767D01*
X100841119Y-106962939D01*
X100869222Y-107087639D01*
X100930673Y-107238976D01*
X100937125Y-107254864D01*
X100953266Y-107294616D01*
X100990591Y-107355525D01*
X101067291Y-107480688D01*
X101069987Y-107485088D01*
X101216250Y-107653938D01*
X101388126Y-107796632D01*
X101449196Y-107832318D01*
X101461955Y-107839774D01*
X101510679Y-107891412D01*
X101523750Y-107961195D01*
X101497019Y-108026967D01*
X101456562Y-108060327D01*
X101448457Y-108064546D01*
X101439738Y-108070036D01*
X101269433Y-108197905D01*
X101261726Y-108204748D01*
X101114590Y-108358717D01*
X101108104Y-108366727D01*
X100988098Y-108542649D01*
X100983000Y-108551623D01*
X100893338Y-108744783D01*
X100889775Y-108754470D01*
X100834389Y-108954183D01*
X100835912Y-108962607D01*
X100848292Y-108966000D01*
X102298000Y-108966000D01*
X102366121Y-108986002D01*
X102412614Y-109039658D01*
X102424000Y-109092000D01*
X102424000Y-110538517D01*
X102428064Y-110552359D01*
X102441478Y-110554393D01*
X102448184Y-110553534D01*
X102458262Y-110551392D01*
X102662255Y-110490191D01*
X102671842Y-110486433D01*
X102863095Y-110392739D01*
X102871945Y-110387464D01*
X103045328Y-110263792D01*
X103053193Y-110257145D01*
X103157897Y-110152805D01*
X103220268Y-110118889D01*
X103291075Y-110124077D01*
X103347837Y-110166723D01*
X103364819Y-110197826D01*
X103409385Y-110316705D01*
X103496739Y-110433261D01*
X103613295Y-110520615D01*
X103749684Y-110571745D01*
X103811866Y-110578500D01*
X105608134Y-110578500D01*
X105670316Y-110571745D01*
X105806705Y-110520615D01*
X105923261Y-110433261D01*
X106010615Y-110316705D01*
X106061745Y-110180316D01*
X106068500Y-110118134D01*
X106068500Y-108321866D01*
X106061745Y-108259684D01*
X106010615Y-108123295D01*
X105923261Y-108006739D01*
X105890585Y-107982250D01*
X113037090Y-107982250D01*
X113056701Y-108231436D01*
X113115053Y-108474486D01*
X113116943Y-108479049D01*
X113116945Y-108479055D01*
X113154928Y-108570754D01*
X113210707Y-108705416D01*
X113341309Y-108918539D01*
X113503643Y-109108607D01*
X113693711Y-109270941D01*
X113906834Y-109401543D01*
X113911404Y-109403436D01*
X113911408Y-109403438D01*
X114133195Y-109495305D01*
X114133201Y-109495307D01*
X114137764Y-109497197D01*
X114142564Y-109498349D01*
X114142569Y-109498351D01*
X114253832Y-109525063D01*
X114380814Y-109555549D01*
X114630000Y-109575160D01*
X114879186Y-109555549D01*
X115006168Y-109525063D01*
X115117431Y-109498351D01*
X115117436Y-109498349D01*
X115122236Y-109497197D01*
X115126799Y-109495307D01*
X115126805Y-109495305D01*
X115348592Y-109403438D01*
X115348596Y-109403436D01*
X115353166Y-109401543D01*
X115566289Y-109270941D01*
X115756357Y-109108607D01*
X115918691Y-108918539D01*
X116049293Y-108705416D01*
X116105072Y-108570754D01*
X116143055Y-108479055D01*
X116143057Y-108479049D01*
X116144947Y-108474486D01*
X116203299Y-108231436D01*
X116222910Y-107982250D01*
X117787090Y-107982250D01*
X117806701Y-108231436D01*
X117865053Y-108474486D01*
X117866943Y-108479049D01*
X117866945Y-108479055D01*
X117904928Y-108570754D01*
X117960707Y-108705416D01*
X118091309Y-108918539D01*
X118253643Y-109108607D01*
X118443711Y-109270941D01*
X118656834Y-109401543D01*
X118661404Y-109403436D01*
X118661408Y-109403438D01*
X118883195Y-109495305D01*
X118883201Y-109495307D01*
X118887764Y-109497197D01*
X118892564Y-109498349D01*
X118892569Y-109498351D01*
X119003832Y-109525063D01*
X119130814Y-109555549D01*
X119380000Y-109575160D01*
X119629186Y-109555549D01*
X119756168Y-109525063D01*
X119867431Y-109498351D01*
X119867436Y-109498349D01*
X119872236Y-109497197D01*
X119876799Y-109495307D01*
X119876805Y-109495305D01*
X120098592Y-109403438D01*
X120098596Y-109403436D01*
X120103166Y-109401543D01*
X120316289Y-109270941D01*
X120506357Y-109108607D01*
X120668691Y-108918539D01*
X120799293Y-108705416D01*
X120855072Y-108570754D01*
X120893055Y-108479055D01*
X120893057Y-108479049D01*
X120894947Y-108474486D01*
X120953299Y-108231436D01*
X120972910Y-107982250D01*
X122537091Y-107982250D01*
X122556702Y-108231436D01*
X122615054Y-108474486D01*
X122616944Y-108479049D01*
X122616946Y-108479055D01*
X122654929Y-108570754D01*
X122710708Y-108705416D01*
X122841310Y-108918539D01*
X123003644Y-109108607D01*
X123193712Y-109270941D01*
X123406835Y-109401543D01*
X123411405Y-109403436D01*
X123411409Y-109403438D01*
X123633196Y-109495305D01*
X123633202Y-109495307D01*
X123637765Y-109497197D01*
X123642565Y-109498349D01*
X123642570Y-109498351D01*
X123753833Y-109525063D01*
X123880815Y-109555549D01*
X124130001Y-109575160D01*
X124379187Y-109555549D01*
X124506169Y-109525063D01*
X124617432Y-109498351D01*
X124617437Y-109498349D01*
X124622237Y-109497197D01*
X124626800Y-109495307D01*
X124626806Y-109495305D01*
X124848593Y-109403438D01*
X124848597Y-109403436D01*
X124853167Y-109401543D01*
X125066290Y-109270941D01*
X125256358Y-109108607D01*
X125418692Y-108918539D01*
X125549294Y-108705416D01*
X125605073Y-108570754D01*
X125643056Y-108479055D01*
X125643058Y-108479049D01*
X125644948Y-108474486D01*
X125666432Y-108385000D01*
X132906771Y-108385000D01*
X132907461Y-108391565D01*
X132915672Y-108469681D01*
X132925635Y-108564475D01*
X132981401Y-108736107D01*
X133071633Y-108892393D01*
X133076051Y-108897300D01*
X133076052Y-108897301D01*
X133187967Y-109021596D01*
X133187971Y-109021600D01*
X133191748Y-109025794D01*
X133191749Y-109025796D01*
X133192387Y-109026504D01*
X133192257Y-109026621D01*
X133227890Y-109084455D01*
X133226539Y-109155439D01*
X133205901Y-109194870D01*
X133182954Y-109224453D01*
X133180138Y-109230176D01*
X133180136Y-109230179D01*
X133136608Y-109318640D01*
X133096982Y-109399171D01*
X133095373Y-109405349D01*
X133095372Y-109405351D01*
X133056249Y-109555549D01*
X133047898Y-109587607D01*
X133037707Y-109782064D01*
X133066825Y-109974599D01*
X133069028Y-109980585D01*
X133069029Y-109980591D01*
X133131860Y-110151360D01*
X133131862Y-110151365D01*
X133134063Y-110157346D01*
X133137425Y-110162768D01*
X133200063Y-110263792D01*
X133236674Y-110322840D01*
X133241055Y-110327473D01*
X133241056Y-110327474D01*
X133341093Y-110433261D01*
X133370466Y-110464322D01*
X133529975Y-110576011D01*
X133535838Y-110578548D01*
X133702825Y-110650810D01*
X133702829Y-110650811D01*
X133708684Y-110653345D01*
X133714931Y-110654650D01*
X133714934Y-110654651D01*
X133894557Y-110692176D01*
X133894562Y-110692177D01*
X133899293Y-110693165D01*
X133905685Y-110693500D01*
X135548663Y-110693500D01*
X135617951Y-110686462D01*
X135687378Y-110679410D01*
X135687379Y-110679410D01*
X135693727Y-110678765D01*
X135774843Y-110653345D01*
X135873451Y-110622444D01*
X135873456Y-110622442D01*
X135879541Y-110620535D01*
X135998863Y-110554393D01*
X136044271Y-110529223D01*
X136044274Y-110529221D01*
X136049850Y-110526130D01*
X136054691Y-110521981D01*
X136054695Y-110521978D01*
X136192855Y-110403560D01*
X136197698Y-110399409D01*
X136249276Y-110332916D01*
X136313131Y-110250594D01*
X136317046Y-110245547D01*
X136344543Y-110189667D01*
X136400200Y-110076556D01*
X136403018Y-110070829D01*
X136416157Y-110020388D01*
X136450492Y-109888575D01*
X136450492Y-109888572D01*
X136452102Y-109882393D01*
X136457360Y-109782064D01*
X136767707Y-109782064D01*
X136796825Y-109974599D01*
X136799028Y-109980585D01*
X136799029Y-109980591D01*
X136861860Y-110151360D01*
X136861862Y-110151365D01*
X136864063Y-110157346D01*
X136867425Y-110162768D01*
X136930063Y-110263792D01*
X136966674Y-110322840D01*
X136971055Y-110327473D01*
X136971056Y-110327474D01*
X137071093Y-110433261D01*
X137100466Y-110464322D01*
X137259975Y-110576011D01*
X137265838Y-110578548D01*
X137432825Y-110650810D01*
X137432829Y-110650811D01*
X137438684Y-110653345D01*
X137444931Y-110654650D01*
X137444934Y-110654651D01*
X137624557Y-110692176D01*
X137624562Y-110692177D01*
X137629293Y-110693165D01*
X137635685Y-110693500D01*
X138578663Y-110693500D01*
X138647951Y-110686462D01*
X138717378Y-110679410D01*
X138717379Y-110679410D01*
X138723727Y-110678765D01*
X138804843Y-110653345D01*
X138903451Y-110622444D01*
X138903456Y-110622442D01*
X138909541Y-110620535D01*
X139028863Y-110554393D01*
X139074271Y-110529223D01*
X139074274Y-110529221D01*
X139079850Y-110526130D01*
X139084691Y-110521981D01*
X139084695Y-110521978D01*
X139222855Y-110403560D01*
X139227698Y-110399409D01*
X139279276Y-110332916D01*
X139343131Y-110250594D01*
X139347046Y-110245547D01*
X139374543Y-110189667D01*
X139430200Y-110076556D01*
X139433018Y-110070829D01*
X139446157Y-110020388D01*
X139480492Y-109888575D01*
X139480492Y-109888572D01*
X139482102Y-109882393D01*
X139492293Y-109687936D01*
X139463175Y-109495401D01*
X139460972Y-109489415D01*
X139460971Y-109489409D01*
X139398140Y-109318640D01*
X139398138Y-109318635D01*
X139395937Y-109312654D01*
X139293326Y-109147160D01*
X139256869Y-109108607D01*
X139163919Y-109010315D01*
X139159534Y-109005678D01*
X139000025Y-108893989D01*
X138952013Y-108873212D01*
X138827175Y-108819190D01*
X138827171Y-108819189D01*
X138821316Y-108816655D01*
X138815069Y-108815350D01*
X138815066Y-108815349D01*
X138635443Y-108777824D01*
X138635438Y-108777823D01*
X138630707Y-108776835D01*
X138624315Y-108776500D01*
X137681337Y-108776500D01*
X137612049Y-108783538D01*
X137542622Y-108790590D01*
X137542621Y-108790590D01*
X137536273Y-108791235D01*
X137479939Y-108808889D01*
X137356549Y-108847556D01*
X137356544Y-108847558D01*
X137350459Y-108849465D01*
X137283331Y-108886675D01*
X137185729Y-108940777D01*
X137185726Y-108940779D01*
X137180150Y-108943870D01*
X137175309Y-108948019D01*
X137175305Y-108948022D01*
X137068392Y-109039658D01*
X137032302Y-109070591D01*
X136912954Y-109224453D01*
X136910138Y-109230176D01*
X136910136Y-109230179D01*
X136866608Y-109318640D01*
X136826982Y-109399171D01*
X136825373Y-109405349D01*
X136825372Y-109405351D01*
X136786249Y-109555549D01*
X136777898Y-109587607D01*
X136767707Y-109782064D01*
X136457360Y-109782064D01*
X136462293Y-109687936D01*
X136433175Y-109495401D01*
X136430972Y-109489415D01*
X136430971Y-109489409D01*
X136368140Y-109318640D01*
X136368138Y-109318635D01*
X136365937Y-109312654D01*
X136263326Y-109147160D01*
X136226869Y-109108607D01*
X136133919Y-109010315D01*
X136129534Y-109005678D01*
X136055992Y-108954183D01*
X135975258Y-108897653D01*
X135975257Y-108897652D01*
X135970025Y-108893989D01*
X135964162Y-108891452D01*
X135964114Y-108891425D01*
X135914409Y-108840731D01*
X135900001Y-108771212D01*
X135908939Y-108736218D01*
X135908599Y-108736107D01*
X135910321Y-108730806D01*
X135964365Y-108564475D01*
X135974329Y-108469681D01*
X135982539Y-108391565D01*
X135983229Y-108385000D01*
X135981308Y-108366727D01*
X135965055Y-108212089D01*
X135965055Y-108212088D01*
X135964365Y-108205525D01*
X135908599Y-108033893D01*
X135902309Y-108022998D01*
X135885572Y-107954004D01*
X135902309Y-107897001D01*
X135908599Y-107886107D01*
X135964365Y-107714475D01*
X135971139Y-107650031D01*
X135982539Y-107541565D01*
X135983229Y-107535000D01*
X135964365Y-107355525D01*
X135908599Y-107183893D01*
X135902309Y-107172998D01*
X135885572Y-107104004D01*
X135902309Y-107047001D01*
X135908599Y-107036107D01*
X135964365Y-106864475D01*
X135976756Y-106746590D01*
X135982539Y-106691565D01*
X135983229Y-106685000D01*
X135970673Y-106565543D01*
X135965055Y-106512089D01*
X135965055Y-106512088D01*
X135964365Y-106505525D01*
X135908599Y-106333893D01*
X135902309Y-106322998D01*
X135885572Y-106254004D01*
X135902309Y-106197001D01*
X135908599Y-106186107D01*
X135958836Y-106031492D01*
X135962325Y-106020754D01*
X135962325Y-106020753D01*
X135964365Y-106014475D01*
X135983229Y-105835000D01*
X135964365Y-105655525D01*
X135908599Y-105483893D01*
X135902309Y-105472998D01*
X135885572Y-105404004D01*
X135902309Y-105347001D01*
X135908599Y-105336107D01*
X135935496Y-105253327D01*
X135962325Y-105170754D01*
X135962325Y-105170753D01*
X135964365Y-105164475D01*
X135983229Y-104985000D01*
X135964365Y-104805525D01*
X135946269Y-104749829D01*
X135910641Y-104640178D01*
X135908599Y-104633893D01*
X135902309Y-104622998D01*
X135885572Y-104554004D01*
X135902309Y-104497001D01*
X135908599Y-104486107D01*
X135959413Y-104329715D01*
X135962325Y-104320754D01*
X135962325Y-104320753D01*
X135964365Y-104314475D01*
X135983229Y-104135000D01*
X135964365Y-103955525D01*
X135908599Y-103783893D01*
X135902309Y-103772998D01*
X135885572Y-103704004D01*
X135902309Y-103647001D01*
X135908599Y-103636107D01*
X135964365Y-103464475D01*
X135983229Y-103285000D01*
X135964365Y-103105525D01*
X135908599Y-102933893D01*
X135902309Y-102922998D01*
X135885572Y-102854004D01*
X135902309Y-102797001D01*
X135908599Y-102786107D01*
X135954716Y-102644171D01*
X135962325Y-102620754D01*
X135962325Y-102620753D01*
X135964365Y-102614475D01*
X135978133Y-102483489D01*
X135982539Y-102441565D01*
X135983229Y-102435000D01*
X135964365Y-102255525D01*
X135908599Y-102083893D01*
X135908414Y-102083572D01*
X135899288Y-102015498D01*
X135929396Y-101951201D01*
X135962742Y-101924417D01*
X136044263Y-101879228D01*
X136044270Y-101879223D01*
X136049850Y-101876130D01*
X136054691Y-101871981D01*
X136054695Y-101871978D01*
X136192855Y-101753560D01*
X136197698Y-101749409D01*
X136317046Y-101595547D01*
X136357779Y-101512768D01*
X136400200Y-101426556D01*
X136403018Y-101420829D01*
X136424180Y-101339588D01*
X136450492Y-101238575D01*
X136450492Y-101238572D01*
X136452102Y-101232393D01*
X136457360Y-101132064D01*
X136767707Y-101132064D01*
X136796825Y-101324599D01*
X136799028Y-101330585D01*
X136799029Y-101330591D01*
X136861860Y-101501360D01*
X136861862Y-101501365D01*
X136864063Y-101507346D01*
X136900861Y-101566695D01*
X136923598Y-101603365D01*
X136966674Y-101672840D01*
X137100466Y-101814322D01*
X137259975Y-101926011D01*
X137265838Y-101928548D01*
X137432825Y-102000810D01*
X137432829Y-102000811D01*
X137438684Y-102003345D01*
X137444931Y-102004650D01*
X137444934Y-102004651D01*
X137624557Y-102042176D01*
X137624562Y-102042177D01*
X137629293Y-102043165D01*
X137635685Y-102043500D01*
X138578663Y-102043500D01*
X138647951Y-102036462D01*
X138717378Y-102029410D01*
X138717379Y-102029410D01*
X138723727Y-102028765D01*
X138804843Y-102003345D01*
X138903451Y-101972444D01*
X138903456Y-101972442D01*
X138909541Y-101970535D01*
X139058312Y-101888069D01*
X139074271Y-101879223D01*
X139074274Y-101879221D01*
X139079850Y-101876130D01*
X139084691Y-101871981D01*
X139084695Y-101871978D01*
X139222855Y-101753560D01*
X139227698Y-101749409D01*
X139347046Y-101595547D01*
X139387779Y-101512768D01*
X139430200Y-101426556D01*
X139433018Y-101420829D01*
X139454180Y-101339588D01*
X139480492Y-101238575D01*
X139480492Y-101238572D01*
X139482102Y-101232393D01*
X139492293Y-101037936D01*
X139463175Y-100845401D01*
X139460972Y-100839415D01*
X139460971Y-100839409D01*
X139398140Y-100668640D01*
X139398138Y-100668635D01*
X139395937Y-100662654D01*
X139293326Y-100497160D01*
X139260176Y-100462104D01*
X139163919Y-100360315D01*
X139159534Y-100355678D01*
X139138425Y-100340897D01*
X139005259Y-100247654D01*
X139000025Y-100243989D01*
X138943379Y-100219476D01*
X138827175Y-100169190D01*
X138827171Y-100169189D01*
X138821316Y-100166655D01*
X138815069Y-100165350D01*
X138815066Y-100165349D01*
X138635443Y-100127824D01*
X138635438Y-100127823D01*
X138630707Y-100126835D01*
X138624315Y-100126500D01*
X137681337Y-100126500D01*
X137612049Y-100133538D01*
X137542622Y-100140590D01*
X137542621Y-100140590D01*
X137536273Y-100141235D01*
X137479939Y-100158889D01*
X137356549Y-100197556D01*
X137356544Y-100197558D01*
X137350459Y-100199465D01*
X137293757Y-100230896D01*
X137185729Y-100290777D01*
X137185726Y-100290779D01*
X137180150Y-100293870D01*
X137175309Y-100298019D01*
X137175305Y-100298022D01*
X137122412Y-100343357D01*
X137032302Y-100420591D01*
X137028391Y-100425633D01*
X137028390Y-100425634D01*
X136995683Y-100467800D01*
X136912954Y-100574453D01*
X136910138Y-100580176D01*
X136910136Y-100580179D01*
X136830443Y-100742138D01*
X136826982Y-100749171D01*
X136825373Y-100755349D01*
X136825372Y-100755351D01*
X136782084Y-100921538D01*
X136777898Y-100937607D01*
X136776694Y-100960590D01*
X136768098Y-101124610D01*
X136767707Y-101132064D01*
X136457360Y-101132064D01*
X136462293Y-101037936D01*
X136433175Y-100845401D01*
X136430972Y-100839415D01*
X136430971Y-100839409D01*
X136368140Y-100668640D01*
X136368138Y-100668635D01*
X136365937Y-100662654D01*
X136263326Y-100497160D01*
X136230176Y-100462104D01*
X136133919Y-100360315D01*
X136129534Y-100355678D01*
X136108425Y-100340897D01*
X135975259Y-100247654D01*
X135970025Y-100243989D01*
X135913379Y-100219476D01*
X135797175Y-100169190D01*
X135797171Y-100169189D01*
X135791316Y-100166655D01*
X135785069Y-100165350D01*
X135785066Y-100165349D01*
X135605443Y-100127824D01*
X135605438Y-100127823D01*
X135600707Y-100126835D01*
X135594315Y-100126500D01*
X133951337Y-100126500D01*
X133882049Y-100133538D01*
X133812622Y-100140590D01*
X133812621Y-100140590D01*
X133806273Y-100141235D01*
X133749939Y-100158889D01*
X133626549Y-100197556D01*
X133626544Y-100197558D01*
X133620459Y-100199465D01*
X133563757Y-100230896D01*
X133455729Y-100290777D01*
X133455726Y-100290779D01*
X133450150Y-100293870D01*
X133445309Y-100298019D01*
X133445305Y-100298022D01*
X133392412Y-100343357D01*
X133302302Y-100420591D01*
X133298391Y-100425633D01*
X133298390Y-100425634D01*
X133265683Y-100467800D01*
X133182954Y-100574453D01*
X133180138Y-100580176D01*
X133180136Y-100580179D01*
X133100443Y-100742138D01*
X133096982Y-100749171D01*
X133095373Y-100755349D01*
X133095372Y-100755351D01*
X133052084Y-100921538D01*
X133047898Y-100937607D01*
X133046694Y-100960590D01*
X133038098Y-101124610D01*
X133037707Y-101132064D01*
X133066825Y-101324599D01*
X133069028Y-101330585D01*
X133069029Y-101330591D01*
X133131860Y-101501360D01*
X133131862Y-101501365D01*
X133134063Y-101507346D01*
X133170861Y-101566695D01*
X133213669Y-101635737D01*
X133232567Y-101704173D01*
X133211465Y-101771961D01*
X133193654Y-101792575D01*
X133192387Y-101793496D01*
X133187965Y-101798407D01*
X133187964Y-101798408D01*
X133076370Y-101922346D01*
X133071633Y-101927607D01*
X132981401Y-102083893D01*
X132925635Y-102255525D01*
X132906771Y-102435000D01*
X132907461Y-102441565D01*
X132911868Y-102483489D01*
X132925635Y-102614475D01*
X132927675Y-102620753D01*
X132927675Y-102620754D01*
X132935284Y-102644171D01*
X132981401Y-102786107D01*
X132987691Y-102797001D01*
X133004428Y-102865996D01*
X132987691Y-102922998D01*
X132981401Y-102933893D01*
X132925635Y-103105525D01*
X132906771Y-103285000D01*
X132925635Y-103464475D01*
X132981401Y-103636107D01*
X132987691Y-103647001D01*
X133004428Y-103715996D01*
X132987691Y-103772998D01*
X132981401Y-103783893D01*
X132925635Y-103955525D01*
X132906771Y-104135000D01*
X132925635Y-104314475D01*
X132927675Y-104320753D01*
X132927675Y-104320754D01*
X132930587Y-104329715D01*
X132981401Y-104486107D01*
X132987691Y-104497001D01*
X133004428Y-104565996D01*
X132987691Y-104622998D01*
X132981401Y-104633893D01*
X132979359Y-104640178D01*
X132943732Y-104749829D01*
X132925635Y-104805525D01*
X132906771Y-104985000D01*
X132925635Y-105164475D01*
X132927675Y-105170753D01*
X132927675Y-105170754D01*
X132954504Y-105253327D01*
X132981401Y-105336107D01*
X132987691Y-105347001D01*
X133004428Y-105415996D01*
X132987691Y-105472998D01*
X132981401Y-105483893D01*
X132925635Y-105655525D01*
X132906771Y-105835000D01*
X132925635Y-106014475D01*
X132927675Y-106020753D01*
X132927675Y-106020754D01*
X132931164Y-106031492D01*
X132981401Y-106186107D01*
X132987691Y-106197001D01*
X133004428Y-106265996D01*
X132987691Y-106322998D01*
X132981401Y-106333893D01*
X132925635Y-106505525D01*
X132924945Y-106512088D01*
X132924945Y-106512089D01*
X132919327Y-106565543D01*
X132906771Y-106685000D01*
X132907461Y-106691565D01*
X132913245Y-106746590D01*
X132925635Y-106864475D01*
X132981401Y-107036107D01*
X132987691Y-107047001D01*
X133004428Y-107115996D01*
X132987691Y-107172998D01*
X132981401Y-107183893D01*
X132925635Y-107355525D01*
X132906771Y-107535000D01*
X132907461Y-107541565D01*
X132918862Y-107650031D01*
X132925635Y-107714475D01*
X132981401Y-107886107D01*
X132987691Y-107897001D01*
X133004428Y-107965996D01*
X132987691Y-108022998D01*
X132981401Y-108033893D01*
X132925635Y-108205525D01*
X132924945Y-108212088D01*
X132924945Y-108212089D01*
X132908692Y-108366727D01*
X132906771Y-108385000D01*
X125666432Y-108385000D01*
X125703300Y-108231436D01*
X125722911Y-107982250D01*
X125703300Y-107733064D01*
X125662588Y-107563489D01*
X125646102Y-107494819D01*
X125646100Y-107494814D01*
X125644948Y-107490014D01*
X125643058Y-107485451D01*
X125643056Y-107485445D01*
X125551189Y-107263658D01*
X125551187Y-107263654D01*
X125549294Y-107259084D01*
X125418692Y-107045961D01*
X125256358Y-106855893D01*
X125066290Y-106693559D01*
X124853167Y-106562957D01*
X124848597Y-106561064D01*
X124848593Y-106561062D01*
X124626806Y-106469195D01*
X124626800Y-106469193D01*
X124622237Y-106467303D01*
X124617437Y-106466151D01*
X124617432Y-106466149D01*
X124506169Y-106439437D01*
X124379187Y-106408951D01*
X124130001Y-106389340D01*
X123880815Y-106408951D01*
X123753833Y-106439437D01*
X123642570Y-106466149D01*
X123642565Y-106466151D01*
X123637765Y-106467303D01*
X123633202Y-106469193D01*
X123633196Y-106469195D01*
X123411409Y-106561062D01*
X123411405Y-106561064D01*
X123406835Y-106562957D01*
X123193712Y-106693559D01*
X123003644Y-106855893D01*
X122841310Y-107045961D01*
X122710708Y-107259084D01*
X122708815Y-107263654D01*
X122708813Y-107263658D01*
X122616946Y-107485445D01*
X122616944Y-107485451D01*
X122615054Y-107490014D01*
X122613902Y-107494814D01*
X122613900Y-107494819D01*
X122597414Y-107563489D01*
X122556702Y-107733064D01*
X122537091Y-107982250D01*
X120972910Y-107982250D01*
X120953299Y-107733064D01*
X120912587Y-107563489D01*
X120896101Y-107494819D01*
X120896099Y-107494814D01*
X120894947Y-107490014D01*
X120893057Y-107485451D01*
X120893055Y-107485445D01*
X120801188Y-107263658D01*
X120801186Y-107263654D01*
X120799293Y-107259084D01*
X120668691Y-107045961D01*
X120506357Y-106855893D01*
X120316289Y-106693559D01*
X120103166Y-106562957D01*
X120098596Y-106561064D01*
X120098592Y-106561062D01*
X119876805Y-106469195D01*
X119876799Y-106469193D01*
X119872236Y-106467303D01*
X119867436Y-106466151D01*
X119867431Y-106466149D01*
X119756168Y-106439437D01*
X119629186Y-106408951D01*
X119380000Y-106389340D01*
X119130814Y-106408951D01*
X119003832Y-106439437D01*
X118892569Y-106466149D01*
X118892564Y-106466151D01*
X118887764Y-106467303D01*
X118883201Y-106469193D01*
X118883195Y-106469195D01*
X118661408Y-106561062D01*
X118661404Y-106561064D01*
X118656834Y-106562957D01*
X118443711Y-106693559D01*
X118253643Y-106855893D01*
X118091309Y-107045961D01*
X117960707Y-107259084D01*
X117958814Y-107263654D01*
X117958812Y-107263658D01*
X117866945Y-107485445D01*
X117866943Y-107485451D01*
X117865053Y-107490014D01*
X117863901Y-107494814D01*
X117863899Y-107494819D01*
X117847413Y-107563489D01*
X117806701Y-107733064D01*
X117787090Y-107982250D01*
X116222910Y-107982250D01*
X116203299Y-107733064D01*
X116162587Y-107563489D01*
X116146101Y-107494819D01*
X116146099Y-107494814D01*
X116144947Y-107490014D01*
X116143057Y-107485451D01*
X116143055Y-107485445D01*
X116051188Y-107263658D01*
X116051186Y-107263654D01*
X116049293Y-107259084D01*
X115918691Y-107045961D01*
X115756357Y-106855893D01*
X115566289Y-106693559D01*
X115353166Y-106562957D01*
X115348596Y-106561064D01*
X115348592Y-106561062D01*
X115126805Y-106469195D01*
X115126799Y-106469193D01*
X115122236Y-106467303D01*
X115117436Y-106466151D01*
X115117431Y-106466149D01*
X115006168Y-106439437D01*
X114879186Y-106408951D01*
X114630000Y-106389340D01*
X114380814Y-106408951D01*
X114253832Y-106439437D01*
X114142569Y-106466149D01*
X114142564Y-106466151D01*
X114137764Y-106467303D01*
X114133201Y-106469193D01*
X114133195Y-106469195D01*
X113911408Y-106561062D01*
X113911404Y-106561064D01*
X113906834Y-106562957D01*
X113693711Y-106693559D01*
X113503643Y-106855893D01*
X113341309Y-107045961D01*
X113210707Y-107259084D01*
X113208814Y-107263654D01*
X113208812Y-107263658D01*
X113116945Y-107485445D01*
X113116943Y-107485451D01*
X113115053Y-107490014D01*
X113113901Y-107494814D01*
X113113899Y-107494819D01*
X113097413Y-107563489D01*
X113056701Y-107733064D01*
X113037090Y-107982250D01*
X105890585Y-107982250D01*
X105806705Y-107919385D01*
X105746996Y-107897001D01*
X105688203Y-107874960D01*
X105631439Y-107832318D01*
X105606739Y-107765756D01*
X105621947Y-107696408D01*
X105643493Y-107667727D01*
X105744435Y-107567137D01*
X105748096Y-107563489D01*
X105807594Y-107480689D01*
X105875435Y-107386277D01*
X105878453Y-107382077D01*
X105899320Y-107339857D01*
X105975136Y-107186453D01*
X105975137Y-107186451D01*
X105977430Y-107181811D01*
X106042370Y-106968069D01*
X106071529Y-106746590D01*
X106072825Y-106693559D01*
X106073074Y-106683365D01*
X106073074Y-106683361D01*
X106073156Y-106680000D01*
X106054852Y-106457361D01*
X106000431Y-106240702D01*
X105911354Y-106035840D01*
X105790014Y-105848277D01*
X105639670Y-105683051D01*
X105635619Y-105679852D01*
X105635615Y-105679848D01*
X105468414Y-105547800D01*
X105468410Y-105547798D01*
X105464359Y-105544598D01*
X105423053Y-105521796D01*
X105373084Y-105471364D01*
X105358312Y-105401921D01*
X105383428Y-105335516D01*
X105410780Y-105308909D01*
X105454603Y-105277650D01*
X105589860Y-105181173D01*
X105600316Y-105170754D01*
X105744435Y-105027137D01*
X105748096Y-105023489D01*
X105780471Y-104978435D01*
X105875435Y-104846277D01*
X105878453Y-104842077D01*
X105899320Y-104799857D01*
X105975136Y-104646453D01*
X105975137Y-104646451D01*
X105977430Y-104641811D01*
X106042370Y-104428069D01*
X106071529Y-104206590D01*
X106073156Y-104140000D01*
X106054852Y-103917361D01*
X106000431Y-103700702D01*
X105911354Y-103495840D01*
X105790014Y-103308277D01*
X105639670Y-103143051D01*
X105635619Y-103139852D01*
X105635615Y-103139848D01*
X105468414Y-103007800D01*
X105468410Y-103007798D01*
X105464359Y-103004598D01*
X105423053Y-102981796D01*
X105373084Y-102931364D01*
X105358312Y-102861921D01*
X105383428Y-102795516D01*
X105410780Y-102768909D01*
X105454603Y-102737650D01*
X105589860Y-102641173D01*
X105610351Y-102620754D01*
X105744435Y-102487137D01*
X105748096Y-102483489D01*
X105807594Y-102400689D01*
X105875435Y-102306277D01*
X105878453Y-102302077D01*
X105899320Y-102259857D01*
X105975136Y-102106453D01*
X105975137Y-102106451D01*
X105977430Y-102101811D01*
X106028620Y-101933325D01*
X106040865Y-101893023D01*
X106040865Y-101893021D01*
X106042370Y-101888069D01*
X106071529Y-101666590D01*
X106073156Y-101600000D01*
X106054852Y-101377361D01*
X106000431Y-101160702D01*
X105911354Y-100955840D01*
X105871906Y-100894862D01*
X105792822Y-100772617D01*
X105792820Y-100772614D01*
X105790014Y-100768277D01*
X105639670Y-100603051D01*
X105635619Y-100599852D01*
X105635615Y-100599848D01*
X105468414Y-100467800D01*
X105468410Y-100467798D01*
X105464359Y-100464598D01*
X105423053Y-100441796D01*
X105373084Y-100391364D01*
X105358312Y-100321921D01*
X105383428Y-100255516D01*
X105410780Y-100228909D01*
X105454735Y-100197556D01*
X105589860Y-100101173D01*
X105748096Y-99943489D01*
X105807594Y-99860689D01*
X105875435Y-99766277D01*
X105878453Y-99762077D01*
X105899320Y-99719857D01*
X105975136Y-99566453D01*
X105975137Y-99566451D01*
X105977430Y-99561811D01*
X106042370Y-99348069D01*
X106071529Y-99126590D01*
X106073156Y-99060000D01*
X106054852Y-98837361D01*
X106000431Y-98620702D01*
X105911354Y-98415840D01*
X105790014Y-98228277D01*
X105639670Y-98063051D01*
X105635619Y-98059852D01*
X105635615Y-98059848D01*
X105468414Y-97927800D01*
X105468410Y-97927798D01*
X105464359Y-97924598D01*
X105423053Y-97901796D01*
X105373084Y-97851364D01*
X105358312Y-97781921D01*
X105383428Y-97715516D01*
X105410780Y-97688909D01*
X105454603Y-97657650D01*
X105589860Y-97561173D01*
X105748096Y-97403489D01*
X105807594Y-97320689D01*
X105875435Y-97226277D01*
X105878453Y-97222077D01*
X105899320Y-97179857D01*
X105975136Y-97026453D01*
X105975137Y-97026451D01*
X105977430Y-97021811D01*
X106019724Y-96882606D01*
X106040865Y-96813023D01*
X106040865Y-96813021D01*
X106041884Y-96809669D01*
X131402001Y-96809669D01*
X131402371Y-96816490D01*
X131407895Y-96867352D01*
X131411521Y-96882604D01*
X131456676Y-97003054D01*
X131465214Y-97018649D01*
X131541715Y-97120724D01*
X131554276Y-97133285D01*
X131656351Y-97209786D01*
X131671946Y-97218324D01*
X131792394Y-97263478D01*
X131807649Y-97267105D01*
X131858514Y-97272631D01*
X131865328Y-97273000D01*
X132487885Y-97273000D01*
X132503124Y-97268525D01*
X132504329Y-97267135D01*
X132506000Y-97259452D01*
X132506000Y-97254884D01*
X133014000Y-97254884D01*
X133018475Y-97270123D01*
X133019865Y-97271328D01*
X133027548Y-97272999D01*
X133654669Y-97272999D01*
X133661490Y-97272629D01*
X133712352Y-97267105D01*
X133727604Y-97263479D01*
X133848054Y-97218324D01*
X133863649Y-97209786D01*
X133965724Y-97133285D01*
X133978285Y-97120724D01*
X134054786Y-97018649D01*
X134063324Y-97003054D01*
X134108478Y-96882606D01*
X134112105Y-96867351D01*
X134117631Y-96816486D01*
X134118000Y-96809672D01*
X134118000Y-96187115D01*
X134113525Y-96171876D01*
X134112135Y-96170671D01*
X134104452Y-96169000D01*
X133032115Y-96169000D01*
X133016876Y-96173475D01*
X133015671Y-96174865D01*
X133014000Y-96182548D01*
X133014000Y-97254884D01*
X132506000Y-97254884D01*
X132506000Y-96187115D01*
X132501525Y-96171876D01*
X132500135Y-96170671D01*
X132492452Y-96169000D01*
X131420116Y-96169000D01*
X131404877Y-96173475D01*
X131403672Y-96174865D01*
X131402001Y-96182548D01*
X131402001Y-96809669D01*
X106041884Y-96809669D01*
X106042370Y-96808069D01*
X106071529Y-96586590D01*
X106073156Y-96520000D01*
X106054852Y-96297361D01*
X106000431Y-96080702D01*
X105911354Y-95875840D01*
X105790014Y-95688277D01*
X105639670Y-95523051D01*
X105635619Y-95519852D01*
X105635615Y-95519848D01*
X105468414Y-95387800D01*
X105468410Y-95387798D01*
X105464359Y-95384598D01*
X105268789Y-95276638D01*
X105263920Y-95274914D01*
X105263916Y-95274912D01*
X105063087Y-95203795D01*
X105063083Y-95203794D01*
X105058212Y-95202069D01*
X105053119Y-95201162D01*
X105053116Y-95201161D01*
X104843373Y-95163800D01*
X104843367Y-95163799D01*
X104838284Y-95162894D01*
X104764452Y-95161992D01*
X104620081Y-95160228D01*
X104620079Y-95160228D01*
X104614911Y-95160165D01*
X104394091Y-95193955D01*
X104181756Y-95263357D01*
X103983607Y-95366507D01*
X103979474Y-95369610D01*
X103979471Y-95369612D01*
X103955247Y-95387800D01*
X103804965Y-95500635D01*
X103801393Y-95504373D01*
X103669028Y-95642885D01*
X103650629Y-95662138D01*
X103543201Y-95819621D01*
X103488293Y-95864621D01*
X103417768Y-95872792D01*
X103354021Y-95841538D01*
X103333324Y-95817054D01*
X103252822Y-95692617D01*
X103252820Y-95692614D01*
X103250014Y-95688277D01*
X103099670Y-95523051D01*
X103095619Y-95519852D01*
X103095615Y-95519848D01*
X102928414Y-95387800D01*
X102928410Y-95387798D01*
X102924359Y-95384598D01*
X102728789Y-95276638D01*
X102723920Y-95274914D01*
X102723916Y-95274912D01*
X102523087Y-95203795D01*
X102523083Y-95203794D01*
X102518212Y-95202069D01*
X102513119Y-95201162D01*
X102513116Y-95201161D01*
X102303373Y-95163800D01*
X102303367Y-95163799D01*
X102298284Y-95162894D01*
X102224452Y-95161992D01*
X102080081Y-95160228D01*
X102080079Y-95160228D01*
X102074911Y-95160165D01*
X101854091Y-95193955D01*
X101641756Y-95263357D01*
X101443607Y-95366507D01*
X101439474Y-95369610D01*
X101439471Y-95369612D01*
X101415247Y-95387800D01*
X101264965Y-95500635D01*
X101261393Y-95504373D01*
X101129028Y-95642885D01*
X101110629Y-95662138D01*
X100984743Y-95846680D01*
X100890688Y-96049305D01*
X100830989Y-96264570D01*
X100807251Y-96486695D01*
X100807548Y-96491848D01*
X100807548Y-96491851D01*
X100813011Y-96586590D01*
X100820110Y-96709715D01*
X100821247Y-96714761D01*
X100821248Y-96714767D01*
X100841119Y-96802939D01*
X100869222Y-96927639D01*
X100953266Y-97134616D01*
X100999330Y-97209786D01*
X101067291Y-97320688D01*
X101069987Y-97325088D01*
X101216250Y-97493938D01*
X101388126Y-97636632D01*
X101458595Y-97677811D01*
X101461445Y-97679476D01*
X101510169Y-97731114D01*
X101523240Y-97800897D01*
X101496509Y-97866669D01*
X101456055Y-97900027D01*
X101443607Y-97906507D01*
X101439474Y-97909610D01*
X101439471Y-97909612D01*
X101415247Y-97927800D01*
X101264965Y-98040635D01*
X101110629Y-98202138D01*
X100984743Y-98386680D01*
X100890688Y-98589305D01*
X100830989Y-98804570D01*
X100807251Y-99026695D01*
X100807548Y-99031848D01*
X100807548Y-99031851D01*
X100813011Y-99126590D01*
X100820110Y-99249715D01*
X100821247Y-99254761D01*
X100821248Y-99254767D01*
X100841119Y-99342939D01*
X100869222Y-99467639D01*
X100953266Y-99674616D01*
X101004019Y-99757438D01*
X101067291Y-99860688D01*
X101069987Y-99865088D01*
X101216250Y-100033938D01*
X101363610Y-100156279D01*
X101374536Y-100165349D01*
X101388126Y-100176632D01*
X101427200Y-100199465D01*
X101461445Y-100219476D01*
X101510169Y-100271114D01*
X101523240Y-100340897D01*
X101496509Y-100406669D01*
X101456055Y-100440027D01*
X101443607Y-100446507D01*
X101439474Y-100449610D01*
X101439471Y-100449612D01*
X101269100Y-100577530D01*
X101264965Y-100580635D01*
X101110629Y-100742138D01*
X100984743Y-100926680D01*
X100890688Y-101129305D01*
X100830989Y-101344570D01*
X100807251Y-101566695D01*
X100807548Y-101571848D01*
X100807548Y-101571851D01*
X100813202Y-101669908D01*
X100820110Y-101789715D01*
X100821247Y-101794761D01*
X100821248Y-101794767D01*
X100826481Y-101817985D01*
X100869222Y-102007639D01*
X100953266Y-102214616D01*
X101004019Y-102297438D01*
X101067291Y-102400688D01*
X101069987Y-102405088D01*
X101216250Y-102573938D01*
X101388126Y-102716632D01*
X101458595Y-102757811D01*
X101461445Y-102759476D01*
X101510169Y-102811114D01*
X101523240Y-102880897D01*
X101496509Y-102946669D01*
X101456055Y-102980027D01*
X101443607Y-102986507D01*
X101439474Y-102989610D01*
X101439471Y-102989612D01*
X101276347Y-103112089D01*
X101264965Y-103120635D01*
X101110629Y-103282138D01*
X100984743Y-103466680D01*
X100890688Y-103669305D01*
X100830989Y-103884570D01*
X100807251Y-104106695D01*
X100807548Y-104111848D01*
X100807548Y-104111851D01*
X100813011Y-104206590D01*
X100820110Y-104329715D01*
X100821247Y-104334761D01*
X100821248Y-104334767D01*
X100841119Y-104422939D01*
X100869222Y-104547639D01*
X100953266Y-104754616D01*
X101004019Y-104837438D01*
X101067291Y-104940688D01*
X101069987Y-104945088D01*
X101216250Y-105113938D01*
X101388126Y-105256632D01*
X101458595Y-105297811D01*
X101461445Y-105299476D01*
X101510169Y-105351114D01*
X101523240Y-105420897D01*
X101496509Y-105486669D01*
X101456055Y-105520027D01*
X101443607Y-105526507D01*
X101439474Y-105529610D01*
X101439471Y-105529612D01*
X101269100Y-105657530D01*
X101264965Y-105660635D01*
X101110629Y-105822138D01*
X100984743Y-106006680D01*
X100890688Y-106209305D01*
X100830989Y-106424570D01*
X100807251Y-106646695D01*
X98298500Y-106646695D01*
X98298500Y-92710000D01*
X100286502Y-92710000D01*
X100306457Y-92938087D01*
X100307881Y-92943400D01*
X100307881Y-92943402D01*
X100355086Y-93119570D01*
X100365716Y-93159243D01*
X100368039Y-93164224D01*
X100368039Y-93164225D01*
X100460151Y-93361762D01*
X100460154Y-93361767D01*
X100462477Y-93366749D01*
X100593802Y-93554300D01*
X100755700Y-93716198D01*
X100760208Y-93719355D01*
X100760211Y-93719357D01*
X100838389Y-93774098D01*
X100943251Y-93847523D01*
X100948233Y-93849846D01*
X100948238Y-93849849D01*
X101145775Y-93941961D01*
X101150757Y-93944284D01*
X101156065Y-93945706D01*
X101156067Y-93945707D01*
X101366598Y-94002119D01*
X101366600Y-94002119D01*
X101371913Y-94003543D01*
X101600000Y-94023498D01*
X101828087Y-94003543D01*
X101833400Y-94002119D01*
X101833402Y-94002119D01*
X102043933Y-93945707D01*
X102043935Y-93945706D01*
X102049243Y-93944284D01*
X102054225Y-93941961D01*
X102251762Y-93849849D01*
X102251767Y-93849846D01*
X102256749Y-93847523D01*
X102361611Y-93774098D01*
X102439789Y-93719357D01*
X102439792Y-93719355D01*
X102444300Y-93716198D01*
X102606198Y-93554300D01*
X102737523Y-93366749D01*
X102739846Y-93361767D01*
X102739849Y-93361762D01*
X102831961Y-93164225D01*
X102831961Y-93164224D01*
X102834284Y-93159243D01*
X102844915Y-93119570D01*
X102892119Y-92943402D01*
X102892119Y-92943400D01*
X102893543Y-92938087D01*
X102913498Y-92710000D01*
X106636502Y-92710000D01*
X106656457Y-92938087D01*
X106657881Y-92943400D01*
X106657881Y-92943402D01*
X106705086Y-93119570D01*
X106715716Y-93159243D01*
X106718039Y-93164224D01*
X106718039Y-93164225D01*
X106810151Y-93361762D01*
X106810154Y-93361767D01*
X106812477Y-93366749D01*
X106943802Y-93554300D01*
X107105700Y-93716198D01*
X107110208Y-93719355D01*
X107110211Y-93719357D01*
X107188389Y-93774098D01*
X107293251Y-93847523D01*
X107298233Y-93849846D01*
X107298238Y-93849849D01*
X107495775Y-93941961D01*
X107500757Y-93944284D01*
X107506065Y-93945706D01*
X107506067Y-93945707D01*
X107716598Y-94002119D01*
X107716600Y-94002119D01*
X107721913Y-94003543D01*
X107950000Y-94023498D01*
X108178087Y-94003543D01*
X108183400Y-94002119D01*
X108183402Y-94002119D01*
X108393933Y-93945707D01*
X108393935Y-93945706D01*
X108399243Y-93944284D01*
X108404225Y-93941961D01*
X108601762Y-93849849D01*
X108601767Y-93849846D01*
X108606749Y-93847523D01*
X108711611Y-93774098D01*
X108789789Y-93719357D01*
X108789792Y-93719355D01*
X108794300Y-93716198D01*
X108956198Y-93554300D01*
X109087523Y-93366749D01*
X109089846Y-93361767D01*
X109089849Y-93361762D01*
X109181961Y-93164225D01*
X109181961Y-93164224D01*
X109184284Y-93159243D01*
X109194915Y-93119570D01*
X109242119Y-92943402D01*
X109242119Y-92943400D01*
X109243543Y-92938087D01*
X109263498Y-92710000D01*
X112986502Y-92710000D01*
X113006457Y-92938087D01*
X113007881Y-92943400D01*
X113007881Y-92943402D01*
X113055086Y-93119570D01*
X113065716Y-93159243D01*
X113068039Y-93164224D01*
X113068039Y-93164225D01*
X113160151Y-93361762D01*
X113160154Y-93361767D01*
X113162477Y-93366749D01*
X113293802Y-93554300D01*
X113455700Y-93716198D01*
X113460208Y-93719355D01*
X113460211Y-93719357D01*
X113538389Y-93774098D01*
X113643251Y-93847523D01*
X113648233Y-93849846D01*
X113648238Y-93849849D01*
X113845775Y-93941961D01*
X113850757Y-93944284D01*
X113856065Y-93945706D01*
X113856067Y-93945707D01*
X114066598Y-94002119D01*
X114066600Y-94002119D01*
X114071913Y-94003543D01*
X114300000Y-94023498D01*
X114528087Y-94003543D01*
X114533400Y-94002119D01*
X114533402Y-94002119D01*
X114743933Y-93945707D01*
X114743935Y-93945706D01*
X114749243Y-93944284D01*
X114754225Y-93941961D01*
X114951762Y-93849849D01*
X114951767Y-93849846D01*
X114956749Y-93847523D01*
X115061611Y-93774098D01*
X115139789Y-93719357D01*
X115139792Y-93719355D01*
X115144300Y-93716198D01*
X115306198Y-93554300D01*
X115437523Y-93366749D01*
X115439846Y-93361767D01*
X115439849Y-93361762D01*
X115449206Y-93341695D01*
X131397251Y-93341695D01*
X131397548Y-93346848D01*
X131397548Y-93346851D01*
X131403011Y-93441590D01*
X131410110Y-93564715D01*
X131411247Y-93569761D01*
X131411248Y-93569767D01*
X131431119Y-93657939D01*
X131459222Y-93782639D01*
X131497461Y-93876811D01*
X131525437Y-93945707D01*
X131543266Y-93989616D01*
X131659987Y-94180088D01*
X131806250Y-94348938D01*
X131810225Y-94352238D01*
X131810231Y-94352244D01*
X131815425Y-94356556D01*
X131855059Y-94415460D01*
X131856555Y-94486441D01*
X131819439Y-94546962D01*
X131779168Y-94571480D01*
X131671946Y-94611676D01*
X131656351Y-94620214D01*
X131554276Y-94696715D01*
X131541715Y-94709276D01*
X131465214Y-94811351D01*
X131456676Y-94826946D01*
X131411522Y-94947394D01*
X131407895Y-94962649D01*
X131402369Y-95013514D01*
X131402000Y-95020328D01*
X131402000Y-95642885D01*
X131406475Y-95658124D01*
X131407865Y-95659329D01*
X131415548Y-95661000D01*
X134099884Y-95661000D01*
X134115123Y-95656525D01*
X134116328Y-95655135D01*
X134117999Y-95647452D01*
X134117999Y-95020331D01*
X134117629Y-95013510D01*
X134112105Y-94962648D01*
X134108479Y-94947396D01*
X134063324Y-94826946D01*
X134054786Y-94811351D01*
X133978285Y-94709276D01*
X133965724Y-94696715D01*
X133863649Y-94620214D01*
X133848054Y-94611676D01*
X133737813Y-94570348D01*
X133681049Y-94527706D01*
X133656349Y-94461145D01*
X133671557Y-94391796D01*
X133693104Y-94363115D01*
X133794430Y-94262144D01*
X133794440Y-94262132D01*
X133798096Y-94258489D01*
X133857594Y-94175689D01*
X133925435Y-94081277D01*
X133928453Y-94077077D01*
X133965500Y-94002119D01*
X134025136Y-93881453D01*
X134025137Y-93881451D01*
X134027430Y-93876811D01*
X134092370Y-93663069D01*
X134121529Y-93441590D01*
X134123156Y-93375000D01*
X134104852Y-93152361D01*
X134050431Y-92935702D01*
X133961354Y-92730840D01*
X133840014Y-92543277D01*
X133689670Y-92378051D01*
X133685619Y-92374852D01*
X133685615Y-92374848D01*
X133518414Y-92242800D01*
X133518410Y-92242798D01*
X133514359Y-92239598D01*
X133318789Y-92131638D01*
X133313920Y-92129914D01*
X133313916Y-92129912D01*
X133113087Y-92058795D01*
X133113083Y-92058794D01*
X133108212Y-92057069D01*
X133103119Y-92056162D01*
X133103116Y-92056161D01*
X132893373Y-92018800D01*
X132893367Y-92018799D01*
X132888284Y-92017894D01*
X132814452Y-92016992D01*
X132670081Y-92015228D01*
X132670079Y-92015228D01*
X132664911Y-92015165D01*
X132444091Y-92048955D01*
X132231756Y-92118357D01*
X132033607Y-92221507D01*
X132029474Y-92224610D01*
X132029471Y-92224612D01*
X131859100Y-92352530D01*
X131854965Y-92355635D01*
X131700629Y-92517138D01*
X131574743Y-92701680D01*
X131480688Y-92904305D01*
X131420989Y-93119570D01*
X131397251Y-93341695D01*
X115449206Y-93341695D01*
X115531961Y-93164225D01*
X115531961Y-93164224D01*
X115534284Y-93159243D01*
X115544915Y-93119570D01*
X115592119Y-92943402D01*
X115592119Y-92943400D01*
X115593543Y-92938087D01*
X115613498Y-92710000D01*
X115593543Y-92481913D01*
X115592119Y-92476598D01*
X115535707Y-92266067D01*
X115535706Y-92266065D01*
X115534284Y-92260757D01*
X115525911Y-92242800D01*
X115439849Y-92058238D01*
X115439846Y-92058233D01*
X115437523Y-92053251D01*
X115306198Y-91865700D01*
X115144300Y-91703802D01*
X115139792Y-91700645D01*
X115139789Y-91700643D01*
X115061611Y-91645902D01*
X114956749Y-91572477D01*
X114951767Y-91570154D01*
X114951762Y-91570151D01*
X114754225Y-91478039D01*
X114754224Y-91478039D01*
X114749243Y-91475716D01*
X114743935Y-91474294D01*
X114743933Y-91474293D01*
X114533402Y-91417881D01*
X114533400Y-91417881D01*
X114528087Y-91416457D01*
X114300000Y-91396502D01*
X114071913Y-91416457D01*
X114066600Y-91417881D01*
X114066598Y-91417881D01*
X113856067Y-91474293D01*
X113856065Y-91474294D01*
X113850757Y-91475716D01*
X113845776Y-91478039D01*
X113845775Y-91478039D01*
X113648238Y-91570151D01*
X113648233Y-91570154D01*
X113643251Y-91572477D01*
X113538389Y-91645902D01*
X113460211Y-91700643D01*
X113460208Y-91700645D01*
X113455700Y-91703802D01*
X113293802Y-91865700D01*
X113162477Y-92053251D01*
X113160154Y-92058233D01*
X113160151Y-92058238D01*
X113074089Y-92242800D01*
X113065716Y-92260757D01*
X113064294Y-92266065D01*
X113064293Y-92266067D01*
X113007881Y-92476598D01*
X113006457Y-92481913D01*
X112986502Y-92710000D01*
X109263498Y-92710000D01*
X109243543Y-92481913D01*
X109242119Y-92476598D01*
X109185707Y-92266067D01*
X109185706Y-92266065D01*
X109184284Y-92260757D01*
X109175911Y-92242800D01*
X109089849Y-92058238D01*
X109089846Y-92058233D01*
X109087523Y-92053251D01*
X108956198Y-91865700D01*
X108794300Y-91703802D01*
X108789792Y-91700645D01*
X108789789Y-91700643D01*
X108711611Y-91645902D01*
X108606749Y-91572477D01*
X108601767Y-91570154D01*
X108601762Y-91570151D01*
X108404225Y-91478039D01*
X108404224Y-91478039D01*
X108399243Y-91475716D01*
X108393935Y-91474294D01*
X108393933Y-91474293D01*
X108183402Y-91417881D01*
X108183400Y-91417881D01*
X108178087Y-91416457D01*
X107950000Y-91396502D01*
X107721913Y-91416457D01*
X107716600Y-91417881D01*
X107716598Y-91417881D01*
X107506067Y-91474293D01*
X107506065Y-91474294D01*
X107500757Y-91475716D01*
X107495776Y-91478039D01*
X107495775Y-91478039D01*
X107298238Y-91570151D01*
X107298233Y-91570154D01*
X107293251Y-91572477D01*
X107188389Y-91645902D01*
X107110211Y-91700643D01*
X107110208Y-91700645D01*
X107105700Y-91703802D01*
X106943802Y-91865700D01*
X106812477Y-92053251D01*
X106810154Y-92058233D01*
X106810151Y-92058238D01*
X106724089Y-92242800D01*
X106715716Y-92260757D01*
X106714294Y-92266065D01*
X106714293Y-92266067D01*
X106657881Y-92476598D01*
X106656457Y-92481913D01*
X106636502Y-92710000D01*
X102913498Y-92710000D01*
X102893543Y-92481913D01*
X102892119Y-92476598D01*
X102835707Y-92266067D01*
X102835706Y-92266065D01*
X102834284Y-92260757D01*
X102825911Y-92242800D01*
X102739849Y-92058238D01*
X102739846Y-92058233D01*
X102737523Y-92053251D01*
X102606198Y-91865700D01*
X102444300Y-91703802D01*
X102439792Y-91700645D01*
X102439789Y-91700643D01*
X102361611Y-91645902D01*
X102256749Y-91572477D01*
X102251767Y-91570154D01*
X102251762Y-91570151D01*
X102054225Y-91478039D01*
X102054224Y-91478039D01*
X102049243Y-91475716D01*
X102043935Y-91474294D01*
X102043933Y-91474293D01*
X101833402Y-91417881D01*
X101833400Y-91417881D01*
X101828087Y-91416457D01*
X101600000Y-91396502D01*
X101371913Y-91416457D01*
X101366600Y-91417881D01*
X101366598Y-91417881D01*
X101156067Y-91474293D01*
X101156065Y-91474294D01*
X101150757Y-91475716D01*
X101145776Y-91478039D01*
X101145775Y-91478039D01*
X100948238Y-91570151D01*
X100948233Y-91570154D01*
X100943251Y-91572477D01*
X100838389Y-91645902D01*
X100760211Y-91700643D01*
X100760208Y-91700645D01*
X100755700Y-91703802D01*
X100593802Y-91865700D01*
X100462477Y-92053251D01*
X100460154Y-92058233D01*
X100460151Y-92058238D01*
X100374089Y-92242800D01*
X100365716Y-92260757D01*
X100364294Y-92266065D01*
X100364293Y-92266067D01*
X100307881Y-92476598D01*
X100306457Y-92481913D01*
X100286502Y-92710000D01*
X98298500Y-92710000D01*
X98298500Y-87757000D01*
X125451496Y-87757000D01*
X125452186Y-87763565D01*
X125461791Y-87854947D01*
X125471458Y-87946928D01*
X125530473Y-88128556D01*
X125625960Y-88293944D01*
X125753747Y-88435866D01*
X125908248Y-88548118D01*
X125914276Y-88550802D01*
X125914278Y-88550803D01*
X126076681Y-88623109D01*
X126082712Y-88625794D01*
X126169954Y-88644338D01*
X126263056Y-88664128D01*
X126263061Y-88664128D01*
X126269513Y-88665500D01*
X126460487Y-88665500D01*
X126466939Y-88664128D01*
X126466944Y-88664128D01*
X126560046Y-88644338D01*
X126647288Y-88625794D01*
X126653319Y-88623109D01*
X126815722Y-88550803D01*
X126815724Y-88550802D01*
X126821752Y-88548118D01*
X126976253Y-88435866D01*
X127104040Y-88293944D01*
X127199527Y-88128556D01*
X127258542Y-87946928D01*
X127268210Y-87854947D01*
X127277814Y-87763565D01*
X127278504Y-87757000D01*
X127265902Y-87637095D01*
X131320651Y-87637095D01*
X131320948Y-87642248D01*
X131320948Y-87642251D01*
X131327943Y-87763565D01*
X131333510Y-87860115D01*
X131334647Y-87865161D01*
X131334648Y-87865167D01*
X131351595Y-87940365D01*
X131382622Y-88078039D01*
X131466666Y-88285016D01*
X131469365Y-88289420D01*
X131559107Y-88435866D01*
X131583387Y-88475488D01*
X131729650Y-88644338D01*
X131901526Y-88787032D01*
X132094400Y-88899738D01*
X132303092Y-88979430D01*
X132308160Y-88980461D01*
X132308163Y-88980462D01*
X132415417Y-89002283D01*
X132521997Y-89023967D01*
X132527172Y-89024157D01*
X132527174Y-89024157D01*
X132740073Y-89031964D01*
X132740077Y-89031964D01*
X132745237Y-89032153D01*
X132750357Y-89031497D01*
X132750359Y-89031497D01*
X132961688Y-89004425D01*
X132961689Y-89004425D01*
X132966816Y-89003768D01*
X132971766Y-89002283D01*
X133175829Y-88941061D01*
X133175834Y-88941059D01*
X133180784Y-88939574D01*
X133381394Y-88841296D01*
X133563260Y-88711573D01*
X133721496Y-88553889D01*
X133780994Y-88471089D01*
X133848835Y-88376677D01*
X133851853Y-88372477D01*
X133950830Y-88172211D01*
X134015770Y-87958469D01*
X134044929Y-87736990D01*
X134046556Y-87670400D01*
X134028252Y-87447761D01*
X133973831Y-87231102D01*
X133884754Y-87026240D01*
X133794568Y-86886834D01*
X133766222Y-86843017D01*
X133766220Y-86843014D01*
X133763414Y-86838677D01*
X133613070Y-86673451D01*
X133609019Y-86670252D01*
X133609015Y-86670248D01*
X133441814Y-86538200D01*
X133441810Y-86538198D01*
X133437759Y-86534998D01*
X133396453Y-86512196D01*
X133346484Y-86461764D01*
X133331712Y-86392321D01*
X133356828Y-86325916D01*
X133384180Y-86299309D01*
X133428003Y-86268050D01*
X133563260Y-86171573D01*
X133721496Y-86013889D01*
X133780994Y-85931089D01*
X133848835Y-85836677D01*
X133851853Y-85832477D01*
X133950830Y-85632211D01*
X134015770Y-85418469D01*
X134044929Y-85196990D01*
X134046556Y-85130400D01*
X134028252Y-84907761D01*
X133973831Y-84691102D01*
X133884754Y-84486240D01*
X133763414Y-84298677D01*
X133759932Y-84294850D01*
X133616198Y-84136888D01*
X133585146Y-84073042D01*
X133593541Y-84002543D01*
X133638717Y-83947775D01*
X133665161Y-83934106D01*
X133771697Y-83894167D01*
X133780105Y-83891015D01*
X133896661Y-83803661D01*
X133984015Y-83687105D01*
X134035145Y-83550716D01*
X134041900Y-83488534D01*
X134041900Y-81692266D01*
X134035145Y-81630084D01*
X133984015Y-81493695D01*
X133896661Y-81377139D01*
X133780105Y-81289785D01*
X133643716Y-81238655D01*
X133581534Y-81231900D01*
X131785266Y-81231900D01*
X131723084Y-81238655D01*
X131586695Y-81289785D01*
X131470139Y-81377139D01*
X131382785Y-81493695D01*
X131331655Y-81630084D01*
X131324900Y-81692266D01*
X131324900Y-83488534D01*
X131331655Y-83550716D01*
X131382785Y-83687105D01*
X131470139Y-83803661D01*
X131586695Y-83891015D01*
X131595104Y-83894167D01*
X131595105Y-83894168D01*
X131703851Y-83934935D01*
X131760616Y-83977576D01*
X131785316Y-84044138D01*
X131770109Y-84113487D01*
X131750716Y-84139968D01*
X131624029Y-84272538D01*
X131498143Y-84457080D01*
X131482403Y-84490990D01*
X131410419Y-84646067D01*
X131404088Y-84659705D01*
X131344389Y-84874970D01*
X131320651Y-85097095D01*
X131320948Y-85102248D01*
X131320948Y-85102251D01*
X131326411Y-85196990D01*
X131333510Y-85320115D01*
X131334647Y-85325161D01*
X131334648Y-85325167D01*
X131354519Y-85413339D01*
X131382622Y-85538039D01*
X131466666Y-85745016D01*
X131517419Y-85827838D01*
X131579895Y-85929789D01*
X131583387Y-85935488D01*
X131729650Y-86104338D01*
X131901526Y-86247032D01*
X131971995Y-86288211D01*
X131974845Y-86289876D01*
X132023569Y-86341514D01*
X132036640Y-86411297D01*
X132009909Y-86477069D01*
X131969455Y-86510427D01*
X131957007Y-86516907D01*
X131952874Y-86520010D01*
X131952871Y-86520012D01*
X131928647Y-86538200D01*
X131778365Y-86651035D01*
X131624029Y-86812538D01*
X131498143Y-86997080D01*
X131404088Y-87199705D01*
X131344389Y-87414970D01*
X131320651Y-87637095D01*
X127265902Y-87637095D01*
X127258542Y-87567072D01*
X127199527Y-87385444D01*
X127104040Y-87220056D01*
X126976253Y-87078134D01*
X126821752Y-86965882D01*
X126815724Y-86963198D01*
X126815722Y-86963197D01*
X126653319Y-86890891D01*
X126653318Y-86890891D01*
X126647288Y-86888206D01*
X126553887Y-86868353D01*
X126466944Y-86849872D01*
X126466939Y-86849872D01*
X126460487Y-86848500D01*
X126269513Y-86848500D01*
X126263061Y-86849872D01*
X126263056Y-86849872D01*
X126176113Y-86868353D01*
X126082712Y-86888206D01*
X126076682Y-86890891D01*
X126076681Y-86890891D01*
X125914278Y-86963197D01*
X125914276Y-86963198D01*
X125908248Y-86965882D01*
X125753747Y-87078134D01*
X125625960Y-87220056D01*
X125530473Y-87385444D01*
X125471458Y-87567072D01*
X125451496Y-87757000D01*
X98298500Y-87757000D01*
X98298500Y-78304830D01*
X98318502Y-78236709D01*
X98372158Y-78190216D01*
X98442432Y-78180112D01*
X98502596Y-78208466D01*
X98503814Y-78206953D01*
X98755196Y-78409431D01*
X98755201Y-78409435D01*
X98758149Y-78411809D01*
X99035253Y-78584627D01*
X99331112Y-78722903D01*
X99334721Y-78724086D01*
X99618632Y-78817157D01*
X99641440Y-78824634D01*
X99961742Y-78888346D01*
X99965514Y-78888633D01*
X99965522Y-78888634D01*
X100283602Y-78912829D01*
X100283607Y-78912829D01*
X100287379Y-78913116D01*
X100404737Y-78907889D01*
X100473678Y-78924840D01*
X100522512Y-78976374D01*
X100535733Y-79046129D01*
X100508265Y-79113053D01*
X100505205Y-79116833D01*
X100501639Y-79120564D01*
X100371119Y-79311899D01*
X100273602Y-79521981D01*
X100211707Y-79745169D01*
X100187095Y-79975469D01*
X100187392Y-79980622D01*
X100187392Y-79980625D01*
X100193067Y-80079041D01*
X100200427Y-80206697D01*
X100201564Y-80211743D01*
X100201565Y-80211749D01*
X100233741Y-80354523D01*
X100251346Y-80432642D01*
X100253288Y-80437424D01*
X100253289Y-80437428D01*
X100336540Y-80642450D01*
X100338484Y-80647237D01*
X100459501Y-80844719D01*
X100462882Y-80848622D01*
X100571304Y-80973788D01*
X100600786Y-81038373D01*
X100590671Y-81108646D01*
X100544170Y-81162294D01*
X100520296Y-81174267D01*
X100464515Y-81195179D01*
X100453295Y-81199385D01*
X100336739Y-81286739D01*
X100249385Y-81403295D01*
X100198255Y-81539684D01*
X100191500Y-81601866D01*
X100191500Y-83498134D01*
X100198255Y-83560316D01*
X100249385Y-83696705D01*
X100336739Y-83813261D01*
X100453295Y-83900615D01*
X100589684Y-83951745D01*
X100597540Y-83952598D01*
X100605222Y-83954425D01*
X100604898Y-83955789D01*
X100662664Y-83979790D01*
X100703093Y-84038151D01*
X100705551Y-84109106D01*
X100672593Y-84166909D01*
X100593802Y-84245700D01*
X100462477Y-84433251D01*
X100460154Y-84438233D01*
X100460151Y-84438238D01*
X100451365Y-84457080D01*
X100365716Y-84640757D01*
X100306457Y-84861913D01*
X100286502Y-85090000D01*
X100306457Y-85318087D01*
X100365716Y-85539243D01*
X100368039Y-85544224D01*
X100368039Y-85544225D01*
X100460151Y-85741762D01*
X100460154Y-85741767D01*
X100462477Y-85746749D01*
X100593802Y-85934300D01*
X100755700Y-86096198D01*
X100760208Y-86099355D01*
X100760211Y-86099357D01*
X100838389Y-86154098D01*
X100943251Y-86227523D01*
X100948233Y-86229846D01*
X100948238Y-86229849D01*
X101145775Y-86321961D01*
X101150757Y-86324284D01*
X101156065Y-86325706D01*
X101156067Y-86325707D01*
X101366598Y-86382119D01*
X101366600Y-86382119D01*
X101371913Y-86383543D01*
X101600000Y-86403498D01*
X101828087Y-86383543D01*
X101833400Y-86382119D01*
X101833402Y-86382119D01*
X102043933Y-86325707D01*
X102043935Y-86325706D01*
X102049243Y-86324284D01*
X102054225Y-86321961D01*
X102251762Y-86229849D01*
X102251767Y-86229846D01*
X102256749Y-86227523D01*
X102361611Y-86154098D01*
X102439789Y-86099357D01*
X102439792Y-86099355D01*
X102444300Y-86096198D01*
X102606198Y-85934300D01*
X102737523Y-85746749D01*
X102739846Y-85741767D01*
X102739849Y-85741762D01*
X102831961Y-85544225D01*
X102831961Y-85544224D01*
X102834284Y-85539243D01*
X102893543Y-85318087D01*
X102913498Y-85090000D01*
X102893543Y-84861913D01*
X102834284Y-84640757D01*
X102748635Y-84457080D01*
X102739849Y-84438238D01*
X102739846Y-84438233D01*
X102737523Y-84433251D01*
X102606198Y-84245700D01*
X102527407Y-84166909D01*
X102493381Y-84104597D01*
X102498446Y-84033782D01*
X102540993Y-83976946D01*
X102595066Y-83955637D01*
X102594778Y-83954425D01*
X102602460Y-83952598D01*
X102610316Y-83951745D01*
X102746705Y-83900615D01*
X102863261Y-83813261D01*
X102950615Y-83696705D01*
X103001745Y-83560316D01*
X103008500Y-83498134D01*
X103008500Y-81601866D01*
X103001745Y-81539684D01*
X102950615Y-81403295D01*
X102863261Y-81286739D01*
X102746705Y-81199385D01*
X102738296Y-81196233D01*
X102738295Y-81196232D01*
X102679804Y-81174305D01*
X102623039Y-81131664D01*
X102598339Y-81065103D01*
X102613546Y-80995754D01*
X102635093Y-80967073D01*
X102672636Y-80929660D01*
X102672640Y-80929655D01*
X102676303Y-80926005D01*
X102811458Y-80737917D01*
X102858641Y-80642450D01*
X102911784Y-80534922D01*
X102911785Y-80534920D01*
X102914078Y-80530280D01*
X102981408Y-80308671D01*
X103011640Y-80079041D01*
X103013327Y-80010000D01*
X103010488Y-79975469D01*
X106537095Y-79975469D01*
X106537392Y-79980622D01*
X106537392Y-79980625D01*
X106543067Y-80079041D01*
X106550427Y-80206697D01*
X106551564Y-80211743D01*
X106551565Y-80211749D01*
X106583741Y-80354523D01*
X106601346Y-80432642D01*
X106603288Y-80437424D01*
X106603289Y-80437428D01*
X106686540Y-80642450D01*
X106688484Y-80647237D01*
X106809501Y-80844719D01*
X106812882Y-80848622D01*
X106921304Y-80973788D01*
X106950786Y-81038373D01*
X106940671Y-81108646D01*
X106894170Y-81162294D01*
X106870296Y-81174267D01*
X106814515Y-81195179D01*
X106803295Y-81199385D01*
X106686739Y-81286739D01*
X106599385Y-81403295D01*
X106548255Y-81539684D01*
X106541500Y-81601866D01*
X106541500Y-83498134D01*
X106548255Y-83560316D01*
X106599385Y-83696705D01*
X106686739Y-83813261D01*
X106803295Y-83900615D01*
X106939684Y-83951745D01*
X106947540Y-83952598D01*
X106955222Y-83954425D01*
X106954898Y-83955789D01*
X107012664Y-83979790D01*
X107053093Y-84038151D01*
X107055551Y-84109106D01*
X107022593Y-84166909D01*
X106943802Y-84245700D01*
X106812477Y-84433251D01*
X106810154Y-84438233D01*
X106810151Y-84438238D01*
X106801365Y-84457080D01*
X106715716Y-84640757D01*
X106656457Y-84861913D01*
X106636502Y-85090000D01*
X106656457Y-85318087D01*
X106715716Y-85539243D01*
X106718039Y-85544224D01*
X106718039Y-85544225D01*
X106810151Y-85741762D01*
X106810154Y-85741767D01*
X106812477Y-85746749D01*
X106943802Y-85934300D01*
X107105700Y-86096198D01*
X107110208Y-86099355D01*
X107110211Y-86099357D01*
X107188389Y-86154098D01*
X107293251Y-86227523D01*
X107298233Y-86229846D01*
X107298238Y-86229849D01*
X107495775Y-86321961D01*
X107500757Y-86324284D01*
X107506065Y-86325706D01*
X107506067Y-86325707D01*
X107716598Y-86382119D01*
X107716600Y-86382119D01*
X107721913Y-86383543D01*
X107950000Y-86403498D01*
X108178087Y-86383543D01*
X108183400Y-86382119D01*
X108183402Y-86382119D01*
X108393933Y-86325707D01*
X108393935Y-86325706D01*
X108399243Y-86324284D01*
X108404225Y-86321961D01*
X108601762Y-86229849D01*
X108601767Y-86229846D01*
X108606749Y-86227523D01*
X108711611Y-86154098D01*
X108789789Y-86099357D01*
X108789792Y-86099355D01*
X108794300Y-86096198D01*
X108956198Y-85934300D01*
X109087523Y-85746749D01*
X109089846Y-85741767D01*
X109089849Y-85741762D01*
X109181961Y-85544225D01*
X109181961Y-85544224D01*
X109184284Y-85539243D01*
X109243543Y-85318087D01*
X109263498Y-85090000D01*
X109243543Y-84861913D01*
X109184284Y-84640757D01*
X109098635Y-84457080D01*
X109089849Y-84438238D01*
X109089846Y-84438233D01*
X109087523Y-84433251D01*
X108956198Y-84245700D01*
X108877407Y-84166909D01*
X108843381Y-84104597D01*
X108848446Y-84033782D01*
X108890993Y-83976946D01*
X108945066Y-83955637D01*
X108944778Y-83954425D01*
X108952460Y-83952598D01*
X108960316Y-83951745D01*
X109096705Y-83900615D01*
X109213261Y-83813261D01*
X109300615Y-83696705D01*
X109351745Y-83560316D01*
X109358500Y-83498134D01*
X109358500Y-81601866D01*
X109351745Y-81539684D01*
X109300615Y-81403295D01*
X109213261Y-81286739D01*
X109096705Y-81199385D01*
X109088296Y-81196233D01*
X109088295Y-81196232D01*
X109029804Y-81174305D01*
X108973039Y-81131664D01*
X108948339Y-81065103D01*
X108963546Y-80995754D01*
X108985093Y-80967073D01*
X109022636Y-80929660D01*
X109022640Y-80929655D01*
X109026303Y-80926005D01*
X109161458Y-80737917D01*
X109208641Y-80642450D01*
X109261784Y-80534922D01*
X109261785Y-80534920D01*
X109264078Y-80530280D01*
X109331408Y-80308671D01*
X109361640Y-80079041D01*
X109363327Y-80010000D01*
X109360488Y-79975469D01*
X112887095Y-79975469D01*
X112887392Y-79980622D01*
X112887392Y-79980625D01*
X112893067Y-80079041D01*
X112900427Y-80206697D01*
X112901564Y-80211743D01*
X112901565Y-80211749D01*
X112933741Y-80354523D01*
X112951346Y-80432642D01*
X112953288Y-80437424D01*
X112953289Y-80437428D01*
X113036540Y-80642450D01*
X113038484Y-80647237D01*
X113159501Y-80844719D01*
X113162882Y-80848622D01*
X113271304Y-80973788D01*
X113300786Y-81038373D01*
X113290671Y-81108646D01*
X113244170Y-81162294D01*
X113220296Y-81174267D01*
X113164515Y-81195179D01*
X113153295Y-81199385D01*
X113036739Y-81286739D01*
X112949385Y-81403295D01*
X112898255Y-81539684D01*
X112891500Y-81601866D01*
X112891500Y-83498134D01*
X112898255Y-83560316D01*
X112949385Y-83696705D01*
X113036739Y-83813261D01*
X113153295Y-83900615D01*
X113289684Y-83951745D01*
X113297540Y-83952598D01*
X113305222Y-83954425D01*
X113304898Y-83955789D01*
X113362664Y-83979790D01*
X113403093Y-84038151D01*
X113405551Y-84109106D01*
X113372593Y-84166909D01*
X113293802Y-84245700D01*
X113162477Y-84433251D01*
X113160154Y-84438233D01*
X113160151Y-84438238D01*
X113151365Y-84457080D01*
X113065716Y-84640757D01*
X113006457Y-84861913D01*
X112986502Y-85090000D01*
X113006457Y-85318087D01*
X113065716Y-85539243D01*
X113068039Y-85544224D01*
X113068039Y-85544225D01*
X113160151Y-85741762D01*
X113160154Y-85741767D01*
X113162477Y-85746749D01*
X113293802Y-85934300D01*
X113455700Y-86096198D01*
X113460208Y-86099355D01*
X113460211Y-86099357D01*
X113538389Y-86154098D01*
X113643251Y-86227523D01*
X113648233Y-86229846D01*
X113648238Y-86229849D01*
X113845775Y-86321961D01*
X113850757Y-86324284D01*
X113856065Y-86325706D01*
X113856067Y-86325707D01*
X114066598Y-86382119D01*
X114066600Y-86382119D01*
X114071913Y-86383543D01*
X114300000Y-86403498D01*
X114528087Y-86383543D01*
X114533400Y-86382119D01*
X114533402Y-86382119D01*
X114743933Y-86325707D01*
X114743935Y-86325706D01*
X114749243Y-86324284D01*
X114754225Y-86321961D01*
X114951762Y-86229849D01*
X114951767Y-86229846D01*
X114956749Y-86227523D01*
X115061611Y-86154098D01*
X115139789Y-86099357D01*
X115139792Y-86099355D01*
X115144300Y-86096198D01*
X115306198Y-85934300D01*
X115437523Y-85746749D01*
X115439846Y-85741767D01*
X115439849Y-85741762D01*
X115531961Y-85544225D01*
X115531961Y-85544224D01*
X115534284Y-85539243D01*
X115593543Y-85318087D01*
X115613498Y-85090000D01*
X115593543Y-84861913D01*
X115534284Y-84640757D01*
X115448635Y-84457080D01*
X115439849Y-84438238D01*
X115439846Y-84438233D01*
X115437523Y-84433251D01*
X115306198Y-84245700D01*
X115227407Y-84166909D01*
X115193381Y-84104597D01*
X115198446Y-84033782D01*
X115240993Y-83976946D01*
X115295066Y-83955637D01*
X115294778Y-83954425D01*
X115302460Y-83952598D01*
X115310316Y-83951745D01*
X115446705Y-83900615D01*
X115563261Y-83813261D01*
X115650615Y-83696705D01*
X115701745Y-83560316D01*
X115708500Y-83498134D01*
X115708500Y-81601866D01*
X115701745Y-81539684D01*
X115650615Y-81403295D01*
X115563261Y-81286739D01*
X115446705Y-81199385D01*
X115438296Y-81196233D01*
X115438295Y-81196232D01*
X115379804Y-81174305D01*
X115323039Y-81131664D01*
X115298339Y-81065103D01*
X115313546Y-80995754D01*
X115335093Y-80967073D01*
X115372636Y-80929660D01*
X115372640Y-80929655D01*
X115376303Y-80926005D01*
X115511458Y-80737917D01*
X115558641Y-80642450D01*
X115611784Y-80534922D01*
X115611785Y-80534920D01*
X115614078Y-80530280D01*
X115681408Y-80308671D01*
X115711640Y-80079041D01*
X115713327Y-80010000D01*
X115707032Y-79933434D01*
X115694773Y-79784318D01*
X115694772Y-79784312D01*
X115694349Y-79779167D01*
X115637925Y-79554533D01*
X115635866Y-79549797D01*
X115547630Y-79346868D01*
X115547628Y-79346865D01*
X115545570Y-79342131D01*
X115419764Y-79147665D01*
X115263887Y-78976358D01*
X115259836Y-78973159D01*
X115259832Y-78973155D01*
X115086177Y-78836011D01*
X115086172Y-78836008D01*
X115082123Y-78832810D01*
X115077607Y-78830317D01*
X115077604Y-78830315D01*
X114883879Y-78723373D01*
X114883875Y-78723371D01*
X114879355Y-78720876D01*
X114874486Y-78719152D01*
X114874482Y-78719150D01*
X114665903Y-78645288D01*
X114665899Y-78645287D01*
X114661028Y-78643562D01*
X114655935Y-78642655D01*
X114655932Y-78642654D01*
X114438095Y-78603851D01*
X114438089Y-78603850D01*
X114433006Y-78602945D01*
X114360096Y-78602054D01*
X114206581Y-78600179D01*
X114206579Y-78600179D01*
X114201411Y-78600116D01*
X113972464Y-78635150D01*
X113752314Y-78707106D01*
X113747726Y-78709494D01*
X113747722Y-78709496D01*
X113551461Y-78811663D01*
X113546872Y-78814052D01*
X113542739Y-78817155D01*
X113542736Y-78817157D01*
X113415156Y-78912947D01*
X113361655Y-78953117D01*
X113201639Y-79120564D01*
X113198728Y-79124832D01*
X113198724Y-79124837D01*
X113183152Y-79147665D01*
X113071119Y-79311899D01*
X112973602Y-79521981D01*
X112911707Y-79745169D01*
X112887095Y-79975469D01*
X109360488Y-79975469D01*
X109357032Y-79933434D01*
X109344773Y-79784318D01*
X109344772Y-79784312D01*
X109344349Y-79779167D01*
X109287925Y-79554533D01*
X109285866Y-79549797D01*
X109197630Y-79346868D01*
X109197628Y-79346865D01*
X109195570Y-79342131D01*
X109069764Y-79147665D01*
X108913887Y-78976358D01*
X108909836Y-78973159D01*
X108909832Y-78973155D01*
X108736177Y-78836011D01*
X108736172Y-78836008D01*
X108732123Y-78832810D01*
X108727607Y-78830317D01*
X108727604Y-78830315D01*
X108533879Y-78723373D01*
X108533875Y-78723371D01*
X108529355Y-78720876D01*
X108524486Y-78719152D01*
X108524482Y-78719150D01*
X108315903Y-78645288D01*
X108315899Y-78645287D01*
X108311028Y-78643562D01*
X108305935Y-78642655D01*
X108305932Y-78642654D01*
X108088095Y-78603851D01*
X108088089Y-78603850D01*
X108083006Y-78602945D01*
X108010096Y-78602054D01*
X107856581Y-78600179D01*
X107856579Y-78600179D01*
X107851411Y-78600116D01*
X107622464Y-78635150D01*
X107402314Y-78707106D01*
X107397726Y-78709494D01*
X107397722Y-78709496D01*
X107201461Y-78811663D01*
X107196872Y-78814052D01*
X107192739Y-78817155D01*
X107192736Y-78817157D01*
X107065156Y-78912947D01*
X107011655Y-78953117D01*
X106851639Y-79120564D01*
X106848728Y-79124832D01*
X106848724Y-79124837D01*
X106833152Y-79147665D01*
X106721119Y-79311899D01*
X106623602Y-79521981D01*
X106561707Y-79745169D01*
X106537095Y-79975469D01*
X103010488Y-79975469D01*
X103007032Y-79933434D01*
X102994773Y-79784318D01*
X102994772Y-79784312D01*
X102994349Y-79779167D01*
X102937925Y-79554533D01*
X102935866Y-79549797D01*
X102847630Y-79346868D01*
X102847628Y-79346865D01*
X102845570Y-79342131D01*
X102719764Y-79147665D01*
X102563887Y-78976358D01*
X102559836Y-78973159D01*
X102559832Y-78973155D01*
X102386177Y-78836011D01*
X102386172Y-78836008D01*
X102382123Y-78832810D01*
X102377607Y-78830317D01*
X102377604Y-78830315D01*
X102183879Y-78723373D01*
X102183875Y-78723371D01*
X102179355Y-78720876D01*
X102174486Y-78719152D01*
X102174482Y-78719150D01*
X101965903Y-78645288D01*
X101965899Y-78645287D01*
X101961028Y-78643562D01*
X101943944Y-78640519D01*
X101880387Y-78608881D01*
X101844024Y-78547903D01*
X101846401Y-78476947D01*
X101890123Y-78415911D01*
X102092245Y-78263324D01*
X102327363Y-78036670D01*
X102533549Y-77783410D01*
X102707815Y-77507215D01*
X102847638Y-77212084D01*
X102874188Y-77132504D01*
X102949790Y-76905897D01*
X102949792Y-76905891D01*
X102950992Y-76902293D01*
X103016381Y-76582329D01*
X103022956Y-76501498D01*
X103042674Y-76259061D01*
X103042856Y-76256826D01*
X103043451Y-76200000D01*
X103041510Y-76167796D01*
X103024026Y-75877793D01*
X103024026Y-75877789D01*
X103023798Y-75874015D01*
X103018650Y-75845824D01*
X102965805Y-75556473D01*
X102965804Y-75556469D01*
X102965125Y-75552751D01*
X102957722Y-75528907D01*
X102869404Y-75244477D01*
X102868282Y-75240863D01*
X102734670Y-74942869D01*
X102566226Y-74663084D01*
X102563899Y-74660100D01*
X102563894Y-74660093D01*
X102367726Y-74408558D01*
X102367724Y-74408556D01*
X102365390Y-74405563D01*
X102343303Y-74383360D01*
X102309443Y-74320961D01*
X102314693Y-74250158D01*
X102357388Y-74193434D01*
X102423973Y-74168798D01*
X102432633Y-74168500D01*
X138230176Y-74168500D01*
X138298297Y-74188502D01*
G37*
G04 #@! TD.AperFunction*
M02*
