G04 #@! TF.GenerationSoftware,KiCad,Pcbnew,(6.0.7-1)-1*
G04 #@! TF.CreationDate,2023-01-09T18:43:15-05:00*
G04 #@! TF.ProjectId,DebugBoard,44656275-6742-46f6-9172-642e6b696361,rev?*
G04 #@! TF.SameCoordinates,Original*
G04 #@! TF.FileFunction,Legend,Top*
G04 #@! TF.FilePolarity,Positive*
%FSLAX46Y46*%
G04 Gerber Fmt 4.6, Leading zero omitted, Abs format (unit mm)*
G04 Created by KiCad (PCBNEW (6.0.7-1)-1) date 2023-01-09 18:43:15*
%MOMM*%
%LPD*%
G01*
G04 APERTURE LIST*
%ADD10C,0.150000*%
%ADD11C,0.120000*%
%ADD12C,0.127000*%
%ADD13R,2.000000X2.000000*%
%ADD14C,2.159000*%
%ADD15O,1.700000X1.700000*%
%ADD16R,1.700000X1.700000*%
%ADD17C,4.400000*%
%ADD18C,1.600000*%
%ADD19O,1.600000X1.600000*%
%ADD20R,1.800000X1.800000*%
%ADD21C,1.800000*%
%ADD22C,0.700000*%
%ADD23O,1.700000X0.900000*%
%ADD24O,2.400000X0.900000*%
%ADD25R,2.500000X2.500000*%
G04 APERTURE END LIST*
D10*
X128759104Y-95413580D02*
X129378152Y-95413580D01*
X129044819Y-95794533D01*
X129187676Y-95794533D01*
X129282914Y-95842152D01*
X129330533Y-95889771D01*
X129378152Y-95985009D01*
X129378152Y-96223104D01*
X129330533Y-96318342D01*
X129282914Y-96365961D01*
X129187676Y-96413580D01*
X128901961Y-96413580D01*
X128806723Y-96365961D01*
X128759104Y-96318342D01*
X129663866Y-95413580D02*
X129997200Y-96413580D01*
X130330533Y-95413580D01*
X130568628Y-95413580D02*
X131187676Y-95413580D01*
X130854342Y-95794533D01*
X130997200Y-95794533D01*
X131092438Y-95842152D01*
X131140057Y-95889771D01*
X131187676Y-95985009D01*
X131187676Y-96223104D01*
X131140057Y-96318342D01*
X131092438Y-96365961D01*
X130997200Y-96413580D01*
X130711485Y-96413580D01*
X130616247Y-96365961D01*
X130568628Y-96318342D01*
X128681314Y-83005561D02*
X128824171Y-83053180D01*
X129062266Y-83053180D01*
X129157504Y-83005561D01*
X129205123Y-82957942D01*
X129252742Y-82862704D01*
X129252742Y-82767466D01*
X129205123Y-82672228D01*
X129157504Y-82624609D01*
X129062266Y-82576990D01*
X128871790Y-82529371D01*
X128776552Y-82481752D01*
X128728933Y-82434133D01*
X128681314Y-82338895D01*
X128681314Y-82243657D01*
X128728933Y-82148419D01*
X128776552Y-82100800D01*
X128871790Y-82053180D01*
X129109885Y-82053180D01*
X129252742Y-82100800D01*
X129681314Y-83053180D02*
X129681314Y-82053180D01*
X129919409Y-82053180D01*
X130062266Y-82100800D01*
X130157504Y-82196038D01*
X130205123Y-82291276D01*
X130252742Y-82481752D01*
X130252742Y-82624609D01*
X130205123Y-82815085D01*
X130157504Y-82910323D01*
X130062266Y-83005561D01*
X129919409Y-83053180D01*
X129681314Y-83053180D01*
X130633695Y-82767466D02*
X131109885Y-82767466D01*
X130538457Y-83053180D02*
X130871790Y-82053180D01*
X131205123Y-83053180D01*
X129082895Y-87180800D02*
X128987657Y-87133180D01*
X128844800Y-87133180D01*
X128701942Y-87180800D01*
X128606704Y-87276038D01*
X128559085Y-87371276D01*
X128511466Y-87561752D01*
X128511466Y-87704609D01*
X128559085Y-87895085D01*
X128606704Y-87990323D01*
X128701942Y-88085561D01*
X128844800Y-88133180D01*
X128940038Y-88133180D01*
X129082895Y-88085561D01*
X129130514Y-88037942D01*
X129130514Y-87704609D01*
X128940038Y-87704609D01*
X129559085Y-88133180D02*
X129559085Y-87133180D01*
X130130514Y-88133180D01*
X130130514Y-87133180D01*
X130606704Y-88133180D02*
X130606704Y-87133180D01*
X130844800Y-87133180D01*
X130987657Y-87180800D01*
X131082895Y-87276038D01*
X131130514Y-87371276D01*
X131178133Y-87561752D01*
X131178133Y-87704609D01*
X131130514Y-87895085D01*
X131082895Y-87990323D01*
X130987657Y-88085561D01*
X130844800Y-88133180D01*
X130606704Y-88133180D01*
X128686085Y-85596361D02*
X128828942Y-85643980D01*
X129067038Y-85643980D01*
X129162276Y-85596361D01*
X129209895Y-85548742D01*
X129257514Y-85453504D01*
X129257514Y-85358266D01*
X129209895Y-85263028D01*
X129162276Y-85215409D01*
X129067038Y-85167790D01*
X128876561Y-85120171D01*
X128781323Y-85072552D01*
X128733704Y-85024933D01*
X128686085Y-84929695D01*
X128686085Y-84834457D01*
X128733704Y-84739219D01*
X128781323Y-84691600D01*
X128876561Y-84643980D01*
X129114657Y-84643980D01*
X129257514Y-84691600D01*
X129686085Y-85643980D02*
X129686085Y-84643980D01*
X129924180Y-84643980D01*
X130067038Y-84691600D01*
X130162276Y-84786838D01*
X130209895Y-84882076D01*
X130257514Y-85072552D01*
X130257514Y-85215409D01*
X130209895Y-85405885D01*
X130162276Y-85501123D01*
X130067038Y-85596361D01*
X129924180Y-85643980D01*
X129686085Y-85643980D01*
X130686085Y-85643980D02*
X130686085Y-84643980D01*
X131257514Y-85643980D02*
X130828942Y-85072552D01*
X131257514Y-84643980D02*
X130686085Y-85215409D01*
X123518942Y-111332971D02*
X123661800Y-111380590D01*
X123709419Y-111428209D01*
X123757038Y-111523447D01*
X123757038Y-111666304D01*
X123709419Y-111761542D01*
X123661800Y-111809161D01*
X123566561Y-111856780D01*
X123185609Y-111856780D01*
X123185609Y-110856780D01*
X123518942Y-110856780D01*
X123614180Y-110904400D01*
X123661800Y-110952019D01*
X123709419Y-111047257D01*
X123709419Y-111142495D01*
X123661800Y-111237733D01*
X123614180Y-111285352D01*
X123518942Y-111332971D01*
X123185609Y-111332971D01*
X124137990Y-111571066D02*
X124614180Y-111571066D01*
X124042752Y-111856780D02*
X124376085Y-110856780D01*
X124709419Y-111856780D01*
X124899895Y-110856780D02*
X125471323Y-110856780D01*
X125185609Y-111856780D02*
X125185609Y-110856780D01*
X127137990Y-111761542D02*
X127090371Y-111809161D01*
X126947514Y-111856780D01*
X126852276Y-111856780D01*
X126709419Y-111809161D01*
X126614180Y-111713923D01*
X126566561Y-111618685D01*
X126518942Y-111428209D01*
X126518942Y-111285352D01*
X126566561Y-111094876D01*
X126614180Y-110999638D01*
X126709419Y-110904400D01*
X126852276Y-110856780D01*
X126947514Y-110856780D01*
X127090371Y-110904400D01*
X127137990Y-110952019D01*
X127566561Y-111856780D02*
X127566561Y-110856780D01*
X127566561Y-111332971D02*
X128137990Y-111332971D01*
X128137990Y-111856780D02*
X128137990Y-110856780D01*
X129137990Y-110904400D02*
X129042752Y-110856780D01*
X128899895Y-110856780D01*
X128757038Y-110904400D01*
X128661800Y-110999638D01*
X128614180Y-111094876D01*
X128566561Y-111285352D01*
X128566561Y-111428209D01*
X128614180Y-111618685D01*
X128661800Y-111713923D01*
X128757038Y-111809161D01*
X128899895Y-111856780D01*
X128995133Y-111856780D01*
X129137990Y-111809161D01*
X129185609Y-111761542D01*
X129185609Y-111428209D01*
X128995133Y-111428209D01*
X109655314Y-111907580D02*
X109655314Y-110907580D01*
X109893409Y-110907580D01*
X110036266Y-110955200D01*
X110131504Y-111050438D01*
X110179123Y-111145676D01*
X110226742Y-111336152D01*
X110226742Y-111479009D01*
X110179123Y-111669485D01*
X110131504Y-111764723D01*
X110036266Y-111859961D01*
X109893409Y-111907580D01*
X109655314Y-111907580D01*
X110988647Y-111383771D02*
X111131504Y-111431390D01*
X111179123Y-111479009D01*
X111226742Y-111574247D01*
X111226742Y-111717104D01*
X111179123Y-111812342D01*
X111131504Y-111859961D01*
X111036266Y-111907580D01*
X110655314Y-111907580D01*
X110655314Y-110907580D01*
X110988647Y-110907580D01*
X111083885Y-110955200D01*
X111131504Y-111002819D01*
X111179123Y-111098057D01*
X111179123Y-111193295D01*
X111131504Y-111288533D01*
X111083885Y-111336152D01*
X110988647Y-111383771D01*
X110655314Y-111383771D01*
X112417219Y-111907580D02*
X112417219Y-110907580D01*
X112798171Y-110907580D01*
X112893409Y-110955200D01*
X112941028Y-111002819D01*
X112988647Y-111098057D01*
X112988647Y-111240914D01*
X112941028Y-111336152D01*
X112893409Y-111383771D01*
X112798171Y-111431390D01*
X112417219Y-111431390D01*
X113321980Y-110907580D02*
X113560076Y-111907580D01*
X113750552Y-111193295D01*
X113941028Y-111907580D01*
X114179123Y-110907580D01*
X115131504Y-111907580D02*
X114798171Y-111431390D01*
X114560076Y-111907580D02*
X114560076Y-110907580D01*
X114941028Y-110907580D01*
X115036266Y-110955200D01*
X115083885Y-111002819D01*
X115131504Y-111098057D01*
X115131504Y-111240914D01*
X115083885Y-111336152D01*
X115036266Y-111383771D01*
X114941028Y-111431390D01*
X114560076Y-111431390D01*
X129133695Y-92921200D02*
X129038457Y-92873580D01*
X128895600Y-92873580D01*
X128752742Y-92921200D01*
X128657504Y-93016438D01*
X128609885Y-93111676D01*
X128562266Y-93302152D01*
X128562266Y-93445009D01*
X128609885Y-93635485D01*
X128657504Y-93730723D01*
X128752742Y-93825961D01*
X128895600Y-93873580D01*
X128990838Y-93873580D01*
X129133695Y-93825961D01*
X129181314Y-93778342D01*
X129181314Y-93445009D01*
X128990838Y-93445009D01*
X129609885Y-93873580D02*
X129609885Y-92873580D01*
X130181314Y-93873580D01*
X130181314Y-92873580D01*
X130657504Y-93873580D02*
X130657504Y-92873580D01*
X130895600Y-92873580D01*
X131038457Y-92921200D01*
X131133695Y-93016438D01*
X131181314Y-93111676D01*
X131228933Y-93302152D01*
X131228933Y-93445009D01*
X131181314Y-93635485D01*
X131133695Y-93730723D01*
X131038457Y-93825961D01*
X130895600Y-93873580D01*
X130657504Y-93873580D01*
X106680000Y-110847142D02*
X106727619Y-110894761D01*
X106680000Y-110942380D01*
X106632380Y-110894761D01*
X106680000Y-110847142D01*
X106680000Y-110942380D01*
X118668895Y-110932980D02*
X118668895Y-111742504D01*
X118716514Y-111837742D01*
X118764133Y-111885361D01*
X118859371Y-111932980D01*
X119049847Y-111932980D01*
X119145085Y-111885361D01*
X119192704Y-111837742D01*
X119240323Y-111742504D01*
X119240323Y-110932980D01*
X120240323Y-111932980D02*
X119668895Y-111932980D01*
X119954609Y-111932980D02*
X119954609Y-110932980D01*
X119859371Y-111075838D01*
X119764133Y-111171076D01*
X119668895Y-111218695D01*
X134820066Y-79995780D02*
X134820066Y-80710066D01*
X134772447Y-80852923D01*
X134677209Y-80948161D01*
X134534352Y-80995780D01*
X134439114Y-80995780D01*
X135201019Y-79995780D02*
X135820066Y-79995780D01*
X135486733Y-80376733D01*
X135629590Y-80376733D01*
X135724828Y-80424352D01*
X135772447Y-80471971D01*
X135820066Y-80567209D01*
X135820066Y-80805304D01*
X135772447Y-80900542D01*
X135724828Y-80948161D01*
X135629590Y-80995780D01*
X135343876Y-80995780D01*
X135248638Y-80948161D01*
X135201019Y-80900542D01*
X134743866Y-90638380D02*
X134743866Y-91352666D01*
X134696247Y-91495523D01*
X134601009Y-91590761D01*
X134458152Y-91638380D01*
X134362914Y-91638380D01*
X135743866Y-91638380D02*
X135172438Y-91638380D01*
X135458152Y-91638380D02*
X135458152Y-90638380D01*
X135362914Y-90781238D01*
X135267676Y-90876476D01*
X135172438Y-90924095D01*
X107732533Y-89301580D02*
X107399200Y-88825390D01*
X107161104Y-89301580D02*
X107161104Y-88301580D01*
X107542057Y-88301580D01*
X107637295Y-88349200D01*
X107684914Y-88396819D01*
X107732533Y-88492057D01*
X107732533Y-88634914D01*
X107684914Y-88730152D01*
X107637295Y-88777771D01*
X107542057Y-88825390D01*
X107161104Y-88825390D01*
X108113485Y-88396819D02*
X108161104Y-88349200D01*
X108256342Y-88301580D01*
X108494438Y-88301580D01*
X108589676Y-88349200D01*
X108637295Y-88396819D01*
X108684914Y-88492057D01*
X108684914Y-88587295D01*
X108637295Y-88730152D01*
X108065866Y-89301580D01*
X108684914Y-89301580D01*
X102766904Y-78557380D02*
X102766904Y-77557380D01*
X103005000Y-77557380D01*
X103147857Y-77605000D01*
X103243095Y-77700238D01*
X103290714Y-77795476D01*
X103338333Y-77985952D01*
X103338333Y-78128809D01*
X103290714Y-78319285D01*
X103243095Y-78414523D01*
X103147857Y-78509761D01*
X103005000Y-78557380D01*
X102766904Y-78557380D01*
X104290714Y-78557380D02*
X103719285Y-78557380D01*
X104005000Y-78557380D02*
X104005000Y-77557380D01*
X103909761Y-77700238D01*
X103814523Y-77795476D01*
X103719285Y-77843095D01*
X104390866Y-110755180D02*
X104390866Y-111469466D01*
X104343247Y-111612323D01*
X104248009Y-111707561D01*
X104105152Y-111755180D01*
X104009914Y-111755180D01*
X104819438Y-110850419D02*
X104867057Y-110802800D01*
X104962295Y-110755180D01*
X105200390Y-110755180D01*
X105295628Y-110802800D01*
X105343247Y-110850419D01*
X105390866Y-110945657D01*
X105390866Y-111040895D01*
X105343247Y-111183752D01*
X104771819Y-111755180D01*
X105390866Y-111755180D01*
X134135904Y-99969580D02*
X134135904Y-98969580D01*
X134516857Y-98969580D01*
X134612095Y-99017200D01*
X134659714Y-99064819D01*
X134707333Y-99160057D01*
X134707333Y-99302914D01*
X134659714Y-99398152D01*
X134612095Y-99445771D01*
X134516857Y-99493390D01*
X134135904Y-99493390D01*
X135659714Y-99969580D02*
X135088285Y-99969580D01*
X135374000Y-99969580D02*
X135374000Y-98969580D01*
X135278761Y-99112438D01*
X135183523Y-99207676D01*
X135088285Y-99255295D01*
X121978847Y-87964971D02*
X122121704Y-88012590D01*
X122169323Y-88060209D01*
X122216942Y-88155447D01*
X122216942Y-88298304D01*
X122169323Y-88393542D01*
X122121704Y-88441161D01*
X122026466Y-88488780D01*
X121645514Y-88488780D01*
X121645514Y-87488780D01*
X121978847Y-87488780D01*
X122074085Y-87536400D01*
X122121704Y-87584019D01*
X122169323Y-87679257D01*
X122169323Y-87774495D01*
X122121704Y-87869733D01*
X122074085Y-87917352D01*
X121978847Y-87964971D01*
X121645514Y-87964971D01*
X122550276Y-87488780D02*
X123216942Y-87488780D01*
X122550276Y-88488780D01*
X123216942Y-88488780D01*
X124121704Y-88488780D02*
X123550276Y-88488780D01*
X123835990Y-88488780D02*
X123835990Y-87488780D01*
X123740752Y-87631638D01*
X123645514Y-87726876D01*
X123550276Y-87774495D01*
X126080514Y-99075209D02*
X126080514Y-98587590D01*
X119730514Y-99075209D02*
X119730514Y-98587590D01*
X119974323Y-98831400D02*
X119486704Y-98831400D01*
X114209533Y-89377780D02*
X113876200Y-88901590D01*
X113638104Y-89377780D02*
X113638104Y-88377780D01*
X114019057Y-88377780D01*
X114114295Y-88425400D01*
X114161914Y-88473019D01*
X114209533Y-88568257D01*
X114209533Y-88711114D01*
X114161914Y-88806352D01*
X114114295Y-88853971D01*
X114019057Y-88901590D01*
X113638104Y-88901590D01*
X114542866Y-88377780D02*
X115161914Y-88377780D01*
X114828580Y-88758733D01*
X114971438Y-88758733D01*
X115066676Y-88806352D01*
X115114295Y-88853971D01*
X115161914Y-88949209D01*
X115161914Y-89187304D01*
X115114295Y-89282542D01*
X115066676Y-89330161D01*
X114971438Y-89377780D01*
X114685723Y-89377780D01*
X114590485Y-89330161D01*
X114542866Y-89282542D01*
X101509533Y-89377780D02*
X101176200Y-88901590D01*
X100938104Y-89377780D02*
X100938104Y-88377780D01*
X101319057Y-88377780D01*
X101414295Y-88425400D01*
X101461914Y-88473019D01*
X101509533Y-88568257D01*
X101509533Y-88711114D01*
X101461914Y-88806352D01*
X101414295Y-88853971D01*
X101319057Y-88901590D01*
X100938104Y-88901590D01*
X102461914Y-89377780D02*
X101890485Y-89377780D01*
X102176200Y-89377780D02*
X102176200Y-88377780D01*
X102080961Y-88520638D01*
X101985723Y-88615876D01*
X101890485Y-88663495D01*
X107211904Y-78557380D02*
X107211904Y-77557380D01*
X107450000Y-77557380D01*
X107592857Y-77605000D01*
X107688095Y-77700238D01*
X107735714Y-77795476D01*
X107783333Y-77985952D01*
X107783333Y-78128809D01*
X107735714Y-78319285D01*
X107688095Y-78414523D01*
X107592857Y-78509761D01*
X107450000Y-78557380D01*
X107211904Y-78557380D01*
X108164285Y-77652619D02*
X108211904Y-77605000D01*
X108307142Y-77557380D01*
X108545238Y-77557380D01*
X108640476Y-77605000D01*
X108688095Y-77652619D01*
X108735714Y-77747857D01*
X108735714Y-77843095D01*
X108688095Y-77985952D01*
X108116666Y-78557380D01*
X108735714Y-78557380D01*
X113561904Y-78557380D02*
X113561904Y-77557380D01*
X113800000Y-77557380D01*
X113942857Y-77605000D01*
X114038095Y-77700238D01*
X114085714Y-77795476D01*
X114133333Y-77985952D01*
X114133333Y-78128809D01*
X114085714Y-78319285D01*
X114038095Y-78414523D01*
X113942857Y-78509761D01*
X113800000Y-78557380D01*
X113561904Y-78557380D01*
X114466666Y-77557380D02*
X115085714Y-77557380D01*
X114752380Y-77938333D01*
X114895238Y-77938333D01*
X114990476Y-77985952D01*
X115038095Y-78033571D01*
X115085714Y-78128809D01*
X115085714Y-78366904D01*
X115038095Y-78462142D01*
X114990476Y-78509761D01*
X114895238Y-78557380D01*
X114609523Y-78557380D01*
X114514285Y-78509761D01*
X114466666Y-78462142D01*
D11*
X114509400Y-116287400D02*
X112109400Y-116287400D01*
X112109400Y-116287400D02*
X112109400Y-113887400D01*
X112109400Y-113887400D02*
X114509400Y-113887400D01*
X114509400Y-113887400D02*
X114509400Y-116287400D01*
X111004200Y-116287400D02*
X108604200Y-116287400D01*
X108604200Y-116287400D02*
X108604200Y-113887400D01*
X108604200Y-113887400D02*
X111004200Y-113887400D01*
X111004200Y-113887400D02*
X111004200Y-116287400D01*
X107499000Y-116262000D02*
X105099000Y-116262000D01*
X105099000Y-116262000D02*
X105099000Y-113862000D01*
X105099000Y-113862000D02*
X107499000Y-113862000D01*
X107499000Y-113862000D02*
X107499000Y-116262000D01*
X124864017Y-110648750D02*
X129159000Y-110648750D01*
X120114016Y-110648750D02*
X123395985Y-110648750D01*
X115364016Y-110648750D02*
X118645984Y-110648750D01*
X109601000Y-99155250D02*
X109601000Y-110648750D01*
X129159000Y-110648750D02*
X129159000Y-99155250D01*
X129159000Y-99155250D02*
X109601000Y-99155250D01*
X109601000Y-110648750D02*
X113895984Y-110648750D01*
G36*
X119677228Y-76016568D02*
G01*
X119772176Y-76277778D01*
X117862927Y-76277778D01*
X117862927Y-78297450D01*
X117862987Y-78575055D01*
X117863168Y-78834631D01*
X117863466Y-79075953D01*
X117863883Y-79298797D01*
X117864415Y-79502938D01*
X117865063Y-79688152D01*
X117865826Y-79854215D01*
X117866701Y-80000902D01*
X117867688Y-80127989D01*
X117868785Y-80235251D01*
X117869992Y-80322465D01*
X117871308Y-80389405D01*
X117872731Y-80435848D01*
X117873911Y-80457651D01*
X117902206Y-80711378D01*
X117947024Y-80954380D01*
X118009256Y-81189800D01*
X118089795Y-81420783D01*
X118189531Y-81650475D01*
X118242816Y-81757951D01*
X118338480Y-81933769D01*
X118439494Y-82098980D01*
X118548488Y-82257119D01*
X118668089Y-82411723D01*
X118800926Y-82566326D01*
X118949627Y-82724466D01*
X118996461Y-82771861D01*
X119237069Y-82998162D01*
X119492188Y-83209542D01*
X119761915Y-83406072D01*
X120046347Y-83587821D01*
X120345583Y-83754859D01*
X120438452Y-83802210D01*
X120514573Y-83839658D01*
X120574079Y-83867634D01*
X120618612Y-83886830D01*
X120649815Y-83897938D01*
X120669330Y-83901649D01*
X120673793Y-83901311D01*
X120698611Y-83893840D01*
X120739539Y-83878484D01*
X120793867Y-83856441D01*
X120858887Y-83828910D01*
X120931889Y-83797091D01*
X121010165Y-83762181D01*
X121091006Y-83725382D01*
X121171702Y-83687890D01*
X121249545Y-83650907D01*
X121321825Y-83615629D01*
X121342236Y-83605450D01*
X121500143Y-83523548D01*
X121639165Y-83445578D01*
X121760735Y-83370589D01*
X121866288Y-83297632D01*
X121957255Y-83225756D01*
X122035072Y-83154011D01*
X122056494Y-83131918D01*
X122097940Y-83084054D01*
X122133238Y-83035767D01*
X122159860Y-82991108D01*
X122175280Y-82954132D01*
X122178106Y-82936875D01*
X122179086Y-82927122D01*
X122182417Y-82926129D01*
X122188684Y-82935304D01*
X122198471Y-82956051D01*
X122212364Y-82989778D01*
X122230946Y-83037891D01*
X122254804Y-83101796D01*
X122284522Y-83182901D01*
X122312663Y-83260435D01*
X122429142Y-83582252D01*
X122398563Y-83626696D01*
X122347658Y-83688469D01*
X122277007Y-83754844D01*
X122187171Y-83825499D01*
X122078712Y-83900113D01*
X121952194Y-83978365D01*
X121808179Y-84059933D01*
X121647227Y-84144496D01*
X121469902Y-84231734D01*
X121276766Y-84321325D01*
X121068382Y-84412947D01*
X120894582Y-84486043D01*
X120831974Y-84511663D01*
X120775532Y-84534334D01*
X120728222Y-84552900D01*
X120693011Y-84566204D01*
X120672864Y-84573089D01*
X120669606Y-84573788D01*
X120656477Y-84569513D01*
X120627847Y-84557663D01*
X120587056Y-84539704D01*
X120537444Y-84517100D01*
X120493579Y-84496622D01*
X120158632Y-84329502D01*
X119839398Y-84151574D01*
X119536441Y-83963231D01*
X119250326Y-83764863D01*
X118981619Y-83556864D01*
X118730884Y-83339625D01*
X118498686Y-83113538D01*
X118494331Y-83109029D01*
X118296828Y-82891736D01*
X118115010Y-82666018D01*
X117949467Y-82433035D01*
X117800790Y-82193949D01*
X117669571Y-81949922D01*
X117556401Y-81702114D01*
X117461871Y-81451688D01*
X117386573Y-81199805D01*
X117331096Y-80947627D01*
X117304293Y-80770891D01*
X117302518Y-80754529D01*
X117300876Y-80734881D01*
X117299362Y-80711135D01*
X117297972Y-80682484D01*
X117296700Y-80648117D01*
X117295541Y-80607227D01*
X117294490Y-80559002D01*
X117293542Y-80502634D01*
X117292692Y-80437314D01*
X117291936Y-80362233D01*
X117291267Y-80276580D01*
X117290681Y-80179547D01*
X117290173Y-80070325D01*
X117289738Y-79948104D01*
X117289370Y-79812074D01*
X117289066Y-79661428D01*
X117288819Y-79495354D01*
X117288625Y-79313045D01*
X117288478Y-79113690D01*
X117288374Y-78896480D01*
X117288308Y-78660607D01*
X117288274Y-78405260D01*
X117288267Y-78197979D01*
X117288267Y-75755359D01*
X119582280Y-75755359D01*
X119677228Y-76016568D01*
G37*
G36*
X120913853Y-80969098D02*
G01*
X120454124Y-80969098D01*
X120454124Y-82400526D01*
X120360089Y-82400526D01*
X120360089Y-80969098D01*
X119910809Y-80969098D01*
X119910809Y-80885511D01*
X120913853Y-80885511D01*
X120913853Y-80969098D01*
G37*
G36*
X122021380Y-80969098D02*
G01*
X121206407Y-80969098D01*
X121206407Y-81564656D01*
X121822861Y-81564656D01*
X121822861Y-81648243D01*
X121206407Y-81648243D01*
X121206407Y-82316939D01*
X122063174Y-82316939D01*
X122063174Y-82400526D01*
X121112372Y-82400526D01*
X121112372Y-80885511D01*
X122021380Y-80885511D01*
X122021380Y-80969098D01*
G37*
G36*
X122417423Y-81650704D02*
G01*
X122421981Y-81637794D01*
X122685739Y-80890735D01*
X122796392Y-80890735D01*
X123061666Y-81643018D01*
X123103937Y-81762918D01*
X123144136Y-81876988D01*
X123181729Y-81983709D01*
X123216182Y-82081567D01*
X123246963Y-82169044D01*
X123273537Y-82244624D01*
X123295371Y-82306789D01*
X123311932Y-82354024D01*
X123322687Y-82384811D01*
X123327102Y-82397634D01*
X123327184Y-82397914D01*
X123317953Y-82399432D01*
X123294182Y-82400374D01*
X123277464Y-82400526D01*
X123227501Y-82400526D01*
X123079001Y-81977366D01*
X122403737Y-81977366D01*
X122330046Y-82186334D01*
X122256356Y-82395301D01*
X122206783Y-82398486D01*
X122178041Y-82398759D01*
X122160407Y-82395886D01*
X122157716Y-82393262D01*
X122161194Y-82382295D01*
X122171104Y-82353165D01*
X122186909Y-82307409D01*
X122208070Y-82246565D01*
X122234051Y-82172168D01*
X122264313Y-82085756D01*
X122298319Y-81988867D01*
X122335531Y-81883037D01*
X122336347Y-81880719D01*
X122439134Y-81880719D01*
X122449092Y-81882491D01*
X122476770Y-81884073D01*
X122519001Y-81885448D01*
X122572617Y-81886601D01*
X122634451Y-81887514D01*
X122701337Y-81888172D01*
X122770107Y-81888557D01*
X122837594Y-81888653D01*
X122900631Y-81888443D01*
X122956051Y-81887912D01*
X123000687Y-81887043D01*
X123031373Y-81885819D01*
X123044940Y-81884224D01*
X123045321Y-81883873D01*
X123041978Y-81872853D01*
X123032528Y-81844608D01*
X123017836Y-81801612D01*
X122998771Y-81746338D01*
X122976199Y-81681260D01*
X122950987Y-81608850D01*
X122924003Y-81531584D01*
X122896114Y-81451934D01*
X122868186Y-81372373D01*
X122841087Y-81295376D01*
X122815683Y-81223415D01*
X122792842Y-81158965D01*
X122773430Y-81104498D01*
X122758316Y-81062489D01*
X122748365Y-81035410D01*
X122744573Y-81025903D01*
X122740159Y-81033359D01*
X122729780Y-81058160D01*
X122714294Y-81097904D01*
X122694560Y-81150186D01*
X122671437Y-81212601D01*
X122645785Y-81282745D01*
X122618462Y-81358213D01*
X122590328Y-81436602D01*
X122562242Y-81515507D01*
X122535063Y-81592524D01*
X122509650Y-81665248D01*
X122486862Y-81731274D01*
X122467558Y-81788200D01*
X122452598Y-81833619D01*
X122442840Y-81865129D01*
X122439143Y-81880324D01*
X122439134Y-81880719D01*
X122336347Y-81880719D01*
X122375412Y-81769804D01*
X122417423Y-81650704D01*
G37*
G36*
X123891710Y-81564835D02*
G01*
X123935721Y-81677843D01*
X123977508Y-81784893D01*
X124016460Y-81884430D01*
X124051963Y-81974902D01*
X124083405Y-82054756D01*
X124110174Y-82122438D01*
X124131658Y-82176395D01*
X124147243Y-82215075D01*
X124156318Y-82236923D01*
X124158471Y-82241368D01*
X124162427Y-82231633D01*
X124173223Y-82204343D01*
X124190111Y-82161414D01*
X124212344Y-82104760D01*
X124239173Y-82036298D01*
X124269850Y-81957941D01*
X124303628Y-81871606D01*
X124339757Y-81779207D01*
X124377490Y-81682661D01*
X124416078Y-81583882D01*
X124454774Y-81484785D01*
X124492828Y-81387285D01*
X124529494Y-81293299D01*
X124564023Y-81204741D01*
X124595667Y-81123526D01*
X124623678Y-81051569D01*
X124647306Y-80990787D01*
X124665806Y-80943094D01*
X124678427Y-80910405D01*
X124680961Y-80903796D01*
X124690220Y-80892588D01*
X124710287Y-80886981D01*
X124744300Y-80885511D01*
X124800648Y-80885511D01*
X124800648Y-82400526D01*
X124706613Y-82400526D01*
X124706302Y-81744890D01*
X124705991Y-81089255D01*
X124451320Y-81742278D01*
X124196648Y-82395301D01*
X124119498Y-82395301D01*
X123864827Y-81742278D01*
X123610155Y-81089255D01*
X123609844Y-81744890D01*
X123609533Y-82400526D01*
X123515498Y-82400526D01*
X123515498Y-80885511D01*
X123627447Y-80885511D01*
X123891710Y-81564835D01*
G37*
G36*
X123142343Y-78714410D02*
G01*
X123202461Y-78721483D01*
X123212495Y-78723589D01*
X123298568Y-78753524D01*
X123381347Y-78801655D01*
X123457368Y-78865285D01*
X123523165Y-78941712D01*
X123555063Y-78990472D01*
X123582170Y-79037919D01*
X123598604Y-79071062D01*
X123604841Y-79093272D01*
X123601356Y-79107920D01*
X123588624Y-79118376D01*
X123574071Y-79125171D01*
X123548131Y-79135049D01*
X123530773Y-79139926D01*
X123528894Y-79140045D01*
X123520770Y-79131009D01*
X123506838Y-79107688D01*
X123489900Y-79074837D01*
X123487338Y-79069518D01*
X123434618Y-78981130D01*
X123368531Y-78908556D01*
X123289507Y-78852243D01*
X123267307Y-78840524D01*
X123228430Y-78821946D01*
X123198385Y-78810389D01*
X123169705Y-78804241D01*
X123134927Y-78801888D01*
X123087657Y-78801711D01*
X123012511Y-78805377D01*
X122951030Y-78816933D01*
X122897356Y-78838860D01*
X122845629Y-78873636D01*
X122789991Y-78923742D01*
X122783033Y-78930642D01*
X122721783Y-78999927D01*
X122673797Y-79073709D01*
X122636278Y-79157184D01*
X122606429Y-79255547D01*
X122605023Y-79261211D01*
X122589245Y-79350030D01*
X122581556Y-79450008D01*
X122581960Y-79553301D01*
X122590466Y-79652065D01*
X122604615Y-79728826D01*
X122641200Y-79844129D01*
X122690259Y-79944230D01*
X122751261Y-80028377D01*
X122823672Y-80095819D01*
X122896542Y-80140816D01*
X122935599Y-80159444D01*
X122965966Y-80171048D01*
X122995171Y-80177281D01*
X123030739Y-80179796D01*
X123076124Y-80180246D01*
X123125433Y-80179582D01*
X123161298Y-80176611D01*
X123191154Y-80169862D01*
X123222439Y-80157864D01*
X123247467Y-80146363D01*
X123328658Y-80096492D01*
X123399463Y-80029244D01*
X123459177Y-79945759D01*
X123507094Y-79847181D01*
X123542508Y-79734650D01*
X123560765Y-79639542D01*
X123566426Y-79600361D01*
X123149805Y-79600361D01*
X123149805Y-79516774D01*
X123664474Y-79516774D01*
X123657305Y-79602973D01*
X123637841Y-79739893D01*
X123603473Y-79863112D01*
X123554395Y-79972222D01*
X123490803Y-80066814D01*
X123412892Y-80146480D01*
X123388013Y-80166454D01*
X123327695Y-80207812D01*
X123270236Y-80236166D01*
X123208991Y-80253768D01*
X123137313Y-80262869D01*
X123097563Y-80264869D01*
X123020010Y-80264834D01*
X122960689Y-80259140D01*
X122937575Y-80254002D01*
X122840389Y-80215458D01*
X122752637Y-80159106D01*
X122675305Y-80086251D01*
X122609379Y-79998201D01*
X122555847Y-79896260D01*
X122515695Y-79781733D01*
X122490889Y-79662794D01*
X122483801Y-79586665D01*
X122482216Y-79499360D01*
X122485783Y-79408244D01*
X122494154Y-79320685D01*
X122506980Y-79244051D01*
X122511663Y-79224220D01*
X122550544Y-79105779D01*
X122602984Y-79001955D01*
X122670211Y-78910494D01*
X122700249Y-78878147D01*
X122764811Y-78818948D01*
X122827485Y-78775614D01*
X122894118Y-78744597D01*
X122948081Y-78727835D01*
X123005668Y-78717738D01*
X123073584Y-78713213D01*
X123142343Y-78714410D01*
G37*
G36*
X131689114Y-78714410D02*
G01*
X131749232Y-78721483D01*
X131759266Y-78723589D01*
X131845339Y-78753524D01*
X131928118Y-78801655D01*
X132004139Y-78865285D01*
X132069936Y-78941712D01*
X132101833Y-78990472D01*
X132128941Y-79037919D01*
X132145375Y-79071062D01*
X132151611Y-79093272D01*
X132148126Y-79107920D01*
X132135395Y-79118376D01*
X132120842Y-79125171D01*
X132094901Y-79135049D01*
X132077544Y-79139926D01*
X132075665Y-79140045D01*
X132067541Y-79131009D01*
X132053609Y-79107688D01*
X132036670Y-79074837D01*
X132034109Y-79069518D01*
X131981388Y-78981130D01*
X131915302Y-78908556D01*
X131836278Y-78852243D01*
X131814077Y-78840524D01*
X131775201Y-78821946D01*
X131745155Y-78810389D01*
X131716476Y-78804241D01*
X131681698Y-78801888D01*
X131634427Y-78801711D01*
X131559281Y-78805377D01*
X131497801Y-78816933D01*
X131444127Y-78838860D01*
X131392400Y-78873636D01*
X131336761Y-78923742D01*
X131329804Y-78930642D01*
X131268553Y-78999927D01*
X131220567Y-79073709D01*
X131183049Y-79157184D01*
X131153199Y-79255547D01*
X131151794Y-79261211D01*
X131136016Y-79350030D01*
X131128327Y-79450008D01*
X131128731Y-79553301D01*
X131137237Y-79652065D01*
X131151386Y-79728826D01*
X131187970Y-79844129D01*
X131237030Y-79944230D01*
X131298032Y-80028377D01*
X131370443Y-80095819D01*
X131443312Y-80140816D01*
X131482370Y-80159444D01*
X131512737Y-80171048D01*
X131541942Y-80177281D01*
X131577510Y-80179796D01*
X131622895Y-80180246D01*
X131672204Y-80179582D01*
X131708069Y-80176611D01*
X131737925Y-80169862D01*
X131769209Y-80157864D01*
X131794238Y-80146363D01*
X131875428Y-80096492D01*
X131946234Y-80029244D01*
X132005948Y-79945759D01*
X132053865Y-79847181D01*
X132089279Y-79734650D01*
X132107536Y-79639542D01*
X132113197Y-79600361D01*
X131696576Y-79600361D01*
X131696576Y-79516774D01*
X132211245Y-79516774D01*
X132204075Y-79602973D01*
X132184612Y-79739893D01*
X132150244Y-79863112D01*
X132101166Y-79972222D01*
X132037574Y-80066814D01*
X131959662Y-80146480D01*
X131934784Y-80166454D01*
X131874466Y-80207812D01*
X131817007Y-80236166D01*
X131755762Y-80253768D01*
X131684083Y-80262869D01*
X131644334Y-80264869D01*
X131566781Y-80264834D01*
X131507460Y-80259140D01*
X131484346Y-80254002D01*
X131387160Y-80215458D01*
X131299408Y-80159106D01*
X131222076Y-80086251D01*
X131156150Y-79998201D01*
X131102618Y-79896260D01*
X131062466Y-79781733D01*
X131037660Y-79662794D01*
X131030572Y-79586665D01*
X131028986Y-79499360D01*
X131032554Y-79408244D01*
X131040925Y-79320685D01*
X131053751Y-79244051D01*
X131058434Y-79224220D01*
X131097315Y-79105779D01*
X131149755Y-79001955D01*
X131216982Y-78910494D01*
X131247020Y-78878147D01*
X131311582Y-78818948D01*
X131374255Y-78775614D01*
X131440889Y-78744597D01*
X131494852Y-78727835D01*
X131552439Y-78717738D01*
X131620355Y-78713213D01*
X131689114Y-78714410D01*
G37*
G36*
X120924301Y-78816733D02*
G01*
X120109328Y-78816733D01*
X120109328Y-79412290D01*
X120725782Y-79412290D01*
X120725782Y-79495877D01*
X120109328Y-79495877D01*
X120109328Y-80164573D01*
X120966095Y-80164573D01*
X120966095Y-80248160D01*
X120015292Y-80248160D01*
X120015292Y-78733146D01*
X120924301Y-78733146D01*
X120924301Y-78816733D01*
G37*
G36*
X121284226Y-78738370D02*
G01*
X121712881Y-79411700D01*
X122141537Y-80085030D01*
X122146913Y-78733146D01*
X122240796Y-78733146D01*
X122240796Y-80248160D01*
X122137776Y-80248160D01*
X121274322Y-78891272D01*
X121268946Y-80248160D01*
X121175062Y-80248160D01*
X121175062Y-78732054D01*
X121284226Y-78738370D01*
G37*
G36*
X123996123Y-80248160D02*
G01*
X123902088Y-80248160D01*
X123902088Y-78733146D01*
X123996123Y-78733146D01*
X123996123Y-80248160D01*
G37*
G36*
X124429187Y-78738370D02*
G01*
X124857842Y-79411700D01*
X125286498Y-80085030D01*
X125291874Y-78733146D01*
X125385757Y-78733146D01*
X125385757Y-80248160D01*
X125282737Y-80248160D01*
X124419283Y-78891272D01*
X124413907Y-80248160D01*
X124320023Y-80248160D01*
X124320023Y-78732054D01*
X124429187Y-78738370D01*
G37*
G36*
X126608217Y-78816733D02*
G01*
X125793244Y-78816733D01*
X125793244Y-79412290D01*
X126409698Y-79412290D01*
X126409698Y-79495877D01*
X125793244Y-79495877D01*
X125793244Y-80164573D01*
X126650011Y-80164573D01*
X126650011Y-80248160D01*
X125699208Y-80248160D01*
X125699208Y-78733146D01*
X126608217Y-78733146D01*
X126608217Y-78816733D01*
G37*
G36*
X127767987Y-78816733D02*
G01*
X126953014Y-78816733D01*
X126953014Y-79412290D01*
X127569468Y-79412290D01*
X127569468Y-79495877D01*
X126953014Y-79495877D01*
X126953014Y-80164573D01*
X127809780Y-80164573D01*
X127809780Y-80248160D01*
X126858978Y-80248160D01*
X126858978Y-78733146D01*
X127767987Y-78733146D01*
X127767987Y-78816733D01*
G37*
G36*
X128397755Y-78735260D02*
G01*
X128766313Y-78738370D01*
X128835462Y-78772429D01*
X128902592Y-78813789D01*
X128956799Y-78866723D01*
X129001675Y-78935012D01*
X129015124Y-78961721D01*
X129029429Y-78993266D01*
X129038836Y-79019673D01*
X129044365Y-79046838D01*
X129047035Y-79080659D01*
X129047867Y-79127033D01*
X129047913Y-79151316D01*
X129047579Y-79204291D01*
X129045884Y-79242194D01*
X129041784Y-79270848D01*
X129034238Y-79296073D01*
X129022202Y-79323694D01*
X129014047Y-79340484D01*
X128966102Y-79415762D01*
X128903866Y-79478686D01*
X128830574Y-79526887D01*
X128749460Y-79557995D01*
X128705243Y-79566633D01*
X128647560Y-79574240D01*
X128798881Y-79819777D01*
X128842156Y-79889980D01*
X128885084Y-79959588D01*
X128925474Y-80025052D01*
X128961135Y-80082822D01*
X128989877Y-80129348D01*
X129007146Y-80157266D01*
X129064091Y-80249218D01*
X128946387Y-80242936D01*
X128740450Y-79908588D01*
X128534514Y-79574240D01*
X128123232Y-79568574D01*
X128123232Y-80248160D01*
X128029196Y-80248160D01*
X128029196Y-79486590D01*
X128123232Y-79486590D01*
X128428847Y-79483397D01*
X128734461Y-79480205D01*
X128787954Y-79451985D01*
X128841700Y-79416341D01*
X128884613Y-79370150D01*
X128920962Y-79308641D01*
X128926316Y-79297358D01*
X128940556Y-79262263D01*
X128948723Y-79228409D01*
X128952305Y-79187606D01*
X128952880Y-79151081D01*
X128951597Y-79100698D01*
X128946755Y-79062919D01*
X128936868Y-79029556D01*
X128926316Y-79004804D01*
X128890606Y-78940475D01*
X128848997Y-78892209D01*
X128797222Y-78855234D01*
X128787954Y-78850176D01*
X128734461Y-78821957D01*
X128428847Y-78818765D01*
X128123232Y-78815572D01*
X128123232Y-79486590D01*
X128029196Y-79486590D01*
X128029196Y-78732150D01*
X128397755Y-78735260D01*
G37*
G36*
X129387485Y-80248160D02*
G01*
X129293450Y-80248160D01*
X129293450Y-78733146D01*
X129387485Y-78733146D01*
X129387485Y-80248160D01*
G37*
G36*
X129765966Y-78735212D02*
G01*
X129820548Y-78738370D01*
X130249204Y-79411700D01*
X130677859Y-80085030D01*
X130680548Y-79409088D01*
X130683236Y-78733146D01*
X130777119Y-78733146D01*
X130777119Y-80248160D01*
X130674098Y-80248160D01*
X129810644Y-78891272D01*
X129807956Y-79569716D01*
X129805269Y-80248160D01*
X129711385Y-80248160D01*
X129711385Y-78732054D01*
X129765966Y-78735212D01*
G37*
G36*
X120521205Y-76579026D02*
G01*
X120620449Y-76603424D01*
X120710484Y-76642432D01*
X120788607Y-76694801D01*
X120852114Y-76759285D01*
X120866406Y-76778613D01*
X120897322Y-76823292D01*
X120861182Y-76853127D01*
X120825041Y-76882963D01*
X120804793Y-76854640D01*
X120740323Y-76781784D01*
X120663463Y-76724382D01*
X120576949Y-76683470D01*
X120483517Y-76660086D01*
X120385902Y-76655264D01*
X120305749Y-76665655D01*
X120223466Y-76690985D01*
X120157754Y-76728358D01*
X120108994Y-76777356D01*
X120077571Y-76837559D01*
X120063865Y-76908549D01*
X120063258Y-76930801D01*
X120066262Y-76981358D01*
X120075805Y-77025282D01*
X120093675Y-77064208D01*
X120121658Y-77099770D01*
X120161541Y-77133601D01*
X120215113Y-77167336D01*
X120284158Y-77202609D01*
X120370466Y-77241054D01*
X120429326Y-77265526D01*
X120537437Y-77312034D01*
X120627299Y-77356114D01*
X120701214Y-77399117D01*
X120761485Y-77442398D01*
X120810413Y-77487307D01*
X120814749Y-77491916D01*
X120857859Y-77545328D01*
X120885422Y-77598428D01*
X120899492Y-77657197D01*
X120902121Y-77727612D01*
X120901414Y-77744386D01*
X120888707Y-77832516D01*
X120859945Y-77908473D01*
X120814140Y-77974567D01*
X120793611Y-77996076D01*
X120736834Y-78040739D01*
X120667271Y-78079241D01*
X120592932Y-78107471D01*
X120560706Y-78115594D01*
X120510325Y-78122531D01*
X120449431Y-78125638D01*
X120385573Y-78125016D01*
X120326300Y-78120765D01*
X120279161Y-78112985D01*
X120274547Y-78111784D01*
X120192432Y-78081789D01*
X120120941Y-78038542D01*
X120061770Y-77986713D01*
X120026867Y-77948496D01*
X119994413Y-77907172D01*
X119967450Y-77867246D01*
X119949017Y-77833220D01*
X119942154Y-77809599D01*
X119942154Y-77809525D01*
X119950026Y-77798696D01*
X119968877Y-77784316D01*
X119991563Y-77770748D01*
X120010939Y-77762358D01*
X120019322Y-77762380D01*
X120025748Y-77773315D01*
X120038433Y-77797300D01*
X120051244Y-77822439D01*
X120098040Y-77893267D01*
X120161046Y-77954306D01*
X120236524Y-78001996D01*
X120243060Y-78005162D01*
X120275559Y-78019906D01*
X120302415Y-78029444D01*
X120329808Y-78034856D01*
X120363922Y-78037225D01*
X120410936Y-78037634D01*
X120428003Y-78037539D01*
X120486461Y-78036196D01*
X120530280Y-78032535D01*
X120565668Y-78025711D01*
X120598830Y-78014878D01*
X120601230Y-78013947D01*
X120674704Y-77975224D01*
X120732705Y-77923343D01*
X120774137Y-77859867D01*
X120797907Y-77786356D01*
X120803485Y-77725490D01*
X120798716Y-77668770D01*
X120783200Y-77617580D01*
X120755504Y-77570624D01*
X120714193Y-77526610D01*
X120657834Y-77484245D01*
X120584993Y-77442235D01*
X120494235Y-77399285D01*
X120397611Y-77359373D01*
X120311175Y-77324307D01*
X120241375Y-77293201D01*
X120184794Y-77264144D01*
X120138012Y-77235224D01*
X120097611Y-77204530D01*
X120061383Y-77171348D01*
X120015587Y-77120118D01*
X119985538Y-77070134D01*
X119969081Y-77015567D01*
X119964061Y-76950589D01*
X119965225Y-76911293D01*
X119979081Y-76826300D01*
X120010204Y-76752430D01*
X120057812Y-76690274D01*
X120121124Y-76640425D01*
X120199355Y-76603476D01*
X120291726Y-76580017D01*
X120397453Y-76570641D01*
X120415457Y-76570487D01*
X120521205Y-76579026D01*
G37*
G36*
X124020643Y-76577981D02*
G01*
X124086363Y-76589739D01*
X124123852Y-76601093D01*
X124198391Y-76638325D01*
X124270829Y-76690650D01*
X124334353Y-76752802D01*
X124357721Y-76781899D01*
X124390525Y-76829203D01*
X124418342Y-76874589D01*
X124439196Y-76914322D01*
X124451111Y-76944668D01*
X124452474Y-76961103D01*
X124440106Y-76972118D01*
X124415737Y-76983292D01*
X124410016Y-76985173D01*
X124372361Y-76996730D01*
X124333740Y-76923234D01*
X124278088Y-76835916D01*
X124212218Y-76764766D01*
X124137812Y-76710630D01*
X124056550Y-76674357D01*
X123970113Y-76656795D01*
X123880179Y-76658791D01*
X123829207Y-76668694D01*
X123750765Y-76695829D01*
X123682362Y-76735867D01*
X123617669Y-76792570D01*
X123613375Y-76796992D01*
X123549854Y-76877398D01*
X123499375Y-76971112D01*
X123461920Y-77075129D01*
X123437471Y-77186443D01*
X123426010Y-77302051D01*
X123427520Y-77418946D01*
X123441983Y-77534123D01*
X123469380Y-77644578D01*
X123509695Y-77747304D01*
X123562908Y-77839298D01*
X123619977Y-77908564D01*
X123692613Y-77969129D01*
X123772183Y-78011373D01*
X123856089Y-78035533D01*
X123941735Y-78041845D01*
X124026523Y-78030547D01*
X124107858Y-78001876D01*
X124183142Y-77956068D01*
X124249778Y-77893362D01*
X124284397Y-77847921D01*
X124304787Y-77817422D01*
X124320008Y-77794532D01*
X124326890Y-77784018D01*
X124326952Y-77783915D01*
X124337447Y-77783844D01*
X124358848Y-77790017D01*
X124383291Y-77799495D01*
X124402911Y-77809339D01*
X124409498Y-77814764D01*
X124408550Y-77831245D01*
X124395393Y-77858797D01*
X124372524Y-77893639D01*
X124342438Y-77931992D01*
X124307630Y-77970078D01*
X124305580Y-77972138D01*
X124227614Y-78036174D01*
X124138438Y-78085166D01*
X124063604Y-78111142D01*
X124008533Y-78120862D01*
X123943558Y-78125341D01*
X123876998Y-78124552D01*
X123817173Y-78118467D01*
X123787156Y-78112036D01*
X123688875Y-78073797D01*
X123600522Y-78017603D01*
X123522784Y-77944240D01*
X123456349Y-77854497D01*
X123401904Y-77749160D01*
X123360137Y-77629017D01*
X123357792Y-77620394D01*
X123342335Y-77543266D01*
X123332573Y-77453037D01*
X123328674Y-77356756D01*
X123330810Y-77261477D01*
X123339149Y-77174250D01*
X123346074Y-77134030D01*
X123379836Y-77009732D01*
X123426556Y-76898690D01*
X123485353Y-76801941D01*
X123555344Y-76720527D01*
X123635648Y-76655486D01*
X123725382Y-76607859D01*
X123815757Y-76580264D01*
X123877291Y-76572699D01*
X123948270Y-76572119D01*
X124020643Y-76577981D01*
G37*
G36*
X121502525Y-76591229D02*
G01*
X121605921Y-76591364D01*
X121690865Y-76591991D01*
X121759800Y-76593439D01*
X121815169Y-76596039D01*
X121859417Y-76600121D01*
X121894988Y-76606017D01*
X121924324Y-76614056D01*
X121949869Y-76624569D01*
X121974068Y-76637886D01*
X121999364Y-76654339D01*
X122006796Y-76659429D01*
X122068834Y-76714371D01*
X122117793Y-76782865D01*
X122152923Y-76861593D01*
X122173471Y-76947233D01*
X122178689Y-77036466D01*
X122167824Y-77125972D01*
X122140127Y-77212431D01*
X122134609Y-77224647D01*
X122095273Y-77288208D01*
X122041601Y-77346766D01*
X121979878Y-77394063D01*
X121946063Y-77412417D01*
X121880327Y-77442772D01*
X121564264Y-77445949D01*
X121248201Y-77449125D01*
X121248201Y-78106243D01*
X121154165Y-78106243D01*
X121154165Y-77365843D01*
X121248201Y-77365843D01*
X121548591Y-77362461D01*
X121639012Y-77361277D01*
X121710990Y-77359889D01*
X121766979Y-77358148D01*
X121809433Y-77355903D01*
X121840805Y-77353007D01*
X121863549Y-77349308D01*
X121880119Y-77344659D01*
X121887010Y-77341862D01*
X121942338Y-77307373D01*
X121993401Y-77258204D01*
X122034160Y-77200496D01*
X122043201Y-77183021D01*
X122070637Y-77104124D01*
X122080512Y-77023822D01*
X122073885Y-76945092D01*
X122051817Y-76870910D01*
X122015367Y-76804254D01*
X121965595Y-76748100D01*
X121903560Y-76705425D01*
X121867605Y-76689832D01*
X121848581Y-76685235D01*
X121818890Y-76681625D01*
X121776546Y-76678915D01*
X121719565Y-76677017D01*
X121645963Y-76675843D01*
X121553754Y-76675306D01*
X121538143Y-76675275D01*
X121248201Y-76674816D01*
X121248201Y-77365843D01*
X121154165Y-77365843D01*
X121154165Y-76591229D01*
X121502525Y-76591229D01*
G37*
G36*
X122333836Y-77356422D02*
G01*
X122338394Y-77343512D01*
X122602152Y-76596453D01*
X122712805Y-76596453D01*
X122978079Y-77348736D01*
X123020350Y-77468636D01*
X123060549Y-77582705D01*
X123098142Y-77689427D01*
X123132595Y-77787285D01*
X123163376Y-77874762D01*
X123189950Y-77950342D01*
X123211784Y-78012507D01*
X123228345Y-78059742D01*
X123239100Y-78090529D01*
X123243515Y-78103352D01*
X123243597Y-78103631D01*
X123234366Y-78105150D01*
X123210595Y-78106092D01*
X123193877Y-78106243D01*
X123143914Y-78106243D01*
X123069664Y-77894664D01*
X122995414Y-77683084D01*
X122320150Y-77683084D01*
X122246459Y-77892052D01*
X122172769Y-78101019D01*
X122123196Y-78104204D01*
X122094454Y-78104477D01*
X122076820Y-78101604D01*
X122074129Y-78098980D01*
X122077607Y-78088013D01*
X122087517Y-78058883D01*
X122103322Y-78013127D01*
X122124483Y-77952282D01*
X122150464Y-77877886D01*
X122180726Y-77791474D01*
X122214732Y-77694585D01*
X122251944Y-77588755D01*
X122252760Y-77586437D01*
X122355547Y-77586437D01*
X122365505Y-77588209D01*
X122393183Y-77589791D01*
X122435414Y-77591166D01*
X122489030Y-77592319D01*
X122550864Y-77593232D01*
X122617750Y-77593889D01*
X122686520Y-77594274D01*
X122754007Y-77594370D01*
X122817044Y-77594161D01*
X122872464Y-77593630D01*
X122917100Y-77592761D01*
X122947786Y-77591537D01*
X122961353Y-77589941D01*
X122961734Y-77589591D01*
X122958391Y-77578571D01*
X122948941Y-77550326D01*
X122934249Y-77507330D01*
X122915184Y-77452056D01*
X122892612Y-77386977D01*
X122867400Y-77314568D01*
X122840416Y-77237302D01*
X122812527Y-77157651D01*
X122784599Y-77078091D01*
X122757500Y-77001093D01*
X122732096Y-76929133D01*
X122709255Y-76864683D01*
X122689843Y-76810216D01*
X122674729Y-76768207D01*
X122664778Y-76741128D01*
X122660986Y-76731621D01*
X122656572Y-76739077D01*
X122646193Y-76763878D01*
X122630707Y-76803622D01*
X122610973Y-76855904D01*
X122587850Y-76918319D01*
X122562198Y-76988462D01*
X122534875Y-77063931D01*
X122506741Y-77142320D01*
X122478655Y-77221225D01*
X122451476Y-77298241D01*
X122426063Y-77370965D01*
X122403275Y-77436992D01*
X122383971Y-77493917D01*
X122369011Y-77539337D01*
X122359253Y-77570847D01*
X122355556Y-77586042D01*
X122355547Y-77586437D01*
X122252760Y-77586437D01*
X122291825Y-77475522D01*
X122333836Y-77356422D01*
G37*
G36*
X125605173Y-76674816D02*
G01*
X124790200Y-76674816D01*
X124790200Y-77270373D01*
X125406654Y-77270373D01*
X125406654Y-77353960D01*
X124790200Y-77353960D01*
X124790200Y-78022656D01*
X125646967Y-78022656D01*
X125646967Y-78106243D01*
X124696164Y-78106243D01*
X124696164Y-76591229D01*
X125605173Y-76591229D01*
X125605173Y-76674816D01*
G37*
G36*
X119960346Y-75103524D02*
G01*
X119964891Y-75026593D01*
X119973644Y-74960719D01*
X119987570Y-74901047D01*
X120007631Y-74842719D01*
X120034793Y-74780879D01*
X120046139Y-74757539D01*
X120100405Y-74662850D01*
X120161114Y-74585994D01*
X120230441Y-74524346D01*
X120251996Y-74509253D01*
X120310454Y-74473497D01*
X120363852Y-74448825D01*
X120418563Y-74433453D01*
X120480962Y-74425598D01*
X120557422Y-74423478D01*
X120558608Y-74423480D01*
X120636896Y-74426284D01*
X120701135Y-74435551D01*
X120757673Y-74453198D01*
X120812857Y-74481142D01*
X120866099Y-74516312D01*
X120943946Y-74584386D01*
X121011749Y-74669809D01*
X121068590Y-74771135D01*
X121113553Y-74886914D01*
X121124717Y-74924713D01*
X121133345Y-74958824D01*
X121139551Y-74991725D01*
X121143713Y-75027880D01*
X121146211Y-75071756D01*
X121147421Y-75127817D01*
X121147723Y-75196371D01*
X121147387Y-75268066D01*
X121146128Y-75323335D01*
X121143566Y-75366640D01*
X121139322Y-75402446D01*
X121133018Y-75435216D01*
X121124657Y-75468029D01*
X121091456Y-75566339D01*
X121048397Y-75659475D01*
X120997907Y-75743300D01*
X120942413Y-75813678D01*
X120896102Y-75857475D01*
X120856571Y-75889188D01*
X120929617Y-75994912D01*
X120959119Y-76037601D01*
X120985306Y-76075473D01*
X121005314Y-76104388D01*
X121016227Y-76120130D01*
X121022860Y-76133978D01*
X121017182Y-76145498D01*
X120996147Y-76160411D01*
X120994097Y-76161683D01*
X120970708Y-76175546D01*
X120956095Y-76183102D01*
X120954413Y-76183579D01*
X120947309Y-76175457D01*
X120930455Y-76153223D01*
X120906074Y-76119894D01*
X120876390Y-76078484D01*
X120862722Y-76059191D01*
X120775023Y-75934967D01*
X120732118Y-75951591D01*
X120701127Y-75960030D01*
X120657763Y-75965489D01*
X120598723Y-75968297D01*
X120558608Y-75968830D01*
X120481193Y-75967129D01*
X120418470Y-75960072D01*
X120364552Y-75945948D01*
X120313554Y-75923047D01*
X120259593Y-75889658D01*
X120240668Y-75876430D01*
X120162822Y-75808356D01*
X120095019Y-75722933D01*
X120038177Y-75621607D01*
X119993214Y-75505828D01*
X119982051Y-75468029D01*
X119973423Y-75433918D01*
X119967217Y-75401017D01*
X119963054Y-75364862D01*
X119960557Y-75320986D01*
X119959347Y-75264925D01*
X119959212Y-75234309D01*
X120051512Y-75234309D01*
X120061445Y-75345734D01*
X120083054Y-75453469D01*
X120116198Y-75554865D01*
X120160735Y-75647271D01*
X120216523Y-75728039D01*
X120283420Y-75794518D01*
X120308026Y-75812949D01*
X120386540Y-75855178D01*
X120474019Y-75880941D01*
X120565385Y-75889251D01*
X120652035Y-75879894D01*
X120683097Y-75871815D01*
X120704745Y-75863549D01*
X120710306Y-75859524D01*
X120706915Y-75847818D01*
X120693375Y-75823202D01*
X120671980Y-75789559D01*
X120651213Y-75759409D01*
X120586512Y-75668370D01*
X120616965Y-75644002D01*
X120638811Y-75628056D01*
X120653775Y-75619868D01*
X120655312Y-75619582D01*
X120664605Y-75627498D01*
X120682373Y-75648596D01*
X120705276Y-75678824D01*
X120712778Y-75689250D01*
X120739374Y-75726022D01*
X120764362Y-75759492D01*
X120782966Y-75783284D01*
X120785142Y-75785897D01*
X120807934Y-75812825D01*
X120863590Y-75755359D01*
X120927194Y-75675495D01*
X120978079Y-75582366D01*
X121016249Y-75478950D01*
X121041710Y-75368223D01*
X121054465Y-75253164D01*
X121054519Y-75136749D01*
X121041876Y-75021957D01*
X121016540Y-74911764D01*
X120978516Y-74809147D01*
X120927808Y-74717085D01*
X120864421Y-74638555D01*
X120861960Y-74636075D01*
X120786802Y-74574261D01*
X120705356Y-74531327D01*
X120619950Y-74507271D01*
X120532914Y-74502090D01*
X120446578Y-74515782D01*
X120363270Y-74548346D01*
X120285320Y-74599779D01*
X120245064Y-74636633D01*
X120181959Y-74714560D01*
X120131382Y-74804694D01*
X120093191Y-74904385D01*
X120067243Y-75010985D01*
X120053398Y-75121842D01*
X120051512Y-75234309D01*
X119959212Y-75234309D01*
X119959045Y-75196371D01*
X119960346Y-75103524D01*
G37*
G36*
X121480853Y-74979567D02*
G01*
X121481948Y-75103519D01*
X121483081Y-75208408D01*
X121484319Y-75296070D01*
X121485726Y-75368338D01*
X121487367Y-75427048D01*
X121489310Y-75474033D01*
X121491618Y-75511129D01*
X121494358Y-75540170D01*
X121497594Y-75562990D01*
X121501393Y-75581423D01*
X121502494Y-75585773D01*
X121533782Y-75677379D01*
X121575434Y-75751210D01*
X121628628Y-75808259D01*
X121694545Y-75849523D01*
X121774362Y-75875995D01*
X121860869Y-75888126D01*
X121962433Y-75887743D01*
X122052578Y-75871814D01*
X122130272Y-75840804D01*
X122194485Y-75795177D01*
X122244184Y-75735398D01*
X122259414Y-75708341D01*
X122271854Y-75683246D01*
X122282406Y-75660510D01*
X122291238Y-75638225D01*
X122298517Y-75614483D01*
X122304411Y-75587376D01*
X122309087Y-75554995D01*
X122312712Y-75515433D01*
X122315454Y-75466780D01*
X122317479Y-75407129D01*
X122318955Y-75334571D01*
X122320050Y-75247197D01*
X122320930Y-75143101D01*
X122321763Y-75020373D01*
X122321926Y-74995240D01*
X122325555Y-74438864D01*
X122418419Y-74438864D01*
X122418340Y-74953446D01*
X122418108Y-75062731D01*
X122417473Y-75166029D01*
X122416475Y-75261162D01*
X122415153Y-75345948D01*
X122413547Y-75418209D01*
X122411695Y-75475763D01*
X122409638Y-75516432D01*
X122407782Y-75535943D01*
X122383784Y-75646261D01*
X122348176Y-75739612D01*
X122300430Y-75816744D01*
X122240016Y-75878407D01*
X122166405Y-75925351D01*
X122118538Y-75945738D01*
X122083804Y-75956318D01*
X122044952Y-75963507D01*
X121996543Y-75968015D01*
X121933139Y-75970550D01*
X121927345Y-75970687D01*
X121872370Y-75971087D01*
X121820595Y-75969953D01*
X121778013Y-75967509D01*
X121751565Y-75964180D01*
X121661248Y-75935434D01*
X121583215Y-75889887D01*
X121517951Y-75827985D01*
X121465943Y-75750177D01*
X121432019Y-75670375D01*
X121421443Y-75635529D01*
X121412473Y-75597803D01*
X121404990Y-75555275D01*
X121398872Y-75506024D01*
X121393999Y-75448129D01*
X121390249Y-75379669D01*
X121387501Y-75298723D01*
X121385635Y-75203370D01*
X121384530Y-75091687D01*
X121384064Y-74961755D01*
X121384030Y-74907934D01*
X121384030Y-74438864D01*
X121476427Y-74438864D01*
X121480853Y-74979567D01*
G37*
G36*
X127354442Y-74426661D02*
G01*
X127453686Y-74451059D01*
X127543721Y-74490066D01*
X127621844Y-74542436D01*
X127685351Y-74606920D01*
X127699643Y-74626248D01*
X127730559Y-74670927D01*
X127658279Y-74730597D01*
X127638031Y-74702275D01*
X127573560Y-74629418D01*
X127496700Y-74572016D01*
X127410186Y-74531105D01*
X127316754Y-74507720D01*
X127219140Y-74502898D01*
X127138986Y-74513290D01*
X127056704Y-74538620D01*
X126990991Y-74575993D01*
X126942232Y-74624990D01*
X126910808Y-74685193D01*
X126897103Y-74756183D01*
X126896495Y-74778436D01*
X126899499Y-74828993D01*
X126909042Y-74872917D01*
X126926912Y-74911843D01*
X126954895Y-74947405D01*
X126994779Y-74981236D01*
X127048350Y-75014971D01*
X127117396Y-75050244D01*
X127203703Y-75088688D01*
X127262563Y-75113160D01*
X127370675Y-75159668D01*
X127460537Y-75203748D01*
X127534452Y-75246752D01*
X127594722Y-75290032D01*
X127643650Y-75334941D01*
X127647986Y-75339550D01*
X127691096Y-75392963D01*
X127718660Y-75446063D01*
X127732729Y-75504831D01*
X127735358Y-75575247D01*
X127734652Y-75592020D01*
X127721944Y-75680150D01*
X127693182Y-75756108D01*
X127647377Y-75822201D01*
X127626849Y-75843711D01*
X127570071Y-75888374D01*
X127500508Y-75926875D01*
X127426169Y-75955106D01*
X127393943Y-75963229D01*
X127343562Y-75970166D01*
X127282668Y-75973273D01*
X127218810Y-75972651D01*
X127159537Y-75968400D01*
X127112398Y-75960620D01*
X127107784Y-75959418D01*
X127025670Y-75929424D01*
X126954178Y-75886177D01*
X126895008Y-75834348D01*
X126860104Y-75796130D01*
X126827651Y-75754807D01*
X126800687Y-75714881D01*
X126782254Y-75680855D01*
X126775391Y-75657234D01*
X126775391Y-75657159D01*
X126783263Y-75646331D01*
X126802114Y-75631950D01*
X126824801Y-75618383D01*
X126844176Y-75609993D01*
X126852559Y-75610015D01*
X126858986Y-75620950D01*
X126871670Y-75644935D01*
X126884481Y-75670074D01*
X126931278Y-75740902D01*
X126994283Y-75801941D01*
X127069761Y-75849631D01*
X127076297Y-75852796D01*
X127108796Y-75867541D01*
X127135652Y-75877079D01*
X127163046Y-75882491D01*
X127197159Y-75884860D01*
X127244173Y-75885269D01*
X127261241Y-75885174D01*
X127319698Y-75883831D01*
X127363518Y-75880170D01*
X127398905Y-75873345D01*
X127432067Y-75862513D01*
X127434468Y-75861582D01*
X127507941Y-75822859D01*
X127565942Y-75770978D01*
X127607375Y-75707502D01*
X127631145Y-75633991D01*
X127636722Y-75573124D01*
X127631953Y-75516405D01*
X127616437Y-75465214D01*
X127588741Y-75418259D01*
X127547430Y-75374245D01*
X127491071Y-75331880D01*
X127418230Y-75289869D01*
X127327473Y-75246920D01*
X127230848Y-75207007D01*
X127144412Y-75171941D01*
X127074613Y-75140836D01*
X127018031Y-75111779D01*
X126971249Y-75082859D01*
X126930848Y-75052164D01*
X126894620Y-75018983D01*
X126848824Y-74967753D01*
X126818775Y-74917769D01*
X126802318Y-74863201D01*
X126797298Y-74798223D01*
X126798462Y-74758928D01*
X126812318Y-74673935D01*
X126843441Y-74600065D01*
X126891050Y-74537909D01*
X126954361Y-74488060D01*
X127032593Y-74451110D01*
X127124963Y-74427651D01*
X127230690Y-74418275D01*
X127248694Y-74418121D01*
X127354442Y-74426661D01*
G37*
G36*
X123619982Y-74522451D02*
G01*
X122805009Y-74522451D01*
X122805009Y-75118008D01*
X123421463Y-75118008D01*
X123421463Y-75201595D01*
X122805009Y-75201595D01*
X122805009Y-75870291D01*
X123661775Y-75870291D01*
X123661775Y-75953878D01*
X122710973Y-75953878D01*
X122710973Y-74438864D01*
X123619982Y-74438864D01*
X123619982Y-74522451D01*
G37*
G36*
X124790200Y-74522451D02*
G01*
X123975227Y-74522451D01*
X123975227Y-75118008D01*
X124591681Y-75118008D01*
X124591681Y-75201595D01*
X123975227Y-75201595D01*
X123975227Y-75870291D01*
X124831993Y-75870291D01*
X124831993Y-75953878D01*
X123881191Y-75953878D01*
X123881191Y-74438864D01*
X124790200Y-74438864D01*
X124790200Y-74522451D01*
G37*
G36*
X125150125Y-74444088D02*
G01*
X125578780Y-75117418D01*
X126007436Y-75790748D01*
X126012812Y-74438864D01*
X126106695Y-74438864D01*
X126106695Y-75953878D01*
X126003675Y-75953878D01*
X125571948Y-75275434D01*
X125140220Y-74596990D01*
X125137533Y-75275434D01*
X125134845Y-75953878D01*
X125040961Y-75953878D01*
X125040961Y-74437772D01*
X125150125Y-74444088D01*
G37*
G36*
X126623551Y-74443886D02*
G01*
X126627540Y-74448669D01*
X126622593Y-74460817D01*
X126610517Y-74489534D01*
X126592430Y-74532188D01*
X126569450Y-74586147D01*
X126542696Y-74648780D01*
X126514182Y-74715367D01*
X126479889Y-74794952D01*
X126452453Y-74857082D01*
X126430665Y-74903580D01*
X126413319Y-74936269D01*
X126399206Y-74956973D01*
X126387119Y-74967513D01*
X126375851Y-74969715D01*
X126364195Y-74965399D01*
X126353363Y-74958178D01*
X126347983Y-74952907D01*
X126345064Y-74944892D01*
X126345148Y-74931715D01*
X126348777Y-74910962D01*
X126356494Y-74880218D01*
X126368838Y-74837068D01*
X126386353Y-74779096D01*
X126409579Y-74703888D01*
X126412538Y-74694356D01*
X126490248Y-74444088D01*
X126560718Y-74440975D01*
X126601190Y-74440647D01*
X126623551Y-74443886D01*
G37*
X136783400Y-84750400D02*
X142783400Y-84750400D01*
X136783400Y-81260400D02*
X134123400Y-81260400D01*
X136783400Y-82750400D02*
X142783400Y-82750400D01*
X133726329Y-84750400D02*
X134123400Y-84750400D01*
X133726329Y-88050400D02*
X134123400Y-88050400D01*
X134123400Y-83860400D02*
X136783400Y-83860400D01*
X131413400Y-81320400D02*
X132683400Y-81320400D01*
X134123400Y-86400400D02*
X136783400Y-86400400D01*
X134123400Y-81260400D02*
X134123400Y-89000400D01*
X136783400Y-89000400D02*
X136783400Y-81260400D01*
X133793400Y-82970400D02*
X134123400Y-82970400D01*
X133793400Y-82210400D02*
X134123400Y-82210400D01*
X142783400Y-82210400D02*
X142783400Y-82970400D01*
X142783400Y-88050400D02*
X136783400Y-88050400D01*
X133726329Y-85510400D02*
X134123400Y-85510400D01*
X133726329Y-87290400D02*
X134123400Y-87290400D01*
X142783400Y-82970400D02*
X136783400Y-82970400D01*
X136783400Y-82210400D02*
X142783400Y-82210400D01*
X136783400Y-82510400D02*
X142783400Y-82510400D01*
X136783400Y-82630400D02*
X142783400Y-82630400D01*
X142783400Y-87290400D02*
X142783400Y-88050400D01*
X136783400Y-82390400D02*
X142783400Y-82390400D01*
X136783400Y-87290400D02*
X142783400Y-87290400D01*
X134123400Y-89000400D02*
X136783400Y-89000400D01*
X131413400Y-82590400D02*
X131413400Y-81320400D01*
X142783400Y-84750400D02*
X142783400Y-85510400D01*
X142783400Y-85510400D02*
X136783400Y-85510400D01*
X136783400Y-82870400D02*
X142783400Y-82870400D01*
X136783400Y-82270400D02*
X142783400Y-82270400D01*
X142850000Y-97245000D02*
X134220000Y-97245000D01*
X142850000Y-95825955D02*
X134220000Y-95825955D01*
X142850000Y-96888810D02*
X134220000Y-96888810D01*
X142850000Y-95944050D02*
X134220000Y-95944050D01*
X134220000Y-97245000D02*
X134220000Y-92045000D01*
X142850000Y-94881195D02*
X134220000Y-94881195D01*
X131650000Y-97245000D02*
X131650000Y-95915000D01*
X142850000Y-96416430D02*
X134220000Y-96416430D01*
X142850000Y-95353575D02*
X134220000Y-95353575D01*
X142850000Y-95589765D02*
X134220000Y-95589765D01*
X142850000Y-96534525D02*
X134220000Y-96534525D01*
X142850000Y-96180240D02*
X134220000Y-96180240D01*
X142850000Y-95471670D02*
X134220000Y-95471670D01*
X134220000Y-93735000D02*
X133810000Y-93735000D01*
X134220000Y-95555000D02*
X133870000Y-95555000D01*
X142850000Y-95707860D02*
X134220000Y-95707860D01*
X142850000Y-94999290D02*
X134220000Y-94999290D01*
X142850000Y-96652620D02*
X134220000Y-96652620D01*
X142850000Y-95117385D02*
X134220000Y-95117385D01*
X142850000Y-94645000D02*
X134220000Y-94645000D01*
X132760000Y-97245000D02*
X131650000Y-97245000D01*
X142850000Y-97006905D02*
X134220000Y-97006905D01*
X142850000Y-96770715D02*
X134220000Y-96770715D01*
X134220000Y-93015000D02*
X133810000Y-93015000D01*
X142850000Y-97245000D02*
X142850000Y-92045000D01*
X142850000Y-97125000D02*
X134220000Y-97125000D01*
X142850000Y-92045000D02*
X134220000Y-92045000D01*
X142850000Y-95235480D02*
X134220000Y-95235480D01*
X142850000Y-94763100D02*
X134220000Y-94763100D01*
X134220000Y-96275000D02*
X133870000Y-96275000D01*
X142850000Y-96062145D02*
X134220000Y-96062145D01*
X142850000Y-96298335D02*
X134220000Y-96298335D01*
X109320000Y-85630000D02*
X109320000Y-92170000D01*
X108990000Y-85630000D02*
X109320000Y-85630000D01*
X106580000Y-92170000D02*
X106910000Y-92170000D01*
X109320000Y-92170000D02*
X108990000Y-92170000D01*
X106910000Y-85630000D02*
X106580000Y-85630000D01*
X106580000Y-85630000D02*
X106580000Y-92170000D01*
X102680000Y-82840000D02*
X102836000Y-82840000D01*
X100364000Y-82840000D02*
X100520000Y-82840000D01*
X100521392Y-79607665D02*
G75*
G03*
X100364484Y-82840000I1078608J-1672335D01*
G01*
X102835516Y-82840000D02*
G75*
G03*
X102678608Y-79607665I-1235516J1560000D01*
G01*
X102680000Y-82320961D02*
G75*
G03*
X102679837Y-80238870I-1080000J1040961D01*
G01*
X100520163Y-80238870D02*
G75*
G03*
X100520000Y-82320961I1079837J-1041130D01*
G01*
X101127071Y-96900000D02*
X100730000Y-96900000D01*
X98070000Y-104520000D02*
X92070000Y-104520000D01*
X101127071Y-104520000D02*
X100730000Y-104520000D01*
X103667071Y-96140000D02*
X103212929Y-96140000D01*
X98070000Y-99440000D02*
X92070000Y-99440000D01*
X101127071Y-107060000D02*
X100730000Y-107060000D01*
X101127071Y-101980000D02*
X100730000Y-101980000D01*
X100730000Y-95190000D02*
X98070000Y-95190000D01*
X100730000Y-107950000D02*
X98070000Y-107950000D01*
X92070000Y-96140000D02*
X98070000Y-96140000D01*
X103667071Y-107060000D02*
X103212929Y-107060000D01*
X92070000Y-104520000D02*
X92070000Y-103760000D01*
X101127071Y-108840000D02*
X100730000Y-108840000D01*
X92070000Y-101980000D02*
X92070000Y-101220000D01*
X92070000Y-99440000D02*
X92070000Y-98680000D01*
X103667071Y-101220000D02*
X103212929Y-101220000D01*
X103600000Y-109600000D02*
X103212929Y-109600000D01*
X101127071Y-106300000D02*
X100730000Y-106300000D01*
X101127071Y-99440000D02*
X100730000Y-99440000D01*
X92070000Y-98680000D02*
X98070000Y-98680000D01*
X98070000Y-109060000D02*
X92070000Y-109060000D01*
X100730000Y-110550000D02*
X100730000Y-95190000D01*
X105980000Y-109220000D02*
X105980000Y-110490000D01*
X98070000Y-109420000D02*
X92070000Y-109420000D01*
X103667071Y-96900000D02*
X103212929Y-96900000D01*
X98070000Y-109600000D02*
X92070000Y-109600000D01*
X103667071Y-101980000D02*
X103212929Y-101980000D01*
X98070000Y-110550000D02*
X100730000Y-110550000D01*
X101127071Y-103760000D02*
X100730000Y-103760000D01*
X100730000Y-100330000D02*
X98070000Y-100330000D01*
X98070000Y-107060000D02*
X92070000Y-107060000D01*
X103667071Y-98680000D02*
X103212929Y-98680000D01*
X98070000Y-109540000D02*
X92070000Y-109540000D01*
X103667071Y-106300000D02*
X103212929Y-106300000D01*
X92070000Y-106300000D02*
X98070000Y-106300000D01*
X100730000Y-105410000D02*
X98070000Y-105410000D01*
X98070000Y-109180000D02*
X92070000Y-109180000D01*
X92070000Y-108840000D02*
X98070000Y-108840000D01*
X103667071Y-103760000D02*
X103212929Y-103760000D01*
X92070000Y-96900000D02*
X92070000Y-96140000D01*
X101127071Y-101220000D02*
X100730000Y-101220000D01*
X101127071Y-109600000D02*
X100730000Y-109600000D01*
X92070000Y-109600000D02*
X92070000Y-108840000D01*
X101127071Y-98680000D02*
X100730000Y-98680000D01*
X92070000Y-101220000D02*
X98070000Y-101220000D01*
X103667071Y-104520000D02*
X103212929Y-104520000D01*
X103667071Y-99440000D02*
X103212929Y-99440000D01*
X98070000Y-108940000D02*
X92070000Y-108940000D01*
X103600000Y-108840000D02*
X103212929Y-108840000D01*
X100730000Y-97790000D02*
X98070000Y-97790000D01*
X100730000Y-102870000D02*
X98070000Y-102870000D01*
X98070000Y-96900000D02*
X92070000Y-96900000D01*
X98070000Y-109300000D02*
X92070000Y-109300000D01*
X92070000Y-103760000D02*
X98070000Y-103760000D01*
X92070000Y-107060000D02*
X92070000Y-106300000D01*
X101127071Y-96140000D02*
X100730000Y-96140000D01*
X98070000Y-95190000D02*
X98070000Y-110550000D01*
X105980000Y-110490000D02*
X104710000Y-110490000D01*
X98070000Y-101980000D02*
X92070000Y-101980000D01*
X139770000Y-110005000D02*
X142500000Y-110005000D01*
X136170000Y-100815000D02*
X137070000Y-100815000D01*
X136170000Y-110005000D02*
X137070000Y-110005000D01*
X139770000Y-100815000D02*
X142500000Y-100815000D01*
X142500000Y-110005000D02*
X142500000Y-100815000D01*
X133090000Y-109885000D02*
X133090000Y-100935000D01*
D12*
X124759800Y-88866400D02*
X120959800Y-88866400D01*
X127109800Y-95016400D02*
X127109800Y-91216400D01*
X118609800Y-91216400D02*
X118609800Y-95016400D01*
X120959800Y-97366400D02*
X124759800Y-97366400D01*
D11*
X112930000Y-92170000D02*
X113260000Y-92170000D01*
X113260000Y-85630000D02*
X112930000Y-85630000D01*
X112930000Y-85630000D02*
X112930000Y-92170000D01*
X115670000Y-92170000D02*
X115340000Y-92170000D01*
X115670000Y-85630000D02*
X115670000Y-92170000D01*
X115340000Y-85630000D02*
X115670000Y-85630000D01*
X102970000Y-85630000D02*
X102970000Y-92170000D01*
X100560000Y-85630000D02*
X100230000Y-85630000D01*
X102640000Y-85630000D02*
X102970000Y-85630000D01*
X100230000Y-92170000D02*
X100560000Y-92170000D01*
X102970000Y-92170000D02*
X102640000Y-92170000D01*
X100230000Y-85630000D02*
X100230000Y-92170000D01*
X109030000Y-82840000D02*
X109186000Y-82840000D01*
X106714000Y-82840000D02*
X106870000Y-82840000D01*
X106870163Y-80238870D02*
G75*
G03*
X106870000Y-82320961I1079837J-1041130D01*
G01*
X109030000Y-82320961D02*
G75*
G03*
X109029837Y-80238870I-1080000J1040961D01*
G01*
X109185516Y-82840000D02*
G75*
G03*
X109028608Y-79607665I-1235516J1560000D01*
G01*
X106871392Y-79607665D02*
G75*
G03*
X106714484Y-82840000I1078608J-1672335D01*
G01*
X115380000Y-82840000D02*
X115536000Y-82840000D01*
X113064000Y-82840000D02*
X113220000Y-82840000D01*
X115380000Y-82320961D02*
G75*
G03*
X115379837Y-80238870I-1080000J1040961D01*
G01*
X113220163Y-80238870D02*
G75*
G03*
X113220000Y-82320961I1079837J-1041130D01*
G01*
X113221392Y-79607665D02*
G75*
G03*
X113064484Y-82840000I1078608J-1672335D01*
G01*
X115535516Y-82840000D02*
G75*
G03*
X115378608Y-79607665I-1235516J1560000D01*
G01*
%LPC*%
D13*
X113309400Y-115087400D03*
X109804200Y-115087400D03*
X106299000Y-115062000D03*
D14*
X124130001Y-107982250D03*
X119380000Y-107982250D03*
X114630000Y-107982250D03*
D15*
X132683400Y-87670400D03*
X132683400Y-85130400D03*
D16*
X132683400Y-82590400D03*
D17*
X100330000Y-76200000D03*
D16*
X132760000Y-95915000D03*
D15*
X132760000Y-93375000D03*
D18*
X107950000Y-85090000D03*
D19*
X107950000Y-92710000D03*
D20*
X101600000Y-82550000D03*
D21*
X101600000Y-80010000D03*
D16*
X104710000Y-109220000D03*
D15*
X102170000Y-109220000D03*
X104710000Y-106680000D03*
X102170000Y-106680000D03*
X104710000Y-104140000D03*
X102170000Y-104140000D03*
X104710000Y-101600000D03*
X102170000Y-101600000D03*
X104710000Y-99060000D03*
X102170000Y-99060000D03*
X104710000Y-96520000D03*
X102170000Y-96520000D03*
D22*
X133770000Y-108385000D03*
X133770000Y-107535000D03*
X133770000Y-106685000D03*
X133770000Y-105835000D03*
X133770000Y-104985000D03*
X133770000Y-104135000D03*
X133770000Y-103285000D03*
X133770000Y-102435000D03*
X135120000Y-102435000D03*
X135120000Y-103285000D03*
X135120000Y-104135000D03*
X135120000Y-104985000D03*
X135120000Y-105835000D03*
X135120000Y-106685000D03*
X135120000Y-107535000D03*
X135120000Y-108385000D03*
D23*
X138130000Y-109735000D03*
D24*
X134750000Y-101085000D03*
X134750000Y-109735000D03*
D23*
X138130000Y-101085000D03*
D25*
X119359800Y-89616400D03*
X126359800Y-89616400D03*
X126359800Y-96616400D03*
X119359800Y-96616400D03*
D17*
X100330000Y-114300000D03*
X140335000Y-76200000D03*
X140335000Y-114300000D03*
D18*
X114300000Y-85090000D03*
D19*
X114300000Y-92710000D03*
D18*
X101600000Y-85090000D03*
D19*
X101600000Y-92710000D03*
D20*
X107950000Y-82550000D03*
D21*
X107950000Y-80010000D03*
D20*
X114300000Y-82550000D03*
D21*
X114300000Y-80010000D03*
M02*
