%TF.GenerationSoftware,KiCad,Pcbnew,(6.0.7-1)-1*%
%TF.CreationDate,2023-01-04T12:50:37-05:00*%
%TF.ProjectId,comm-rfb,636f6d6d-2d72-4666-922e-6b696361645f,rev?*%
%TF.SameCoordinates,Original*%
%TF.FileFunction,Drillmap*%
%TF.FilePolarity,Positive*%
%FSLAX45Y45*%
G04 Gerber Fmt 4.5, Leading zero omitted, Abs format (unit mm)*
G04 Created by KiCad (PCBNEW (6.0.7-1)-1) date 2023-01-04 12:50:37*
%MOMM*%
%LPD*%
G01*
G04 APERTURE LIST*
%ADD10C,0.100000*%
%ADD11C,0.200000*%
%ADD12C,0.030000*%
%ADD13C,0.060000*%
%ADD14C,0.150000*%
%ADD15C,0.170000*%
%ADD16C,0.320000*%
G04 APERTURE END LIST*
D10*
X11430000Y-4699000D02*
G75*
G03*
X10922000Y-5207000I0J-508000D01*
G01*
X14546120Y-4813300D02*
G75*
G03*
X14431822Y-4699000I-114300J0D01*
G01*
X19939000Y-8356600D02*
X19939000Y-5207000D01*
X11150600Y-8559800D02*
G75*
G03*
X11036300Y-8445500I-114300J0D01*
G01*
X11036300Y-10532920D02*
G75*
G03*
X10922000Y-10647222I0J-114300D01*
G01*
X14660422Y-4927600D02*
X16459200Y-4927600D01*
X19431000Y-14287500D02*
G75*
G03*
X19939000Y-13779500I0J508000D01*
G01*
X19824700Y-8470900D02*
G75*
G03*
X19939000Y-8356600I0J114300D01*
G01*
X11430000Y-4699000D02*
X14431822Y-4699000D01*
X10922000Y-10647222D02*
X10922000Y-13779500D01*
X16459200Y-4927600D02*
G75*
G03*
X16573500Y-4813300I0J114300D01*
G01*
X19824700Y-8470900D02*
G75*
G03*
X19710400Y-8585200I0J-114300D01*
G01*
X16687800Y-4699000D02*
G75*
G03*
X16573500Y-4813300I0J-114300D01*
G01*
X16687800Y-4699000D02*
X19431000Y-4699000D01*
X16598900Y-14173200D02*
G75*
G03*
X16713200Y-14287500I114300J0D01*
G01*
X19710400Y-10439400D02*
G75*
G03*
X19824700Y-10553700I114300J0D01*
G01*
X16713200Y-14287500D02*
X19431000Y-14287500D01*
X19710400Y-10439400D02*
X19710400Y-8585200D01*
X19939000Y-13779500D02*
X19939000Y-10668000D01*
X11430000Y-14287500D02*
X14376400Y-14287500D01*
X14592300Y-14071600D02*
X16497300Y-14071600D01*
X14592300Y-14071600D02*
G75*
G03*
X14490700Y-14173200I0J-101600D01*
G01*
X16598900Y-14173200D02*
G75*
G03*
X16497300Y-14071600I-101600J0D01*
G01*
X14376400Y-14287500D02*
G75*
G03*
X14490700Y-14173200I0J114300D01*
G01*
X19939000Y-10668000D02*
G75*
G03*
X19824700Y-10553700I-114300J0D01*
G01*
X14546120Y-4813300D02*
G75*
G03*
X14660422Y-4927600I114300J0D01*
G01*
X11150600Y-8559800D02*
X11150600Y-10418622D01*
X11036300Y-10532920D02*
G75*
G03*
X11150600Y-10418622I0J114300D01*
G01*
X10922000Y-5207000D02*
X10922000Y-8331200D01*
X10922000Y-13779500D02*
G75*
G03*
X11430000Y-14287500I508000J0D01*
G01*
X19939000Y-5207000D02*
G75*
G03*
X19431000Y-4699000I-508000J0D01*
G01*
X10922000Y-8331200D02*
G75*
G03*
X11036300Y-8445500I114300J0D01*
G01*
D11*
D12*
X10993360Y-11709640D02*
X11023360Y-11739640D01*
X11023360Y-11709640D02*
X10993360Y-11739640D01*
X10993360Y-11917920D02*
X11023360Y-11947920D01*
X11023360Y-11917920D02*
X10993360Y-11947920D01*
X10993360Y-12431000D02*
X11023360Y-12461000D01*
X11023360Y-12431000D02*
X10993360Y-12461000D01*
X10993360Y-12936460D02*
X11023360Y-12966460D01*
X11023360Y-12936460D02*
X10993360Y-12966460D01*
X10993360Y-13449540D02*
X11023360Y-13479540D01*
X11023360Y-13449540D02*
X10993360Y-13479540D01*
X10993360Y-13863560D02*
X11023360Y-13893560D01*
X11023360Y-13863560D02*
X10993360Y-13893560D01*
X11115280Y-11582640D02*
X11145280Y-11612640D01*
X11145280Y-11582640D02*
X11115280Y-11612640D01*
X11191480Y-9530320D02*
X11221480Y-9560320D01*
X11221480Y-9530320D02*
X11191480Y-9560320D01*
X11315940Y-14183600D02*
X11345940Y-14213600D01*
X11345940Y-14183600D02*
X11315940Y-14213600D01*
X11354040Y-11161000D02*
X11384040Y-11191000D01*
X11384040Y-11161000D02*
X11354040Y-11191000D01*
X11354040Y-11421770D02*
X11384040Y-11451770D01*
X11384040Y-11421770D02*
X11354040Y-11451770D01*
X11435320Y-9987520D02*
X11465320Y-10017520D01*
X11465320Y-9987520D02*
X11435320Y-10017520D01*
X11666460Y-11582640D02*
X11696460Y-11612640D01*
X11696460Y-11582640D02*
X11666460Y-11612640D01*
X11775680Y-6614400D02*
X11805680Y-6644400D01*
X11805680Y-6614400D02*
X11775680Y-6644400D01*
X11917920Y-14183600D02*
X11947920Y-14213600D01*
X11947920Y-14183600D02*
X11917920Y-14213600D01*
X11978880Y-6141960D02*
X12008880Y-6171960D01*
X12008880Y-6141960D02*
X11978880Y-6171960D01*
X12177000Y-11582640D02*
X12207000Y-11612640D01*
X12207000Y-11582640D02*
X12177000Y-11612640D01*
X12268440Y-12141440D02*
X12298440Y-12171440D01*
X12298440Y-12141440D02*
X12268440Y-12171440D01*
X12298920Y-12237960D02*
X12328920Y-12267960D01*
X12328920Y-12237960D02*
X12298920Y-12267960D01*
X12298920Y-12334480D02*
X12328920Y-12364480D01*
X12328920Y-12334480D02*
X12298920Y-12364480D01*
X12431000Y-14183600D02*
X12461000Y-14213600D01*
X12461000Y-14183600D02*
X12431000Y-14213600D01*
X12436080Y-11215190D02*
X12466080Y-11245190D01*
X12466080Y-11215190D02*
X12436080Y-11245190D01*
X12438820Y-11821400D02*
X12468820Y-11851400D01*
X12468820Y-11821400D02*
X12438820Y-11851400D01*
X12446240Y-6609320D02*
X12476240Y-6639320D01*
X12476240Y-6609320D02*
X12446240Y-6639320D01*
X12451320Y-7371320D02*
X12481320Y-7401320D01*
X12481320Y-7371320D02*
X12451320Y-7401320D01*
X12456400Y-7122400D02*
X12486400Y-7152400D01*
X12486400Y-7122400D02*
X12456400Y-7152400D01*
X12568160Y-12237960D02*
X12598160Y-12267960D01*
X12598160Y-12237960D02*
X12568160Y-12267960D01*
X12568160Y-12334480D02*
X12598160Y-12364480D01*
X12598160Y-12334480D02*
X12568160Y-12364480D01*
X12575980Y-11775680D02*
X12605980Y-11805680D01*
X12605980Y-11775680D02*
X12575980Y-11805680D01*
X12687540Y-11582640D02*
X12717540Y-11612640D01*
X12717540Y-11582640D02*
X12687540Y-11612640D01*
X12933920Y-14183600D02*
X12963920Y-14213600D01*
X12963920Y-14183600D02*
X12933920Y-14213600D01*
X12997620Y-11811240D02*
X13027620Y-11841240D01*
X13027620Y-11811240D02*
X12997620Y-11841240D01*
X13132040Y-8478760D02*
X13162040Y-8508760D01*
X13162040Y-8478760D02*
X13132040Y-8508760D01*
X13198080Y-11582640D02*
X13228080Y-11612640D01*
X13228080Y-11582640D02*
X13198080Y-11612640D01*
X13294600Y-11699480D02*
X13324600Y-11729480D01*
X13324600Y-11699480D02*
X13294600Y-11729480D01*
X13370800Y-8387320D02*
X13400800Y-8417320D01*
X13400800Y-8387320D02*
X13370800Y-8417320D01*
X13384350Y-7419580D02*
X13414350Y-7449580D01*
X13414350Y-7419580D02*
X13384350Y-7449580D01*
X13441920Y-14183600D02*
X13471920Y-14213600D01*
X13471920Y-14183600D02*
X13441920Y-14213600D01*
X13509650Y-7544040D02*
X13539650Y-7574040D01*
X13539650Y-7544040D02*
X13509650Y-7574040D01*
X13513040Y-8549880D02*
X13543040Y-8579880D01*
X13543040Y-8549880D02*
X13513040Y-8579880D01*
X13701000Y-11582640D02*
X13731000Y-11612640D01*
X13731000Y-11582640D02*
X13701000Y-11612640D01*
X13772120Y-8097760D02*
X13802120Y-8127760D01*
X13802120Y-8097760D02*
X13772120Y-8127760D01*
X13772120Y-8250160D02*
X13802120Y-8280160D01*
X13802120Y-8250160D02*
X13772120Y-8280160D01*
X13881340Y-14183600D02*
X13911340Y-14213600D01*
X13911340Y-14183600D02*
X13881340Y-14213600D01*
X13914360Y-11582640D02*
X13944360Y-11612640D01*
X13944360Y-11582640D02*
X13914360Y-11612640D01*
X13934680Y-8397480D02*
X13964680Y-8427480D01*
X13964680Y-8397480D02*
X13934680Y-8427480D01*
X14062950Y-11731230D02*
X14092950Y-11761230D01*
X14092950Y-11731230D02*
X14062950Y-11761230D01*
X14069300Y-14013420D02*
X14099300Y-14043420D01*
X14099300Y-14013420D02*
X14069300Y-14043420D01*
X14219160Y-13449540D02*
X14249160Y-13479540D01*
X14249160Y-13449540D02*
X14219160Y-13479540D01*
X14219160Y-13634960D02*
X14249160Y-13664960D01*
X14249160Y-13634960D02*
X14219160Y-13664960D01*
X14219160Y-13843240D02*
X14249160Y-13873240D01*
X14249160Y-13843240D02*
X14219160Y-13873240D01*
X14221700Y-11889980D02*
X14251700Y-11919980D01*
X14251700Y-11889980D02*
X14221700Y-11919980D01*
X14224240Y-12093180D02*
X14254240Y-12123180D01*
X14254240Y-12093180D02*
X14224240Y-12123180D01*
X14224240Y-12301460D02*
X14254240Y-12331460D01*
X14254240Y-12301460D02*
X14224240Y-12331460D01*
X14793200Y-8742920D02*
X14823200Y-8772920D01*
X14823200Y-8742920D02*
X14793200Y-8772920D01*
X15199600Y-11277840D02*
X15229600Y-11307840D01*
X15229600Y-11277840D02*
X15199600Y-11307840D01*
X15199600Y-11359120D02*
X15229600Y-11389120D01*
X15229600Y-11359120D02*
X15199600Y-11389120D01*
X15199600Y-11491200D02*
X15229600Y-11521200D01*
X15229600Y-11491200D02*
X15199600Y-11521200D01*
X15230080Y-8062200D02*
X15260080Y-8092200D01*
X15260080Y-8062200D02*
X15230080Y-8092200D01*
X15407880Y-8240000D02*
X15437880Y-8270000D01*
X15437880Y-8240000D02*
X15407880Y-8270000D01*
X15428200Y-11277840D02*
X15458200Y-11307840D01*
X15458200Y-11277840D02*
X15428200Y-11307840D01*
X15539960Y-11359120D02*
X15569960Y-11389120D01*
X15569960Y-11359120D02*
X15539960Y-11389120D01*
X15585680Y-8062200D02*
X15615680Y-8092200D01*
X15615680Y-8062200D02*
X15585680Y-8092200D01*
X15646640Y-12070320D02*
X15676640Y-12100320D01*
X15676640Y-12070320D02*
X15646640Y-12100320D01*
X15673160Y-8325240D02*
X15703160Y-8355240D01*
X15703160Y-8325240D02*
X15673160Y-8355240D01*
X15692360Y-8240000D02*
X15722360Y-8270000D01*
X15722360Y-8240000D02*
X15692360Y-8270000D01*
X15743160Y-11491200D02*
X15773160Y-11521200D01*
X15773160Y-11491200D02*
X15743160Y-11521200D01*
X15849840Y-8590520D02*
X15879840Y-8620520D01*
X15879840Y-8590520D02*
X15849840Y-8620520D01*
X15915880Y-8387890D02*
X15945880Y-8417890D01*
X15945880Y-8387890D02*
X15915880Y-8417890D01*
X15923500Y-9570960D02*
X15953500Y-9600960D01*
X15953500Y-9570960D02*
X15923500Y-9600960D01*
X16059825Y-8391265D02*
X16089825Y-8421265D01*
X16089825Y-8391265D02*
X16059825Y-8421265D01*
X16210520Y-9657320D02*
X16240520Y-9687320D01*
X16240520Y-9657320D02*
X16210520Y-9687320D01*
X16215600Y-7965680D02*
X16245600Y-7995680D01*
X16245600Y-7965680D02*
X16215600Y-7995680D01*
X16266400Y-8859760D02*
X16296400Y-8889760D01*
X16296400Y-8859760D02*
X16266400Y-8889760D01*
X16415910Y-8453360D02*
X16445910Y-8483360D01*
X16445910Y-8453360D02*
X16415910Y-8483360D01*
X16541210Y-8245080D02*
X16571210Y-8275080D01*
X16571210Y-8245080D02*
X16541210Y-8275080D01*
X16606824Y-8451056D02*
X16636824Y-8481056D01*
X16636824Y-8451056D02*
X16606824Y-8481056D01*
X16647400Y-14056600D02*
X16677400Y-14086600D01*
X16677400Y-14056600D02*
X16647400Y-14086600D01*
X16859340Y-8375740D02*
X16889340Y-8405740D01*
X16889340Y-8375740D02*
X16859340Y-8405740D01*
X17013160Y-8549880D02*
X17043160Y-8579880D01*
X17043160Y-8549880D02*
X17013160Y-8579880D01*
X17257000Y-8905480D02*
X17287000Y-8935480D01*
X17287000Y-8905480D02*
X17257000Y-8935480D01*
X17257000Y-10901920D02*
X17287000Y-10931920D01*
X17287000Y-10901920D02*
X17257000Y-10931920D01*
X17348440Y-10764760D02*
X17378440Y-10794760D01*
X17378440Y-10764760D02*
X17348440Y-10794760D01*
X17377993Y-9010870D02*
X17407993Y-9040870D01*
X17407993Y-9010870D02*
X17377993Y-9040870D01*
X17399240Y-14051520D02*
X17429240Y-14081520D01*
X17429240Y-14051520D02*
X17399240Y-14081520D01*
X17490680Y-10901920D02*
X17520680Y-10931920D01*
X17520680Y-10901920D02*
X17490680Y-10931920D01*
X17500765Y-9060795D02*
X17530765Y-9090795D01*
X17530765Y-9060795D02*
X17500765Y-9090795D01*
X17571960Y-9144240D02*
X17601960Y-9174240D01*
X17601960Y-9144240D02*
X17571960Y-9174240D01*
X17571960Y-10901920D02*
X17601960Y-10931920D01*
X17601960Y-10901920D02*
X17571960Y-10931920D01*
X17668480Y-9211070D02*
X17698480Y-9241070D01*
X17698480Y-9211070D02*
X17668480Y-9241070D01*
X17668480Y-10901920D02*
X17698480Y-10931920D01*
X17698480Y-10901920D02*
X17668480Y-10931920D01*
X17775160Y-9260870D02*
X17805160Y-9290870D01*
X17805160Y-9260870D02*
X17775160Y-9290870D01*
X17775160Y-10901920D02*
X17805160Y-10931920D01*
X17805160Y-10901920D02*
X17775160Y-10931920D01*
X17942800Y-6990320D02*
X17972800Y-7020320D01*
X17972800Y-6990320D02*
X17942800Y-7020320D01*
X17942800Y-7112240D02*
X17972800Y-7142240D01*
X17972800Y-7112240D02*
X17942800Y-7142240D01*
X18349200Y-6990320D02*
X18379200Y-7020320D01*
X18379200Y-6990320D02*
X18349200Y-7020320D01*
X18349200Y-7112240D02*
X18379200Y-7142240D01*
X18379200Y-7112240D02*
X18349200Y-7142240D01*
X18389840Y-8748000D02*
X18419840Y-8778000D01*
X18419840Y-8748000D02*
X18389840Y-8778000D01*
X18862280Y-9149320D02*
X18892280Y-9179320D01*
X18892280Y-9149320D02*
X18862280Y-9179320D01*
X18862280Y-10134840D02*
X18892280Y-10164840D01*
X18892280Y-10134840D02*
X18862280Y-10164840D01*
X19029920Y-7986000D02*
X19059920Y-8016000D01*
X19059920Y-7986000D02*
X19029920Y-8016000D01*
X19111200Y-9149320D02*
X19141200Y-9179320D01*
X19141200Y-9149320D02*
X19111200Y-9179320D01*
X19111200Y-10134840D02*
X19141200Y-10164840D01*
X19141200Y-10134840D02*
X19111200Y-10164840D01*
X19294080Y-5908280D02*
X19324080Y-5938280D01*
X19324080Y-5908280D02*
X19294080Y-5938280D01*
X19294080Y-6152120D02*
X19324080Y-6182120D01*
X19324080Y-6152120D02*
X19294080Y-6182120D01*
X19699430Y-6985240D02*
X19729430Y-7015240D01*
X19729430Y-6985240D02*
X19699430Y-7015240D01*
X19715720Y-6741400D02*
X19745720Y-6771400D01*
X19745720Y-6741400D02*
X19715720Y-6771400D01*
X19720800Y-6863320D02*
X19750800Y-6893320D01*
X19750800Y-6863320D02*
X19720800Y-6893320D01*
X19725880Y-6604240D02*
X19755880Y-6634240D01*
X19755880Y-6604240D02*
X19725880Y-6634240D01*
D13*
X12237240Y-9621520D02*
G75*
G03*
X12237240Y-9621520I-30000J0D01*
G01*
X12242320Y-10769600D02*
G75*
G03*
X12242320Y-10769600I-30000J0D01*
G01*
X14497840Y-10769600D02*
G75*
G03*
X14497840Y-10769600I-30000J0D01*
G01*
X15280160Y-10256520D02*
G75*
G03*
X15280160Y-10256520I-30000J0D01*
G01*
X15280160Y-10383520D02*
G75*
G03*
X15280160Y-10383520I-30000J0D01*
G01*
X15315720Y-7726680D02*
G75*
G03*
X15315720Y-7726680I-30000J0D01*
G01*
X15417320Y-7726680D02*
G75*
G03*
X15417320Y-7726680I-30000J0D01*
G01*
X15427480Y-6715760D02*
G75*
G03*
X15427480Y-6715760I-30000J0D01*
G01*
X15518920Y-7726680D02*
G75*
G03*
X15518920Y-7726680I-30000J0D01*
G01*
X15620520Y-7726680D02*
G75*
G03*
X15620520Y-7726680I-30000J0D01*
G01*
X15686560Y-9692640D02*
G75*
G03*
X15686560Y-9692640I-30000J0D01*
G01*
X15838960Y-9291320D02*
G75*
G03*
X15838960Y-9291320I-30000J0D01*
G01*
X15849120Y-7122160D02*
G75*
G03*
X15849120Y-7122160I-30000J0D01*
G01*
X15869440Y-9723120D02*
G75*
G03*
X15869440Y-9723120I-30000J0D01*
G01*
X15874520Y-6537960D02*
G75*
G03*
X15874520Y-6537960I-30000J0D01*
G01*
X15965960Y-9911080D02*
G75*
G03*
X15965960Y-9911080I-30000J0D01*
G01*
X15996440Y-7447280D02*
G75*
G03*
X15996440Y-7447280I-30000J0D01*
G01*
X16057400Y-10068560D02*
G75*
G03*
X16057400Y-10068560I-30000J0D01*
G01*
X16199640Y-8905870D02*
G75*
G03*
X16199640Y-8905870I-30000J0D01*
G01*
X16428240Y-10378440D02*
G75*
G03*
X16428240Y-10378440I-30000J0D01*
G01*
X16458720Y-6710680D02*
G75*
G03*
X16458720Y-6710680I-30000J0D01*
G01*
X16468880Y-11836400D02*
G75*
G03*
X16468880Y-11836400I-30000J0D01*
G01*
X16468880Y-12979400D02*
G75*
G03*
X16468880Y-12979400I-30000J0D01*
G01*
X16519680Y-9382760D02*
G75*
G03*
X16519680Y-9382760I-30000J0D01*
G01*
X16607340Y-10047980D02*
G75*
G03*
X16607340Y-10047980I-30000J0D01*
G01*
X16682240Y-10459720D02*
G75*
G03*
X16682240Y-10459720I-30000J0D01*
G01*
X16834640Y-10464800D02*
G75*
G03*
X16834640Y-10464800I-30000J0D01*
G01*
X16875280Y-7371080D02*
G75*
G03*
X16875280Y-7371080I-30000J0D01*
G01*
X16987040Y-10459720D02*
G75*
G03*
X16987040Y-10459720I-30000J0D01*
G01*
X17108960Y-10180320D02*
G75*
G03*
X17108960Y-10180320I-30000J0D01*
G01*
X17114040Y-9875520D02*
G75*
G03*
X17114040Y-9875520I-30000J0D01*
G01*
X17114040Y-10027920D02*
G75*
G03*
X17114040Y-10027920I-30000J0D01*
G01*
X17185160Y-8823960D02*
G75*
G03*
X17185160Y-8823960I-30000J0D01*
G01*
X17210560Y-9795290D02*
G75*
G03*
X17210560Y-9795290I-30000J0D01*
G01*
X18414520Y-7386320D02*
G75*
G03*
X18414520Y-7386320I-30000J0D01*
G01*
X18419600Y-7635240D02*
G75*
G03*
X18419600Y-7635240I-30000J0D01*
G01*
X18688911Y-4907280D02*
G75*
G03*
X18688911Y-4907280I-30000J0D01*
G01*
X18724400Y-12979400D02*
G75*
G03*
X18724400Y-12979400I-30000J0D01*
G01*
X19115560Y-7386320D02*
G75*
G03*
X19115560Y-7386320I-30000J0D01*
G01*
X19516880Y-12471400D02*
G75*
G03*
X19516880Y-12471400I-30000J0D01*
G01*
X19516880Y-12603480D02*
G75*
G03*
X19516880Y-12603480I-30000J0D01*
G01*
D10*
X11992500Y-6323400D02*
X11992500Y-6423400D01*
X11942500Y-6373400D02*
X12042500Y-6373400D01*
X11992500Y-6577400D02*
X11992500Y-6677400D01*
X11942500Y-6627400D02*
X12042500Y-6627400D01*
X11992500Y-6831400D02*
X11992500Y-6931400D01*
X11942500Y-6881400D02*
X12042500Y-6881400D01*
X11992500Y-7085400D02*
X11992500Y-7185400D01*
X11942500Y-7135400D02*
X12042500Y-7135400D01*
X11992500Y-7339400D02*
X11992500Y-7439400D01*
X11942500Y-7389400D02*
X12042500Y-7389400D01*
X12246500Y-6323400D02*
X12246500Y-6423400D01*
X12196500Y-6373400D02*
X12296500Y-6373400D01*
X12246500Y-6577400D02*
X12246500Y-6677400D01*
X12196500Y-6627400D02*
X12296500Y-6627400D01*
X12246500Y-6831400D02*
X12246500Y-6931400D01*
X12196500Y-6881400D02*
X12296500Y-6881400D01*
X12246500Y-7085400D02*
X12246500Y-7185400D01*
X12196500Y-7135400D02*
X12296500Y-7135400D01*
X12246500Y-7339400D02*
X12246500Y-7439400D01*
X12196500Y-7389400D02*
X12296500Y-7389400D01*
X12319000Y-5157000D02*
X12319000Y-5257000D01*
X12269000Y-5207000D02*
X12369000Y-5207000D01*
X12319000Y-5411000D02*
X12319000Y-5511000D01*
X12269000Y-5461000D02*
X12369000Y-5461000D01*
X12319000Y-5665000D02*
X12319000Y-5765000D01*
X12269000Y-5715000D02*
X12369000Y-5715000D01*
X12319000Y-5919000D02*
X12319000Y-6019000D01*
X12269000Y-5969000D02*
X12369000Y-5969000D01*
X12573000Y-5157000D02*
X12573000Y-5257000D01*
X12523000Y-5207000D02*
X12623000Y-5207000D01*
X12573000Y-5411000D02*
X12573000Y-5511000D01*
X12523000Y-5461000D02*
X12623000Y-5461000D01*
X12573000Y-5665000D02*
X12573000Y-5765000D01*
X12523000Y-5715000D02*
X12623000Y-5715000D01*
X12573000Y-5919000D02*
X12573000Y-6019000D01*
X12523000Y-5969000D02*
X12623000Y-5969000D01*
X12827000Y-5157000D02*
X12827000Y-5257000D01*
X12777000Y-5207000D02*
X12877000Y-5207000D01*
X12827000Y-5411000D02*
X12827000Y-5511000D01*
X12777000Y-5461000D02*
X12877000Y-5461000D01*
X12827000Y-5665000D02*
X12827000Y-5765000D01*
X12777000Y-5715000D02*
X12877000Y-5715000D01*
X12827000Y-5919000D02*
X12827000Y-6019000D01*
X12777000Y-5969000D02*
X12877000Y-5969000D01*
X13081000Y-5157000D02*
X13081000Y-5257000D01*
X13031000Y-5207000D02*
X13131000Y-5207000D01*
X13081000Y-5411000D02*
X13081000Y-5511000D01*
X13031000Y-5461000D02*
X13131000Y-5461000D01*
X13081000Y-5665000D02*
X13081000Y-5765000D01*
X13031000Y-5715000D02*
X13131000Y-5715000D01*
X13081000Y-5919000D02*
X13081000Y-6019000D01*
X13031000Y-5969000D02*
X13131000Y-5969000D01*
X13335000Y-5157000D02*
X13335000Y-5257000D01*
X13285000Y-5207000D02*
X13385000Y-5207000D01*
X13335000Y-5411000D02*
X13335000Y-5511000D01*
X13285000Y-5461000D02*
X13385000Y-5461000D01*
X13335000Y-5665000D02*
X13335000Y-5765000D01*
X13285000Y-5715000D02*
X13385000Y-5715000D01*
X13335000Y-5919000D02*
X13335000Y-6019000D01*
X13285000Y-5969000D02*
X13385000Y-5969000D01*
X13589000Y-5157000D02*
X13589000Y-5257000D01*
X13539000Y-5207000D02*
X13639000Y-5207000D01*
X13589000Y-5411000D02*
X13589000Y-5511000D01*
X13539000Y-5461000D02*
X13639000Y-5461000D01*
X13589000Y-5665000D02*
X13589000Y-5765000D01*
X13539000Y-5715000D02*
X13639000Y-5715000D01*
X13589000Y-5919000D02*
X13589000Y-6019000D01*
X13539000Y-5969000D02*
X13639000Y-5969000D01*
X13843000Y-5157000D02*
X13843000Y-5257000D01*
X13793000Y-5207000D02*
X13893000Y-5207000D01*
X13843000Y-5411000D02*
X13843000Y-5511000D01*
X13793000Y-5461000D02*
X13893000Y-5461000D01*
X13843000Y-5665000D02*
X13843000Y-5765000D01*
X13793000Y-5715000D02*
X13893000Y-5715000D01*
X13843000Y-5919000D02*
X13843000Y-6019000D01*
X13793000Y-5969000D02*
X13893000Y-5969000D01*
X14097000Y-5157000D02*
X14097000Y-5257000D01*
X14047000Y-5207000D02*
X14147000Y-5207000D01*
X14097000Y-5411000D02*
X14097000Y-5511000D01*
X14047000Y-5461000D02*
X14147000Y-5461000D01*
X14097000Y-5665000D02*
X14097000Y-5765000D01*
X14047000Y-5715000D02*
X14147000Y-5715000D01*
X14097000Y-5919000D02*
X14097000Y-6019000D01*
X14047000Y-5969000D02*
X14147000Y-5969000D01*
X14351000Y-5157000D02*
X14351000Y-5257000D01*
X14301000Y-5207000D02*
X14401000Y-5207000D01*
X14351000Y-5411000D02*
X14351000Y-5511000D01*
X14301000Y-5461000D02*
X14401000Y-5461000D01*
X14351000Y-5665000D02*
X14351000Y-5765000D01*
X14301000Y-5715000D02*
X14401000Y-5715000D01*
X14351000Y-5919000D02*
X14351000Y-6019000D01*
X14301000Y-5969000D02*
X14401000Y-5969000D01*
X14605000Y-5157000D02*
X14605000Y-5257000D01*
X14555000Y-5207000D02*
X14655000Y-5207000D01*
X14605000Y-5411000D02*
X14605000Y-5511000D01*
X14555000Y-5461000D02*
X14655000Y-5461000D01*
X14605000Y-5665000D02*
X14605000Y-5765000D01*
X14555000Y-5715000D02*
X14655000Y-5715000D01*
X14605000Y-5919000D02*
X14605000Y-6019000D01*
X14555000Y-5969000D02*
X14655000Y-5969000D01*
X14859000Y-5157000D02*
X14859000Y-5257000D01*
X14809000Y-5207000D02*
X14909000Y-5207000D01*
X14859000Y-5411000D02*
X14859000Y-5511000D01*
X14809000Y-5461000D02*
X14909000Y-5461000D01*
X14859000Y-5665000D02*
X14859000Y-5765000D01*
X14809000Y-5715000D02*
X14909000Y-5715000D01*
X14859000Y-5919000D02*
X14859000Y-6019000D01*
X14809000Y-5969000D02*
X14909000Y-5969000D01*
X15113000Y-5157000D02*
X15113000Y-5257000D01*
X15063000Y-5207000D02*
X15163000Y-5207000D01*
X15113000Y-5411000D02*
X15113000Y-5511000D01*
X15063000Y-5461000D02*
X15163000Y-5461000D01*
X15113000Y-5665000D02*
X15113000Y-5765000D01*
X15063000Y-5715000D02*
X15163000Y-5715000D01*
X15113000Y-5919000D02*
X15113000Y-6019000D01*
X15063000Y-5969000D02*
X15163000Y-5969000D01*
X15367000Y-5157000D02*
X15367000Y-5257000D01*
X15317000Y-5207000D02*
X15417000Y-5207000D01*
X15367000Y-5411000D02*
X15367000Y-5511000D01*
X15317000Y-5461000D02*
X15417000Y-5461000D01*
X15367000Y-5665000D02*
X15367000Y-5765000D01*
X15317000Y-5715000D02*
X15417000Y-5715000D01*
X15367000Y-5919000D02*
X15367000Y-6019000D01*
X15317000Y-5969000D02*
X15417000Y-5969000D01*
X15621000Y-5157000D02*
X15621000Y-5257000D01*
X15571000Y-5207000D02*
X15671000Y-5207000D01*
X15621000Y-5411000D02*
X15621000Y-5511000D01*
X15571000Y-5461000D02*
X15671000Y-5461000D01*
X15621000Y-5665000D02*
X15621000Y-5765000D01*
X15571000Y-5715000D02*
X15671000Y-5715000D01*
X15621000Y-5919000D02*
X15621000Y-6019000D01*
X15571000Y-5969000D02*
X15671000Y-5969000D01*
X15875000Y-5157000D02*
X15875000Y-5257000D01*
X15825000Y-5207000D02*
X15925000Y-5207000D01*
X15875000Y-5411000D02*
X15875000Y-5511000D01*
X15825000Y-5461000D02*
X15925000Y-5461000D01*
X15875000Y-5665000D02*
X15875000Y-5765000D01*
X15825000Y-5715000D02*
X15925000Y-5715000D01*
X15875000Y-5919000D02*
X15875000Y-6019000D01*
X15825000Y-5969000D02*
X15925000Y-5969000D01*
X16129000Y-5157000D02*
X16129000Y-5257000D01*
X16079000Y-5207000D02*
X16179000Y-5207000D01*
X16129000Y-5411000D02*
X16129000Y-5511000D01*
X16079000Y-5461000D02*
X16179000Y-5461000D01*
X16129000Y-5665000D02*
X16129000Y-5765000D01*
X16079000Y-5715000D02*
X16179000Y-5715000D01*
X16129000Y-5919000D02*
X16129000Y-6019000D01*
X16079000Y-5969000D02*
X16179000Y-5969000D01*
X16383000Y-5157000D02*
X16383000Y-5257000D01*
X16333000Y-5207000D02*
X16433000Y-5207000D01*
X16383000Y-5411000D02*
X16383000Y-5511000D01*
X16333000Y-5461000D02*
X16433000Y-5461000D01*
X16383000Y-5665000D02*
X16383000Y-5765000D01*
X16333000Y-5715000D02*
X16433000Y-5715000D01*
X16383000Y-5919000D02*
X16383000Y-6019000D01*
X16333000Y-5969000D02*
X16433000Y-5969000D01*
X16637000Y-5157000D02*
X16637000Y-5257000D01*
X16587000Y-5207000D02*
X16687000Y-5207000D01*
X16637000Y-5411000D02*
X16637000Y-5511000D01*
X16587000Y-5461000D02*
X16687000Y-5461000D01*
X16637000Y-5665000D02*
X16637000Y-5765000D01*
X16587000Y-5715000D02*
X16687000Y-5715000D01*
X16637000Y-5919000D02*
X16637000Y-6019000D01*
X16587000Y-5969000D02*
X16687000Y-5969000D01*
X16891000Y-5157000D02*
X16891000Y-5257000D01*
X16841000Y-5207000D02*
X16941000Y-5207000D01*
X16891000Y-5411000D02*
X16891000Y-5511000D01*
X16841000Y-5461000D02*
X16941000Y-5461000D01*
X16891000Y-5665000D02*
X16891000Y-5765000D01*
X16841000Y-5715000D02*
X16941000Y-5715000D01*
X16891000Y-5919000D02*
X16891000Y-6019000D01*
X16841000Y-5969000D02*
X16941000Y-5969000D01*
X17145000Y-5157000D02*
X17145000Y-5257000D01*
X17095000Y-5207000D02*
X17195000Y-5207000D01*
X17145000Y-5411000D02*
X17145000Y-5511000D01*
X17095000Y-5461000D02*
X17195000Y-5461000D01*
X17145000Y-5665000D02*
X17145000Y-5765000D01*
X17095000Y-5715000D02*
X17195000Y-5715000D01*
X17145000Y-5919000D02*
X17145000Y-6019000D01*
X17095000Y-5969000D02*
X17195000Y-5969000D01*
X17399000Y-5157000D02*
X17399000Y-5257000D01*
X17349000Y-5207000D02*
X17449000Y-5207000D01*
X17399000Y-5411000D02*
X17399000Y-5511000D01*
X17349000Y-5461000D02*
X17449000Y-5461000D01*
X17399000Y-5665000D02*
X17399000Y-5765000D01*
X17349000Y-5715000D02*
X17449000Y-5715000D01*
X17399000Y-5919000D02*
X17399000Y-6019000D01*
X17349000Y-5969000D02*
X17449000Y-5969000D01*
X17653000Y-5157000D02*
X17653000Y-5257000D01*
X17603000Y-5207000D02*
X17703000Y-5207000D01*
X17653000Y-5411000D02*
X17653000Y-5511000D01*
X17603000Y-5461000D02*
X17703000Y-5461000D01*
X17653000Y-5665000D02*
X17653000Y-5765000D01*
X17603000Y-5715000D02*
X17703000Y-5715000D01*
X17653000Y-5919000D02*
X17653000Y-6019000D01*
X17603000Y-5969000D02*
X17703000Y-5969000D01*
X17907000Y-5157000D02*
X17907000Y-5257000D01*
X17857000Y-5207000D02*
X17957000Y-5207000D01*
X17907000Y-5411000D02*
X17907000Y-5511000D01*
X17857000Y-5461000D02*
X17957000Y-5461000D01*
X17907000Y-5665000D02*
X17907000Y-5765000D01*
X17857000Y-5715000D02*
X17957000Y-5715000D01*
X17907000Y-5919000D02*
X17907000Y-6019000D01*
X17857000Y-5969000D02*
X17957000Y-5969000D01*
X18161000Y-5157000D02*
X18161000Y-5257000D01*
X18111000Y-5207000D02*
X18211000Y-5207000D01*
X18161000Y-5411000D02*
X18161000Y-5511000D01*
X18111000Y-5461000D02*
X18211000Y-5461000D01*
X18161000Y-5665000D02*
X18161000Y-5765000D01*
X18111000Y-5715000D02*
X18211000Y-5715000D01*
X18161000Y-5919000D02*
X18161000Y-6019000D01*
X18111000Y-5969000D02*
X18211000Y-5969000D01*
X18415000Y-5157000D02*
X18415000Y-5257000D01*
X18365000Y-5207000D02*
X18465000Y-5207000D01*
X18415000Y-5411000D02*
X18415000Y-5511000D01*
X18365000Y-5461000D02*
X18465000Y-5461000D01*
X18415000Y-5665000D02*
X18415000Y-5765000D01*
X18365000Y-5715000D02*
X18465000Y-5715000D01*
X18415000Y-5919000D02*
X18415000Y-6019000D01*
X18365000Y-5969000D02*
X18465000Y-5969000D01*
X18623280Y-7950000D02*
X18623280Y-8050000D01*
X18573280Y-8000000D02*
X18673280Y-8000000D01*
X18623280Y-8204000D02*
X18623280Y-8304000D01*
X18573280Y-8254000D02*
X18673280Y-8254000D01*
X18623280Y-8458000D02*
X18623280Y-8558000D01*
X18573280Y-8508000D02*
X18673280Y-8508000D01*
X18623280Y-8712000D02*
X18623280Y-8812000D01*
X18573280Y-8762000D02*
X18673280Y-8762000D01*
X18627200Y-6317820D02*
X18627200Y-6417820D01*
X18577200Y-6367820D02*
X18677200Y-6367820D01*
X18627200Y-6571820D02*
X18627200Y-6671820D01*
X18577200Y-6621820D02*
X18677200Y-6621820D01*
X18627200Y-6825820D02*
X18627200Y-6925820D01*
X18577200Y-6875820D02*
X18677200Y-6875820D01*
X18627200Y-7079820D02*
X18627200Y-7179820D01*
X18577200Y-7129820D02*
X18677200Y-7129820D01*
X18627200Y-7333820D02*
X18627200Y-7433820D01*
X18577200Y-7383820D02*
X18677200Y-7383820D01*
X18627200Y-7587820D02*
X18627200Y-7687820D01*
X18577200Y-7637820D02*
X18677200Y-7637820D01*
X18669000Y-5157000D02*
X18669000Y-5257000D01*
X18619000Y-5207000D02*
X18719000Y-5207000D01*
X18669000Y-5411000D02*
X18669000Y-5511000D01*
X18619000Y-5461000D02*
X18719000Y-5461000D01*
X18669000Y-5665000D02*
X18669000Y-5765000D01*
X18619000Y-5715000D02*
X18719000Y-5715000D01*
X18669000Y-5919000D02*
X18669000Y-6019000D01*
X18619000Y-5969000D02*
X18719000Y-5969000D01*
X18877280Y-7950000D02*
X18877280Y-8050000D01*
X18827280Y-8000000D02*
X18927280Y-8000000D01*
X18877280Y-8204000D02*
X18877280Y-8304000D01*
X18827280Y-8254000D02*
X18927280Y-8254000D01*
X18877280Y-8458000D02*
X18877280Y-8558000D01*
X18827280Y-8508000D02*
X18927280Y-8508000D01*
X18877280Y-8712000D02*
X18877280Y-8812000D01*
X18827280Y-8762000D02*
X18927280Y-8762000D01*
X18881200Y-6317820D02*
X18881200Y-6417820D01*
X18831200Y-6367820D02*
X18931200Y-6367820D01*
X18881200Y-6571820D02*
X18881200Y-6671820D01*
X18831200Y-6621820D02*
X18931200Y-6621820D01*
X18881200Y-6825820D02*
X18881200Y-6925820D01*
X18831200Y-6875820D02*
X18931200Y-6875820D01*
X18881200Y-7079820D02*
X18881200Y-7179820D01*
X18831200Y-7129820D02*
X18931200Y-7129820D01*
X18881200Y-7333820D02*
X18881200Y-7433820D01*
X18831200Y-7383820D02*
X18931200Y-7383820D01*
X18881200Y-7587820D02*
X18881200Y-7687820D01*
X18831200Y-7637820D02*
X18931200Y-7637820D01*
D14*
X11589713Y-13057833D02*
X11589713Y-12951766D01*
X11483646Y-12951766D01*
X11483646Y-13057833D01*
X11589713Y-13057833D01*
X11594793Y-12118033D02*
X11594793Y-12011966D01*
X11488726Y-12011966D01*
X11488726Y-12118033D01*
X11594793Y-12118033D01*
D15*
X11282680Y-12835800D02*
X11367680Y-12750800D01*
X11282680Y-12665800D01*
X11197680Y-12750800D01*
X11282680Y-12835800D01*
X11282680Y-13343800D02*
X11367680Y-13258800D01*
X11282680Y-13173800D01*
X11197680Y-13258800D01*
X11282680Y-13343800D01*
X11287760Y-11896000D02*
X11372760Y-11811000D01*
X11287760Y-11726000D01*
X11202760Y-11811000D01*
X11287760Y-11896000D01*
X11287760Y-12404000D02*
X11372760Y-12319000D01*
X11287760Y-12234000D01*
X11202760Y-12319000D01*
X11287760Y-12404000D01*
X11790680Y-12835800D02*
X11875680Y-12750800D01*
X11790680Y-12665800D01*
X11705680Y-12750800D01*
X11790680Y-12835800D01*
X11790680Y-13343800D02*
X11875680Y-13258800D01*
X11790680Y-13173800D01*
X11705680Y-13258800D01*
X11790680Y-13343800D01*
X11795760Y-11896000D02*
X11880760Y-11811000D01*
X11795760Y-11726000D01*
X11710760Y-11811000D01*
X11795760Y-11896000D01*
X11795760Y-12404000D02*
X11880760Y-12319000D01*
X11795760Y-12234000D01*
X11710760Y-12319000D01*
X11795760Y-12404000D01*
D16*
X11270000Y-13619500D02*
X11590000Y-13939500D01*
X11590000Y-13619500D02*
X11270000Y-13939500D01*
X11590000Y-13779500D02*
G75*
G03*
X11590000Y-13779500I-160000J0D01*
G01*
X11651000Y-5047000D02*
X11971000Y-5367000D01*
X11971000Y-5047000D02*
X11651000Y-5367000D01*
X11971000Y-5207000D02*
G75*
G03*
X11971000Y-5207000I-160000J0D01*
G01*
X19017000Y-5047000D02*
X19337000Y-5367000D01*
X19337000Y-5047000D02*
X19017000Y-5367000D01*
X19337000Y-5207000D02*
G75*
G03*
X19337000Y-5207000I-160000J0D01*
G01*
X19271000Y-13619500D02*
X19591000Y-13939500D01*
X19591000Y-13619500D02*
X19271000Y-13939500D01*
X19591000Y-13779500D02*
G75*
G03*
X19591000Y-13779500I-160000J0D01*
G01*
D11*
X11174619Y-14602976D02*
X11174619Y-14402976D01*
X11222238Y-14402976D01*
X11250809Y-14412500D01*
X11269857Y-14431548D01*
X11279381Y-14450595D01*
X11288905Y-14488690D01*
X11288905Y-14517262D01*
X11279381Y-14555357D01*
X11269857Y-14574405D01*
X11250809Y-14593452D01*
X11222238Y-14602976D01*
X11174619Y-14602976D01*
X11374619Y-14602976D02*
X11374619Y-14469643D01*
X11374619Y-14507738D02*
X11384143Y-14488690D01*
X11393667Y-14479167D01*
X11412714Y-14469643D01*
X11431762Y-14469643D01*
X11498428Y-14602976D02*
X11498428Y-14469643D01*
X11498428Y-14402976D02*
X11488905Y-14412500D01*
X11498428Y-14422024D01*
X11507952Y-14412500D01*
X11498428Y-14402976D01*
X11498428Y-14422024D01*
X11622238Y-14602976D02*
X11603190Y-14593452D01*
X11593667Y-14574405D01*
X11593667Y-14402976D01*
X11727000Y-14602976D02*
X11707952Y-14593452D01*
X11698428Y-14574405D01*
X11698428Y-14402976D01*
X11955571Y-14602976D02*
X11955571Y-14402976D01*
X12022238Y-14545833D01*
X12088905Y-14402976D01*
X12088905Y-14602976D01*
X12269857Y-14602976D02*
X12269857Y-14498214D01*
X12260333Y-14479167D01*
X12241286Y-14469643D01*
X12203190Y-14469643D01*
X12184143Y-14479167D01*
X12269857Y-14593452D02*
X12250809Y-14602976D01*
X12203190Y-14602976D01*
X12184143Y-14593452D01*
X12174619Y-14574405D01*
X12174619Y-14555357D01*
X12184143Y-14536309D01*
X12203190Y-14526786D01*
X12250809Y-14526786D01*
X12269857Y-14517262D01*
X12365095Y-14469643D02*
X12365095Y-14669643D01*
X12365095Y-14479167D02*
X12384143Y-14469643D01*
X12422238Y-14469643D01*
X12441286Y-14479167D01*
X12450809Y-14488690D01*
X12460333Y-14507738D01*
X12460333Y-14564881D01*
X12450809Y-14583928D01*
X12441286Y-14593452D01*
X12422238Y-14602976D01*
X12384143Y-14602976D01*
X12365095Y-14593452D01*
X12546048Y-14583928D02*
X12555571Y-14593452D01*
X12546048Y-14602976D01*
X12536524Y-14593452D01*
X12546048Y-14583928D01*
X12546048Y-14602976D01*
X12546048Y-14479167D02*
X12555571Y-14488690D01*
X12546048Y-14498214D01*
X12536524Y-14488690D01*
X12546048Y-14479167D01*
X12546048Y-14498214D01*
D12*
X10887000Y-14917500D02*
X10917000Y-14947500D01*
X10917000Y-14917500D02*
X10887000Y-14947500D01*
D11*
X11212714Y-14822976D02*
X11231762Y-14822976D01*
X11250809Y-14832500D01*
X11260333Y-14842024D01*
X11269857Y-14861071D01*
X11279381Y-14899167D01*
X11279381Y-14946786D01*
X11269857Y-14984881D01*
X11260333Y-15003928D01*
X11250809Y-15013452D01*
X11231762Y-15022976D01*
X11212714Y-15022976D01*
X11193667Y-15013452D01*
X11184143Y-15003928D01*
X11174619Y-14984881D01*
X11165095Y-14946786D01*
X11165095Y-14899167D01*
X11174619Y-14861071D01*
X11184143Y-14842024D01*
X11193667Y-14832500D01*
X11212714Y-14822976D01*
X11365095Y-15003928D02*
X11374619Y-15013452D01*
X11365095Y-15022976D01*
X11355571Y-15013452D01*
X11365095Y-15003928D01*
X11365095Y-15022976D01*
X11441286Y-14822976D02*
X11565095Y-14822976D01*
X11498428Y-14899167D01*
X11527000Y-14899167D01*
X11546048Y-14908690D01*
X11555571Y-14918214D01*
X11565095Y-14937262D01*
X11565095Y-14984881D01*
X11555571Y-15003928D01*
X11546048Y-15013452D01*
X11527000Y-15022976D01*
X11469857Y-15022976D01*
X11450809Y-15013452D01*
X11441286Y-15003928D01*
X11688905Y-14822976D02*
X11707952Y-14822976D01*
X11727000Y-14832500D01*
X11736524Y-14842024D01*
X11746048Y-14861071D01*
X11755571Y-14899167D01*
X11755571Y-14946786D01*
X11746048Y-14984881D01*
X11736524Y-15003928D01*
X11727000Y-15013452D01*
X11707952Y-15022976D01*
X11688905Y-15022976D01*
X11669857Y-15013452D01*
X11660333Y-15003928D01*
X11650809Y-14984881D01*
X11641286Y-14946786D01*
X11641286Y-14899167D01*
X11650809Y-14861071D01*
X11660333Y-14842024D01*
X11669857Y-14832500D01*
X11688905Y-14822976D01*
X11879381Y-14822976D02*
X11898428Y-14822976D01*
X11917476Y-14832500D01*
X11927000Y-14842024D01*
X11936524Y-14861071D01*
X11946048Y-14899167D01*
X11946048Y-14946786D01*
X11936524Y-14984881D01*
X11927000Y-15003928D01*
X11917476Y-15013452D01*
X11898428Y-15022976D01*
X11879381Y-15022976D01*
X11860333Y-15013452D01*
X11850809Y-15003928D01*
X11841286Y-14984881D01*
X11831762Y-14946786D01*
X11831762Y-14899167D01*
X11841286Y-14861071D01*
X11850809Y-14842024D01*
X11860333Y-14832500D01*
X11879381Y-14822976D01*
X12031762Y-15022976D02*
X12031762Y-14889643D01*
X12031762Y-14908690D02*
X12041286Y-14899167D01*
X12060333Y-14889643D01*
X12088905Y-14889643D01*
X12107952Y-14899167D01*
X12117476Y-14918214D01*
X12117476Y-15022976D01*
X12117476Y-14918214D02*
X12127000Y-14899167D01*
X12146048Y-14889643D01*
X12174619Y-14889643D01*
X12193667Y-14899167D01*
X12203190Y-14918214D01*
X12203190Y-15022976D01*
X12298428Y-15022976D02*
X12298428Y-14889643D01*
X12298428Y-14908690D02*
X12307952Y-14899167D01*
X12327000Y-14889643D01*
X12355571Y-14889643D01*
X12374619Y-14899167D01*
X12384143Y-14918214D01*
X12384143Y-15022976D01*
X12384143Y-14918214D02*
X12393667Y-14899167D01*
X12412714Y-14889643D01*
X12441286Y-14889643D01*
X12460333Y-14899167D01*
X12469857Y-14918214D01*
X12469857Y-15022976D01*
X12860333Y-14813452D02*
X12688905Y-15070595D01*
X13117476Y-14822976D02*
X13136524Y-14822976D01*
X13155571Y-14832500D01*
X13165095Y-14842024D01*
X13174619Y-14861071D01*
X13184143Y-14899167D01*
X13184143Y-14946786D01*
X13174619Y-14984881D01*
X13165095Y-15003928D01*
X13155571Y-15013452D01*
X13136524Y-15022976D01*
X13117476Y-15022976D01*
X13098428Y-15013452D01*
X13088905Y-15003928D01*
X13079381Y-14984881D01*
X13069857Y-14946786D01*
X13069857Y-14899167D01*
X13079381Y-14861071D01*
X13088905Y-14842024D01*
X13098428Y-14832500D01*
X13117476Y-14822976D01*
X13269857Y-15003928D02*
X13279381Y-15013452D01*
X13269857Y-15022976D01*
X13260333Y-15013452D01*
X13269857Y-15003928D01*
X13269857Y-15022976D01*
X13403190Y-14822976D02*
X13422238Y-14822976D01*
X13441286Y-14832500D01*
X13450809Y-14842024D01*
X13460333Y-14861071D01*
X13469857Y-14899167D01*
X13469857Y-14946786D01*
X13460333Y-14984881D01*
X13450809Y-15003928D01*
X13441286Y-15013452D01*
X13422238Y-15022976D01*
X13403190Y-15022976D01*
X13384143Y-15013452D01*
X13374619Y-15003928D01*
X13365095Y-14984881D01*
X13355571Y-14946786D01*
X13355571Y-14899167D01*
X13365095Y-14861071D01*
X13374619Y-14842024D01*
X13384143Y-14832500D01*
X13403190Y-14822976D01*
X13660333Y-15022976D02*
X13546048Y-15022976D01*
X13603190Y-15022976D02*
X13603190Y-14822976D01*
X13584143Y-14851548D01*
X13565095Y-14870595D01*
X13546048Y-14880119D01*
X13850809Y-15022976D02*
X13736524Y-15022976D01*
X13793667Y-15022976D02*
X13793667Y-14822976D01*
X13774619Y-14851548D01*
X13755571Y-14870595D01*
X13736524Y-14880119D01*
X13965095Y-14908690D02*
X13946048Y-14899167D01*
X13936524Y-14889643D01*
X13927000Y-14870595D01*
X13927000Y-14861071D01*
X13936524Y-14842024D01*
X13946048Y-14832500D01*
X13965095Y-14822976D01*
X14003190Y-14822976D01*
X14022238Y-14832500D01*
X14031762Y-14842024D01*
X14041286Y-14861071D01*
X14041286Y-14870595D01*
X14031762Y-14889643D01*
X14022238Y-14899167D01*
X14003190Y-14908690D01*
X13965095Y-14908690D01*
X13946048Y-14918214D01*
X13936524Y-14927738D01*
X13927000Y-14946786D01*
X13927000Y-14984881D01*
X13936524Y-15003928D01*
X13946048Y-15013452D01*
X13965095Y-15022976D01*
X14003190Y-15022976D01*
X14022238Y-15013452D01*
X14031762Y-15003928D01*
X14041286Y-14984881D01*
X14041286Y-14946786D01*
X14031762Y-14927738D01*
X14022238Y-14918214D01*
X14003190Y-14908690D01*
X14117476Y-14822976D02*
X14117476Y-14861071D01*
X14193667Y-14822976D02*
X14193667Y-14861071D01*
X14488905Y-15099167D02*
X14479381Y-15089643D01*
X14460333Y-15061071D01*
X14450809Y-15042024D01*
X14441286Y-15013452D01*
X14431762Y-14965833D01*
X14431762Y-14927738D01*
X14441286Y-14880119D01*
X14450809Y-14851548D01*
X14460333Y-14832500D01*
X14479381Y-14803928D01*
X14488905Y-14794405D01*
X14669857Y-15022976D02*
X14555571Y-15022976D01*
X14612714Y-15022976D02*
X14612714Y-14822976D01*
X14593667Y-14851548D01*
X14574619Y-14870595D01*
X14555571Y-14880119D01*
X14793667Y-14822976D02*
X14812714Y-14822976D01*
X14831762Y-14832500D01*
X14841286Y-14842024D01*
X14850809Y-14861071D01*
X14860333Y-14899167D01*
X14860333Y-14946786D01*
X14850809Y-14984881D01*
X14841286Y-15003928D01*
X14831762Y-15013452D01*
X14812714Y-15022976D01*
X14793667Y-15022976D01*
X14774619Y-15013452D01*
X14765095Y-15003928D01*
X14755571Y-14984881D01*
X14746048Y-14946786D01*
X14746048Y-14899167D01*
X14755571Y-14861071D01*
X14765095Y-14842024D01*
X14774619Y-14832500D01*
X14793667Y-14822976D01*
X14955571Y-15022976D02*
X14993667Y-15022976D01*
X15012714Y-15013452D01*
X15022238Y-15003928D01*
X15041286Y-14975357D01*
X15050809Y-14937262D01*
X15050809Y-14861071D01*
X15041286Y-14842024D01*
X15031762Y-14832500D01*
X15012714Y-14822976D01*
X14974619Y-14822976D01*
X14955571Y-14832500D01*
X14946048Y-14842024D01*
X14936524Y-14861071D01*
X14936524Y-14908690D01*
X14946048Y-14927738D01*
X14955571Y-14937262D01*
X14974619Y-14946786D01*
X15012714Y-14946786D01*
X15031762Y-14937262D01*
X15041286Y-14927738D01*
X15050809Y-14908690D01*
X15288905Y-15022976D02*
X15288905Y-14822976D01*
X15374619Y-15022976D02*
X15374619Y-14918214D01*
X15365095Y-14899167D01*
X15346048Y-14889643D01*
X15317476Y-14889643D01*
X15298428Y-14899167D01*
X15288905Y-14908690D01*
X15498428Y-15022976D02*
X15479381Y-15013452D01*
X15469857Y-15003928D01*
X15460333Y-14984881D01*
X15460333Y-14927738D01*
X15469857Y-14908690D01*
X15479381Y-14899167D01*
X15498428Y-14889643D01*
X15527000Y-14889643D01*
X15546048Y-14899167D01*
X15555571Y-14908690D01*
X15565095Y-14927738D01*
X15565095Y-14984881D01*
X15555571Y-15003928D01*
X15546048Y-15013452D01*
X15527000Y-15022976D01*
X15498428Y-15022976D01*
X15679381Y-15022976D02*
X15660333Y-15013452D01*
X15650809Y-14994405D01*
X15650809Y-14822976D01*
X15831762Y-15013452D02*
X15812714Y-15022976D01*
X15774619Y-15022976D01*
X15755571Y-15013452D01*
X15746048Y-14994405D01*
X15746048Y-14918214D01*
X15755571Y-14899167D01*
X15774619Y-14889643D01*
X15812714Y-14889643D01*
X15831762Y-14899167D01*
X15841286Y-14918214D01*
X15841286Y-14937262D01*
X15746048Y-14956309D01*
X15917476Y-15013452D02*
X15936524Y-15022976D01*
X15974619Y-15022976D01*
X15993667Y-15013452D01*
X16003190Y-14994405D01*
X16003190Y-14984881D01*
X15993667Y-14965833D01*
X15974619Y-14956309D01*
X15946048Y-14956309D01*
X15927000Y-14946786D01*
X15917476Y-14927738D01*
X15917476Y-14918214D01*
X15927000Y-14899167D01*
X15946048Y-14889643D01*
X15974619Y-14889643D01*
X15993667Y-14899167D01*
X16069857Y-15099167D02*
X16079381Y-15089643D01*
X16098428Y-15061071D01*
X16107952Y-15042024D01*
X16117476Y-15013452D01*
X16127000Y-14965833D01*
X16127000Y-14927738D01*
X16117476Y-14880119D01*
X16107952Y-14851548D01*
X16098428Y-14832500D01*
X16079381Y-14803928D01*
X16069857Y-14794405D01*
D13*
X10917000Y-15196500D02*
G75*
G03*
X10917000Y-15196500I-30000J0D01*
G01*
D11*
X11212714Y-15086976D02*
X11231762Y-15086976D01*
X11250809Y-15096500D01*
X11260333Y-15106024D01*
X11269857Y-15125071D01*
X11279381Y-15163167D01*
X11279381Y-15210786D01*
X11269857Y-15248881D01*
X11260333Y-15267928D01*
X11250809Y-15277452D01*
X11231762Y-15286976D01*
X11212714Y-15286976D01*
X11193667Y-15277452D01*
X11184143Y-15267928D01*
X11174619Y-15248881D01*
X11165095Y-15210786D01*
X11165095Y-15163167D01*
X11174619Y-15125071D01*
X11184143Y-15106024D01*
X11193667Y-15096500D01*
X11212714Y-15086976D01*
X11365095Y-15267928D02*
X11374619Y-15277452D01*
X11365095Y-15286976D01*
X11355571Y-15277452D01*
X11365095Y-15267928D01*
X11365095Y-15286976D01*
X11546048Y-15086976D02*
X11507952Y-15086976D01*
X11488905Y-15096500D01*
X11479381Y-15106024D01*
X11460333Y-15134595D01*
X11450809Y-15172690D01*
X11450809Y-15248881D01*
X11460333Y-15267928D01*
X11469857Y-15277452D01*
X11488905Y-15286976D01*
X11527000Y-15286976D01*
X11546048Y-15277452D01*
X11555571Y-15267928D01*
X11565095Y-15248881D01*
X11565095Y-15201262D01*
X11555571Y-15182214D01*
X11546048Y-15172690D01*
X11527000Y-15163167D01*
X11488905Y-15163167D01*
X11469857Y-15172690D01*
X11460333Y-15182214D01*
X11450809Y-15201262D01*
X11688905Y-15086976D02*
X11707952Y-15086976D01*
X11727000Y-15096500D01*
X11736524Y-15106024D01*
X11746048Y-15125071D01*
X11755571Y-15163167D01*
X11755571Y-15210786D01*
X11746048Y-15248881D01*
X11736524Y-15267928D01*
X11727000Y-15277452D01*
X11707952Y-15286976D01*
X11688905Y-15286976D01*
X11669857Y-15277452D01*
X11660333Y-15267928D01*
X11650809Y-15248881D01*
X11641286Y-15210786D01*
X11641286Y-15163167D01*
X11650809Y-15125071D01*
X11660333Y-15106024D01*
X11669857Y-15096500D01*
X11688905Y-15086976D01*
X11879381Y-15086976D02*
X11898428Y-15086976D01*
X11917476Y-15096500D01*
X11927000Y-15106024D01*
X11936524Y-15125071D01*
X11946048Y-15163167D01*
X11946048Y-15210786D01*
X11936524Y-15248881D01*
X11927000Y-15267928D01*
X11917476Y-15277452D01*
X11898428Y-15286976D01*
X11879381Y-15286976D01*
X11860333Y-15277452D01*
X11850809Y-15267928D01*
X11841286Y-15248881D01*
X11831762Y-15210786D01*
X11831762Y-15163167D01*
X11841286Y-15125071D01*
X11850809Y-15106024D01*
X11860333Y-15096500D01*
X11879381Y-15086976D01*
X12031762Y-15286976D02*
X12031762Y-15153643D01*
X12031762Y-15172690D02*
X12041286Y-15163167D01*
X12060333Y-15153643D01*
X12088905Y-15153643D01*
X12107952Y-15163167D01*
X12117476Y-15182214D01*
X12117476Y-15286976D01*
X12117476Y-15182214D02*
X12127000Y-15163167D01*
X12146048Y-15153643D01*
X12174619Y-15153643D01*
X12193667Y-15163167D01*
X12203190Y-15182214D01*
X12203190Y-15286976D01*
X12298428Y-15286976D02*
X12298428Y-15153643D01*
X12298428Y-15172690D02*
X12307952Y-15163167D01*
X12327000Y-15153643D01*
X12355571Y-15153643D01*
X12374619Y-15163167D01*
X12384143Y-15182214D01*
X12384143Y-15286976D01*
X12384143Y-15182214D02*
X12393667Y-15163167D01*
X12412714Y-15153643D01*
X12441286Y-15153643D01*
X12460333Y-15163167D01*
X12469857Y-15182214D01*
X12469857Y-15286976D01*
X12860333Y-15077452D02*
X12688905Y-15334595D01*
X13117476Y-15086976D02*
X13136524Y-15086976D01*
X13155571Y-15096500D01*
X13165095Y-15106024D01*
X13174619Y-15125071D01*
X13184143Y-15163167D01*
X13184143Y-15210786D01*
X13174619Y-15248881D01*
X13165095Y-15267928D01*
X13155571Y-15277452D01*
X13136524Y-15286976D01*
X13117476Y-15286976D01*
X13098428Y-15277452D01*
X13088905Y-15267928D01*
X13079381Y-15248881D01*
X13069857Y-15210786D01*
X13069857Y-15163167D01*
X13079381Y-15125071D01*
X13088905Y-15106024D01*
X13098428Y-15096500D01*
X13117476Y-15086976D01*
X13269857Y-15267928D02*
X13279381Y-15277452D01*
X13269857Y-15286976D01*
X13260333Y-15277452D01*
X13269857Y-15267928D01*
X13269857Y-15286976D01*
X13403190Y-15086976D02*
X13422238Y-15086976D01*
X13441286Y-15096500D01*
X13450809Y-15106024D01*
X13460333Y-15125071D01*
X13469857Y-15163167D01*
X13469857Y-15210786D01*
X13460333Y-15248881D01*
X13450809Y-15267928D01*
X13441286Y-15277452D01*
X13422238Y-15286976D01*
X13403190Y-15286976D01*
X13384143Y-15277452D01*
X13374619Y-15267928D01*
X13365095Y-15248881D01*
X13355571Y-15210786D01*
X13355571Y-15163167D01*
X13365095Y-15125071D01*
X13374619Y-15106024D01*
X13384143Y-15096500D01*
X13403190Y-15086976D01*
X13546048Y-15106024D02*
X13555571Y-15096500D01*
X13574619Y-15086976D01*
X13622238Y-15086976D01*
X13641286Y-15096500D01*
X13650809Y-15106024D01*
X13660333Y-15125071D01*
X13660333Y-15144119D01*
X13650809Y-15172690D01*
X13536524Y-15286976D01*
X13660333Y-15286976D01*
X13727000Y-15086976D02*
X13850809Y-15086976D01*
X13784143Y-15163167D01*
X13812714Y-15163167D01*
X13831762Y-15172690D01*
X13841286Y-15182214D01*
X13850809Y-15201262D01*
X13850809Y-15248881D01*
X13841286Y-15267928D01*
X13831762Y-15277452D01*
X13812714Y-15286976D01*
X13755571Y-15286976D01*
X13736524Y-15277452D01*
X13727000Y-15267928D01*
X14022238Y-15086976D02*
X13984143Y-15086976D01*
X13965095Y-15096500D01*
X13955571Y-15106024D01*
X13936524Y-15134595D01*
X13927000Y-15172690D01*
X13927000Y-15248881D01*
X13936524Y-15267928D01*
X13946048Y-15277452D01*
X13965095Y-15286976D01*
X14003190Y-15286976D01*
X14022238Y-15277452D01*
X14031762Y-15267928D01*
X14041286Y-15248881D01*
X14041286Y-15201262D01*
X14031762Y-15182214D01*
X14022238Y-15172690D01*
X14003190Y-15163167D01*
X13965095Y-15163167D01*
X13946048Y-15172690D01*
X13936524Y-15182214D01*
X13927000Y-15201262D01*
X14117476Y-15086976D02*
X14117476Y-15125071D01*
X14193667Y-15086976D02*
X14193667Y-15125071D01*
X14488905Y-15363167D02*
X14479381Y-15353643D01*
X14460333Y-15325071D01*
X14450809Y-15306024D01*
X14441286Y-15277452D01*
X14431762Y-15229833D01*
X14431762Y-15191738D01*
X14441286Y-15144119D01*
X14450809Y-15115548D01*
X14460333Y-15096500D01*
X14479381Y-15067928D01*
X14488905Y-15058405D01*
X14650809Y-15153643D02*
X14650809Y-15286976D01*
X14603190Y-15077452D02*
X14555571Y-15220309D01*
X14679381Y-15220309D01*
X14860333Y-15286976D02*
X14746048Y-15286976D01*
X14803190Y-15286976D02*
X14803190Y-15086976D01*
X14784143Y-15115548D01*
X14765095Y-15134595D01*
X14746048Y-15144119D01*
X15098428Y-15286976D02*
X15098428Y-15086976D01*
X15184143Y-15286976D02*
X15184143Y-15182214D01*
X15174619Y-15163167D01*
X15155571Y-15153643D01*
X15127000Y-15153643D01*
X15107952Y-15163167D01*
X15098428Y-15172690D01*
X15307952Y-15286976D02*
X15288905Y-15277452D01*
X15279381Y-15267928D01*
X15269857Y-15248881D01*
X15269857Y-15191738D01*
X15279381Y-15172690D01*
X15288905Y-15163167D01*
X15307952Y-15153643D01*
X15336524Y-15153643D01*
X15355571Y-15163167D01*
X15365095Y-15172690D01*
X15374619Y-15191738D01*
X15374619Y-15248881D01*
X15365095Y-15267928D01*
X15355571Y-15277452D01*
X15336524Y-15286976D01*
X15307952Y-15286976D01*
X15488905Y-15286976D02*
X15469857Y-15277452D01*
X15460333Y-15258405D01*
X15460333Y-15086976D01*
X15641286Y-15277452D02*
X15622238Y-15286976D01*
X15584143Y-15286976D01*
X15565095Y-15277452D01*
X15555571Y-15258405D01*
X15555571Y-15182214D01*
X15565095Y-15163167D01*
X15584143Y-15153643D01*
X15622238Y-15153643D01*
X15641286Y-15163167D01*
X15650809Y-15182214D01*
X15650809Y-15201262D01*
X15555571Y-15220309D01*
X15727000Y-15277452D02*
X15746048Y-15286976D01*
X15784143Y-15286976D01*
X15803190Y-15277452D01*
X15812714Y-15258405D01*
X15812714Y-15248881D01*
X15803190Y-15229833D01*
X15784143Y-15220309D01*
X15755571Y-15220309D01*
X15736524Y-15210786D01*
X15727000Y-15191738D01*
X15727000Y-15182214D01*
X15736524Y-15163167D01*
X15755571Y-15153643D01*
X15784143Y-15153643D01*
X15803190Y-15163167D01*
X15879381Y-15363167D02*
X15888905Y-15353643D01*
X15907952Y-15325071D01*
X15917476Y-15306024D01*
X15927000Y-15277452D01*
X15936524Y-15229833D01*
X15936524Y-15191738D01*
X15927000Y-15144119D01*
X15917476Y-15115548D01*
X15907952Y-15096500D01*
X15888905Y-15067928D01*
X15879381Y-15058405D01*
D10*
X10867000Y-15410500D02*
X10867000Y-15510500D01*
X10817000Y-15460500D02*
X10917000Y-15460500D01*
D11*
X11279381Y-15550976D02*
X11165095Y-15550976D01*
X11222238Y-15550976D02*
X11222238Y-15350976D01*
X11203190Y-15379548D01*
X11184143Y-15398595D01*
X11165095Y-15408119D01*
X11365095Y-15531928D02*
X11374619Y-15541452D01*
X11365095Y-15550976D01*
X11355571Y-15541452D01*
X11365095Y-15531928D01*
X11365095Y-15550976D01*
X11498428Y-15350976D02*
X11517476Y-15350976D01*
X11536524Y-15360500D01*
X11546048Y-15370024D01*
X11555571Y-15389071D01*
X11565095Y-15427167D01*
X11565095Y-15474786D01*
X11555571Y-15512881D01*
X11546048Y-15531928D01*
X11536524Y-15541452D01*
X11517476Y-15550976D01*
X11498428Y-15550976D01*
X11479381Y-15541452D01*
X11469857Y-15531928D01*
X11460333Y-15512881D01*
X11450809Y-15474786D01*
X11450809Y-15427167D01*
X11460333Y-15389071D01*
X11469857Y-15370024D01*
X11479381Y-15360500D01*
X11498428Y-15350976D01*
X11688905Y-15350976D02*
X11707952Y-15350976D01*
X11727000Y-15360500D01*
X11736524Y-15370024D01*
X11746048Y-15389071D01*
X11755571Y-15427167D01*
X11755571Y-15474786D01*
X11746048Y-15512881D01*
X11736524Y-15531928D01*
X11727000Y-15541452D01*
X11707952Y-15550976D01*
X11688905Y-15550976D01*
X11669857Y-15541452D01*
X11660333Y-15531928D01*
X11650809Y-15512881D01*
X11641286Y-15474786D01*
X11641286Y-15427167D01*
X11650809Y-15389071D01*
X11660333Y-15370024D01*
X11669857Y-15360500D01*
X11688905Y-15350976D01*
X11879381Y-15350976D02*
X11898428Y-15350976D01*
X11917476Y-15360500D01*
X11927000Y-15370024D01*
X11936524Y-15389071D01*
X11946048Y-15427167D01*
X11946048Y-15474786D01*
X11936524Y-15512881D01*
X11927000Y-15531928D01*
X11917476Y-15541452D01*
X11898428Y-15550976D01*
X11879381Y-15550976D01*
X11860333Y-15541452D01*
X11850809Y-15531928D01*
X11841286Y-15512881D01*
X11831762Y-15474786D01*
X11831762Y-15427167D01*
X11841286Y-15389071D01*
X11850809Y-15370024D01*
X11860333Y-15360500D01*
X11879381Y-15350976D01*
X12031762Y-15550976D02*
X12031762Y-15417643D01*
X12031762Y-15436690D02*
X12041286Y-15427167D01*
X12060333Y-15417643D01*
X12088905Y-15417643D01*
X12107952Y-15427167D01*
X12117476Y-15446214D01*
X12117476Y-15550976D01*
X12117476Y-15446214D02*
X12127000Y-15427167D01*
X12146048Y-15417643D01*
X12174619Y-15417643D01*
X12193667Y-15427167D01*
X12203190Y-15446214D01*
X12203190Y-15550976D01*
X12298428Y-15550976D02*
X12298428Y-15417643D01*
X12298428Y-15436690D02*
X12307952Y-15427167D01*
X12327000Y-15417643D01*
X12355571Y-15417643D01*
X12374619Y-15427167D01*
X12384143Y-15446214D01*
X12384143Y-15550976D01*
X12384143Y-15446214D02*
X12393667Y-15427167D01*
X12412714Y-15417643D01*
X12441286Y-15417643D01*
X12460333Y-15427167D01*
X12469857Y-15446214D01*
X12469857Y-15550976D01*
X12860333Y-15341452D02*
X12688905Y-15598595D01*
X13117476Y-15350976D02*
X13136524Y-15350976D01*
X13155571Y-15360500D01*
X13165095Y-15370024D01*
X13174619Y-15389071D01*
X13184143Y-15427167D01*
X13184143Y-15474786D01*
X13174619Y-15512881D01*
X13165095Y-15531928D01*
X13155571Y-15541452D01*
X13136524Y-15550976D01*
X13117476Y-15550976D01*
X13098428Y-15541452D01*
X13088905Y-15531928D01*
X13079381Y-15512881D01*
X13069857Y-15474786D01*
X13069857Y-15427167D01*
X13079381Y-15389071D01*
X13088905Y-15370024D01*
X13098428Y-15360500D01*
X13117476Y-15350976D01*
X13269857Y-15531928D02*
X13279381Y-15541452D01*
X13269857Y-15550976D01*
X13260333Y-15541452D01*
X13269857Y-15531928D01*
X13269857Y-15550976D01*
X13403190Y-15350976D02*
X13422238Y-15350976D01*
X13441286Y-15360500D01*
X13450809Y-15370024D01*
X13460333Y-15389071D01*
X13469857Y-15427167D01*
X13469857Y-15474786D01*
X13460333Y-15512881D01*
X13450809Y-15531928D01*
X13441286Y-15541452D01*
X13422238Y-15550976D01*
X13403190Y-15550976D01*
X13384143Y-15541452D01*
X13374619Y-15531928D01*
X13365095Y-15512881D01*
X13355571Y-15474786D01*
X13355571Y-15427167D01*
X13365095Y-15389071D01*
X13374619Y-15370024D01*
X13384143Y-15360500D01*
X13403190Y-15350976D01*
X13536524Y-15350976D02*
X13660333Y-15350976D01*
X13593667Y-15427167D01*
X13622238Y-15427167D01*
X13641286Y-15436690D01*
X13650809Y-15446214D01*
X13660333Y-15465262D01*
X13660333Y-15512881D01*
X13650809Y-15531928D01*
X13641286Y-15541452D01*
X13622238Y-15550976D01*
X13565095Y-15550976D01*
X13546048Y-15541452D01*
X13536524Y-15531928D01*
X13755571Y-15550976D02*
X13793667Y-15550976D01*
X13812714Y-15541452D01*
X13822238Y-15531928D01*
X13841286Y-15503357D01*
X13850809Y-15465262D01*
X13850809Y-15389071D01*
X13841286Y-15370024D01*
X13831762Y-15360500D01*
X13812714Y-15350976D01*
X13774619Y-15350976D01*
X13755571Y-15360500D01*
X13746048Y-15370024D01*
X13736524Y-15389071D01*
X13736524Y-15436690D01*
X13746048Y-15455738D01*
X13755571Y-15465262D01*
X13774619Y-15474786D01*
X13812714Y-15474786D01*
X13831762Y-15465262D01*
X13841286Y-15455738D01*
X13850809Y-15436690D01*
X14022238Y-15417643D02*
X14022238Y-15550976D01*
X13974619Y-15341452D02*
X13927000Y-15484309D01*
X14050809Y-15484309D01*
X14117476Y-15350976D02*
X14117476Y-15389071D01*
X14193667Y-15350976D02*
X14193667Y-15389071D01*
X14488905Y-15627167D02*
X14479381Y-15617643D01*
X14460333Y-15589071D01*
X14450809Y-15570024D01*
X14441286Y-15541452D01*
X14431762Y-15493833D01*
X14431762Y-15455738D01*
X14441286Y-15408119D01*
X14450809Y-15379548D01*
X14460333Y-15360500D01*
X14479381Y-15331928D01*
X14488905Y-15322405D01*
X14669857Y-15550976D02*
X14555571Y-15550976D01*
X14612714Y-15550976D02*
X14612714Y-15350976D01*
X14593667Y-15379548D01*
X14574619Y-15398595D01*
X14555571Y-15408119D01*
X14736524Y-15350976D02*
X14860333Y-15350976D01*
X14793667Y-15427167D01*
X14822238Y-15427167D01*
X14841286Y-15436690D01*
X14850809Y-15446214D01*
X14860333Y-15465262D01*
X14860333Y-15512881D01*
X14850809Y-15531928D01*
X14841286Y-15541452D01*
X14822238Y-15550976D01*
X14765095Y-15550976D01*
X14746048Y-15541452D01*
X14736524Y-15531928D01*
X15031762Y-15417643D02*
X15031762Y-15550976D01*
X14984143Y-15341452D02*
X14936524Y-15484309D01*
X15060333Y-15484309D01*
X15288905Y-15550976D02*
X15288905Y-15350976D01*
X15374619Y-15550976D02*
X15374619Y-15446214D01*
X15365095Y-15427167D01*
X15346048Y-15417643D01*
X15317476Y-15417643D01*
X15298428Y-15427167D01*
X15288905Y-15436690D01*
X15498428Y-15550976D02*
X15479381Y-15541452D01*
X15469857Y-15531928D01*
X15460333Y-15512881D01*
X15460333Y-15455738D01*
X15469857Y-15436690D01*
X15479381Y-15427167D01*
X15498428Y-15417643D01*
X15527000Y-15417643D01*
X15546048Y-15427167D01*
X15555571Y-15436690D01*
X15565095Y-15455738D01*
X15565095Y-15512881D01*
X15555571Y-15531928D01*
X15546048Y-15541452D01*
X15527000Y-15550976D01*
X15498428Y-15550976D01*
X15679381Y-15550976D02*
X15660333Y-15541452D01*
X15650809Y-15522405D01*
X15650809Y-15350976D01*
X15831762Y-15541452D02*
X15812714Y-15550976D01*
X15774619Y-15550976D01*
X15755571Y-15541452D01*
X15746048Y-15522405D01*
X15746048Y-15446214D01*
X15755571Y-15427167D01*
X15774619Y-15417643D01*
X15812714Y-15417643D01*
X15831762Y-15427167D01*
X15841286Y-15446214D01*
X15841286Y-15465262D01*
X15746048Y-15484309D01*
X15917476Y-15541452D02*
X15936524Y-15550976D01*
X15974619Y-15550976D01*
X15993667Y-15541452D01*
X16003190Y-15522405D01*
X16003190Y-15512881D01*
X15993667Y-15493833D01*
X15974619Y-15484309D01*
X15946048Y-15484309D01*
X15927000Y-15474786D01*
X15917476Y-15455738D01*
X15917476Y-15446214D01*
X15927000Y-15427167D01*
X15946048Y-15417643D01*
X15974619Y-15417643D01*
X15993667Y-15427167D01*
X16069857Y-15627167D02*
X16079381Y-15617643D01*
X16098428Y-15589071D01*
X16107952Y-15570024D01*
X16117476Y-15541452D01*
X16127000Y-15493833D01*
X16127000Y-15455738D01*
X16117476Y-15408119D01*
X16107952Y-15379548D01*
X16098428Y-15360500D01*
X16079381Y-15331928D01*
X16069857Y-15322405D01*
D14*
X10895034Y-15777533D02*
X10895034Y-15671466D01*
X10788967Y-15671466D01*
X10788967Y-15777533D01*
X10895034Y-15777533D01*
D11*
X11279381Y-15814976D02*
X11165095Y-15814976D01*
X11222238Y-15814976D02*
X11222238Y-15614976D01*
X11203190Y-15643548D01*
X11184143Y-15662595D01*
X11165095Y-15672119D01*
X11365095Y-15795928D02*
X11374619Y-15805452D01*
X11365095Y-15814976D01*
X11355571Y-15805452D01*
X11365095Y-15795928D01*
X11365095Y-15814976D01*
X11555571Y-15614976D02*
X11460333Y-15614976D01*
X11450809Y-15710214D01*
X11460333Y-15700690D01*
X11479381Y-15691167D01*
X11527000Y-15691167D01*
X11546048Y-15700690D01*
X11555571Y-15710214D01*
X11565095Y-15729262D01*
X11565095Y-15776881D01*
X11555571Y-15795928D01*
X11546048Y-15805452D01*
X11527000Y-15814976D01*
X11479381Y-15814976D01*
X11460333Y-15805452D01*
X11450809Y-15795928D01*
X11688905Y-15614976D02*
X11707952Y-15614976D01*
X11727000Y-15624500D01*
X11736524Y-15634024D01*
X11746048Y-15653071D01*
X11755571Y-15691167D01*
X11755571Y-15738786D01*
X11746048Y-15776881D01*
X11736524Y-15795928D01*
X11727000Y-15805452D01*
X11707952Y-15814976D01*
X11688905Y-15814976D01*
X11669857Y-15805452D01*
X11660333Y-15795928D01*
X11650809Y-15776881D01*
X11641286Y-15738786D01*
X11641286Y-15691167D01*
X11650809Y-15653071D01*
X11660333Y-15634024D01*
X11669857Y-15624500D01*
X11688905Y-15614976D01*
X11879381Y-15614976D02*
X11898428Y-15614976D01*
X11917476Y-15624500D01*
X11927000Y-15634024D01*
X11936524Y-15653071D01*
X11946048Y-15691167D01*
X11946048Y-15738786D01*
X11936524Y-15776881D01*
X11927000Y-15795928D01*
X11917476Y-15805452D01*
X11898428Y-15814976D01*
X11879381Y-15814976D01*
X11860333Y-15805452D01*
X11850809Y-15795928D01*
X11841286Y-15776881D01*
X11831762Y-15738786D01*
X11831762Y-15691167D01*
X11841286Y-15653071D01*
X11850809Y-15634024D01*
X11860333Y-15624500D01*
X11879381Y-15614976D01*
X12031762Y-15814976D02*
X12031762Y-15681643D01*
X12031762Y-15700690D02*
X12041286Y-15691167D01*
X12060333Y-15681643D01*
X12088905Y-15681643D01*
X12107952Y-15691167D01*
X12117476Y-15710214D01*
X12117476Y-15814976D01*
X12117476Y-15710214D02*
X12127000Y-15691167D01*
X12146048Y-15681643D01*
X12174619Y-15681643D01*
X12193667Y-15691167D01*
X12203190Y-15710214D01*
X12203190Y-15814976D01*
X12298428Y-15814976D02*
X12298428Y-15681643D01*
X12298428Y-15700690D02*
X12307952Y-15691167D01*
X12327000Y-15681643D01*
X12355571Y-15681643D01*
X12374619Y-15691167D01*
X12384143Y-15710214D01*
X12384143Y-15814976D01*
X12384143Y-15710214D02*
X12393667Y-15691167D01*
X12412714Y-15681643D01*
X12441286Y-15681643D01*
X12460333Y-15691167D01*
X12469857Y-15710214D01*
X12469857Y-15814976D01*
X12860333Y-15605452D02*
X12688905Y-15862595D01*
X13117476Y-15614976D02*
X13136524Y-15614976D01*
X13155571Y-15624500D01*
X13165095Y-15634024D01*
X13174619Y-15653071D01*
X13184143Y-15691167D01*
X13184143Y-15738786D01*
X13174619Y-15776881D01*
X13165095Y-15795928D01*
X13155571Y-15805452D01*
X13136524Y-15814976D01*
X13117476Y-15814976D01*
X13098428Y-15805452D01*
X13088905Y-15795928D01*
X13079381Y-15776881D01*
X13069857Y-15738786D01*
X13069857Y-15691167D01*
X13079381Y-15653071D01*
X13088905Y-15634024D01*
X13098428Y-15624500D01*
X13117476Y-15614976D01*
X13269857Y-15795928D02*
X13279381Y-15805452D01*
X13269857Y-15814976D01*
X13260333Y-15805452D01*
X13269857Y-15795928D01*
X13269857Y-15814976D01*
X13403190Y-15614976D02*
X13422238Y-15614976D01*
X13441286Y-15624500D01*
X13450809Y-15634024D01*
X13460333Y-15653071D01*
X13469857Y-15691167D01*
X13469857Y-15738786D01*
X13460333Y-15776881D01*
X13450809Y-15795928D01*
X13441286Y-15805452D01*
X13422238Y-15814976D01*
X13403190Y-15814976D01*
X13384143Y-15805452D01*
X13374619Y-15795928D01*
X13365095Y-15776881D01*
X13355571Y-15738786D01*
X13355571Y-15691167D01*
X13365095Y-15653071D01*
X13374619Y-15634024D01*
X13384143Y-15624500D01*
X13403190Y-15614976D01*
X13650809Y-15614976D02*
X13555571Y-15614976D01*
X13546048Y-15710214D01*
X13555571Y-15700690D01*
X13574619Y-15691167D01*
X13622238Y-15691167D01*
X13641286Y-15700690D01*
X13650809Y-15710214D01*
X13660333Y-15729262D01*
X13660333Y-15776881D01*
X13650809Y-15795928D01*
X13641286Y-15805452D01*
X13622238Y-15814976D01*
X13574619Y-15814976D01*
X13555571Y-15805452D01*
X13546048Y-15795928D01*
X13755571Y-15814976D02*
X13793667Y-15814976D01*
X13812714Y-15805452D01*
X13822238Y-15795928D01*
X13841286Y-15767357D01*
X13850809Y-15729262D01*
X13850809Y-15653071D01*
X13841286Y-15634024D01*
X13831762Y-15624500D01*
X13812714Y-15614976D01*
X13774619Y-15614976D01*
X13755571Y-15624500D01*
X13746048Y-15634024D01*
X13736524Y-15653071D01*
X13736524Y-15700690D01*
X13746048Y-15719738D01*
X13755571Y-15729262D01*
X13774619Y-15738786D01*
X13812714Y-15738786D01*
X13831762Y-15729262D01*
X13841286Y-15719738D01*
X13850809Y-15700690D01*
X14041286Y-15814976D02*
X13927000Y-15814976D01*
X13984143Y-15814976D02*
X13984143Y-15614976D01*
X13965095Y-15643548D01*
X13946048Y-15662595D01*
X13927000Y-15672119D01*
X14117476Y-15614976D02*
X14117476Y-15653071D01*
X14193667Y-15614976D02*
X14193667Y-15653071D01*
X14488905Y-15891167D02*
X14479381Y-15881643D01*
X14460333Y-15853071D01*
X14450809Y-15834024D01*
X14441286Y-15805452D01*
X14431762Y-15757833D01*
X14431762Y-15719738D01*
X14441286Y-15672119D01*
X14450809Y-15643548D01*
X14460333Y-15624500D01*
X14479381Y-15595928D01*
X14488905Y-15586405D01*
X14555571Y-15634024D02*
X14565095Y-15624500D01*
X14584143Y-15614976D01*
X14631762Y-15614976D01*
X14650809Y-15624500D01*
X14660333Y-15634024D01*
X14669857Y-15653071D01*
X14669857Y-15672119D01*
X14660333Y-15700690D01*
X14546048Y-15814976D01*
X14669857Y-15814976D01*
X14907952Y-15814976D02*
X14907952Y-15614976D01*
X14993667Y-15814976D02*
X14993667Y-15710214D01*
X14984143Y-15691167D01*
X14965095Y-15681643D01*
X14936524Y-15681643D01*
X14917476Y-15691167D01*
X14907952Y-15700690D01*
X15117476Y-15814976D02*
X15098428Y-15805452D01*
X15088905Y-15795928D01*
X15079381Y-15776881D01*
X15079381Y-15719738D01*
X15088905Y-15700690D01*
X15098428Y-15691167D01*
X15117476Y-15681643D01*
X15146048Y-15681643D01*
X15165095Y-15691167D01*
X15174619Y-15700690D01*
X15184143Y-15719738D01*
X15184143Y-15776881D01*
X15174619Y-15795928D01*
X15165095Y-15805452D01*
X15146048Y-15814976D01*
X15117476Y-15814976D01*
X15298428Y-15814976D02*
X15279381Y-15805452D01*
X15269857Y-15786405D01*
X15269857Y-15614976D01*
X15450809Y-15805452D02*
X15431762Y-15814976D01*
X15393667Y-15814976D01*
X15374619Y-15805452D01*
X15365095Y-15786405D01*
X15365095Y-15710214D01*
X15374619Y-15691167D01*
X15393667Y-15681643D01*
X15431762Y-15681643D01*
X15450809Y-15691167D01*
X15460333Y-15710214D01*
X15460333Y-15729262D01*
X15365095Y-15748309D01*
X15536524Y-15805452D02*
X15555571Y-15814976D01*
X15593667Y-15814976D01*
X15612714Y-15805452D01*
X15622238Y-15786405D01*
X15622238Y-15776881D01*
X15612714Y-15757833D01*
X15593667Y-15748309D01*
X15565095Y-15748309D01*
X15546048Y-15738786D01*
X15536524Y-15719738D01*
X15536524Y-15710214D01*
X15546048Y-15691167D01*
X15565095Y-15681643D01*
X15593667Y-15681643D01*
X15612714Y-15691167D01*
X15688905Y-15891167D02*
X15698428Y-15881643D01*
X15717476Y-15853071D01*
X15727000Y-15834024D01*
X15736524Y-15805452D01*
X15746048Y-15757833D01*
X15746048Y-15719738D01*
X15736524Y-15672119D01*
X15727000Y-15643548D01*
X15717476Y-15624500D01*
X15698428Y-15595928D01*
X15688905Y-15586405D01*
D15*
X10832000Y-16079500D02*
X10917000Y-15994500D01*
X10832000Y-15909500D01*
X10747000Y-15994500D01*
X10832000Y-16079500D01*
D11*
X11279381Y-16084976D02*
X11165095Y-16084976D01*
X11222238Y-16084976D02*
X11222238Y-15884976D01*
X11203190Y-15913548D01*
X11184143Y-15932595D01*
X11165095Y-15942119D01*
X11365095Y-16065928D02*
X11374619Y-16075452D01*
X11365095Y-16084976D01*
X11355571Y-16075452D01*
X11365095Y-16065928D01*
X11365095Y-16084976D01*
X11441286Y-15884976D02*
X11574619Y-15884976D01*
X11488905Y-16084976D01*
X11688905Y-15884976D02*
X11707952Y-15884976D01*
X11727000Y-15894500D01*
X11736524Y-15904024D01*
X11746048Y-15923071D01*
X11755571Y-15961167D01*
X11755571Y-16008786D01*
X11746048Y-16046881D01*
X11736524Y-16065928D01*
X11727000Y-16075452D01*
X11707952Y-16084976D01*
X11688905Y-16084976D01*
X11669857Y-16075452D01*
X11660333Y-16065928D01*
X11650809Y-16046881D01*
X11641286Y-16008786D01*
X11641286Y-15961167D01*
X11650809Y-15923071D01*
X11660333Y-15904024D01*
X11669857Y-15894500D01*
X11688905Y-15884976D01*
X11879381Y-15884976D02*
X11898428Y-15884976D01*
X11917476Y-15894500D01*
X11927000Y-15904024D01*
X11936524Y-15923071D01*
X11946048Y-15961167D01*
X11946048Y-16008786D01*
X11936524Y-16046881D01*
X11927000Y-16065928D01*
X11917476Y-16075452D01*
X11898428Y-16084976D01*
X11879381Y-16084976D01*
X11860333Y-16075452D01*
X11850809Y-16065928D01*
X11841286Y-16046881D01*
X11831762Y-16008786D01*
X11831762Y-15961167D01*
X11841286Y-15923071D01*
X11850809Y-15904024D01*
X11860333Y-15894500D01*
X11879381Y-15884976D01*
X12031762Y-16084976D02*
X12031762Y-15951643D01*
X12031762Y-15970690D02*
X12041286Y-15961167D01*
X12060333Y-15951643D01*
X12088905Y-15951643D01*
X12107952Y-15961167D01*
X12117476Y-15980214D01*
X12117476Y-16084976D01*
X12117476Y-15980214D02*
X12127000Y-15961167D01*
X12146048Y-15951643D01*
X12174619Y-15951643D01*
X12193667Y-15961167D01*
X12203190Y-15980214D01*
X12203190Y-16084976D01*
X12298428Y-16084976D02*
X12298428Y-15951643D01*
X12298428Y-15970690D02*
X12307952Y-15961167D01*
X12327000Y-15951643D01*
X12355571Y-15951643D01*
X12374619Y-15961167D01*
X12384143Y-15980214D01*
X12384143Y-16084976D01*
X12384143Y-15980214D02*
X12393667Y-15961167D01*
X12412714Y-15951643D01*
X12441286Y-15951643D01*
X12460333Y-15961167D01*
X12469857Y-15980214D01*
X12469857Y-16084976D01*
X12860333Y-15875452D02*
X12688905Y-16132595D01*
X13117476Y-15884976D02*
X13136524Y-15884976D01*
X13155571Y-15894500D01*
X13165095Y-15904024D01*
X13174619Y-15923071D01*
X13184143Y-15961167D01*
X13184143Y-16008786D01*
X13174619Y-16046881D01*
X13165095Y-16065928D01*
X13155571Y-16075452D01*
X13136524Y-16084976D01*
X13117476Y-16084976D01*
X13098428Y-16075452D01*
X13088905Y-16065928D01*
X13079381Y-16046881D01*
X13069857Y-16008786D01*
X13069857Y-15961167D01*
X13079381Y-15923071D01*
X13088905Y-15904024D01*
X13098428Y-15894500D01*
X13117476Y-15884976D01*
X13269857Y-16065928D02*
X13279381Y-16075452D01*
X13269857Y-16084976D01*
X13260333Y-16075452D01*
X13269857Y-16065928D01*
X13269857Y-16084976D01*
X13403190Y-15884976D02*
X13422238Y-15884976D01*
X13441286Y-15894500D01*
X13450809Y-15904024D01*
X13460333Y-15923071D01*
X13469857Y-15961167D01*
X13469857Y-16008786D01*
X13460333Y-16046881D01*
X13450809Y-16065928D01*
X13441286Y-16075452D01*
X13422238Y-16084976D01*
X13403190Y-16084976D01*
X13384143Y-16075452D01*
X13374619Y-16065928D01*
X13365095Y-16046881D01*
X13355571Y-16008786D01*
X13355571Y-15961167D01*
X13365095Y-15923071D01*
X13374619Y-15904024D01*
X13384143Y-15894500D01*
X13403190Y-15884976D01*
X13641286Y-15884976D02*
X13603190Y-15884976D01*
X13584143Y-15894500D01*
X13574619Y-15904024D01*
X13555571Y-15932595D01*
X13546048Y-15970690D01*
X13546048Y-16046881D01*
X13555571Y-16065928D01*
X13565095Y-16075452D01*
X13584143Y-16084976D01*
X13622238Y-16084976D01*
X13641286Y-16075452D01*
X13650809Y-16065928D01*
X13660333Y-16046881D01*
X13660333Y-15999262D01*
X13650809Y-15980214D01*
X13641286Y-15970690D01*
X13622238Y-15961167D01*
X13584143Y-15961167D01*
X13565095Y-15970690D01*
X13555571Y-15980214D01*
X13546048Y-15999262D01*
X13831762Y-15884976D02*
X13793667Y-15884976D01*
X13774619Y-15894500D01*
X13765095Y-15904024D01*
X13746048Y-15932595D01*
X13736524Y-15970690D01*
X13736524Y-16046881D01*
X13746048Y-16065928D01*
X13755571Y-16075452D01*
X13774619Y-16084976D01*
X13812714Y-16084976D01*
X13831762Y-16075452D01*
X13841286Y-16065928D01*
X13850809Y-16046881D01*
X13850809Y-15999262D01*
X13841286Y-15980214D01*
X13831762Y-15970690D01*
X13812714Y-15961167D01*
X13774619Y-15961167D01*
X13755571Y-15970690D01*
X13746048Y-15980214D01*
X13736524Y-15999262D01*
X13946048Y-16084976D02*
X13984143Y-16084976D01*
X14003190Y-16075452D01*
X14012714Y-16065928D01*
X14031762Y-16037357D01*
X14041286Y-15999262D01*
X14041286Y-15923071D01*
X14031762Y-15904024D01*
X14022238Y-15894500D01*
X14003190Y-15884976D01*
X13965095Y-15884976D01*
X13946048Y-15894500D01*
X13936524Y-15904024D01*
X13927000Y-15923071D01*
X13927000Y-15970690D01*
X13936524Y-15989738D01*
X13946048Y-15999262D01*
X13965095Y-16008786D01*
X14003190Y-16008786D01*
X14022238Y-15999262D01*
X14031762Y-15989738D01*
X14041286Y-15970690D01*
X14117476Y-15884976D02*
X14117476Y-15923071D01*
X14193667Y-15884976D02*
X14193667Y-15923071D01*
X14488905Y-16161167D02*
X14479381Y-16151643D01*
X14460333Y-16123071D01*
X14450809Y-16104024D01*
X14441286Y-16075452D01*
X14431762Y-16027833D01*
X14431762Y-15989738D01*
X14441286Y-15942119D01*
X14450809Y-15913548D01*
X14460333Y-15894500D01*
X14479381Y-15865928D01*
X14488905Y-15856405D01*
X14593667Y-15970690D02*
X14574619Y-15961167D01*
X14565095Y-15951643D01*
X14555571Y-15932595D01*
X14555571Y-15923071D01*
X14565095Y-15904024D01*
X14574619Y-15894500D01*
X14593667Y-15884976D01*
X14631762Y-15884976D01*
X14650809Y-15894500D01*
X14660333Y-15904024D01*
X14669857Y-15923071D01*
X14669857Y-15932595D01*
X14660333Y-15951643D01*
X14650809Y-15961167D01*
X14631762Y-15970690D01*
X14593667Y-15970690D01*
X14574619Y-15980214D01*
X14565095Y-15989738D01*
X14555571Y-16008786D01*
X14555571Y-16046881D01*
X14565095Y-16065928D01*
X14574619Y-16075452D01*
X14593667Y-16084976D01*
X14631762Y-16084976D01*
X14650809Y-16075452D01*
X14660333Y-16065928D01*
X14669857Y-16046881D01*
X14669857Y-16008786D01*
X14660333Y-15989738D01*
X14650809Y-15980214D01*
X14631762Y-15970690D01*
X14907952Y-16084976D02*
X14907952Y-15884976D01*
X14993667Y-16084976D02*
X14993667Y-15980214D01*
X14984143Y-15961167D01*
X14965095Y-15951643D01*
X14936524Y-15951643D01*
X14917476Y-15961167D01*
X14907952Y-15970690D01*
X15117476Y-16084976D02*
X15098428Y-16075452D01*
X15088905Y-16065928D01*
X15079381Y-16046881D01*
X15079381Y-15989738D01*
X15088905Y-15970690D01*
X15098428Y-15961167D01*
X15117476Y-15951643D01*
X15146048Y-15951643D01*
X15165095Y-15961167D01*
X15174619Y-15970690D01*
X15184143Y-15989738D01*
X15184143Y-16046881D01*
X15174619Y-16065928D01*
X15165095Y-16075452D01*
X15146048Y-16084976D01*
X15117476Y-16084976D01*
X15298428Y-16084976D02*
X15279381Y-16075452D01*
X15269857Y-16056405D01*
X15269857Y-15884976D01*
X15450809Y-16075452D02*
X15431762Y-16084976D01*
X15393667Y-16084976D01*
X15374619Y-16075452D01*
X15365095Y-16056405D01*
X15365095Y-15980214D01*
X15374619Y-15961167D01*
X15393667Y-15951643D01*
X15431762Y-15951643D01*
X15450809Y-15961167D01*
X15460333Y-15980214D01*
X15460333Y-15999262D01*
X15365095Y-16018309D01*
X15536524Y-16075452D02*
X15555571Y-16084976D01*
X15593667Y-16084976D01*
X15612714Y-16075452D01*
X15622238Y-16056405D01*
X15622238Y-16046881D01*
X15612714Y-16027833D01*
X15593667Y-16018309D01*
X15565095Y-16018309D01*
X15546048Y-16008786D01*
X15536524Y-15989738D01*
X15536524Y-15980214D01*
X15546048Y-15961167D01*
X15565095Y-15951643D01*
X15593667Y-15951643D01*
X15612714Y-15961167D01*
X15688905Y-16161167D02*
X15698428Y-16151643D01*
X15717476Y-16123071D01*
X15727000Y-16104024D01*
X15736524Y-16075452D01*
X15746048Y-16027833D01*
X15746048Y-15989738D01*
X15736524Y-15942119D01*
X15727000Y-15913548D01*
X15717476Y-15894500D01*
X15698428Y-15865928D01*
X15688905Y-15856405D01*
X10717000Y-16184500D02*
X10917000Y-16384500D01*
X10917000Y-16184500D02*
X10717000Y-16384500D01*
X10917000Y-16284500D02*
G75*
G03*
X10917000Y-16284500I-100000J0D01*
G01*
X11155571Y-16174976D02*
X11279381Y-16174976D01*
X11212714Y-16251167D01*
X11241286Y-16251167D01*
X11260333Y-16260690D01*
X11269857Y-16270214D01*
X11279381Y-16289262D01*
X11279381Y-16336881D01*
X11269857Y-16355928D01*
X11260333Y-16365452D01*
X11241286Y-16374976D01*
X11184143Y-16374976D01*
X11165095Y-16365452D01*
X11155571Y-16355928D01*
X11365095Y-16355928D02*
X11374619Y-16365452D01*
X11365095Y-16374976D01*
X11355571Y-16365452D01*
X11365095Y-16355928D01*
X11365095Y-16374976D01*
X11450809Y-16194024D02*
X11460333Y-16184500D01*
X11479381Y-16174976D01*
X11527000Y-16174976D01*
X11546048Y-16184500D01*
X11555571Y-16194024D01*
X11565095Y-16213071D01*
X11565095Y-16232119D01*
X11555571Y-16260690D01*
X11441286Y-16374976D01*
X11565095Y-16374976D01*
X11688905Y-16174976D02*
X11707952Y-16174976D01*
X11727000Y-16184500D01*
X11736524Y-16194024D01*
X11746048Y-16213071D01*
X11755571Y-16251167D01*
X11755571Y-16298786D01*
X11746048Y-16336881D01*
X11736524Y-16355928D01*
X11727000Y-16365452D01*
X11707952Y-16374976D01*
X11688905Y-16374976D01*
X11669857Y-16365452D01*
X11660333Y-16355928D01*
X11650809Y-16336881D01*
X11641286Y-16298786D01*
X11641286Y-16251167D01*
X11650809Y-16213071D01*
X11660333Y-16194024D01*
X11669857Y-16184500D01*
X11688905Y-16174976D01*
X11879381Y-16174976D02*
X11898428Y-16174976D01*
X11917476Y-16184500D01*
X11927000Y-16194024D01*
X11936524Y-16213071D01*
X11946048Y-16251167D01*
X11946048Y-16298786D01*
X11936524Y-16336881D01*
X11927000Y-16355928D01*
X11917476Y-16365452D01*
X11898428Y-16374976D01*
X11879381Y-16374976D01*
X11860333Y-16365452D01*
X11850809Y-16355928D01*
X11841286Y-16336881D01*
X11831762Y-16298786D01*
X11831762Y-16251167D01*
X11841286Y-16213071D01*
X11850809Y-16194024D01*
X11860333Y-16184500D01*
X11879381Y-16174976D01*
X12031762Y-16374976D02*
X12031762Y-16241643D01*
X12031762Y-16260690D02*
X12041286Y-16251167D01*
X12060333Y-16241643D01*
X12088905Y-16241643D01*
X12107952Y-16251167D01*
X12117476Y-16270214D01*
X12117476Y-16374976D01*
X12117476Y-16270214D02*
X12127000Y-16251167D01*
X12146048Y-16241643D01*
X12174619Y-16241643D01*
X12193667Y-16251167D01*
X12203190Y-16270214D01*
X12203190Y-16374976D01*
X12298428Y-16374976D02*
X12298428Y-16241643D01*
X12298428Y-16260690D02*
X12307952Y-16251167D01*
X12327000Y-16241643D01*
X12355571Y-16241643D01*
X12374619Y-16251167D01*
X12384143Y-16270214D01*
X12384143Y-16374976D01*
X12384143Y-16270214D02*
X12393667Y-16251167D01*
X12412714Y-16241643D01*
X12441286Y-16241643D01*
X12460333Y-16251167D01*
X12469857Y-16270214D01*
X12469857Y-16374976D01*
X12860333Y-16165452D02*
X12688905Y-16422595D01*
X13117476Y-16174976D02*
X13136524Y-16174976D01*
X13155571Y-16184500D01*
X13165095Y-16194024D01*
X13174619Y-16213071D01*
X13184143Y-16251167D01*
X13184143Y-16298786D01*
X13174619Y-16336881D01*
X13165095Y-16355928D01*
X13155571Y-16365452D01*
X13136524Y-16374976D01*
X13117476Y-16374976D01*
X13098428Y-16365452D01*
X13088905Y-16355928D01*
X13079381Y-16336881D01*
X13069857Y-16298786D01*
X13069857Y-16251167D01*
X13079381Y-16213071D01*
X13088905Y-16194024D01*
X13098428Y-16184500D01*
X13117476Y-16174976D01*
X13269857Y-16355928D02*
X13279381Y-16365452D01*
X13269857Y-16374976D01*
X13260333Y-16365452D01*
X13269857Y-16355928D01*
X13269857Y-16374976D01*
X13469857Y-16374976D02*
X13355571Y-16374976D01*
X13412714Y-16374976D02*
X13412714Y-16174976D01*
X13393667Y-16203548D01*
X13374619Y-16222595D01*
X13355571Y-16232119D01*
X13546048Y-16194024D02*
X13555571Y-16184500D01*
X13574619Y-16174976D01*
X13622238Y-16174976D01*
X13641286Y-16184500D01*
X13650809Y-16194024D01*
X13660333Y-16213071D01*
X13660333Y-16232119D01*
X13650809Y-16260690D01*
X13536524Y-16374976D01*
X13660333Y-16374976D01*
X13831762Y-16174976D02*
X13793667Y-16174976D01*
X13774619Y-16184500D01*
X13765095Y-16194024D01*
X13746048Y-16222595D01*
X13736524Y-16260690D01*
X13736524Y-16336881D01*
X13746048Y-16355928D01*
X13755571Y-16365452D01*
X13774619Y-16374976D01*
X13812714Y-16374976D01*
X13831762Y-16365452D01*
X13841286Y-16355928D01*
X13850809Y-16336881D01*
X13850809Y-16289262D01*
X13841286Y-16270214D01*
X13831762Y-16260690D01*
X13812714Y-16251167D01*
X13774619Y-16251167D01*
X13755571Y-16260690D01*
X13746048Y-16270214D01*
X13736524Y-16289262D01*
X13974619Y-16174976D02*
X13993667Y-16174976D01*
X14012714Y-16184500D01*
X14022238Y-16194024D01*
X14031762Y-16213071D01*
X14041286Y-16251167D01*
X14041286Y-16298786D01*
X14031762Y-16336881D01*
X14022238Y-16355928D01*
X14012714Y-16365452D01*
X13993667Y-16374976D01*
X13974619Y-16374976D01*
X13955571Y-16365452D01*
X13946048Y-16355928D01*
X13936524Y-16336881D01*
X13927000Y-16298786D01*
X13927000Y-16251167D01*
X13936524Y-16213071D01*
X13946048Y-16194024D01*
X13955571Y-16184500D01*
X13974619Y-16174976D01*
X14117476Y-16174976D02*
X14117476Y-16213071D01*
X14193667Y-16174976D02*
X14193667Y-16213071D01*
X14488905Y-16451167D02*
X14479381Y-16441643D01*
X14460333Y-16413071D01*
X14450809Y-16394024D01*
X14441286Y-16365452D01*
X14431762Y-16317833D01*
X14431762Y-16279738D01*
X14441286Y-16232119D01*
X14450809Y-16203548D01*
X14460333Y-16184500D01*
X14479381Y-16155928D01*
X14488905Y-16146405D01*
X14650809Y-16241643D02*
X14650809Y-16374976D01*
X14603190Y-16165452D02*
X14555571Y-16308309D01*
X14679381Y-16308309D01*
X14907952Y-16374976D02*
X14907952Y-16174976D01*
X14993667Y-16374976D02*
X14993667Y-16270214D01*
X14984143Y-16251167D01*
X14965095Y-16241643D01*
X14936524Y-16241643D01*
X14917476Y-16251167D01*
X14907952Y-16260690D01*
X15117476Y-16374976D02*
X15098428Y-16365452D01*
X15088905Y-16355928D01*
X15079381Y-16336881D01*
X15079381Y-16279738D01*
X15088905Y-16260690D01*
X15098428Y-16251167D01*
X15117476Y-16241643D01*
X15146048Y-16241643D01*
X15165095Y-16251167D01*
X15174619Y-16260690D01*
X15184143Y-16279738D01*
X15184143Y-16336881D01*
X15174619Y-16355928D01*
X15165095Y-16365452D01*
X15146048Y-16374976D01*
X15117476Y-16374976D01*
X15298428Y-16374976D02*
X15279381Y-16365452D01*
X15269857Y-16346405D01*
X15269857Y-16174976D01*
X15450809Y-16365452D02*
X15431762Y-16374976D01*
X15393667Y-16374976D01*
X15374619Y-16365452D01*
X15365095Y-16346405D01*
X15365095Y-16270214D01*
X15374619Y-16251167D01*
X15393667Y-16241643D01*
X15431762Y-16241643D01*
X15450809Y-16251167D01*
X15460333Y-16270214D01*
X15460333Y-16289262D01*
X15365095Y-16308309D01*
X15536524Y-16365452D02*
X15555571Y-16374976D01*
X15593667Y-16374976D01*
X15612714Y-16365452D01*
X15622238Y-16346405D01*
X15622238Y-16336881D01*
X15612714Y-16317833D01*
X15593667Y-16308309D01*
X15565095Y-16308309D01*
X15546048Y-16298786D01*
X15536524Y-16279738D01*
X15536524Y-16270214D01*
X15546048Y-16251167D01*
X15565095Y-16241643D01*
X15593667Y-16241643D01*
X15612714Y-16251167D01*
X15688905Y-16451167D02*
X15698428Y-16441643D01*
X15717476Y-16413071D01*
X15727000Y-16394024D01*
X15736524Y-16365452D01*
X15746048Y-16317833D01*
X15746048Y-16279738D01*
X15736524Y-16232119D01*
X15727000Y-16203548D01*
X15717476Y-16184500D01*
X15698428Y-16155928D01*
X15688905Y-16146405D01*
M02*
