G04 #@! TF.GenerationSoftware,KiCad,Pcbnew,(6.0.7-1)-1*
G04 #@! TF.CreationDate,2023-01-04T12:49:58-05:00*
G04 #@! TF.ProjectId,comm-rfb,636f6d6d-2d72-4666-922e-6b696361645f,rev?*
G04 #@! TF.SameCoordinates,Original*
G04 #@! TF.FileFunction,Soldermask,Bot*
G04 #@! TF.FilePolarity,Negative*
%FSLAX46Y46*%
G04 Gerber Fmt 4.6, Leading zero omitted, Abs format (unit mm)*
G04 Created by KiCad (PCBNEW (6.0.7-1)-1) date 2023-01-04 12:49:58*
%MOMM*%
%LPD*%
G01*
G04 APERTURE LIST*
%ADD10C,6.400000*%
%ADD11C,3.600000*%
%ADD12C,1.420000*%
%ADD13C,2.050000*%
%ADD14C,2.250000*%
%ADD15R,1.524000X1.524000*%
%ADD16C,1.524000*%
%ADD17R,1.700000X1.700000*%
%ADD18O,1.700000X1.700000*%
G04 APERTURE END LIST*
D10*
X191770000Y-52070000D03*
D11*
X191770000Y-52070000D03*
D12*
X160489400Y-131384000D03*
X160489400Y-116774000D03*
D11*
X118110000Y-52070000D03*
D10*
X118110000Y-52070000D03*
X114300000Y-137795000D03*
D11*
X114300000Y-137795000D03*
D13*
X115366800Y-130048000D03*
D14*
X117906800Y-127508000D03*
X117906800Y-132588000D03*
X112826800Y-127508000D03*
X112826800Y-132588000D03*
D13*
X115417600Y-120650000D03*
D14*
X117957600Y-118110000D03*
X112877600Y-118110000D03*
X117957600Y-123190000D03*
X112877600Y-123190000D03*
D15*
X186690000Y-52070000D03*
D16*
X186690000Y-54610000D03*
X184150000Y-52070000D03*
X184150000Y-54610000D03*
X181610000Y-52070000D03*
X181610000Y-54610000D03*
X179070000Y-52070000D03*
X179070000Y-54610000D03*
X176530000Y-52070000D03*
X176530000Y-54610000D03*
X173990000Y-52070000D03*
X173990000Y-54610000D03*
X171450000Y-52070000D03*
X171450000Y-54610000D03*
X168910000Y-52070000D03*
X168910000Y-54610000D03*
X166370000Y-52070000D03*
X166370000Y-54610000D03*
X163830000Y-52070000D03*
X163830000Y-54610000D03*
X161290000Y-52070000D03*
X161290000Y-54610000D03*
X158750000Y-52070000D03*
X158750000Y-54610000D03*
X156210000Y-52070000D03*
X156210000Y-54610000D03*
X153670000Y-52070000D03*
X153670000Y-54610000D03*
X151130000Y-52070000D03*
X151130000Y-54610000D03*
X148590000Y-52070000D03*
X148590000Y-54610000D03*
X146050000Y-52070000D03*
X146050000Y-54610000D03*
X143510000Y-52070000D03*
X143510000Y-54610000D03*
X140970000Y-52070000D03*
X140970000Y-54610000D03*
X138430000Y-52070000D03*
X138430000Y-54610000D03*
X135890000Y-52070000D03*
X135890000Y-54610000D03*
X133350000Y-52070000D03*
X133350000Y-54610000D03*
X130810000Y-52070000D03*
X130810000Y-54610000D03*
X128270000Y-52070000D03*
X128270000Y-54610000D03*
X125730000Y-52070000D03*
X125730000Y-54610000D03*
X123190000Y-52070000D03*
X123190000Y-54610000D03*
X186690000Y-57150000D03*
X186690000Y-59690000D03*
X184150000Y-57150000D03*
X184150000Y-59690000D03*
X181610000Y-57150000D03*
X181610000Y-59690000D03*
X179070000Y-57150000D03*
X179070000Y-59690000D03*
X176530000Y-57150000D03*
X176530000Y-59690000D03*
X173990000Y-57150000D03*
X173990000Y-59690000D03*
X171450000Y-57150000D03*
X171450000Y-59690000D03*
X168910000Y-57150000D03*
X168910000Y-59690000D03*
X166370000Y-57150000D03*
X166370000Y-59690000D03*
X163830000Y-57150000D03*
X163830000Y-59690000D03*
X161290000Y-57150000D03*
X161290000Y-59690000D03*
X158750000Y-57150000D03*
X158750000Y-59690000D03*
X156210000Y-57150000D03*
X156210000Y-59690000D03*
X153670000Y-57150000D03*
X153670000Y-59690000D03*
X151130000Y-57150000D03*
X151130000Y-59690000D03*
X148590000Y-57150000D03*
X148590000Y-59690000D03*
X146050000Y-57150000D03*
X146050000Y-59690000D03*
X143510000Y-57150000D03*
X143510000Y-59690000D03*
X140970000Y-57150000D03*
X140970000Y-59690000D03*
X138430000Y-57150000D03*
X138430000Y-59690000D03*
X135890000Y-57150000D03*
X135890000Y-59690000D03*
X133350000Y-57150000D03*
X133350000Y-59690000D03*
X130810000Y-57150000D03*
X130810000Y-59690000D03*
X128270000Y-57150000D03*
X128270000Y-59690000D03*
X125730000Y-57150000D03*
X125730000Y-59690000D03*
X123190000Y-57150000D03*
X123190000Y-59690000D03*
D12*
X118211600Y-109260600D03*
X118211600Y-94650600D03*
D17*
X186232800Y-87620000D03*
D18*
X188772800Y-87620000D03*
X186232800Y-85080000D03*
X188772800Y-85080000D03*
X186232800Y-82540000D03*
X188772800Y-82540000D03*
X186232800Y-80000000D03*
X188772800Y-80000000D03*
D12*
X148615400Y-109260600D03*
X148615400Y-94650600D03*
D11*
X194310000Y-137795000D03*
D10*
X194310000Y-137795000D03*
D17*
X122465000Y-63734000D03*
D18*
X119925000Y-63734000D03*
X122465000Y-66274000D03*
X119925000Y-66274000D03*
X122465000Y-68814000D03*
X119925000Y-68814000D03*
X122465000Y-71354000D03*
X119925000Y-71354000D03*
X122465000Y-73894000D03*
X119925000Y-73894000D03*
D17*
X186272000Y-76378200D03*
D18*
X188812000Y-76378200D03*
X186272000Y-73838200D03*
X188812000Y-73838200D03*
X186272000Y-71298200D03*
X188812000Y-71298200D03*
X186272000Y-68758200D03*
X188812000Y-68758200D03*
X186272000Y-66218200D03*
X188812000Y-66218200D03*
X186272000Y-63678200D03*
X188812000Y-63678200D03*
D12*
X190890000Y-116774000D03*
X190890000Y-131384000D03*
M02*
