G04 #@! TF.GenerationSoftware,KiCad,Pcbnew,(6.0.7-1)-1*
G04 #@! TF.CreationDate,2023-01-04T12:49:57-05:00*
G04 #@! TF.ProjectId,comm-rfb,636f6d6d-2d72-4666-922e-6b696361645f,rev?*
G04 #@! TF.SameCoordinates,Original*
G04 #@! TF.FileFunction,Copper,L1,Top*
G04 #@! TF.FilePolarity,Positive*
%FSLAX46Y46*%
G04 Gerber Fmt 4.6, Leading zero omitted, Abs format (unit mm)*
G04 Created by KiCad (PCBNEW (6.0.7-1)-1) date 2023-01-04 12:49:57*
%MOMM*%
%LPD*%
G01*
G04 APERTURE LIST*
G04 Aperture macros list*
%AMRoundRect*
0 Rectangle with rounded corners*
0 $1 Rounding radius*
0 $2 $3 $4 $5 $6 $7 $8 $9 X,Y pos of 4 corners*
0 Add a 4 corners polygon primitive as box body*
4,1,4,$2,$3,$4,$5,$6,$7,$8,$9,$2,$3,0*
0 Add four circle primitives for the rounded corners*
1,1,$1+$1,$2,$3*
1,1,$1+$1,$4,$5*
1,1,$1+$1,$6,$7*
1,1,$1+$1,$8,$9*
0 Add four rect primitives between the rounded corners*
20,1,$1+$1,$2,$3,$4,$5,0*
20,1,$1+$1,$4,$5,$6,$7,0*
20,1,$1+$1,$6,$7,$8,$9,0*
20,1,$1+$1,$8,$9,$2,$3,0*%
G04 Aperture macros list end*
G04 #@! TA.AperFunction,SMDPad,CuDef*
%ADD10RoundRect,0.140000X0.170000X-0.140000X0.170000X0.140000X-0.170000X0.140000X-0.170000X-0.140000X0*%
G04 #@! TD*
G04 #@! TA.AperFunction,ConnectorPad*
%ADD11C,6.400000*%
G04 #@! TD*
G04 #@! TA.AperFunction,ComponentPad*
%ADD12C,3.600000*%
G04 #@! TD*
G04 #@! TA.AperFunction,SMDPad,CuDef*
%ADD13RoundRect,0.140000X-0.170000X0.140000X-0.170000X-0.140000X0.170000X-0.140000X0.170000X0.140000X0*%
G04 #@! TD*
G04 #@! TA.AperFunction,SMDPad,CuDef*
%ADD14RoundRect,0.225000X0.250000X-0.225000X0.250000X0.225000X-0.250000X0.225000X-0.250000X-0.225000X0*%
G04 #@! TD*
G04 #@! TA.AperFunction,SMDPad,CuDef*
%ADD15RoundRect,0.225000X-0.250000X0.225000X-0.250000X-0.225000X0.250000X-0.225000X0.250000X0.225000X0*%
G04 #@! TD*
G04 #@! TA.AperFunction,SMDPad,CuDef*
%ADD16R,2.920000X0.740000*%
G04 #@! TD*
G04 #@! TA.AperFunction,SMDPad,CuDef*
%ADD17RoundRect,0.225000X-0.225000X-0.250000X0.225000X-0.250000X0.225000X0.250000X-0.225000X0.250000X0*%
G04 #@! TD*
G04 #@! TA.AperFunction,SMDPad,CuDef*
%ADD18RoundRect,0.147500X0.172500X-0.147500X0.172500X0.147500X-0.172500X0.147500X-0.172500X-0.147500X0*%
G04 #@! TD*
G04 #@! TA.AperFunction,SMDPad,CuDef*
%ADD19RoundRect,0.225000X0.225000X0.250000X-0.225000X0.250000X-0.225000X-0.250000X0.225000X-0.250000X0*%
G04 #@! TD*
G04 #@! TA.AperFunction,SMDPad,CuDef*
%ADD20RoundRect,0.135000X0.185000X-0.135000X0.185000X0.135000X-0.185000X0.135000X-0.185000X-0.135000X0*%
G04 #@! TD*
G04 #@! TA.AperFunction,SMDPad,CuDef*
%ADD21RoundRect,0.140000X0.140000X0.170000X-0.140000X0.170000X-0.140000X-0.170000X0.140000X-0.170000X0*%
G04 #@! TD*
G04 #@! TA.AperFunction,ComponentPad*
%ADD22C,2.050000*%
G04 #@! TD*
G04 #@! TA.AperFunction,ComponentPad*
%ADD23C,2.250000*%
G04 #@! TD*
G04 #@! TA.AperFunction,SMDPad,CuDef*
%ADD24C,2.000000*%
G04 #@! TD*
G04 #@! TA.AperFunction,SMDPad,CuDef*
%ADD25RoundRect,0.218750X0.218750X0.256250X-0.218750X0.256250X-0.218750X-0.256250X0.218750X-0.256250X0*%
G04 #@! TD*
G04 #@! TA.AperFunction,SMDPad,CuDef*
%ADD26R,0.812800X0.254000*%
G04 #@! TD*
G04 #@! TA.AperFunction,SMDPad,CuDef*
%ADD27R,1.752600X1.549400*%
G04 #@! TD*
G04 #@! TA.AperFunction,SMDPad,CuDef*
%ADD28RoundRect,0.200000X0.200000X0.275000X-0.200000X0.275000X-0.200000X-0.275000X0.200000X-0.275000X0*%
G04 #@! TD*
G04 #@! TA.AperFunction,SMDPad,CuDef*
%ADD29R,0.650000X1.525000*%
G04 #@! TD*
G04 #@! TA.AperFunction,SMDPad,CuDef*
%ADD30RoundRect,0.135000X0.135000X0.185000X-0.135000X0.185000X-0.135000X-0.185000X0.135000X-0.185000X0*%
G04 #@! TD*
G04 #@! TA.AperFunction,SMDPad,CuDef*
%ADD31R,1.400000X1.200000*%
G04 #@! TD*
G04 #@! TA.AperFunction,SMDPad,CuDef*
%ADD32R,1.050000X1.000000*%
G04 #@! TD*
G04 #@! TA.AperFunction,SMDPad,CuDef*
%ADD33R,2.200000X1.050000*%
G04 #@! TD*
G04 #@! TA.AperFunction,SMDPad,CuDef*
%ADD34RoundRect,0.218750X-0.218750X-0.256250X0.218750X-0.256250X0.218750X0.256250X-0.218750X0.256250X0*%
G04 #@! TD*
G04 #@! TA.AperFunction,SMDPad,CuDef*
%ADD35RoundRect,0.200000X-0.275000X0.200000X-0.275000X-0.200000X0.275000X-0.200000X0.275000X0.200000X0*%
G04 #@! TD*
G04 #@! TA.AperFunction,ComponentPad*
%ADD36R,1.524000X1.524000*%
G04 #@! TD*
G04 #@! TA.AperFunction,ComponentPad*
%ADD37C,1.524000*%
G04 #@! TD*
G04 #@! TA.AperFunction,ComponentPad*
%ADD38R,1.700000X1.700000*%
G04 #@! TD*
G04 #@! TA.AperFunction,ComponentPad*
%ADD39O,1.700000X1.700000*%
G04 #@! TD*
G04 #@! TA.AperFunction,SMDPad,CuDef*
%ADD40RoundRect,0.147500X0.147500X0.172500X-0.147500X0.172500X-0.147500X-0.172500X0.147500X-0.172500X0*%
G04 #@! TD*
G04 #@! TA.AperFunction,SMDPad,CuDef*
%ADD41RoundRect,0.033000X0.117000X-0.747000X0.117000X0.747000X-0.117000X0.747000X-0.117000X-0.747000X0*%
G04 #@! TD*
G04 #@! TA.AperFunction,SMDPad,CuDef*
%ADD42RoundRect,0.033000X0.747000X0.117000X-0.747000X0.117000X-0.747000X-0.117000X0.747000X-0.117000X0*%
G04 #@! TD*
G04 #@! TA.AperFunction,SMDPad,CuDef*
%ADD43RoundRect,0.033000X-0.117000X0.747000X-0.117000X-0.747000X0.117000X-0.747000X0.117000X0.747000X0*%
G04 #@! TD*
G04 #@! TA.AperFunction,SMDPad,CuDef*
%ADD44RoundRect,0.033000X-0.747000X-0.117000X0.747000X-0.117000X0.747000X0.117000X-0.747000X0.117000X0*%
G04 #@! TD*
G04 #@! TA.AperFunction,SMDPad,CuDef*
%ADD45RoundRect,0.200000X0.275000X-0.200000X0.275000X0.200000X-0.275000X0.200000X-0.275000X-0.200000X0*%
G04 #@! TD*
G04 #@! TA.AperFunction,SMDPad,CuDef*
%ADD46R,2.000000X1.500000*%
G04 #@! TD*
G04 #@! TA.AperFunction,SMDPad,CuDef*
%ADD47R,2.000000X3.800000*%
G04 #@! TD*
G04 #@! TA.AperFunction,SMDPad,CuDef*
%ADD48RoundRect,0.007800X0.347200X0.122200X-0.347200X0.122200X-0.347200X-0.122200X0.347200X-0.122200X0*%
G04 #@! TD*
G04 #@! TA.AperFunction,SMDPad,CuDef*
%ADD49RoundRect,0.007800X-0.347200X-0.122200X0.347200X-0.122200X0.347200X0.122200X-0.347200X0.122200X0*%
G04 #@! TD*
G04 #@! TA.AperFunction,SMDPad,CuDef*
%ADD50R,0.900000X1.700000*%
G04 #@! TD*
G04 #@! TA.AperFunction,SMDPad,CuDef*
%ADD51RoundRect,0.200000X-0.200000X-0.275000X0.200000X-0.275000X0.200000X0.275000X-0.200000X0.275000X0*%
G04 #@! TD*
G04 #@! TA.AperFunction,SMDPad,CuDef*
%ADD52RoundRect,0.218750X-0.256250X0.218750X-0.256250X-0.218750X0.256250X-0.218750X0.256250X0.218750X0*%
G04 #@! TD*
G04 #@! TA.AperFunction,ViaPad*
%ADD53C,0.600000*%
G04 #@! TD*
G04 #@! TA.AperFunction,ViaPad*
%ADD54C,1.000000*%
G04 #@! TD*
G04 #@! TA.AperFunction,Conductor*
%ADD55C,0.293370*%
G04 #@! TD*
G04 #@! TA.AperFunction,Conductor*
%ADD56C,0.762000*%
G04 #@! TD*
G04 #@! TA.AperFunction,Conductor*
%ADD57C,0.254000*%
G04 #@! TD*
G04 #@! TA.AperFunction,Conductor*
%ADD58C,0.508000*%
G04 #@! TD*
G04 #@! TA.AperFunction,Conductor*
%ADD59C,0.250000*%
G04 #@! TD*
G04 APERTURE END LIST*
D10*
X125907800Y-119631400D03*
X125907800Y-118671400D03*
D11*
X191770000Y-52070000D03*
D12*
X191770000Y-52070000D03*
D13*
X122021600Y-120576400D03*
X122021600Y-121536400D03*
D14*
X136728200Y-82639200D03*
X136728200Y-81089200D03*
D10*
X130225800Y-119987000D03*
X130225800Y-119027000D03*
D15*
X158190800Y-72961200D03*
X158190800Y-74511200D03*
D16*
X162204400Y-129794000D03*
X158774400Y-129794000D03*
X162204400Y-128524000D03*
X158774400Y-128524000D03*
X162204400Y-127254000D03*
X158774400Y-127254000D03*
X162204400Y-125984000D03*
X158774400Y-125984000D03*
X162204400Y-124714000D03*
X158774400Y-124714000D03*
X162204400Y-123444000D03*
X158774400Y-123444000D03*
X162204400Y-122174000D03*
X158774400Y-122174000D03*
X162204400Y-120904000D03*
X158774400Y-120904000D03*
X162204400Y-119634000D03*
X158774400Y-119634000D03*
X162204400Y-118364000D03*
X158774400Y-118364000D03*
D17*
X163613800Y-99110800D03*
X165163800Y-99110800D03*
D12*
X118110000Y-52070000D03*
D11*
X118110000Y-52070000D03*
D18*
X125907800Y-121541400D03*
X125907800Y-120571400D03*
D19*
X161201400Y-97231200D03*
X159651400Y-97231200D03*
X162166600Y-99110800D03*
X160616600Y-99110800D03*
D11*
X114300000Y-137795000D03*
D12*
X114300000Y-137795000D03*
D19*
X167094200Y-67056000D03*
X165544200Y-67056000D03*
D20*
X124891800Y-121566400D03*
X124891800Y-120546400D03*
D14*
X158089600Y-95720200D03*
X158089600Y-94170200D03*
D17*
X168046400Y-98755200D03*
X169596400Y-98755200D03*
D21*
X123924000Y-120599200D03*
X122964000Y-120599200D03*
D22*
X115366800Y-130048000D03*
D23*
X117906800Y-127508000D03*
X117906800Y-132588000D03*
X112826800Y-127508000D03*
X112826800Y-132588000D03*
D24*
X172161200Y-140665200D03*
D25*
X161264300Y-66878200D03*
X159689300Y-66878200D03*
D17*
X159600600Y-85039200D03*
X161150600Y-85039200D03*
X168020900Y-100279200D03*
X169570900Y-100279200D03*
D24*
X168554400Y-140716000D03*
D26*
X132461000Y-83273199D03*
X132461000Y-83773200D03*
X132461000Y-84273200D03*
X132461000Y-84773201D03*
X135255000Y-84773201D03*
X135255000Y-84273200D03*
X135255000Y-83773200D03*
X135255000Y-83273199D03*
D27*
X133858000Y-84023200D03*
D28*
X133084800Y-118770400D03*
X131434800Y-118770400D03*
D29*
X156539800Y-68738200D03*
X155269800Y-68738200D03*
X153999800Y-68738200D03*
X152729800Y-68738200D03*
X152729800Y-74162200D03*
X153999800Y-74162200D03*
X155269800Y-74162200D03*
X156539800Y-74162200D03*
D19*
X169570900Y-103327200D03*
X168020900Y-103327200D03*
D30*
X156414800Y-76022200D03*
X155394800Y-76022200D03*
D31*
X164015600Y-100699200D03*
X161815600Y-100699200D03*
X161815600Y-102399200D03*
X164015600Y-102399200D03*
D21*
X124914600Y-122504200D03*
X123954600Y-122504200D03*
D32*
X136594600Y-121005600D03*
D33*
X138119600Y-119530600D03*
X138119600Y-122480600D03*
D34*
X168008400Y-101803200D03*
X169583400Y-101803200D03*
D35*
X156565600Y-94120200D03*
X156565600Y-95770200D03*
D22*
X115417600Y-120650000D03*
D23*
X117957600Y-118110000D03*
X112877600Y-118110000D03*
X117957600Y-123190000D03*
X112877600Y-123190000D03*
D30*
X121083800Y-120624600D03*
X120063800Y-120624600D03*
D25*
X167106300Y-65532000D03*
X165531300Y-65532000D03*
D36*
X186690000Y-52070000D03*
D37*
X186690000Y-54610000D03*
X184150000Y-52070000D03*
X184150000Y-54610000D03*
X181610000Y-52070000D03*
X181610000Y-54610000D03*
X179070000Y-52070000D03*
X179070000Y-54610000D03*
X176530000Y-52070000D03*
X176530000Y-54610000D03*
X173990000Y-52070000D03*
X173990000Y-54610000D03*
X171450000Y-52070000D03*
X171450000Y-54610000D03*
X168910000Y-52070000D03*
X168910000Y-54610000D03*
X166370000Y-52070000D03*
X166370000Y-54610000D03*
X163830000Y-52070000D03*
X163830000Y-54610000D03*
X161290000Y-52070000D03*
X161290000Y-54610000D03*
X158750000Y-52070000D03*
X158750000Y-54610000D03*
X156210000Y-52070000D03*
X156210000Y-54610000D03*
X153670000Y-52070000D03*
X153670000Y-54610000D03*
X151130000Y-52070000D03*
X151130000Y-54610000D03*
X148590000Y-52070000D03*
X148590000Y-54610000D03*
X146050000Y-52070000D03*
X146050000Y-54610000D03*
X143510000Y-52070000D03*
X143510000Y-54610000D03*
X140970000Y-52070000D03*
X140970000Y-54610000D03*
X138430000Y-52070000D03*
X138430000Y-54610000D03*
X135890000Y-52070000D03*
X135890000Y-54610000D03*
X133350000Y-52070000D03*
X133350000Y-54610000D03*
X130810000Y-52070000D03*
X130810000Y-54610000D03*
X128270000Y-52070000D03*
X128270000Y-54610000D03*
X125730000Y-52070000D03*
X125730000Y-54610000D03*
X123190000Y-52070000D03*
X123190000Y-54610000D03*
X186690000Y-57150000D03*
X186690000Y-59690000D03*
X184150000Y-57150000D03*
X184150000Y-59690000D03*
X181610000Y-57150000D03*
X181610000Y-59690000D03*
X179070000Y-57150000D03*
X179070000Y-59690000D03*
X176530000Y-57150000D03*
X176530000Y-59690000D03*
X173990000Y-57150000D03*
X173990000Y-59690000D03*
X171450000Y-57150000D03*
X171450000Y-59690000D03*
X168910000Y-57150000D03*
X168910000Y-59690000D03*
X166370000Y-57150000D03*
X166370000Y-59690000D03*
X163830000Y-57150000D03*
X163830000Y-59690000D03*
X161290000Y-57150000D03*
X161290000Y-59690000D03*
X158750000Y-57150000D03*
X158750000Y-59690000D03*
X156210000Y-57150000D03*
X156210000Y-59690000D03*
X153670000Y-57150000D03*
X153670000Y-59690000D03*
X151130000Y-57150000D03*
X151130000Y-59690000D03*
X148590000Y-57150000D03*
X148590000Y-59690000D03*
X146050000Y-57150000D03*
X146050000Y-59690000D03*
X143510000Y-57150000D03*
X143510000Y-59690000D03*
X140970000Y-57150000D03*
X140970000Y-59690000D03*
X138430000Y-57150000D03*
X138430000Y-59690000D03*
X135890000Y-57150000D03*
X135890000Y-59690000D03*
X133350000Y-57150000D03*
X133350000Y-59690000D03*
X130810000Y-57150000D03*
X130810000Y-59690000D03*
X128270000Y-57150000D03*
X128270000Y-59690000D03*
X125730000Y-57150000D03*
X125730000Y-59690000D03*
X123190000Y-57150000D03*
X123190000Y-59690000D03*
D15*
X166522400Y-101790200D03*
X166522400Y-103340200D03*
D21*
X133146600Y-120954800D03*
X132186600Y-120954800D03*
D16*
X119926600Y-107670600D03*
X116496600Y-107670600D03*
X119926600Y-106400600D03*
X116496600Y-106400600D03*
X119926600Y-105130600D03*
X116496600Y-105130600D03*
X119926600Y-103860600D03*
X116496600Y-103860600D03*
X119926600Y-102590600D03*
X116496600Y-102590600D03*
X119926600Y-101320600D03*
X116496600Y-101320600D03*
X119926600Y-100050600D03*
X116496600Y-100050600D03*
X119926600Y-98780600D03*
X116496600Y-98780600D03*
X119926600Y-97510600D03*
X116496600Y-97510600D03*
X119926600Y-96240600D03*
X116496600Y-96240600D03*
D38*
X186232800Y-87620000D03*
D39*
X188772800Y-87620000D03*
X186232800Y-85080000D03*
X188772800Y-85080000D03*
X186232800Y-82540000D03*
X188772800Y-82540000D03*
X186232800Y-80000000D03*
X188772800Y-80000000D03*
D32*
X136589600Y-130048000D03*
D33*
X138114600Y-128573000D03*
X138114600Y-131523000D03*
D16*
X150330400Y-107670600D03*
X146900400Y-107670600D03*
X150330400Y-106400600D03*
X146900400Y-106400600D03*
X150330400Y-105130600D03*
X146900400Y-105130600D03*
X150330400Y-103860600D03*
X146900400Y-103860600D03*
X150330400Y-102590600D03*
X146900400Y-102590600D03*
X150330400Y-101320600D03*
X146900400Y-101320600D03*
X150330400Y-100050600D03*
X146900400Y-100050600D03*
X150330400Y-98780600D03*
X146900400Y-98780600D03*
X150330400Y-97510600D03*
X146900400Y-97510600D03*
X150330400Y-96240600D03*
X146900400Y-96240600D03*
D40*
X135082000Y-120954800D03*
X134112000Y-120954800D03*
D41*
X161435600Y-95315200D03*
X161935600Y-95315200D03*
X162435600Y-95315200D03*
X162935600Y-95315200D03*
X163435600Y-95315200D03*
X163935600Y-95315200D03*
X164435600Y-95315200D03*
X164935600Y-95315200D03*
X165435600Y-95315200D03*
X165935600Y-95315200D03*
X166435600Y-95315200D03*
X166935600Y-95315200D03*
D42*
X168365600Y-93885200D03*
X168365600Y-93385200D03*
X168365600Y-92885200D03*
X168365600Y-92385200D03*
X168365600Y-91885200D03*
X168365600Y-91385200D03*
X168365600Y-90885200D03*
X168365600Y-90385200D03*
X168365600Y-89885200D03*
X168365600Y-89385200D03*
X168365600Y-88885200D03*
X168365600Y-88385200D03*
D43*
X166935600Y-86955200D03*
X166435600Y-86955200D03*
X165935600Y-86955200D03*
X165435600Y-86955200D03*
X164935600Y-86955200D03*
X164435600Y-86955200D03*
X163935600Y-86955200D03*
X163435600Y-86955200D03*
X162935600Y-86955200D03*
X162435600Y-86955200D03*
X161935600Y-86955200D03*
X161435600Y-86955200D03*
D44*
X160005600Y-88385200D03*
X160005600Y-88885200D03*
X160005600Y-89385200D03*
X160005600Y-89885200D03*
X160005600Y-90385200D03*
X160005600Y-90885200D03*
X160005600Y-91385200D03*
X160005600Y-91885200D03*
X160005600Y-92385200D03*
X160005600Y-92885200D03*
X160005600Y-93385200D03*
X160005600Y-93885200D03*
D12*
X194310000Y-137795000D03*
D11*
X194310000Y-137795000D03*
D15*
X158190800Y-68389200D03*
X158190800Y-69939200D03*
D45*
X138277600Y-85762600D03*
X138277600Y-84112600D03*
D38*
X122465000Y-63734000D03*
D39*
X119925000Y-63734000D03*
X122465000Y-66274000D03*
X119925000Y-66274000D03*
X122465000Y-68814000D03*
X119925000Y-68814000D03*
X122465000Y-71354000D03*
X119925000Y-71354000D03*
X122465000Y-73894000D03*
X119925000Y-73894000D03*
D46*
X166674800Y-73750200D03*
D47*
X160374800Y-71450200D03*
D46*
X166674800Y-71450200D03*
X166674800Y-69150200D03*
D38*
X186272000Y-76378200D03*
D39*
X188812000Y-76378200D03*
X186272000Y-73838200D03*
X188812000Y-73838200D03*
X186272000Y-71298200D03*
X188812000Y-71298200D03*
X186272000Y-68758200D03*
X188812000Y-68758200D03*
X186272000Y-66218200D03*
X188812000Y-66218200D03*
X186272000Y-63678200D03*
X188812000Y-63678200D03*
D16*
X192605000Y-129794000D03*
X189175000Y-129794000D03*
X192605000Y-128524000D03*
X189175000Y-128524000D03*
X192605000Y-127254000D03*
X189175000Y-127254000D03*
X192605000Y-125984000D03*
X189175000Y-125984000D03*
X192605000Y-124714000D03*
X189175000Y-124714000D03*
X192605000Y-123444000D03*
X189175000Y-123444000D03*
X192605000Y-122174000D03*
X189175000Y-122174000D03*
X192605000Y-120904000D03*
X189175000Y-120904000D03*
X192605000Y-119634000D03*
X189175000Y-119634000D03*
X192605000Y-118364000D03*
X189175000Y-118364000D03*
D21*
X124914600Y-123494800D03*
X123954600Y-123494800D03*
D48*
X129071800Y-121044400D03*
X129071800Y-120544400D03*
X129071800Y-120044400D03*
X129071800Y-119544400D03*
D49*
X127061800Y-119544400D03*
X127061800Y-120044400D03*
X127061800Y-120544400D03*
X127061800Y-121044400D03*
D50*
X128066800Y-120294400D03*
D51*
X159651800Y-65354200D03*
X161301800Y-65354200D03*
D52*
X136728200Y-84150100D03*
X136728200Y-85725100D03*
D18*
X131241800Y-120982600D03*
X131241800Y-120012600D03*
D15*
X170281600Y-86550200D03*
X170281600Y-88100200D03*
D53*
X139496800Y-84124800D03*
X142392400Y-123164600D03*
X142341600Y-138582400D03*
X124663200Y-73863200D03*
D54*
X164388800Y-118364000D03*
D53*
X113309400Y-141986000D03*
X139293600Y-115976400D03*
D54*
X153974800Y-67157600D03*
X163982400Y-103784400D03*
D53*
X124612400Y-66243200D03*
D54*
X164287200Y-67106800D03*
D53*
X110083600Y-138785600D03*
D54*
X183845200Y-73863200D03*
D53*
X133858000Y-84023200D03*
D54*
X159664400Y-74472800D03*
D53*
X135280400Y-85648800D03*
D54*
X159359600Y-99110800D03*
D53*
X110083600Y-129514600D03*
X129489200Y-141986000D03*
X140779500Y-117462300D03*
X138963400Y-141986000D03*
X125909800Y-117906800D03*
D54*
X166522400Y-104597200D03*
D53*
X140843000Y-140284200D03*
X110083600Y-124460000D03*
D54*
X158394400Y-97231200D03*
X156565600Y-96926400D03*
D53*
X184048400Y-87630000D03*
X132130800Y-115976400D03*
X119329200Y-141986000D03*
X119938800Y-61569600D03*
X121920000Y-115976400D03*
D54*
X171551600Y-88239600D03*
D53*
X123139200Y-122529600D03*
D54*
X170840400Y-98755200D03*
D53*
X137871200Y-81127600D03*
X134569200Y-141986000D03*
X123139200Y-123494800D03*
D54*
X122123200Y-107696000D03*
X158191200Y-71221600D03*
X122072400Y-96215200D03*
X158445200Y-65379600D03*
D53*
X142392400Y-121081800D03*
X174142400Y-140665200D03*
X131470400Y-84937600D03*
X110083600Y-134645400D03*
X142367000Y-119049800D03*
X160748246Y-84062651D03*
D54*
X168452800Y-73710800D03*
X160274000Y-100685600D03*
D53*
X122834400Y-121564400D03*
D54*
X164896800Y-93827600D03*
X168046400Y-104648000D03*
X165773400Y-100479800D03*
D53*
X116814600Y-115976400D03*
X142341600Y-136499600D03*
X111302800Y-115976400D03*
D54*
X144678400Y-107696000D03*
D53*
X142341600Y-134645400D03*
D54*
X190855600Y-73863200D03*
X158089600Y-92913200D03*
X170840400Y-100279200D03*
D53*
X130126200Y-118262400D03*
D54*
X164388800Y-129794000D03*
D53*
X127025400Y-115976400D03*
X110083600Y-117246400D03*
D54*
X186944000Y-129794000D03*
D53*
X137160000Y-115976400D03*
X124460000Y-141986000D03*
X110083600Y-119329200D03*
X183642000Y-71272400D03*
X133993500Y-74345800D03*
X156006800Y-80772000D03*
X135246500Y-75590400D03*
X152450800Y-80772000D03*
X179578000Y-71272400D03*
X172720000Y-89204800D03*
X124510800Y-112301900D03*
X172720000Y-109169200D03*
X124538200Y-118364000D03*
D54*
X153873200Y-77266800D03*
D53*
X159308800Y-84028897D03*
X159385000Y-95859600D03*
D54*
X170789600Y-101803200D03*
X152501600Y-102565200D03*
X183896000Y-76352400D03*
X194868800Y-124714000D03*
X194868800Y-126034800D03*
D53*
X124714000Y-71374000D03*
X133096000Y-117144800D03*
D54*
X154889200Y-77266800D03*
X169570400Y-104597200D03*
D53*
X117906800Y-66294000D03*
X166624000Y-140716000D03*
D54*
X155905200Y-77266800D03*
D53*
X137871200Y-82651600D03*
X170281600Y-85648800D03*
X125831600Y-123494800D03*
D54*
X152857200Y-77266800D03*
D53*
X125831600Y-122529600D03*
X162255200Y-96723200D03*
X190449200Y-80010000D03*
D54*
X152501600Y-103835200D03*
D53*
X164309100Y-84683600D03*
X165562100Y-82600800D03*
X193090800Y-61671200D03*
X193090800Y-59232800D03*
D54*
X186589111Y-49072800D03*
D53*
X175056800Y-109169200D03*
X175157647Y-90757947D03*
X156616400Y-120853200D03*
X177901600Y-109169200D03*
X113690400Y-114367700D03*
X152146000Y-115062000D03*
X113690400Y-111760000D03*
X177901600Y-92758700D03*
X157581600Y-115062000D03*
X175869600Y-109169200D03*
X154432000Y-112928400D03*
X175869600Y-91592400D03*
X152146000Y-112928400D03*
X152146000Y-113741200D03*
X155549600Y-113741200D03*
X176834800Y-92260700D03*
X176834800Y-109169200D03*
D54*
X171805600Y-97952900D03*
X161696400Y-89058700D03*
D53*
X114503200Y-100025200D03*
X112064800Y-95453200D03*
X173929932Y-90258700D03*
X173634400Y-107797600D03*
X158648400Y-86055200D03*
X162814000Y-88747600D03*
X179578000Y-70053200D03*
X157073600Y-82550000D03*
X154228800Y-82550000D03*
X183642000Y-70053200D03*
X162306000Y-79806800D03*
X188772800Y-91643200D03*
X188772800Y-101498400D03*
X166218236Y-84660559D03*
X168743403Y-83907403D03*
X191262000Y-101498400D03*
X191262000Y-91643200D03*
X197307200Y-67564000D03*
X197408800Y-66192400D03*
X197144300Y-70002400D03*
X197358000Y-68783200D03*
X156881603Y-83402397D03*
X148082000Y-87579200D03*
D55*
X134112000Y-120954800D02*
X133146600Y-120954800D01*
X135132800Y-121005600D02*
X135082000Y-120954800D01*
X136594600Y-121005600D02*
X135132800Y-121005600D01*
X130223123Y-120982600D02*
X131241800Y-120982600D01*
X132186600Y-120954800D02*
X131269600Y-120954800D01*
X129071800Y-120544400D02*
X129784923Y-120544400D01*
X131269600Y-120954800D02*
X131241800Y-120982600D01*
X129784923Y-120544400D02*
X130223123Y-120982600D01*
X131434800Y-119819600D02*
X131241800Y-120012600D01*
X130225800Y-119987000D02*
X130168400Y-120044400D01*
X130168400Y-120044400D02*
X129071800Y-120044400D01*
X131241800Y-120012600D02*
X130251400Y-120012600D01*
X130251400Y-120012600D02*
X130225800Y-119987000D01*
X131434800Y-118770400D02*
X131434800Y-119819600D01*
D56*
X116814600Y-115976400D02*
X121920000Y-115976400D01*
X113143858Y-141986000D02*
X110083600Y-138925742D01*
D55*
X122021600Y-121536400D02*
X122806400Y-121536400D01*
D56*
X121920000Y-115976400D02*
X127025400Y-115976400D01*
D57*
X144703800Y-107670600D02*
X144678400Y-107696000D01*
X172161200Y-140665200D02*
X174142400Y-140665200D01*
D56*
X129489200Y-141986000D02*
X124460000Y-141986000D01*
D57*
X119925000Y-61583400D02*
X119938800Y-61569600D01*
D56*
X142341600Y-138785600D02*
X140843000Y-140284200D01*
D57*
X158089600Y-94170200D02*
X158089600Y-92913200D01*
X122047000Y-96240600D02*
X122072400Y-96215200D01*
X164935600Y-93866400D02*
X164896800Y-93827600D01*
D56*
X110083600Y-138785600D02*
X110083600Y-134645400D01*
D58*
X188812000Y-73838200D02*
X190830600Y-73838200D01*
D56*
X134569200Y-141986000D02*
X129489200Y-141986000D01*
D57*
X166522400Y-103340200D02*
X166522400Y-104597200D01*
X164015600Y-102399200D02*
X164015600Y-103751200D01*
X168020900Y-103327200D02*
X168020900Y-104622500D01*
D56*
X142341600Y-134645400D02*
X142341600Y-136499600D01*
D57*
X131634799Y-84773201D02*
X131470400Y-84937600D01*
D58*
X190830600Y-73838200D02*
X190855600Y-73863200D01*
D56*
X140779500Y-117462300D02*
X142367000Y-119049800D01*
D58*
X186272000Y-73838200D02*
X183870200Y-73838200D01*
D57*
X169596400Y-98755200D02*
X170840400Y-98755200D01*
X122465000Y-73894000D02*
X124632400Y-73894000D01*
D56*
X139141200Y-141986000D02*
X138963400Y-141986000D01*
X138963400Y-141986000D02*
X134569200Y-141986000D01*
D57*
X171412200Y-88100200D02*
X171551600Y-88239600D01*
X130225800Y-119027000D02*
X130225800Y-118362000D01*
X165430800Y-99209800D02*
X165430800Y-100137200D01*
D56*
X113309400Y-141986000D02*
X113143858Y-141986000D01*
D57*
X170281600Y-88100200D02*
X171412200Y-88100200D01*
X137858200Y-81114600D02*
X137871200Y-81127600D01*
X159651400Y-97231200D02*
X158394400Y-97231200D01*
X158190800Y-74511200D02*
X159626000Y-74511200D01*
X164015600Y-103751200D02*
X163982400Y-103784400D01*
D56*
X139293600Y-115976400D02*
X140779500Y-117462300D01*
D57*
X158874600Y-93385200D02*
X158089600Y-94170200D01*
X161150600Y-85039200D02*
X161747200Y-85039200D01*
X158470600Y-65354200D02*
X158445200Y-65379600D01*
X135255000Y-85623400D02*
X135280400Y-85648800D01*
X119925000Y-63734000D02*
X119925000Y-61583400D01*
X161150600Y-84465005D02*
X160748246Y-84062651D01*
X168365600Y-88885200D02*
X169496600Y-88885200D01*
X160287600Y-100699200D02*
X160274000Y-100685600D01*
X146900400Y-107670600D02*
X144703800Y-107670600D01*
X165543800Y-67132200D02*
X164312600Y-67132200D01*
X162204400Y-129794000D02*
X164388800Y-129794000D01*
D56*
X142392400Y-119075200D02*
X142392400Y-121081800D01*
D57*
X161815600Y-100699200D02*
X160287600Y-100699200D01*
X125907800Y-118671400D02*
X125907800Y-117908800D01*
X135255000Y-84273200D02*
X135255000Y-84773201D01*
X139484600Y-84112600D02*
X139496800Y-84124800D01*
X130225800Y-118362000D02*
X130126200Y-118262400D01*
D55*
X123954600Y-122504200D02*
X123164600Y-122504200D01*
D56*
X111150400Y-115976400D02*
X111302800Y-115976400D01*
D57*
X135255000Y-83773200D02*
X135255000Y-84273200D01*
D56*
X137160000Y-115976400D02*
X139293600Y-115976400D01*
D57*
X160005600Y-93385200D02*
X158874600Y-93385200D01*
X119926600Y-96240600D02*
X122047000Y-96240600D01*
X124581600Y-66274000D02*
X124612400Y-66243200D01*
D56*
X132130800Y-115976400D02*
X137160000Y-115976400D01*
X119329200Y-141986000D02*
X113309400Y-141986000D01*
D57*
X125907800Y-117908800D02*
X125909800Y-117906800D01*
X162204400Y-118364000D02*
X164388800Y-118364000D01*
X159626000Y-74511200D02*
X159664400Y-74472800D01*
X161747200Y-85039200D02*
X161935600Y-85227600D01*
X169570900Y-100279200D02*
X170840400Y-100279200D01*
X135255000Y-84773201D02*
X135255000Y-85623400D01*
X184058400Y-87620000D02*
X184048400Y-87630000D01*
D56*
X142341600Y-136499600D02*
X142341600Y-138582400D01*
X110083600Y-129514600D02*
X110083600Y-124460000D01*
X142392400Y-121081800D02*
X142392400Y-123164600D01*
D57*
X153999800Y-68738200D02*
X153999800Y-67182600D01*
D56*
X142341600Y-138582400D02*
X142341600Y-138760200D01*
D57*
X138252200Y-84112600D02*
X139484600Y-84112600D01*
D55*
X122806400Y-121536400D02*
X122834400Y-121564400D01*
D57*
X132461000Y-84773201D02*
X131634799Y-84773201D01*
X122097800Y-107670600D02*
X122123200Y-107696000D01*
X159651800Y-65354200D02*
X158470600Y-65354200D01*
D56*
X110083600Y-124460000D02*
X110083600Y-119329200D01*
D57*
X164935600Y-95315200D02*
X164935600Y-93866400D01*
X158190800Y-69939200D02*
X158190800Y-71221200D01*
X119926600Y-107670600D02*
X122097800Y-107670600D01*
D58*
X168413400Y-73750200D02*
X168452800Y-73710800D01*
D56*
X127025400Y-115976400D02*
X132130800Y-115976400D01*
D57*
X124632400Y-73894000D02*
X124663200Y-73863200D01*
D55*
X123954600Y-123494800D02*
X123139200Y-123494800D01*
D56*
X110083600Y-117246400D02*
X110083600Y-117043200D01*
D57*
X136728200Y-81114600D02*
X137858200Y-81114600D01*
X165430800Y-100137200D02*
X165773400Y-100479800D01*
X153999800Y-67182600D02*
X153974800Y-67157600D01*
D56*
X110083600Y-134645400D02*
X110083600Y-129514600D01*
D57*
X168020900Y-104622500D02*
X168046400Y-104648000D01*
D56*
X111302800Y-115976400D02*
X116814600Y-115976400D01*
D55*
X123164600Y-122504200D02*
X123139200Y-122529600D01*
D57*
X164312600Y-67132200D02*
X164287200Y-67106800D01*
X160616600Y-99110800D02*
X159359600Y-99110800D01*
D56*
X140843000Y-140284200D02*
X139141200Y-141986000D01*
D57*
X169496600Y-88885200D02*
X170281600Y-88100200D01*
D56*
X142367000Y-119049800D02*
X142392400Y-119075200D01*
D57*
X189175000Y-129794000D02*
X186944000Y-129794000D01*
D56*
X110083600Y-117043200D02*
X111150400Y-115976400D01*
X124460000Y-141986000D02*
X119329200Y-141986000D01*
D57*
X158190800Y-71221200D02*
X158191200Y-71221600D01*
X156565600Y-95770200D02*
X156565600Y-96926400D01*
X161150600Y-85039200D02*
X161150600Y-84465005D01*
D58*
X166674800Y-73750200D02*
X168413400Y-73750200D01*
D56*
X110083600Y-119329200D02*
X110083600Y-117246400D01*
D58*
X183870200Y-73838200D02*
X183845200Y-73863200D01*
D57*
X186232800Y-87620000D02*
X184058400Y-87620000D01*
X161935600Y-85227600D02*
X161935600Y-86955200D01*
D56*
X110083600Y-138925742D02*
X110083600Y-138785600D01*
D57*
X122465000Y-66274000D02*
X124581600Y-66274000D01*
X164693600Y-80772000D02*
X174193200Y-71272400D01*
X163435600Y-86955200D02*
X163435600Y-83984400D01*
X132080000Y-79603600D02*
X130098800Y-81584800D01*
X160223200Y-80772000D02*
X160172400Y-80772000D01*
X130661600Y-83773200D02*
X132461000Y-83773200D01*
X163435600Y-83984400D02*
X160223200Y-80772000D01*
X130098800Y-81584800D02*
X130098800Y-83210400D01*
X156006800Y-80772000D02*
X160172400Y-80772000D01*
X133350000Y-52070000D02*
X132080000Y-53340000D01*
X132080000Y-73964800D02*
X132080000Y-79603600D01*
X183667800Y-71298200D02*
X183642000Y-71272400D01*
X186272000Y-71298200D02*
X183667800Y-71298200D01*
X130098800Y-83210400D02*
X130661600Y-83773200D01*
X140411200Y-80772000D02*
X135246500Y-75607300D01*
X160172400Y-80772000D02*
X160578800Y-80772000D01*
X132080000Y-53340000D02*
X132080000Y-72440800D01*
X152450800Y-80772000D02*
X140411200Y-80772000D01*
X133993500Y-74345800D02*
X133985000Y-74345800D01*
X160578800Y-80772000D02*
X164693600Y-80772000D01*
X133985000Y-74345800D02*
X132080000Y-72440800D01*
X174193200Y-71272400D02*
X179578000Y-71272400D01*
X135246500Y-75607300D02*
X135246500Y-75590400D01*
X132080000Y-72440800D02*
X132080000Y-73964800D01*
X124538200Y-118821200D02*
X125348400Y-119631400D01*
X124538200Y-118364000D02*
X124538200Y-118821200D01*
X172234800Y-89385200D02*
X172539600Y-89385200D01*
X127061800Y-120044400D02*
X126618921Y-120044400D01*
X126618921Y-120044400D02*
X126205921Y-119631400D01*
X124510800Y-112301900D02*
X124510800Y-111963200D01*
X124510800Y-111963200D02*
X124917200Y-111556800D01*
X125348400Y-119631400D02*
X125907800Y-119631400D01*
X172720000Y-110032800D02*
X172720000Y-109169200D01*
X171196000Y-111556800D02*
X172720000Y-110032800D01*
X124917200Y-111556800D02*
X171196000Y-111556800D01*
X168365600Y-89385200D02*
X172234800Y-89385200D01*
X172539600Y-89385200D02*
X172720000Y-89204800D01*
X126205921Y-119631400D02*
X125907800Y-119631400D01*
X159600600Y-84320697D02*
X159308800Y-84028897D01*
X160375600Y-85547200D02*
X160375600Y-86410800D01*
X124694000Y-71354000D02*
X124714000Y-71374000D01*
D58*
X153212800Y-76047600D02*
X152857200Y-76403200D01*
X153999800Y-74942200D02*
X153999800Y-74162200D01*
D57*
X161747200Y-97231200D02*
X162255200Y-96723200D01*
X159600600Y-85039200D02*
X159867600Y-85039200D01*
X159245600Y-95720200D02*
X159385000Y-95859600D01*
D58*
X153873200Y-76504800D02*
X153873200Y-77266800D01*
D57*
X136728200Y-82664600D02*
X137858200Y-82664600D01*
D58*
X155079800Y-76022200D02*
X154355800Y-76022200D01*
D57*
X192605000Y-125984000D02*
X194818000Y-125984000D01*
D58*
X153924000Y-76454000D02*
X153873200Y-76504800D01*
X155905200Y-76504800D02*
X155905200Y-77266800D01*
D57*
X159924600Y-93885200D02*
X158089600Y-95720200D01*
X168365600Y-88385200D02*
X168365600Y-87717200D01*
X152476200Y-103860600D02*
X152501600Y-103835200D01*
X161201400Y-97231200D02*
X161747200Y-97231200D01*
X159867600Y-85039200D02*
X160375600Y-85547200D01*
D58*
X155079800Y-76022200D02*
X153238200Y-76022200D01*
D57*
X169532600Y-86550200D02*
X170281600Y-86550200D01*
D58*
X155079800Y-77076200D02*
X154889200Y-77266800D01*
D57*
X160005600Y-93885200D02*
X159924600Y-93885200D01*
D58*
X155079800Y-76022200D02*
X155422600Y-76022200D01*
D57*
X150330400Y-103860600D02*
X152476200Y-103860600D01*
X170281600Y-86550200D02*
X170281600Y-85648800D01*
X117926800Y-66274000D02*
X117906800Y-66294000D01*
D58*
X186272000Y-76378200D02*
X183921800Y-76378200D01*
D55*
X124891800Y-122481400D02*
X124914600Y-122504200D01*
D57*
X169570900Y-103327200D02*
X169570900Y-104596700D01*
X135255000Y-83273199D02*
X136119601Y-83273199D01*
X159600600Y-85039200D02*
X159600600Y-84320697D01*
X152476200Y-102590600D02*
X152501600Y-102565200D01*
X161435600Y-96997000D02*
X161201400Y-97231200D01*
X122465000Y-71354000D02*
X124694000Y-71354000D01*
D55*
X125806200Y-122504200D02*
X125831600Y-122529600D01*
X133096000Y-117144800D02*
X133084800Y-117156000D01*
D58*
X152857200Y-76403200D02*
X152857200Y-77266800D01*
D57*
X137858200Y-82664600D02*
X137871200Y-82651600D01*
X192605000Y-124714000D02*
X194868800Y-124714000D01*
D55*
X124914600Y-122504200D02*
X125806200Y-122504200D01*
D57*
X169583400Y-101803200D02*
X170789600Y-101803200D01*
X160375600Y-86410800D02*
X160920000Y-86955200D01*
X160920000Y-86955200D02*
X161435600Y-86955200D01*
D55*
X124914600Y-123494800D02*
X125831600Y-123494800D01*
D57*
X190439200Y-80000000D02*
X190449200Y-80010000D01*
D55*
X133084800Y-117156000D02*
X133084800Y-118770400D01*
D58*
X153238200Y-76022200D02*
X153212800Y-76047600D01*
D55*
X125907800Y-121541400D02*
X124916800Y-121541400D01*
D57*
X168554400Y-140716000D02*
X166624000Y-140716000D01*
X136728200Y-84150100D02*
X136728200Y-82664600D01*
D58*
X155079800Y-76022200D02*
X155079800Y-77076200D01*
D57*
X119925000Y-66274000D02*
X117926800Y-66274000D01*
X169570900Y-104596700D02*
X169570400Y-104597200D01*
D55*
X124914600Y-122504200D02*
X124914600Y-123494800D01*
X124916800Y-121541400D02*
X124891800Y-121566400D01*
D57*
X158089600Y-95720200D02*
X159245600Y-95720200D01*
D58*
X154355800Y-76022200D02*
X153924000Y-76454000D01*
X155803600Y-76403200D02*
X155905200Y-76504800D01*
D57*
X161435600Y-95315200D02*
X161435600Y-96997000D01*
X150330400Y-102590600D02*
X152476200Y-102590600D01*
X188772800Y-80000000D02*
X190439200Y-80000000D01*
X136119601Y-83273199D02*
X136728200Y-82664600D01*
X194818000Y-125984000D02*
X194868800Y-126034800D01*
D58*
X155422600Y-76022200D02*
X155803600Y-76403200D01*
X183921800Y-76378200D02*
X183896000Y-76352400D01*
D57*
X168365600Y-87717200D02*
X169532600Y-86550200D01*
D55*
X124891800Y-121566400D02*
X124891800Y-122481400D01*
D58*
X155079800Y-76022200D02*
X153999800Y-74942200D01*
D55*
X127061800Y-120544400D02*
X125934800Y-120544400D01*
X123976800Y-120546400D02*
X123924000Y-120599200D01*
X124891800Y-120546400D02*
X123976800Y-120546400D01*
X125934800Y-120544400D02*
X125907800Y-120571400D01*
X124916800Y-120571400D02*
X124891800Y-120546400D01*
X125907800Y-120571400D02*
X124916800Y-120571400D01*
X122044400Y-120599200D02*
X122021600Y-120576400D01*
X121083800Y-120624600D02*
X121973400Y-120624600D01*
X121973400Y-120624600D02*
X122021600Y-120576400D01*
X122964000Y-120599200D02*
X122044400Y-120599200D01*
D57*
X163613800Y-100297400D02*
X164015600Y-100699200D01*
X163935600Y-95315200D02*
X163935600Y-98789000D01*
X163935600Y-98789000D02*
X163613800Y-99110800D01*
X163613800Y-99110800D02*
X163613800Y-100297400D01*
D59*
X163435600Y-95315200D02*
X163435600Y-96635000D01*
D57*
X162166600Y-99110800D02*
X162204400Y-99110800D01*
X162204400Y-99110800D02*
X162842600Y-99749000D01*
D59*
X163435600Y-96635000D02*
X162166600Y-97904000D01*
X162166600Y-97904000D02*
X162166600Y-99110800D01*
D57*
X161915600Y-102399200D02*
X161815600Y-102399200D01*
X162842600Y-99749000D02*
X162842600Y-101472200D01*
X162842600Y-101472200D02*
X161915600Y-102399200D01*
X165435600Y-96906400D02*
X166109600Y-97580400D01*
X168046400Y-98494800D02*
X168046400Y-98755200D01*
X168020900Y-98780700D02*
X168046400Y-98755200D01*
X168008400Y-100291700D02*
X168020900Y-100279200D01*
X166109600Y-97580400D02*
X167132000Y-97580400D01*
X165435600Y-95315200D02*
X165435600Y-96906400D01*
X167132000Y-97580400D02*
X168046400Y-98494800D01*
X168020900Y-100279200D02*
X168020900Y-98780700D01*
X168008400Y-101803200D02*
X168008400Y-100291700D01*
X165446000Y-98034400D02*
X166065200Y-98034400D01*
X166928800Y-98898000D02*
X166928800Y-101383800D01*
X166065200Y-98034400D02*
X166928800Y-98898000D01*
X164435600Y-97024000D02*
X165446000Y-98034400D01*
X164435600Y-95315200D02*
X164435600Y-97024000D01*
X166928800Y-101383800D02*
X166522400Y-101790200D01*
D58*
X165506400Y-64211200D02*
X165506400Y-65583300D01*
X165506400Y-65583300D02*
X165531300Y-65608200D01*
X157491200Y-64860400D02*
X158242000Y-64109600D01*
X158242000Y-64109600D02*
X165608000Y-64109600D01*
X158190800Y-68389200D02*
X157491200Y-67689600D01*
X167694000Y-62023600D02*
X165506400Y-64211200D01*
X157841800Y-68738200D02*
X158190800Y-68389200D01*
X157491200Y-67689600D02*
X157491200Y-64860400D01*
X165608000Y-64109600D02*
X167694000Y-62023600D01*
X156539800Y-68738200D02*
X157841800Y-68738200D01*
X168910000Y-57150000D02*
X167694000Y-58366000D01*
X167694000Y-58366000D02*
X167694000Y-62023600D01*
D57*
X160374800Y-67563700D02*
X160374800Y-71450200D01*
D58*
X156539800Y-74162200D02*
X156539800Y-75897200D01*
X157740800Y-72961200D02*
X156539800Y-74162200D01*
X158190800Y-72961200D02*
X157740800Y-72961200D01*
X158190800Y-72961200D02*
X158863800Y-72961200D01*
X158863800Y-72961200D02*
X160374800Y-71450200D01*
D57*
X159689300Y-66878200D02*
X160374800Y-67563700D01*
D58*
X156539800Y-75897200D02*
X156419332Y-76017668D01*
D57*
X161264300Y-65391700D02*
X161301800Y-65354200D01*
X161264300Y-66878200D02*
X161264300Y-65391700D01*
X136765700Y-85762600D02*
X136728200Y-85725100D01*
X138252200Y-85762600D02*
X136765700Y-85762600D01*
X186283600Y-50495200D02*
X181051200Y-50495200D01*
X186690000Y-50901600D02*
X186283600Y-50495200D01*
X181051200Y-50495200D02*
X180340000Y-51206400D01*
X180340000Y-76149200D02*
X177292000Y-79197200D01*
X180340000Y-51206400D02*
X180340000Y-76149200D01*
X164935600Y-81952400D02*
X164935600Y-86955200D01*
X177292000Y-79197200D02*
X167690800Y-79197200D01*
X186690000Y-52070000D02*
X186690000Y-50901600D01*
X167690800Y-79197200D02*
X164935600Y-81952400D01*
X164435600Y-84911700D02*
X164435600Y-84810100D01*
X182880000Y-54203600D02*
X183743600Y-53340000D01*
X167949700Y-80213200D02*
X178866800Y-80213200D01*
X185978800Y-54610000D02*
X186690000Y-54610000D01*
X178866800Y-80213200D02*
X182880000Y-76200000D01*
X165562100Y-82600800D02*
X167949700Y-80213200D01*
X182880000Y-76200000D02*
X182880000Y-54203600D01*
X164435600Y-86955200D02*
X164435600Y-84911700D01*
X183743600Y-53340000D02*
X184708800Y-53340000D01*
X164435600Y-84810100D02*
X164309100Y-84683600D01*
X184708800Y-53340000D02*
X185978800Y-54610000D01*
X193090800Y-58724800D02*
X193090800Y-59232800D01*
X178929222Y-93385200D02*
X190840800Y-93385200D01*
X168365600Y-93385200D02*
X178768748Y-93385200D01*
X190840800Y-93385200D02*
X193090800Y-91135200D01*
X187707450Y-53341450D02*
X187960000Y-53594000D01*
X187960000Y-53594000D02*
X193090800Y-58724800D01*
X178768748Y-93385200D02*
X178929222Y-93385200D01*
X185421450Y-53341450D02*
X187707450Y-53341450D01*
X193090800Y-91135200D02*
X193090800Y-61671200D01*
X184150000Y-52070000D02*
X185421450Y-53341450D01*
X168365600Y-93885200D02*
X191407600Y-93885200D01*
X185421450Y-55881450D02*
X188618950Y-55881450D01*
X184150000Y-54610000D02*
X185421450Y-55881450D01*
X191407600Y-93885200D02*
X193802000Y-91490800D01*
X193802000Y-91490800D02*
X193802000Y-61064500D01*
X193802000Y-61064500D02*
X188618950Y-55881450D01*
D58*
X167386000Y-49072800D02*
X166166800Y-50292000D01*
X149914000Y-53286000D02*
X148590000Y-54610000D01*
X151079200Y-50292000D02*
X149914000Y-51457200D01*
X186589111Y-49072800D02*
X167386000Y-49072800D01*
X149914000Y-51457200D02*
X149914000Y-53286000D01*
X166166800Y-50292000D02*
X151079200Y-50292000D01*
D57*
X153263600Y-121310400D02*
X154127200Y-122174000D01*
X175056800Y-110540800D02*
X173329600Y-112268000D01*
X175056800Y-109169200D02*
X175056800Y-110540800D01*
X168365600Y-90885200D02*
X174697795Y-90885200D01*
X153263600Y-113157000D02*
X153263600Y-121310400D01*
X174828700Y-90885200D02*
X175030394Y-90885200D01*
X175030394Y-90885200D02*
X175157647Y-90757947D01*
X154152600Y-112268000D02*
X153263600Y-113157000D01*
X154127200Y-122174000D02*
X158774400Y-122174000D01*
X174697795Y-90885200D02*
X174828700Y-90885200D01*
X173329600Y-112268000D02*
X154152600Y-112268000D01*
D59*
X168365600Y-92885200D02*
X177502100Y-92885200D01*
X158723600Y-120853200D02*
X158774400Y-120904000D01*
X157581600Y-115062000D02*
X175717200Y-115062000D01*
D57*
X113690400Y-111201200D02*
X113690400Y-111760000D01*
X116496600Y-98780600D02*
X114427000Y-98780600D01*
D59*
X175717200Y-115062000D02*
X177901600Y-112877600D01*
X177502100Y-92885200D02*
X177775100Y-92885200D01*
D57*
X113690400Y-114757200D02*
X113842800Y-114909600D01*
X113690400Y-99517200D02*
X113690400Y-102260400D01*
D59*
X156616400Y-120853200D02*
X158723600Y-120853200D01*
D57*
X113690400Y-114367700D02*
X113690400Y-114757200D01*
X113690400Y-102260400D02*
X113690400Y-111201200D01*
X114427000Y-98780600D02*
X113690400Y-99517200D01*
D59*
X177901600Y-112877600D02*
X177901600Y-109169200D01*
D57*
X113842800Y-114909600D02*
X151993600Y-114909600D01*
X151993600Y-114909600D02*
X152146000Y-115062000D01*
D59*
X177775100Y-92885200D02*
X177901600Y-92758700D01*
D57*
X112877600Y-98399600D02*
X113766600Y-97510600D01*
X175869600Y-111302800D02*
X174244000Y-112928400D01*
X168365600Y-91885200D02*
X175576800Y-91885200D01*
X155346400Y-112928400D02*
X154533600Y-113741200D01*
X112877600Y-111861600D02*
X112877600Y-98399600D01*
X175576800Y-91885200D02*
X175869600Y-91592400D01*
X155346400Y-112928400D02*
X154432000Y-112928400D01*
X113944400Y-112928400D02*
X112877600Y-111861600D01*
X113766600Y-97510600D02*
X116496600Y-97510600D01*
X154533600Y-118770400D02*
X155397200Y-119634000D01*
X155397200Y-119634000D02*
X158774400Y-119634000D01*
X174244000Y-112928400D02*
X155346400Y-112928400D01*
X175869600Y-109169200D02*
X175869600Y-111302800D01*
X154533600Y-113741200D02*
X154533600Y-118770400D01*
X152146000Y-112928400D02*
X113944400Y-112928400D01*
X175107600Y-113741200D02*
X175641000Y-113207800D01*
X168365600Y-92385200D02*
X176710300Y-92385200D01*
X112064800Y-112826800D02*
X112064800Y-110540800D01*
X116496600Y-96240600D02*
X113106200Y-96240600D01*
X158038800Y-113741200D02*
X175107600Y-113741200D01*
X156260800Y-114840452D02*
X157360052Y-113741200D01*
X112064800Y-97282000D02*
X112064800Y-110540800D01*
X176834800Y-109169200D02*
X176834800Y-112014000D01*
X156260800Y-117805200D02*
X156819600Y-118364000D01*
X151739600Y-113741200D02*
X112979200Y-113741200D01*
X176834800Y-112014000D02*
X175641000Y-113207800D01*
X176710300Y-92385200D02*
X176834800Y-92260700D01*
X157360052Y-113741200D02*
X158038800Y-113741200D01*
X113106200Y-96240600D02*
X112064800Y-97282000D01*
X175641000Y-113207800D02*
X175260000Y-113588800D01*
X156260800Y-114840452D02*
X156260800Y-117805200D01*
X155549600Y-113741200D02*
X158038800Y-113741200D01*
X112979200Y-113741200D02*
X112064800Y-112826800D01*
X156819600Y-118364000D02*
X158774400Y-118364000D01*
X151739600Y-113741200D02*
X152146000Y-113741200D01*
X195529200Y-120904000D02*
X192605000Y-120904000D01*
X161369900Y-89385200D02*
X161696400Y-89058700D01*
X196494400Y-100126800D02*
X196494400Y-119938800D01*
X171805600Y-97952900D02*
X171816100Y-97942400D01*
X196494400Y-119938800D02*
X195529200Y-120904000D01*
X171816100Y-97942400D02*
X194310000Y-97942400D01*
X194310000Y-97942400D02*
X196494400Y-100126800D01*
X160005600Y-89385200D02*
X161369900Y-89385200D01*
X114528600Y-100050600D02*
X114503200Y-100025200D01*
X112064800Y-92608400D02*
X114288000Y-90385200D01*
X116496600Y-100050600D02*
X114528600Y-100050600D01*
X114288000Y-90385200D02*
X160005600Y-90385200D01*
X112064800Y-95453200D02*
X112064800Y-92608400D01*
X173634400Y-107797600D02*
X173024800Y-108407200D01*
X173024800Y-108407200D02*
X157124400Y-108407200D01*
X153517600Y-104800400D02*
X153517600Y-100228400D01*
X152069800Y-98780600D02*
X150736800Y-98780600D01*
X168365600Y-90385200D02*
X173622848Y-90385200D01*
X157124400Y-108407200D02*
X153517600Y-104800400D01*
X153517600Y-100228400D02*
X152069800Y-98780600D01*
X173622848Y-90385200D02*
X173803432Y-90385200D01*
X173803432Y-90385200D02*
X173929932Y-90258700D01*
D55*
X136589600Y-130048000D02*
X115366800Y-130048000D01*
X115417600Y-120650000D02*
X120038400Y-120650000D01*
X120038400Y-120650000D02*
X120063800Y-120624600D01*
D57*
X150266400Y-77673200D02*
X150266400Y-72491600D01*
X158648400Y-86055200D02*
X150266400Y-77673200D01*
X150266400Y-72491600D02*
X152729800Y-70028200D01*
X165451600Y-91385200D02*
X162814000Y-88747600D01*
X168365600Y-91385200D02*
X165451600Y-91385200D01*
X152729800Y-70028200D02*
X152729800Y-68738200D01*
X156565600Y-92964000D02*
X156565600Y-94120200D01*
X160005600Y-91885200D02*
X157644400Y-91885200D01*
X157644400Y-91885200D02*
X156565600Y-92964000D01*
X134620000Y-53340000D02*
X135890000Y-52070000D01*
X134620000Y-76708000D02*
X134620000Y-75438000D01*
X140462000Y-82550000D02*
X134620000Y-76708000D01*
X188812000Y-71298200D02*
X187567000Y-70053200D01*
X157073600Y-82550000D02*
X160985200Y-82550000D01*
X134620000Y-78536800D02*
X131064000Y-82092800D01*
X162864800Y-79806800D02*
X162306000Y-79806800D01*
X179578000Y-70053200D02*
X173888400Y-70053200D01*
X164134800Y-79806800D02*
X162864800Y-79806800D01*
X154228800Y-82550000D02*
X140462000Y-82550000D01*
X131685599Y-83273199D02*
X131064000Y-82651600D01*
X134620000Y-75438000D02*
X134620000Y-53340000D01*
X132461000Y-83273199D02*
X131685599Y-83273199D01*
X134620000Y-78536800D02*
X134620000Y-75438000D01*
X173888400Y-70053200D02*
X169976800Y-73964800D01*
X160985200Y-82550000D02*
X162935600Y-84500400D01*
X169976800Y-73964800D02*
X164134800Y-79806800D01*
X162935600Y-84500400D02*
X162935600Y-86955200D01*
X187567000Y-70053200D02*
X183642000Y-70053200D01*
X131064000Y-82651600D02*
X131064000Y-82092800D01*
X131335400Y-86766400D02*
X159207200Y-86766400D01*
X130843400Y-84677888D02*
X130843400Y-86274400D01*
X161079600Y-88086083D02*
X161079600Y-88080000D01*
X131248088Y-84273200D02*
X130843400Y-84677888D01*
X165606883Y-88086083D02*
X161079600Y-88086083D01*
X159766000Y-86766400D02*
X159207200Y-86766400D01*
X166928800Y-88087200D02*
X166624000Y-88392000D01*
X166624000Y-88392000D02*
X165912800Y-88392000D01*
X166928800Y-86962000D02*
X166928800Y-88087200D01*
X166935600Y-86955200D02*
X166928800Y-86962000D01*
X161079600Y-88080000D02*
X159766000Y-86766400D01*
X130843400Y-86274400D02*
X131335400Y-86766400D01*
X165912800Y-88392000D02*
X165606883Y-88086083D01*
X132461000Y-84273200D02*
X131248088Y-84273200D01*
D58*
X166674800Y-69150200D02*
X166674800Y-67551200D01*
X166674800Y-67551200D02*
X167093800Y-67132200D01*
X167093800Y-67132200D02*
X167093800Y-65620700D01*
X167093800Y-65620700D02*
X167106300Y-65608200D01*
D57*
X155244800Y-100431600D02*
X155244800Y-92202000D01*
X156061600Y-91385200D02*
X160005600Y-91385200D01*
X186334400Y-105613200D02*
X160426400Y-105613200D01*
X155244800Y-92202000D02*
X156061600Y-91385200D01*
X160426400Y-105613200D02*
X155244800Y-100431600D01*
X188772800Y-103174800D02*
X186334400Y-105613200D01*
X188772800Y-87620000D02*
X188772800Y-91643200D01*
X188772800Y-101498400D02*
X188772800Y-103174800D01*
D59*
X168365600Y-89885200D02*
X173283302Y-89885200D01*
X173283302Y-89885200D02*
X178088502Y-85080000D01*
X178088502Y-85080000D02*
X186232800Y-85080000D01*
D57*
X168747806Y-83903000D02*
X168743403Y-83907403D01*
X187595800Y-83903000D02*
X168747806Y-83903000D01*
X165935600Y-84943195D02*
X166218236Y-84660559D01*
X187595800Y-83903000D02*
X188772800Y-85080000D01*
X165935600Y-86955200D02*
X165935600Y-84943195D01*
X166435600Y-86955200D02*
X166435600Y-85329200D01*
X169224800Y-82540000D02*
X186232800Y-82540000D01*
X166435600Y-85329200D02*
X169224800Y-82540000D01*
X168712083Y-81280000D02*
X187512800Y-81280000D01*
X165435600Y-86955200D02*
X165435600Y-84556483D01*
X187512800Y-81280000D02*
X188772800Y-82540000D01*
X165435600Y-84556483D02*
X168712083Y-81280000D01*
X190195200Y-78384400D02*
X191262000Y-79451200D01*
X186690000Y-78689200D02*
X186994800Y-78384400D01*
X154127200Y-92151200D02*
X154127200Y-100584000D01*
X187858400Y-106476800D02*
X191262000Y-103073200D01*
X191262000Y-79451200D02*
X191262000Y-91643200D01*
X160005600Y-90885200D02*
X155393200Y-90885200D01*
X160020000Y-106476800D02*
X187858400Y-106476800D01*
X191262000Y-103073200D02*
X191262000Y-101498400D01*
X186994800Y-78384400D02*
X189433200Y-78384400D01*
X189433200Y-78384400D02*
X190195200Y-78384400D01*
X186232800Y-79146400D02*
X186690000Y-78689200D01*
X186232800Y-80000000D02*
X186232800Y-79146400D01*
X154127200Y-100584000D02*
X160020000Y-106476800D01*
X155393200Y-90885200D02*
X154127200Y-92151200D01*
X197324400Y-67581200D02*
X197307200Y-67564000D01*
X169875200Y-96672400D02*
X192582800Y-96672400D01*
X195786400Y-84901948D02*
X197646574Y-83041774D01*
X166435600Y-96230000D02*
X166878000Y-96672400D01*
X198224800Y-72491600D02*
X198224800Y-68475200D01*
X198224800Y-82463548D02*
X198224800Y-72491600D01*
X197646574Y-83041774D02*
X198224800Y-82463548D01*
X195786400Y-93116400D02*
X195786400Y-84901948D01*
X195786400Y-93468800D02*
X195786400Y-93116400D01*
X192582800Y-96672400D02*
X195786400Y-93468800D01*
X166878000Y-96672400D02*
X169875200Y-96672400D01*
X166435600Y-95315200D02*
X166435600Y-96230000D01*
X197330800Y-67581200D02*
X198224800Y-68475200D01*
X197330800Y-67581200D02*
X197324400Y-67581200D01*
X192789200Y-97126400D02*
X193090800Y-96824800D01*
X196240400Y-93675200D02*
X193090800Y-96824800D01*
X198678800Y-67462400D02*
X198678800Y-82651600D01*
X197434600Y-66218200D02*
X198678800Y-67462400D01*
X165935600Y-95315200D02*
X165935600Y-96390400D01*
X165935600Y-96390400D02*
X166671600Y-97126400D01*
X196240400Y-85090000D02*
X196240400Y-93675200D01*
X197434600Y-66218200D02*
X197408800Y-66192400D01*
X166671600Y-97126400D02*
X192789200Y-97126400D01*
X198678800Y-82651600D02*
X196240400Y-85090000D01*
X194878400Y-93074348D02*
X192188348Y-95764400D01*
X197316800Y-70174900D02*
X197144300Y-70002400D01*
X168814800Y-95764400D02*
X162935600Y-89885200D01*
X197316800Y-72085200D02*
X197316800Y-70174900D01*
X194878400Y-84525844D02*
X194878400Y-93074348D01*
X197316800Y-72085200D02*
X197316800Y-82087444D01*
X192188348Y-95764400D02*
X168814800Y-95764400D01*
X162935600Y-89885200D02*
X160005600Y-89885200D01*
X197316800Y-82087444D02*
X194878400Y-84525844D01*
X197770800Y-82275496D02*
X197770800Y-70205600D01*
X166935600Y-95315200D02*
X166935600Y-95714000D01*
X166935600Y-95714000D02*
X167440000Y-96218400D01*
X167440000Y-96218400D02*
X192376400Y-96218400D01*
X197770800Y-69196000D02*
X197358000Y-68783200D01*
X195332400Y-84713896D02*
X197770800Y-82275496D01*
X195332400Y-93262400D02*
X195332400Y-84713896D01*
X192376400Y-96218400D02*
X195332400Y-93262400D01*
X197770800Y-70205600D02*
X197770800Y-69196000D01*
X112979200Y-74676000D02*
X116301200Y-71354000D01*
X160005600Y-88385200D02*
X131412800Y-88385200D01*
X115163600Y-88392000D02*
X112979200Y-86207600D01*
X131412800Y-88385200D02*
X131406000Y-88392000D01*
X131406000Y-88392000D02*
X115163600Y-88392000D01*
X112979200Y-86207600D02*
X112979200Y-74676000D01*
X116301200Y-71354000D02*
X119925000Y-71354000D01*
X115336000Y-73894000D02*
X114147600Y-75082400D01*
X115214400Y-86918800D02*
X115874800Y-87579200D01*
X162435600Y-86955200D02*
X162435600Y-84864000D01*
X147980400Y-87579200D02*
X148082000Y-87579200D01*
X162435600Y-84864000D02*
X161442400Y-83870800D01*
X115874800Y-87579200D02*
X147980400Y-87579200D01*
X160973997Y-83402397D02*
X156881603Y-83402397D01*
X161442400Y-83870800D02*
X160973997Y-83402397D01*
X114147600Y-85852000D02*
X115214400Y-86918800D01*
X119925000Y-73894000D02*
X115336000Y-73894000D01*
X114147600Y-75082400D02*
X114147600Y-85852000D01*
M02*
