%TF.GenerationSoftware,KiCad,Pcbnew,(6.0.7-1)-1*%
%TF.CreationDate,2023-04-16T23:24:30-04:00*%
%TF.ProjectId,camm-brd,63616d6d-2d62-4726-942e-6b696361645f,rev?*%
%TF.SameCoordinates,Original*%
%TF.FileFunction,Drillmap*%
%TF.FilePolarity,Positive*%
%FSLAX45Y45*%
G04 Gerber Fmt 4.5, Leading zero omitted, Abs format (unit mm)*
G04 Created by KiCad (PCBNEW (6.0.7-1)-1) date 2023-04-16 23:24:30*
%MOMM*%
%LPD*%
G01*
G04 APERTURE LIST*
%ADD10C,0.100000*%
%ADD11C,0.200000*%
G04 APERTURE END LIST*
D10*
X14274800Y-4699000D02*
X11964316Y-4699000D01*
X16611600Y-4699000D02*
X16687800Y-4699000D01*
X14389100Y-4889500D02*
X14389100Y-4813300D01*
X16611600Y-4699000D02*
G75*
G03*
X16497300Y-4813300I0J-114300D01*
G01*
X16497300Y-4889500D02*
X16497300Y-4813300D01*
X16383000Y-5003800D02*
X14503400Y-5003800D01*
X16383000Y-5003800D02*
G75*
G03*
X16497300Y-4889500I0J114300D01*
G01*
X14389100Y-4889500D02*
G75*
G03*
X14503400Y-5003800I114300J0D01*
G01*
X14389100Y-4813300D02*
G75*
G03*
X14274800Y-4699000I-114300J0D01*
G01*
X16598900Y-14084300D02*
X16598900Y-14173200D01*
X19862800Y-13347700D02*
G75*
G03*
X19786600Y-13423900I0J-76200D01*
G01*
X11595100Y-14135100D02*
X11480800Y-14135100D01*
X11036300Y-10553700D02*
G75*
G03*
X10922000Y-10668000I0J-114300D01*
G01*
X11785600Y-14135100D02*
X11595100Y-14135100D01*
X11861800Y-14211300D02*
G75*
G03*
X11938000Y-14287500I76200J0D01*
G01*
X19939000Y-8356600D02*
X19939000Y-5715000D01*
X11861800Y-14211300D02*
G75*
G03*
X11785600Y-14135100I-76200J0D01*
G01*
X10922000Y-13271500D02*
G75*
G03*
X10998200Y-13347700I76200J0D01*
G01*
X11456316Y-5207916D02*
X11457232Y-5562600D01*
X19075400Y-4851400D02*
X19176084Y-4851400D01*
X11074400Y-13423900D02*
G75*
G03*
X10998200Y-13347700I-76200J0D01*
G01*
X11226800Y-8559800D02*
G75*
G03*
X11112500Y-8445500I-114300J0D01*
G01*
X14490700Y-14084300D02*
X14490700Y-14173200D01*
X11074400Y-13423900D02*
X11074400Y-13779500D01*
X18999200Y-4775200D02*
G75*
G03*
X18923000Y-4699000I-76200J0D01*
G01*
X19075400Y-14135098D02*
G75*
G03*
X18996119Y-14211300I-3020J-76202D01*
G01*
X18999200Y-4775200D02*
G75*
G03*
X19075400Y-4851400I76200J0D01*
G01*
X19824700Y-8470900D02*
G75*
G03*
X19939000Y-8356600I0J114300D01*
G01*
X19939000Y-5715000D02*
G75*
G03*
X19862800Y-5638800I-76200J0D01*
G01*
X11811916Y-4851398D02*
G75*
G03*
X11456316Y-5207916I-10526J-345102D01*
G01*
X19532600Y-5562600D02*
G75*
G03*
X19608800Y-5638800I76200J0D01*
G01*
X19608800Y-5638800D02*
X19862800Y-5638800D01*
X10998200Y-5638800D02*
X11381032Y-5638800D01*
X10922000Y-10668000D02*
X10922000Y-13271500D01*
X19075400Y-14135100D02*
X19430084Y-14134184D01*
X19430084Y-14134184D02*
G75*
G03*
X19785684Y-13778584I11386J344214D01*
G01*
X19748500Y-8470900D02*
G75*
G03*
X19634200Y-8585200I0J-114300D01*
G01*
X11964316Y-4698996D02*
G75*
G03*
X11888116Y-4775200I4J-76204D01*
G01*
X16687800Y-4699000D02*
X18923000Y-4699000D01*
X11074400Y-13779500D02*
G75*
G03*
X11430000Y-14135100I344210J-11390D01*
G01*
X16598900Y-14173200D02*
G75*
G03*
X16713200Y-14287500I114300J0D01*
G01*
X19634200Y-10464800D02*
G75*
G03*
X19748500Y-10579100I114300J0D01*
G01*
X16713200Y-14287500D02*
X18919919Y-14287500D01*
X19634200Y-10464800D02*
X19634200Y-8585200D01*
X19939000Y-13271500D02*
X19939000Y-10693400D01*
X11938000Y-14287500D02*
X14376400Y-14287500D01*
X11036300Y-8445500D02*
X11112500Y-8445500D01*
X10998200Y-5638800D02*
G75*
G03*
X10922000Y-5715000I0J-76200D01*
G01*
X19748500Y-10579100D02*
X19824700Y-10579100D01*
X19862800Y-13347700D02*
G75*
G03*
X19939000Y-13271500I0J76200D01*
G01*
X14592300Y-13982700D02*
X16497300Y-13982700D01*
X14592300Y-13982700D02*
G75*
G03*
X14490700Y-14084300I0J-101600D01*
G01*
X16598900Y-14084300D02*
G75*
G03*
X16497300Y-13982700I-101600J0D01*
G01*
X14376400Y-14287500D02*
G75*
G03*
X14490700Y-14173200I0J114300D01*
G01*
X19939000Y-10693400D02*
G75*
G03*
X19824700Y-10579100I-114300J0D01*
G01*
X11811916Y-4851396D02*
G75*
G03*
X11888116Y-4775200I4J76196D01*
G01*
X19748500Y-8470900D02*
X19824700Y-8470900D01*
X11226800Y-8559800D02*
X11226800Y-10439400D01*
X11112500Y-10553700D02*
G75*
G03*
X11226800Y-10439400I0J114300D01*
G01*
X11381032Y-5638802D02*
G75*
G03*
X11457232Y-5562600I-2J76202D01*
G01*
X10922000Y-5715000D02*
X10922000Y-8331200D01*
X19785684Y-13778584D02*
X19786600Y-13423900D01*
X11480800Y-14135100D02*
X11430000Y-14135100D01*
X11036300Y-10553700D02*
X11112500Y-10553700D01*
X19531682Y-5207916D02*
G75*
G03*
X19176084Y-4851400I-345072J11416D01*
G01*
X10922000Y-8331200D02*
G75*
G03*
X11036300Y-8445500I114300J0D01*
G01*
X18919919Y-14287498D02*
G75*
G03*
X18996119Y-14211300I2J76199D01*
G01*
X19531684Y-5207916D02*
X19532600Y-5562600D01*
D11*
X11174619Y-14602976D02*
X11174619Y-14402976D01*
X11222238Y-14402976D01*
X11250809Y-14412500D01*
X11269857Y-14431548D01*
X11279381Y-14450595D01*
X11288905Y-14488690D01*
X11288905Y-14517262D01*
X11279381Y-14555357D01*
X11269857Y-14574405D01*
X11250809Y-14593452D01*
X11222238Y-14602976D01*
X11174619Y-14602976D01*
X11374619Y-14602976D02*
X11374619Y-14469643D01*
X11374619Y-14507738D02*
X11384143Y-14488690D01*
X11393667Y-14479167D01*
X11412714Y-14469643D01*
X11431762Y-14469643D01*
X11498428Y-14602976D02*
X11498428Y-14469643D01*
X11498428Y-14402976D02*
X11488905Y-14412500D01*
X11498428Y-14422024D01*
X11507952Y-14412500D01*
X11498428Y-14402976D01*
X11498428Y-14422024D01*
X11622238Y-14602976D02*
X11603190Y-14593452D01*
X11593667Y-14574405D01*
X11593667Y-14402976D01*
X11727000Y-14602976D02*
X11707952Y-14593452D01*
X11698428Y-14574405D01*
X11698428Y-14402976D01*
X11955571Y-14602976D02*
X11955571Y-14402976D01*
X12022238Y-14545833D01*
X12088905Y-14402976D01*
X12088905Y-14602976D01*
X12269857Y-14602976D02*
X12269857Y-14498214D01*
X12260333Y-14479167D01*
X12241286Y-14469643D01*
X12203190Y-14469643D01*
X12184143Y-14479167D01*
X12269857Y-14593452D02*
X12250809Y-14602976D01*
X12203190Y-14602976D01*
X12184143Y-14593452D01*
X12174619Y-14574405D01*
X12174619Y-14555357D01*
X12184143Y-14536309D01*
X12203190Y-14526786D01*
X12250809Y-14526786D01*
X12269857Y-14517262D01*
X12365095Y-14469643D02*
X12365095Y-14669643D01*
X12365095Y-14479167D02*
X12384143Y-14469643D01*
X12422238Y-14469643D01*
X12441286Y-14479167D01*
X12450809Y-14488690D01*
X12460333Y-14507738D01*
X12460333Y-14564881D01*
X12450809Y-14583928D01*
X12441286Y-14593452D01*
X12422238Y-14602976D01*
X12384143Y-14602976D01*
X12365095Y-14593452D01*
X12546048Y-14583928D02*
X12555571Y-14593452D01*
X12546048Y-14602976D01*
X12536524Y-14593452D01*
X12546048Y-14583928D01*
X12546048Y-14602976D01*
X12546048Y-14479167D02*
X12555571Y-14488690D01*
X12546048Y-14498214D01*
X12536524Y-14488690D01*
X12546048Y-14479167D01*
X12546048Y-14498214D01*
M02*
