%TF.GenerationSoftware,KiCad,Pcbnew,(5.1.7)-1*%
%TF.CreationDate,2020-10-12T20:46:30-04:00*%
%TF.ProjectId,STM32_Breakout,53544d33-325f-4427-9265-616b6f75742e,rev?*%
%TF.SameCoordinates,Original*%
%TF.FileFunction,Legend,Top*%
%TF.FilePolarity,Positive*%
%FSLAX46Y46*%
G04 Gerber Fmt 4.6, Leading zero omitted, Abs format (unit mm)*
G04 Created by KiCad (PCBNEW (5.1.7)-1) date 2020-10-12 20:46:30*
%MOMM*%
%LPD*%
G01*
G04 APERTURE LIST*
%ADD10C,0.150000*%
%ADD11C,0.120000*%
G04 APERTURE END LIST*
D10*
X79995238Y-81389761D02*
X80138095Y-81437380D01*
X80376190Y-81437380D01*
X80471428Y-81389761D01*
X80519047Y-81342142D01*
X80566666Y-81246904D01*
X80566666Y-81151666D01*
X80519047Y-81056428D01*
X80471428Y-81008809D01*
X80376190Y-80961190D01*
X80185714Y-80913571D01*
X80090476Y-80865952D01*
X80042857Y-80818333D01*
X79995238Y-80723095D01*
X79995238Y-80627857D01*
X80042857Y-80532619D01*
X80090476Y-80485000D01*
X80185714Y-80437380D01*
X80423809Y-80437380D01*
X80566666Y-80485000D01*
X80852380Y-80437380D02*
X81423809Y-80437380D01*
X81138095Y-81437380D02*
X81138095Y-80437380D01*
X81757142Y-81437380D02*
X81757142Y-80437380D01*
X82090476Y-81151666D01*
X82423809Y-80437380D01*
X82423809Y-81437380D01*
X82804761Y-80437380D02*
X83423809Y-80437380D01*
X83090476Y-80818333D01*
X83233333Y-80818333D01*
X83328571Y-80865952D01*
X83376190Y-80913571D01*
X83423809Y-81008809D01*
X83423809Y-81246904D01*
X83376190Y-81342142D01*
X83328571Y-81389761D01*
X83233333Y-81437380D01*
X82947619Y-81437380D01*
X82852380Y-81389761D01*
X82804761Y-81342142D01*
X83804761Y-80532619D02*
X83852380Y-80485000D01*
X83947619Y-80437380D01*
X84185714Y-80437380D01*
X84280952Y-80485000D01*
X84328571Y-80532619D01*
X84376190Y-80627857D01*
X84376190Y-80723095D01*
X84328571Y-80865952D01*
X83757142Y-81437380D01*
X84376190Y-81437380D01*
X85900000Y-80913571D02*
X86042857Y-80961190D01*
X86090476Y-81008809D01*
X86138095Y-81104047D01*
X86138095Y-81246904D01*
X86090476Y-81342142D01*
X86042857Y-81389761D01*
X85947619Y-81437380D01*
X85566666Y-81437380D01*
X85566666Y-80437380D01*
X85900000Y-80437380D01*
X85995238Y-80485000D01*
X86042857Y-80532619D01*
X86090476Y-80627857D01*
X86090476Y-80723095D01*
X86042857Y-80818333D01*
X85995238Y-80865952D01*
X85900000Y-80913571D01*
X85566666Y-80913571D01*
X86566666Y-81437380D02*
X86566666Y-80770714D01*
X86566666Y-80961190D02*
X86614285Y-80865952D01*
X86661904Y-80818333D01*
X86757142Y-80770714D01*
X86852380Y-80770714D01*
X87566666Y-81389761D02*
X87471428Y-81437380D01*
X87280952Y-81437380D01*
X87185714Y-81389761D01*
X87138095Y-81294523D01*
X87138095Y-80913571D01*
X87185714Y-80818333D01*
X87280952Y-80770714D01*
X87471428Y-80770714D01*
X87566666Y-80818333D01*
X87614285Y-80913571D01*
X87614285Y-81008809D01*
X87138095Y-81104047D01*
X88471428Y-81437380D02*
X88471428Y-80913571D01*
X88423809Y-80818333D01*
X88328571Y-80770714D01*
X88138095Y-80770714D01*
X88042857Y-80818333D01*
X88471428Y-81389761D02*
X88376190Y-81437380D01*
X88138095Y-81437380D01*
X88042857Y-81389761D01*
X87995238Y-81294523D01*
X87995238Y-81199285D01*
X88042857Y-81104047D01*
X88138095Y-81056428D01*
X88376190Y-81056428D01*
X88471428Y-81008809D01*
X88947619Y-81437380D02*
X88947619Y-80437380D01*
X89042857Y-81056428D02*
X89328571Y-81437380D01*
X89328571Y-80770714D02*
X88947619Y-81151666D01*
X89900000Y-81437380D02*
X89804761Y-81389761D01*
X89757142Y-81342142D01*
X89709523Y-81246904D01*
X89709523Y-80961190D01*
X89757142Y-80865952D01*
X89804761Y-80818333D01*
X89900000Y-80770714D01*
X90042857Y-80770714D01*
X90138095Y-80818333D01*
X90185714Y-80865952D01*
X90233333Y-80961190D01*
X90233333Y-81246904D01*
X90185714Y-81342142D01*
X90138095Y-81389761D01*
X90042857Y-81437380D01*
X89900000Y-81437380D01*
X91090476Y-80770714D02*
X91090476Y-81437380D01*
X90661904Y-80770714D02*
X90661904Y-81294523D01*
X90709523Y-81389761D01*
X90804761Y-81437380D01*
X90947619Y-81437380D01*
X91042857Y-81389761D01*
X91090476Y-81342142D01*
X91423809Y-80770714D02*
X91804761Y-80770714D01*
X91566666Y-80437380D02*
X91566666Y-81294523D01*
X91614285Y-81389761D01*
X91709523Y-81437380D01*
X91804761Y-81437380D01*
X93233333Y-80913571D02*
X93376190Y-80961190D01*
X93423809Y-81008809D01*
X93471428Y-81104047D01*
X93471428Y-81246904D01*
X93423809Y-81342142D01*
X93376190Y-81389761D01*
X93280952Y-81437380D01*
X92900000Y-81437380D01*
X92900000Y-80437380D01*
X93233333Y-80437380D01*
X93328571Y-80485000D01*
X93376190Y-80532619D01*
X93423809Y-80627857D01*
X93423809Y-80723095D01*
X93376190Y-80818333D01*
X93328571Y-80865952D01*
X93233333Y-80913571D01*
X92900000Y-80913571D01*
X94042857Y-81437380D02*
X93947619Y-81389761D01*
X93900000Y-81342142D01*
X93852380Y-81246904D01*
X93852380Y-80961190D01*
X93900000Y-80865952D01*
X93947619Y-80818333D01*
X94042857Y-80770714D01*
X94185714Y-80770714D01*
X94280952Y-80818333D01*
X94328571Y-80865952D01*
X94376190Y-80961190D01*
X94376190Y-81246904D01*
X94328571Y-81342142D01*
X94280952Y-81389761D01*
X94185714Y-81437380D01*
X94042857Y-81437380D01*
X95233333Y-81437380D02*
X95233333Y-80913571D01*
X95185714Y-80818333D01*
X95090476Y-80770714D01*
X94900000Y-80770714D01*
X94804761Y-80818333D01*
X95233333Y-81389761D02*
X95138095Y-81437380D01*
X94900000Y-81437380D01*
X94804761Y-81389761D01*
X94757142Y-81294523D01*
X94757142Y-81199285D01*
X94804761Y-81104047D01*
X94900000Y-81056428D01*
X95138095Y-81056428D01*
X95233333Y-81008809D01*
X95709523Y-81437380D02*
X95709523Y-80770714D01*
X95709523Y-80961190D02*
X95757142Y-80865952D01*
X95804761Y-80818333D01*
X95900000Y-80770714D01*
X95995238Y-80770714D01*
X96757142Y-81437380D02*
X96757142Y-80437380D01*
X96757142Y-81389761D02*
X96661904Y-81437380D01*
X96471428Y-81437380D01*
X96376190Y-81389761D01*
X96328571Y-81342142D01*
X96280952Y-81246904D01*
X96280952Y-80961190D01*
X96328571Y-80865952D01*
X96376190Y-80818333D01*
X96471428Y-80770714D01*
X96661904Y-80770714D01*
X96757142Y-80818333D01*
X80828571Y-82563571D02*
X80971428Y-82611190D01*
X81019047Y-82658809D01*
X81066666Y-82754047D01*
X81066666Y-82896904D01*
X81019047Y-82992142D01*
X80971428Y-83039761D01*
X80876190Y-83087380D01*
X80495238Y-83087380D01*
X80495238Y-82087380D01*
X80828571Y-82087380D01*
X80923809Y-82135000D01*
X80971428Y-82182619D01*
X81019047Y-82277857D01*
X81019047Y-82373095D01*
X80971428Y-82468333D01*
X80923809Y-82515952D01*
X80828571Y-82563571D01*
X80495238Y-82563571D01*
X81400000Y-82420714D02*
X81638095Y-83087380D01*
X81876190Y-82420714D02*
X81638095Y-83087380D01*
X81542857Y-83325476D01*
X81495238Y-83373095D01*
X81400000Y-83420714D01*
X83019047Y-83087380D02*
X83019047Y-82087380D01*
X83352380Y-82801666D01*
X83685714Y-82087380D01*
X83685714Y-83087380D01*
X84590476Y-83087380D02*
X84590476Y-82563571D01*
X84542857Y-82468333D01*
X84447619Y-82420714D01*
X84257142Y-82420714D01*
X84161904Y-82468333D01*
X84590476Y-83039761D02*
X84495238Y-83087380D01*
X84257142Y-83087380D01*
X84161904Y-83039761D01*
X84114285Y-82944523D01*
X84114285Y-82849285D01*
X84161904Y-82754047D01*
X84257142Y-82706428D01*
X84495238Y-82706428D01*
X84590476Y-82658809D01*
X84971428Y-83087380D02*
X85495238Y-82420714D01*
X84971428Y-82420714D02*
X85495238Y-83087380D01*
X85876190Y-83087380D02*
X85876190Y-82420714D01*
X85876190Y-82087380D02*
X85828571Y-82135000D01*
X85876190Y-82182619D01*
X85923809Y-82135000D01*
X85876190Y-82087380D01*
X85876190Y-82182619D01*
X86352380Y-83087380D02*
X86352380Y-82420714D01*
X86352380Y-82515952D02*
X86400000Y-82468333D01*
X86495238Y-82420714D01*
X86638095Y-82420714D01*
X86733333Y-82468333D01*
X86780952Y-82563571D01*
X86780952Y-83087380D01*
X86780952Y-82563571D02*
X86828571Y-82468333D01*
X86923809Y-82420714D01*
X87066666Y-82420714D01*
X87161904Y-82468333D01*
X87209523Y-82563571D01*
X87209523Y-83087380D01*
X88447619Y-83087380D02*
X88447619Y-82087380D01*
X89019047Y-83087380D02*
X88590476Y-82515952D01*
X89019047Y-82087380D02*
X88447619Y-82658809D01*
X89590476Y-83087380D02*
X89495238Y-83039761D01*
X89447619Y-82992142D01*
X89400000Y-82896904D01*
X89400000Y-82611190D01*
X89447619Y-82515952D01*
X89495238Y-82468333D01*
X89590476Y-82420714D01*
X89733333Y-82420714D01*
X89828571Y-82468333D01*
X89876190Y-82515952D01*
X89923809Y-82611190D01*
X89923809Y-82896904D01*
X89876190Y-82992142D01*
X89828571Y-83039761D01*
X89733333Y-83087380D01*
X89590476Y-83087380D01*
X90352380Y-83087380D02*
X90352380Y-82420714D01*
X90352380Y-82611190D02*
X90400000Y-82515952D01*
X90447619Y-82468333D01*
X90542857Y-82420714D01*
X90638095Y-82420714D01*
X91114285Y-83087380D02*
X91019047Y-83039761D01*
X90971428Y-82992142D01*
X90923809Y-82896904D01*
X90923809Y-82611190D01*
X90971428Y-82515952D01*
X91019047Y-82468333D01*
X91114285Y-82420714D01*
X91257142Y-82420714D01*
X91352380Y-82468333D01*
X91400000Y-82515952D01*
X91447619Y-82611190D01*
X91447619Y-82896904D01*
X91400000Y-82992142D01*
X91352380Y-83039761D01*
X91257142Y-83087380D01*
X91114285Y-83087380D01*
X91828571Y-83039761D02*
X91923809Y-83087380D01*
X92114285Y-83087380D01*
X92209523Y-83039761D01*
X92257142Y-82944523D01*
X92257142Y-82896904D01*
X92209523Y-82801666D01*
X92114285Y-82754047D01*
X91971428Y-82754047D01*
X91876190Y-82706428D01*
X91828571Y-82611190D01*
X91828571Y-82563571D01*
X91876190Y-82468333D01*
X91971428Y-82420714D01*
X92114285Y-82420714D01*
X92209523Y-82468333D01*
X92542857Y-82420714D02*
X92923809Y-82420714D01*
X92685714Y-82087380D02*
X92685714Y-82944523D01*
X92733333Y-83039761D01*
X92828571Y-83087380D01*
X92923809Y-83087380D01*
X93638095Y-83039761D02*
X93542857Y-83087380D01*
X93352380Y-83087380D01*
X93257142Y-83039761D01*
X93209523Y-82944523D01*
X93209523Y-82563571D01*
X93257142Y-82468333D01*
X93352380Y-82420714D01*
X93542857Y-82420714D01*
X93638095Y-82468333D01*
X93685714Y-82563571D01*
X93685714Y-82658809D01*
X93209523Y-82754047D01*
X94257142Y-83087380D02*
X94161904Y-83039761D01*
X94114285Y-82944523D01*
X94114285Y-82087380D01*
X94638095Y-83087380D02*
X94638095Y-82420714D01*
X94638095Y-82087380D02*
X94590476Y-82135000D01*
X94638095Y-82182619D01*
X94685714Y-82135000D01*
X94638095Y-82087380D01*
X94638095Y-82182619D01*
X95257142Y-83087380D02*
X95161904Y-83039761D01*
X95114285Y-82992142D01*
X95066666Y-82896904D01*
X95066666Y-82611190D01*
X95114285Y-82515952D01*
X95161904Y-82468333D01*
X95257142Y-82420714D01*
X95400000Y-82420714D01*
X95495238Y-82468333D01*
X95542857Y-82515952D01*
X95590476Y-82611190D01*
X95590476Y-82896904D01*
X95542857Y-82992142D01*
X95495238Y-83039761D01*
X95400000Y-83087380D01*
X95257142Y-83087380D01*
X95923809Y-82420714D02*
X96161904Y-83087380D01*
X96400000Y-82420714D01*
X54599523Y-18374761D02*
X54742380Y-18422380D01*
X54980476Y-18422380D01*
X55075714Y-18374761D01*
X55123333Y-18327142D01*
X55170952Y-18231904D01*
X55170952Y-18136666D01*
X55123333Y-18041428D01*
X55075714Y-17993809D01*
X54980476Y-17946190D01*
X54790000Y-17898571D01*
X54694761Y-17850952D01*
X54647142Y-17803333D01*
X54599523Y-17708095D01*
X54599523Y-17612857D01*
X54647142Y-17517619D01*
X54694761Y-17470000D01*
X54790000Y-17422380D01*
X55028095Y-17422380D01*
X55170952Y-17470000D01*
X56170952Y-18327142D02*
X56123333Y-18374761D01*
X55980476Y-18422380D01*
X55885238Y-18422380D01*
X55742380Y-18374761D01*
X55647142Y-18279523D01*
X55599523Y-18184285D01*
X55551904Y-17993809D01*
X55551904Y-17850952D01*
X55599523Y-17660476D01*
X55647142Y-17565238D01*
X55742380Y-17470000D01*
X55885238Y-17422380D01*
X55980476Y-17422380D01*
X56123333Y-17470000D01*
X56170952Y-17517619D01*
X57075714Y-18422380D02*
X56599523Y-18422380D01*
X56599523Y-17422380D01*
X63735714Y-18304761D02*
X63878571Y-18352380D01*
X64116666Y-18352380D01*
X64211904Y-18304761D01*
X64259523Y-18257142D01*
X64307142Y-18161904D01*
X64307142Y-18066666D01*
X64259523Y-17971428D01*
X64211904Y-17923809D01*
X64116666Y-17876190D01*
X63926190Y-17828571D01*
X63830952Y-17780952D01*
X63783333Y-17733333D01*
X63735714Y-17638095D01*
X63735714Y-17542857D01*
X63783333Y-17447619D01*
X63830952Y-17400000D01*
X63926190Y-17352380D01*
X64164285Y-17352380D01*
X64307142Y-17400000D01*
X64735714Y-18352380D02*
X64735714Y-17352380D01*
X64973809Y-17352380D01*
X65116666Y-17400000D01*
X65211904Y-17495238D01*
X65259523Y-17590476D01*
X65307142Y-17780952D01*
X65307142Y-17923809D01*
X65259523Y-18114285D01*
X65211904Y-18209523D01*
X65116666Y-18304761D01*
X64973809Y-18352380D01*
X64735714Y-18352380D01*
X65688095Y-18066666D02*
X66164285Y-18066666D01*
X65592857Y-18352380D02*
X65926190Y-17352380D01*
X66259523Y-18352380D01*
X82968095Y-49330000D02*
X82872857Y-49282380D01*
X82730000Y-49282380D01*
X82587142Y-49330000D01*
X82491904Y-49425238D01*
X82444285Y-49520476D01*
X82396666Y-49710952D01*
X82396666Y-49853809D01*
X82444285Y-50044285D01*
X82491904Y-50139523D01*
X82587142Y-50234761D01*
X82730000Y-50282380D01*
X82825238Y-50282380D01*
X82968095Y-50234761D01*
X83015714Y-50187142D01*
X83015714Y-49853809D01*
X82825238Y-49853809D01*
X83444285Y-50282380D02*
X83444285Y-49282380D01*
X84015714Y-50282380D01*
X84015714Y-49282380D01*
X84491904Y-50282380D02*
X84491904Y-49282380D01*
X84730000Y-49282380D01*
X84872857Y-49330000D01*
X84968095Y-49425238D01*
X85015714Y-49520476D01*
X85063333Y-49710952D01*
X85063333Y-49853809D01*
X85015714Y-50044285D01*
X84968095Y-50139523D01*
X84872857Y-50234761D01*
X84730000Y-50282380D01*
X84491904Y-50282380D01*
X87199523Y-45852380D02*
X87818571Y-45852380D01*
X87485238Y-46233333D01*
X87628095Y-46233333D01*
X87723333Y-46280952D01*
X87770952Y-46328571D01*
X87818571Y-46423809D01*
X87818571Y-46661904D01*
X87770952Y-46757142D01*
X87723333Y-46804761D01*
X87628095Y-46852380D01*
X87342380Y-46852380D01*
X87247142Y-46804761D01*
X87199523Y-46757142D01*
X88151904Y-46185714D02*
X88390000Y-46852380D01*
X88628095Y-46185714D01*
X88913809Y-45852380D02*
X89532857Y-45852380D01*
X89199523Y-46233333D01*
X89342380Y-46233333D01*
X89437619Y-46280952D01*
X89485238Y-46328571D01*
X89532857Y-46423809D01*
X89532857Y-46661904D01*
X89485238Y-46757142D01*
X89437619Y-46804761D01*
X89342380Y-46852380D01*
X89056666Y-46852380D01*
X88961428Y-46804761D01*
X88913809Y-46757142D01*
X94644761Y-49207142D02*
X94597142Y-49254761D01*
X94454285Y-49302380D01*
X94359047Y-49302380D01*
X94216190Y-49254761D01*
X94120952Y-49159523D01*
X94073333Y-49064285D01*
X94025714Y-48873809D01*
X94025714Y-48730952D01*
X94073333Y-48540476D01*
X94120952Y-48445238D01*
X94216190Y-48350000D01*
X94359047Y-48302380D01*
X94454285Y-48302380D01*
X94597142Y-48350000D01*
X94644761Y-48397619D01*
X95549523Y-49302380D02*
X95073333Y-49302380D01*
X95073333Y-48302380D01*
X95882857Y-49302380D02*
X95882857Y-48302380D01*
X96454285Y-49302380D02*
X96025714Y-48730952D01*
X96454285Y-48302380D02*
X95882857Y-48873809D01*
X94049047Y-50804761D02*
X94191904Y-50852380D01*
X94430000Y-50852380D01*
X94525238Y-50804761D01*
X94572857Y-50757142D01*
X94620476Y-50661904D01*
X94620476Y-50566666D01*
X94572857Y-50471428D01*
X94525238Y-50423809D01*
X94430000Y-50376190D01*
X94239523Y-50328571D01*
X94144285Y-50280952D01*
X94096666Y-50233333D01*
X94049047Y-50138095D01*
X94049047Y-50042857D01*
X94096666Y-49947619D01*
X94144285Y-49900000D01*
X94239523Y-49852380D01*
X94477619Y-49852380D01*
X94620476Y-49900000D01*
X94953809Y-49852380D02*
X95191904Y-50852380D01*
X95382380Y-50138095D01*
X95572857Y-50852380D01*
X95810952Y-49852380D01*
X96382380Y-49852380D02*
X96572857Y-49852380D01*
X96668095Y-49900000D01*
X96763333Y-49995238D01*
X96810952Y-50185714D01*
X96810952Y-50519047D01*
X96763333Y-50709523D01*
X96668095Y-50804761D01*
X96572857Y-50852380D01*
X96382380Y-50852380D01*
X96287142Y-50804761D01*
X96191904Y-50709523D01*
X96144285Y-50519047D01*
X96144285Y-50185714D01*
X96191904Y-49995238D01*
X96287142Y-49900000D01*
X96382380Y-49852380D01*
X93837142Y-54452380D02*
X93837142Y-53452380D01*
X94408571Y-54452380D01*
X94408571Y-53452380D01*
X95456190Y-54452380D02*
X95122857Y-53976190D01*
X94884761Y-54452380D02*
X94884761Y-53452380D01*
X95265714Y-53452380D01*
X95360952Y-53500000D01*
X95408571Y-53547619D01*
X95456190Y-53642857D01*
X95456190Y-53785714D01*
X95408571Y-53880952D01*
X95360952Y-53928571D01*
X95265714Y-53976190D01*
X94884761Y-53976190D01*
X95837142Y-54404761D02*
X95980000Y-54452380D01*
X96218095Y-54452380D01*
X96313333Y-54404761D01*
X96360952Y-54357142D01*
X96408571Y-54261904D01*
X96408571Y-54166666D01*
X96360952Y-54071428D01*
X96313333Y-54023809D01*
X96218095Y-53976190D01*
X96027619Y-53928571D01*
X95932380Y-53880952D01*
X95884761Y-53833333D01*
X95837142Y-53738095D01*
X95837142Y-53642857D01*
X95884761Y-53547619D01*
X95932380Y-53500000D01*
X96027619Y-53452380D01*
X96265714Y-53452380D01*
X96408571Y-53500000D01*
X96694285Y-53452380D02*
X97265714Y-53452380D01*
X96980000Y-54452380D02*
X96980000Y-53452380D01*
X93876190Y-47032380D02*
X93876190Y-46032380D01*
X94542857Y-46032380D02*
X94733333Y-46032380D01*
X94828571Y-46080000D01*
X94923809Y-46175238D01*
X94971428Y-46365714D01*
X94971428Y-46699047D01*
X94923809Y-46889523D01*
X94828571Y-46984761D01*
X94733333Y-47032380D01*
X94542857Y-47032380D01*
X94447619Y-46984761D01*
X94352380Y-46889523D01*
X94304761Y-46699047D01*
X94304761Y-46365714D01*
X94352380Y-46175238D01*
X94447619Y-46080000D01*
X94542857Y-46032380D01*
X103508095Y-53660000D02*
X103412857Y-53612380D01*
X103270000Y-53612380D01*
X103127142Y-53660000D01*
X103031904Y-53755238D01*
X102984285Y-53850476D01*
X102936666Y-54040952D01*
X102936666Y-54183809D01*
X102984285Y-54374285D01*
X103031904Y-54469523D01*
X103127142Y-54564761D01*
X103270000Y-54612380D01*
X103365238Y-54612380D01*
X103508095Y-54564761D01*
X103555714Y-54517142D01*
X103555714Y-54183809D01*
X103365238Y-54183809D01*
X103984285Y-54612380D02*
X103984285Y-53612380D01*
X104555714Y-54612380D01*
X104555714Y-53612380D01*
X105031904Y-54612380D02*
X105031904Y-53612380D01*
X105270000Y-53612380D01*
X105412857Y-53660000D01*
X105508095Y-53755238D01*
X105555714Y-53850476D01*
X105603333Y-54040952D01*
X105603333Y-54183809D01*
X105555714Y-54374285D01*
X105508095Y-54469523D01*
X105412857Y-54564761D01*
X105270000Y-54612380D01*
X105031904Y-54612380D01*
X103589523Y-48092380D02*
X104208571Y-48092380D01*
X103875238Y-48473333D01*
X104018095Y-48473333D01*
X104113333Y-48520952D01*
X104160952Y-48568571D01*
X104208571Y-48663809D01*
X104208571Y-48901904D01*
X104160952Y-48997142D01*
X104113333Y-49044761D01*
X104018095Y-49092380D01*
X103732380Y-49092380D01*
X103637142Y-49044761D01*
X103589523Y-48997142D01*
X104541904Y-48425714D02*
X104780000Y-49092380D01*
X105018095Y-48425714D01*
X105303809Y-48092380D02*
X105922857Y-48092380D01*
X105589523Y-48473333D01*
X105732380Y-48473333D01*
X105827619Y-48520952D01*
X105875238Y-48568571D01*
X105922857Y-48663809D01*
X105922857Y-48901904D01*
X105875238Y-48997142D01*
X105827619Y-49044761D01*
X105732380Y-49092380D01*
X105446666Y-49092380D01*
X105351428Y-49044761D01*
X105303809Y-48997142D01*
X104419523Y-59662380D02*
X104990952Y-59662380D01*
X104705238Y-60662380D02*
X104705238Y-59662380D01*
X105229047Y-60662380D02*
X105752857Y-59995714D01*
X105229047Y-59995714D02*
X105752857Y-60662380D01*
X105064761Y-57222380D02*
X104731428Y-56746190D01*
X104493333Y-57222380D02*
X104493333Y-56222380D01*
X104874285Y-56222380D01*
X104969523Y-56270000D01*
X105017142Y-56317619D01*
X105064761Y-56412857D01*
X105064761Y-56555714D01*
X105017142Y-56650952D01*
X104969523Y-56698571D01*
X104874285Y-56746190D01*
X104493333Y-56746190D01*
X105398095Y-57222380D02*
X105921904Y-56555714D01*
X105398095Y-56555714D02*
X105921904Y-57222380D01*
X65968571Y-99632380D02*
X65968571Y-98632380D01*
X66301904Y-99346666D01*
X66635238Y-98632380D01*
X66635238Y-99632380D01*
X67301904Y-98632380D02*
X67492380Y-98632380D01*
X67587619Y-98680000D01*
X67682857Y-98775238D01*
X67730476Y-98965714D01*
X67730476Y-99299047D01*
X67682857Y-99489523D01*
X67587619Y-99584761D01*
X67492380Y-99632380D01*
X67301904Y-99632380D01*
X67206666Y-99584761D01*
X67111428Y-99489523D01*
X67063809Y-99299047D01*
X67063809Y-98965714D01*
X67111428Y-98775238D01*
X67206666Y-98680000D01*
X67301904Y-98632380D01*
X68111428Y-99584761D02*
X68254285Y-99632380D01*
X68492380Y-99632380D01*
X68587619Y-99584761D01*
X68635238Y-99537142D01*
X68682857Y-99441904D01*
X68682857Y-99346666D01*
X68635238Y-99251428D01*
X68587619Y-99203809D01*
X68492380Y-99156190D01*
X68301904Y-99108571D01*
X68206666Y-99060952D01*
X68159047Y-99013333D01*
X68111428Y-98918095D01*
X68111428Y-98822857D01*
X68159047Y-98727619D01*
X68206666Y-98680000D01*
X68301904Y-98632380D01*
X68540000Y-98632380D01*
X68682857Y-98680000D01*
X69111428Y-99632380D02*
X69111428Y-98632380D01*
X62208571Y-99682380D02*
X62208571Y-98682380D01*
X62541904Y-99396666D01*
X62875238Y-98682380D01*
X62875238Y-99682380D01*
X63351428Y-99682380D02*
X63351428Y-98682380D01*
X63780000Y-99634761D02*
X63922857Y-99682380D01*
X64160952Y-99682380D01*
X64256190Y-99634761D01*
X64303809Y-99587142D01*
X64351428Y-99491904D01*
X64351428Y-99396666D01*
X64303809Y-99301428D01*
X64256190Y-99253809D01*
X64160952Y-99206190D01*
X63970476Y-99158571D01*
X63875238Y-99110952D01*
X63827619Y-99063333D01*
X63780000Y-98968095D01*
X63780000Y-98872857D01*
X63827619Y-98777619D01*
X63875238Y-98730000D01*
X63970476Y-98682380D01*
X64208571Y-98682380D01*
X64351428Y-98730000D01*
X64970476Y-98682380D02*
X65160952Y-98682380D01*
X65256190Y-98730000D01*
X65351428Y-98825238D01*
X65399047Y-99015714D01*
X65399047Y-99349047D01*
X65351428Y-99539523D01*
X65256190Y-99634761D01*
X65160952Y-99682380D01*
X64970476Y-99682380D01*
X64875238Y-99634761D01*
X64780000Y-99539523D01*
X64732380Y-99349047D01*
X64732380Y-99015714D01*
X64780000Y-98825238D01*
X64875238Y-98730000D01*
X64970476Y-98682380D01*
X59714761Y-99547142D02*
X59667142Y-99594761D01*
X59524285Y-99642380D01*
X59429047Y-99642380D01*
X59286190Y-99594761D01*
X59190952Y-99499523D01*
X59143333Y-99404285D01*
X59095714Y-99213809D01*
X59095714Y-99070952D01*
X59143333Y-98880476D01*
X59190952Y-98785238D01*
X59286190Y-98690000D01*
X59429047Y-98642380D01*
X59524285Y-98642380D01*
X59667142Y-98690000D01*
X59714761Y-98737619D01*
X60619523Y-99642380D02*
X60143333Y-99642380D01*
X60143333Y-98642380D01*
X60952857Y-99642380D02*
X60952857Y-98642380D01*
X61524285Y-99642380D02*
X61095714Y-99070952D01*
X61524285Y-98642380D02*
X60952857Y-99213809D01*
X57283333Y-99477142D02*
X57235714Y-99524761D01*
X57092857Y-99572380D01*
X56997619Y-99572380D01*
X56854761Y-99524761D01*
X56759523Y-99429523D01*
X56711904Y-99334285D01*
X56664285Y-99143809D01*
X56664285Y-99000952D01*
X56711904Y-98810476D01*
X56759523Y-98715238D01*
X56854761Y-98620000D01*
X56997619Y-98572380D01*
X57092857Y-98572380D01*
X57235714Y-98620000D01*
X57283333Y-98667619D01*
X57664285Y-99524761D02*
X57807142Y-99572380D01*
X58045238Y-99572380D01*
X58140476Y-99524761D01*
X58188095Y-99477142D01*
X58235714Y-99381904D01*
X58235714Y-99286666D01*
X58188095Y-99191428D01*
X58140476Y-99143809D01*
X58045238Y-99096190D01*
X57854761Y-99048571D01*
X57759523Y-99000952D01*
X57711904Y-98953333D01*
X57664285Y-98858095D01*
X57664285Y-98762857D01*
X57711904Y-98667619D01*
X57759523Y-98620000D01*
X57854761Y-98572380D01*
X58092857Y-98572380D01*
X58235714Y-98620000D01*
X20378095Y-70290000D02*
X20282857Y-70242380D01*
X20140000Y-70242380D01*
X19997142Y-70290000D01*
X19901904Y-70385238D01*
X19854285Y-70480476D01*
X19806666Y-70670952D01*
X19806666Y-70813809D01*
X19854285Y-71004285D01*
X19901904Y-71099523D01*
X19997142Y-71194761D01*
X20140000Y-71242380D01*
X20235238Y-71242380D01*
X20378095Y-71194761D01*
X20425714Y-71147142D01*
X20425714Y-70813809D01*
X20235238Y-70813809D01*
X20854285Y-71242380D02*
X20854285Y-70242380D01*
X21425714Y-71242380D01*
X21425714Y-70242380D01*
X21901904Y-71242380D02*
X21901904Y-70242380D01*
X22140000Y-70242380D01*
X22282857Y-70290000D01*
X22378095Y-70385238D01*
X22425714Y-70480476D01*
X22473333Y-70670952D01*
X22473333Y-70813809D01*
X22425714Y-71004285D01*
X22378095Y-71099523D01*
X22282857Y-71194761D01*
X22140000Y-71242380D01*
X21901904Y-71242380D01*
X19806666Y-66622380D02*
X20140000Y-67622380D01*
X20473333Y-66622380D01*
X21378095Y-67527142D02*
X21330476Y-67574761D01*
X21187619Y-67622380D01*
X21092380Y-67622380D01*
X20949523Y-67574761D01*
X20854285Y-67479523D01*
X20806666Y-67384285D01*
X20759047Y-67193809D01*
X20759047Y-67050952D01*
X20806666Y-66860476D01*
X20854285Y-66765238D01*
X20949523Y-66670000D01*
X21092380Y-66622380D01*
X21187619Y-66622380D01*
X21330476Y-66670000D01*
X21378095Y-66717619D01*
X22378095Y-67527142D02*
X22330476Y-67574761D01*
X22187619Y-67622380D01*
X22092380Y-67622380D01*
X21949523Y-67574761D01*
X21854285Y-67479523D01*
X21806666Y-67384285D01*
X21759047Y-67193809D01*
X21759047Y-67050952D01*
X21806666Y-66860476D01*
X21854285Y-66765238D01*
X21949523Y-66670000D01*
X22092380Y-66622380D01*
X22187619Y-66622380D01*
X22330476Y-66670000D01*
X22378095Y-66717619D01*
D11*
%TO.C,C1*%
X37371252Y-64505000D02*
X36848748Y-64505000D01*
X37371252Y-65975000D02*
X36848748Y-65975000D01*
%TO.C,C2*%
X37771252Y-53015000D02*
X37248748Y-53015000D01*
X37771252Y-51545000D02*
X37248748Y-51545000D01*
%TO.C,C3*%
X53115000Y-51818748D02*
X53115000Y-52341252D01*
X51645000Y-51818748D02*
X51645000Y-52341252D01*
%TO.C,C4*%
X54830000Y-52184165D02*
X54830000Y-52415835D01*
X55550000Y-52184165D02*
X55550000Y-52415835D01*
%TO.C,C5*%
X58715835Y-68380000D02*
X58484165Y-68380000D01*
X58715835Y-67660000D02*
X58484165Y-67660000D01*
%TO.C,C6*%
X58655835Y-69890000D02*
X58424165Y-69890000D01*
X58655835Y-70610000D02*
X58424165Y-70610000D01*
%TO.C,C7*%
X68855835Y-66270000D02*
X68624165Y-66270000D01*
X68855835Y-65550000D02*
X68624165Y-65550000D01*
%TO.C,C8*%
X68925835Y-67040000D02*
X68694165Y-67040000D01*
X68925835Y-67760000D02*
X68694165Y-67760000D01*
%TO.C,C9*%
X72140000Y-53994165D02*
X72140000Y-54225835D01*
X71420000Y-53994165D02*
X71420000Y-54225835D01*
%TO.C,C10*%
X74040000Y-53984165D02*
X74040000Y-54215835D01*
X74760000Y-53984165D02*
X74760000Y-54215835D01*
%TO.C,C11*%
X58644165Y-51310000D02*
X58875835Y-51310000D01*
X58644165Y-52030000D02*
X58875835Y-52030000D01*
%TO.C,C12*%
X58644165Y-49410000D02*
X58875835Y-49410000D01*
X58644165Y-50130000D02*
X58875835Y-50130000D01*
%TO.C,C13*%
X54540000Y-62545835D02*
X54540000Y-62314165D01*
X55260000Y-62545835D02*
X55260000Y-62314165D01*
%TO.C,C14*%
X53730000Y-62545835D02*
X53730000Y-62314165D01*
X53010000Y-62545835D02*
X53010000Y-62314165D01*
%TO.C,C15*%
X48464165Y-55470000D02*
X48695835Y-55470000D01*
X48464165Y-54750000D02*
X48695835Y-54750000D01*
%TO.C,C16*%
X48525835Y-63590000D02*
X48294165Y-63590000D01*
X48525835Y-62870000D02*
X48294165Y-62870000D01*
%TO.C,C17*%
X66990000Y-68303733D02*
X66990000Y-68596267D01*
X65970000Y-68303733D02*
X65970000Y-68596267D01*
%TO.C,D1*%
X27600000Y-70250000D02*
X27600000Y-68250000D01*
X27600000Y-68250000D02*
X23700000Y-68250000D01*
X27600000Y-70250000D02*
X23700000Y-70250000D01*
%TO.C,D2*%
X52560000Y-48415000D02*
X55020000Y-48415000D01*
X55020000Y-48415000D02*
X55020000Y-46945000D01*
X55020000Y-46945000D02*
X52560000Y-46945000D01*
%TO.C,D3*%
X74830000Y-64375000D02*
X72370000Y-64375000D01*
X74830000Y-65845000D02*
X74830000Y-64375000D01*
X72370000Y-65845000D02*
X74830000Y-65845000D01*
%TO.C,F1*%
X30438733Y-68780000D02*
X30781267Y-68780000D01*
X30438733Y-69800000D02*
X30781267Y-69800000D01*
%TO.C,FB1*%
X42169758Y-64900000D02*
X42990242Y-64900000D01*
X42169758Y-66020000D02*
X42990242Y-66020000D01*
%TO.C,FB2*%
X50480000Y-67819758D02*
X50480000Y-68640242D01*
X51600000Y-67819758D02*
X51600000Y-68640242D01*
%TO.C,HSE*%
X50710000Y-56370000D02*
X46210000Y-56370000D01*
X46210000Y-56370000D02*
X46210000Y-61770000D01*
%TO.C,I2C*%
X57910000Y-19290000D02*
X57910000Y-17960000D01*
X59240000Y-19290000D02*
X57910000Y-19290000D01*
X60510000Y-19290000D02*
X60510000Y-16630000D01*
X60510000Y-16630000D02*
X63110000Y-16630000D01*
X60510000Y-19290000D02*
X63110000Y-19290000D01*
X63110000Y-19290000D02*
X63110000Y-16630000D01*
%TO.C,Power*%
X16440000Y-71310000D02*
X19100000Y-71310000D01*
X16440000Y-68710000D02*
X16440000Y-71310000D01*
X19100000Y-68710000D02*
X19100000Y-71310000D01*
X16440000Y-68710000D02*
X19100000Y-68710000D01*
X16440000Y-67440000D02*
X16440000Y-66110000D01*
X16440000Y-66110000D02*
X17770000Y-66110000D01*
%TO.C,PowerTest*%
X106680000Y-48700000D02*
X108010000Y-48700000D01*
X106680000Y-50030000D02*
X106680000Y-48700000D01*
X106680000Y-51300000D02*
X109340000Y-51300000D01*
X109340000Y-51300000D02*
X109340000Y-53900000D01*
X106680000Y-51300000D02*
X106680000Y-53900000D01*
X106680000Y-53900000D02*
X109340000Y-53900000D01*
%TO.C,R1*%
X53737500Y-44615276D02*
X53737500Y-45124724D01*
X54782500Y-44615276D02*
X54782500Y-45124724D01*
%TO.C,R2*%
X69747621Y-51850000D02*
X69412379Y-51850000D01*
X69747621Y-51090000D02*
X69412379Y-51090000D01*
%TO.C,R3*%
X64110000Y-68332379D02*
X64110000Y-68667621D01*
X64870000Y-68332379D02*
X64870000Y-68667621D01*
%TO.C,R4*%
X60994724Y-46962500D02*
X60485276Y-46962500D01*
X60994724Y-45917500D02*
X60485276Y-45917500D01*
%TO.C,R5*%
X60894724Y-43592500D02*
X60385276Y-43592500D01*
X60894724Y-42547500D02*
X60385276Y-42547500D01*
%TO.C,R6*%
X53857621Y-59270000D02*
X53522379Y-59270000D01*
X53857621Y-58510000D02*
X53522379Y-58510000D01*
%TO.C,R7*%
X77010000Y-66487621D02*
X77010000Y-66152379D01*
X76250000Y-66487621D02*
X76250000Y-66152379D01*
%TO.C,SPI*%
X67240000Y-103010000D02*
X67240000Y-100350000D01*
X59560000Y-103010000D02*
X67240000Y-103010000D01*
X59560000Y-100350000D02*
X67240000Y-100350000D01*
X59560000Y-103010000D02*
X59560000Y-100350000D01*
X58290000Y-103010000D02*
X56960000Y-103010000D01*
X56960000Y-103010000D02*
X56960000Y-101680000D01*
%TO.C,SWD*%
X88325000Y-47045000D02*
X91855000Y-47045000D01*
X88325000Y-53515000D02*
X91855000Y-53515000D01*
X87000000Y-47110000D02*
X88325000Y-47110000D01*
X88325000Y-47045000D02*
X88325000Y-47110000D01*
X91855000Y-47045000D02*
X91855000Y-47110000D01*
X88325000Y-53450000D02*
X88325000Y-53515000D01*
X91855000Y-53450000D02*
X91855000Y-53515000D01*
%TO.C,3.3V Reg*%
X41660000Y-56910000D02*
X40400000Y-56910000D01*
X34840000Y-56910000D02*
X36100000Y-56910000D01*
X41660000Y-60670000D02*
X41660000Y-56910000D01*
X34840000Y-62920000D02*
X34840000Y-56910000D01*
%TO.C,U2*%
X58140000Y-55630000D02*
X56800000Y-55630000D01*
X58140000Y-54680000D02*
X58140000Y-55630000D01*
X59090000Y-54680000D02*
X58140000Y-54680000D01*
X68360000Y-54680000D02*
X68360000Y-55630000D01*
X67410000Y-54680000D02*
X68360000Y-54680000D01*
X58140000Y-64900000D02*
X58140000Y-63950000D01*
X59090000Y-64900000D02*
X58140000Y-64900000D01*
X68360000Y-64900000D02*
X68360000Y-63950000D01*
X67410000Y-64900000D02*
X68360000Y-64900000D01*
%TO.C,UART*%
X109370000Y-55840000D02*
X106710000Y-55840000D01*
X109370000Y-58440000D02*
X109370000Y-55840000D01*
X106710000Y-58440000D02*
X106710000Y-55840000D01*
X109370000Y-58440000D02*
X106710000Y-58440000D01*
X109370000Y-59710000D02*
X109370000Y-61040000D01*
X109370000Y-61040000D02*
X108040000Y-61040000D01*
%TO.C,C1*%
D10*
X36943333Y-67277142D02*
X36895714Y-67324761D01*
X36752857Y-67372380D01*
X36657619Y-67372380D01*
X36514761Y-67324761D01*
X36419523Y-67229523D01*
X36371904Y-67134285D01*
X36324285Y-66943809D01*
X36324285Y-66800952D01*
X36371904Y-66610476D01*
X36419523Y-66515238D01*
X36514761Y-66420000D01*
X36657619Y-66372380D01*
X36752857Y-66372380D01*
X36895714Y-66420000D01*
X36943333Y-66467619D01*
X37895714Y-67372380D02*
X37324285Y-67372380D01*
X37610000Y-67372380D02*
X37610000Y-66372380D01*
X37514761Y-66515238D01*
X37419523Y-66610476D01*
X37324285Y-66658095D01*
%TO.C,C2*%
X37343333Y-50917142D02*
X37295714Y-50964761D01*
X37152857Y-51012380D01*
X37057619Y-51012380D01*
X36914761Y-50964761D01*
X36819523Y-50869523D01*
X36771904Y-50774285D01*
X36724285Y-50583809D01*
X36724285Y-50440952D01*
X36771904Y-50250476D01*
X36819523Y-50155238D01*
X36914761Y-50060000D01*
X37057619Y-50012380D01*
X37152857Y-50012380D01*
X37295714Y-50060000D01*
X37343333Y-50107619D01*
X37724285Y-50107619D02*
X37771904Y-50060000D01*
X37867142Y-50012380D01*
X38105238Y-50012380D01*
X38200476Y-50060000D01*
X38248095Y-50107619D01*
X38295714Y-50202857D01*
X38295714Y-50298095D01*
X38248095Y-50440952D01*
X37676666Y-51012380D01*
X38295714Y-51012380D01*
%TO.C,C3*%
X54417142Y-52246666D02*
X54464761Y-52294285D01*
X54512380Y-52437142D01*
X54512380Y-52532380D01*
X54464761Y-52675238D01*
X54369523Y-52770476D01*
X54274285Y-52818095D01*
X54083809Y-52865714D01*
X53940952Y-52865714D01*
X53750476Y-52818095D01*
X53655238Y-52770476D01*
X53560000Y-52675238D01*
X53512380Y-52532380D01*
X53512380Y-52437142D01*
X53560000Y-52294285D01*
X53607619Y-52246666D01*
X53512380Y-51913333D02*
X53512380Y-51294285D01*
X53893333Y-51627619D01*
X53893333Y-51484761D01*
X53940952Y-51389523D01*
X53988571Y-51341904D01*
X54083809Y-51294285D01*
X54321904Y-51294285D01*
X54417142Y-51341904D01*
X54464761Y-51389523D01*
X54512380Y-51484761D01*
X54512380Y-51770476D01*
X54464761Y-51865714D01*
X54417142Y-51913333D01*
%TO.C,C4*%
X56707142Y-52466666D02*
X56754761Y-52514285D01*
X56802380Y-52657142D01*
X56802380Y-52752380D01*
X56754761Y-52895238D01*
X56659523Y-52990476D01*
X56564285Y-53038095D01*
X56373809Y-53085714D01*
X56230952Y-53085714D01*
X56040476Y-53038095D01*
X55945238Y-52990476D01*
X55850000Y-52895238D01*
X55802380Y-52752380D01*
X55802380Y-52657142D01*
X55850000Y-52514285D01*
X55897619Y-52466666D01*
X56135714Y-51609523D02*
X56802380Y-51609523D01*
X55754761Y-51847619D02*
X56469047Y-52085714D01*
X56469047Y-51466666D01*
%TO.C,C5*%
X60593333Y-68407142D02*
X60545714Y-68454761D01*
X60402857Y-68502380D01*
X60307619Y-68502380D01*
X60164761Y-68454761D01*
X60069523Y-68359523D01*
X60021904Y-68264285D01*
X59974285Y-68073809D01*
X59974285Y-67930952D01*
X60021904Y-67740476D01*
X60069523Y-67645238D01*
X60164761Y-67550000D01*
X60307619Y-67502380D01*
X60402857Y-67502380D01*
X60545714Y-67550000D01*
X60593333Y-67597619D01*
X61498095Y-67502380D02*
X61021904Y-67502380D01*
X60974285Y-67978571D01*
X61021904Y-67930952D01*
X61117142Y-67883333D01*
X61355238Y-67883333D01*
X61450476Y-67930952D01*
X61498095Y-67978571D01*
X61545714Y-68073809D01*
X61545714Y-68311904D01*
X61498095Y-68407142D01*
X61450476Y-68454761D01*
X61355238Y-68502380D01*
X61117142Y-68502380D01*
X61021904Y-68454761D01*
X60974285Y-68407142D01*
%TO.C,C6*%
X60623333Y-70667142D02*
X60575714Y-70714761D01*
X60432857Y-70762380D01*
X60337619Y-70762380D01*
X60194761Y-70714761D01*
X60099523Y-70619523D01*
X60051904Y-70524285D01*
X60004285Y-70333809D01*
X60004285Y-70190952D01*
X60051904Y-70000476D01*
X60099523Y-69905238D01*
X60194761Y-69810000D01*
X60337619Y-69762380D01*
X60432857Y-69762380D01*
X60575714Y-69810000D01*
X60623333Y-69857619D01*
X61480476Y-69762380D02*
X61290000Y-69762380D01*
X61194761Y-69810000D01*
X61147142Y-69857619D01*
X61051904Y-70000476D01*
X61004285Y-70190952D01*
X61004285Y-70571904D01*
X61051904Y-70667142D01*
X61099523Y-70714761D01*
X61194761Y-70762380D01*
X61385238Y-70762380D01*
X61480476Y-70714761D01*
X61528095Y-70667142D01*
X61575714Y-70571904D01*
X61575714Y-70333809D01*
X61528095Y-70238571D01*
X61480476Y-70190952D01*
X61385238Y-70143333D01*
X61194761Y-70143333D01*
X61099523Y-70190952D01*
X61051904Y-70238571D01*
X61004285Y-70333809D01*
%TO.C,C7*%
X69923333Y-65127142D02*
X69875714Y-65174761D01*
X69732857Y-65222380D01*
X69637619Y-65222380D01*
X69494761Y-65174761D01*
X69399523Y-65079523D01*
X69351904Y-64984285D01*
X69304285Y-64793809D01*
X69304285Y-64650952D01*
X69351904Y-64460476D01*
X69399523Y-64365238D01*
X69494761Y-64270000D01*
X69637619Y-64222380D01*
X69732857Y-64222380D01*
X69875714Y-64270000D01*
X69923333Y-64317619D01*
X70256666Y-64222380D02*
X70923333Y-64222380D01*
X70494761Y-65222380D01*
%TO.C,C8*%
X70693333Y-68917142D02*
X70645714Y-68964761D01*
X70502857Y-69012380D01*
X70407619Y-69012380D01*
X70264761Y-68964761D01*
X70169523Y-68869523D01*
X70121904Y-68774285D01*
X70074285Y-68583809D01*
X70074285Y-68440952D01*
X70121904Y-68250476D01*
X70169523Y-68155238D01*
X70264761Y-68060000D01*
X70407619Y-68012380D01*
X70502857Y-68012380D01*
X70645714Y-68060000D01*
X70693333Y-68107619D01*
X71264761Y-68440952D02*
X71169523Y-68393333D01*
X71121904Y-68345714D01*
X71074285Y-68250476D01*
X71074285Y-68202857D01*
X71121904Y-68107619D01*
X71169523Y-68060000D01*
X71264761Y-68012380D01*
X71455238Y-68012380D01*
X71550476Y-68060000D01*
X71598095Y-68107619D01*
X71645714Y-68202857D01*
X71645714Y-68250476D01*
X71598095Y-68345714D01*
X71550476Y-68393333D01*
X71455238Y-68440952D01*
X71264761Y-68440952D01*
X71169523Y-68488571D01*
X71121904Y-68536190D01*
X71074285Y-68631428D01*
X71074285Y-68821904D01*
X71121904Y-68917142D01*
X71169523Y-68964761D01*
X71264761Y-69012380D01*
X71455238Y-69012380D01*
X71550476Y-68964761D01*
X71598095Y-68917142D01*
X71645714Y-68821904D01*
X71645714Y-68631428D01*
X71598095Y-68536190D01*
X71550476Y-68488571D01*
X71455238Y-68440952D01*
%TO.C,C9*%
X73297142Y-54276666D02*
X73344761Y-54324285D01*
X73392380Y-54467142D01*
X73392380Y-54562380D01*
X73344761Y-54705238D01*
X73249523Y-54800476D01*
X73154285Y-54848095D01*
X72963809Y-54895714D01*
X72820952Y-54895714D01*
X72630476Y-54848095D01*
X72535238Y-54800476D01*
X72440000Y-54705238D01*
X72392380Y-54562380D01*
X72392380Y-54467142D01*
X72440000Y-54324285D01*
X72487619Y-54276666D01*
X73392380Y-53800476D02*
X73392380Y-53610000D01*
X73344761Y-53514761D01*
X73297142Y-53467142D01*
X73154285Y-53371904D01*
X72963809Y-53324285D01*
X72582857Y-53324285D01*
X72487619Y-53371904D01*
X72440000Y-53419523D01*
X72392380Y-53514761D01*
X72392380Y-53705238D01*
X72440000Y-53800476D01*
X72487619Y-53848095D01*
X72582857Y-53895714D01*
X72820952Y-53895714D01*
X72916190Y-53848095D01*
X72963809Y-53800476D01*
X73011428Y-53705238D01*
X73011428Y-53514761D01*
X72963809Y-53419523D01*
X72916190Y-53371904D01*
X72820952Y-53324285D01*
%TO.C,C10*%
X75917142Y-54742857D02*
X75964761Y-54790476D01*
X76012380Y-54933333D01*
X76012380Y-55028571D01*
X75964761Y-55171428D01*
X75869523Y-55266666D01*
X75774285Y-55314285D01*
X75583809Y-55361904D01*
X75440952Y-55361904D01*
X75250476Y-55314285D01*
X75155238Y-55266666D01*
X75060000Y-55171428D01*
X75012380Y-55028571D01*
X75012380Y-54933333D01*
X75060000Y-54790476D01*
X75107619Y-54742857D01*
X76012380Y-53790476D02*
X76012380Y-54361904D01*
X76012380Y-54076190D02*
X75012380Y-54076190D01*
X75155238Y-54171428D01*
X75250476Y-54266666D01*
X75298095Y-54361904D01*
X75012380Y-53171428D02*
X75012380Y-53076190D01*
X75060000Y-52980952D01*
X75107619Y-52933333D01*
X75202857Y-52885714D01*
X75393333Y-52838095D01*
X75631428Y-52838095D01*
X75821904Y-52885714D01*
X75917142Y-52933333D01*
X75964761Y-52980952D01*
X76012380Y-53076190D01*
X76012380Y-53171428D01*
X75964761Y-53266666D01*
X75917142Y-53314285D01*
X75821904Y-53361904D01*
X75631428Y-53409523D01*
X75393333Y-53409523D01*
X75202857Y-53361904D01*
X75107619Y-53314285D01*
X75060000Y-53266666D01*
X75012380Y-53171428D01*
%TO.C,C11*%
X60747142Y-52507142D02*
X60699523Y-52554761D01*
X60556666Y-52602380D01*
X60461428Y-52602380D01*
X60318571Y-52554761D01*
X60223333Y-52459523D01*
X60175714Y-52364285D01*
X60128095Y-52173809D01*
X60128095Y-52030952D01*
X60175714Y-51840476D01*
X60223333Y-51745238D01*
X60318571Y-51650000D01*
X60461428Y-51602380D01*
X60556666Y-51602380D01*
X60699523Y-51650000D01*
X60747142Y-51697619D01*
X61699523Y-52602380D02*
X61128095Y-52602380D01*
X61413809Y-52602380D02*
X61413809Y-51602380D01*
X61318571Y-51745238D01*
X61223333Y-51840476D01*
X61128095Y-51888095D01*
X62651904Y-52602380D02*
X62080476Y-52602380D01*
X62366190Y-52602380D02*
X62366190Y-51602380D01*
X62270952Y-51745238D01*
X62175714Y-51840476D01*
X62080476Y-51888095D01*
%TO.C,C12*%
X60877142Y-50277142D02*
X60829523Y-50324761D01*
X60686666Y-50372380D01*
X60591428Y-50372380D01*
X60448571Y-50324761D01*
X60353333Y-50229523D01*
X60305714Y-50134285D01*
X60258095Y-49943809D01*
X60258095Y-49800952D01*
X60305714Y-49610476D01*
X60353333Y-49515238D01*
X60448571Y-49420000D01*
X60591428Y-49372380D01*
X60686666Y-49372380D01*
X60829523Y-49420000D01*
X60877142Y-49467619D01*
X61829523Y-50372380D02*
X61258095Y-50372380D01*
X61543809Y-50372380D02*
X61543809Y-49372380D01*
X61448571Y-49515238D01*
X61353333Y-49610476D01*
X61258095Y-49658095D01*
X62210476Y-49467619D02*
X62258095Y-49420000D01*
X62353333Y-49372380D01*
X62591428Y-49372380D01*
X62686666Y-49420000D01*
X62734285Y-49467619D01*
X62781904Y-49562857D01*
X62781904Y-49658095D01*
X62734285Y-49800952D01*
X62162857Y-50372380D01*
X62781904Y-50372380D01*
%TO.C,C13*%
X55227142Y-65812857D02*
X55274761Y-65860476D01*
X55322380Y-66003333D01*
X55322380Y-66098571D01*
X55274761Y-66241428D01*
X55179523Y-66336666D01*
X55084285Y-66384285D01*
X54893809Y-66431904D01*
X54750952Y-66431904D01*
X54560476Y-66384285D01*
X54465238Y-66336666D01*
X54370000Y-66241428D01*
X54322380Y-66098571D01*
X54322380Y-66003333D01*
X54370000Y-65860476D01*
X54417619Y-65812857D01*
X55322380Y-64860476D02*
X55322380Y-65431904D01*
X55322380Y-65146190D02*
X54322380Y-65146190D01*
X54465238Y-65241428D01*
X54560476Y-65336666D01*
X54608095Y-65431904D01*
X54322380Y-64527142D02*
X54322380Y-63908095D01*
X54703333Y-64241428D01*
X54703333Y-64098571D01*
X54750952Y-64003333D01*
X54798571Y-63955714D01*
X54893809Y-63908095D01*
X55131904Y-63908095D01*
X55227142Y-63955714D01*
X55274761Y-64003333D01*
X55322380Y-64098571D01*
X55322380Y-64384285D01*
X55274761Y-64479523D01*
X55227142Y-64527142D01*
%TO.C,C14*%
X53617142Y-65812857D02*
X53664761Y-65860476D01*
X53712380Y-66003333D01*
X53712380Y-66098571D01*
X53664761Y-66241428D01*
X53569523Y-66336666D01*
X53474285Y-66384285D01*
X53283809Y-66431904D01*
X53140952Y-66431904D01*
X52950476Y-66384285D01*
X52855238Y-66336666D01*
X52760000Y-66241428D01*
X52712380Y-66098571D01*
X52712380Y-66003333D01*
X52760000Y-65860476D01*
X52807619Y-65812857D01*
X53712380Y-64860476D02*
X53712380Y-65431904D01*
X53712380Y-65146190D02*
X52712380Y-65146190D01*
X52855238Y-65241428D01*
X52950476Y-65336666D01*
X52998095Y-65431904D01*
X53045714Y-64003333D02*
X53712380Y-64003333D01*
X52664761Y-64241428D02*
X53379047Y-64479523D01*
X53379047Y-63860476D01*
%TO.C,C15*%
X46857142Y-54187142D02*
X46809523Y-54234761D01*
X46666666Y-54282380D01*
X46571428Y-54282380D01*
X46428571Y-54234761D01*
X46333333Y-54139523D01*
X46285714Y-54044285D01*
X46238095Y-53853809D01*
X46238095Y-53710952D01*
X46285714Y-53520476D01*
X46333333Y-53425238D01*
X46428571Y-53330000D01*
X46571428Y-53282380D01*
X46666666Y-53282380D01*
X46809523Y-53330000D01*
X46857142Y-53377619D01*
X47809523Y-54282380D02*
X47238095Y-54282380D01*
X47523809Y-54282380D02*
X47523809Y-53282380D01*
X47428571Y-53425238D01*
X47333333Y-53520476D01*
X47238095Y-53568095D01*
X48714285Y-53282380D02*
X48238095Y-53282380D01*
X48190476Y-53758571D01*
X48238095Y-53710952D01*
X48333333Y-53663333D01*
X48571428Y-53663333D01*
X48666666Y-53710952D01*
X48714285Y-53758571D01*
X48761904Y-53853809D01*
X48761904Y-54091904D01*
X48714285Y-54187142D01*
X48666666Y-54234761D01*
X48571428Y-54282380D01*
X48333333Y-54282380D01*
X48238095Y-54234761D01*
X48190476Y-54187142D01*
%TO.C,C16*%
X47727142Y-65347142D02*
X47679523Y-65394761D01*
X47536666Y-65442380D01*
X47441428Y-65442380D01*
X47298571Y-65394761D01*
X47203333Y-65299523D01*
X47155714Y-65204285D01*
X47108095Y-65013809D01*
X47108095Y-64870952D01*
X47155714Y-64680476D01*
X47203333Y-64585238D01*
X47298571Y-64490000D01*
X47441428Y-64442380D01*
X47536666Y-64442380D01*
X47679523Y-64490000D01*
X47727142Y-64537619D01*
X48679523Y-65442380D02*
X48108095Y-65442380D01*
X48393809Y-65442380D02*
X48393809Y-64442380D01*
X48298571Y-64585238D01*
X48203333Y-64680476D01*
X48108095Y-64728095D01*
X49536666Y-64442380D02*
X49346190Y-64442380D01*
X49250952Y-64490000D01*
X49203333Y-64537619D01*
X49108095Y-64680476D01*
X49060476Y-64870952D01*
X49060476Y-65251904D01*
X49108095Y-65347142D01*
X49155714Y-65394761D01*
X49250952Y-65442380D01*
X49441428Y-65442380D01*
X49536666Y-65394761D01*
X49584285Y-65347142D01*
X49631904Y-65251904D01*
X49631904Y-65013809D01*
X49584285Y-64918571D01*
X49536666Y-64870952D01*
X49441428Y-64823333D01*
X49250952Y-64823333D01*
X49155714Y-64870952D01*
X49108095Y-64918571D01*
X49060476Y-65013809D01*
%TO.C,C17*%
X66787142Y-73452857D02*
X66834761Y-73500476D01*
X66882380Y-73643333D01*
X66882380Y-73738571D01*
X66834761Y-73881428D01*
X66739523Y-73976666D01*
X66644285Y-74024285D01*
X66453809Y-74071904D01*
X66310952Y-74071904D01*
X66120476Y-74024285D01*
X66025238Y-73976666D01*
X65930000Y-73881428D01*
X65882380Y-73738571D01*
X65882380Y-73643333D01*
X65930000Y-73500476D01*
X65977619Y-73452857D01*
X66882380Y-72500476D02*
X66882380Y-73071904D01*
X66882380Y-72786190D02*
X65882380Y-72786190D01*
X66025238Y-72881428D01*
X66120476Y-72976666D01*
X66168095Y-73071904D01*
X65882380Y-72167142D02*
X65882380Y-71500476D01*
X66882380Y-71929047D01*
%TO.C,D1*%
X24611904Y-71702380D02*
X24611904Y-70702380D01*
X24850000Y-70702380D01*
X24992857Y-70750000D01*
X25088095Y-70845238D01*
X25135714Y-70940476D01*
X25183333Y-71130952D01*
X25183333Y-71273809D01*
X25135714Y-71464285D01*
X25088095Y-71559523D01*
X24992857Y-71654761D01*
X24850000Y-71702380D01*
X24611904Y-71702380D01*
X26135714Y-71702380D02*
X25564285Y-71702380D01*
X25850000Y-71702380D02*
X25850000Y-70702380D01*
X25754761Y-70845238D01*
X25659523Y-70940476D01*
X25564285Y-70988095D01*
%TO.C,D2*%
X55311904Y-48242380D02*
X55311904Y-47242380D01*
X55550000Y-47242380D01*
X55692857Y-47290000D01*
X55788095Y-47385238D01*
X55835714Y-47480476D01*
X55883333Y-47670952D01*
X55883333Y-47813809D01*
X55835714Y-48004285D01*
X55788095Y-48099523D01*
X55692857Y-48194761D01*
X55550000Y-48242380D01*
X55311904Y-48242380D01*
X56264285Y-47337619D02*
X56311904Y-47290000D01*
X56407142Y-47242380D01*
X56645238Y-47242380D01*
X56740476Y-47290000D01*
X56788095Y-47337619D01*
X56835714Y-47432857D01*
X56835714Y-47528095D01*
X56788095Y-47670952D01*
X56216666Y-48242380D01*
X56835714Y-48242380D01*
%TO.C,D3*%
X72431904Y-66992380D02*
X72431904Y-65992380D01*
X72670000Y-65992380D01*
X72812857Y-66040000D01*
X72908095Y-66135238D01*
X72955714Y-66230476D01*
X73003333Y-66420952D01*
X73003333Y-66563809D01*
X72955714Y-66754285D01*
X72908095Y-66849523D01*
X72812857Y-66944761D01*
X72670000Y-66992380D01*
X72431904Y-66992380D01*
X73336666Y-65992380D02*
X73955714Y-65992380D01*
X73622380Y-66373333D01*
X73765238Y-66373333D01*
X73860476Y-66420952D01*
X73908095Y-66468571D01*
X73955714Y-66563809D01*
X73955714Y-66801904D01*
X73908095Y-66897142D01*
X73860476Y-66944761D01*
X73765238Y-66992380D01*
X73479523Y-66992380D01*
X73384285Y-66944761D01*
X73336666Y-66897142D01*
%TO.C,F1*%
X30276666Y-67788571D02*
X29943333Y-67788571D01*
X29943333Y-68312380D02*
X29943333Y-67312380D01*
X30419523Y-67312380D01*
X31324285Y-68312380D02*
X30752857Y-68312380D01*
X31038571Y-68312380D02*
X31038571Y-67312380D01*
X30943333Y-67455238D01*
X30848095Y-67550476D01*
X30752857Y-67598095D01*
%TO.C,FB1*%
X41746666Y-63838571D02*
X41413333Y-63838571D01*
X41413333Y-64362380D02*
X41413333Y-63362380D01*
X41889523Y-63362380D01*
X42603809Y-63838571D02*
X42746666Y-63886190D01*
X42794285Y-63933809D01*
X42841904Y-64029047D01*
X42841904Y-64171904D01*
X42794285Y-64267142D01*
X42746666Y-64314761D01*
X42651428Y-64362380D01*
X42270476Y-64362380D01*
X42270476Y-63362380D01*
X42603809Y-63362380D01*
X42699047Y-63410000D01*
X42746666Y-63457619D01*
X42794285Y-63552857D01*
X42794285Y-63648095D01*
X42746666Y-63743333D01*
X42699047Y-63790952D01*
X42603809Y-63838571D01*
X42270476Y-63838571D01*
X43794285Y-64362380D02*
X43222857Y-64362380D01*
X43508571Y-64362380D02*
X43508571Y-63362380D01*
X43413333Y-63505238D01*
X43318095Y-63600476D01*
X43222857Y-63648095D01*
%TO.C,FB2*%
X52518571Y-69063333D02*
X52518571Y-69396666D01*
X53042380Y-69396666D02*
X52042380Y-69396666D01*
X52042380Y-68920476D01*
X52518571Y-68206190D02*
X52566190Y-68063333D01*
X52613809Y-68015714D01*
X52709047Y-67968095D01*
X52851904Y-67968095D01*
X52947142Y-68015714D01*
X52994761Y-68063333D01*
X53042380Y-68158571D01*
X53042380Y-68539523D01*
X52042380Y-68539523D01*
X52042380Y-68206190D01*
X52090000Y-68110952D01*
X52137619Y-68063333D01*
X52232857Y-68015714D01*
X52328095Y-68015714D01*
X52423333Y-68063333D01*
X52470952Y-68110952D01*
X52518571Y-68206190D01*
X52518571Y-68539523D01*
X52137619Y-67587142D02*
X52090000Y-67539523D01*
X52042380Y-67444285D01*
X52042380Y-67206190D01*
X52090000Y-67110952D01*
X52137619Y-67063333D01*
X52232857Y-67015714D01*
X52328095Y-67015714D01*
X52470952Y-67063333D01*
X53042380Y-67634761D01*
X53042380Y-67015714D01*
%TO.C,HSE*%
X45522380Y-60164285D02*
X44522380Y-60164285D01*
X44998571Y-60164285D02*
X44998571Y-59592857D01*
X45522380Y-59592857D02*
X44522380Y-59592857D01*
X45474761Y-59164285D02*
X45522380Y-59021428D01*
X45522380Y-58783333D01*
X45474761Y-58688095D01*
X45427142Y-58640476D01*
X45331904Y-58592857D01*
X45236666Y-58592857D01*
X45141428Y-58640476D01*
X45093809Y-58688095D01*
X45046190Y-58783333D01*
X44998571Y-58973809D01*
X44950952Y-59069047D01*
X44903333Y-59116666D01*
X44808095Y-59164285D01*
X44712857Y-59164285D01*
X44617619Y-59116666D01*
X44570000Y-59069047D01*
X44522380Y-58973809D01*
X44522380Y-58735714D01*
X44570000Y-58592857D01*
X44998571Y-58164285D02*
X44998571Y-57830952D01*
X45522380Y-57688095D02*
X45522380Y-58164285D01*
X44522380Y-58164285D01*
X44522380Y-57688095D01*
%TO.C,I2C*%
X59453809Y-21412380D02*
X59453809Y-20412380D01*
X59882380Y-20507619D02*
X59930000Y-20460000D01*
X60025238Y-20412380D01*
X60263333Y-20412380D01*
X60358571Y-20460000D01*
X60406190Y-20507619D01*
X60453809Y-20602857D01*
X60453809Y-20698095D01*
X60406190Y-20840952D01*
X59834761Y-21412380D01*
X60453809Y-21412380D01*
X61453809Y-21317142D02*
X61406190Y-21364761D01*
X61263333Y-21412380D01*
X61168095Y-21412380D01*
X61025238Y-21364761D01*
X60930000Y-21269523D01*
X60882380Y-21174285D01*
X60834761Y-20983809D01*
X60834761Y-20840952D01*
X60882380Y-20650476D01*
X60930000Y-20555238D01*
X61025238Y-20460000D01*
X61168095Y-20412380D01*
X61263333Y-20412380D01*
X61406190Y-20460000D01*
X61453809Y-20507619D01*
%TO.C,Power*%
X15793809Y-65562380D02*
X15793809Y-64562380D01*
X16174761Y-64562380D01*
X16270000Y-64610000D01*
X16317619Y-64657619D01*
X16365238Y-64752857D01*
X16365238Y-64895714D01*
X16317619Y-64990952D01*
X16270000Y-65038571D01*
X16174761Y-65086190D01*
X15793809Y-65086190D01*
X16936666Y-65562380D02*
X16841428Y-65514761D01*
X16793809Y-65467142D01*
X16746190Y-65371904D01*
X16746190Y-65086190D01*
X16793809Y-64990952D01*
X16841428Y-64943333D01*
X16936666Y-64895714D01*
X17079523Y-64895714D01*
X17174761Y-64943333D01*
X17222380Y-64990952D01*
X17270000Y-65086190D01*
X17270000Y-65371904D01*
X17222380Y-65467142D01*
X17174761Y-65514761D01*
X17079523Y-65562380D01*
X16936666Y-65562380D01*
X17603333Y-64895714D02*
X17793809Y-65562380D01*
X17984285Y-65086190D01*
X18174761Y-65562380D01*
X18365238Y-64895714D01*
X19127142Y-65514761D02*
X19031904Y-65562380D01*
X18841428Y-65562380D01*
X18746190Y-65514761D01*
X18698571Y-65419523D01*
X18698571Y-65038571D01*
X18746190Y-64943333D01*
X18841428Y-64895714D01*
X19031904Y-64895714D01*
X19127142Y-64943333D01*
X19174761Y-65038571D01*
X19174761Y-65133809D01*
X18698571Y-65229047D01*
X19603333Y-65562380D02*
X19603333Y-64895714D01*
X19603333Y-65086190D02*
X19650952Y-64990952D01*
X19698571Y-64943333D01*
X19793809Y-64895714D01*
X19889047Y-64895714D01*
%TO.C,PowerTest*%
X102893809Y-47282380D02*
X102893809Y-46282380D01*
X103274761Y-46282380D01*
X103370000Y-46330000D01*
X103417619Y-46377619D01*
X103465238Y-46472857D01*
X103465238Y-46615714D01*
X103417619Y-46710952D01*
X103370000Y-46758571D01*
X103274761Y-46806190D01*
X102893809Y-46806190D01*
X104036666Y-47282380D02*
X103941428Y-47234761D01*
X103893809Y-47187142D01*
X103846190Y-47091904D01*
X103846190Y-46806190D01*
X103893809Y-46710952D01*
X103941428Y-46663333D01*
X104036666Y-46615714D01*
X104179523Y-46615714D01*
X104274761Y-46663333D01*
X104322380Y-46710952D01*
X104370000Y-46806190D01*
X104370000Y-47091904D01*
X104322380Y-47187142D01*
X104274761Y-47234761D01*
X104179523Y-47282380D01*
X104036666Y-47282380D01*
X104703333Y-46615714D02*
X104893809Y-47282380D01*
X105084285Y-46806190D01*
X105274761Y-47282380D01*
X105465238Y-46615714D01*
X106227142Y-47234761D02*
X106131904Y-47282380D01*
X105941428Y-47282380D01*
X105846190Y-47234761D01*
X105798571Y-47139523D01*
X105798571Y-46758571D01*
X105846190Y-46663333D01*
X105941428Y-46615714D01*
X106131904Y-46615714D01*
X106227142Y-46663333D01*
X106274761Y-46758571D01*
X106274761Y-46853809D01*
X105798571Y-46949047D01*
X106703333Y-47282380D02*
X106703333Y-46615714D01*
X106703333Y-46806190D02*
X106750952Y-46710952D01*
X106798571Y-46663333D01*
X106893809Y-46615714D01*
X106989047Y-46615714D01*
X107179523Y-46282380D02*
X107750952Y-46282380D01*
X107465238Y-47282380D02*
X107465238Y-46282380D01*
X108465238Y-47234761D02*
X108370000Y-47282380D01*
X108179523Y-47282380D01*
X108084285Y-47234761D01*
X108036666Y-47139523D01*
X108036666Y-46758571D01*
X108084285Y-46663333D01*
X108179523Y-46615714D01*
X108370000Y-46615714D01*
X108465238Y-46663333D01*
X108512857Y-46758571D01*
X108512857Y-46853809D01*
X108036666Y-46949047D01*
X108893809Y-47234761D02*
X108989047Y-47282380D01*
X109179523Y-47282380D01*
X109274761Y-47234761D01*
X109322380Y-47139523D01*
X109322380Y-47091904D01*
X109274761Y-46996666D01*
X109179523Y-46949047D01*
X109036666Y-46949047D01*
X108941428Y-46901428D01*
X108893809Y-46806190D01*
X108893809Y-46758571D01*
X108941428Y-46663333D01*
X109036666Y-46615714D01*
X109179523Y-46615714D01*
X109274761Y-46663333D01*
X109608095Y-46615714D02*
X109989047Y-46615714D01*
X109750952Y-46282380D02*
X109750952Y-47139523D01*
X109798571Y-47234761D01*
X109893809Y-47282380D01*
X109989047Y-47282380D01*
%TO.C,R1*%
X56142380Y-45036666D02*
X55666190Y-45370000D01*
X56142380Y-45608095D02*
X55142380Y-45608095D01*
X55142380Y-45227142D01*
X55190000Y-45131904D01*
X55237619Y-45084285D01*
X55332857Y-45036666D01*
X55475714Y-45036666D01*
X55570952Y-45084285D01*
X55618571Y-45131904D01*
X55666190Y-45227142D01*
X55666190Y-45608095D01*
X56142380Y-44084285D02*
X56142380Y-44655714D01*
X56142380Y-44370000D02*
X55142380Y-44370000D01*
X55285238Y-44465238D01*
X55380476Y-44560476D01*
X55428095Y-44655714D01*
%TO.C,R2*%
X69413333Y-53092380D02*
X69080000Y-52616190D01*
X68841904Y-53092380D02*
X68841904Y-52092380D01*
X69222857Y-52092380D01*
X69318095Y-52140000D01*
X69365714Y-52187619D01*
X69413333Y-52282857D01*
X69413333Y-52425714D01*
X69365714Y-52520952D01*
X69318095Y-52568571D01*
X69222857Y-52616190D01*
X68841904Y-52616190D01*
X69794285Y-52187619D02*
X69841904Y-52140000D01*
X69937142Y-52092380D01*
X70175238Y-52092380D01*
X70270476Y-52140000D01*
X70318095Y-52187619D01*
X70365714Y-52282857D01*
X70365714Y-52378095D01*
X70318095Y-52520952D01*
X69746666Y-53092380D01*
X70365714Y-53092380D01*
%TO.C,R3*%
X64942380Y-72226666D02*
X64466190Y-72560000D01*
X64942380Y-72798095D02*
X63942380Y-72798095D01*
X63942380Y-72417142D01*
X63990000Y-72321904D01*
X64037619Y-72274285D01*
X64132857Y-72226666D01*
X64275714Y-72226666D01*
X64370952Y-72274285D01*
X64418571Y-72321904D01*
X64466190Y-72417142D01*
X64466190Y-72798095D01*
X63942380Y-71893333D02*
X63942380Y-71274285D01*
X64323333Y-71607619D01*
X64323333Y-71464761D01*
X64370952Y-71369523D01*
X64418571Y-71321904D01*
X64513809Y-71274285D01*
X64751904Y-71274285D01*
X64847142Y-71321904D01*
X64894761Y-71369523D01*
X64942380Y-71464761D01*
X64942380Y-71750476D01*
X64894761Y-71845714D01*
X64847142Y-71893333D01*
%TO.C,R4*%
X63643333Y-47052380D02*
X63310000Y-46576190D01*
X63071904Y-47052380D02*
X63071904Y-46052380D01*
X63452857Y-46052380D01*
X63548095Y-46100000D01*
X63595714Y-46147619D01*
X63643333Y-46242857D01*
X63643333Y-46385714D01*
X63595714Y-46480952D01*
X63548095Y-46528571D01*
X63452857Y-46576190D01*
X63071904Y-46576190D01*
X64500476Y-46385714D02*
X64500476Y-47052380D01*
X64262380Y-46004761D02*
X64024285Y-46719047D01*
X64643333Y-46719047D01*
%TO.C,R5*%
X63863333Y-43552380D02*
X63530000Y-43076190D01*
X63291904Y-43552380D02*
X63291904Y-42552380D01*
X63672857Y-42552380D01*
X63768095Y-42600000D01*
X63815714Y-42647619D01*
X63863333Y-42742857D01*
X63863333Y-42885714D01*
X63815714Y-42980952D01*
X63768095Y-43028571D01*
X63672857Y-43076190D01*
X63291904Y-43076190D01*
X64768095Y-42552380D02*
X64291904Y-42552380D01*
X64244285Y-43028571D01*
X64291904Y-42980952D01*
X64387142Y-42933333D01*
X64625238Y-42933333D01*
X64720476Y-42980952D01*
X64768095Y-43028571D01*
X64815714Y-43123809D01*
X64815714Y-43361904D01*
X64768095Y-43457142D01*
X64720476Y-43504761D01*
X64625238Y-43552380D01*
X64387142Y-43552380D01*
X64291904Y-43504761D01*
X64244285Y-43457142D01*
%TO.C,R6*%
X53453333Y-57502380D02*
X53120000Y-57026190D01*
X52881904Y-57502380D02*
X52881904Y-56502380D01*
X53262857Y-56502380D01*
X53358095Y-56550000D01*
X53405714Y-56597619D01*
X53453333Y-56692857D01*
X53453333Y-56835714D01*
X53405714Y-56930952D01*
X53358095Y-56978571D01*
X53262857Y-57026190D01*
X52881904Y-57026190D01*
X54310476Y-56502380D02*
X54120000Y-56502380D01*
X54024761Y-56550000D01*
X53977142Y-56597619D01*
X53881904Y-56740476D01*
X53834285Y-56930952D01*
X53834285Y-57311904D01*
X53881904Y-57407142D01*
X53929523Y-57454761D01*
X54024761Y-57502380D01*
X54215238Y-57502380D01*
X54310476Y-57454761D01*
X54358095Y-57407142D01*
X54405714Y-57311904D01*
X54405714Y-57073809D01*
X54358095Y-56978571D01*
X54310476Y-56930952D01*
X54215238Y-56883333D01*
X54024761Y-56883333D01*
X53929523Y-56930952D01*
X53881904Y-56978571D01*
X53834285Y-57073809D01*
%TO.C,R7*%
X78592380Y-66486666D02*
X78116190Y-66820000D01*
X78592380Y-67058095D02*
X77592380Y-67058095D01*
X77592380Y-66677142D01*
X77640000Y-66581904D01*
X77687619Y-66534285D01*
X77782857Y-66486666D01*
X77925714Y-66486666D01*
X78020952Y-66534285D01*
X78068571Y-66581904D01*
X78116190Y-66677142D01*
X78116190Y-67058095D01*
X77592380Y-66153333D02*
X77592380Y-65486666D01*
X78592380Y-65915238D01*
%TO.C,SPI*%
X56364761Y-102703809D02*
X56412380Y-102560952D01*
X56412380Y-102322857D01*
X56364761Y-102227619D01*
X56317142Y-102180000D01*
X56221904Y-102132380D01*
X56126666Y-102132380D01*
X56031428Y-102180000D01*
X55983809Y-102227619D01*
X55936190Y-102322857D01*
X55888571Y-102513333D01*
X55840952Y-102608571D01*
X55793333Y-102656190D01*
X55698095Y-102703809D01*
X55602857Y-102703809D01*
X55507619Y-102656190D01*
X55460000Y-102608571D01*
X55412380Y-102513333D01*
X55412380Y-102275238D01*
X55460000Y-102132380D01*
X56412380Y-101703809D02*
X55412380Y-101703809D01*
X55412380Y-101322857D01*
X55460000Y-101227619D01*
X55507619Y-101180000D01*
X55602857Y-101132380D01*
X55745714Y-101132380D01*
X55840952Y-101180000D01*
X55888571Y-101227619D01*
X55936190Y-101322857D01*
X55936190Y-101703809D01*
X56412380Y-100703809D02*
X55412380Y-100703809D01*
%TO.C,SWD*%
X88772857Y-45294761D02*
X88915714Y-45342380D01*
X89153809Y-45342380D01*
X89249047Y-45294761D01*
X89296666Y-45247142D01*
X89344285Y-45151904D01*
X89344285Y-45056666D01*
X89296666Y-44961428D01*
X89249047Y-44913809D01*
X89153809Y-44866190D01*
X88963333Y-44818571D01*
X88868095Y-44770952D01*
X88820476Y-44723333D01*
X88772857Y-44628095D01*
X88772857Y-44532857D01*
X88820476Y-44437619D01*
X88868095Y-44390000D01*
X88963333Y-44342380D01*
X89201428Y-44342380D01*
X89344285Y-44390000D01*
X89677619Y-44342380D02*
X89915714Y-45342380D01*
X90106190Y-44628095D01*
X90296666Y-45342380D01*
X90534761Y-44342380D01*
X90915714Y-45342380D02*
X90915714Y-44342380D01*
X91153809Y-44342380D01*
X91296666Y-44390000D01*
X91391904Y-44485238D01*
X91439523Y-44580476D01*
X91487142Y-44770952D01*
X91487142Y-44913809D01*
X91439523Y-45104285D01*
X91391904Y-45199523D01*
X91296666Y-45294761D01*
X91153809Y-45342380D01*
X90915714Y-45342380D01*
%TO.C,3.3V Reg*%
X33152380Y-61418095D02*
X33152380Y-60799047D01*
X33533333Y-61132380D01*
X33533333Y-60989523D01*
X33580952Y-60894285D01*
X33628571Y-60846666D01*
X33723809Y-60799047D01*
X33961904Y-60799047D01*
X34057142Y-60846666D01*
X34104761Y-60894285D01*
X34152380Y-60989523D01*
X34152380Y-61275238D01*
X34104761Y-61370476D01*
X34057142Y-61418095D01*
X34057142Y-60370476D02*
X34104761Y-60322857D01*
X34152380Y-60370476D01*
X34104761Y-60418095D01*
X34057142Y-60370476D01*
X34152380Y-60370476D01*
X33152380Y-59989523D02*
X33152380Y-59370476D01*
X33533333Y-59703809D01*
X33533333Y-59560952D01*
X33580952Y-59465714D01*
X33628571Y-59418095D01*
X33723809Y-59370476D01*
X33961904Y-59370476D01*
X34057142Y-59418095D01*
X34104761Y-59465714D01*
X34152380Y-59560952D01*
X34152380Y-59846666D01*
X34104761Y-59941904D01*
X34057142Y-59989523D01*
X33152380Y-59084761D02*
X34152380Y-58751428D01*
X33152380Y-58418095D01*
X34152380Y-56751428D02*
X33676190Y-57084761D01*
X34152380Y-57322857D02*
X33152380Y-57322857D01*
X33152380Y-56941904D01*
X33200000Y-56846666D01*
X33247619Y-56799047D01*
X33342857Y-56751428D01*
X33485714Y-56751428D01*
X33580952Y-56799047D01*
X33628571Y-56846666D01*
X33676190Y-56941904D01*
X33676190Y-57322857D01*
X34104761Y-55941904D02*
X34152380Y-56037142D01*
X34152380Y-56227619D01*
X34104761Y-56322857D01*
X34009523Y-56370476D01*
X33628571Y-56370476D01*
X33533333Y-56322857D01*
X33485714Y-56227619D01*
X33485714Y-56037142D01*
X33533333Y-55941904D01*
X33628571Y-55894285D01*
X33723809Y-55894285D01*
X33819047Y-56370476D01*
X33485714Y-55037142D02*
X34295238Y-55037142D01*
X34390476Y-55084761D01*
X34438095Y-55132380D01*
X34485714Y-55227619D01*
X34485714Y-55370476D01*
X34438095Y-55465714D01*
X34104761Y-55037142D02*
X34152380Y-55132380D01*
X34152380Y-55322857D01*
X34104761Y-55418095D01*
X34057142Y-55465714D01*
X33961904Y-55513333D01*
X33676190Y-55513333D01*
X33580952Y-55465714D01*
X33533333Y-55418095D01*
X33485714Y-55322857D01*
X33485714Y-55132380D01*
X33533333Y-55037142D01*
%TO.C,UART*%
X104984761Y-61652380D02*
X104984761Y-62461904D01*
X105032380Y-62557142D01*
X105080000Y-62604761D01*
X105175238Y-62652380D01*
X105365714Y-62652380D01*
X105460952Y-62604761D01*
X105508571Y-62557142D01*
X105556190Y-62461904D01*
X105556190Y-61652380D01*
X105984761Y-62366666D02*
X106460952Y-62366666D01*
X105889523Y-62652380D02*
X106222857Y-61652380D01*
X106556190Y-62652380D01*
X107460952Y-62652380D02*
X107127619Y-62176190D01*
X106889523Y-62652380D02*
X106889523Y-61652380D01*
X107270476Y-61652380D01*
X107365714Y-61700000D01*
X107413333Y-61747619D01*
X107460952Y-61842857D01*
X107460952Y-61985714D01*
X107413333Y-62080952D01*
X107365714Y-62128571D01*
X107270476Y-62176190D01*
X106889523Y-62176190D01*
X107746666Y-61652380D02*
X108318095Y-61652380D01*
X108032380Y-62652380D02*
X108032380Y-61652380D01*
%TD*%
M02*
