M48
; DRILL file {KiCad (5.1.7)-1} date 10/12/20 20:45:57
; FORMAT={3:3/ absolute / metric / suppress leading zeros}
; #@! TF.CreationDate,2020-10-12T20:45:57-04:00
; #@! TF.GenerationSoftware,Kicad,Pcbnew,(5.1.7)-1
FMAT,2
METRIC,TZ
T1C0.400
T2C0.600
T3C0.800
T4C1.000
T5C4.300
%
G90
G05
T1
X34680Y-51910
X49140Y-53060
X50460Y-52210
X50620Y-49540
X50790Y-47200
X51790Y-70920
X52810Y-43430
X52900Y-69600
X53390Y-60720
X53460Y-54340
X53760Y-49740
X54040Y-53400
X54950Y-60750
X55050Y-50410
X56230Y-53230
X56540Y-50360
X56550Y-49260
X56800Y-69770
X56900Y-66970
X58080Y-46400
X58100Y-43080
X59100Y-73060
X59108Y-71718
X60210Y-51130
X60240Y-48810
X64490Y-70250
X66360Y-70720
X67470Y-56000
X68180Y-68510
X68250Y-69740
X70710Y-67340
X70720Y-65870
X70990Y-50270
X71840Y-52270
X72200Y-55960
X74420Y-52170
X74540Y-56000
X76590Y-67980
X85980Y-49100
X85980Y-52980
X86060Y-50280
X86430Y-46140
T2
X102885Y-99790
X103830Y-97510
X103830Y-102070
X106110Y-96565
X106110Y-103015
X108390Y-97510
X108390Y-102070
X109335Y-99790
X17155Y-22320
X18100Y-20040
X18100Y-24600
X20380Y-19095
X20380Y-25545
X22660Y-20040
X22660Y-24600
X23605Y-22320
X17155Y-95980
X18100Y-93700
X18100Y-98260
X20380Y-92755
X20380Y-99205
X22660Y-93700
X22660Y-98260
X23605Y-95980
X102885Y-19750
X103830Y-17470
X103830Y-22030
X106110Y-16525
X106110Y-22975
X108390Y-17470
X108390Y-22030
X109335Y-19750
T3
X30820Y-62300
X30820Y-64720
X30840Y-60010
X33170Y-62300
X33170Y-64720
X35290Y-55750
X36300Y-59200
X36320Y-57660
X40140Y-57610
X40150Y-59200
X41210Y-55750
X46530Y-63090
X50510Y-55140
X60380Y-59040
X92640Y-54620
T4
X108040Y-57170
X108040Y-59710
X59240Y-17960
X61780Y-17960
X17770Y-67440
X17770Y-69980
X108010Y-50030
X108010Y-52570
X58290Y-101680
X60830Y-101680
X63370Y-101680
X65910Y-101680
T5
X106110Y-99790
X20380Y-22320
X20380Y-95980
X106110Y-19750
T0
M30
