%TF.GenerationSoftware,KiCad,Pcbnew,(5.1.7)-1*%
%TF.CreationDate,2020-10-12T20:46:30-04:00*%
%TF.ProjectId,STM32_Breakout,53544d33-325f-4427-9265-616b6f75742e,rev?*%
%TF.SameCoordinates,Original*%
%TF.FileFunction,Paste,Top*%
%TF.FilePolarity,Positive*%
%FSLAX46Y46*%
G04 Gerber Fmt 4.6, Leading zero omitted, Abs format (unit mm)*
G04 Created by KiCad (PCBNEW (5.1.7)-1) date 2020-10-12 20:46:30*
%MOMM*%
%LPD*%
G01*
G04 APERTURE LIST*
%ADD10R,0.900000X1.200000*%
%ADD11R,1.800000X2.100000*%
%ADD12R,2.400000X0.740000*%
%ADD13R,3.800000X2.000000*%
%ADD14R,1.500000X2.000000*%
G04 APERTURE END LIST*
%TO.C,C1*%
G36*
G01*
X36660000Y-64765000D02*
X36660000Y-65715000D01*
G75*
G02*
X36410000Y-65965000I-250000J0D01*
G01*
X35735000Y-65965000D01*
G75*
G02*
X35485000Y-65715000I0J250000D01*
G01*
X35485000Y-64765000D01*
G75*
G02*
X35735000Y-64515000I250000J0D01*
G01*
X36410000Y-64515000D01*
G75*
G02*
X36660000Y-64765000I0J-250000D01*
G01*
G37*
G36*
G01*
X38735000Y-64765000D02*
X38735000Y-65715000D01*
G75*
G02*
X38485000Y-65965000I-250000J0D01*
G01*
X37810000Y-65965000D01*
G75*
G02*
X37560000Y-65715000I0J250000D01*
G01*
X37560000Y-64765000D01*
G75*
G02*
X37810000Y-64515000I250000J0D01*
G01*
X38485000Y-64515000D01*
G75*
G02*
X38735000Y-64765000I0J-250000D01*
G01*
G37*
%TD*%
%TO.C,C2*%
G36*
G01*
X39135000Y-51805000D02*
X39135000Y-52755000D01*
G75*
G02*
X38885000Y-53005000I-250000J0D01*
G01*
X38210000Y-53005000D01*
G75*
G02*
X37960000Y-52755000I0J250000D01*
G01*
X37960000Y-51805000D01*
G75*
G02*
X38210000Y-51555000I250000J0D01*
G01*
X38885000Y-51555000D01*
G75*
G02*
X39135000Y-51805000I0J-250000D01*
G01*
G37*
G36*
G01*
X37060000Y-51805000D02*
X37060000Y-52755000D01*
G75*
G02*
X36810000Y-53005000I-250000J0D01*
G01*
X36135000Y-53005000D01*
G75*
G02*
X35885000Y-52755000I0J250000D01*
G01*
X35885000Y-51805000D01*
G75*
G02*
X36135000Y-51555000I250000J0D01*
G01*
X36810000Y-51555000D01*
G75*
G02*
X37060000Y-51805000I0J-250000D01*
G01*
G37*
%TD*%
%TO.C,C3*%
G36*
G01*
X51905000Y-50455000D02*
X52855000Y-50455000D01*
G75*
G02*
X53105000Y-50705000I0J-250000D01*
G01*
X53105000Y-51380000D01*
G75*
G02*
X52855000Y-51630000I-250000J0D01*
G01*
X51905000Y-51630000D01*
G75*
G02*
X51655000Y-51380000I0J250000D01*
G01*
X51655000Y-50705000D01*
G75*
G02*
X51905000Y-50455000I250000J0D01*
G01*
G37*
G36*
G01*
X51905000Y-52530000D02*
X52855000Y-52530000D01*
G75*
G02*
X53105000Y-52780000I0J-250000D01*
G01*
X53105000Y-53455000D01*
G75*
G02*
X52855000Y-53705000I-250000J0D01*
G01*
X51905000Y-53705000D01*
G75*
G02*
X51655000Y-53455000I0J250000D01*
G01*
X51655000Y-52780000D01*
G75*
G02*
X51905000Y-52530000I250000J0D01*
G01*
G37*
%TD*%
%TO.C,C4*%
G36*
G01*
X55035000Y-52500000D02*
X55345000Y-52500000D01*
G75*
G02*
X55500000Y-52655000I0J-155000D01*
G01*
X55500000Y-53080000D01*
G75*
G02*
X55345000Y-53235000I-155000J0D01*
G01*
X55035000Y-53235000D01*
G75*
G02*
X54880000Y-53080000I0J155000D01*
G01*
X54880000Y-52655000D01*
G75*
G02*
X55035000Y-52500000I155000J0D01*
G01*
G37*
G36*
G01*
X55035000Y-51365000D02*
X55345000Y-51365000D01*
G75*
G02*
X55500000Y-51520000I0J-155000D01*
G01*
X55500000Y-51945000D01*
G75*
G02*
X55345000Y-52100000I-155000J0D01*
G01*
X55035000Y-52100000D01*
G75*
G02*
X54880000Y-51945000I0J155000D01*
G01*
X54880000Y-51520000D01*
G75*
G02*
X55035000Y-51365000I155000J0D01*
G01*
G37*
%TD*%
%TO.C,C5*%
G36*
G01*
X59535000Y-67865000D02*
X59535000Y-68175000D01*
G75*
G02*
X59380000Y-68330000I-155000J0D01*
G01*
X58955000Y-68330000D01*
G75*
G02*
X58800000Y-68175000I0J155000D01*
G01*
X58800000Y-67865000D01*
G75*
G02*
X58955000Y-67710000I155000J0D01*
G01*
X59380000Y-67710000D01*
G75*
G02*
X59535000Y-67865000I0J-155000D01*
G01*
G37*
G36*
G01*
X58400000Y-67865000D02*
X58400000Y-68175000D01*
G75*
G02*
X58245000Y-68330000I-155000J0D01*
G01*
X57820000Y-68330000D01*
G75*
G02*
X57665000Y-68175000I0J155000D01*
G01*
X57665000Y-67865000D01*
G75*
G02*
X57820000Y-67710000I155000J0D01*
G01*
X58245000Y-67710000D01*
G75*
G02*
X58400000Y-67865000I0J-155000D01*
G01*
G37*
%TD*%
%TO.C,C6*%
G36*
G01*
X58340000Y-70095000D02*
X58340000Y-70405000D01*
G75*
G02*
X58185000Y-70560000I-155000J0D01*
G01*
X57760000Y-70560000D01*
G75*
G02*
X57605000Y-70405000I0J155000D01*
G01*
X57605000Y-70095000D01*
G75*
G02*
X57760000Y-69940000I155000J0D01*
G01*
X58185000Y-69940000D01*
G75*
G02*
X58340000Y-70095000I0J-155000D01*
G01*
G37*
G36*
G01*
X59475000Y-70095000D02*
X59475000Y-70405000D01*
G75*
G02*
X59320000Y-70560000I-155000J0D01*
G01*
X58895000Y-70560000D01*
G75*
G02*
X58740000Y-70405000I0J155000D01*
G01*
X58740000Y-70095000D01*
G75*
G02*
X58895000Y-69940000I155000J0D01*
G01*
X59320000Y-69940000D01*
G75*
G02*
X59475000Y-70095000I0J-155000D01*
G01*
G37*
%TD*%
%TO.C,C7*%
G36*
G01*
X69675000Y-65755000D02*
X69675000Y-66065000D01*
G75*
G02*
X69520000Y-66220000I-155000J0D01*
G01*
X69095000Y-66220000D01*
G75*
G02*
X68940000Y-66065000I0J155000D01*
G01*
X68940000Y-65755000D01*
G75*
G02*
X69095000Y-65600000I155000J0D01*
G01*
X69520000Y-65600000D01*
G75*
G02*
X69675000Y-65755000I0J-155000D01*
G01*
G37*
G36*
G01*
X68540000Y-65755000D02*
X68540000Y-66065000D01*
G75*
G02*
X68385000Y-66220000I-155000J0D01*
G01*
X67960000Y-66220000D01*
G75*
G02*
X67805000Y-66065000I0J155000D01*
G01*
X67805000Y-65755000D01*
G75*
G02*
X67960000Y-65600000I155000J0D01*
G01*
X68385000Y-65600000D01*
G75*
G02*
X68540000Y-65755000I0J-155000D01*
G01*
G37*
%TD*%
%TO.C,C8*%
G36*
G01*
X68610000Y-67245000D02*
X68610000Y-67555000D01*
G75*
G02*
X68455000Y-67710000I-155000J0D01*
G01*
X68030000Y-67710000D01*
G75*
G02*
X67875000Y-67555000I0J155000D01*
G01*
X67875000Y-67245000D01*
G75*
G02*
X68030000Y-67090000I155000J0D01*
G01*
X68455000Y-67090000D01*
G75*
G02*
X68610000Y-67245000I0J-155000D01*
G01*
G37*
G36*
G01*
X69745000Y-67245000D02*
X69745000Y-67555000D01*
G75*
G02*
X69590000Y-67710000I-155000J0D01*
G01*
X69165000Y-67710000D01*
G75*
G02*
X69010000Y-67555000I0J155000D01*
G01*
X69010000Y-67245000D01*
G75*
G02*
X69165000Y-67090000I155000J0D01*
G01*
X69590000Y-67090000D01*
G75*
G02*
X69745000Y-67245000I0J-155000D01*
G01*
G37*
%TD*%
%TO.C,C9*%
G36*
G01*
X71625000Y-53175000D02*
X71935000Y-53175000D01*
G75*
G02*
X72090000Y-53330000I0J-155000D01*
G01*
X72090000Y-53755000D01*
G75*
G02*
X71935000Y-53910000I-155000J0D01*
G01*
X71625000Y-53910000D01*
G75*
G02*
X71470000Y-53755000I0J155000D01*
G01*
X71470000Y-53330000D01*
G75*
G02*
X71625000Y-53175000I155000J0D01*
G01*
G37*
G36*
G01*
X71625000Y-54310000D02*
X71935000Y-54310000D01*
G75*
G02*
X72090000Y-54465000I0J-155000D01*
G01*
X72090000Y-54890000D01*
G75*
G02*
X71935000Y-55045000I-155000J0D01*
G01*
X71625000Y-55045000D01*
G75*
G02*
X71470000Y-54890000I0J155000D01*
G01*
X71470000Y-54465000D01*
G75*
G02*
X71625000Y-54310000I155000J0D01*
G01*
G37*
%TD*%
%TO.C,C10*%
G36*
G01*
X74245000Y-54300000D02*
X74555000Y-54300000D01*
G75*
G02*
X74710000Y-54455000I0J-155000D01*
G01*
X74710000Y-54880000D01*
G75*
G02*
X74555000Y-55035000I-155000J0D01*
G01*
X74245000Y-55035000D01*
G75*
G02*
X74090000Y-54880000I0J155000D01*
G01*
X74090000Y-54455000D01*
G75*
G02*
X74245000Y-54300000I155000J0D01*
G01*
G37*
G36*
G01*
X74245000Y-53165000D02*
X74555000Y-53165000D01*
G75*
G02*
X74710000Y-53320000I0J-155000D01*
G01*
X74710000Y-53745000D01*
G75*
G02*
X74555000Y-53900000I-155000J0D01*
G01*
X74245000Y-53900000D01*
G75*
G02*
X74090000Y-53745000I0J155000D01*
G01*
X74090000Y-53320000D01*
G75*
G02*
X74245000Y-53165000I155000J0D01*
G01*
G37*
%TD*%
%TO.C,C11*%
G36*
G01*
X57825000Y-51825000D02*
X57825000Y-51515000D01*
G75*
G02*
X57980000Y-51360000I155000J0D01*
G01*
X58405000Y-51360000D01*
G75*
G02*
X58560000Y-51515000I0J-155000D01*
G01*
X58560000Y-51825000D01*
G75*
G02*
X58405000Y-51980000I-155000J0D01*
G01*
X57980000Y-51980000D01*
G75*
G02*
X57825000Y-51825000I0J155000D01*
G01*
G37*
G36*
G01*
X58960000Y-51825000D02*
X58960000Y-51515000D01*
G75*
G02*
X59115000Y-51360000I155000J0D01*
G01*
X59540000Y-51360000D01*
G75*
G02*
X59695000Y-51515000I0J-155000D01*
G01*
X59695000Y-51825000D01*
G75*
G02*
X59540000Y-51980000I-155000J0D01*
G01*
X59115000Y-51980000D01*
G75*
G02*
X58960000Y-51825000I0J155000D01*
G01*
G37*
%TD*%
%TO.C,C12*%
G36*
G01*
X57825000Y-49925000D02*
X57825000Y-49615000D01*
G75*
G02*
X57980000Y-49460000I155000J0D01*
G01*
X58405000Y-49460000D01*
G75*
G02*
X58560000Y-49615000I0J-155000D01*
G01*
X58560000Y-49925000D01*
G75*
G02*
X58405000Y-50080000I-155000J0D01*
G01*
X57980000Y-50080000D01*
G75*
G02*
X57825000Y-49925000I0J155000D01*
G01*
G37*
G36*
G01*
X58960000Y-49925000D02*
X58960000Y-49615000D01*
G75*
G02*
X59115000Y-49460000I155000J0D01*
G01*
X59540000Y-49460000D01*
G75*
G02*
X59695000Y-49615000I0J-155000D01*
G01*
X59695000Y-49925000D01*
G75*
G02*
X59540000Y-50080000I-155000J0D01*
G01*
X59115000Y-50080000D01*
G75*
G02*
X58960000Y-49925000I0J155000D01*
G01*
G37*
%TD*%
%TO.C,C13*%
G36*
G01*
X55055000Y-63365000D02*
X54745000Y-63365000D01*
G75*
G02*
X54590000Y-63210000I0J155000D01*
G01*
X54590000Y-62785000D01*
G75*
G02*
X54745000Y-62630000I155000J0D01*
G01*
X55055000Y-62630000D01*
G75*
G02*
X55210000Y-62785000I0J-155000D01*
G01*
X55210000Y-63210000D01*
G75*
G02*
X55055000Y-63365000I-155000J0D01*
G01*
G37*
G36*
G01*
X55055000Y-62230000D02*
X54745000Y-62230000D01*
G75*
G02*
X54590000Y-62075000I0J155000D01*
G01*
X54590000Y-61650000D01*
G75*
G02*
X54745000Y-61495000I155000J0D01*
G01*
X55055000Y-61495000D01*
G75*
G02*
X55210000Y-61650000I0J-155000D01*
G01*
X55210000Y-62075000D01*
G75*
G02*
X55055000Y-62230000I-155000J0D01*
G01*
G37*
%TD*%
%TO.C,C14*%
G36*
G01*
X53525000Y-62230000D02*
X53215000Y-62230000D01*
G75*
G02*
X53060000Y-62075000I0J155000D01*
G01*
X53060000Y-61650000D01*
G75*
G02*
X53215000Y-61495000I155000J0D01*
G01*
X53525000Y-61495000D01*
G75*
G02*
X53680000Y-61650000I0J-155000D01*
G01*
X53680000Y-62075000D01*
G75*
G02*
X53525000Y-62230000I-155000J0D01*
G01*
G37*
G36*
G01*
X53525000Y-63365000D02*
X53215000Y-63365000D01*
G75*
G02*
X53060000Y-63210000I0J155000D01*
G01*
X53060000Y-62785000D01*
G75*
G02*
X53215000Y-62630000I155000J0D01*
G01*
X53525000Y-62630000D01*
G75*
G02*
X53680000Y-62785000I0J-155000D01*
G01*
X53680000Y-63210000D01*
G75*
G02*
X53525000Y-63365000I-155000J0D01*
G01*
G37*
%TD*%
%TO.C,C15*%
G36*
G01*
X48780000Y-55265000D02*
X48780000Y-54955000D01*
G75*
G02*
X48935000Y-54800000I155000J0D01*
G01*
X49360000Y-54800000D01*
G75*
G02*
X49515000Y-54955000I0J-155000D01*
G01*
X49515000Y-55265000D01*
G75*
G02*
X49360000Y-55420000I-155000J0D01*
G01*
X48935000Y-55420000D01*
G75*
G02*
X48780000Y-55265000I0J155000D01*
G01*
G37*
G36*
G01*
X47645000Y-55265000D02*
X47645000Y-54955000D01*
G75*
G02*
X47800000Y-54800000I155000J0D01*
G01*
X48225000Y-54800000D01*
G75*
G02*
X48380000Y-54955000I0J-155000D01*
G01*
X48380000Y-55265000D01*
G75*
G02*
X48225000Y-55420000I-155000J0D01*
G01*
X47800000Y-55420000D01*
G75*
G02*
X47645000Y-55265000I0J155000D01*
G01*
G37*
%TD*%
%TO.C,C16*%
G36*
G01*
X49345000Y-63075000D02*
X49345000Y-63385000D01*
G75*
G02*
X49190000Y-63540000I-155000J0D01*
G01*
X48765000Y-63540000D01*
G75*
G02*
X48610000Y-63385000I0J155000D01*
G01*
X48610000Y-63075000D01*
G75*
G02*
X48765000Y-62920000I155000J0D01*
G01*
X49190000Y-62920000D01*
G75*
G02*
X49345000Y-63075000I0J-155000D01*
G01*
G37*
G36*
G01*
X48210000Y-63075000D02*
X48210000Y-63385000D01*
G75*
G02*
X48055000Y-63540000I-155000J0D01*
G01*
X47630000Y-63540000D01*
G75*
G02*
X47475000Y-63385000I0J155000D01*
G01*
X47475000Y-63075000D01*
G75*
G02*
X47630000Y-62920000I155000J0D01*
G01*
X48055000Y-62920000D01*
G75*
G02*
X48210000Y-63075000I0J-155000D01*
G01*
G37*
%TD*%
%TO.C,C17*%
G36*
G01*
X66242500Y-67050000D02*
X66717500Y-67050000D01*
G75*
G02*
X66955000Y-67287500I0J-237500D01*
G01*
X66955000Y-67887500D01*
G75*
G02*
X66717500Y-68125000I-237500J0D01*
G01*
X66242500Y-68125000D01*
G75*
G02*
X66005000Y-67887500I0J237500D01*
G01*
X66005000Y-67287500D01*
G75*
G02*
X66242500Y-67050000I237500J0D01*
G01*
G37*
G36*
G01*
X66242500Y-68775000D02*
X66717500Y-68775000D01*
G75*
G02*
X66955000Y-69012500I0J-237500D01*
G01*
X66955000Y-69612500D01*
G75*
G02*
X66717500Y-69850000I-237500J0D01*
G01*
X66242500Y-69850000D01*
G75*
G02*
X66005000Y-69612500I0J237500D01*
G01*
X66005000Y-69012500D01*
G75*
G02*
X66242500Y-68775000I237500J0D01*
G01*
G37*
%TD*%
D10*
%TO.C,D1*%
X27000000Y-69250000D03*
X23700000Y-69250000D03*
%TD*%
%TO.C,D2*%
G36*
G01*
X54760000Y-47442500D02*
X54760000Y-47917500D01*
G75*
G02*
X54522500Y-48155000I-237500J0D01*
G01*
X53947500Y-48155000D01*
G75*
G02*
X53710000Y-47917500I0J237500D01*
G01*
X53710000Y-47442500D01*
G75*
G02*
X53947500Y-47205000I237500J0D01*
G01*
X54522500Y-47205000D01*
G75*
G02*
X54760000Y-47442500I0J-237500D01*
G01*
G37*
G36*
G01*
X53010000Y-47442500D02*
X53010000Y-47917500D01*
G75*
G02*
X52772500Y-48155000I-237500J0D01*
G01*
X52197500Y-48155000D01*
G75*
G02*
X51960000Y-47917500I0J237500D01*
G01*
X51960000Y-47442500D01*
G75*
G02*
X52197500Y-47205000I237500J0D01*
G01*
X52772500Y-47205000D01*
G75*
G02*
X53010000Y-47442500I0J-237500D01*
G01*
G37*
%TD*%
%TO.C,D3*%
G36*
G01*
X72820000Y-64872500D02*
X72820000Y-65347500D01*
G75*
G02*
X72582500Y-65585000I-237500J0D01*
G01*
X72007500Y-65585000D01*
G75*
G02*
X71770000Y-65347500I0J237500D01*
G01*
X71770000Y-64872500D01*
G75*
G02*
X72007500Y-64635000I237500J0D01*
G01*
X72582500Y-64635000D01*
G75*
G02*
X72820000Y-64872500I0J-237500D01*
G01*
G37*
G36*
G01*
X74570000Y-64872500D02*
X74570000Y-65347500D01*
G75*
G02*
X74332500Y-65585000I-237500J0D01*
G01*
X73757500Y-65585000D01*
G75*
G02*
X73520000Y-65347500I0J237500D01*
G01*
X73520000Y-64872500D01*
G75*
G02*
X73757500Y-64635000I237500J0D01*
G01*
X74332500Y-64635000D01*
G75*
G02*
X74570000Y-64872500I0J-237500D01*
G01*
G37*
%TD*%
%TO.C,F1*%
G36*
G01*
X29210000Y-69527500D02*
X29210000Y-69052500D01*
G75*
G02*
X29447500Y-68815000I237500J0D01*
G01*
X30022500Y-68815000D01*
G75*
G02*
X30260000Y-69052500I0J-237500D01*
G01*
X30260000Y-69527500D01*
G75*
G02*
X30022500Y-69765000I-237500J0D01*
G01*
X29447500Y-69765000D01*
G75*
G02*
X29210000Y-69527500I0J237500D01*
G01*
G37*
G36*
G01*
X30960000Y-69527500D02*
X30960000Y-69052500D01*
G75*
G02*
X31197500Y-68815000I237500J0D01*
G01*
X31772500Y-68815000D01*
G75*
G02*
X32010000Y-69052500I0J-237500D01*
G01*
X32010000Y-69527500D01*
G75*
G02*
X31772500Y-69765000I-237500J0D01*
G01*
X31197500Y-69765000D01*
G75*
G02*
X30960000Y-69527500I0J237500D01*
G01*
G37*
%TD*%
%TO.C,FB1*%
G36*
G01*
X40905000Y-65810001D02*
X40905000Y-65109999D01*
G75*
G02*
X41154999Y-64860000I249999J0D01*
G01*
X41705001Y-64860000D01*
G75*
G02*
X41955000Y-65109999I0J-249999D01*
G01*
X41955000Y-65810001D01*
G75*
G02*
X41705001Y-66060000I-249999J0D01*
G01*
X41154999Y-66060000D01*
G75*
G02*
X40905000Y-65810001I0J249999D01*
G01*
G37*
G36*
G01*
X43205000Y-65810001D02*
X43205000Y-65109999D01*
G75*
G02*
X43454999Y-64860000I249999J0D01*
G01*
X44005001Y-64860000D01*
G75*
G02*
X44255000Y-65109999I0J-249999D01*
G01*
X44255000Y-65810001D01*
G75*
G02*
X44005001Y-66060000I-249999J0D01*
G01*
X43454999Y-66060000D01*
G75*
G02*
X43205000Y-65810001I0J249999D01*
G01*
G37*
%TD*%
%TO.C,FB2*%
G36*
G01*
X50689999Y-68855000D02*
X51390001Y-68855000D01*
G75*
G02*
X51640000Y-69104999I0J-249999D01*
G01*
X51640000Y-69655001D01*
G75*
G02*
X51390001Y-69905000I-249999J0D01*
G01*
X50689999Y-69905000D01*
G75*
G02*
X50440000Y-69655001I0J249999D01*
G01*
X50440000Y-69104999D01*
G75*
G02*
X50689999Y-68855000I249999J0D01*
G01*
G37*
G36*
G01*
X50689999Y-66555000D02*
X51390001Y-66555000D01*
G75*
G02*
X51640000Y-66804999I0J-249999D01*
G01*
X51640000Y-67355001D01*
G75*
G02*
X51390001Y-67605000I-249999J0D01*
G01*
X50689999Y-67605000D01*
G75*
G02*
X50440000Y-67355001I0J249999D01*
G01*
X50440000Y-66804999D01*
G75*
G02*
X50689999Y-66555000I249999J0D01*
G01*
G37*
%TD*%
D11*
%TO.C,HSE*%
X47310000Y-57620000D03*
X47310000Y-60520000D03*
X49610000Y-60520000D03*
X49610000Y-57620000D03*
%TD*%
%TO.C,R1*%
G36*
G01*
X54022500Y-45295000D02*
X54497500Y-45295000D01*
G75*
G02*
X54735000Y-45532500I0J-237500D01*
G01*
X54735000Y-46032500D01*
G75*
G02*
X54497500Y-46270000I-237500J0D01*
G01*
X54022500Y-46270000D01*
G75*
G02*
X53785000Y-46032500I0J237500D01*
G01*
X53785000Y-45532500D01*
G75*
G02*
X54022500Y-45295000I237500J0D01*
G01*
G37*
G36*
G01*
X54022500Y-43470000D02*
X54497500Y-43470000D01*
G75*
G02*
X54735000Y-43707500I0J-237500D01*
G01*
X54735000Y-44207500D01*
G75*
G02*
X54497500Y-44445000I-237500J0D01*
G01*
X54022500Y-44445000D01*
G75*
G02*
X53785000Y-44207500I0J237500D01*
G01*
X53785000Y-43707500D01*
G75*
G02*
X54022500Y-43470000I237500J0D01*
G01*
G37*
%TD*%
%TO.C,R2*%
G36*
G01*
X70535000Y-51310000D02*
X70535000Y-51630000D01*
G75*
G02*
X70375000Y-51790000I-160000J0D01*
G01*
X69980000Y-51790000D01*
G75*
G02*
X69820000Y-51630000I0J160000D01*
G01*
X69820000Y-51310000D01*
G75*
G02*
X69980000Y-51150000I160000J0D01*
G01*
X70375000Y-51150000D01*
G75*
G02*
X70535000Y-51310000I0J-160000D01*
G01*
G37*
G36*
G01*
X69340000Y-51310000D02*
X69340000Y-51630000D01*
G75*
G02*
X69180000Y-51790000I-160000J0D01*
G01*
X68785000Y-51790000D01*
G75*
G02*
X68625000Y-51630000I0J160000D01*
G01*
X68625000Y-51310000D01*
G75*
G02*
X68785000Y-51150000I160000J0D01*
G01*
X69180000Y-51150000D01*
G75*
G02*
X69340000Y-51310000I0J-160000D01*
G01*
G37*
%TD*%
%TO.C,R3*%
G36*
G01*
X64330000Y-68740000D02*
X64650000Y-68740000D01*
G75*
G02*
X64810000Y-68900000I0J-160000D01*
G01*
X64810000Y-69295000D01*
G75*
G02*
X64650000Y-69455000I-160000J0D01*
G01*
X64330000Y-69455000D01*
G75*
G02*
X64170000Y-69295000I0J160000D01*
G01*
X64170000Y-68900000D01*
G75*
G02*
X64330000Y-68740000I160000J0D01*
G01*
G37*
G36*
G01*
X64330000Y-67545000D02*
X64650000Y-67545000D01*
G75*
G02*
X64810000Y-67705000I0J-160000D01*
G01*
X64810000Y-68100000D01*
G75*
G02*
X64650000Y-68260000I-160000J0D01*
G01*
X64330000Y-68260000D01*
G75*
G02*
X64170000Y-68100000I0J160000D01*
G01*
X64170000Y-67705000D01*
G75*
G02*
X64330000Y-67545000I160000J0D01*
G01*
G37*
%TD*%
%TO.C,R4*%
G36*
G01*
X62140000Y-46202500D02*
X62140000Y-46677500D01*
G75*
G02*
X61902500Y-46915000I-237500J0D01*
G01*
X61402500Y-46915000D01*
G75*
G02*
X61165000Y-46677500I0J237500D01*
G01*
X61165000Y-46202500D01*
G75*
G02*
X61402500Y-45965000I237500J0D01*
G01*
X61902500Y-45965000D01*
G75*
G02*
X62140000Y-46202500I0J-237500D01*
G01*
G37*
G36*
G01*
X60315000Y-46202500D02*
X60315000Y-46677500D01*
G75*
G02*
X60077500Y-46915000I-237500J0D01*
G01*
X59577500Y-46915000D01*
G75*
G02*
X59340000Y-46677500I0J237500D01*
G01*
X59340000Y-46202500D01*
G75*
G02*
X59577500Y-45965000I237500J0D01*
G01*
X60077500Y-45965000D01*
G75*
G02*
X60315000Y-46202500I0J-237500D01*
G01*
G37*
%TD*%
%TO.C,R5*%
G36*
G01*
X62040000Y-42832500D02*
X62040000Y-43307500D01*
G75*
G02*
X61802500Y-43545000I-237500J0D01*
G01*
X61302500Y-43545000D01*
G75*
G02*
X61065000Y-43307500I0J237500D01*
G01*
X61065000Y-42832500D01*
G75*
G02*
X61302500Y-42595000I237500J0D01*
G01*
X61802500Y-42595000D01*
G75*
G02*
X62040000Y-42832500I0J-237500D01*
G01*
G37*
G36*
G01*
X60215000Y-42832500D02*
X60215000Y-43307500D01*
G75*
G02*
X59977500Y-43545000I-237500J0D01*
G01*
X59477500Y-43545000D01*
G75*
G02*
X59240000Y-43307500I0J237500D01*
G01*
X59240000Y-42832500D01*
G75*
G02*
X59477500Y-42595000I237500J0D01*
G01*
X59977500Y-42595000D01*
G75*
G02*
X60215000Y-42832500I0J-237500D01*
G01*
G37*
%TD*%
%TO.C,R6*%
G36*
G01*
X54645000Y-58730000D02*
X54645000Y-59050000D01*
G75*
G02*
X54485000Y-59210000I-160000J0D01*
G01*
X54090000Y-59210000D01*
G75*
G02*
X53930000Y-59050000I0J160000D01*
G01*
X53930000Y-58730000D01*
G75*
G02*
X54090000Y-58570000I160000J0D01*
G01*
X54485000Y-58570000D01*
G75*
G02*
X54645000Y-58730000I0J-160000D01*
G01*
G37*
G36*
G01*
X53450000Y-58730000D02*
X53450000Y-59050000D01*
G75*
G02*
X53290000Y-59210000I-160000J0D01*
G01*
X52895000Y-59210000D01*
G75*
G02*
X52735000Y-59050000I0J160000D01*
G01*
X52735000Y-58730000D01*
G75*
G02*
X52895000Y-58570000I160000J0D01*
G01*
X53290000Y-58570000D01*
G75*
G02*
X53450000Y-58730000I0J-160000D01*
G01*
G37*
%TD*%
%TO.C,R7*%
G36*
G01*
X76790000Y-66080000D02*
X76470000Y-66080000D01*
G75*
G02*
X76310000Y-65920000I0J160000D01*
G01*
X76310000Y-65525000D01*
G75*
G02*
X76470000Y-65365000I160000J0D01*
G01*
X76790000Y-65365000D01*
G75*
G02*
X76950000Y-65525000I0J-160000D01*
G01*
X76950000Y-65920000D01*
G75*
G02*
X76790000Y-66080000I-160000J0D01*
G01*
G37*
G36*
G01*
X76790000Y-67275000D02*
X76470000Y-67275000D01*
G75*
G02*
X76310000Y-67115000I0J160000D01*
G01*
X76310000Y-66720000D01*
G75*
G02*
X76470000Y-66560000I160000J0D01*
G01*
X76790000Y-66560000D01*
G75*
G02*
X76950000Y-66720000I0J-160000D01*
G01*
X76950000Y-67115000D01*
G75*
G02*
X76790000Y-67275000I-160000J0D01*
G01*
G37*
%TD*%
D12*
%TO.C,SWD*%
X88140000Y-47740000D03*
X92040000Y-47740000D03*
X88140000Y-49010000D03*
X92040000Y-49010000D03*
X88140000Y-50280000D03*
X92040000Y-50280000D03*
X88140000Y-51550000D03*
X92040000Y-51550000D03*
X88140000Y-52820000D03*
X92040000Y-52820000D03*
%TD*%
D13*
%TO.C,3.3V Reg*%
X38250000Y-55670000D03*
D14*
X38250000Y-61970000D03*
X40550000Y-61970000D03*
X35950000Y-61970000D03*
%TD*%
%TO.C,U2*%
G36*
G01*
X59350000Y-54815000D02*
X59350000Y-53415000D01*
G75*
G02*
X59425000Y-53340000I75000J0D01*
G01*
X59575000Y-53340000D01*
G75*
G02*
X59650000Y-53415000I0J-75000D01*
G01*
X59650000Y-54815000D01*
G75*
G02*
X59575000Y-54890000I-75000J0D01*
G01*
X59425000Y-54890000D01*
G75*
G02*
X59350000Y-54815000I0J75000D01*
G01*
G37*
G36*
G01*
X59850000Y-54815000D02*
X59850000Y-53415000D01*
G75*
G02*
X59925000Y-53340000I75000J0D01*
G01*
X60075000Y-53340000D01*
G75*
G02*
X60150000Y-53415000I0J-75000D01*
G01*
X60150000Y-54815000D01*
G75*
G02*
X60075000Y-54890000I-75000J0D01*
G01*
X59925000Y-54890000D01*
G75*
G02*
X59850000Y-54815000I0J75000D01*
G01*
G37*
G36*
G01*
X60350000Y-54815000D02*
X60350000Y-53415000D01*
G75*
G02*
X60425000Y-53340000I75000J0D01*
G01*
X60575000Y-53340000D01*
G75*
G02*
X60650000Y-53415000I0J-75000D01*
G01*
X60650000Y-54815000D01*
G75*
G02*
X60575000Y-54890000I-75000J0D01*
G01*
X60425000Y-54890000D01*
G75*
G02*
X60350000Y-54815000I0J75000D01*
G01*
G37*
G36*
G01*
X60850000Y-54815000D02*
X60850000Y-53415000D01*
G75*
G02*
X60925000Y-53340000I75000J0D01*
G01*
X61075000Y-53340000D01*
G75*
G02*
X61150000Y-53415000I0J-75000D01*
G01*
X61150000Y-54815000D01*
G75*
G02*
X61075000Y-54890000I-75000J0D01*
G01*
X60925000Y-54890000D01*
G75*
G02*
X60850000Y-54815000I0J75000D01*
G01*
G37*
G36*
G01*
X61350000Y-54815000D02*
X61350000Y-53415000D01*
G75*
G02*
X61425000Y-53340000I75000J0D01*
G01*
X61575000Y-53340000D01*
G75*
G02*
X61650000Y-53415000I0J-75000D01*
G01*
X61650000Y-54815000D01*
G75*
G02*
X61575000Y-54890000I-75000J0D01*
G01*
X61425000Y-54890000D01*
G75*
G02*
X61350000Y-54815000I0J75000D01*
G01*
G37*
G36*
G01*
X61850000Y-54815000D02*
X61850000Y-53415000D01*
G75*
G02*
X61925000Y-53340000I75000J0D01*
G01*
X62075000Y-53340000D01*
G75*
G02*
X62150000Y-53415000I0J-75000D01*
G01*
X62150000Y-54815000D01*
G75*
G02*
X62075000Y-54890000I-75000J0D01*
G01*
X61925000Y-54890000D01*
G75*
G02*
X61850000Y-54815000I0J75000D01*
G01*
G37*
G36*
G01*
X62350000Y-54815000D02*
X62350000Y-53415000D01*
G75*
G02*
X62425000Y-53340000I75000J0D01*
G01*
X62575000Y-53340000D01*
G75*
G02*
X62650000Y-53415000I0J-75000D01*
G01*
X62650000Y-54815000D01*
G75*
G02*
X62575000Y-54890000I-75000J0D01*
G01*
X62425000Y-54890000D01*
G75*
G02*
X62350000Y-54815000I0J75000D01*
G01*
G37*
G36*
G01*
X62850000Y-54815000D02*
X62850000Y-53415000D01*
G75*
G02*
X62925000Y-53340000I75000J0D01*
G01*
X63075000Y-53340000D01*
G75*
G02*
X63150000Y-53415000I0J-75000D01*
G01*
X63150000Y-54815000D01*
G75*
G02*
X63075000Y-54890000I-75000J0D01*
G01*
X62925000Y-54890000D01*
G75*
G02*
X62850000Y-54815000I0J75000D01*
G01*
G37*
G36*
G01*
X63350000Y-54815000D02*
X63350000Y-53415000D01*
G75*
G02*
X63425000Y-53340000I75000J0D01*
G01*
X63575000Y-53340000D01*
G75*
G02*
X63650000Y-53415000I0J-75000D01*
G01*
X63650000Y-54815000D01*
G75*
G02*
X63575000Y-54890000I-75000J0D01*
G01*
X63425000Y-54890000D01*
G75*
G02*
X63350000Y-54815000I0J75000D01*
G01*
G37*
G36*
G01*
X63850000Y-54815000D02*
X63850000Y-53415000D01*
G75*
G02*
X63925000Y-53340000I75000J0D01*
G01*
X64075000Y-53340000D01*
G75*
G02*
X64150000Y-53415000I0J-75000D01*
G01*
X64150000Y-54815000D01*
G75*
G02*
X64075000Y-54890000I-75000J0D01*
G01*
X63925000Y-54890000D01*
G75*
G02*
X63850000Y-54815000I0J75000D01*
G01*
G37*
G36*
G01*
X64350000Y-54815000D02*
X64350000Y-53415000D01*
G75*
G02*
X64425000Y-53340000I75000J0D01*
G01*
X64575000Y-53340000D01*
G75*
G02*
X64650000Y-53415000I0J-75000D01*
G01*
X64650000Y-54815000D01*
G75*
G02*
X64575000Y-54890000I-75000J0D01*
G01*
X64425000Y-54890000D01*
G75*
G02*
X64350000Y-54815000I0J75000D01*
G01*
G37*
G36*
G01*
X64850000Y-54815000D02*
X64850000Y-53415000D01*
G75*
G02*
X64925000Y-53340000I75000J0D01*
G01*
X65075000Y-53340000D01*
G75*
G02*
X65150000Y-53415000I0J-75000D01*
G01*
X65150000Y-54815000D01*
G75*
G02*
X65075000Y-54890000I-75000J0D01*
G01*
X64925000Y-54890000D01*
G75*
G02*
X64850000Y-54815000I0J75000D01*
G01*
G37*
G36*
G01*
X65350000Y-54815000D02*
X65350000Y-53415000D01*
G75*
G02*
X65425000Y-53340000I75000J0D01*
G01*
X65575000Y-53340000D01*
G75*
G02*
X65650000Y-53415000I0J-75000D01*
G01*
X65650000Y-54815000D01*
G75*
G02*
X65575000Y-54890000I-75000J0D01*
G01*
X65425000Y-54890000D01*
G75*
G02*
X65350000Y-54815000I0J75000D01*
G01*
G37*
G36*
G01*
X65850000Y-54815000D02*
X65850000Y-53415000D01*
G75*
G02*
X65925000Y-53340000I75000J0D01*
G01*
X66075000Y-53340000D01*
G75*
G02*
X66150000Y-53415000I0J-75000D01*
G01*
X66150000Y-54815000D01*
G75*
G02*
X66075000Y-54890000I-75000J0D01*
G01*
X65925000Y-54890000D01*
G75*
G02*
X65850000Y-54815000I0J75000D01*
G01*
G37*
G36*
G01*
X66350000Y-54815000D02*
X66350000Y-53415000D01*
G75*
G02*
X66425000Y-53340000I75000J0D01*
G01*
X66575000Y-53340000D01*
G75*
G02*
X66650000Y-53415000I0J-75000D01*
G01*
X66650000Y-54815000D01*
G75*
G02*
X66575000Y-54890000I-75000J0D01*
G01*
X66425000Y-54890000D01*
G75*
G02*
X66350000Y-54815000I0J75000D01*
G01*
G37*
G36*
G01*
X66850000Y-54815000D02*
X66850000Y-53415000D01*
G75*
G02*
X66925000Y-53340000I75000J0D01*
G01*
X67075000Y-53340000D01*
G75*
G02*
X67150000Y-53415000I0J-75000D01*
G01*
X67150000Y-54815000D01*
G75*
G02*
X67075000Y-54890000I-75000J0D01*
G01*
X66925000Y-54890000D01*
G75*
G02*
X66850000Y-54815000I0J75000D01*
G01*
G37*
G36*
G01*
X68150000Y-56115000D02*
X68150000Y-55965000D01*
G75*
G02*
X68225000Y-55890000I75000J0D01*
G01*
X69625000Y-55890000D01*
G75*
G02*
X69700000Y-55965000I0J-75000D01*
G01*
X69700000Y-56115000D01*
G75*
G02*
X69625000Y-56190000I-75000J0D01*
G01*
X68225000Y-56190000D01*
G75*
G02*
X68150000Y-56115000I0J75000D01*
G01*
G37*
G36*
G01*
X68150000Y-56615000D02*
X68150000Y-56465000D01*
G75*
G02*
X68225000Y-56390000I75000J0D01*
G01*
X69625000Y-56390000D01*
G75*
G02*
X69700000Y-56465000I0J-75000D01*
G01*
X69700000Y-56615000D01*
G75*
G02*
X69625000Y-56690000I-75000J0D01*
G01*
X68225000Y-56690000D01*
G75*
G02*
X68150000Y-56615000I0J75000D01*
G01*
G37*
G36*
G01*
X68150000Y-57115000D02*
X68150000Y-56965000D01*
G75*
G02*
X68225000Y-56890000I75000J0D01*
G01*
X69625000Y-56890000D01*
G75*
G02*
X69700000Y-56965000I0J-75000D01*
G01*
X69700000Y-57115000D01*
G75*
G02*
X69625000Y-57190000I-75000J0D01*
G01*
X68225000Y-57190000D01*
G75*
G02*
X68150000Y-57115000I0J75000D01*
G01*
G37*
G36*
G01*
X68150000Y-57615000D02*
X68150000Y-57465000D01*
G75*
G02*
X68225000Y-57390000I75000J0D01*
G01*
X69625000Y-57390000D01*
G75*
G02*
X69700000Y-57465000I0J-75000D01*
G01*
X69700000Y-57615000D01*
G75*
G02*
X69625000Y-57690000I-75000J0D01*
G01*
X68225000Y-57690000D01*
G75*
G02*
X68150000Y-57615000I0J75000D01*
G01*
G37*
G36*
G01*
X68150000Y-58115000D02*
X68150000Y-57965000D01*
G75*
G02*
X68225000Y-57890000I75000J0D01*
G01*
X69625000Y-57890000D01*
G75*
G02*
X69700000Y-57965000I0J-75000D01*
G01*
X69700000Y-58115000D01*
G75*
G02*
X69625000Y-58190000I-75000J0D01*
G01*
X68225000Y-58190000D01*
G75*
G02*
X68150000Y-58115000I0J75000D01*
G01*
G37*
G36*
G01*
X68150000Y-58615000D02*
X68150000Y-58465000D01*
G75*
G02*
X68225000Y-58390000I75000J0D01*
G01*
X69625000Y-58390000D01*
G75*
G02*
X69700000Y-58465000I0J-75000D01*
G01*
X69700000Y-58615000D01*
G75*
G02*
X69625000Y-58690000I-75000J0D01*
G01*
X68225000Y-58690000D01*
G75*
G02*
X68150000Y-58615000I0J75000D01*
G01*
G37*
G36*
G01*
X68150000Y-59115000D02*
X68150000Y-58965000D01*
G75*
G02*
X68225000Y-58890000I75000J0D01*
G01*
X69625000Y-58890000D01*
G75*
G02*
X69700000Y-58965000I0J-75000D01*
G01*
X69700000Y-59115000D01*
G75*
G02*
X69625000Y-59190000I-75000J0D01*
G01*
X68225000Y-59190000D01*
G75*
G02*
X68150000Y-59115000I0J75000D01*
G01*
G37*
G36*
G01*
X68150000Y-59615000D02*
X68150000Y-59465000D01*
G75*
G02*
X68225000Y-59390000I75000J0D01*
G01*
X69625000Y-59390000D01*
G75*
G02*
X69700000Y-59465000I0J-75000D01*
G01*
X69700000Y-59615000D01*
G75*
G02*
X69625000Y-59690000I-75000J0D01*
G01*
X68225000Y-59690000D01*
G75*
G02*
X68150000Y-59615000I0J75000D01*
G01*
G37*
G36*
G01*
X68150000Y-60115000D02*
X68150000Y-59965000D01*
G75*
G02*
X68225000Y-59890000I75000J0D01*
G01*
X69625000Y-59890000D01*
G75*
G02*
X69700000Y-59965000I0J-75000D01*
G01*
X69700000Y-60115000D01*
G75*
G02*
X69625000Y-60190000I-75000J0D01*
G01*
X68225000Y-60190000D01*
G75*
G02*
X68150000Y-60115000I0J75000D01*
G01*
G37*
G36*
G01*
X68150000Y-60615000D02*
X68150000Y-60465000D01*
G75*
G02*
X68225000Y-60390000I75000J0D01*
G01*
X69625000Y-60390000D01*
G75*
G02*
X69700000Y-60465000I0J-75000D01*
G01*
X69700000Y-60615000D01*
G75*
G02*
X69625000Y-60690000I-75000J0D01*
G01*
X68225000Y-60690000D01*
G75*
G02*
X68150000Y-60615000I0J75000D01*
G01*
G37*
G36*
G01*
X68150000Y-61115000D02*
X68150000Y-60965000D01*
G75*
G02*
X68225000Y-60890000I75000J0D01*
G01*
X69625000Y-60890000D01*
G75*
G02*
X69700000Y-60965000I0J-75000D01*
G01*
X69700000Y-61115000D01*
G75*
G02*
X69625000Y-61190000I-75000J0D01*
G01*
X68225000Y-61190000D01*
G75*
G02*
X68150000Y-61115000I0J75000D01*
G01*
G37*
G36*
G01*
X68150000Y-61615000D02*
X68150000Y-61465000D01*
G75*
G02*
X68225000Y-61390000I75000J0D01*
G01*
X69625000Y-61390000D01*
G75*
G02*
X69700000Y-61465000I0J-75000D01*
G01*
X69700000Y-61615000D01*
G75*
G02*
X69625000Y-61690000I-75000J0D01*
G01*
X68225000Y-61690000D01*
G75*
G02*
X68150000Y-61615000I0J75000D01*
G01*
G37*
G36*
G01*
X68150000Y-62115000D02*
X68150000Y-61965000D01*
G75*
G02*
X68225000Y-61890000I75000J0D01*
G01*
X69625000Y-61890000D01*
G75*
G02*
X69700000Y-61965000I0J-75000D01*
G01*
X69700000Y-62115000D01*
G75*
G02*
X69625000Y-62190000I-75000J0D01*
G01*
X68225000Y-62190000D01*
G75*
G02*
X68150000Y-62115000I0J75000D01*
G01*
G37*
G36*
G01*
X68150000Y-62615000D02*
X68150000Y-62465000D01*
G75*
G02*
X68225000Y-62390000I75000J0D01*
G01*
X69625000Y-62390000D01*
G75*
G02*
X69700000Y-62465000I0J-75000D01*
G01*
X69700000Y-62615000D01*
G75*
G02*
X69625000Y-62690000I-75000J0D01*
G01*
X68225000Y-62690000D01*
G75*
G02*
X68150000Y-62615000I0J75000D01*
G01*
G37*
G36*
G01*
X68150000Y-63115000D02*
X68150000Y-62965000D01*
G75*
G02*
X68225000Y-62890000I75000J0D01*
G01*
X69625000Y-62890000D01*
G75*
G02*
X69700000Y-62965000I0J-75000D01*
G01*
X69700000Y-63115000D01*
G75*
G02*
X69625000Y-63190000I-75000J0D01*
G01*
X68225000Y-63190000D01*
G75*
G02*
X68150000Y-63115000I0J75000D01*
G01*
G37*
G36*
G01*
X68150000Y-63615000D02*
X68150000Y-63465000D01*
G75*
G02*
X68225000Y-63390000I75000J0D01*
G01*
X69625000Y-63390000D01*
G75*
G02*
X69700000Y-63465000I0J-75000D01*
G01*
X69700000Y-63615000D01*
G75*
G02*
X69625000Y-63690000I-75000J0D01*
G01*
X68225000Y-63690000D01*
G75*
G02*
X68150000Y-63615000I0J75000D01*
G01*
G37*
G36*
G01*
X66850000Y-66165000D02*
X66850000Y-64765000D01*
G75*
G02*
X66925000Y-64690000I75000J0D01*
G01*
X67075000Y-64690000D01*
G75*
G02*
X67150000Y-64765000I0J-75000D01*
G01*
X67150000Y-66165000D01*
G75*
G02*
X67075000Y-66240000I-75000J0D01*
G01*
X66925000Y-66240000D01*
G75*
G02*
X66850000Y-66165000I0J75000D01*
G01*
G37*
G36*
G01*
X66350000Y-66165000D02*
X66350000Y-64765000D01*
G75*
G02*
X66425000Y-64690000I75000J0D01*
G01*
X66575000Y-64690000D01*
G75*
G02*
X66650000Y-64765000I0J-75000D01*
G01*
X66650000Y-66165000D01*
G75*
G02*
X66575000Y-66240000I-75000J0D01*
G01*
X66425000Y-66240000D01*
G75*
G02*
X66350000Y-66165000I0J75000D01*
G01*
G37*
G36*
G01*
X65850000Y-66165000D02*
X65850000Y-64765000D01*
G75*
G02*
X65925000Y-64690000I75000J0D01*
G01*
X66075000Y-64690000D01*
G75*
G02*
X66150000Y-64765000I0J-75000D01*
G01*
X66150000Y-66165000D01*
G75*
G02*
X66075000Y-66240000I-75000J0D01*
G01*
X65925000Y-66240000D01*
G75*
G02*
X65850000Y-66165000I0J75000D01*
G01*
G37*
G36*
G01*
X65350000Y-66165000D02*
X65350000Y-64765000D01*
G75*
G02*
X65425000Y-64690000I75000J0D01*
G01*
X65575000Y-64690000D01*
G75*
G02*
X65650000Y-64765000I0J-75000D01*
G01*
X65650000Y-66165000D01*
G75*
G02*
X65575000Y-66240000I-75000J0D01*
G01*
X65425000Y-66240000D01*
G75*
G02*
X65350000Y-66165000I0J75000D01*
G01*
G37*
G36*
G01*
X64850000Y-66165000D02*
X64850000Y-64765000D01*
G75*
G02*
X64925000Y-64690000I75000J0D01*
G01*
X65075000Y-64690000D01*
G75*
G02*
X65150000Y-64765000I0J-75000D01*
G01*
X65150000Y-66165000D01*
G75*
G02*
X65075000Y-66240000I-75000J0D01*
G01*
X64925000Y-66240000D01*
G75*
G02*
X64850000Y-66165000I0J75000D01*
G01*
G37*
G36*
G01*
X64350000Y-66165000D02*
X64350000Y-64765000D01*
G75*
G02*
X64425000Y-64690000I75000J0D01*
G01*
X64575000Y-64690000D01*
G75*
G02*
X64650000Y-64765000I0J-75000D01*
G01*
X64650000Y-66165000D01*
G75*
G02*
X64575000Y-66240000I-75000J0D01*
G01*
X64425000Y-66240000D01*
G75*
G02*
X64350000Y-66165000I0J75000D01*
G01*
G37*
G36*
G01*
X63850000Y-66165000D02*
X63850000Y-64765000D01*
G75*
G02*
X63925000Y-64690000I75000J0D01*
G01*
X64075000Y-64690000D01*
G75*
G02*
X64150000Y-64765000I0J-75000D01*
G01*
X64150000Y-66165000D01*
G75*
G02*
X64075000Y-66240000I-75000J0D01*
G01*
X63925000Y-66240000D01*
G75*
G02*
X63850000Y-66165000I0J75000D01*
G01*
G37*
G36*
G01*
X63350000Y-66165000D02*
X63350000Y-64765000D01*
G75*
G02*
X63425000Y-64690000I75000J0D01*
G01*
X63575000Y-64690000D01*
G75*
G02*
X63650000Y-64765000I0J-75000D01*
G01*
X63650000Y-66165000D01*
G75*
G02*
X63575000Y-66240000I-75000J0D01*
G01*
X63425000Y-66240000D01*
G75*
G02*
X63350000Y-66165000I0J75000D01*
G01*
G37*
G36*
G01*
X62850000Y-66165000D02*
X62850000Y-64765000D01*
G75*
G02*
X62925000Y-64690000I75000J0D01*
G01*
X63075000Y-64690000D01*
G75*
G02*
X63150000Y-64765000I0J-75000D01*
G01*
X63150000Y-66165000D01*
G75*
G02*
X63075000Y-66240000I-75000J0D01*
G01*
X62925000Y-66240000D01*
G75*
G02*
X62850000Y-66165000I0J75000D01*
G01*
G37*
G36*
G01*
X62350000Y-66165000D02*
X62350000Y-64765000D01*
G75*
G02*
X62425000Y-64690000I75000J0D01*
G01*
X62575000Y-64690000D01*
G75*
G02*
X62650000Y-64765000I0J-75000D01*
G01*
X62650000Y-66165000D01*
G75*
G02*
X62575000Y-66240000I-75000J0D01*
G01*
X62425000Y-66240000D01*
G75*
G02*
X62350000Y-66165000I0J75000D01*
G01*
G37*
G36*
G01*
X61850000Y-66165000D02*
X61850000Y-64765000D01*
G75*
G02*
X61925000Y-64690000I75000J0D01*
G01*
X62075000Y-64690000D01*
G75*
G02*
X62150000Y-64765000I0J-75000D01*
G01*
X62150000Y-66165000D01*
G75*
G02*
X62075000Y-66240000I-75000J0D01*
G01*
X61925000Y-66240000D01*
G75*
G02*
X61850000Y-66165000I0J75000D01*
G01*
G37*
G36*
G01*
X61350000Y-66165000D02*
X61350000Y-64765000D01*
G75*
G02*
X61425000Y-64690000I75000J0D01*
G01*
X61575000Y-64690000D01*
G75*
G02*
X61650000Y-64765000I0J-75000D01*
G01*
X61650000Y-66165000D01*
G75*
G02*
X61575000Y-66240000I-75000J0D01*
G01*
X61425000Y-66240000D01*
G75*
G02*
X61350000Y-66165000I0J75000D01*
G01*
G37*
G36*
G01*
X60850000Y-66165000D02*
X60850000Y-64765000D01*
G75*
G02*
X60925000Y-64690000I75000J0D01*
G01*
X61075000Y-64690000D01*
G75*
G02*
X61150000Y-64765000I0J-75000D01*
G01*
X61150000Y-66165000D01*
G75*
G02*
X61075000Y-66240000I-75000J0D01*
G01*
X60925000Y-66240000D01*
G75*
G02*
X60850000Y-66165000I0J75000D01*
G01*
G37*
G36*
G01*
X60350000Y-66165000D02*
X60350000Y-64765000D01*
G75*
G02*
X60425000Y-64690000I75000J0D01*
G01*
X60575000Y-64690000D01*
G75*
G02*
X60650000Y-64765000I0J-75000D01*
G01*
X60650000Y-66165000D01*
G75*
G02*
X60575000Y-66240000I-75000J0D01*
G01*
X60425000Y-66240000D01*
G75*
G02*
X60350000Y-66165000I0J75000D01*
G01*
G37*
G36*
G01*
X59850000Y-66165000D02*
X59850000Y-64765000D01*
G75*
G02*
X59925000Y-64690000I75000J0D01*
G01*
X60075000Y-64690000D01*
G75*
G02*
X60150000Y-64765000I0J-75000D01*
G01*
X60150000Y-66165000D01*
G75*
G02*
X60075000Y-66240000I-75000J0D01*
G01*
X59925000Y-66240000D01*
G75*
G02*
X59850000Y-66165000I0J75000D01*
G01*
G37*
G36*
G01*
X59350000Y-66165000D02*
X59350000Y-64765000D01*
G75*
G02*
X59425000Y-64690000I75000J0D01*
G01*
X59575000Y-64690000D01*
G75*
G02*
X59650000Y-64765000I0J-75000D01*
G01*
X59650000Y-66165000D01*
G75*
G02*
X59575000Y-66240000I-75000J0D01*
G01*
X59425000Y-66240000D01*
G75*
G02*
X59350000Y-66165000I0J75000D01*
G01*
G37*
G36*
G01*
X56800000Y-63615000D02*
X56800000Y-63465000D01*
G75*
G02*
X56875000Y-63390000I75000J0D01*
G01*
X58275000Y-63390000D01*
G75*
G02*
X58350000Y-63465000I0J-75000D01*
G01*
X58350000Y-63615000D01*
G75*
G02*
X58275000Y-63690000I-75000J0D01*
G01*
X56875000Y-63690000D01*
G75*
G02*
X56800000Y-63615000I0J75000D01*
G01*
G37*
G36*
G01*
X56800000Y-63115000D02*
X56800000Y-62965000D01*
G75*
G02*
X56875000Y-62890000I75000J0D01*
G01*
X58275000Y-62890000D01*
G75*
G02*
X58350000Y-62965000I0J-75000D01*
G01*
X58350000Y-63115000D01*
G75*
G02*
X58275000Y-63190000I-75000J0D01*
G01*
X56875000Y-63190000D01*
G75*
G02*
X56800000Y-63115000I0J75000D01*
G01*
G37*
G36*
G01*
X56800000Y-62615000D02*
X56800000Y-62465000D01*
G75*
G02*
X56875000Y-62390000I75000J0D01*
G01*
X58275000Y-62390000D01*
G75*
G02*
X58350000Y-62465000I0J-75000D01*
G01*
X58350000Y-62615000D01*
G75*
G02*
X58275000Y-62690000I-75000J0D01*
G01*
X56875000Y-62690000D01*
G75*
G02*
X56800000Y-62615000I0J75000D01*
G01*
G37*
G36*
G01*
X56800000Y-62115000D02*
X56800000Y-61965000D01*
G75*
G02*
X56875000Y-61890000I75000J0D01*
G01*
X58275000Y-61890000D01*
G75*
G02*
X58350000Y-61965000I0J-75000D01*
G01*
X58350000Y-62115000D01*
G75*
G02*
X58275000Y-62190000I-75000J0D01*
G01*
X56875000Y-62190000D01*
G75*
G02*
X56800000Y-62115000I0J75000D01*
G01*
G37*
G36*
G01*
X56800000Y-61615000D02*
X56800000Y-61465000D01*
G75*
G02*
X56875000Y-61390000I75000J0D01*
G01*
X58275000Y-61390000D01*
G75*
G02*
X58350000Y-61465000I0J-75000D01*
G01*
X58350000Y-61615000D01*
G75*
G02*
X58275000Y-61690000I-75000J0D01*
G01*
X56875000Y-61690000D01*
G75*
G02*
X56800000Y-61615000I0J75000D01*
G01*
G37*
G36*
G01*
X56800000Y-61115000D02*
X56800000Y-60965000D01*
G75*
G02*
X56875000Y-60890000I75000J0D01*
G01*
X58275000Y-60890000D01*
G75*
G02*
X58350000Y-60965000I0J-75000D01*
G01*
X58350000Y-61115000D01*
G75*
G02*
X58275000Y-61190000I-75000J0D01*
G01*
X56875000Y-61190000D01*
G75*
G02*
X56800000Y-61115000I0J75000D01*
G01*
G37*
G36*
G01*
X56800000Y-60615000D02*
X56800000Y-60465000D01*
G75*
G02*
X56875000Y-60390000I75000J0D01*
G01*
X58275000Y-60390000D01*
G75*
G02*
X58350000Y-60465000I0J-75000D01*
G01*
X58350000Y-60615000D01*
G75*
G02*
X58275000Y-60690000I-75000J0D01*
G01*
X56875000Y-60690000D01*
G75*
G02*
X56800000Y-60615000I0J75000D01*
G01*
G37*
G36*
G01*
X56800000Y-60115000D02*
X56800000Y-59965000D01*
G75*
G02*
X56875000Y-59890000I75000J0D01*
G01*
X58275000Y-59890000D01*
G75*
G02*
X58350000Y-59965000I0J-75000D01*
G01*
X58350000Y-60115000D01*
G75*
G02*
X58275000Y-60190000I-75000J0D01*
G01*
X56875000Y-60190000D01*
G75*
G02*
X56800000Y-60115000I0J75000D01*
G01*
G37*
G36*
G01*
X56800000Y-59615000D02*
X56800000Y-59465000D01*
G75*
G02*
X56875000Y-59390000I75000J0D01*
G01*
X58275000Y-59390000D01*
G75*
G02*
X58350000Y-59465000I0J-75000D01*
G01*
X58350000Y-59615000D01*
G75*
G02*
X58275000Y-59690000I-75000J0D01*
G01*
X56875000Y-59690000D01*
G75*
G02*
X56800000Y-59615000I0J75000D01*
G01*
G37*
G36*
G01*
X56800000Y-59115000D02*
X56800000Y-58965000D01*
G75*
G02*
X56875000Y-58890000I75000J0D01*
G01*
X58275000Y-58890000D01*
G75*
G02*
X58350000Y-58965000I0J-75000D01*
G01*
X58350000Y-59115000D01*
G75*
G02*
X58275000Y-59190000I-75000J0D01*
G01*
X56875000Y-59190000D01*
G75*
G02*
X56800000Y-59115000I0J75000D01*
G01*
G37*
G36*
G01*
X56800000Y-58615000D02*
X56800000Y-58465000D01*
G75*
G02*
X56875000Y-58390000I75000J0D01*
G01*
X58275000Y-58390000D01*
G75*
G02*
X58350000Y-58465000I0J-75000D01*
G01*
X58350000Y-58615000D01*
G75*
G02*
X58275000Y-58690000I-75000J0D01*
G01*
X56875000Y-58690000D01*
G75*
G02*
X56800000Y-58615000I0J75000D01*
G01*
G37*
G36*
G01*
X56800000Y-58115000D02*
X56800000Y-57965000D01*
G75*
G02*
X56875000Y-57890000I75000J0D01*
G01*
X58275000Y-57890000D01*
G75*
G02*
X58350000Y-57965000I0J-75000D01*
G01*
X58350000Y-58115000D01*
G75*
G02*
X58275000Y-58190000I-75000J0D01*
G01*
X56875000Y-58190000D01*
G75*
G02*
X56800000Y-58115000I0J75000D01*
G01*
G37*
G36*
G01*
X56800000Y-57615000D02*
X56800000Y-57465000D01*
G75*
G02*
X56875000Y-57390000I75000J0D01*
G01*
X58275000Y-57390000D01*
G75*
G02*
X58350000Y-57465000I0J-75000D01*
G01*
X58350000Y-57615000D01*
G75*
G02*
X58275000Y-57690000I-75000J0D01*
G01*
X56875000Y-57690000D01*
G75*
G02*
X56800000Y-57615000I0J75000D01*
G01*
G37*
G36*
G01*
X56800000Y-57115000D02*
X56800000Y-56965000D01*
G75*
G02*
X56875000Y-56890000I75000J0D01*
G01*
X58275000Y-56890000D01*
G75*
G02*
X58350000Y-56965000I0J-75000D01*
G01*
X58350000Y-57115000D01*
G75*
G02*
X58275000Y-57190000I-75000J0D01*
G01*
X56875000Y-57190000D01*
G75*
G02*
X56800000Y-57115000I0J75000D01*
G01*
G37*
G36*
G01*
X56800000Y-56615000D02*
X56800000Y-56465000D01*
G75*
G02*
X56875000Y-56390000I75000J0D01*
G01*
X58275000Y-56390000D01*
G75*
G02*
X58350000Y-56465000I0J-75000D01*
G01*
X58350000Y-56615000D01*
G75*
G02*
X58275000Y-56690000I-75000J0D01*
G01*
X56875000Y-56690000D01*
G75*
G02*
X56800000Y-56615000I0J75000D01*
G01*
G37*
G36*
G01*
X56800000Y-56115000D02*
X56800000Y-55965000D01*
G75*
G02*
X56875000Y-55890000I75000J0D01*
G01*
X58275000Y-55890000D01*
G75*
G02*
X58350000Y-55965000I0J-75000D01*
G01*
X58350000Y-56115000D01*
G75*
G02*
X58275000Y-56190000I-75000J0D01*
G01*
X56875000Y-56190000D01*
G75*
G02*
X56800000Y-56115000I0J75000D01*
G01*
G37*
%TD*%
M02*
