%TF.GenerationSoftware,KiCad,Pcbnew,(6.0.1)*%
%TF.CreationDate,2022-02-13T11:40:04-05:00*%
%TF.ProjectId,STM32_Breakout,53544d33-325f-4427-9265-616b6f75742e,rev?*%
%TF.SameCoordinates,Original*%
%TF.FileFunction,Soldermask,Top*%
%TF.FilePolarity,Negative*%
%FSLAX46Y46*%
G04 Gerber Fmt 4.6, Leading zero omitted, Abs format (unit mm)*
G04 Created by KiCad (PCBNEW (6.0.1)) date 2022-02-13 11:40:04*
%MOMM*%
%LPD*%
G01*
G04 APERTURE LIST*
G04 Aperture macros list*
%AMRoundRect*
0 Rectangle with rounded corners*
0 $1 Rounding radius*
0 $2 $3 $4 $5 $6 $7 $8 $9 X,Y pos of 4 corners*
0 Add a 4 corners polygon primitive as box body*
4,1,4,$2,$3,$4,$5,$6,$7,$8,$9,$2,$3,0*
0 Add four circle primitives for the rounded corners*
1,1,$1+$1,$2,$3*
1,1,$1+$1,$4,$5*
1,1,$1+$1,$6,$7*
1,1,$1+$1,$8,$9*
0 Add four rect primitives between the rounded corners*
20,1,$1+$1,$2,$3,$4,$5,0*
20,1,$1+$1,$4,$5,$6,$7,0*
20,1,$1+$1,$6,$7,$8,$9,0*
20,1,$1+$1,$8,$9,$2,$3,0*%
G04 Aperture macros list end*
%ADD10C,0.000100*%
%ADD11RoundRect,0.008200X-0.976800X-0.196800X0.976800X-0.196800X0.976800X0.196800X-0.976800X0.196800X0*%
%ADD12RoundRect,0.008200X0.976800X0.196800X-0.976800X0.196800X-0.976800X-0.196800X0.976800X-0.196800X0*%
%ADD13C,2.625000*%
%ADD14R,2.625000X2.625000*%
%ADD15R,1.040000X1.020000*%
%ADD16R,1.020000X1.040000*%
%ADD17R,1.100000X1.000000*%
%ADD18R,1.000000X1.100000*%
%ADD19C,0.900000*%
%ADD20C,8.600000*%
%ADD21R,0.600000X1.200000*%
%ADD22RoundRect,0.091500X0.213500X-0.453500X0.213500X0.453500X-0.213500X0.453500X-0.213500X-0.453500X0*%
%ADD23RoundRect,0.237500X0.237500X-0.287500X0.237500X0.287500X-0.237500X0.287500X-0.237500X-0.287500X0*%
%ADD24RoundRect,0.237500X0.287500X0.237500X-0.287500X0.237500X-0.287500X-0.237500X0.287500X-0.237500X0*%
%ADD25RoundRect,0.237500X-0.237500X0.287500X-0.237500X-0.287500X0.237500X-0.287500X0.237500X0.287500X0*%
%ADD26RoundRect,0.237500X-0.287500X-0.237500X0.287500X-0.237500X0.287500X0.237500X-0.287500X0.237500X0*%
%ADD27R,1.700000X1.700000*%
%ADD28O,1.700000X1.700000*%
%ADD29R,1.800000X0.800000*%
%ADD30R,1.200000X1.800000*%
%ADD31R,1.400000X1.800000*%
%ADD32R,0.400000X1.350000*%
%ADD33C,1.450000*%
%ADD34R,1.500000X1.900000*%
%ADD35R,1.370000X1.370000*%
%ADD36C,1.370000*%
%ADD37R,1.525000X0.650000*%
%ADD38RoundRect,0.091500X-0.453500X-0.213500X0.453500X-0.213500X0.453500X0.213500X-0.453500X0.213500X0*%
%ADD39R,2.400000X0.740000*%
%ADD40C,2.000000*%
%ADD41RoundRect,0.012800X-0.637200X-0.147200X0.637200X-0.147200X0.637200X0.147200X-0.637200X0.147200X0*%
%ADD42R,1.590000X2.400000*%
%ADD43R,2.200000X1.200000*%
%ADD44R,2.200000X3.500000*%
%ADD45R,1.346200X0.355600*%
%ADD46R,0.355600X1.346200*%
%ADD47R,1.450000X0.450000*%
%ADD48R,2.108200X1.397000*%
%ADD49R,0.450000X1.450000*%
%ADD50R,1.350000X0.400000*%
%ADD51R,1.900000X1.500000*%
G04 APERTURE END LIST*
D10*
%TO.C,J4*%
X87320000Y-123410000D02*
X86020000Y-123410000D01*
X86020000Y-123410000D02*
X86020000Y-125510000D01*
X86020000Y-125510000D02*
X87320000Y-125510000D01*
X87320000Y-125510000D02*
X87350000Y-125509000D01*
X87350000Y-125509000D02*
X87380000Y-125507000D01*
X87380000Y-125507000D02*
X87410000Y-125503000D01*
X87410000Y-125503000D02*
X87440000Y-125497000D01*
X87440000Y-125497000D02*
X87469000Y-125490000D01*
X87469000Y-125490000D02*
X87498000Y-125482000D01*
X87498000Y-125482000D02*
X87526000Y-125472000D01*
X87526000Y-125472000D02*
X87554000Y-125460000D01*
X87554000Y-125460000D02*
X87581000Y-125447000D01*
X87581000Y-125447000D02*
X87608000Y-125433000D01*
X87608000Y-125433000D02*
X87633000Y-125417000D01*
X87633000Y-125417000D02*
X87658000Y-125400000D01*
X87658000Y-125400000D02*
X87682000Y-125382000D01*
X87682000Y-125382000D02*
X87705000Y-125362000D01*
X87705000Y-125362000D02*
X87727000Y-125342000D01*
X87727000Y-125342000D02*
X87747000Y-125320000D01*
X87747000Y-125320000D02*
X87767000Y-125297000D01*
X87767000Y-125297000D02*
X87785000Y-125273000D01*
X87785000Y-125273000D02*
X87802000Y-125248000D01*
X87802000Y-125248000D02*
X87818000Y-125222000D01*
X87818000Y-125222000D02*
X87832000Y-125196000D01*
X87832000Y-125196000D02*
X87845000Y-125169000D01*
X87845000Y-125169000D02*
X87857000Y-125141000D01*
X87857000Y-125141000D02*
X87867000Y-125113000D01*
X87867000Y-125113000D02*
X87875000Y-125084000D01*
X87875000Y-125084000D02*
X87882000Y-125055000D01*
X87882000Y-125055000D02*
X87888000Y-125025000D01*
X87888000Y-125025000D02*
X87892000Y-124995000D01*
X87892000Y-124995000D02*
X87894000Y-124965000D01*
X87894000Y-124965000D02*
X87895000Y-124935000D01*
X87895000Y-124935000D02*
X87895000Y-123985000D01*
X87895000Y-123985000D02*
X87894000Y-123955000D01*
X87894000Y-123955000D02*
X87892000Y-123925000D01*
X87892000Y-123925000D02*
X87888000Y-123895000D01*
X87888000Y-123895000D02*
X87882000Y-123865000D01*
X87882000Y-123865000D02*
X87875000Y-123836000D01*
X87875000Y-123836000D02*
X87867000Y-123807000D01*
X87867000Y-123807000D02*
X87857000Y-123779000D01*
X87857000Y-123779000D02*
X87845000Y-123751000D01*
X87845000Y-123751000D02*
X87832000Y-123724000D01*
X87832000Y-123724000D02*
X87818000Y-123698000D01*
X87818000Y-123698000D02*
X87802000Y-123672000D01*
X87802000Y-123672000D02*
X87785000Y-123647000D01*
X87785000Y-123647000D02*
X87767000Y-123623000D01*
X87767000Y-123623000D02*
X87747000Y-123600000D01*
X87747000Y-123600000D02*
X87727000Y-123578000D01*
X87727000Y-123578000D02*
X87705000Y-123558000D01*
X87705000Y-123558000D02*
X87682000Y-123538000D01*
X87682000Y-123538000D02*
X87658000Y-123520000D01*
X87658000Y-123520000D02*
X87633000Y-123503000D01*
X87633000Y-123503000D02*
X87608000Y-123487000D01*
X87608000Y-123487000D02*
X87581000Y-123473000D01*
X87581000Y-123473000D02*
X87554000Y-123460000D01*
X87554000Y-123460000D02*
X87526000Y-123448000D01*
X87526000Y-123448000D02*
X87498000Y-123438000D01*
X87498000Y-123438000D02*
X87469000Y-123430000D01*
X87469000Y-123430000D02*
X87440000Y-123423000D01*
X87440000Y-123423000D02*
X87410000Y-123417000D01*
X87410000Y-123417000D02*
X87380000Y-123413000D01*
X87380000Y-123413000D02*
X87350000Y-123411000D01*
X87350000Y-123411000D02*
X87320000Y-123410000D01*
X87320000Y-123410000D02*
X87320000Y-123410000D01*
G36*
X87350000Y-123411000D02*
G01*
X87380000Y-123413000D01*
X87410000Y-123417000D01*
X87440000Y-123423000D01*
X87469000Y-123430000D01*
X87498000Y-123438000D01*
X87526000Y-123448000D01*
X87554000Y-123460000D01*
X87581000Y-123473000D01*
X87608000Y-123487000D01*
X87633000Y-123503000D01*
X87658000Y-123520000D01*
X87682000Y-123538000D01*
X87705000Y-123558000D01*
X87727000Y-123578000D01*
X87747000Y-123600000D01*
X87767000Y-123623000D01*
X87785000Y-123647000D01*
X87802000Y-123672000D01*
X87818000Y-123698000D01*
X87832000Y-123724000D01*
X87845000Y-123751000D01*
X87857000Y-123779000D01*
X87867000Y-123807000D01*
X87875000Y-123836000D01*
X87882000Y-123865000D01*
X87888000Y-123895000D01*
X87892000Y-123925000D01*
X87894000Y-123955000D01*
X87895000Y-123985000D01*
X87895000Y-124935000D01*
X87894000Y-124965000D01*
X87892000Y-124995000D01*
X87888000Y-125025000D01*
X87882000Y-125055000D01*
X87875000Y-125084000D01*
X87867000Y-125113000D01*
X87857000Y-125141000D01*
X87845000Y-125169000D01*
X87832000Y-125196000D01*
X87818000Y-125222000D01*
X87802000Y-125248000D01*
X87785000Y-125273000D01*
X87767000Y-125297000D01*
X87747000Y-125320000D01*
X87727000Y-125342000D01*
X87705000Y-125362000D01*
X87682000Y-125382000D01*
X87658000Y-125400000D01*
X87633000Y-125417000D01*
X87608000Y-125433000D01*
X87581000Y-125447000D01*
X87554000Y-125460000D01*
X87526000Y-125472000D01*
X87498000Y-125482000D01*
X87469000Y-125490000D01*
X87440000Y-125497000D01*
X87410000Y-125503000D01*
X87380000Y-125507000D01*
X87350000Y-125509000D01*
X87320000Y-125510000D01*
X86020000Y-125510000D01*
X86020000Y-123410000D01*
X87320000Y-123410000D01*
X87350000Y-123411000D01*
G37*
X87350000Y-123411000D02*
X87380000Y-123413000D01*
X87410000Y-123417000D01*
X87440000Y-123423000D01*
X87469000Y-123430000D01*
X87498000Y-123438000D01*
X87526000Y-123448000D01*
X87554000Y-123460000D01*
X87581000Y-123473000D01*
X87608000Y-123487000D01*
X87633000Y-123503000D01*
X87658000Y-123520000D01*
X87682000Y-123538000D01*
X87705000Y-123558000D01*
X87727000Y-123578000D01*
X87747000Y-123600000D01*
X87767000Y-123623000D01*
X87785000Y-123647000D01*
X87802000Y-123672000D01*
X87818000Y-123698000D01*
X87832000Y-123724000D01*
X87845000Y-123751000D01*
X87857000Y-123779000D01*
X87867000Y-123807000D01*
X87875000Y-123836000D01*
X87882000Y-123865000D01*
X87888000Y-123895000D01*
X87892000Y-123925000D01*
X87894000Y-123955000D01*
X87895000Y-123985000D01*
X87895000Y-124935000D01*
X87894000Y-124965000D01*
X87892000Y-124995000D01*
X87888000Y-125025000D01*
X87882000Y-125055000D01*
X87875000Y-125084000D01*
X87867000Y-125113000D01*
X87857000Y-125141000D01*
X87845000Y-125169000D01*
X87832000Y-125196000D01*
X87818000Y-125222000D01*
X87802000Y-125248000D01*
X87785000Y-125273000D01*
X87767000Y-125297000D01*
X87747000Y-125320000D01*
X87727000Y-125342000D01*
X87705000Y-125362000D01*
X87682000Y-125382000D01*
X87658000Y-125400000D01*
X87633000Y-125417000D01*
X87608000Y-125433000D01*
X87581000Y-125447000D01*
X87554000Y-125460000D01*
X87526000Y-125472000D01*
X87498000Y-125482000D01*
X87469000Y-125490000D01*
X87440000Y-125497000D01*
X87410000Y-125503000D01*
X87380000Y-125507000D01*
X87350000Y-125509000D01*
X87320000Y-125510000D01*
X86020000Y-125510000D01*
X86020000Y-123410000D01*
X87320000Y-123410000D01*
X87350000Y-123411000D01*
X80320000Y-123410000D02*
X81620000Y-123410000D01*
X81620000Y-123410000D02*
X81620000Y-125510000D01*
X81620000Y-125510000D02*
X80320000Y-125510000D01*
X80320000Y-125510000D02*
X80290000Y-125509000D01*
X80290000Y-125509000D02*
X80260000Y-125507000D01*
X80260000Y-125507000D02*
X80230000Y-125503000D01*
X80230000Y-125503000D02*
X80200000Y-125497000D01*
X80200000Y-125497000D02*
X80171000Y-125490000D01*
X80171000Y-125490000D02*
X80142000Y-125482000D01*
X80142000Y-125482000D02*
X80114000Y-125472000D01*
X80114000Y-125472000D02*
X80086000Y-125460000D01*
X80086000Y-125460000D02*
X80059000Y-125447000D01*
X80059000Y-125447000D02*
X80032000Y-125433000D01*
X80032000Y-125433000D02*
X80007000Y-125417000D01*
X80007000Y-125417000D02*
X79982000Y-125400000D01*
X79982000Y-125400000D02*
X79958000Y-125382000D01*
X79958000Y-125382000D02*
X79935000Y-125362000D01*
X79935000Y-125362000D02*
X79913000Y-125342000D01*
X79913000Y-125342000D02*
X79893000Y-125320000D01*
X79893000Y-125320000D02*
X79873000Y-125297000D01*
X79873000Y-125297000D02*
X79855000Y-125273000D01*
X79855000Y-125273000D02*
X79838000Y-125248000D01*
X79838000Y-125248000D02*
X79822000Y-125222000D01*
X79822000Y-125222000D02*
X79808000Y-125196000D01*
X79808000Y-125196000D02*
X79795000Y-125169000D01*
X79795000Y-125169000D02*
X79783000Y-125141000D01*
X79783000Y-125141000D02*
X79773000Y-125113000D01*
X79773000Y-125113000D02*
X79765000Y-125084000D01*
X79765000Y-125084000D02*
X79758000Y-125055000D01*
X79758000Y-125055000D02*
X79752000Y-125025000D01*
X79752000Y-125025000D02*
X79748000Y-124995000D01*
X79748000Y-124995000D02*
X79746000Y-124965000D01*
X79746000Y-124965000D02*
X79745000Y-124935000D01*
X79745000Y-124935000D02*
X79745000Y-123985000D01*
X79745000Y-123985000D02*
X79746000Y-123955000D01*
X79746000Y-123955000D02*
X79748000Y-123925000D01*
X79748000Y-123925000D02*
X79752000Y-123895000D01*
X79752000Y-123895000D02*
X79758000Y-123865000D01*
X79758000Y-123865000D02*
X79765000Y-123836000D01*
X79765000Y-123836000D02*
X79773000Y-123807000D01*
X79773000Y-123807000D02*
X79783000Y-123779000D01*
X79783000Y-123779000D02*
X79795000Y-123751000D01*
X79795000Y-123751000D02*
X79808000Y-123724000D01*
X79808000Y-123724000D02*
X79822000Y-123698000D01*
X79822000Y-123698000D02*
X79838000Y-123672000D01*
X79838000Y-123672000D02*
X79855000Y-123647000D01*
X79855000Y-123647000D02*
X79873000Y-123623000D01*
X79873000Y-123623000D02*
X79893000Y-123600000D01*
X79893000Y-123600000D02*
X79913000Y-123578000D01*
X79913000Y-123578000D02*
X79935000Y-123558000D01*
X79935000Y-123558000D02*
X79958000Y-123538000D01*
X79958000Y-123538000D02*
X79982000Y-123520000D01*
X79982000Y-123520000D02*
X80007000Y-123503000D01*
X80007000Y-123503000D02*
X80032000Y-123487000D01*
X80032000Y-123487000D02*
X80059000Y-123473000D01*
X80059000Y-123473000D02*
X80086000Y-123460000D01*
X80086000Y-123460000D02*
X80114000Y-123448000D01*
X80114000Y-123448000D02*
X80142000Y-123438000D01*
X80142000Y-123438000D02*
X80171000Y-123430000D01*
X80171000Y-123430000D02*
X80200000Y-123423000D01*
X80200000Y-123423000D02*
X80230000Y-123417000D01*
X80230000Y-123417000D02*
X80260000Y-123413000D01*
X80260000Y-123413000D02*
X80290000Y-123411000D01*
X80290000Y-123411000D02*
X80320000Y-123410000D01*
X80320000Y-123410000D02*
X80320000Y-123410000D01*
G36*
X81620000Y-125510000D02*
G01*
X80320000Y-125510000D01*
X80290000Y-125509000D01*
X80260000Y-125507000D01*
X80230000Y-125503000D01*
X80200000Y-125497000D01*
X80171000Y-125490000D01*
X80142000Y-125482000D01*
X80114000Y-125472000D01*
X80086000Y-125460000D01*
X80059000Y-125447000D01*
X80032000Y-125433000D01*
X80007000Y-125417000D01*
X79982000Y-125400000D01*
X79958000Y-125382000D01*
X79935000Y-125362000D01*
X79913000Y-125342000D01*
X79893000Y-125320000D01*
X79873000Y-125297000D01*
X79855000Y-125273000D01*
X79838000Y-125248000D01*
X79822000Y-125222000D01*
X79808000Y-125196000D01*
X79795000Y-125169000D01*
X79783000Y-125141000D01*
X79773000Y-125113000D01*
X79765000Y-125084000D01*
X79758000Y-125055000D01*
X79752000Y-125025000D01*
X79748000Y-124995000D01*
X79746000Y-124965000D01*
X79745000Y-124935000D01*
X79745000Y-123985000D01*
X79746000Y-123955000D01*
X79748000Y-123925000D01*
X79752000Y-123895000D01*
X79758000Y-123865000D01*
X79765000Y-123836000D01*
X79773000Y-123807000D01*
X79783000Y-123779000D01*
X79795000Y-123751000D01*
X79808000Y-123724000D01*
X79822000Y-123698000D01*
X79838000Y-123672000D01*
X79855000Y-123647000D01*
X79873000Y-123623000D01*
X79893000Y-123600000D01*
X79913000Y-123578000D01*
X79935000Y-123558000D01*
X79958000Y-123538000D01*
X79982000Y-123520000D01*
X80007000Y-123503000D01*
X80032000Y-123487000D01*
X80059000Y-123473000D01*
X80086000Y-123460000D01*
X80114000Y-123448000D01*
X80142000Y-123438000D01*
X80171000Y-123430000D01*
X80200000Y-123423000D01*
X80230000Y-123417000D01*
X80260000Y-123413000D01*
X80290000Y-123411000D01*
X80320000Y-123410000D01*
X81620000Y-123410000D01*
X81620000Y-125510000D01*
G37*
X81620000Y-125510000D02*
X80320000Y-125510000D01*
X80290000Y-125509000D01*
X80260000Y-125507000D01*
X80230000Y-125503000D01*
X80200000Y-125497000D01*
X80171000Y-125490000D01*
X80142000Y-125482000D01*
X80114000Y-125472000D01*
X80086000Y-125460000D01*
X80059000Y-125447000D01*
X80032000Y-125433000D01*
X80007000Y-125417000D01*
X79982000Y-125400000D01*
X79958000Y-125382000D01*
X79935000Y-125362000D01*
X79913000Y-125342000D01*
X79893000Y-125320000D01*
X79873000Y-125297000D01*
X79855000Y-125273000D01*
X79838000Y-125248000D01*
X79822000Y-125222000D01*
X79808000Y-125196000D01*
X79795000Y-125169000D01*
X79783000Y-125141000D01*
X79773000Y-125113000D01*
X79765000Y-125084000D01*
X79758000Y-125055000D01*
X79752000Y-125025000D01*
X79748000Y-124995000D01*
X79746000Y-124965000D01*
X79745000Y-124935000D01*
X79745000Y-123985000D01*
X79746000Y-123955000D01*
X79748000Y-123925000D01*
X79752000Y-123895000D01*
X79758000Y-123865000D01*
X79765000Y-123836000D01*
X79773000Y-123807000D01*
X79783000Y-123779000D01*
X79795000Y-123751000D01*
X79808000Y-123724000D01*
X79822000Y-123698000D01*
X79838000Y-123672000D01*
X79855000Y-123647000D01*
X79873000Y-123623000D01*
X79893000Y-123600000D01*
X79913000Y-123578000D01*
X79935000Y-123558000D01*
X79958000Y-123538000D01*
X79982000Y-123520000D01*
X80007000Y-123503000D01*
X80032000Y-123487000D01*
X80059000Y-123473000D01*
X80086000Y-123460000D01*
X80114000Y-123448000D01*
X80142000Y-123438000D01*
X80171000Y-123430000D01*
X80200000Y-123423000D01*
X80230000Y-123417000D01*
X80260000Y-123413000D01*
X80290000Y-123411000D01*
X80320000Y-123410000D01*
X81620000Y-123410000D01*
X81620000Y-125510000D01*
%TO.C,J8*%
X131030000Y-96480000D02*
X131030000Y-95180000D01*
X131030000Y-95180000D02*
X133130000Y-95180000D01*
X133130000Y-95180000D02*
X133130000Y-96480000D01*
X133130000Y-96480000D02*
X133129000Y-96510000D01*
X133129000Y-96510000D02*
X133127000Y-96540000D01*
X133127000Y-96540000D02*
X133123000Y-96570000D01*
X133123000Y-96570000D02*
X133117000Y-96600000D01*
X133117000Y-96600000D02*
X133110000Y-96629000D01*
X133110000Y-96629000D02*
X133102000Y-96658000D01*
X133102000Y-96658000D02*
X133092000Y-96686000D01*
X133092000Y-96686000D02*
X133080000Y-96714000D01*
X133080000Y-96714000D02*
X133067000Y-96741000D01*
X133067000Y-96741000D02*
X133053000Y-96768000D01*
X133053000Y-96768000D02*
X133037000Y-96793000D01*
X133037000Y-96793000D02*
X133020000Y-96818000D01*
X133020000Y-96818000D02*
X133002000Y-96842000D01*
X133002000Y-96842000D02*
X132982000Y-96865000D01*
X132982000Y-96865000D02*
X132962000Y-96887000D01*
X132962000Y-96887000D02*
X132940000Y-96907000D01*
X132940000Y-96907000D02*
X132917000Y-96927000D01*
X132917000Y-96927000D02*
X132893000Y-96945000D01*
X132893000Y-96945000D02*
X132868000Y-96962000D01*
X132868000Y-96962000D02*
X132842000Y-96978000D01*
X132842000Y-96978000D02*
X132816000Y-96992000D01*
X132816000Y-96992000D02*
X132789000Y-97005000D01*
X132789000Y-97005000D02*
X132761000Y-97017000D01*
X132761000Y-97017000D02*
X132733000Y-97027000D01*
X132733000Y-97027000D02*
X132704000Y-97035000D01*
X132704000Y-97035000D02*
X132675000Y-97042000D01*
X132675000Y-97042000D02*
X132645000Y-97048000D01*
X132645000Y-97048000D02*
X132615000Y-97052000D01*
X132615000Y-97052000D02*
X132585000Y-97054000D01*
X132585000Y-97054000D02*
X132555000Y-97055000D01*
X132555000Y-97055000D02*
X131605000Y-97055000D01*
X131605000Y-97055000D02*
X131575000Y-97054000D01*
X131575000Y-97054000D02*
X131545000Y-97052000D01*
X131545000Y-97052000D02*
X131515000Y-97048000D01*
X131515000Y-97048000D02*
X131485000Y-97042000D01*
X131485000Y-97042000D02*
X131456000Y-97035000D01*
X131456000Y-97035000D02*
X131427000Y-97027000D01*
X131427000Y-97027000D02*
X131399000Y-97017000D01*
X131399000Y-97017000D02*
X131371000Y-97005000D01*
X131371000Y-97005000D02*
X131344000Y-96992000D01*
X131344000Y-96992000D02*
X131318000Y-96978000D01*
X131318000Y-96978000D02*
X131292000Y-96962000D01*
X131292000Y-96962000D02*
X131267000Y-96945000D01*
X131267000Y-96945000D02*
X131243000Y-96927000D01*
X131243000Y-96927000D02*
X131220000Y-96907000D01*
X131220000Y-96907000D02*
X131198000Y-96887000D01*
X131198000Y-96887000D02*
X131178000Y-96865000D01*
X131178000Y-96865000D02*
X131158000Y-96842000D01*
X131158000Y-96842000D02*
X131140000Y-96818000D01*
X131140000Y-96818000D02*
X131123000Y-96793000D01*
X131123000Y-96793000D02*
X131107000Y-96768000D01*
X131107000Y-96768000D02*
X131093000Y-96741000D01*
X131093000Y-96741000D02*
X131080000Y-96714000D01*
X131080000Y-96714000D02*
X131068000Y-96686000D01*
X131068000Y-96686000D02*
X131058000Y-96658000D01*
X131058000Y-96658000D02*
X131050000Y-96629000D01*
X131050000Y-96629000D02*
X131043000Y-96600000D01*
X131043000Y-96600000D02*
X131037000Y-96570000D01*
X131037000Y-96570000D02*
X131033000Y-96540000D01*
X131033000Y-96540000D02*
X131031000Y-96510000D01*
X131031000Y-96510000D02*
X131030000Y-96480000D01*
X131030000Y-96480000D02*
X131030000Y-96480000D01*
G36*
X133130000Y-96480000D02*
G01*
X133129000Y-96510000D01*
X133127000Y-96540000D01*
X133123000Y-96570000D01*
X133117000Y-96600000D01*
X133110000Y-96629000D01*
X133102000Y-96658000D01*
X133092000Y-96686000D01*
X133080000Y-96714000D01*
X133067000Y-96741000D01*
X133053000Y-96768000D01*
X133037000Y-96793000D01*
X133020000Y-96818000D01*
X133002000Y-96842000D01*
X132982000Y-96865000D01*
X132962000Y-96887000D01*
X132940000Y-96907000D01*
X132917000Y-96927000D01*
X132893000Y-96945000D01*
X132868000Y-96962000D01*
X132842000Y-96978000D01*
X132816000Y-96992000D01*
X132789000Y-97005000D01*
X132761000Y-97017000D01*
X132733000Y-97027000D01*
X132704000Y-97035000D01*
X132675000Y-97042000D01*
X132645000Y-97048000D01*
X132615000Y-97052000D01*
X132585000Y-97054000D01*
X132555000Y-97055000D01*
X131605000Y-97055000D01*
X131575000Y-97054000D01*
X131545000Y-97052000D01*
X131515000Y-97048000D01*
X131485000Y-97042000D01*
X131456000Y-97035000D01*
X131427000Y-97027000D01*
X131399000Y-97017000D01*
X131371000Y-97005000D01*
X131344000Y-96992000D01*
X131318000Y-96978000D01*
X131292000Y-96962000D01*
X131267000Y-96945000D01*
X131243000Y-96927000D01*
X131220000Y-96907000D01*
X131198000Y-96887000D01*
X131178000Y-96865000D01*
X131158000Y-96842000D01*
X131140000Y-96818000D01*
X131123000Y-96793000D01*
X131107000Y-96768000D01*
X131093000Y-96741000D01*
X131080000Y-96714000D01*
X131068000Y-96686000D01*
X131058000Y-96658000D01*
X131050000Y-96629000D01*
X131043000Y-96600000D01*
X131037000Y-96570000D01*
X131033000Y-96540000D01*
X131031000Y-96510000D01*
X131030000Y-96480000D01*
X131030000Y-95180000D01*
X133130000Y-95180000D01*
X133130000Y-96480000D01*
G37*
X133130000Y-96480000D02*
X133129000Y-96510000D01*
X133127000Y-96540000D01*
X133123000Y-96570000D01*
X133117000Y-96600000D01*
X133110000Y-96629000D01*
X133102000Y-96658000D01*
X133092000Y-96686000D01*
X133080000Y-96714000D01*
X133067000Y-96741000D01*
X133053000Y-96768000D01*
X133037000Y-96793000D01*
X133020000Y-96818000D01*
X133002000Y-96842000D01*
X132982000Y-96865000D01*
X132962000Y-96887000D01*
X132940000Y-96907000D01*
X132917000Y-96927000D01*
X132893000Y-96945000D01*
X132868000Y-96962000D01*
X132842000Y-96978000D01*
X132816000Y-96992000D01*
X132789000Y-97005000D01*
X132761000Y-97017000D01*
X132733000Y-97027000D01*
X132704000Y-97035000D01*
X132675000Y-97042000D01*
X132645000Y-97048000D01*
X132615000Y-97052000D01*
X132585000Y-97054000D01*
X132555000Y-97055000D01*
X131605000Y-97055000D01*
X131575000Y-97054000D01*
X131545000Y-97052000D01*
X131515000Y-97048000D01*
X131485000Y-97042000D01*
X131456000Y-97035000D01*
X131427000Y-97027000D01*
X131399000Y-97017000D01*
X131371000Y-97005000D01*
X131344000Y-96992000D01*
X131318000Y-96978000D01*
X131292000Y-96962000D01*
X131267000Y-96945000D01*
X131243000Y-96927000D01*
X131220000Y-96907000D01*
X131198000Y-96887000D01*
X131178000Y-96865000D01*
X131158000Y-96842000D01*
X131140000Y-96818000D01*
X131123000Y-96793000D01*
X131107000Y-96768000D01*
X131093000Y-96741000D01*
X131080000Y-96714000D01*
X131068000Y-96686000D01*
X131058000Y-96658000D01*
X131050000Y-96629000D01*
X131043000Y-96600000D01*
X131037000Y-96570000D01*
X131033000Y-96540000D01*
X131031000Y-96510000D01*
X131030000Y-96480000D01*
X131030000Y-95180000D01*
X133130000Y-95180000D01*
X133130000Y-96480000D01*
X131030000Y-89480000D02*
X131030000Y-90780000D01*
X131030000Y-90780000D02*
X133130000Y-90780000D01*
X133130000Y-90780000D02*
X133130000Y-89480000D01*
X133130000Y-89480000D02*
X133129000Y-89450000D01*
X133129000Y-89450000D02*
X133127000Y-89420000D01*
X133127000Y-89420000D02*
X133123000Y-89390000D01*
X133123000Y-89390000D02*
X133117000Y-89360000D01*
X133117000Y-89360000D02*
X133110000Y-89331000D01*
X133110000Y-89331000D02*
X133102000Y-89302000D01*
X133102000Y-89302000D02*
X133092000Y-89274000D01*
X133092000Y-89274000D02*
X133080000Y-89246000D01*
X133080000Y-89246000D02*
X133067000Y-89219000D01*
X133067000Y-89219000D02*
X133053000Y-89192000D01*
X133053000Y-89192000D02*
X133037000Y-89167000D01*
X133037000Y-89167000D02*
X133020000Y-89142000D01*
X133020000Y-89142000D02*
X133002000Y-89118000D01*
X133002000Y-89118000D02*
X132982000Y-89095000D01*
X132982000Y-89095000D02*
X132962000Y-89073000D01*
X132962000Y-89073000D02*
X132940000Y-89053000D01*
X132940000Y-89053000D02*
X132917000Y-89033000D01*
X132917000Y-89033000D02*
X132893000Y-89015000D01*
X132893000Y-89015000D02*
X132868000Y-88998000D01*
X132868000Y-88998000D02*
X132842000Y-88982000D01*
X132842000Y-88982000D02*
X132816000Y-88968000D01*
X132816000Y-88968000D02*
X132789000Y-88955000D01*
X132789000Y-88955000D02*
X132761000Y-88943000D01*
X132761000Y-88943000D02*
X132733000Y-88933000D01*
X132733000Y-88933000D02*
X132704000Y-88925000D01*
X132704000Y-88925000D02*
X132675000Y-88918000D01*
X132675000Y-88918000D02*
X132645000Y-88912000D01*
X132645000Y-88912000D02*
X132615000Y-88908000D01*
X132615000Y-88908000D02*
X132585000Y-88906000D01*
X132585000Y-88906000D02*
X132555000Y-88905000D01*
X132555000Y-88905000D02*
X131605000Y-88905000D01*
X131605000Y-88905000D02*
X131575000Y-88906000D01*
X131575000Y-88906000D02*
X131545000Y-88908000D01*
X131545000Y-88908000D02*
X131515000Y-88912000D01*
X131515000Y-88912000D02*
X131485000Y-88918000D01*
X131485000Y-88918000D02*
X131456000Y-88925000D01*
X131456000Y-88925000D02*
X131427000Y-88933000D01*
X131427000Y-88933000D02*
X131399000Y-88943000D01*
X131399000Y-88943000D02*
X131371000Y-88955000D01*
X131371000Y-88955000D02*
X131344000Y-88968000D01*
X131344000Y-88968000D02*
X131318000Y-88982000D01*
X131318000Y-88982000D02*
X131292000Y-88998000D01*
X131292000Y-88998000D02*
X131267000Y-89015000D01*
X131267000Y-89015000D02*
X131243000Y-89033000D01*
X131243000Y-89033000D02*
X131220000Y-89053000D01*
X131220000Y-89053000D02*
X131198000Y-89073000D01*
X131198000Y-89073000D02*
X131178000Y-89095000D01*
X131178000Y-89095000D02*
X131158000Y-89118000D01*
X131158000Y-89118000D02*
X131140000Y-89142000D01*
X131140000Y-89142000D02*
X131123000Y-89167000D01*
X131123000Y-89167000D02*
X131107000Y-89192000D01*
X131107000Y-89192000D02*
X131093000Y-89219000D01*
X131093000Y-89219000D02*
X131080000Y-89246000D01*
X131080000Y-89246000D02*
X131068000Y-89274000D01*
X131068000Y-89274000D02*
X131058000Y-89302000D01*
X131058000Y-89302000D02*
X131050000Y-89331000D01*
X131050000Y-89331000D02*
X131043000Y-89360000D01*
X131043000Y-89360000D02*
X131037000Y-89390000D01*
X131037000Y-89390000D02*
X131033000Y-89420000D01*
X131033000Y-89420000D02*
X131031000Y-89450000D01*
X131031000Y-89450000D02*
X131030000Y-89480000D01*
X131030000Y-89480000D02*
X131030000Y-89480000D01*
G36*
X132585000Y-88906000D02*
G01*
X132615000Y-88908000D01*
X132645000Y-88912000D01*
X132675000Y-88918000D01*
X132704000Y-88925000D01*
X132733000Y-88933000D01*
X132761000Y-88943000D01*
X132789000Y-88955000D01*
X132816000Y-88968000D01*
X132842000Y-88982000D01*
X132868000Y-88998000D01*
X132893000Y-89015000D01*
X132917000Y-89033000D01*
X132940000Y-89053000D01*
X132962000Y-89073000D01*
X132982000Y-89095000D01*
X133002000Y-89118000D01*
X133020000Y-89142000D01*
X133037000Y-89167000D01*
X133053000Y-89192000D01*
X133067000Y-89219000D01*
X133080000Y-89246000D01*
X133092000Y-89274000D01*
X133102000Y-89302000D01*
X133110000Y-89331000D01*
X133117000Y-89360000D01*
X133123000Y-89390000D01*
X133127000Y-89420000D01*
X133129000Y-89450000D01*
X133130000Y-89480000D01*
X133130000Y-90780000D01*
X131030000Y-90780000D01*
X131030000Y-89480000D01*
X131031000Y-89450000D01*
X131033000Y-89420000D01*
X131037000Y-89390000D01*
X131043000Y-89360000D01*
X131050000Y-89331000D01*
X131058000Y-89302000D01*
X131068000Y-89274000D01*
X131080000Y-89246000D01*
X131093000Y-89219000D01*
X131107000Y-89192000D01*
X131123000Y-89167000D01*
X131140000Y-89142000D01*
X131158000Y-89118000D01*
X131178000Y-89095000D01*
X131198000Y-89073000D01*
X131220000Y-89053000D01*
X131243000Y-89033000D01*
X131267000Y-89015000D01*
X131292000Y-88998000D01*
X131318000Y-88982000D01*
X131344000Y-88968000D01*
X131371000Y-88955000D01*
X131399000Y-88943000D01*
X131427000Y-88933000D01*
X131456000Y-88925000D01*
X131485000Y-88918000D01*
X131515000Y-88912000D01*
X131545000Y-88908000D01*
X131575000Y-88906000D01*
X131605000Y-88905000D01*
X132555000Y-88905000D01*
X132585000Y-88906000D01*
G37*
X132585000Y-88906000D02*
X132615000Y-88908000D01*
X132645000Y-88912000D01*
X132675000Y-88918000D01*
X132704000Y-88925000D01*
X132733000Y-88933000D01*
X132761000Y-88943000D01*
X132789000Y-88955000D01*
X132816000Y-88968000D01*
X132842000Y-88982000D01*
X132868000Y-88998000D01*
X132893000Y-89015000D01*
X132917000Y-89033000D01*
X132940000Y-89053000D01*
X132962000Y-89073000D01*
X132982000Y-89095000D01*
X133002000Y-89118000D01*
X133020000Y-89142000D01*
X133037000Y-89167000D01*
X133053000Y-89192000D01*
X133067000Y-89219000D01*
X133080000Y-89246000D01*
X133092000Y-89274000D01*
X133102000Y-89302000D01*
X133110000Y-89331000D01*
X133117000Y-89360000D01*
X133123000Y-89390000D01*
X133127000Y-89420000D01*
X133129000Y-89450000D01*
X133130000Y-89480000D01*
X133130000Y-90780000D01*
X131030000Y-90780000D01*
X131030000Y-89480000D01*
X131031000Y-89450000D01*
X131033000Y-89420000D01*
X131037000Y-89390000D01*
X131043000Y-89360000D01*
X131050000Y-89331000D01*
X131058000Y-89302000D01*
X131068000Y-89274000D01*
X131080000Y-89246000D01*
X131093000Y-89219000D01*
X131107000Y-89192000D01*
X131123000Y-89167000D01*
X131140000Y-89142000D01*
X131158000Y-89118000D01*
X131178000Y-89095000D01*
X131198000Y-89073000D01*
X131220000Y-89053000D01*
X131243000Y-89033000D01*
X131267000Y-89015000D01*
X131292000Y-88998000D01*
X131318000Y-88982000D01*
X131344000Y-88968000D01*
X131371000Y-88955000D01*
X131399000Y-88943000D01*
X131427000Y-88933000D01*
X131456000Y-88925000D01*
X131485000Y-88918000D01*
X131515000Y-88912000D01*
X131545000Y-88908000D01*
X131575000Y-88906000D01*
X131605000Y-88905000D01*
X132555000Y-88905000D01*
X132585000Y-88906000D01*
%TD*%
D11*
%TO.C,U7*%
X121990000Y-119062500D03*
X121990000Y-119697500D03*
X121990000Y-120332500D03*
X121990000Y-120967500D03*
X121990000Y-121602500D03*
X121990000Y-122237500D03*
X121990000Y-122872500D03*
X121990000Y-123507500D03*
X121990000Y-124142500D03*
X121990000Y-124777500D03*
D12*
X126930000Y-124777500D03*
X126930000Y-124142500D03*
X126930000Y-123507500D03*
X126930000Y-122872500D03*
X126930000Y-122237500D03*
X126930000Y-121602500D03*
X126930000Y-120967500D03*
X126930000Y-120332500D03*
X126930000Y-119697500D03*
X126930000Y-119062500D03*
%TD*%
D13*
%TO.C,S1*%
X60579000Y-103198000D03*
D14*
X65179000Y-103198000D03*
%TD*%
D15*
%TO.C,R32*%
X130583000Y-98171000D03*
X132053000Y-98171000D03*
%TD*%
%TO.C,R31*%
X141805000Y-99695000D03*
X140335000Y-99695000D03*
%TD*%
%TO.C,R30*%
X141451000Y-104013000D03*
X139981000Y-104013000D03*
%TD*%
%TO.C,R29*%
X124179000Y-104013000D03*
X122709000Y-104013000D03*
%TD*%
%TO.C,R28*%
X124152000Y-101600000D03*
X122682000Y-101600000D03*
%TD*%
%TO.C,R27*%
X116359000Y-118364000D03*
X117829000Y-118364000D03*
%TD*%
%TO.C,R24*%
X60379000Y-109093000D03*
X61849000Y-109093000D03*
%TD*%
%TO.C,R23*%
X130710000Y-129286000D03*
X132180000Y-129286000D03*
%TD*%
D16*
%TO.C,R9*%
X111170250Y-77524000D03*
X111170250Y-78994000D03*
%TD*%
D17*
%TO.C,C34*%
X122760000Y-97028000D03*
X124460000Y-97028000D03*
%TD*%
%TO.C,C33*%
X124509000Y-95377000D03*
X122809000Y-95377000D03*
%TD*%
D18*
%TO.C,C32*%
X122682000Y-127508000D03*
X122682000Y-129208000D03*
%TD*%
%TO.C,C31*%
X129794000Y-121031000D03*
X129794000Y-119331000D03*
%TD*%
%TO.C,C30*%
X131572000Y-119331000D03*
X131572000Y-121031000D03*
%TD*%
%TO.C,C29*%
X129794000Y-122936000D03*
X129794000Y-124636000D03*
%TD*%
D17*
%TO.C,C22*%
X86790000Y-93726000D03*
X85090000Y-93726000D03*
%TD*%
D18*
%TO.C,C19*%
X115316000Y-97624000D03*
X115316000Y-95924000D03*
%TD*%
D17*
%TO.C,C18*%
X77519000Y-112903000D03*
X75819000Y-112903000D03*
%TD*%
%TO.C,C17*%
X77558000Y-114808000D03*
X75858000Y-114808000D03*
%TD*%
D18*
%TO.C,C16*%
X110871000Y-84416000D03*
X110871000Y-82716000D03*
%TD*%
D17*
%TO.C,C15*%
X89203000Y-85979000D03*
X87503000Y-85979000D03*
%TD*%
D18*
%TO.C,C14*%
X108712000Y-84289000D03*
X108712000Y-82589000D03*
%TD*%
%TO.C,C13*%
X112522000Y-97624000D03*
X112522000Y-95924000D03*
%TD*%
%TO.C,C12*%
X110871000Y-109904000D03*
X110871000Y-108204000D03*
%TD*%
D17*
%TO.C,C10*%
X110949000Y-116078000D03*
X112649000Y-116078000D03*
%TD*%
D19*
%TO.C,H1*%
X139780419Y-59780419D03*
X137500000Y-60725000D03*
X134275000Y-57500000D03*
X140725000Y-57500000D03*
X139780419Y-55219581D03*
X135219581Y-55219581D03*
X135219581Y-59780419D03*
D20*
X137500000Y-57500000D03*
D19*
X137500000Y-54275000D03*
%TD*%
D20*
%TO.C,H2*%
X57500000Y-137500000D03*
D19*
X55219581Y-139780419D03*
X54275000Y-137500000D03*
X60725000Y-137500000D03*
X59780419Y-135219581D03*
X59780419Y-139780419D03*
X57500000Y-140725000D03*
X55219581Y-135219581D03*
X57500000Y-134275000D03*
%TD*%
%TO.C,H3*%
X59780419Y-55219581D03*
X57500000Y-54275000D03*
X54275000Y-57500000D03*
D20*
X57500000Y-57500000D03*
D19*
X55219581Y-59780419D03*
X57500000Y-60725000D03*
X55219581Y-55219581D03*
X59780419Y-59780419D03*
X60725000Y-57500000D03*
%TD*%
%TO.C,H4*%
X134275000Y-137500000D03*
X139780419Y-135219581D03*
X139780419Y-139780419D03*
X137500000Y-140725000D03*
X140725000Y-137500000D03*
D20*
X137500000Y-137500000D03*
D19*
X135219581Y-135219581D03*
X137500000Y-134275000D03*
X135219581Y-139780419D03*
%TD*%
D21*
%TO.C,O2*%
X117144800Y-109220000D03*
X118344800Y-109220000D03*
%TD*%
D18*
%TO.C,C2*%
X104140000Y-136310000D03*
X104140000Y-138010000D03*
%TD*%
D17*
%TO.C,C5*%
X104990000Y-142240000D03*
X103290000Y-142240000D03*
%TD*%
D18*
%TO.C,C7*%
X92040000Y-119410000D03*
X92040000Y-117710000D03*
%TD*%
%TO.C,C9*%
X94480000Y-119430000D03*
X94480000Y-117730000D03*
%TD*%
D17*
%TO.C,C6*%
X106470000Y-115000000D03*
X104770000Y-115000000D03*
%TD*%
%TO.C,C8*%
X106520000Y-117090000D03*
X104820000Y-117090000D03*
%TD*%
D18*
%TO.C,C11*%
X96870000Y-119480000D03*
X96870000Y-117780000D03*
%TD*%
%TO.C,C21*%
X116840000Y-88050000D03*
X116840000Y-89750000D03*
%TD*%
%TO.C,C23*%
X119380000Y-88050000D03*
X119380000Y-89750000D03*
%TD*%
D17*
%TO.C,C27*%
X68610000Y-119510000D03*
X70310000Y-119510000D03*
%TD*%
%TO.C,C28*%
X68707000Y-117221000D03*
X70407000Y-117221000D03*
%TD*%
%TO.C,C20*%
X116345600Y-116179600D03*
X118045600Y-116179600D03*
%TD*%
%TO.C,C26*%
X95885000Y-67945000D03*
X94185000Y-67945000D03*
%TD*%
%TO.C,C24*%
X75830000Y-85617500D03*
X74130000Y-85617500D03*
%TD*%
%TO.C,C25*%
X116840000Y-111760000D03*
X118540000Y-111760000D03*
%TD*%
D18*
%TO.C,C4*%
X74200000Y-95287500D03*
X74200000Y-96987500D03*
%TD*%
%TO.C,C3*%
X72050000Y-95317500D03*
X72050000Y-97017500D03*
%TD*%
D17*
%TO.C,C1*%
X70265000Y-65220000D03*
X71965000Y-65220000D03*
%TD*%
D22*
%TO.C,D3*%
X95605000Y-138230000D03*
X97435000Y-138230000D03*
X96520000Y-136090000D03*
%TD*%
D23*
%TO.C,D4*%
X101600000Y-138035000D03*
X101600000Y-136285000D03*
%TD*%
D24*
%TO.C,D6*%
X98790000Y-65620000D03*
X97040000Y-65620000D03*
%TD*%
D25*
%TO.C,D7*%
X81280000Y-115965000D03*
X81280000Y-117715000D03*
%TD*%
%TO.C,D2*%
X72620000Y-87632500D03*
X72620000Y-89382500D03*
%TD*%
D26*
%TO.C,D1*%
X67820000Y-70150000D03*
X69570000Y-70150000D03*
%TD*%
D16*
%TO.C,FB2*%
X88392000Y-135228000D03*
X88392000Y-133758000D03*
%TD*%
D15*
%TO.C,FB6*%
X106325000Y-119500000D03*
X104855000Y-119500000D03*
%TD*%
D16*
%TO.C,FB7*%
X99310000Y-119475000D03*
X99310000Y-118005000D03*
%TD*%
D15*
%TO.C,FB8*%
X127735000Y-86360000D03*
X126265000Y-86360000D03*
%TD*%
D16*
%TO.C,FB3*%
X68453000Y-93191000D03*
X68453000Y-91721000D03*
%TD*%
%TO.C,FB10*%
X68834000Y-121439000D03*
X68834000Y-122909000D03*
%TD*%
D15*
%TO.C,FB5*%
X111052000Y-117856000D03*
X112522000Y-117856000D03*
%TD*%
%TO.C,FB9*%
X94465000Y-65530000D03*
X92995000Y-65530000D03*
%TD*%
D16*
%TO.C,FB4*%
X129413000Y-136652000D03*
X129413000Y-138122000D03*
%TD*%
D15*
%TO.C,FB1*%
X68100000Y-67610000D03*
X69570000Y-67610000D03*
%TD*%
D27*
%TO.C,J1*%
X75000000Y-59500000D03*
D28*
X75000000Y-56960000D03*
X77540000Y-59500000D03*
X77540000Y-56960000D03*
X80080000Y-59500000D03*
X80080000Y-56960000D03*
X82620000Y-59500000D03*
X82620000Y-56960000D03*
X85160000Y-59500000D03*
X85160000Y-56960000D03*
X87700000Y-59500000D03*
X87700000Y-56960000D03*
X90240000Y-59500000D03*
X90240000Y-56960000D03*
X92780000Y-59500000D03*
X92780000Y-56960000D03*
X95320000Y-59500000D03*
X95320000Y-56960000D03*
X97860000Y-59500000D03*
X97860000Y-56960000D03*
X100400000Y-59500000D03*
X100400000Y-56960000D03*
X102940000Y-59500000D03*
X102940000Y-56960000D03*
X105480000Y-59500000D03*
X105480000Y-56960000D03*
X108020000Y-59500000D03*
X108020000Y-56960000D03*
X110560000Y-59500000D03*
X110560000Y-56960000D03*
X113100000Y-59500000D03*
X113100000Y-56960000D03*
X115640000Y-59500000D03*
X115640000Y-56960000D03*
X118180000Y-59500000D03*
X118180000Y-56960000D03*
X120720000Y-59500000D03*
X120720000Y-56960000D03*
X123260000Y-59500000D03*
X123260000Y-56960000D03*
%TD*%
D29*
%TO.C,J7*%
X54663500Y-126222000D03*
X54663500Y-125122000D03*
X54663500Y-124022000D03*
X54663500Y-122922000D03*
X54663500Y-121822000D03*
X54663500Y-120722000D03*
X54663500Y-119622000D03*
X54663500Y-118522000D03*
D30*
X66213500Y-125672000D03*
X66213500Y-118322000D03*
D31*
X52663500Y-125622000D03*
X52663500Y-119122000D03*
%TD*%
D27*
%TO.C,J2*%
X123595000Y-141940000D03*
D28*
X126135000Y-141940000D03*
%TD*%
D32*
%TO.C,J4*%
X82520000Y-121785000D03*
X83170000Y-121785000D03*
X83820000Y-121785000D03*
X84470000Y-121785000D03*
X85120000Y-121785000D03*
D33*
X81320000Y-121760000D03*
X86320000Y-121760000D03*
D34*
X82820000Y-124460000D03*
X84820000Y-124460000D03*
%TD*%
D27*
%TO.C,J3*%
X72265000Y-142780000D03*
D28*
X69725000Y-142780000D03*
%TD*%
D35*
%TO.C,J5*%
X136270000Y-73920000D03*
D36*
X133730000Y-73920000D03*
X136270000Y-76460000D03*
X133730000Y-76460000D03*
X136270000Y-79000000D03*
X133730000Y-79000000D03*
X136270000Y-81540000D03*
X133730000Y-81540000D03*
X136270000Y-84080000D03*
X133730000Y-84080000D03*
%TD*%
D35*
%TO.C,J6*%
X61270000Y-73920000D03*
D36*
X58730000Y-73920000D03*
X61270000Y-76460000D03*
X58730000Y-76460000D03*
X61270000Y-79000000D03*
X58730000Y-79000000D03*
X61270000Y-81540000D03*
X58730000Y-81540000D03*
X61270000Y-84080000D03*
X58730000Y-84080000D03*
%TD*%
D37*
%TO.C,MAX4372F1*%
X127002000Y-136365000D03*
X127002000Y-135095000D03*
X127002000Y-133825000D03*
X127002000Y-132555000D03*
X121578000Y-132555000D03*
X121578000Y-133825000D03*
X121578000Y-135095000D03*
X121578000Y-136365000D03*
%TD*%
D21*
%TO.C,O1*%
X72460000Y-99127500D03*
X73660000Y-99127500D03*
%TD*%
D38*
%TO.C,Q1*%
X90370000Y-133705000D03*
X90370000Y-135535000D03*
X92510000Y-134620000D03*
%TD*%
D16*
%TO.C,R26*%
X101270000Y-115180000D03*
X101270000Y-113710000D03*
%TD*%
D15*
%TO.C,R10*%
X122655000Y-86360000D03*
X121185000Y-86360000D03*
%TD*%
%TO.C,R11*%
X125195000Y-88900000D03*
X123725000Y-88900000D03*
%TD*%
D16*
%TO.C,R8*%
X114935000Y-132026000D03*
X114935000Y-130556000D03*
%TD*%
%TO.C,R4*%
X91440000Y-140435000D03*
X91440000Y-138965000D03*
%TD*%
%TO.C,R25*%
X99020000Y-113715000D03*
X99020000Y-115185000D03*
%TD*%
%TO.C,R1*%
X76520000Y-87962500D03*
X76520000Y-89432500D03*
%TD*%
D15*
%TO.C,R14*%
X79115000Y-119380000D03*
X80585000Y-119380000D03*
%TD*%
%TO.C,R15*%
X69925000Y-114140000D03*
X71395000Y-114140000D03*
%TD*%
D16*
%TO.C,R17*%
X78740000Y-121185000D03*
X78740000Y-122655000D03*
%TD*%
D15*
%TO.C,R18*%
X66635000Y-112110000D03*
X68105000Y-112110000D03*
%TD*%
%TO.C,R19*%
X73695000Y-110700000D03*
X75165000Y-110700000D03*
%TD*%
D16*
%TO.C,R21*%
X71882000Y-127381000D03*
X71882000Y-128851000D03*
%TD*%
%TO.C,R16*%
X78613000Y-125122000D03*
X78613000Y-126592000D03*
%TD*%
D15*
%TO.C,R5*%
X103405000Y-139700000D03*
X104875000Y-139700000D03*
%TD*%
%TO.C,R12*%
X98225000Y-68072000D03*
X99695000Y-68072000D03*
%TD*%
%TO.C,R13*%
X82350000Y-114300000D03*
X83820000Y-114300000D03*
%TD*%
%TO.C,R20*%
X94680000Y-71390000D03*
X96150000Y-71390000D03*
%TD*%
%TO.C,R22*%
X89400000Y-65530000D03*
X90870000Y-65530000D03*
%TD*%
D16*
%TO.C,R3*%
X70790000Y-87817500D03*
X70790000Y-89287500D03*
%TD*%
D15*
%TO.C,R2*%
X67940000Y-72210000D03*
X69410000Y-72210000D03*
%TD*%
D16*
%TO.C,R6*%
X109220000Y-133885000D03*
X109220000Y-135355000D03*
%TD*%
%TO.C,R7*%
X111760000Y-133885000D03*
X111760000Y-135355000D03*
%TD*%
D39*
%TO.C,SW_PORT1*%
X134870000Y-121240000D03*
X138770000Y-121240000D03*
X134870000Y-122510000D03*
X138770000Y-122510000D03*
X134870000Y-123780000D03*
X138770000Y-123780000D03*
X134870000Y-125050000D03*
X138770000Y-125050000D03*
X134870000Y-126320000D03*
X138770000Y-126320000D03*
%TD*%
D40*
%TO.C,TP1*%
X99695000Y-132588000D03*
%TD*%
%TO.C,TP2*%
X118364000Y-141732000D03*
%TD*%
D41*
%TO.C,U6*%
X89125000Y-68275000D03*
X89125000Y-68925000D03*
X89125000Y-69575000D03*
X89125000Y-70225000D03*
X92425000Y-70225000D03*
X92425000Y-69575000D03*
X92425000Y-68925000D03*
X92425000Y-68275000D03*
D42*
X90775000Y-69250000D03*
%TD*%
D43*
%TO.C,U3*%
X108660000Y-142000000D03*
X108660000Y-139700000D03*
X108660000Y-137400000D03*
D44*
X114860000Y-139700000D03*
%TD*%
D45*
%TO.C,U4*%
X110193000Y-106540000D03*
X110193000Y-106040001D03*
X110193000Y-105540000D03*
X110193000Y-105040001D03*
X110193000Y-104539999D03*
X110193000Y-104040000D03*
X110193000Y-103540001D03*
X110193000Y-103040000D03*
X110193000Y-102540001D03*
X110193000Y-102039999D03*
X110193000Y-101540000D03*
X110193000Y-101040001D03*
X110193000Y-100540000D03*
X110193000Y-100040001D03*
X110193000Y-99539999D03*
X110193000Y-99040000D03*
X110193000Y-98540001D03*
X110193000Y-98040000D03*
X110193000Y-97540000D03*
X110193000Y-97040002D03*
X110193000Y-96540000D03*
X110193000Y-96040001D03*
X110193000Y-95539999D03*
X110193000Y-95040000D03*
X110193000Y-94540001D03*
X110193000Y-94040000D03*
X110193000Y-93540001D03*
X110193000Y-93039999D03*
X110193000Y-92540000D03*
X110193000Y-92040001D03*
X110193000Y-91540000D03*
X110193000Y-91040001D03*
X110193000Y-90539999D03*
X110193000Y-90040000D03*
X110193000Y-89540001D03*
X110193000Y-89040000D03*
D46*
X108318000Y-87165000D03*
X107818001Y-87165000D03*
X107318000Y-87165000D03*
X106818001Y-87165000D03*
X106317999Y-87165000D03*
X105818000Y-87165000D03*
X105318001Y-87165000D03*
X104818000Y-87165000D03*
X104318001Y-87165000D03*
X103817999Y-87165000D03*
X103318000Y-87165000D03*
X102818001Y-87165000D03*
X102318000Y-87165000D03*
X101818001Y-87165000D03*
X101317999Y-87165000D03*
X100818000Y-87165000D03*
X100318001Y-87165000D03*
X99818000Y-87165000D03*
X99318000Y-87165000D03*
X98817999Y-87165000D03*
X98318000Y-87165000D03*
X97818001Y-87165000D03*
X97317999Y-87165000D03*
X96818000Y-87165000D03*
X96317999Y-87165000D03*
X95818000Y-87165000D03*
X95318001Y-87165000D03*
X94817999Y-87165000D03*
X94318000Y-87165000D03*
X93817999Y-87165000D03*
X93318000Y-87165000D03*
X92818001Y-87165000D03*
X92317999Y-87165000D03*
X91818000Y-87165000D03*
X91317999Y-87165000D03*
X90818000Y-87165000D03*
D45*
X88943000Y-89040000D03*
X88943000Y-89539999D03*
X88943000Y-90040000D03*
X88943000Y-90539999D03*
X88943000Y-91040001D03*
X88943000Y-91540000D03*
X88943000Y-92039999D03*
X88943000Y-92540000D03*
X88943000Y-93039999D03*
X88943000Y-93540001D03*
X88943000Y-94040000D03*
X88943000Y-94539999D03*
X88943000Y-95040000D03*
X88943000Y-95539999D03*
X88943000Y-96040001D03*
X88943000Y-96540000D03*
X88943000Y-97039999D03*
X88943000Y-97540000D03*
X88943000Y-98040000D03*
X88943000Y-98540001D03*
X88943000Y-99040000D03*
X88943000Y-99539999D03*
X88943000Y-100040001D03*
X88943000Y-100540000D03*
X88943000Y-101040001D03*
X88943000Y-101540000D03*
X88943000Y-102039999D03*
X88943000Y-102540001D03*
X88943000Y-103040000D03*
X88943000Y-103540001D03*
X88943000Y-104040000D03*
X88943000Y-104539999D03*
X88943000Y-105040001D03*
X88943000Y-105540000D03*
X88943000Y-106040001D03*
X88943000Y-106540000D03*
D46*
X90818000Y-108415000D03*
X91317999Y-108415000D03*
X91818000Y-108415000D03*
X92317999Y-108415000D03*
X92818001Y-108415000D03*
X93318000Y-108415000D03*
X93817999Y-108415000D03*
X94318000Y-108415000D03*
X94817999Y-108415000D03*
X95318001Y-108415000D03*
X95818000Y-108415000D03*
X96317999Y-108415000D03*
X96818000Y-108415000D03*
X97317999Y-108415000D03*
X97818001Y-108415000D03*
X98318000Y-108415000D03*
X98817999Y-108415000D03*
X99318000Y-108415000D03*
X99818000Y-108415000D03*
X100318001Y-108415000D03*
X100818000Y-108415000D03*
X101317999Y-108415000D03*
X101818001Y-108415000D03*
X102318000Y-108415000D03*
X102818001Y-108415000D03*
X103318000Y-108415000D03*
X103817999Y-108415000D03*
X104318001Y-108415000D03*
X104818000Y-108415000D03*
X105318001Y-108415000D03*
X105818000Y-108415000D03*
X106317999Y-108415000D03*
X106818001Y-108415000D03*
X107318000Y-108415000D03*
X107818001Y-108415000D03*
X108318000Y-108415000D03*
%TD*%
D47*
%TO.C,U1*%
X70975000Y-91382500D03*
X70975000Y-92032500D03*
X70975000Y-92682500D03*
X70975000Y-93332500D03*
X75425000Y-93332500D03*
X75425000Y-92682500D03*
X75425000Y-92032500D03*
X75425000Y-91382500D03*
%TD*%
D48*
%TO.C,U5*%
X127533400Y-110394550D03*
X127533400Y-114890350D03*
X136626600Y-114890350D03*
X136626600Y-110394550D03*
%TD*%
D49*
%TO.C,U2*%
X71750000Y-72505000D03*
X72400000Y-72505000D03*
X73050000Y-72505000D03*
X73700000Y-72505000D03*
X71750000Y-68105000D03*
X72400000Y-68105000D03*
X73050000Y-68105000D03*
X73700000Y-68105000D03*
%TD*%
D25*
%TO.C,D5*%
X108770250Y-77446500D03*
X108770250Y-79196500D03*
%TD*%
D24*
%TO.C,D10*%
X141831000Y-97917000D03*
X140081000Y-97917000D03*
%TD*%
D50*
%TO.C,J8*%
X129405000Y-94280000D03*
X129405000Y-93630000D03*
X129405000Y-92980000D03*
X129405000Y-92330000D03*
X129405000Y-91680000D03*
D33*
X129380000Y-95480000D03*
X129380000Y-90480000D03*
D51*
X132080000Y-93980000D03*
X132080000Y-91980000D03*
%TD*%
D26*
%TO.C,D8*%
X121172000Y-115951000D03*
X122922000Y-115951000D03*
%TD*%
%TO.C,D9*%
X140081000Y-101727000D03*
X141831000Y-101727000D03*
%TD*%
D16*
%TO.C,FB11*%
X126365000Y-129159000D03*
X126365000Y-127689000D03*
%TD*%
M02*
