G04 #@! TF.GenerationSoftware,KiCad,Pcbnew,(6.0.7-1)-1*
G04 #@! TF.CreationDate,2023-01-01T23:11:57-05:00*
G04 #@! TF.ProjectId,obc-db,6f62632d-6462-42e6-9b69-6361645f7063,rev?*
G04 #@! TF.SameCoordinates,Original*
G04 #@! TF.FileFunction,Soldermask,Bot*
G04 #@! TF.FilePolarity,Negative*
%FSLAX46Y46*%
G04 Gerber Fmt 4.6, Leading zero omitted, Abs format (unit mm)*
G04 Created by KiCad (PCBNEW (6.0.7-1)-1) date 2023-01-01 23:11:57*
%MOMM*%
%LPD*%
G01*
G04 APERTURE LIST*
%ADD10C,6.400000*%
%ADD11C,3.600000*%
%ADD12C,2.600000*%
%ADD13C,4.400000*%
%ADD14R,1.700000X1.700000*%
%ADD15O,1.700000X1.700000*%
%ADD16C,2.159000*%
%ADD17R,1.524000X1.524000*%
%ADD18C,1.524000*%
G04 APERTURE END LIST*
D10*
X191770000Y-52070000D03*
D11*
X191770000Y-52070000D03*
X118110000Y-52070000D03*
D10*
X118110000Y-52070000D03*
D12*
X188976000Y-117602000D03*
D13*
X188976000Y-117602000D03*
D14*
X196088000Y-108077000D03*
D15*
X196088000Y-110617000D03*
X196088000Y-113157000D03*
X196088000Y-115697000D03*
D16*
X183642000Y-139954000D03*
X178891999Y-139954000D03*
X174141999Y-139954000D03*
D10*
X114300000Y-137795000D03*
D11*
X114300000Y-137795000D03*
D14*
X183866000Y-69870000D03*
D15*
X183866000Y-67330000D03*
X181326000Y-69870000D03*
X181326000Y-67330000D03*
X178786000Y-69870000D03*
X178786000Y-67330000D03*
X176246000Y-69870000D03*
X176246000Y-67330000D03*
X173706000Y-69870000D03*
X173706000Y-67330000D03*
X171166000Y-69870000D03*
X171166000Y-67330000D03*
X168626000Y-69870000D03*
X168626000Y-67330000D03*
X166086000Y-69870000D03*
X166086000Y-67330000D03*
X163546000Y-69870000D03*
X163546000Y-67330000D03*
X161006000Y-69870000D03*
X161006000Y-67330000D03*
X158466000Y-69870000D03*
X158466000Y-67330000D03*
X155926000Y-69870000D03*
X155926000Y-67330000D03*
X153386000Y-69870000D03*
X153386000Y-67330000D03*
X150846000Y-69870000D03*
X150846000Y-67330000D03*
X148306000Y-69870000D03*
X148306000Y-67330000D03*
X145766000Y-69870000D03*
X145766000Y-67330000D03*
X143226000Y-69870000D03*
X143226000Y-67330000D03*
X140686000Y-69870000D03*
X140686000Y-67330000D03*
X138146000Y-69870000D03*
X138146000Y-67330000D03*
X135606000Y-69870000D03*
X135606000Y-67330000D03*
D14*
X184113000Y-102845000D03*
D15*
X186653000Y-102845000D03*
X184113000Y-100305000D03*
X186653000Y-100305000D03*
X184113000Y-97765000D03*
X186653000Y-97765000D03*
X184113000Y-95225000D03*
X186653000Y-95225000D03*
X184113000Y-92685000D03*
X186653000Y-92685000D03*
X184113000Y-90145000D03*
X186653000Y-90145000D03*
D12*
X130810000Y-68580000D03*
D13*
X130810000Y-68580000D03*
D12*
X130810000Y-117602000D03*
D13*
X130810000Y-117602000D03*
D17*
X186690000Y-52070000D03*
D18*
X186690000Y-54610000D03*
X184150000Y-52070000D03*
X184150000Y-54610000D03*
X181610000Y-52070000D03*
X181610000Y-54610000D03*
X179070000Y-52070000D03*
X179070000Y-54610000D03*
X176530000Y-52070000D03*
X176530000Y-54610000D03*
X173990000Y-52070000D03*
X173990000Y-54610000D03*
X171450000Y-52070000D03*
X171450000Y-54610000D03*
X168910000Y-52070000D03*
X168910000Y-54610000D03*
X166370000Y-52070000D03*
X166370000Y-54610000D03*
X163830000Y-52070000D03*
X163830000Y-54610000D03*
X161290000Y-52070000D03*
X161290000Y-54610000D03*
X158750000Y-52070000D03*
X158750000Y-54610000D03*
X156210000Y-52070000D03*
X156210000Y-54610000D03*
X153670000Y-52070000D03*
X153670000Y-54610000D03*
X151130000Y-52070000D03*
X151130000Y-54610000D03*
X148590000Y-52070000D03*
X148590000Y-54610000D03*
X146050000Y-52070000D03*
X146050000Y-54610000D03*
X143510000Y-52070000D03*
X143510000Y-54610000D03*
X140970000Y-52070000D03*
X140970000Y-54610000D03*
X138430000Y-52070000D03*
X138430000Y-54610000D03*
X135890000Y-52070000D03*
X135890000Y-54610000D03*
X133350000Y-52070000D03*
X133350000Y-54610000D03*
X130810000Y-52070000D03*
X130810000Y-54610000D03*
X128270000Y-52070000D03*
X128270000Y-54610000D03*
X125730000Y-52070000D03*
X125730000Y-54610000D03*
X123190000Y-52070000D03*
X123190000Y-54610000D03*
X186690000Y-57150000D03*
X186690000Y-59690000D03*
X184150000Y-57150000D03*
X184150000Y-59690000D03*
X181610000Y-57150000D03*
X181610000Y-59690000D03*
X179070000Y-57150000D03*
X179070000Y-59690000D03*
X176530000Y-57150000D03*
X176530000Y-59690000D03*
X173990000Y-57150000D03*
X173990000Y-59690000D03*
X171450000Y-57150000D03*
X171450000Y-59690000D03*
X168910000Y-57150000D03*
X168910000Y-59690000D03*
X166370000Y-57150000D03*
X166370000Y-59690000D03*
X163830000Y-57150000D03*
X163830000Y-59690000D03*
X161290000Y-57150000D03*
X161290000Y-59690000D03*
X158750000Y-57150000D03*
X158750000Y-59690000D03*
X156210000Y-57150000D03*
X156210000Y-59690000D03*
X153670000Y-57150000D03*
X153670000Y-59690000D03*
X151130000Y-57150000D03*
X151130000Y-59690000D03*
X148590000Y-57150000D03*
X148590000Y-59690000D03*
X146050000Y-57150000D03*
X146050000Y-59690000D03*
X143510000Y-57150000D03*
X143510000Y-59690000D03*
X140970000Y-57150000D03*
X140970000Y-59690000D03*
X138430000Y-57150000D03*
X138430000Y-59690000D03*
X135890000Y-57150000D03*
X135890000Y-59690000D03*
X133350000Y-57150000D03*
X133350000Y-59690000D03*
X130810000Y-57150000D03*
X130810000Y-59690000D03*
X128270000Y-57150000D03*
X128270000Y-59690000D03*
X125730000Y-57150000D03*
X125730000Y-59690000D03*
X123190000Y-57150000D03*
X123190000Y-59690000D03*
D12*
X188976000Y-68580000D03*
D13*
X188976000Y-68580000D03*
D11*
X194310000Y-137795000D03*
D10*
X194310000Y-137795000D03*
D14*
X196088000Y-119380000D03*
D15*
X196088000Y-121920000D03*
X196088000Y-124460000D03*
X196088000Y-127000000D03*
M02*
