G04 #@! TF.GenerationSoftware,KiCad,Pcbnew,(6.0.7-1)-1*
G04 #@! TF.CreationDate,2023-01-09T18:43:15-05:00*
G04 #@! TF.ProjectId,DebugBoard,44656275-6742-46f6-9172-642e6b696361,rev?*
G04 #@! TF.SameCoordinates,Original*
G04 #@! TF.FileFunction,Soldermask,Bot*
G04 #@! TF.FilePolarity,Negative*
%FSLAX46Y46*%
G04 Gerber Fmt 4.6, Leading zero omitted, Abs format (unit mm)*
G04 Created by KiCad (PCBNEW (6.0.7-1)-1) date 2023-01-09 18:43:15*
%MOMM*%
%LPD*%
G01*
G04 APERTURE LIST*
%ADD10C,2.159000*%
%ADD11O,1.700000X1.700000*%
%ADD12R,1.700000X1.700000*%
%ADD13C,4.400000*%
%ADD14C,1.600000*%
%ADD15O,1.600000X1.600000*%
%ADD16R,1.800000X1.800000*%
%ADD17C,1.800000*%
%ADD18C,0.700000*%
%ADD19O,1.700000X0.900000*%
%ADD20O,2.400000X0.900000*%
G04 APERTURE END LIST*
D10*
X124130001Y-107982250D03*
X119380000Y-107982250D03*
X114630000Y-107982250D03*
D11*
X132683400Y-87670400D03*
X132683400Y-85130400D03*
D12*
X132683400Y-82590400D03*
D13*
X100330000Y-76200000D03*
D12*
X132760000Y-95915000D03*
D11*
X132760000Y-93375000D03*
D14*
X107950000Y-85090000D03*
D15*
X107950000Y-92710000D03*
D16*
X101600000Y-82550000D03*
D17*
X101600000Y-80010000D03*
D12*
X104710000Y-109220000D03*
D11*
X102170000Y-109220000D03*
X104710000Y-106680000D03*
X102170000Y-106680000D03*
X104710000Y-104140000D03*
X102170000Y-104140000D03*
X104710000Y-101600000D03*
X102170000Y-101600000D03*
X104710000Y-99060000D03*
X102170000Y-99060000D03*
X104710000Y-96520000D03*
X102170000Y-96520000D03*
D18*
X133770000Y-108385000D03*
X133770000Y-107535000D03*
X133770000Y-106685000D03*
X133770000Y-105835000D03*
X133770000Y-104985000D03*
X133770000Y-104135000D03*
X133770000Y-103285000D03*
X133770000Y-102435000D03*
X135120000Y-102435000D03*
X135120000Y-103285000D03*
X135120000Y-104135000D03*
X135120000Y-104985000D03*
X135120000Y-105835000D03*
X135120000Y-106685000D03*
X135120000Y-107535000D03*
X135120000Y-108385000D03*
D19*
X138130000Y-109735000D03*
D20*
X134750000Y-101085000D03*
X134750000Y-109735000D03*
D19*
X138130000Y-101085000D03*
D13*
X100330000Y-114300000D03*
X140335000Y-76200000D03*
X140335000Y-114300000D03*
D14*
X114300000Y-85090000D03*
D15*
X114300000Y-92710000D03*
D14*
X101600000Y-85090000D03*
D15*
X101600000Y-92710000D03*
D16*
X107950000Y-82550000D03*
D17*
X107950000Y-80010000D03*
D16*
X114300000Y-82550000D03*
D17*
X114300000Y-80010000D03*
M02*
