M48
; DRILL file {KiCad (6.0.7-1)-1} date Monday, January 09, 2023 at 06:44:14 pm
; FORMAT={-:-/ absolute / metric / decimal}
; #@! TF.CreationDate,2023-01-09T18:44:14-05:00
; #@! TF.GenerationSoftware,Kicad,Pcbnew,(6.0.7-1)-1
; #@! TF.FileFunction,Plated,1,4,PTH
FMAT,2
METRIC
; #@! TA.AperFunction,Plated,PTH,ViaDrill
T1C0.400
; #@! TA.AperFunction,Plated,PTH,ComponentDrill
T2C0.400
; #@! TA.AperFunction,Plated,PTH,ComponentDrill
T3C0.600
; #@! TA.AperFunction,Plated,PTH,ComponentDrill
T4C0.800
; #@! TA.AperFunction,Plated,PTH,ComponentDrill
T5C0.900
; #@! TA.AperFunction,Plated,PTH,ComponentDrill
T6C1.000
; #@! TA.AperFunction,Plated,PTH,ComponentDrill
T7C1.651
; #@! TA.AperFunction,Plated,PTH,ComponentDrill
T8C2.200
%
G90
G05
T1
X102.159Y-110.693
X104.572Y-115.062
X114.63Y-107.982
X115.291Y-115.087
X126.365Y-87.757
X132.766Y-97.714
T2
X133.77Y-102.435
X133.77Y-103.285
X133.77Y-104.135
X133.77Y-104.985
X133.77Y-105.835
X133.77Y-106.685
X133.77Y-107.535
X133.77Y-108.385
X135.12Y-102.435
X135.12Y-103.285
X135.12Y-104.135
X135.12Y-104.985
X135.12Y-105.835
X135.12Y-106.685
X135.12Y-107.535
X135.12Y-108.385
T4
X101.6Y-85.09
X101.6Y-92.71
X107.95Y-85.09
X107.95Y-92.71
X114.3Y-85.09
X114.3Y-92.71
T5
X101.6Y-80.01
X101.6Y-82.55
X107.95Y-80.01
X107.95Y-82.55
X114.3Y-80.01
X114.3Y-82.55
T6
X102.17Y-96.52
X102.17Y-99.06
X102.17Y-101.6
X102.17Y-104.14
X102.17Y-106.68
X102.17Y-109.22
X104.71Y-96.52
X104.71Y-99.06
X104.71Y-101.6
X104.71Y-104.14
X104.71Y-106.68
X104.71Y-109.22
X132.683Y-82.59
X132.683Y-85.13
X132.683Y-87.67
X132.76Y-93.375
X132.76Y-95.915
T7
X114.63Y-107.982
X119.38Y-107.982
X124.13Y-107.982
T8
X100.33Y-76.2
X100.33Y-114.3
X140.335Y-76.2
X140.335Y-114.3
T3
X134.0Y-101.085G85X135.5Y-101.085
G05
X134.0Y-109.735G85X135.5Y-109.735
G05
X137.73Y-101.085G85X138.53Y-101.085
G05
X137.73Y-109.735G85X138.53Y-109.735
G05
T0
M30
