G04 #@! TF.GenerationSoftware,KiCad,Pcbnew,(6.0.7-1)-1*
G04 #@! TF.CreationDate,2023-01-09T18:43:15-05:00*
G04 #@! TF.ProjectId,DebugBoard,44656275-6742-46f6-9172-642e6b696361,rev?*
G04 #@! TF.SameCoordinates,Original*
G04 #@! TF.FileFunction,Legend,Bot*
G04 #@! TF.FilePolarity,Positive*
%FSLAX46Y46*%
G04 Gerber Fmt 4.6, Leading zero omitted, Abs format (unit mm)*
G04 Created by KiCad (PCBNEW (6.0.7-1)-1) date 2023-01-09 18:43:15*
%MOMM*%
%LPD*%
G01*
G04 APERTURE LIST*
%ADD10C,0.150000*%
%ADD11C,2.159000*%
%ADD12O,1.700000X1.700000*%
%ADD13R,1.700000X1.700000*%
%ADD14C,4.400000*%
%ADD15C,1.600000*%
%ADD16O,1.600000X1.600000*%
%ADD17R,1.800000X1.800000*%
%ADD18C,1.800000*%
%ADD19C,0.700000*%
%ADD20O,1.700000X0.900000*%
%ADD21O,2.400000X0.900000*%
G04 APERTURE END LIST*
D10*
X137120672Y-74229980D02*
X137221863Y-75039504D01*
X137186148Y-75134742D01*
X137144482Y-75182361D01*
X137055196Y-75229980D01*
X136864720Y-75229980D01*
X136763529Y-75182361D01*
X136709958Y-75134742D01*
X136650434Y-75039504D01*
X136549244Y-74229980D01*
X136198053Y-75229980D02*
X136114720Y-74563314D01*
X136126625Y-74658552D02*
X136073053Y-74610933D01*
X135971863Y-74563314D01*
X135829005Y-74563314D01*
X135739720Y-74610933D01*
X135704005Y-74706171D01*
X135769482Y-75229980D01*
X135704005Y-74706171D02*
X135644482Y-74610933D01*
X135543291Y-74563314D01*
X135400434Y-74563314D01*
X135311148Y-74610933D01*
X135275434Y-74706171D01*
X135340910Y-75229980D01*
X134864720Y-75229980D02*
X134739720Y-74229980D01*
X134787339Y-74610933D02*
X134686148Y-74563314D01*
X134495672Y-74563314D01*
X134406386Y-74610933D01*
X134364720Y-74658552D01*
X134329005Y-74753790D01*
X134364720Y-75039504D01*
X134424244Y-75134742D01*
X134477815Y-75182361D01*
X134579005Y-75229980D01*
X134769482Y-75229980D01*
X134858767Y-75182361D01*
X133959958Y-75229980D02*
X133876625Y-74563314D01*
X133834958Y-74229980D02*
X133888529Y-74277600D01*
X133846863Y-74325219D01*
X133793291Y-74277600D01*
X133834958Y-74229980D01*
X133846863Y-74325219D01*
X133340910Y-75229980D02*
X133430196Y-75182361D01*
X133465910Y-75087123D01*
X133358767Y-74229980D01*
X132959958Y-75229980D02*
X132876625Y-74563314D01*
X132834958Y-74229980D02*
X132888529Y-74277600D01*
X132846863Y-74325219D01*
X132793291Y-74277600D01*
X132834958Y-74229980D01*
X132846863Y-74325219D01*
X132049244Y-75182361D02*
X132150434Y-75229980D01*
X132340910Y-75229980D01*
X132430196Y-75182361D01*
X132471863Y-75134742D01*
X132507577Y-75039504D01*
X132471863Y-74753790D01*
X132412339Y-74658552D01*
X132358767Y-74610933D01*
X132257577Y-74563314D01*
X132067101Y-74563314D01*
X131977815Y-74610933D01*
X131198053Y-75229980D02*
X131132577Y-74706171D01*
X131168291Y-74610933D01*
X131257577Y-74563314D01*
X131448053Y-74563314D01*
X131549244Y-74610933D01*
X131192101Y-75182361D02*
X131293291Y-75229980D01*
X131531386Y-75229980D01*
X131620672Y-75182361D01*
X131656386Y-75087123D01*
X131644482Y-74991885D01*
X131584958Y-74896647D01*
X131483767Y-74849028D01*
X131245672Y-74849028D01*
X131144482Y-74801409D01*
X130579005Y-75229980D02*
X130668291Y-75182361D01*
X130704005Y-75087123D01*
X130596863Y-74229980D01*
X129436148Y-75229980D02*
X129311148Y-74229980D01*
X129073053Y-74229980D01*
X128936148Y-74277600D01*
X128852815Y-74372838D01*
X128817101Y-74468076D01*
X128793291Y-74658552D01*
X128811148Y-74801409D01*
X128882577Y-74991885D01*
X128942101Y-75087123D01*
X129049244Y-75182361D01*
X129198053Y-75229980D01*
X129436148Y-75229980D01*
X128049244Y-75182361D02*
X128150434Y-75229980D01*
X128340910Y-75229980D01*
X128430196Y-75182361D01*
X128465910Y-75087123D01*
X128418291Y-74706171D01*
X128358767Y-74610933D01*
X128257577Y-74563314D01*
X128067101Y-74563314D01*
X127977815Y-74610933D01*
X127942101Y-74706171D01*
X127954005Y-74801409D01*
X128442101Y-74896647D01*
X127579005Y-75229980D02*
X127454005Y-74229980D01*
X127501625Y-74610933D02*
X127400434Y-74563314D01*
X127209958Y-74563314D01*
X127120672Y-74610933D01*
X127079005Y-74658552D01*
X127043291Y-74753790D01*
X127079005Y-75039504D01*
X127138529Y-75134742D01*
X127192101Y-75182361D01*
X127293291Y-75229980D01*
X127483767Y-75229980D01*
X127573053Y-75182361D01*
X126162339Y-74563314D02*
X126245672Y-75229980D01*
X126590910Y-74563314D02*
X126656386Y-75087123D01*
X126620672Y-75182361D01*
X126531386Y-75229980D01*
X126388529Y-75229980D01*
X126287339Y-75182361D01*
X126233767Y-75134742D01*
X125257577Y-74563314D02*
X125358767Y-75372838D01*
X125418291Y-75468076D01*
X125471863Y-75515695D01*
X125573053Y-75563314D01*
X125715910Y-75563314D01*
X125805196Y-75515695D01*
X125334958Y-75182361D02*
X125436148Y-75229980D01*
X125626625Y-75229980D01*
X125715910Y-75182361D01*
X125757577Y-75134742D01*
X125793291Y-75039504D01*
X125757577Y-74753790D01*
X125698053Y-74658552D01*
X125644482Y-74610933D01*
X125543291Y-74563314D01*
X125352815Y-74563314D01*
X125263529Y-74610933D01*
X123704005Y-74706171D02*
X123567101Y-74753790D01*
X123525434Y-74801409D01*
X123489720Y-74896647D01*
X123507577Y-75039504D01*
X123567101Y-75134742D01*
X123620672Y-75182361D01*
X123721863Y-75229980D01*
X124102815Y-75229980D01*
X123977815Y-74229980D01*
X123644482Y-74229980D01*
X123555196Y-74277600D01*
X123513529Y-74325219D01*
X123477815Y-74420457D01*
X123489720Y-74515695D01*
X123549244Y-74610933D01*
X123602815Y-74658552D01*
X123704005Y-74706171D01*
X124037339Y-74706171D01*
X122959958Y-75229980D02*
X123049244Y-75182361D01*
X123090910Y-75134742D01*
X123126625Y-75039504D01*
X123090910Y-74753790D01*
X123031386Y-74658552D01*
X122977815Y-74610933D01*
X122876625Y-74563314D01*
X122733767Y-74563314D01*
X122644482Y-74610933D01*
X122602815Y-74658552D01*
X122567101Y-74753790D01*
X122602815Y-75039504D01*
X122662339Y-75134742D01*
X122715910Y-75182361D01*
X122817101Y-75229980D01*
X122959958Y-75229980D01*
X121769482Y-75229980D02*
X121704005Y-74706171D01*
X121739720Y-74610933D01*
X121829005Y-74563314D01*
X122019482Y-74563314D01*
X122120672Y-74610933D01*
X121763529Y-75182361D02*
X121864720Y-75229980D01*
X122102815Y-75229980D01*
X122192101Y-75182361D01*
X122227815Y-75087123D01*
X122215910Y-74991885D01*
X122156386Y-74896647D01*
X122055196Y-74849028D01*
X121817101Y-74849028D01*
X121715910Y-74801409D01*
X121293291Y-75229980D02*
X121209958Y-74563314D01*
X121233767Y-74753790D02*
X121174244Y-74658552D01*
X121120672Y-74610933D01*
X121019482Y-74563314D01*
X120924244Y-74563314D01*
X120245672Y-75229980D02*
X120120672Y-74229980D01*
X120239720Y-75182361D02*
X120340910Y-75229980D01*
X120531386Y-75229980D01*
X120620672Y-75182361D01*
X120662339Y-75134742D01*
X120698053Y-75039504D01*
X120662339Y-74753790D01*
X120602815Y-74658552D01*
X120549244Y-74610933D01*
X120448053Y-74563314D01*
X120257577Y-74563314D01*
X120168291Y-74610933D01*
X137214072Y-75823819D02*
X137160501Y-75776200D01*
X137059310Y-75728580D01*
X136821215Y-75728580D01*
X136731929Y-75776200D01*
X136690263Y-75823819D01*
X136654548Y-75919057D01*
X136666453Y-76014295D01*
X136731929Y-76157152D01*
X137374786Y-76728580D01*
X136755739Y-76728580D01*
X136011691Y-75728580D02*
X135916453Y-75728580D01*
X135827167Y-75776200D01*
X135785501Y-75823819D01*
X135749786Y-75919057D01*
X135725977Y-76109533D01*
X135755739Y-76347628D01*
X135827167Y-76538104D01*
X135886691Y-76633342D01*
X135940263Y-76680961D01*
X136041453Y-76728580D01*
X136136691Y-76728580D01*
X136225977Y-76680961D01*
X136267644Y-76633342D01*
X136303358Y-76538104D01*
X136327167Y-76347628D01*
X136297405Y-76109533D01*
X136225977Y-75919057D01*
X136166453Y-75823819D01*
X136112882Y-75776200D01*
X136011691Y-75728580D01*
X135309310Y-75823819D02*
X135255739Y-75776200D01*
X135154548Y-75728580D01*
X134916453Y-75728580D01*
X134827167Y-75776200D01*
X134785501Y-75823819D01*
X134749786Y-75919057D01*
X134761691Y-76014295D01*
X134827167Y-76157152D01*
X135470025Y-76728580D01*
X134850977Y-76728580D01*
X134356929Y-75823819D02*
X134303358Y-75776200D01*
X134202167Y-75728580D01*
X133964072Y-75728580D01*
X133874786Y-75776200D01*
X133833120Y-75823819D01*
X133797405Y-75919057D01*
X133809310Y-76014295D01*
X133874786Y-76157152D01*
X134517644Y-76728580D01*
X133898596Y-76728580D01*
X133422405Y-76347628D02*
X132660501Y-76347628D01*
X132166453Y-75823819D02*
X132112882Y-75776200D01*
X132011691Y-75728580D01*
X131773596Y-75728580D01*
X131684310Y-75776200D01*
X131642644Y-75823819D01*
X131606929Y-75919057D01*
X131618834Y-76014295D01*
X131684310Y-76157152D01*
X132327167Y-76728580D01*
X131708120Y-76728580D01*
X130964072Y-75728580D02*
X130868834Y-75728580D01*
X130779548Y-75776200D01*
X130737882Y-75823819D01*
X130702167Y-75919057D01*
X130678358Y-76109533D01*
X130708120Y-76347628D01*
X130779548Y-76538104D01*
X130839072Y-76633342D01*
X130892644Y-76680961D01*
X130993834Y-76728580D01*
X131089072Y-76728580D01*
X131178358Y-76680961D01*
X131220025Y-76633342D01*
X131255739Y-76538104D01*
X131279548Y-76347628D01*
X131249786Y-76109533D01*
X131178358Y-75919057D01*
X131118834Y-75823819D01*
X131065263Y-75776200D01*
X130964072Y-75728580D01*
X130261691Y-75823819D02*
X130208120Y-75776200D01*
X130106929Y-75728580D01*
X129868834Y-75728580D01*
X129779548Y-75776200D01*
X129737882Y-75823819D01*
X129702167Y-75919057D01*
X129714072Y-76014295D01*
X129779548Y-76157152D01*
X130422405Y-76728580D01*
X129803358Y-76728580D01*
X129345025Y-75728580D02*
X128725977Y-75728580D01*
X129106929Y-76109533D01*
X128964072Y-76109533D01*
X128874786Y-76157152D01*
X128833120Y-76204771D01*
X128797405Y-76300009D01*
X128827167Y-76538104D01*
X128886691Y-76633342D01*
X128940263Y-76680961D01*
X129041453Y-76728580D01*
X129327167Y-76728580D01*
X129416453Y-76680961D01*
X129458120Y-76633342D01*
X137216733Y-115669961D02*
X137073876Y-115717580D01*
X136835780Y-115717580D01*
X136740542Y-115669961D01*
X136692923Y-115622342D01*
X136645304Y-115527104D01*
X136645304Y-115431866D01*
X136692923Y-115336628D01*
X136740542Y-115289009D01*
X136835780Y-115241390D01*
X137026257Y-115193771D01*
X137121495Y-115146152D01*
X137169114Y-115098533D01*
X137216733Y-115003295D01*
X137216733Y-114908057D01*
X137169114Y-114812819D01*
X137121495Y-114765200D01*
X137026257Y-114717580D01*
X136788161Y-114717580D01*
X136645304Y-114765200D01*
X136216733Y-115717580D02*
X136216733Y-114717580D01*
X135645304Y-115717580D01*
X135645304Y-114717580D01*
X135169114Y-115622342D02*
X135121495Y-115669961D01*
X135169114Y-115717580D01*
X135216733Y-115669961D01*
X135169114Y-115622342D01*
X135169114Y-115717580D01*
X135169114Y-115098533D02*
X135121495Y-115146152D01*
X135169114Y-115193771D01*
X135216733Y-115146152D01*
X135169114Y-115098533D01*
X135169114Y-115193771D01*
X134931019Y-115812819D02*
X134169114Y-115812819D01*
X134169114Y-115812819D02*
X133407209Y-115812819D01*
X133407209Y-115812819D02*
X132645304Y-115812819D01*
X132645304Y-115812819D02*
X131883400Y-115812819D01*
X131883400Y-115812819D02*
X131121495Y-115812819D01*
X131121495Y-115812819D02*
X130359590Y-115812819D01*
%LPC*%
D11*
X124130001Y-107982250D03*
X119380000Y-107982250D03*
X114630000Y-107982250D03*
D12*
X132683400Y-87670400D03*
X132683400Y-85130400D03*
D13*
X132683400Y-82590400D03*
D14*
X100330000Y-76200000D03*
D13*
X132760000Y-95915000D03*
D12*
X132760000Y-93375000D03*
D15*
X107950000Y-85090000D03*
D16*
X107950000Y-92710000D03*
D17*
X101600000Y-82550000D03*
D18*
X101600000Y-80010000D03*
D13*
X104710000Y-109220000D03*
D12*
X102170000Y-109220000D03*
X104710000Y-106680000D03*
X102170000Y-106680000D03*
X104710000Y-104140000D03*
X102170000Y-104140000D03*
X104710000Y-101600000D03*
X102170000Y-101600000D03*
X104710000Y-99060000D03*
X102170000Y-99060000D03*
X104710000Y-96520000D03*
X102170000Y-96520000D03*
D19*
X133770000Y-108385000D03*
X133770000Y-107535000D03*
X133770000Y-106685000D03*
X133770000Y-105835000D03*
X133770000Y-104985000D03*
X133770000Y-104135000D03*
X133770000Y-103285000D03*
X133770000Y-102435000D03*
X135120000Y-102435000D03*
X135120000Y-103285000D03*
X135120000Y-104135000D03*
X135120000Y-104985000D03*
X135120000Y-105835000D03*
X135120000Y-106685000D03*
X135120000Y-107535000D03*
X135120000Y-108385000D03*
D20*
X138130000Y-109735000D03*
D21*
X134750000Y-101085000D03*
X134750000Y-109735000D03*
D20*
X138130000Y-101085000D03*
D14*
X100330000Y-114300000D03*
X140335000Y-76200000D03*
X140335000Y-114300000D03*
D15*
X114300000Y-85090000D03*
D16*
X114300000Y-92710000D03*
D15*
X101600000Y-85090000D03*
D16*
X101600000Y-92710000D03*
D17*
X107950000Y-82550000D03*
D18*
X107950000Y-80010000D03*
D17*
X114300000Y-82550000D03*
D18*
X114300000Y-80010000D03*
M02*
