M48
; DRILL file {KiCad (6.0.7-1)-1} date Monday, May 01, 2023 at 11:40:10 am
; FORMAT={-:-/ absolute / metric / decimal}
; #@! TF.CreationDate,2023-05-01T11:40:10-04:00
; #@! TF.GenerationSoftware,Kicad,Pcbnew,(6.0.7-1)-1
; #@! TF.FileFunction,Plated,1,4,PTH
FMAT,2
METRIC
; #@! TA.AperFunction,Plated,PTH,ViaDrill
T1C0.400
; #@! TA.AperFunction,Plated,PTH,ComponentDrill
T2C0.800
; #@! TA.AperFunction,Plated,PTH,ComponentDrill
T3C1.000
; #@! TA.AperFunction,Plated,PTH,ComponentDrill
T4C2.000
; #@! TA.AperFunction,Plated,PTH,ComponentDrill
T5C2.200
%
G90
G05
T1
X110.896Y-51.003
X110.896Y-55.067
X110.896Y-57.861
X110.896Y-63.246
X110.896Y-67.31
X110.896Y-75.438
X110.896Y-79.502
X110.896Y-83.566
X110.896Y-87.63
X110.896Y-91.694
X110.896Y-95.758
X110.896Y-99.822
X110.896Y-103.886
X110.896Y-107.95
X110.896Y-112.014
X110.896Y-120.142
X110.896Y-124.206
X110.896Y-128.27
X110.896Y-132.334
X110.896Y-136.398
X112.141Y-141.376
X112.42Y-49.428
X116.23Y-141.376
X116.484Y-68.834
X116.484Y-70.104
X116.535Y-49.428
X117.602Y-68.834
X117.602Y-72.771
X117.856Y-67.005
X120.345Y-141.376
X120.65Y-49.428
X120.777Y-79.883
X121.412Y-54.102
X122.174Y-67.31
X122.174Y-71.501
X123.444Y-51.943
X123.444Y-62.103
X124.46Y-141.376
X124.587Y-66.548
X124.816Y-49.428
X128.016Y-58.801
X128.016Y-71.882
X128.575Y-141.376
X128.93Y-49.428
X129.286Y-120.015
X129.794Y-67.183
X131.318Y-121.031
X132.69Y-141.376
X133.045Y-49.428
X133.96Y-67.259
X133.96Y-72.492
X133.96Y-75.489
X133.96Y-79.604
X133.96Y-83.718
X133.96Y-87.833
X133.96Y-91.948
X133.96Y-96.063
X133.96Y-100.178
X133.96Y-104.292
X133.96Y-108.407
X133.96Y-112.522
X133.96Y-116.637
X136.804Y-141.376
X137.16Y-49.428
X137.16Y-116.637
X138.074Y-72.492
X140.36Y-116.637
X140.36Y-119.532
X140.36Y-123.647
X140.36Y-127.762
X140.36Y-131.877
X140.36Y-135.992
X140.36Y-140.106
X140.919Y-141.376
X141.275Y-49.428
X142.189Y-72.492
X143.358Y-70.155
X145.034Y-141.376
X145.288Y-58.42
X145.288Y-60.198
X145.288Y-61.976
X145.44Y-49.428
X146.304Y-72.492
X148.996Y-66.192
X149.149Y-141.376
X149.454Y-68.631
X149.504Y-59.096
X149.555Y-49.428
X149.631Y-55.169
X149.631Y-56.947
X149.708Y-65.481
X150.419Y-64.821
X150.419Y-72.492
X151.337Y-69.338
X153.264Y-141.376
X153.416Y-51.816
X153.67Y-49.428
X153.924Y-70.088
X154.534Y-72.492
X155.194Y-51.816
X155.55Y-99.009
X155.829Y-65.786
X156.083Y-67.605
X156.845Y-65.786
X156.921Y-57.928
X157.378Y-141.376
X157.785Y-49.428
X157.861Y-51.435
X158.09Y-99.06
X158.496Y-53.848
X158.648Y-72.492
X158.75Y-67.437
X160.528Y-67.437
X161.493Y-141.376
X161.9Y-49.428
X162.763Y-72.492
X165.608Y-141.376
X165.989Y-56.515
X165.989Y-58.293
X166.065Y-49.428
X166.878Y-72.492
X169.723Y-141.376
X170.028Y-57.15
X170.18Y-49.428
X170.993Y-72.492
X172.161Y-116.84
X172.161Y-120.955
X172.161Y-125.07
X172.161Y-129.184
X172.161Y-133.299
X172.161Y-137.414
X173.838Y-141.376
X174.295Y-49.428
X175.108Y-72.492
X176.327Y-116.84
X177.089Y-57.15
X177.952Y-141.376
X178.206Y-57.826
X178.41Y-49.428
X179.222Y-72.492
X179.73Y-116.84
X179.781Y-75.286
X179.781Y-79.4
X179.781Y-83.515
X179.781Y-87.63
X179.781Y-91.745
X179.781Y-95.86
X179.781Y-99.974
X179.781Y-99.974
X179.781Y-104.089
X179.781Y-108.204
X179.781Y-112.319
X180.086Y-124.866
X180.34Y-121.971
X180.34Y-122.987
X181.559Y-121.869
X182.067Y-141.376
X182.524Y-49.428
X184.087Y-61.557
X185.928Y-131.826
X186.131Y-119.583
X186.131Y-125.019
X186.182Y-141.376
X186.474Y-62.624
X186.626Y-64.554
X186.69Y-49.428
X188.57Y-119.583
X190.297Y-141.376
X190.703Y-125.527
X190.805Y-49.428
X191.313Y-86.614
X191.364Y-79.096
X191.821Y-87.681
X191.922Y-79.908
X192.43Y-86.614
X192.481Y-118.821
X192.634Y-79.096
X192.989Y-87.681
X193.243Y-79.908
X194.412Y-141.376
X194.92Y-49.428
X198.526Y-141.376
X199.034Y-49.428
X202.641Y-141.376
X202.794Y-50.597
X202.794Y-54.712
X202.794Y-58.826
X202.794Y-62.941
X202.794Y-67.107
X202.794Y-71.222
X202.794Y-75.336
X202.794Y-79.451
X202.794Y-83.566
X202.794Y-87.732
X202.794Y-91.846
X202.794Y-96.012
X202.794Y-100.127
X202.794Y-104.242
X202.794Y-108.407
X202.794Y-112.522
X202.794Y-116.637
X202.794Y-120.752
X202.794Y-124.866
X202.794Y-129.032
X202.794Y-133.147
X202.794Y-137.262
T2
X120.777Y-75.585
X120.777Y-78.125
X123.083Y-118.999
X125.623Y-118.999
X132.969Y-136.672
X132.969Y-139.212
X133.096Y-126.726
X133.096Y-129.266
X180.467Y-61.575
X180.467Y-64.115
X188.107Y-71.628
X189.484Y-112.923
X189.484Y-115.463
X190.647Y-71.628
T3
X113.411Y-59.944
X121.412Y-51.943
X147.168Y-120.752
X152.806Y-120.752
X160.909Y-120.777
X166.497Y-120.777
X192.278Y-138.811
X200.279Y-130.81
T4
X139.192Y-95.377
X156.845Y-112.903
X156.972Y-77.724
X174.371Y-95.377
T5
X113.665Y-70.612
X113.792Y-115.316
X124.333Y-115.316
X130.556Y-76.708
X132.08Y-52.197
X136.906Y-127.889
X136.906Y-138.43
X138.176Y-69.088
X144.272Y-95.377
X156.845Y-82.804
X156.845Y-107.823
X169.291Y-95.377
X175.514Y-121.666
X176.784Y-52.324
X176.784Y-62.865
X181.61Y-138.557
X183.134Y-114.046
X189.357Y-75.438
X199.898Y-75.438
X200.025Y-120.269
T0
M30
