%TF.GenerationSoftware,KiCad,Pcbnew,(6.0.7-1)-1*%
%TF.CreationDate,2023-05-01T11:39:35-04:00*%
%TF.ProjectId,antenna-db,616e7465-6e6e-4612-9d64-622e6b696361,rev?*%
%TF.SameCoordinates,Original*%
%TF.FileFunction,Legend,Bot*%
%TF.FilePolarity,Positive*%
%FSLAX46Y46*%
G04 Gerber Fmt 4.6, Leading zero omitted, Abs format (unit mm)*
G04 Created by KiCad (PCBNEW (6.0.7-1)-1) date 2023-05-01 11:39:35*
%MOMM*%
%LPD*%
G01*
G04 APERTURE LIST*
%ADD10R,2.000000X2.000000*%
%ADD11C,1.400000*%
%ADD12C,4.400000*%
%ADD13C,2.600000*%
%ADD14R,4.000000X4.000000*%
G04 APERTURE END LIST*
%LPC*%
D10*
X160909000Y-120777000D03*
X166497000Y-120777000D03*
X147167600Y-120751600D03*
X152806400Y-120751600D03*
D11*
X133096000Y-129266000D03*
X133096000Y-126726000D03*
X123083000Y-118999000D03*
X125623000Y-118999000D03*
X188107000Y-71628000D03*
X190647000Y-71628000D03*
X180467000Y-64115000D03*
X180467000Y-61575000D03*
X132969000Y-136672000D03*
X132969000Y-139212000D03*
D10*
X200279000Y-130810000D03*
X192278000Y-138811000D03*
X113411000Y-59944000D03*
X121412000Y-51943000D03*
D11*
X189484000Y-115463000D03*
X189484000Y-112923000D03*
X120777000Y-75585000D03*
X120777000Y-78125000D03*
D12*
X189357000Y-75438000D03*
D13*
X189357000Y-75438000D03*
D12*
X124333000Y-115316000D03*
D13*
X124333000Y-115316000D03*
D14*
X174371000Y-95377000D03*
D13*
X136906000Y-138430000D03*
D12*
X136906000Y-138430000D03*
D13*
X138176000Y-69088000D03*
D12*
X138176000Y-69088000D03*
X113792000Y-115316000D03*
D13*
X113792000Y-115316000D03*
X200025000Y-120269000D03*
D12*
X200025000Y-120269000D03*
X144272000Y-95377000D03*
D13*
X144272000Y-95377000D03*
D14*
X156972000Y-77724000D03*
X156845000Y-112903000D03*
D13*
X183134000Y-114046000D03*
D12*
X183134000Y-114046000D03*
X176784000Y-52324000D03*
D13*
X176784000Y-52324000D03*
D14*
X139192000Y-95377000D03*
D13*
X175514000Y-121666000D03*
D12*
X175514000Y-121666000D03*
X199898000Y-75438000D03*
D13*
X199898000Y-75438000D03*
D12*
X132080000Y-52197000D03*
D13*
X132080000Y-52197000D03*
D12*
X156845000Y-82804000D03*
D13*
X156845000Y-82804000D03*
D12*
X130556000Y-76708000D03*
D13*
X130556000Y-76708000D03*
D12*
X169291000Y-95377000D03*
D13*
X169291000Y-95377000D03*
D12*
X176784000Y-62865000D03*
D13*
X176784000Y-62865000D03*
D12*
X156845000Y-107823000D03*
D13*
X156845000Y-107823000D03*
D12*
X181610000Y-138557000D03*
D13*
X181610000Y-138557000D03*
D12*
X136906000Y-127889000D03*
D13*
X136906000Y-127889000D03*
D12*
X113665000Y-70612000D03*
D13*
X113665000Y-70612000D03*
M02*
