%TF.GenerationSoftware,KiCad,Pcbnew,(6.0.7-1)-1*%
%TF.CreationDate,2023-05-01T11:39:35-04:00*%
%TF.ProjectId,antenna-db,616e7465-6e6e-4612-9d64-622e6b696361,rev?*%
%TF.SameCoordinates,Original*%
%TF.FileFunction,Copper,L2,Inr*%
%TF.FilePolarity,Positive*%
%FSLAX46Y46*%
G04 Gerber Fmt 4.6, Leading zero omitted, Abs format (unit mm)*
G04 Created by KiCad (PCBNEW (6.0.7-1)-1) date 2023-05-01 11:39:35*
%MOMM*%
%LPD*%
G01*
G04 APERTURE LIST*
%TA.AperFunction,ComponentPad*%
%ADD10R,2.000000X2.000000*%
%TD*%
%TA.AperFunction,ComponentPad*%
%ADD11C,1.400000*%
%TD*%
%TA.AperFunction,ComponentPad*%
%ADD12C,2.600000*%
%TD*%
%TA.AperFunction,ComponentPad*%
%ADD13R,4.000000X4.000000*%
%TD*%
%TA.AperFunction,ViaPad*%
%ADD14C,0.700000*%
%TD*%
G04 APERTURE END LIST*
D10*
X160909000Y-120777000D03*
X166497000Y-120777000D03*
X147167600Y-120751600D03*
X152806400Y-120751600D03*
D11*
X133096000Y-129266000D03*
X133096000Y-126726000D03*
X123083000Y-118999000D03*
X125623000Y-118999000D03*
X188107000Y-71628000D03*
X190647000Y-71628000D03*
X180467000Y-64115000D03*
X180467000Y-61575000D03*
X132969000Y-136672000D03*
X132969000Y-139212000D03*
D10*
X200279000Y-130810000D03*
X192278000Y-138811000D03*
X113411000Y-59944000D03*
X121412000Y-51943000D03*
D11*
X189484000Y-115463000D03*
X189484000Y-112923000D03*
X120777000Y-75585000D03*
X120777000Y-78125000D03*
D12*
X189357000Y-75438000D03*
X124333000Y-115316000D03*
D13*
X174371000Y-95377000D03*
D12*
X136906000Y-138430000D03*
X138176000Y-69088000D03*
X113792000Y-115316000D03*
X200025000Y-120269000D03*
X144272000Y-95377000D03*
D13*
X156972000Y-77724000D03*
X156845000Y-112903000D03*
D12*
X183134000Y-114046000D03*
X176784000Y-52324000D03*
D13*
X139192000Y-95377000D03*
D12*
X175514000Y-121666000D03*
X199898000Y-75438000D03*
X132080000Y-52197000D03*
X156845000Y-82804000D03*
X130556000Y-76708000D03*
X169291000Y-95377000D03*
X176784000Y-62865000D03*
X156845000Y-107823000D03*
X181610000Y-138557000D03*
X136906000Y-127889000D03*
X113665000Y-70612000D03*
D14*
X176326800Y-116840000D03*
X137160000Y-116636800D03*
X140360400Y-116636800D03*
X172161200Y-133299200D03*
X172161200Y-125069600D03*
X172161200Y-120954800D03*
X172161200Y-129184400D03*
X172161200Y-137414000D03*
X172161200Y-116840000D03*
X179730400Y-116840000D03*
X179781200Y-108204000D03*
X179781200Y-104089200D03*
X179781200Y-112318800D03*
X179781200Y-99974400D03*
X179781200Y-91744800D03*
X179781200Y-83515200D03*
X179781200Y-79400400D03*
X179781200Y-87630000D03*
X179781200Y-99974400D03*
X179781200Y-95859600D03*
X179781200Y-75285600D03*
X175107600Y-72491600D03*
X166878000Y-72491600D03*
X162763200Y-72491600D03*
X170992800Y-72491600D03*
X179222400Y-72491600D03*
X150418800Y-72491600D03*
X142189200Y-72491600D03*
X138074400Y-72491600D03*
X146304000Y-72491600D03*
X158648400Y-72491600D03*
X154533600Y-72491600D03*
X133959600Y-72491600D03*
X133959600Y-75488800D03*
X133959600Y-83718400D03*
X133959600Y-87833200D03*
X133959600Y-79603600D03*
X133959600Y-67259200D03*
X133959600Y-100177600D03*
X133959600Y-108407200D03*
X133959600Y-112522000D03*
X133959600Y-104292400D03*
X133959600Y-91948000D03*
X133959600Y-96062800D03*
X133959600Y-116636800D03*
X140360400Y-123647200D03*
X140360400Y-131876800D03*
X140360400Y-135991600D03*
X140360400Y-127762000D03*
X140360400Y-119532400D03*
X140360400Y-140106400D03*
X149504400Y-59096500D03*
X149453600Y-68630800D03*
X148996400Y-66192400D03*
X151337442Y-69337758D03*
X149707600Y-65481200D03*
X199034400Y-49428400D03*
X174294800Y-49428400D03*
X186690000Y-49428400D03*
X182524400Y-49428400D03*
X194919600Y-49428400D03*
X178409600Y-49428400D03*
X190804800Y-49428400D03*
X166065200Y-49428400D03*
X161899600Y-49428400D03*
X157784800Y-49428400D03*
X170180000Y-49428400D03*
X145440400Y-49428400D03*
X141274800Y-49428400D03*
X153670000Y-49428400D03*
X137160000Y-49428400D03*
X149555200Y-49428400D03*
X124815600Y-49428400D03*
X120650000Y-49428400D03*
X133045200Y-49428400D03*
X116535200Y-49428400D03*
X128930400Y-49428400D03*
X112420400Y-49428400D03*
X202793600Y-50596800D03*
X202793600Y-62941200D03*
X202793600Y-67106800D03*
X202793600Y-54711600D03*
X202793600Y-71221600D03*
X202793600Y-58826400D03*
X202793600Y-83566000D03*
X202793600Y-87731600D03*
X202793600Y-75336400D03*
X202793600Y-91846400D03*
X202793600Y-79451200D03*
X202793600Y-104241600D03*
X202793600Y-108407200D03*
X202793600Y-96012000D03*
X202793600Y-112522000D03*
X202793600Y-100126800D03*
X202793600Y-116636800D03*
X202793600Y-124866400D03*
X202793600Y-120751600D03*
X202793600Y-129032000D03*
X202793600Y-137261600D03*
X202793600Y-133146800D03*
X202641200Y-141376400D03*
X194411600Y-141376400D03*
X198526400Y-141376400D03*
X190296800Y-141376400D03*
X182067200Y-141376400D03*
X186182000Y-141376400D03*
X177952400Y-141376400D03*
X169722800Y-141376400D03*
X173837600Y-141376400D03*
X165608000Y-141376400D03*
X157378400Y-141376400D03*
X161493200Y-141376400D03*
X158089600Y-99060000D03*
X155549600Y-99009200D03*
X178206400Y-57826500D03*
X177088800Y-57150000D03*
X170027600Y-57150000D03*
X153263600Y-141376400D03*
X149148800Y-141376400D03*
X145034000Y-141376400D03*
X140919200Y-141376400D03*
X136804400Y-141376400D03*
X132689600Y-141376400D03*
X128574800Y-141376400D03*
X124460000Y-141376400D03*
X120345200Y-141376400D03*
X192989200Y-87680800D03*
X192430400Y-86614000D03*
X191820800Y-87680800D03*
X191312800Y-86614000D03*
X193243200Y-79908400D03*
X192633600Y-79095600D03*
X191922400Y-79908400D03*
X191363600Y-79095600D03*
X150418800Y-64820800D03*
X153924000Y-70087900D03*
X156921200Y-57928100D03*
X143357600Y-70154800D03*
X158496000Y-53848000D03*
X190703200Y-125526800D03*
X192481200Y-118821200D03*
X186131200Y-125018800D03*
X186131200Y-119583200D03*
X188569600Y-119583200D03*
X181559200Y-121869200D03*
X180340000Y-121970800D03*
X180340000Y-122986800D03*
X180086000Y-124866400D03*
X117856000Y-67005200D03*
X117602000Y-68834000D03*
X116484400Y-70104000D03*
X116484400Y-68834000D03*
X185928000Y-131826000D03*
X186474100Y-62623700D03*
X184086500Y-61556900D03*
X186626500Y-64554100D03*
X153416000Y-51816000D03*
X155194000Y-51816000D03*
X157861000Y-51435000D03*
X149631400Y-55168800D03*
X149631400Y-56946800D03*
X145288000Y-60198000D03*
X145288000Y-58420000D03*
X145288000Y-61976000D03*
X165989000Y-56515000D03*
X165989000Y-58293000D03*
X160528000Y-67437000D03*
X158750000Y-67437000D03*
X156083000Y-67605500D03*
X156845000Y-65786000D03*
X155829000Y-65786000D03*
X128016000Y-58801000D03*
X116230400Y-141376400D03*
X112141000Y-141376400D03*
X110896400Y-136398000D03*
X110896400Y-132334000D03*
X110896400Y-128270000D03*
X110896400Y-124206000D03*
X110896400Y-120142000D03*
X110896400Y-112014000D03*
X110896400Y-107950000D03*
X110896400Y-103886000D03*
X110896400Y-99822000D03*
X110896400Y-95758000D03*
X110896400Y-91694000D03*
X110896400Y-87630000D03*
X110896400Y-83566000D03*
X110896400Y-79502000D03*
X110896400Y-75438000D03*
X110896400Y-67310000D03*
X110896400Y-63246000D03*
X110896400Y-57861200D03*
X110896400Y-51003200D03*
X110896400Y-55067200D03*
X123444000Y-62103000D03*
X123444000Y-51943000D03*
X121412000Y-54102000D03*
X122174000Y-71501000D03*
X122174000Y-67310000D03*
X124587000Y-66548000D03*
X129794000Y-67183000D03*
X128016000Y-71882000D03*
X117602000Y-72771000D03*
X120777000Y-79883000D03*
X129286000Y-120015000D03*
X131318000Y-121031000D03*
%TA.AperFunction,Conductor*%
G36*
X203268621Y-48915502D02*
G01*
X203315114Y-48969158D01*
X203326500Y-49021500D01*
X203326500Y-141732500D01*
X203306498Y-141800621D01*
X203252842Y-141847114D01*
X203200500Y-141858500D01*
X110489500Y-141858500D01*
X110421379Y-141838498D01*
X110374886Y-141784842D01*
X110363500Y-141732500D01*
X110363500Y-140226261D01*
X132319294Y-140226261D01*
X132328590Y-140238276D01*
X132358189Y-140259001D01*
X132367677Y-140264479D01*
X132549277Y-140349159D01*
X132559571Y-140352907D01*
X132753122Y-140404769D01*
X132763909Y-140406671D01*
X132963525Y-140424135D01*
X132974475Y-140424135D01*
X133174091Y-140406671D01*
X133184878Y-140404769D01*
X133378429Y-140352907D01*
X133388723Y-140349159D01*
X133570323Y-140264479D01*
X133579811Y-140259001D01*
X133610248Y-140237689D01*
X133618623Y-140227212D01*
X133611554Y-140213764D01*
X132981812Y-139584022D01*
X132967868Y-139576408D01*
X132966035Y-139576539D01*
X132959420Y-139580790D01*
X132325724Y-140214486D01*
X132319294Y-140226261D01*
X110363500Y-140226261D01*
X110363500Y-139217475D01*
X131756865Y-139217475D01*
X131774329Y-139417091D01*
X131776231Y-139427878D01*
X131828093Y-139621429D01*
X131831841Y-139631723D01*
X131916521Y-139813323D01*
X131921999Y-139822811D01*
X131943311Y-139853248D01*
X131953788Y-139861623D01*
X131967236Y-139854554D01*
X132596978Y-139224812D01*
X132603356Y-139213132D01*
X133333408Y-139213132D01*
X133333539Y-139214965D01*
X133337790Y-139221580D01*
X133971486Y-139855276D01*
X133983261Y-139861706D01*
X133995276Y-139852410D01*
X134016001Y-139822811D01*
X134021479Y-139813323D01*
X134106159Y-139631723D01*
X134109907Y-139621429D01*
X134161769Y-139427878D01*
X134163671Y-139417091D01*
X134181135Y-139217475D01*
X134181135Y-139206525D01*
X134163671Y-139006909D01*
X134161769Y-138996122D01*
X134109907Y-138802571D01*
X134106159Y-138792277D01*
X134021479Y-138610677D01*
X134016001Y-138601189D01*
X133994689Y-138570752D01*
X133984212Y-138562377D01*
X133970764Y-138569446D01*
X133341022Y-139199188D01*
X133333408Y-139213132D01*
X132603356Y-139213132D01*
X132604592Y-139210868D01*
X132604461Y-139209035D01*
X132600210Y-139202420D01*
X131966514Y-138568724D01*
X131954739Y-138562294D01*
X131942724Y-138571590D01*
X131921999Y-138601189D01*
X131916521Y-138610677D01*
X131831841Y-138792277D01*
X131828093Y-138802571D01*
X131776231Y-138996122D01*
X131774329Y-139006909D01*
X131756865Y-139206525D01*
X131756865Y-139217475D01*
X110363500Y-139217475D01*
X110363500Y-136672000D01*
X131755884Y-136672000D01*
X131774314Y-136882655D01*
X131829044Y-137086910D01*
X131831366Y-137091891D01*
X131831367Y-137091892D01*
X131866424Y-137167071D01*
X131918411Y-137278558D01*
X132039699Y-137451776D01*
X132189224Y-137601301D01*
X132362442Y-137722589D01*
X132367420Y-137724910D01*
X132367423Y-137724912D01*
X132549108Y-137809633D01*
X132554090Y-137811956D01*
X132559397Y-137813378D01*
X132559408Y-137813382D01*
X132586171Y-137820553D01*
X132646793Y-137857504D01*
X132677815Y-137921365D01*
X132669386Y-137991860D01*
X132624182Y-138046606D01*
X132586170Y-138063966D01*
X132559574Y-138071092D01*
X132549277Y-138074841D01*
X132367677Y-138159521D01*
X132358189Y-138164999D01*
X132327752Y-138186311D01*
X132319377Y-138196788D01*
X132326446Y-138210236D01*
X132956188Y-138839978D01*
X132970132Y-138847592D01*
X132971965Y-138847461D01*
X132978580Y-138843210D01*
X133612276Y-138209514D01*
X133618706Y-138197739D01*
X133609410Y-138185724D01*
X133579811Y-138164999D01*
X133570323Y-138159521D01*
X133388723Y-138074841D01*
X133378426Y-138071092D01*
X133351830Y-138063966D01*
X133291207Y-138027014D01*
X133260186Y-137963154D01*
X133268614Y-137892659D01*
X133313817Y-137837912D01*
X133351829Y-137820553D01*
X133378592Y-137813382D01*
X133378603Y-137813378D01*
X133383910Y-137811956D01*
X133388892Y-137809633D01*
X133570577Y-137724912D01*
X133570580Y-137724910D01*
X133575558Y-137722589D01*
X133748776Y-137601301D01*
X133898301Y-137451776D01*
X134019589Y-137278558D01*
X134071577Y-137167071D01*
X134106633Y-137091892D01*
X134106634Y-137091891D01*
X134108956Y-137086910D01*
X134163686Y-136882655D01*
X134182116Y-136672000D01*
X134163686Y-136461345D01*
X134108956Y-136257090D01*
X134019589Y-136065442D01*
X133898301Y-135892224D01*
X133748776Y-135742699D01*
X133575558Y-135621411D01*
X133570580Y-135619090D01*
X133570577Y-135619088D01*
X133388892Y-135534367D01*
X133388891Y-135534366D01*
X133383910Y-135532044D01*
X133378602Y-135530622D01*
X133378600Y-135530621D01*
X133184970Y-135478738D01*
X133184968Y-135478738D01*
X133179655Y-135477314D01*
X132969000Y-135458884D01*
X132758345Y-135477314D01*
X132753032Y-135478738D01*
X132753030Y-135478738D01*
X132559400Y-135530621D01*
X132559398Y-135530622D01*
X132554090Y-135532044D01*
X132549109Y-135534366D01*
X132549108Y-135534367D01*
X132367423Y-135619088D01*
X132367420Y-135619090D01*
X132362442Y-135621411D01*
X132189224Y-135742699D01*
X132039699Y-135892224D01*
X131918411Y-136065442D01*
X131829044Y-136257090D01*
X131774314Y-136461345D01*
X131755884Y-136672000D01*
X110363500Y-136672000D01*
X110363500Y-129266000D01*
X131882884Y-129266000D01*
X131901314Y-129476655D01*
X131902738Y-129481968D01*
X131902738Y-129481970D01*
X131922604Y-129556109D01*
X131956044Y-129680910D01*
X132045411Y-129872558D01*
X132166699Y-130045776D01*
X132316224Y-130195301D01*
X132489442Y-130316589D01*
X132494420Y-130318910D01*
X132494423Y-130318912D01*
X132676108Y-130403633D01*
X132681090Y-130405956D01*
X132686398Y-130407378D01*
X132686400Y-130407379D01*
X132880030Y-130459262D01*
X132880032Y-130459262D01*
X132885345Y-130460686D01*
X133096000Y-130479116D01*
X133306655Y-130460686D01*
X133311968Y-130459262D01*
X133311970Y-130459262D01*
X133505600Y-130407379D01*
X133505602Y-130407378D01*
X133510910Y-130405956D01*
X133515892Y-130403633D01*
X133697577Y-130318912D01*
X133697580Y-130318910D01*
X133702558Y-130316589D01*
X133875776Y-130195301D01*
X134025301Y-130045776D01*
X134146589Y-129872558D01*
X134235956Y-129680910D01*
X134269397Y-129556109D01*
X134289262Y-129481970D01*
X134289262Y-129481968D01*
X134290686Y-129476655D01*
X134309116Y-129266000D01*
X134290686Y-129055345D01*
X134235956Y-128851090D01*
X134146589Y-128659442D01*
X134025301Y-128486224D01*
X133875776Y-128336699D01*
X133702558Y-128215411D01*
X133697580Y-128213090D01*
X133697577Y-128213088D01*
X133515892Y-128128367D01*
X133515891Y-128128366D01*
X133510910Y-128126044D01*
X133505602Y-128124622D01*
X133505600Y-128124621D01*
X133479796Y-128117707D01*
X133419173Y-128080755D01*
X133388152Y-128016894D01*
X133396580Y-127946400D01*
X133441783Y-127891653D01*
X133479796Y-127874293D01*
X133505600Y-127867379D01*
X133505602Y-127867378D01*
X133510910Y-127865956D01*
X133515892Y-127863633D01*
X133697577Y-127778912D01*
X133697580Y-127778910D01*
X133702558Y-127776589D01*
X133875776Y-127655301D01*
X134025301Y-127505776D01*
X134146589Y-127332558D01*
X134235956Y-127140910D01*
X134290686Y-126936655D01*
X134309116Y-126726000D01*
X134290686Y-126515345D01*
X134235956Y-126311090D01*
X134233633Y-126306108D01*
X134148912Y-126124423D01*
X134148910Y-126124420D01*
X134146589Y-126119442D01*
X134025301Y-125946224D01*
X133875776Y-125796699D01*
X133702558Y-125675411D01*
X133697580Y-125673090D01*
X133697577Y-125673088D01*
X133515892Y-125588367D01*
X133515891Y-125588366D01*
X133510910Y-125586044D01*
X133505602Y-125584622D01*
X133505600Y-125584621D01*
X133311970Y-125532738D01*
X133311968Y-125532738D01*
X133306655Y-125531314D01*
X133096000Y-125512884D01*
X132885345Y-125531314D01*
X132880032Y-125532738D01*
X132880030Y-125532738D01*
X132686400Y-125584621D01*
X132686398Y-125584622D01*
X132681090Y-125586044D01*
X132676109Y-125588366D01*
X132676108Y-125588367D01*
X132494423Y-125673088D01*
X132494420Y-125673090D01*
X132489442Y-125675411D01*
X132316224Y-125796699D01*
X132166699Y-125946224D01*
X132045411Y-126119442D01*
X132043090Y-126124420D01*
X132043088Y-126124423D01*
X131958367Y-126306108D01*
X131956044Y-126311090D01*
X131901314Y-126515345D01*
X131882884Y-126726000D01*
X131901314Y-126936655D01*
X131956044Y-127140910D01*
X132045411Y-127332558D01*
X132166699Y-127505776D01*
X132316224Y-127655301D01*
X132489442Y-127776589D01*
X132494420Y-127778910D01*
X132494423Y-127778912D01*
X132676108Y-127863633D01*
X132681090Y-127865956D01*
X132686398Y-127867378D01*
X132686400Y-127867379D01*
X132712204Y-127874293D01*
X132772827Y-127911245D01*
X132803848Y-127975106D01*
X132795420Y-128045600D01*
X132750217Y-128100347D01*
X132712204Y-128117707D01*
X132686400Y-128124621D01*
X132686398Y-128124622D01*
X132681090Y-128126044D01*
X132676109Y-128128366D01*
X132676108Y-128128367D01*
X132494423Y-128213088D01*
X132494420Y-128213090D01*
X132489442Y-128215411D01*
X132316224Y-128336699D01*
X132166699Y-128486224D01*
X132045411Y-128659442D01*
X131956044Y-128851090D01*
X131901314Y-129055345D01*
X131882884Y-129266000D01*
X110363500Y-129266000D01*
X110363500Y-118999000D01*
X121869884Y-118999000D01*
X121888314Y-119209655D01*
X121889738Y-119214968D01*
X121889738Y-119214970D01*
X121931175Y-119369613D01*
X121943044Y-119413910D01*
X121945366Y-119418891D01*
X121945367Y-119418892D01*
X121986736Y-119507607D01*
X122032411Y-119605558D01*
X122153699Y-119778776D01*
X122303224Y-119928301D01*
X122476442Y-120049589D01*
X122481420Y-120051910D01*
X122481423Y-120051912D01*
X122663108Y-120136633D01*
X122668090Y-120138956D01*
X122673398Y-120140378D01*
X122673400Y-120140379D01*
X122867030Y-120192262D01*
X122867032Y-120192262D01*
X122872345Y-120193686D01*
X123083000Y-120212116D01*
X123293655Y-120193686D01*
X123298968Y-120192262D01*
X123298970Y-120192262D01*
X123492600Y-120140379D01*
X123492602Y-120140378D01*
X123497910Y-120138956D01*
X123502892Y-120136633D01*
X123684577Y-120051912D01*
X123684580Y-120051910D01*
X123689558Y-120049589D01*
X123862776Y-119928301D01*
X124012301Y-119778776D01*
X124133589Y-119605558D01*
X124179265Y-119507607D01*
X124220633Y-119418892D01*
X124220634Y-119418891D01*
X124222956Y-119413910D01*
X124231293Y-119382796D01*
X124268245Y-119322173D01*
X124332106Y-119291152D01*
X124402600Y-119299580D01*
X124457347Y-119344783D01*
X124474707Y-119382796D01*
X124483044Y-119413910D01*
X124485366Y-119418891D01*
X124485367Y-119418892D01*
X124526736Y-119507607D01*
X124572411Y-119605558D01*
X124693699Y-119778776D01*
X124843224Y-119928301D01*
X125016442Y-120049589D01*
X125021420Y-120051910D01*
X125021423Y-120051912D01*
X125203108Y-120136633D01*
X125208090Y-120138956D01*
X125213398Y-120140378D01*
X125213400Y-120140379D01*
X125407030Y-120192262D01*
X125407032Y-120192262D01*
X125412345Y-120193686D01*
X125623000Y-120212116D01*
X125833655Y-120193686D01*
X125838968Y-120192262D01*
X125838970Y-120192262D01*
X126032600Y-120140379D01*
X126032602Y-120140378D01*
X126037910Y-120138956D01*
X126042892Y-120136633D01*
X126224577Y-120051912D01*
X126224580Y-120051910D01*
X126229558Y-120049589D01*
X126278956Y-120015000D01*
X128422771Y-120015000D01*
X128423461Y-120021565D01*
X128426407Y-120049589D01*
X128441635Y-120194475D01*
X128497401Y-120366107D01*
X128587633Y-120522393D01*
X128592051Y-120527300D01*
X128592052Y-120527301D01*
X128703965Y-120651593D01*
X128708387Y-120656504D01*
X128713729Y-120660385D01*
X128713731Y-120660387D01*
X128819074Y-120736923D01*
X128854385Y-120762578D01*
X128860413Y-120765262D01*
X128860415Y-120765263D01*
X129013217Y-120833295D01*
X129019248Y-120835980D01*
X129107508Y-120854740D01*
X129189311Y-120872128D01*
X129189315Y-120872128D01*
X129195768Y-120873500D01*
X129376232Y-120873500D01*
X129382685Y-120872128D01*
X129382689Y-120872128D01*
X129464492Y-120854740D01*
X129552752Y-120835980D01*
X129558783Y-120833295D01*
X129711585Y-120765263D01*
X129711587Y-120765262D01*
X129717615Y-120762578D01*
X129752926Y-120736923D01*
X129858269Y-120660387D01*
X129858271Y-120660385D01*
X129863613Y-120656504D01*
X129882911Y-120635072D01*
X129969153Y-120539290D01*
X130029599Y-120502050D01*
X130062789Y-120497600D01*
X136373600Y-120497600D01*
X136441721Y-120517602D01*
X136488214Y-120571258D01*
X136499600Y-120623600D01*
X136499600Y-126029094D01*
X136479598Y-126097215D01*
X136425942Y-126143708D01*
X136408862Y-126150058D01*
X136270874Y-126190278D01*
X136026763Y-126302815D01*
X135975112Y-126336679D01*
X135805881Y-126447631D01*
X135805876Y-126447635D01*
X135801968Y-126450197D01*
X135601426Y-126629188D01*
X135429544Y-126835854D01*
X135290096Y-127065656D01*
X135288287Y-127069970D01*
X135288285Y-127069974D01*
X135256450Y-127145892D01*
X135186148Y-127313545D01*
X135119981Y-127574077D01*
X135093050Y-127841526D01*
X135093274Y-127846192D01*
X135093274Y-127846197D01*
X135099466Y-127975106D01*
X135105947Y-128110019D01*
X135158388Y-128373656D01*
X135249220Y-128626646D01*
X135376450Y-128863431D01*
X135379241Y-128867168D01*
X135379245Y-128867175D01*
X135491720Y-129017796D01*
X135537281Y-129078810D01*
X135540590Y-129082090D01*
X135540595Y-129082096D01*
X135720589Y-129260525D01*
X135728180Y-129268050D01*
X135731942Y-129270808D01*
X135731945Y-129270811D01*
X135852745Y-129359385D01*
X135944954Y-129426995D01*
X135949089Y-129429171D01*
X135949093Y-129429173D01*
X136039341Y-129476655D01*
X136182840Y-129552154D01*
X136214743Y-129563295D01*
X136415141Y-129633277D01*
X136472859Y-129674619D01*
X136499062Y-129740603D01*
X136499600Y-129752232D01*
X136499600Y-136570094D01*
X136479598Y-136638215D01*
X136425942Y-136684708D01*
X136408862Y-136691058D01*
X136270874Y-136731278D01*
X136026763Y-136843815D01*
X136022854Y-136846378D01*
X135805881Y-136988631D01*
X135805876Y-136988635D01*
X135801968Y-136991197D01*
X135795423Y-136997039D01*
X135623152Y-137150797D01*
X135601426Y-137170188D01*
X135429544Y-137376854D01*
X135427121Y-137380847D01*
X135293346Y-137601301D01*
X135290096Y-137606656D01*
X135288287Y-137610970D01*
X135288285Y-137610974D01*
X135223140Y-137766328D01*
X135186148Y-137854545D01*
X135119981Y-138115077D01*
X135093050Y-138382526D01*
X135105947Y-138651019D01*
X135158388Y-138914656D01*
X135249220Y-139167646D01*
X135251432Y-139171762D01*
X135251433Y-139171765D01*
X135315094Y-139290242D01*
X135376450Y-139404431D01*
X135379241Y-139408168D01*
X135379245Y-139408175D01*
X135471285Y-139531431D01*
X135537281Y-139619810D01*
X135540590Y-139623090D01*
X135540595Y-139623096D01*
X135665394Y-139746810D01*
X135728180Y-139809050D01*
X135731942Y-139811808D01*
X135731945Y-139811811D01*
X135801063Y-139862490D01*
X135944954Y-139967995D01*
X135949089Y-139970171D01*
X135949093Y-139970173D01*
X136099020Y-140049054D01*
X136182840Y-140093154D01*
X136188112Y-140094995D01*
X136415141Y-140174277D01*
X136472859Y-140215619D01*
X136499062Y-140281603D01*
X136499600Y-140293232D01*
X136499600Y-140868400D01*
X139496800Y-140868400D01*
X139496800Y-121799734D01*
X145659100Y-121799734D01*
X145665855Y-121861916D01*
X145716985Y-121998305D01*
X145804339Y-122114861D01*
X145920895Y-122202215D01*
X146057284Y-122253345D01*
X146119466Y-122260100D01*
X148215734Y-122260100D01*
X148277916Y-122253345D01*
X148414305Y-122202215D01*
X148530861Y-122114861D01*
X148618215Y-121998305D01*
X148669345Y-121861916D01*
X148676100Y-121799734D01*
X151297900Y-121799734D01*
X151304655Y-121861916D01*
X151355785Y-121998305D01*
X151443139Y-122114861D01*
X151559695Y-122202215D01*
X151696084Y-122253345D01*
X151758266Y-122260100D01*
X153854534Y-122260100D01*
X153916716Y-122253345D01*
X154053105Y-122202215D01*
X154169661Y-122114861D01*
X154257015Y-121998305D01*
X154308145Y-121861916D01*
X154312141Y-121825134D01*
X159400500Y-121825134D01*
X159407255Y-121887316D01*
X159458385Y-122023705D01*
X159545739Y-122140261D01*
X159662295Y-122227615D01*
X159798684Y-122278745D01*
X159860866Y-122285500D01*
X161957134Y-122285500D01*
X162019316Y-122278745D01*
X162155705Y-122227615D01*
X162272261Y-122140261D01*
X162359615Y-122023705D01*
X162410745Y-121887316D01*
X162417500Y-121825134D01*
X164988500Y-121825134D01*
X164995255Y-121887316D01*
X165046385Y-122023705D01*
X165133739Y-122140261D01*
X165250295Y-122227615D01*
X165386684Y-122278745D01*
X165448866Y-122285500D01*
X167545134Y-122285500D01*
X167607316Y-122278745D01*
X167743705Y-122227615D01*
X167860261Y-122140261D01*
X167947615Y-122023705D01*
X167998745Y-121887316D01*
X168005500Y-121825134D01*
X168005500Y-119728866D01*
X167998745Y-119666684D01*
X167947615Y-119530295D01*
X167860261Y-119413739D01*
X167743705Y-119326385D01*
X167607316Y-119275255D01*
X167545134Y-119268500D01*
X165448866Y-119268500D01*
X165386684Y-119275255D01*
X165250295Y-119326385D01*
X165133739Y-119413739D01*
X165046385Y-119530295D01*
X164995255Y-119666684D01*
X164988500Y-119728866D01*
X164988500Y-121825134D01*
X162417500Y-121825134D01*
X162417500Y-119728866D01*
X162410745Y-119666684D01*
X162359615Y-119530295D01*
X162272261Y-119413739D01*
X162155705Y-119326385D01*
X162019316Y-119275255D01*
X161957134Y-119268500D01*
X159860866Y-119268500D01*
X159798684Y-119275255D01*
X159662295Y-119326385D01*
X159545739Y-119413739D01*
X159458385Y-119530295D01*
X159407255Y-119666684D01*
X159400500Y-119728866D01*
X159400500Y-121825134D01*
X154312141Y-121825134D01*
X154314900Y-121799734D01*
X154314900Y-119703466D01*
X154308145Y-119641284D01*
X154257015Y-119504895D01*
X154169661Y-119388339D01*
X154053105Y-119300985D01*
X153916716Y-119249855D01*
X153854534Y-119243100D01*
X151758266Y-119243100D01*
X151696084Y-119249855D01*
X151559695Y-119300985D01*
X151443139Y-119388339D01*
X151355785Y-119504895D01*
X151304655Y-119641284D01*
X151297900Y-119703466D01*
X151297900Y-121799734D01*
X148676100Y-121799734D01*
X148676100Y-119703466D01*
X148669345Y-119641284D01*
X148618215Y-119504895D01*
X148530861Y-119388339D01*
X148414305Y-119300985D01*
X148277916Y-119249855D01*
X148215734Y-119243100D01*
X146119466Y-119243100D01*
X146057284Y-119249855D01*
X145920895Y-119300985D01*
X145804339Y-119388339D01*
X145716985Y-119504895D01*
X145665855Y-119641284D01*
X145659100Y-119703466D01*
X145659100Y-121799734D01*
X139496800Y-121799734D01*
X139496800Y-117500400D01*
X133171200Y-117500400D01*
X133103079Y-117480398D01*
X133056586Y-117426742D01*
X133045200Y-117374400D01*
X133045200Y-114951134D01*
X154336500Y-114951134D01*
X154343255Y-115013316D01*
X154394385Y-115149705D01*
X154481739Y-115266261D01*
X154598295Y-115353615D01*
X154734684Y-115404745D01*
X154796866Y-115411500D01*
X158893134Y-115411500D01*
X158955316Y-115404745D01*
X159091705Y-115353615D01*
X159208261Y-115266261D01*
X159295615Y-115149705D01*
X159346745Y-115013316D01*
X159353500Y-114951134D01*
X159353500Y-110854866D01*
X159346745Y-110792684D01*
X159295615Y-110656295D01*
X159208261Y-110539739D01*
X159091705Y-110452385D01*
X158955316Y-110401255D01*
X158893134Y-110394500D01*
X154796866Y-110394500D01*
X154734684Y-110401255D01*
X154598295Y-110452385D01*
X154481739Y-110539739D01*
X154394385Y-110656295D01*
X154343255Y-110792684D01*
X154336500Y-110854866D01*
X154336500Y-114951134D01*
X133045200Y-114951134D01*
X133045200Y-107775526D01*
X155032050Y-107775526D01*
X155044947Y-108044019D01*
X155097388Y-108307656D01*
X155188220Y-108560646D01*
X155315450Y-108797431D01*
X155318241Y-108801168D01*
X155318245Y-108801175D01*
X155399887Y-108910506D01*
X155476281Y-109012810D01*
X155479590Y-109016090D01*
X155479595Y-109016096D01*
X155663863Y-109198762D01*
X155667180Y-109202050D01*
X155670942Y-109204808D01*
X155670945Y-109204811D01*
X155783299Y-109287192D01*
X155883954Y-109360995D01*
X155888089Y-109363171D01*
X155888093Y-109363173D01*
X156117698Y-109483975D01*
X156121840Y-109486154D01*
X156375613Y-109574775D01*
X156380206Y-109575647D01*
X156635109Y-109624042D01*
X156635112Y-109624042D01*
X156639698Y-109624913D01*
X156767370Y-109629929D01*
X156903625Y-109635283D01*
X156903630Y-109635283D01*
X156908293Y-109635466D01*
X157012607Y-109624042D01*
X157170844Y-109606713D01*
X157170850Y-109606712D01*
X157175497Y-109606203D01*
X157180021Y-109605012D01*
X157430918Y-109538956D01*
X157430920Y-109538955D01*
X157435441Y-109537765D01*
X157439738Y-109535919D01*
X157678120Y-109433502D01*
X157678122Y-109433501D01*
X157682414Y-109431657D01*
X157801071Y-109358230D01*
X157907017Y-109292669D01*
X157907021Y-109292666D01*
X157910990Y-109290210D01*
X158116149Y-109116530D01*
X158293382Y-108914434D01*
X158438797Y-108688361D01*
X158549199Y-108443278D01*
X158586209Y-108312051D01*
X158620893Y-108189072D01*
X158620894Y-108189069D01*
X158622163Y-108184568D01*
X158640043Y-108044019D01*
X158655688Y-107921045D01*
X158655688Y-107921041D01*
X158656086Y-107917915D01*
X158658571Y-107823000D01*
X158638650Y-107554937D01*
X158579327Y-107292763D01*
X158481902Y-107042238D01*
X158348518Y-106808864D01*
X158182105Y-106597769D01*
X157986317Y-106413591D01*
X157765457Y-106260374D01*
X157761264Y-106258306D01*
X157528564Y-106143551D01*
X157528561Y-106143550D01*
X157524376Y-106141486D01*
X157476745Y-106126239D01*
X157422621Y-106108914D01*
X157268370Y-106059538D01*
X157263763Y-106058788D01*
X157263760Y-106058787D01*
X157007674Y-106017081D01*
X157007675Y-106017081D01*
X157003063Y-106016330D01*
X156872719Y-106014624D01*
X156738961Y-106012873D01*
X156738958Y-106012873D01*
X156734284Y-106012812D01*
X156467937Y-106049060D01*
X156209874Y-106124278D01*
X155965763Y-106236815D01*
X155961854Y-106239378D01*
X155744881Y-106381631D01*
X155744876Y-106381635D01*
X155740968Y-106384197D01*
X155540426Y-106563188D01*
X155368544Y-106769854D01*
X155229096Y-106999656D01*
X155125148Y-107247545D01*
X155058981Y-107508077D01*
X155032050Y-107775526D01*
X133045200Y-107775526D01*
X133045200Y-99009200D01*
X154686371Y-99009200D01*
X154705235Y-99188675D01*
X154761001Y-99360307D01*
X154851233Y-99516593D01*
X154971987Y-99650704D01*
X154977329Y-99654585D01*
X154977331Y-99654587D01*
X155112643Y-99752897D01*
X155117985Y-99756778D01*
X155124013Y-99759462D01*
X155124015Y-99759463D01*
X155276817Y-99827495D01*
X155282848Y-99830180D01*
X155371108Y-99848940D01*
X155452911Y-99866328D01*
X155452915Y-99866328D01*
X155459368Y-99867700D01*
X155639832Y-99867700D01*
X155646285Y-99866328D01*
X155646289Y-99866328D01*
X155728092Y-99848940D01*
X155816352Y-99830180D01*
X155822383Y-99827495D01*
X155975185Y-99759463D01*
X155975187Y-99759462D01*
X155981215Y-99756778D01*
X155986557Y-99752897D01*
X156121869Y-99654587D01*
X156121871Y-99654585D01*
X156127213Y-99650704D01*
X156247967Y-99516593D01*
X156338199Y-99360307D01*
X156393965Y-99188675D01*
X156407490Y-99060000D01*
X157226371Y-99060000D01*
X157227061Y-99066565D01*
X157240556Y-99194954D01*
X157245235Y-99239475D01*
X157301001Y-99411107D01*
X157391233Y-99567393D01*
X157395651Y-99572300D01*
X157395652Y-99572301D01*
X157469743Y-99654587D01*
X157511987Y-99701504D01*
X157517329Y-99705385D01*
X157517331Y-99705387D01*
X157652643Y-99803697D01*
X157657985Y-99807578D01*
X157664013Y-99810262D01*
X157664015Y-99810263D01*
X157816817Y-99878295D01*
X157822848Y-99880980D01*
X157911108Y-99899740D01*
X157992911Y-99917128D01*
X157992915Y-99917128D01*
X157999368Y-99918500D01*
X158179832Y-99918500D01*
X158186285Y-99917128D01*
X158186289Y-99917128D01*
X158268092Y-99899740D01*
X158356352Y-99880980D01*
X158362383Y-99878295D01*
X158515185Y-99810263D01*
X158515187Y-99810262D01*
X158521215Y-99807578D01*
X158526557Y-99803697D01*
X158661869Y-99705387D01*
X158661871Y-99705385D01*
X158667213Y-99701504D01*
X158709457Y-99654587D01*
X158783548Y-99572301D01*
X158783549Y-99572300D01*
X158787967Y-99567393D01*
X158878199Y-99411107D01*
X158933965Y-99239475D01*
X158938645Y-99194954D01*
X158952139Y-99066565D01*
X158952829Y-99060000D01*
X158933965Y-98880525D01*
X158878199Y-98708893D01*
X158787967Y-98552607D01*
X158667213Y-98418496D01*
X158604053Y-98372607D01*
X158526557Y-98316303D01*
X158526556Y-98316302D01*
X158521215Y-98312422D01*
X158515187Y-98309738D01*
X158515185Y-98309737D01*
X158362383Y-98241705D01*
X158362381Y-98241705D01*
X158356352Y-98239020D01*
X158268092Y-98220260D01*
X158186289Y-98202872D01*
X158186285Y-98202872D01*
X158179832Y-98201500D01*
X157999368Y-98201500D01*
X157992915Y-98202872D01*
X157992911Y-98202872D01*
X157911108Y-98220260D01*
X157822848Y-98239020D01*
X157816819Y-98241704D01*
X157816817Y-98241705D01*
X157664016Y-98309737D01*
X157664014Y-98309738D01*
X157657986Y-98312422D01*
X157652645Y-98316302D01*
X157652644Y-98316303D01*
X157517331Y-98414613D01*
X157517329Y-98414615D01*
X157511987Y-98418496D01*
X157391233Y-98552607D01*
X157301001Y-98708893D01*
X157245235Y-98880525D01*
X157226371Y-99060000D01*
X156407490Y-99060000D01*
X156412829Y-99009200D01*
X156399304Y-98880525D01*
X156394655Y-98836289D01*
X156394655Y-98836288D01*
X156393965Y-98829725D01*
X156338199Y-98658093D01*
X156247967Y-98501807D01*
X156177376Y-98423407D01*
X156131635Y-98372607D01*
X156131634Y-98372606D01*
X156127213Y-98367696D01*
X156047440Y-98309737D01*
X155986557Y-98265503D01*
X155986556Y-98265502D01*
X155981215Y-98261622D01*
X155975187Y-98258938D01*
X155975185Y-98258937D01*
X155822383Y-98190905D01*
X155822381Y-98190905D01*
X155816352Y-98188220D01*
X155728092Y-98169460D01*
X155646289Y-98152072D01*
X155646285Y-98152072D01*
X155639832Y-98150700D01*
X155459368Y-98150700D01*
X155452915Y-98152072D01*
X155452911Y-98152072D01*
X155371108Y-98169460D01*
X155282848Y-98188220D01*
X155276819Y-98190904D01*
X155276817Y-98190905D01*
X155124016Y-98258937D01*
X155124014Y-98258938D01*
X155117986Y-98261622D01*
X155112645Y-98265502D01*
X155112644Y-98265503D01*
X154977331Y-98363813D01*
X154977329Y-98363815D01*
X154971987Y-98367696D01*
X154967566Y-98372606D01*
X154967565Y-98372607D01*
X154921825Y-98423407D01*
X154851233Y-98501807D01*
X154761001Y-98658093D01*
X154705235Y-98829725D01*
X154704545Y-98836288D01*
X154704545Y-98836289D01*
X154699896Y-98880525D01*
X154686371Y-99009200D01*
X133045200Y-99009200D01*
X133045200Y-97425134D01*
X136683500Y-97425134D01*
X136690255Y-97487316D01*
X136741385Y-97623705D01*
X136828739Y-97740261D01*
X136945295Y-97827615D01*
X137081684Y-97878745D01*
X137143866Y-97885500D01*
X141240134Y-97885500D01*
X141302316Y-97878745D01*
X141438705Y-97827615D01*
X141555261Y-97740261D01*
X141642615Y-97623705D01*
X141693745Y-97487316D01*
X141700500Y-97425134D01*
X171862500Y-97425134D01*
X171869255Y-97487316D01*
X171920385Y-97623705D01*
X172007739Y-97740261D01*
X172124295Y-97827615D01*
X172260684Y-97878745D01*
X172322866Y-97885500D01*
X176419134Y-97885500D01*
X176481316Y-97878745D01*
X176617705Y-97827615D01*
X176734261Y-97740261D01*
X176821615Y-97623705D01*
X176872745Y-97487316D01*
X176879500Y-97425134D01*
X176879500Y-93328866D01*
X176872745Y-93266684D01*
X176821615Y-93130295D01*
X176734261Y-93013739D01*
X176617705Y-92926385D01*
X176481316Y-92875255D01*
X176419134Y-92868500D01*
X172322866Y-92868500D01*
X172260684Y-92875255D01*
X172124295Y-92926385D01*
X172007739Y-93013739D01*
X171920385Y-93130295D01*
X171869255Y-93266684D01*
X171862500Y-93328866D01*
X171862500Y-97425134D01*
X141700500Y-97425134D01*
X141700500Y-95329526D01*
X142459050Y-95329526D01*
X142471947Y-95598019D01*
X142524388Y-95861656D01*
X142615220Y-96114646D01*
X142742450Y-96351431D01*
X142745241Y-96355168D01*
X142745245Y-96355175D01*
X142826887Y-96464506D01*
X142903281Y-96566810D01*
X142906590Y-96570090D01*
X142906595Y-96570096D01*
X143090863Y-96752762D01*
X143094180Y-96756050D01*
X143097942Y-96758808D01*
X143097945Y-96758811D01*
X143210299Y-96841192D01*
X143310954Y-96914995D01*
X143315089Y-96917171D01*
X143315093Y-96917173D01*
X143544698Y-97037975D01*
X143548840Y-97040154D01*
X143802613Y-97128775D01*
X143807206Y-97129647D01*
X144062109Y-97178042D01*
X144062112Y-97178042D01*
X144066698Y-97178913D01*
X144194370Y-97183929D01*
X144330625Y-97189283D01*
X144330630Y-97189283D01*
X144335293Y-97189466D01*
X144439607Y-97178042D01*
X144597844Y-97160713D01*
X144597850Y-97160712D01*
X144602497Y-97160203D01*
X144607021Y-97159012D01*
X144857918Y-97092956D01*
X144857920Y-97092955D01*
X144862441Y-97091765D01*
X144866738Y-97089919D01*
X145105120Y-96987502D01*
X145105122Y-96987501D01*
X145109414Y-96985657D01*
X145228071Y-96912230D01*
X145334017Y-96846669D01*
X145334021Y-96846666D01*
X145337990Y-96844210D01*
X145543149Y-96670530D01*
X145720382Y-96468434D01*
X145865797Y-96242361D01*
X145976199Y-95997278D01*
X146013209Y-95866051D01*
X146047893Y-95743072D01*
X146047894Y-95743069D01*
X146049163Y-95738568D01*
X146067043Y-95598019D01*
X146082688Y-95475045D01*
X146082688Y-95475041D01*
X146083086Y-95471915D01*
X146085571Y-95377000D01*
X146082043Y-95329526D01*
X167478050Y-95329526D01*
X167490947Y-95598019D01*
X167543388Y-95861656D01*
X167634220Y-96114646D01*
X167761450Y-96351431D01*
X167764241Y-96355168D01*
X167764245Y-96355175D01*
X167845887Y-96464506D01*
X167922281Y-96566810D01*
X167925590Y-96570090D01*
X167925595Y-96570096D01*
X168109863Y-96752762D01*
X168113180Y-96756050D01*
X168116942Y-96758808D01*
X168116945Y-96758811D01*
X168229299Y-96841192D01*
X168329954Y-96914995D01*
X168334089Y-96917171D01*
X168334093Y-96917173D01*
X168563698Y-97037975D01*
X168567840Y-97040154D01*
X168821613Y-97128775D01*
X168826206Y-97129647D01*
X169081109Y-97178042D01*
X169081112Y-97178042D01*
X169085698Y-97178913D01*
X169213370Y-97183929D01*
X169349625Y-97189283D01*
X169349630Y-97189283D01*
X169354293Y-97189466D01*
X169458607Y-97178042D01*
X169616844Y-97160713D01*
X169616850Y-97160712D01*
X169621497Y-97160203D01*
X169626021Y-97159012D01*
X169876918Y-97092956D01*
X169876920Y-97092955D01*
X169881441Y-97091765D01*
X169885738Y-97089919D01*
X170124120Y-96987502D01*
X170124122Y-96987501D01*
X170128414Y-96985657D01*
X170247071Y-96912230D01*
X170353017Y-96846669D01*
X170353021Y-96846666D01*
X170356990Y-96844210D01*
X170562149Y-96670530D01*
X170739382Y-96468434D01*
X170884797Y-96242361D01*
X170995199Y-95997278D01*
X171032209Y-95866051D01*
X171066893Y-95743072D01*
X171066894Y-95743069D01*
X171068163Y-95738568D01*
X171086043Y-95598019D01*
X171101688Y-95475045D01*
X171101688Y-95475041D01*
X171102086Y-95471915D01*
X171104571Y-95377000D01*
X171084650Y-95108937D01*
X171025327Y-94846763D01*
X170927902Y-94596238D01*
X170794518Y-94362864D01*
X170628105Y-94151769D01*
X170432317Y-93967591D01*
X170211457Y-93814374D01*
X170207264Y-93812306D01*
X169974564Y-93697551D01*
X169974561Y-93697550D01*
X169970376Y-93695486D01*
X169922745Y-93680239D01*
X169868621Y-93662914D01*
X169714370Y-93613538D01*
X169709763Y-93612788D01*
X169709760Y-93612787D01*
X169453674Y-93571081D01*
X169453675Y-93571081D01*
X169449063Y-93570330D01*
X169318719Y-93568624D01*
X169184961Y-93566873D01*
X169184958Y-93566873D01*
X169180284Y-93566812D01*
X168913937Y-93603060D01*
X168655874Y-93678278D01*
X168411763Y-93790815D01*
X168407854Y-93793378D01*
X168190881Y-93935631D01*
X168190876Y-93935635D01*
X168186968Y-93938197D01*
X167986426Y-94117188D01*
X167814544Y-94323854D01*
X167675096Y-94553656D01*
X167571148Y-94801545D01*
X167504981Y-95062077D01*
X167478050Y-95329526D01*
X146082043Y-95329526D01*
X146065650Y-95108937D01*
X146006327Y-94846763D01*
X145908902Y-94596238D01*
X145775518Y-94362864D01*
X145609105Y-94151769D01*
X145413317Y-93967591D01*
X145192457Y-93814374D01*
X145188264Y-93812306D01*
X144955564Y-93697551D01*
X144955561Y-93697550D01*
X144951376Y-93695486D01*
X144903745Y-93680239D01*
X144849621Y-93662914D01*
X144695370Y-93613538D01*
X144690763Y-93612788D01*
X144690760Y-93612787D01*
X144434674Y-93571081D01*
X144434675Y-93571081D01*
X144430063Y-93570330D01*
X144299719Y-93568624D01*
X144165961Y-93566873D01*
X144165958Y-93566873D01*
X144161284Y-93566812D01*
X143894937Y-93603060D01*
X143636874Y-93678278D01*
X143392763Y-93790815D01*
X143388854Y-93793378D01*
X143171881Y-93935631D01*
X143171876Y-93935635D01*
X143167968Y-93938197D01*
X142967426Y-94117188D01*
X142795544Y-94323854D01*
X142656096Y-94553656D01*
X142552148Y-94801545D01*
X142485981Y-95062077D01*
X142459050Y-95329526D01*
X141700500Y-95329526D01*
X141700500Y-93328866D01*
X141693745Y-93266684D01*
X141642615Y-93130295D01*
X141555261Y-93013739D01*
X141438705Y-92926385D01*
X141302316Y-92875255D01*
X141240134Y-92868500D01*
X137143866Y-92868500D01*
X137081684Y-92875255D01*
X136945295Y-92926385D01*
X136828739Y-93013739D01*
X136741385Y-93130295D01*
X136690255Y-93266684D01*
X136683500Y-93328866D01*
X136683500Y-97425134D01*
X133045200Y-97425134D01*
X133045200Y-82756526D01*
X155032050Y-82756526D01*
X155044947Y-83025019D01*
X155097388Y-83288656D01*
X155188220Y-83541646D01*
X155315450Y-83778431D01*
X155318241Y-83782168D01*
X155318245Y-83782175D01*
X155399887Y-83891506D01*
X155476281Y-83993810D01*
X155479590Y-83997090D01*
X155479595Y-83997096D01*
X155663863Y-84179762D01*
X155667180Y-84183050D01*
X155670942Y-84185808D01*
X155670945Y-84185811D01*
X155783299Y-84268192D01*
X155883954Y-84341995D01*
X155888089Y-84344171D01*
X155888093Y-84344173D01*
X156117698Y-84464975D01*
X156121840Y-84467154D01*
X156375613Y-84555775D01*
X156380206Y-84556647D01*
X156635109Y-84605042D01*
X156635112Y-84605042D01*
X156639698Y-84605913D01*
X156767370Y-84610929D01*
X156903625Y-84616283D01*
X156903630Y-84616283D01*
X156908293Y-84616466D01*
X157012607Y-84605042D01*
X157170844Y-84587713D01*
X157170850Y-84587712D01*
X157175497Y-84587203D01*
X157180021Y-84586012D01*
X157430918Y-84519956D01*
X157430920Y-84519955D01*
X157435441Y-84518765D01*
X157439738Y-84516919D01*
X157678120Y-84414502D01*
X157678122Y-84414501D01*
X157682414Y-84412657D01*
X157801071Y-84339230D01*
X157907017Y-84273669D01*
X157907021Y-84273666D01*
X157910990Y-84271210D01*
X158116149Y-84097530D01*
X158293382Y-83895434D01*
X158438797Y-83669361D01*
X158549199Y-83424278D01*
X158586209Y-83293051D01*
X158620893Y-83170072D01*
X158620894Y-83170069D01*
X158622163Y-83165568D01*
X158640043Y-83025019D01*
X158655688Y-82902045D01*
X158655688Y-82902041D01*
X158656086Y-82898915D01*
X158658571Y-82804000D01*
X158638650Y-82535937D01*
X158579327Y-82273763D01*
X158481902Y-82023238D01*
X158348518Y-81789864D01*
X158182105Y-81578769D01*
X157986317Y-81394591D01*
X157765457Y-81241374D01*
X157761264Y-81239306D01*
X157528564Y-81124551D01*
X157528561Y-81124550D01*
X157524376Y-81122486D01*
X157476745Y-81107239D01*
X157422621Y-81089914D01*
X157268370Y-81040538D01*
X157263763Y-81039788D01*
X157263760Y-81039787D01*
X157007674Y-80998081D01*
X157007675Y-80998081D01*
X157003063Y-80997330D01*
X156872719Y-80995624D01*
X156738961Y-80993873D01*
X156738958Y-80993873D01*
X156734284Y-80993812D01*
X156467937Y-81030060D01*
X156209874Y-81105278D01*
X155965763Y-81217815D01*
X155961854Y-81220378D01*
X155744881Y-81362631D01*
X155744876Y-81362635D01*
X155740968Y-81365197D01*
X155540426Y-81544188D01*
X155368544Y-81750854D01*
X155229096Y-81980656D01*
X155125148Y-82228545D01*
X155058981Y-82489077D01*
X155032050Y-82756526D01*
X133045200Y-82756526D01*
X133045200Y-79772134D01*
X154463500Y-79772134D01*
X154470255Y-79834316D01*
X154521385Y-79970705D01*
X154608739Y-80087261D01*
X154725295Y-80174615D01*
X154861684Y-80225745D01*
X154923866Y-80232500D01*
X159020134Y-80232500D01*
X159082316Y-80225745D01*
X159218705Y-80174615D01*
X159335261Y-80087261D01*
X159422615Y-79970705D01*
X159473745Y-79834316D01*
X159480500Y-79772134D01*
X159480500Y-75675866D01*
X159473745Y-75613684D01*
X159422615Y-75477295D01*
X159335261Y-75360739D01*
X159218705Y-75273385D01*
X159082316Y-75222255D01*
X159020134Y-75215500D01*
X154923866Y-75215500D01*
X154861684Y-75222255D01*
X154725295Y-75273385D01*
X154608739Y-75360739D01*
X154521385Y-75477295D01*
X154470255Y-75613684D01*
X154463500Y-75675866D01*
X154463500Y-79772134D01*
X133045200Y-79772134D01*
X133045200Y-71703200D01*
X133065202Y-71635079D01*
X133118858Y-71588586D01*
X133171200Y-71577200D01*
X180518800Y-71577200D01*
X180586921Y-71597202D01*
X180633414Y-71650858D01*
X180644800Y-71703200D01*
X180644800Y-117425200D01*
X180624798Y-117493321D01*
X180571142Y-117539814D01*
X180518800Y-117551200D01*
X172923200Y-117551200D01*
X172923200Y-140868400D01*
X175920400Y-140868400D01*
X175920400Y-138509526D01*
X179797050Y-138509526D01*
X179797274Y-138514192D01*
X179797274Y-138514197D01*
X179799928Y-138569446D01*
X179809947Y-138778019D01*
X179862388Y-139041656D01*
X179953220Y-139294646D01*
X179955432Y-139298762D01*
X179955433Y-139298765D01*
X180019555Y-139418100D01*
X180080450Y-139531431D01*
X180083241Y-139535168D01*
X180083245Y-139535175D01*
X180164887Y-139644506D01*
X180241281Y-139746810D01*
X180244590Y-139750090D01*
X180244595Y-139750096D01*
X180357184Y-139861706D01*
X180432180Y-139936050D01*
X180435942Y-139938808D01*
X180435945Y-139938811D01*
X180478718Y-139970173D01*
X180648954Y-140094995D01*
X180653089Y-140097171D01*
X180653093Y-140097173D01*
X180876067Y-140214486D01*
X180886840Y-140220154D01*
X180937053Y-140237689D01*
X181118017Y-140300884D01*
X181140613Y-140308775D01*
X181145206Y-140309647D01*
X181400109Y-140358042D01*
X181400112Y-140358042D01*
X181404698Y-140358913D01*
X181532370Y-140363929D01*
X181668625Y-140369283D01*
X181668630Y-140369283D01*
X181673293Y-140369466D01*
X181777607Y-140358042D01*
X181935844Y-140340713D01*
X181935850Y-140340712D01*
X181940497Y-140340203D01*
X181945021Y-140339012D01*
X182195918Y-140272956D01*
X182195920Y-140272955D01*
X182200441Y-140271765D01*
X182217400Y-140264479D01*
X182443120Y-140167502D01*
X182443122Y-140167501D01*
X182447414Y-140165657D01*
X182568099Y-140090975D01*
X182672017Y-140026669D01*
X182672021Y-140026666D01*
X182675990Y-140024210D01*
X182875079Y-139855669D01*
X190770001Y-139855669D01*
X190770371Y-139862490D01*
X190775895Y-139913352D01*
X190779521Y-139928604D01*
X190824676Y-140049054D01*
X190833214Y-140064649D01*
X190909715Y-140166724D01*
X190922276Y-140179285D01*
X191024351Y-140255786D01*
X191039946Y-140264324D01*
X191160394Y-140309478D01*
X191175649Y-140313105D01*
X191226514Y-140318631D01*
X191233328Y-140319000D01*
X192005885Y-140319000D01*
X192021124Y-140314525D01*
X192022329Y-140313135D01*
X192024000Y-140305452D01*
X192024000Y-140300884D01*
X192532000Y-140300884D01*
X192536475Y-140316123D01*
X192537865Y-140317328D01*
X192545548Y-140318999D01*
X193322669Y-140318999D01*
X193329490Y-140318629D01*
X193380352Y-140313105D01*
X193395604Y-140309479D01*
X193516054Y-140264324D01*
X193531649Y-140255786D01*
X193633724Y-140179285D01*
X193646285Y-140166724D01*
X193722786Y-140064649D01*
X193731324Y-140049054D01*
X193776478Y-139928606D01*
X193780105Y-139913351D01*
X193785631Y-139862486D01*
X193786000Y-139855672D01*
X193786000Y-139083115D01*
X193781525Y-139067876D01*
X193780135Y-139066671D01*
X193772452Y-139065000D01*
X192550115Y-139065000D01*
X192534876Y-139069475D01*
X192533671Y-139070865D01*
X192532000Y-139078548D01*
X192532000Y-140300884D01*
X192024000Y-140300884D01*
X192024000Y-139083115D01*
X192019525Y-139067876D01*
X192018135Y-139066671D01*
X192010452Y-139065000D01*
X190788116Y-139065000D01*
X190772877Y-139069475D01*
X190771672Y-139070865D01*
X190770001Y-139078548D01*
X190770001Y-139855669D01*
X182875079Y-139855669D01*
X182881149Y-139850530D01*
X183058382Y-139648434D01*
X183075753Y-139621429D01*
X183201269Y-139426291D01*
X183203797Y-139422361D01*
X183314199Y-139177278D01*
X183351209Y-139046051D01*
X183385893Y-138923072D01*
X183385894Y-138923069D01*
X183387163Y-138918568D01*
X183401920Y-138802571D01*
X183420688Y-138655045D01*
X183420688Y-138655041D01*
X183421086Y-138651915D01*
X183423571Y-138557000D01*
X183422225Y-138538885D01*
X190770000Y-138538885D01*
X190774475Y-138554124D01*
X190775865Y-138555329D01*
X190783548Y-138557000D01*
X192005885Y-138557000D01*
X192021124Y-138552525D01*
X192022329Y-138551135D01*
X192024000Y-138543452D01*
X192024000Y-138538885D01*
X192532000Y-138538885D01*
X192536475Y-138554124D01*
X192537865Y-138555329D01*
X192545548Y-138557000D01*
X193767884Y-138557000D01*
X193783123Y-138552525D01*
X193784328Y-138551135D01*
X193785999Y-138543452D01*
X193785999Y-137766331D01*
X193785629Y-137759510D01*
X193780105Y-137708648D01*
X193776479Y-137693396D01*
X193731324Y-137572946D01*
X193722786Y-137557351D01*
X193646285Y-137455276D01*
X193633724Y-137442715D01*
X193531649Y-137366214D01*
X193516054Y-137357676D01*
X193395606Y-137312522D01*
X193380351Y-137308895D01*
X193329486Y-137303369D01*
X193322672Y-137303000D01*
X192550115Y-137303000D01*
X192534876Y-137307475D01*
X192533671Y-137308865D01*
X192532000Y-137316548D01*
X192532000Y-138538885D01*
X192024000Y-138538885D01*
X192024000Y-137321116D01*
X192019525Y-137305877D01*
X192018135Y-137304672D01*
X192010452Y-137303001D01*
X191233331Y-137303001D01*
X191226510Y-137303371D01*
X191175648Y-137308895D01*
X191160396Y-137312521D01*
X191039946Y-137357676D01*
X191024351Y-137366214D01*
X190922276Y-137442715D01*
X190909715Y-137455276D01*
X190833214Y-137557351D01*
X190824676Y-137572946D01*
X190779522Y-137693394D01*
X190775895Y-137708649D01*
X190770369Y-137759514D01*
X190770000Y-137766328D01*
X190770000Y-138538885D01*
X183422225Y-138538885D01*
X183403650Y-138288937D01*
X183385679Y-138209514D01*
X183345361Y-138031331D01*
X183345360Y-138031326D01*
X183344327Y-138026763D01*
X183246902Y-137776238D01*
X183113518Y-137542864D01*
X182947105Y-137331769D01*
X182751317Y-137147591D01*
X182530457Y-136994374D01*
X182524015Y-136991197D01*
X182293564Y-136877551D01*
X182293561Y-136877550D01*
X182289376Y-136875486D01*
X182241745Y-136860239D01*
X182184322Y-136841858D01*
X182033370Y-136793538D01*
X182028763Y-136792788D01*
X182028760Y-136792787D01*
X181772674Y-136751081D01*
X181772675Y-136751081D01*
X181768063Y-136750330D01*
X181637719Y-136748624D01*
X181503961Y-136746873D01*
X181503958Y-136746873D01*
X181499284Y-136746812D01*
X181232937Y-136783060D01*
X180974874Y-136858278D01*
X180730763Y-136970815D01*
X180726854Y-136973378D01*
X180509881Y-137115631D01*
X180509876Y-137115635D01*
X180505968Y-137118197D01*
X180447717Y-137170188D01*
X180321252Y-137283063D01*
X180305426Y-137297188D01*
X180133544Y-137503854D01*
X179994096Y-137733656D01*
X179992287Y-137737970D01*
X179992285Y-137737974D01*
X179980394Y-137766331D01*
X179890148Y-137981545D01*
X179823981Y-138242077D01*
X179797050Y-138509526D01*
X175920400Y-138509526D01*
X175920400Y-131858134D01*
X198770500Y-131858134D01*
X198777255Y-131920316D01*
X198828385Y-132056705D01*
X198915739Y-132173261D01*
X199032295Y-132260615D01*
X199168684Y-132311745D01*
X199230866Y-132318500D01*
X201327134Y-132318500D01*
X201389316Y-132311745D01*
X201525705Y-132260615D01*
X201642261Y-132173261D01*
X201729615Y-132056705D01*
X201780745Y-131920316D01*
X201787500Y-131858134D01*
X201787500Y-129761866D01*
X201780745Y-129699684D01*
X201729615Y-129563295D01*
X201642261Y-129446739D01*
X201525705Y-129359385D01*
X201389316Y-129308255D01*
X201327134Y-129301500D01*
X199230866Y-129301500D01*
X199168684Y-129308255D01*
X199032295Y-129359385D01*
X198915739Y-129446739D01*
X198828385Y-129563295D01*
X198777255Y-129699684D01*
X198770500Y-129761866D01*
X198770500Y-131858134D01*
X175920400Y-131858134D01*
X175920400Y-123526340D01*
X175940402Y-123458219D01*
X175994058Y-123411726D01*
X176014320Y-123404492D01*
X176099918Y-123381956D01*
X176099920Y-123381955D01*
X176104441Y-123380765D01*
X176204196Y-123337907D01*
X176347120Y-123276502D01*
X176347122Y-123276501D01*
X176351414Y-123274657D01*
X176537165Y-123159711D01*
X176576017Y-123135669D01*
X176576021Y-123135666D01*
X176579990Y-123133210D01*
X176752936Y-122986800D01*
X179476771Y-122986800D01*
X179495635Y-123166275D01*
X179551401Y-123337907D01*
X179641633Y-123494193D01*
X179762387Y-123628304D01*
X179908385Y-123734378D01*
X179914413Y-123737062D01*
X179914415Y-123737063D01*
X180067217Y-123805095D01*
X180073248Y-123807780D01*
X180161508Y-123826540D01*
X180243311Y-123843928D01*
X180243315Y-123843928D01*
X180249768Y-123845300D01*
X180430232Y-123845300D01*
X180436685Y-123843928D01*
X180436689Y-123843928D01*
X180518492Y-123826540D01*
X180606752Y-123807780D01*
X180612783Y-123805095D01*
X180765585Y-123737063D01*
X180765587Y-123737062D01*
X180771615Y-123734378D01*
X180917613Y-123628304D01*
X181038367Y-123494193D01*
X181128599Y-123337907D01*
X181184365Y-123166275D01*
X181203229Y-122986800D01*
X181187429Y-122836478D01*
X181200201Y-122766641D01*
X181248703Y-122714794D01*
X181317535Y-122697399D01*
X181338934Y-122700061D01*
X181376630Y-122708073D01*
X181462511Y-122726328D01*
X181462515Y-122726328D01*
X181468968Y-122727700D01*
X181649432Y-122727700D01*
X181655885Y-122726328D01*
X181655889Y-122726328D01*
X181737692Y-122708940D01*
X181825952Y-122690180D01*
X181831983Y-122687495D01*
X181984785Y-122619463D01*
X181984787Y-122619462D01*
X181990815Y-122616778D01*
X181996157Y-122612897D01*
X182131469Y-122514587D01*
X182131471Y-122514585D01*
X182136813Y-122510704D01*
X182164993Y-122479407D01*
X182253148Y-122381501D01*
X182253149Y-122381500D01*
X182257567Y-122376593D01*
X182315661Y-122275971D01*
X182344495Y-122226030D01*
X182344496Y-122226029D01*
X182347799Y-122220307D01*
X182403565Y-122048675D01*
X182405784Y-122027568D01*
X182421739Y-121875765D01*
X182422429Y-121869200D01*
X182403565Y-121689725D01*
X182380811Y-121619693D01*
X182349841Y-121524378D01*
X182347799Y-121518093D01*
X182257567Y-121361807D01*
X182136813Y-121227696D01*
X182130656Y-121223222D01*
X181996157Y-121125503D01*
X181996156Y-121125502D01*
X181990815Y-121121622D01*
X181984787Y-121118938D01*
X181984785Y-121118937D01*
X181831983Y-121050905D01*
X181831981Y-121050905D01*
X181825952Y-121048220D01*
X181737692Y-121029460D01*
X181655889Y-121012072D01*
X181655885Y-121012072D01*
X181649432Y-121010700D01*
X181468968Y-121010700D01*
X181462515Y-121012072D01*
X181462511Y-121012072D01*
X181380708Y-121029460D01*
X181292448Y-121048220D01*
X181286419Y-121050904D01*
X181286417Y-121050905D01*
X181133616Y-121118937D01*
X181133614Y-121118938D01*
X181127586Y-121121622D01*
X181122245Y-121125502D01*
X181122244Y-121125503D01*
X181085079Y-121152505D01*
X180981587Y-121227696D01*
X180977171Y-121232601D01*
X180977166Y-121232605D01*
X180976891Y-121232910D01*
X180976688Y-121233035D01*
X180972260Y-121237022D01*
X180971531Y-121236212D01*
X180916442Y-121270145D01*
X180845459Y-121268789D01*
X180809200Y-121250529D01*
X180776957Y-121227103D01*
X180776956Y-121227102D01*
X180771615Y-121223222D01*
X180765587Y-121220538D01*
X180765585Y-121220537D01*
X180612783Y-121152505D01*
X180612781Y-121152505D01*
X180606752Y-121149820D01*
X180518492Y-121131060D01*
X180436689Y-121113672D01*
X180436685Y-121113672D01*
X180430232Y-121112300D01*
X180249768Y-121112300D01*
X180243315Y-121113672D01*
X180243311Y-121113672D01*
X180161508Y-121131060D01*
X180073248Y-121149820D01*
X180067219Y-121152504D01*
X180067217Y-121152505D01*
X179914416Y-121220537D01*
X179914414Y-121220538D01*
X179908386Y-121223222D01*
X179903045Y-121227102D01*
X179903044Y-121227103D01*
X179767731Y-121325413D01*
X179767729Y-121325415D01*
X179762387Y-121329296D01*
X179641633Y-121463407D01*
X179551401Y-121619693D01*
X179495635Y-121791325D01*
X179476771Y-121970800D01*
X179477461Y-121977365D01*
X179487294Y-122070913D01*
X179495635Y-122150275D01*
X179497675Y-122156553D01*
X179497675Y-122156554D01*
X179519014Y-122222229D01*
X179551401Y-122321907D01*
X179554704Y-122327629D01*
X179554705Y-122327630D01*
X179605610Y-122415800D01*
X179622348Y-122484795D01*
X179605610Y-122541800D01*
X179560771Y-122619463D01*
X179551401Y-122635693D01*
X179495635Y-122807325D01*
X179476771Y-122986800D01*
X176752936Y-122986800D01*
X176785149Y-122959530D01*
X176962382Y-122757434D01*
X177007369Y-122687495D01*
X177105269Y-122535291D01*
X177107797Y-122531361D01*
X177218199Y-122286278D01*
X177278887Y-122071096D01*
X177289893Y-122032072D01*
X177289894Y-122032069D01*
X177291163Y-122027568D01*
X177311310Y-121869200D01*
X177324688Y-121764045D01*
X177324688Y-121764041D01*
X177325086Y-121760915D01*
X177325669Y-121738669D01*
X177327488Y-121669160D01*
X177327571Y-121666000D01*
X177307650Y-121397937D01*
X177299164Y-121360434D01*
X177249361Y-121140331D01*
X177249360Y-121140326D01*
X177248327Y-121135763D01*
X177150902Y-120885238D01*
X177066133Y-120736923D01*
X177049696Y-120667856D01*
X177073209Y-120600866D01*
X177129207Y-120557222D01*
X177175526Y-120548400D01*
X183642000Y-120548400D01*
X183642000Y-120221526D01*
X198212050Y-120221526D01*
X198224947Y-120490019D01*
X198277388Y-120753656D01*
X198368220Y-121006646D01*
X198370432Y-121010762D01*
X198370433Y-121010765D01*
X198438956Y-121138291D01*
X198495450Y-121243431D01*
X198498241Y-121247168D01*
X198498245Y-121247175D01*
X198582820Y-121360434D01*
X198656281Y-121458810D01*
X198659590Y-121462090D01*
X198659595Y-121462096D01*
X198843863Y-121644762D01*
X198847180Y-121648050D01*
X198850942Y-121650808D01*
X198850945Y-121650811D01*
X198963299Y-121733192D01*
X199063954Y-121806995D01*
X199068089Y-121809171D01*
X199068093Y-121809173D01*
X199297698Y-121929975D01*
X199301840Y-121932154D01*
X199555613Y-122020775D01*
X199560206Y-122021647D01*
X199815109Y-122070042D01*
X199815112Y-122070042D01*
X199819698Y-122070913D01*
X199947370Y-122075929D01*
X200083625Y-122081283D01*
X200083630Y-122081283D01*
X200088293Y-122081466D01*
X200192607Y-122070042D01*
X200350844Y-122052713D01*
X200350850Y-122052712D01*
X200355497Y-122052203D01*
X200360021Y-122051012D01*
X200610918Y-121984956D01*
X200610920Y-121984955D01*
X200615441Y-121983765D01*
X200619738Y-121981919D01*
X200858120Y-121879502D01*
X200858122Y-121879501D01*
X200862414Y-121877657D01*
X201012072Y-121785046D01*
X201087017Y-121738669D01*
X201087021Y-121738666D01*
X201090990Y-121736210D01*
X201296149Y-121562530D01*
X201473382Y-121360434D01*
X201495909Y-121325413D01*
X201616269Y-121138291D01*
X201618797Y-121134361D01*
X201729199Y-120889278D01*
X201766209Y-120758051D01*
X201800893Y-120635072D01*
X201800894Y-120635069D01*
X201802163Y-120630568D01*
X201820043Y-120490019D01*
X201835688Y-120367045D01*
X201835688Y-120367041D01*
X201836086Y-120363915D01*
X201838571Y-120269000D01*
X201818650Y-120000937D01*
X201807020Y-119949538D01*
X201760361Y-119743331D01*
X201760360Y-119743326D01*
X201759327Y-119738763D01*
X201661902Y-119488238D01*
X201528518Y-119254864D01*
X201524570Y-119249855D01*
X201450974Y-119156500D01*
X201362105Y-119043769D01*
X201166317Y-118859591D01*
X200945457Y-118706374D01*
X200929328Y-118698420D01*
X200708564Y-118589551D01*
X200708561Y-118589550D01*
X200704376Y-118587486D01*
X200656745Y-118572239D01*
X200602621Y-118554914D01*
X200448370Y-118505538D01*
X200443763Y-118504788D01*
X200443760Y-118504787D01*
X200187674Y-118463081D01*
X200187675Y-118463081D01*
X200183063Y-118462330D01*
X200052719Y-118460624D01*
X199918961Y-118458873D01*
X199918958Y-118458873D01*
X199914284Y-118458812D01*
X199647937Y-118495060D01*
X199389874Y-118570278D01*
X199385621Y-118572238D01*
X199385620Y-118572239D01*
X199355634Y-118586063D01*
X199145763Y-118682815D01*
X199112984Y-118704306D01*
X198924881Y-118827631D01*
X198924876Y-118827635D01*
X198920968Y-118830197D01*
X198917476Y-118833314D01*
X198731841Y-118999000D01*
X198720426Y-119009188D01*
X198548544Y-119215854D01*
X198546121Y-119219847D01*
X198473918Y-119338834D01*
X198409096Y-119445656D01*
X198407287Y-119449970D01*
X198407285Y-119449974D01*
X198342044Y-119605558D01*
X198305148Y-119693545D01*
X198238981Y-119954077D01*
X198212050Y-120221526D01*
X183642000Y-120221526D01*
X183642000Y-116477261D01*
X188834294Y-116477261D01*
X188843590Y-116489276D01*
X188873189Y-116510001D01*
X188882677Y-116515479D01*
X189064277Y-116600159D01*
X189074571Y-116603907D01*
X189268122Y-116655769D01*
X189278909Y-116657671D01*
X189478525Y-116675135D01*
X189489475Y-116675135D01*
X189689091Y-116657671D01*
X189699878Y-116655769D01*
X189893429Y-116603907D01*
X189903723Y-116600159D01*
X190085323Y-116515479D01*
X190094811Y-116510001D01*
X190125248Y-116488689D01*
X190133623Y-116478212D01*
X190126554Y-116464764D01*
X189496812Y-115835022D01*
X189482868Y-115827408D01*
X189481035Y-115827539D01*
X189474420Y-115831790D01*
X188840724Y-116465486D01*
X188834294Y-116477261D01*
X183642000Y-116477261D01*
X183642000Y-115878661D01*
X183662002Y-115810540D01*
X183715658Y-115764047D01*
X183722780Y-115761202D01*
X183724441Y-115760765D01*
X183728722Y-115758926D01*
X183728727Y-115758924D01*
X183967120Y-115656502D01*
X183967122Y-115656501D01*
X183971414Y-115654657D01*
X184154106Y-115541604D01*
X184196017Y-115515669D01*
X184196021Y-115515666D01*
X184199990Y-115513210D01*
X184252833Y-115468475D01*
X188271865Y-115468475D01*
X188289329Y-115668091D01*
X188291231Y-115678878D01*
X188343093Y-115872429D01*
X188346841Y-115882723D01*
X188431521Y-116064323D01*
X188436999Y-116073811D01*
X188458311Y-116104248D01*
X188468788Y-116112623D01*
X188482236Y-116105554D01*
X189111978Y-115475812D01*
X189118356Y-115464132D01*
X189848408Y-115464132D01*
X189848539Y-115465965D01*
X189852790Y-115472580D01*
X190486486Y-116106276D01*
X190498261Y-116112706D01*
X190510276Y-116103410D01*
X190531001Y-116073811D01*
X190536479Y-116064323D01*
X190621159Y-115882723D01*
X190624907Y-115872429D01*
X190676769Y-115678878D01*
X190678671Y-115668091D01*
X190696135Y-115468475D01*
X190696135Y-115457525D01*
X190678671Y-115257909D01*
X190676769Y-115247122D01*
X190624907Y-115053571D01*
X190621159Y-115043277D01*
X190536479Y-114861677D01*
X190531001Y-114852189D01*
X190509689Y-114821752D01*
X190499212Y-114813377D01*
X190485764Y-114820446D01*
X189856022Y-115450188D01*
X189848408Y-115464132D01*
X189118356Y-115464132D01*
X189119592Y-115461868D01*
X189119461Y-115460035D01*
X189115210Y-115453420D01*
X188481514Y-114819724D01*
X188469739Y-114813294D01*
X188457724Y-114822590D01*
X188436999Y-114852189D01*
X188431521Y-114861677D01*
X188346841Y-115043277D01*
X188343093Y-115053571D01*
X188291231Y-115247122D01*
X188289329Y-115257909D01*
X188271865Y-115457525D01*
X188271865Y-115468475D01*
X184252833Y-115468475D01*
X184405149Y-115339530D01*
X184582382Y-115137434D01*
X184607451Y-115098461D01*
X184725269Y-114915291D01*
X184727797Y-114911361D01*
X184838199Y-114666278D01*
X184911163Y-114407568D01*
X184929573Y-114262854D01*
X184944688Y-114144045D01*
X184944688Y-114144041D01*
X184945086Y-114140915D01*
X184947571Y-114046000D01*
X184935258Y-113880314D01*
X184927996Y-113782592D01*
X184927996Y-113782591D01*
X184927650Y-113777937D01*
X184921624Y-113751306D01*
X184869361Y-113520331D01*
X184869360Y-113520326D01*
X184868327Y-113515763D01*
X184770902Y-113265238D01*
X184637518Y-113031864D01*
X184551697Y-112923000D01*
X188270884Y-112923000D01*
X188289314Y-113133655D01*
X188290738Y-113138968D01*
X188290738Y-113138970D01*
X188324572Y-113265238D01*
X188344044Y-113337910D01*
X188346366Y-113342891D01*
X188346367Y-113342892D01*
X188424945Y-113511402D01*
X188433411Y-113529558D01*
X188554699Y-113702776D01*
X188704224Y-113852301D01*
X188877442Y-113973589D01*
X188882420Y-113975910D01*
X188882423Y-113975912D01*
X189054576Y-114056188D01*
X189069090Y-114062956D01*
X189074397Y-114064378D01*
X189074408Y-114064382D01*
X189101171Y-114071553D01*
X189161793Y-114108504D01*
X189192815Y-114172365D01*
X189184386Y-114242860D01*
X189139182Y-114297606D01*
X189101170Y-114314966D01*
X189074574Y-114322092D01*
X189064277Y-114325841D01*
X188882677Y-114410521D01*
X188873189Y-114415999D01*
X188842752Y-114437311D01*
X188834377Y-114447788D01*
X188841446Y-114461236D01*
X189471188Y-115090978D01*
X189485132Y-115098592D01*
X189486965Y-115098461D01*
X189493580Y-115094210D01*
X190127276Y-114460514D01*
X190133706Y-114448739D01*
X190124410Y-114436724D01*
X190094811Y-114415999D01*
X190085323Y-114410521D01*
X189903723Y-114325841D01*
X189893426Y-114322092D01*
X189866830Y-114314966D01*
X189806207Y-114278014D01*
X189775186Y-114214154D01*
X189783614Y-114143659D01*
X189828817Y-114088912D01*
X189866829Y-114071553D01*
X189893592Y-114064382D01*
X189893603Y-114064378D01*
X189898910Y-114062956D01*
X189913424Y-114056188D01*
X190085577Y-113975912D01*
X190085580Y-113975910D01*
X190090558Y-113973589D01*
X190263776Y-113852301D01*
X190413301Y-113702776D01*
X190534589Y-113529558D01*
X190543056Y-113511402D01*
X190621633Y-113342892D01*
X190621634Y-113342891D01*
X190623956Y-113337910D01*
X190643429Y-113265238D01*
X190677262Y-113138970D01*
X190677262Y-113138968D01*
X190678686Y-113133655D01*
X190697116Y-112923000D01*
X190678686Y-112712345D01*
X190623956Y-112508090D01*
X190621633Y-112503108D01*
X190536912Y-112321423D01*
X190536910Y-112321420D01*
X190534589Y-112316442D01*
X190413301Y-112143224D01*
X190263776Y-111993699D01*
X190090558Y-111872411D01*
X190085580Y-111870090D01*
X190085577Y-111870088D01*
X189903892Y-111785367D01*
X189903891Y-111785366D01*
X189898910Y-111783044D01*
X189893602Y-111781622D01*
X189893600Y-111781621D01*
X189699970Y-111729738D01*
X189699968Y-111729738D01*
X189694655Y-111728314D01*
X189484000Y-111709884D01*
X189273345Y-111728314D01*
X189268032Y-111729738D01*
X189268030Y-111729738D01*
X189074400Y-111781621D01*
X189074398Y-111781622D01*
X189069090Y-111783044D01*
X189064109Y-111785366D01*
X189064108Y-111785367D01*
X188882423Y-111870088D01*
X188882420Y-111870090D01*
X188877442Y-111872411D01*
X188704224Y-111993699D01*
X188554699Y-112143224D01*
X188433411Y-112316442D01*
X188431090Y-112321420D01*
X188431088Y-112321423D01*
X188346367Y-112503108D01*
X188344044Y-112508090D01*
X188289314Y-112712345D01*
X188270884Y-112923000D01*
X184551697Y-112923000D01*
X184471105Y-112820769D01*
X184275317Y-112636591D01*
X184090085Y-112508090D01*
X184058299Y-112486039D01*
X184058296Y-112486037D01*
X184054457Y-112483374D01*
X184050264Y-112481306D01*
X183817564Y-112366551D01*
X183817561Y-112366550D01*
X183813376Y-112364486D01*
X183729587Y-112337665D01*
X183670807Y-112297847D01*
X183642885Y-112232572D01*
X183642000Y-112217663D01*
X183642000Y-79095600D01*
X190500371Y-79095600D01*
X190519235Y-79275075D01*
X190575001Y-79446707D01*
X190665233Y-79602993D01*
X190669651Y-79607900D01*
X190669652Y-79607901D01*
X190781565Y-79732193D01*
X190785987Y-79737104D01*
X190791329Y-79740985D01*
X190791331Y-79740987D01*
X190926643Y-79839297D01*
X190931985Y-79843178D01*
X190938011Y-79845861D01*
X190938018Y-79845865D01*
X190991765Y-79869794D01*
X191045861Y-79915774D01*
X191065827Y-79971730D01*
X191078035Y-80087875D01*
X191133801Y-80259507D01*
X191224033Y-80415793D01*
X191344787Y-80549904D01*
X191490785Y-80655978D01*
X191496813Y-80658662D01*
X191496815Y-80658663D01*
X191649617Y-80726695D01*
X191655648Y-80729380D01*
X191743908Y-80748140D01*
X191825711Y-80765528D01*
X191825715Y-80765528D01*
X191832168Y-80766900D01*
X192012632Y-80766900D01*
X192019085Y-80765528D01*
X192019089Y-80765528D01*
X192100892Y-80748140D01*
X192189152Y-80729380D01*
X192195183Y-80726695D01*
X192347985Y-80658663D01*
X192347987Y-80658662D01*
X192354015Y-80655978D01*
X192500013Y-80549904D01*
X192500470Y-80549396D01*
X192562497Y-80519630D01*
X192632950Y-80528393D01*
X192664441Y-80548631D01*
X192665587Y-80549904D01*
X192811585Y-80655978D01*
X192817613Y-80658662D01*
X192817615Y-80658663D01*
X192970417Y-80726695D01*
X192976448Y-80729380D01*
X193064708Y-80748140D01*
X193146511Y-80765528D01*
X193146515Y-80765528D01*
X193152968Y-80766900D01*
X193333432Y-80766900D01*
X193339885Y-80765528D01*
X193339889Y-80765528D01*
X193421692Y-80748140D01*
X193509952Y-80729380D01*
X193515983Y-80726695D01*
X193668785Y-80658663D01*
X193668787Y-80658662D01*
X193674815Y-80655978D01*
X193820813Y-80549904D01*
X193941567Y-80415793D01*
X194031799Y-80259507D01*
X194087565Y-80087875D01*
X194106429Y-79908400D01*
X194087565Y-79728925D01*
X194031799Y-79557293D01*
X193941567Y-79401007D01*
X193884057Y-79337135D01*
X193825235Y-79271807D01*
X193825234Y-79271806D01*
X193820813Y-79266896D01*
X193814294Y-79262159D01*
X193680157Y-79164703D01*
X193680156Y-79164702D01*
X193674815Y-79160822D01*
X193668782Y-79158136D01*
X193668777Y-79158133D01*
X193561740Y-79110476D01*
X193507644Y-79064496D01*
X193487679Y-79008542D01*
X193478655Y-78922688D01*
X193478655Y-78922686D01*
X193477965Y-78916125D01*
X193422199Y-78744493D01*
X193417187Y-78735811D01*
X193335268Y-78593925D01*
X193331967Y-78588207D01*
X193211213Y-78454096D01*
X193155195Y-78413396D01*
X193070557Y-78351903D01*
X193070556Y-78351902D01*
X193065215Y-78348022D01*
X193059187Y-78345338D01*
X193059185Y-78345337D01*
X192906383Y-78277305D01*
X192906381Y-78277305D01*
X192900352Y-78274620D01*
X192812092Y-78255860D01*
X192730289Y-78238472D01*
X192730285Y-78238472D01*
X192723832Y-78237100D01*
X192543368Y-78237100D01*
X192536915Y-78238472D01*
X192536911Y-78238472D01*
X192455108Y-78255860D01*
X192366848Y-78274620D01*
X192360819Y-78277304D01*
X192360817Y-78277305D01*
X192208016Y-78345337D01*
X192208014Y-78345338D01*
X192201986Y-78348022D01*
X192196645Y-78351902D01*
X192196644Y-78351903D01*
X192072661Y-78441982D01*
X192005793Y-78465841D01*
X191936642Y-78449760D01*
X191924544Y-78441985D01*
X191795215Y-78348022D01*
X191789187Y-78345338D01*
X191789185Y-78345337D01*
X191636383Y-78277305D01*
X191636381Y-78277305D01*
X191630352Y-78274620D01*
X191542092Y-78255860D01*
X191460289Y-78238472D01*
X191460285Y-78238472D01*
X191453832Y-78237100D01*
X191273368Y-78237100D01*
X191266915Y-78238472D01*
X191266911Y-78238472D01*
X191185108Y-78255860D01*
X191096848Y-78274620D01*
X191090819Y-78277304D01*
X191090817Y-78277305D01*
X190938016Y-78345337D01*
X190938014Y-78345338D01*
X190931986Y-78348022D01*
X190926645Y-78351902D01*
X190926644Y-78351903D01*
X190791331Y-78450213D01*
X190791329Y-78450215D01*
X190785987Y-78454096D01*
X190665233Y-78588207D01*
X190661932Y-78593925D01*
X190580014Y-78735811D01*
X190575001Y-78744493D01*
X190519235Y-78916125D01*
X190500371Y-79095600D01*
X183642000Y-79095600D01*
X183642000Y-75390526D01*
X187544050Y-75390526D01*
X187544274Y-75395192D01*
X187544274Y-75395197D01*
X187547873Y-75470109D01*
X187556947Y-75659019D01*
X187609388Y-75922656D01*
X187700220Y-76175646D01*
X187702432Y-76179762D01*
X187702433Y-76179765D01*
X187766555Y-76299100D01*
X187827450Y-76412431D01*
X187830241Y-76416168D01*
X187830245Y-76416175D01*
X187900611Y-76510406D01*
X187988281Y-76627810D01*
X187991590Y-76631090D01*
X187991595Y-76631096D01*
X188112462Y-76750912D01*
X188179180Y-76817050D01*
X188182942Y-76819808D01*
X188182945Y-76819811D01*
X188331887Y-76929019D01*
X188395954Y-76975995D01*
X188400089Y-76978171D01*
X188400093Y-76978173D01*
X188579418Y-77072521D01*
X188633840Y-77101154D01*
X188887613Y-77189775D01*
X188892206Y-77190647D01*
X189147109Y-77239042D01*
X189147112Y-77239042D01*
X189151698Y-77239913D01*
X189279370Y-77244929D01*
X189415625Y-77250283D01*
X189415630Y-77250283D01*
X189420293Y-77250466D01*
X189524607Y-77239042D01*
X189682844Y-77221713D01*
X189682850Y-77221712D01*
X189687497Y-77221203D01*
X189692021Y-77220012D01*
X189942918Y-77153956D01*
X189942920Y-77153955D01*
X189947441Y-77152765D01*
X190047473Y-77109788D01*
X190190120Y-77048502D01*
X190190122Y-77048501D01*
X190194414Y-77046657D01*
X190305083Y-76978173D01*
X190419017Y-76907669D01*
X190419021Y-76907666D01*
X190422990Y-76905210D01*
X190628149Y-76731530D01*
X190805382Y-76529434D01*
X190817622Y-76510406D01*
X190948269Y-76307291D01*
X190950797Y-76303361D01*
X191061199Y-76058278D01*
X191062469Y-76053775D01*
X191132893Y-75804072D01*
X191132894Y-75804069D01*
X191134163Y-75799568D01*
X191152573Y-75654854D01*
X191167688Y-75536045D01*
X191167688Y-75536041D01*
X191168086Y-75532915D01*
X191170571Y-75438000D01*
X191167043Y-75390526D01*
X198085050Y-75390526D01*
X198085274Y-75395192D01*
X198085274Y-75395197D01*
X198088873Y-75470109D01*
X198097947Y-75659019D01*
X198150388Y-75922656D01*
X198241220Y-76175646D01*
X198243432Y-76179762D01*
X198243433Y-76179765D01*
X198307555Y-76299100D01*
X198368450Y-76412431D01*
X198371241Y-76416168D01*
X198371245Y-76416175D01*
X198441611Y-76510406D01*
X198529281Y-76627810D01*
X198532590Y-76631090D01*
X198532595Y-76631096D01*
X198653462Y-76750912D01*
X198720180Y-76817050D01*
X198723942Y-76819808D01*
X198723945Y-76819811D01*
X198872887Y-76929019D01*
X198936954Y-76975995D01*
X198941089Y-76978171D01*
X198941093Y-76978173D01*
X199120418Y-77072521D01*
X199174840Y-77101154D01*
X199428613Y-77189775D01*
X199433206Y-77190647D01*
X199688109Y-77239042D01*
X199688112Y-77239042D01*
X199692698Y-77239913D01*
X199820370Y-77244929D01*
X199956625Y-77250283D01*
X199956630Y-77250283D01*
X199961293Y-77250466D01*
X200065607Y-77239042D01*
X200223844Y-77221713D01*
X200223850Y-77221712D01*
X200228497Y-77221203D01*
X200233021Y-77220012D01*
X200483918Y-77153956D01*
X200483920Y-77153955D01*
X200488441Y-77152765D01*
X200588473Y-77109788D01*
X200731120Y-77048502D01*
X200731122Y-77048501D01*
X200735414Y-77046657D01*
X200846083Y-76978173D01*
X200960017Y-76907669D01*
X200960021Y-76907666D01*
X200963990Y-76905210D01*
X201169149Y-76731530D01*
X201346382Y-76529434D01*
X201358622Y-76510406D01*
X201489269Y-76307291D01*
X201491797Y-76303361D01*
X201602199Y-76058278D01*
X201603469Y-76053775D01*
X201673893Y-75804072D01*
X201673894Y-75804069D01*
X201675163Y-75799568D01*
X201693573Y-75654854D01*
X201708688Y-75536045D01*
X201708688Y-75536041D01*
X201709086Y-75532915D01*
X201711571Y-75438000D01*
X201705829Y-75360739D01*
X201691996Y-75174592D01*
X201691996Y-75174591D01*
X201691650Y-75169937D01*
X201690619Y-75165379D01*
X201633361Y-74912331D01*
X201633360Y-74912326D01*
X201632327Y-74907763D01*
X201534902Y-74657238D01*
X201401518Y-74423864D01*
X201375070Y-74390314D01*
X201335416Y-74340014D01*
X201235105Y-74212769D01*
X201039317Y-74028591D01*
X200818457Y-73875374D01*
X200814264Y-73873306D01*
X200581564Y-73758551D01*
X200581561Y-73758550D01*
X200577376Y-73756486D01*
X200529745Y-73741239D01*
X200475621Y-73723914D01*
X200321370Y-73674538D01*
X200316763Y-73673788D01*
X200316760Y-73673787D01*
X200060674Y-73632081D01*
X200060675Y-73632081D01*
X200056063Y-73631330D01*
X199925719Y-73629624D01*
X199791961Y-73627873D01*
X199791958Y-73627873D01*
X199787284Y-73627812D01*
X199520937Y-73664060D01*
X199262874Y-73739278D01*
X199018763Y-73851815D01*
X199014854Y-73854378D01*
X198797881Y-73996631D01*
X198797876Y-73996635D01*
X198793968Y-73999197D01*
X198593426Y-74178188D01*
X198421544Y-74384854D01*
X198282096Y-74614656D01*
X198280287Y-74618970D01*
X198280285Y-74618974D01*
X198179957Y-74858231D01*
X198178148Y-74862545D01*
X198111981Y-75123077D01*
X198085050Y-75390526D01*
X191167043Y-75390526D01*
X191164829Y-75360739D01*
X191150996Y-75174592D01*
X191150996Y-75174591D01*
X191150650Y-75169937D01*
X191149619Y-75165379D01*
X191092361Y-74912331D01*
X191092360Y-74912326D01*
X191091327Y-74907763D01*
X190993902Y-74657238D01*
X190860518Y-74423864D01*
X190834070Y-74390314D01*
X190794416Y-74340014D01*
X190694105Y-74212769D01*
X190498317Y-74028591D01*
X190277457Y-73875374D01*
X190273264Y-73873306D01*
X190040564Y-73758551D01*
X190040561Y-73758550D01*
X190036376Y-73756486D01*
X189988745Y-73741239D01*
X189934621Y-73723914D01*
X189780370Y-73674538D01*
X189775763Y-73673788D01*
X189775760Y-73673787D01*
X189519674Y-73632081D01*
X189519675Y-73632081D01*
X189515063Y-73631330D01*
X189384719Y-73629624D01*
X189250961Y-73627873D01*
X189250958Y-73627873D01*
X189246284Y-73627812D01*
X188979937Y-73664060D01*
X188721874Y-73739278D01*
X188477763Y-73851815D01*
X188473854Y-73854378D01*
X188256881Y-73996631D01*
X188256876Y-73996635D01*
X188252968Y-73999197D01*
X188052426Y-74178188D01*
X187880544Y-74384854D01*
X187741096Y-74614656D01*
X187739287Y-74618970D01*
X187739285Y-74618974D01*
X187638957Y-74858231D01*
X187637148Y-74862545D01*
X187570981Y-75123077D01*
X187544050Y-75390526D01*
X183642000Y-75390526D01*
X183642000Y-71628000D01*
X186893884Y-71628000D01*
X186912314Y-71838655D01*
X186967044Y-72042910D01*
X186969366Y-72047891D01*
X186969367Y-72047892D01*
X187048781Y-72218195D01*
X187056411Y-72234558D01*
X187177699Y-72407776D01*
X187327224Y-72557301D01*
X187500442Y-72678589D01*
X187505420Y-72680910D01*
X187505423Y-72680912D01*
X187687108Y-72765633D01*
X187692090Y-72767956D01*
X187697398Y-72769378D01*
X187697400Y-72769379D01*
X187891030Y-72821262D01*
X187891032Y-72821262D01*
X187896345Y-72822686D01*
X188107000Y-72841116D01*
X188317655Y-72822686D01*
X188322968Y-72821262D01*
X188322970Y-72821262D01*
X188516600Y-72769379D01*
X188516602Y-72769378D01*
X188521910Y-72767956D01*
X188526892Y-72765633D01*
X188708577Y-72680912D01*
X188708580Y-72680910D01*
X188713558Y-72678589D01*
X188886776Y-72557301D01*
X189036301Y-72407776D01*
X189157589Y-72234558D01*
X189165220Y-72218195D01*
X189244633Y-72047892D01*
X189244634Y-72047891D01*
X189246956Y-72042910D01*
X189255293Y-72011796D01*
X189292245Y-71951173D01*
X189356106Y-71920152D01*
X189426600Y-71928580D01*
X189481347Y-71973783D01*
X189498707Y-72011796D01*
X189507044Y-72042910D01*
X189509366Y-72047891D01*
X189509367Y-72047892D01*
X189588781Y-72218195D01*
X189596411Y-72234558D01*
X189717699Y-72407776D01*
X189867224Y-72557301D01*
X190040442Y-72678589D01*
X190045420Y-72680910D01*
X190045423Y-72680912D01*
X190227108Y-72765633D01*
X190232090Y-72767956D01*
X190237398Y-72769378D01*
X190237400Y-72769379D01*
X190431030Y-72821262D01*
X190431032Y-72821262D01*
X190436345Y-72822686D01*
X190647000Y-72841116D01*
X190857655Y-72822686D01*
X190862968Y-72821262D01*
X190862970Y-72821262D01*
X191056600Y-72769379D01*
X191056602Y-72769378D01*
X191061910Y-72767956D01*
X191066892Y-72765633D01*
X191248577Y-72680912D01*
X191248580Y-72680910D01*
X191253558Y-72678589D01*
X191426776Y-72557301D01*
X191576301Y-72407776D01*
X191697589Y-72234558D01*
X191705220Y-72218195D01*
X191784633Y-72047892D01*
X191784634Y-72047891D01*
X191786956Y-72042910D01*
X191841686Y-71838655D01*
X191860116Y-71628000D01*
X191841686Y-71417345D01*
X191793240Y-71236542D01*
X191788379Y-71218400D01*
X191788378Y-71218398D01*
X191786956Y-71213090D01*
X191784633Y-71208108D01*
X191699912Y-71026423D01*
X191699910Y-71026420D01*
X191697589Y-71021442D01*
X191576301Y-70848224D01*
X191426776Y-70698699D01*
X191253558Y-70577411D01*
X191248580Y-70575090D01*
X191248577Y-70575088D01*
X191066892Y-70490367D01*
X191066891Y-70490366D01*
X191061910Y-70488044D01*
X191056602Y-70486622D01*
X191056600Y-70486621D01*
X190862970Y-70434738D01*
X190862968Y-70434738D01*
X190857655Y-70433314D01*
X190647000Y-70414884D01*
X190436345Y-70433314D01*
X190431032Y-70434738D01*
X190431030Y-70434738D01*
X190237400Y-70486621D01*
X190237398Y-70486622D01*
X190232090Y-70488044D01*
X190227109Y-70490366D01*
X190227108Y-70490367D01*
X190045423Y-70575088D01*
X190045420Y-70575090D01*
X190040442Y-70577411D01*
X189867224Y-70698699D01*
X189717699Y-70848224D01*
X189596411Y-71021442D01*
X189594090Y-71026420D01*
X189594088Y-71026423D01*
X189509367Y-71208108D01*
X189507044Y-71213090D01*
X189505622Y-71218398D01*
X189505621Y-71218400D01*
X189498707Y-71244204D01*
X189461755Y-71304827D01*
X189397894Y-71335848D01*
X189327400Y-71327420D01*
X189272653Y-71282217D01*
X189255293Y-71244204D01*
X189248379Y-71218400D01*
X189248378Y-71218398D01*
X189246956Y-71213090D01*
X189244633Y-71208108D01*
X189159912Y-71026423D01*
X189159910Y-71026420D01*
X189157589Y-71021442D01*
X189036301Y-70848224D01*
X188886776Y-70698699D01*
X188713558Y-70577411D01*
X188708580Y-70575090D01*
X188708577Y-70575088D01*
X188526892Y-70490367D01*
X188526891Y-70490366D01*
X188521910Y-70488044D01*
X188516602Y-70486622D01*
X188516600Y-70486621D01*
X188322970Y-70434738D01*
X188322968Y-70434738D01*
X188317655Y-70433314D01*
X188107000Y-70414884D01*
X187896345Y-70433314D01*
X187891032Y-70434738D01*
X187891030Y-70434738D01*
X187697400Y-70486621D01*
X187697398Y-70486622D01*
X187692090Y-70488044D01*
X187687109Y-70490366D01*
X187687108Y-70490367D01*
X187505423Y-70575088D01*
X187505420Y-70575090D01*
X187500442Y-70577411D01*
X187327224Y-70698699D01*
X187177699Y-70848224D01*
X187056411Y-71021442D01*
X187054090Y-71026420D01*
X187054088Y-71026423D01*
X186969367Y-71208108D01*
X186967044Y-71213090D01*
X186965622Y-71218398D01*
X186965621Y-71218400D01*
X186960760Y-71236542D01*
X186912314Y-71417345D01*
X186893884Y-71628000D01*
X183642000Y-71628000D01*
X183642000Y-68580000D01*
X156590072Y-68580000D01*
X156521951Y-68559998D01*
X156475458Y-68506342D01*
X156465354Y-68436068D01*
X156494848Y-68371488D01*
X156516011Y-68352064D01*
X156593864Y-68295500D01*
X156660613Y-68247004D01*
X156709692Y-68192496D01*
X156776948Y-68117801D01*
X156776949Y-68117800D01*
X156781367Y-68112893D01*
X156852726Y-67989296D01*
X156868295Y-67962330D01*
X156868296Y-67962329D01*
X156871599Y-67956607D01*
X156901786Y-67863700D01*
X156925325Y-67791254D01*
X156925325Y-67791253D01*
X156927365Y-67784975D01*
X156944416Y-67622754D01*
X156945539Y-67612065D01*
X156946229Y-67605500D01*
X156928519Y-67437000D01*
X159664771Y-67437000D01*
X159683635Y-67616475D01*
X159685675Y-67622753D01*
X159685675Y-67622754D01*
X159695280Y-67652314D01*
X159739401Y-67788107D01*
X159742704Y-67793829D01*
X159742705Y-67793830D01*
X159762175Y-67827552D01*
X159829633Y-67944393D01*
X159834051Y-67949300D01*
X159834052Y-67949301D01*
X159945965Y-68073593D01*
X159950387Y-68078504D01*
X159955729Y-68082385D01*
X159955731Y-68082387D01*
X160047248Y-68148878D01*
X160096385Y-68184578D01*
X160102413Y-68187262D01*
X160102415Y-68187263D01*
X160255217Y-68255295D01*
X160261248Y-68257980D01*
X160336476Y-68273970D01*
X160431311Y-68294128D01*
X160431315Y-68294128D01*
X160437768Y-68295500D01*
X160618232Y-68295500D01*
X160624685Y-68294128D01*
X160624689Y-68294128D01*
X160719524Y-68273970D01*
X160794752Y-68257980D01*
X160800783Y-68255295D01*
X160953585Y-68187263D01*
X160953587Y-68187262D01*
X160959615Y-68184578D01*
X161008752Y-68148878D01*
X161100269Y-68082387D01*
X161100271Y-68082385D01*
X161105613Y-68078504D01*
X161110035Y-68073593D01*
X161221948Y-67949301D01*
X161221949Y-67949300D01*
X161226367Y-67944393D01*
X161293825Y-67827552D01*
X161313295Y-67793830D01*
X161313296Y-67793829D01*
X161316599Y-67788107D01*
X161360720Y-67652314D01*
X161370325Y-67622754D01*
X161370325Y-67622753D01*
X161372365Y-67616475D01*
X161391229Y-67437000D01*
X161390075Y-67426025D01*
X161373055Y-67264089D01*
X161373055Y-67264088D01*
X161372365Y-67257525D01*
X161316599Y-67085893D01*
X161226367Y-66929607D01*
X161105613Y-66795496D01*
X161094202Y-66787205D01*
X160964957Y-66693303D01*
X160964956Y-66693302D01*
X160959615Y-66689422D01*
X160953587Y-66686738D01*
X160953585Y-66686737D01*
X160800783Y-66618705D01*
X160800781Y-66618705D01*
X160794752Y-66616020D01*
X160706492Y-66597260D01*
X160624689Y-66579872D01*
X160624685Y-66579872D01*
X160618232Y-66578500D01*
X160437768Y-66578500D01*
X160431315Y-66579872D01*
X160431311Y-66579872D01*
X160349508Y-66597260D01*
X160261248Y-66616020D01*
X160255219Y-66618704D01*
X160255217Y-66618705D01*
X160102416Y-66686737D01*
X160102414Y-66686738D01*
X160096386Y-66689422D01*
X160091045Y-66693302D01*
X160091044Y-66693303D01*
X159955731Y-66791613D01*
X159955729Y-66791615D01*
X159950387Y-66795496D01*
X159829633Y-66929607D01*
X159739401Y-67085893D01*
X159683635Y-67257525D01*
X159682945Y-67264088D01*
X159682945Y-67264089D01*
X159665925Y-67426025D01*
X159664771Y-67437000D01*
X156928519Y-67437000D01*
X156927365Y-67426025D01*
X156921688Y-67408551D01*
X156873641Y-67260678D01*
X156871599Y-67254393D01*
X156781367Y-67098107D01*
X156770370Y-67085893D01*
X156665035Y-66968907D01*
X156665034Y-66968906D01*
X156660613Y-66963996D01*
X156627556Y-66939978D01*
X156519957Y-66861803D01*
X156519956Y-66861802D01*
X156514615Y-66857922D01*
X156508587Y-66855238D01*
X156508585Y-66855237D01*
X156355783Y-66787205D01*
X156355781Y-66787205D01*
X156349752Y-66784520D01*
X156343297Y-66783148D01*
X156343294Y-66783147D01*
X156312860Y-66776679D01*
X156286975Y-66771177D01*
X156224503Y-66737449D01*
X156190181Y-66675300D01*
X156194908Y-66604461D01*
X156237183Y-66547423D01*
X156250169Y-66538812D01*
X156254584Y-66536263D01*
X156260615Y-66533578D01*
X156265960Y-66529694D01*
X156271673Y-66526396D01*
X156272810Y-66528365D01*
X156329824Y-66508031D01*
X156398973Y-66524120D01*
X156404178Y-66527465D01*
X156408042Y-66529696D01*
X156413385Y-66533578D01*
X156419413Y-66536262D01*
X156419415Y-66536263D01*
X156572217Y-66604295D01*
X156578248Y-66606980D01*
X156666508Y-66625740D01*
X156748311Y-66643128D01*
X156748315Y-66643128D01*
X156754768Y-66644500D01*
X156935232Y-66644500D01*
X156941685Y-66643128D01*
X156941689Y-66643128D01*
X157023492Y-66625740D01*
X157111752Y-66606980D01*
X157117783Y-66604295D01*
X157270585Y-66536263D01*
X157270587Y-66536262D01*
X157276615Y-66533578D01*
X157289633Y-66524120D01*
X157417269Y-66431387D01*
X157417271Y-66431385D01*
X157422613Y-66427504D01*
X157543367Y-66293393D01*
X157598311Y-66198227D01*
X157630295Y-66142830D01*
X157630296Y-66142829D01*
X157633599Y-66137107D01*
X157681854Y-65988593D01*
X157687325Y-65971754D01*
X157687325Y-65971753D01*
X157689365Y-65965475D01*
X157708229Y-65786000D01*
X157689365Y-65606525D01*
X157676971Y-65568378D01*
X157635641Y-65441178D01*
X157633599Y-65434893D01*
X157543367Y-65278607D01*
X157438765Y-65162434D01*
X157427035Y-65149407D01*
X157427034Y-65149406D01*
X157422613Y-65144496D01*
X157311778Y-65063969D01*
X157281957Y-65042303D01*
X157281956Y-65042302D01*
X157276615Y-65038422D01*
X157270587Y-65035738D01*
X157270585Y-65035737D01*
X157117783Y-64967705D01*
X157117781Y-64967705D01*
X157111752Y-64965020D01*
X157023492Y-64946260D01*
X156941689Y-64928872D01*
X156941685Y-64928872D01*
X156935232Y-64927500D01*
X156754768Y-64927500D01*
X156748315Y-64928872D01*
X156748311Y-64928872D01*
X156666508Y-64946260D01*
X156578248Y-64965020D01*
X156572219Y-64967704D01*
X156572217Y-64967705D01*
X156419414Y-65035738D01*
X156413386Y-65038422D01*
X156408047Y-65042301D01*
X156402326Y-65045604D01*
X156401188Y-65043633D01*
X156344195Y-65063969D01*
X156275044Y-65047890D01*
X156269839Y-65044544D01*
X156265954Y-65042301D01*
X156260615Y-65038422D01*
X156254587Y-65035738D01*
X156254585Y-65035737D01*
X156101783Y-64967705D01*
X156101781Y-64967705D01*
X156095752Y-64965020D01*
X156007492Y-64946260D01*
X155925689Y-64928872D01*
X155925685Y-64928872D01*
X155919232Y-64927500D01*
X155738768Y-64927500D01*
X155732315Y-64928872D01*
X155732311Y-64928872D01*
X155650508Y-64946260D01*
X155562248Y-64965020D01*
X155556219Y-64967704D01*
X155556217Y-64967705D01*
X155403416Y-65035737D01*
X155403414Y-65035738D01*
X155397386Y-65038422D01*
X155392045Y-65042302D01*
X155392044Y-65042303D01*
X155256731Y-65140613D01*
X155256729Y-65140615D01*
X155251387Y-65144496D01*
X155246966Y-65149406D01*
X155246965Y-65149407D01*
X155235236Y-65162434D01*
X155130633Y-65278607D01*
X155040401Y-65434893D01*
X155038359Y-65441178D01*
X154997030Y-65568378D01*
X154984635Y-65606525D01*
X154965771Y-65786000D01*
X154984635Y-65965475D01*
X154986675Y-65971753D01*
X154986675Y-65971754D01*
X154992146Y-65988593D01*
X155040401Y-66137107D01*
X155043704Y-66142829D01*
X155043705Y-66142830D01*
X155075689Y-66198227D01*
X155130633Y-66293393D01*
X155251387Y-66427504D01*
X155256729Y-66431385D01*
X155256731Y-66431387D01*
X155384367Y-66524120D01*
X155397385Y-66533578D01*
X155403413Y-66536262D01*
X155403415Y-66536263D01*
X155556217Y-66604295D01*
X155562248Y-66606980D01*
X155568703Y-66608352D01*
X155568712Y-66608355D01*
X155625026Y-66620325D01*
X155687499Y-66654053D01*
X155721820Y-66716203D01*
X155717092Y-66787042D01*
X155674816Y-66844079D01*
X155661829Y-66852690D01*
X155657420Y-66855235D01*
X155651386Y-66857922D01*
X155646044Y-66861803D01*
X155646041Y-66861805D01*
X155510731Y-66960113D01*
X155510729Y-66960115D01*
X155505387Y-66963996D01*
X155500966Y-66968906D01*
X155500965Y-66968907D01*
X155395631Y-67085893D01*
X155384633Y-67098107D01*
X155294401Y-67254393D01*
X155292359Y-67260678D01*
X155244313Y-67408551D01*
X155238635Y-67426025D01*
X155219771Y-67605500D01*
X155220461Y-67612065D01*
X155221585Y-67622754D01*
X155238635Y-67784975D01*
X155240675Y-67791253D01*
X155240675Y-67791254D01*
X155264214Y-67863700D01*
X155294401Y-67956607D01*
X155297704Y-67962329D01*
X155297705Y-67962330D01*
X155313274Y-67989296D01*
X155384633Y-68112893D01*
X155389051Y-68117800D01*
X155389052Y-68117801D01*
X155456308Y-68192496D01*
X155505387Y-68247004D01*
X155572136Y-68295500D01*
X155649989Y-68352064D01*
X155693343Y-68408286D01*
X155699418Y-68479023D01*
X155666286Y-68541814D01*
X155604466Y-68576726D01*
X155575928Y-68580000D01*
X151772975Y-68580000D01*
X151721726Y-68569107D01*
X151610225Y-68519463D01*
X151610223Y-68519462D01*
X151604194Y-68516778D01*
X151515934Y-68498018D01*
X151434131Y-68480630D01*
X151434127Y-68480630D01*
X151427674Y-68479258D01*
X151247210Y-68479258D01*
X151240757Y-68480630D01*
X151240753Y-68480630D01*
X151158950Y-68498018D01*
X151070690Y-68516778D01*
X151064661Y-68519462D01*
X151064659Y-68519463D01*
X150953158Y-68569107D01*
X150901909Y-68580000D01*
X150424941Y-68580000D01*
X150356820Y-68559998D01*
X150310327Y-68506342D01*
X150299632Y-68467175D01*
X150298656Y-68457896D01*
X150298655Y-68457893D01*
X150297965Y-68451325D01*
X150289893Y-68426480D01*
X150244241Y-68285978D01*
X150242199Y-68279693D01*
X150236011Y-68268974D01*
X150183964Y-68178828D01*
X150151967Y-68123407D01*
X150146920Y-68117801D01*
X150035635Y-67994207D01*
X150035634Y-67994206D01*
X150031213Y-67989296D01*
X150012225Y-67975500D01*
X149890557Y-67887103D01*
X149890556Y-67887102D01*
X149885215Y-67883222D01*
X149879187Y-67880538D01*
X149879185Y-67880537D01*
X149726383Y-67812505D01*
X149726381Y-67812505D01*
X149720352Y-67809820D01*
X149618199Y-67788107D01*
X149550289Y-67773672D01*
X149550285Y-67773672D01*
X149543832Y-67772300D01*
X149363368Y-67772300D01*
X149356915Y-67773672D01*
X149356911Y-67773672D01*
X149289001Y-67788107D01*
X149186848Y-67809820D01*
X149180819Y-67812504D01*
X149180817Y-67812505D01*
X149028016Y-67880537D01*
X149028014Y-67880538D01*
X149021986Y-67883222D01*
X149016645Y-67887102D01*
X149016644Y-67887103D01*
X148881331Y-67985413D01*
X148881329Y-67985415D01*
X148875987Y-67989296D01*
X148871566Y-67994206D01*
X148871565Y-67994207D01*
X148760281Y-68117801D01*
X148755233Y-68123407D01*
X148723236Y-68178828D01*
X148671190Y-68268974D01*
X148665001Y-68279693D01*
X148662959Y-68285978D01*
X148617308Y-68426480D01*
X148609235Y-68451325D01*
X148608545Y-68457893D01*
X148608544Y-68457896D01*
X148607568Y-68467175D01*
X148580553Y-68532831D01*
X148522330Y-68573458D01*
X148482259Y-68580000D01*
X140005168Y-68580000D01*
X139937047Y-68559998D01*
X139890554Y-68506342D01*
X139887735Y-68499668D01*
X139852198Y-68408286D01*
X139812902Y-68307238D01*
X139679518Y-68073864D01*
X139648761Y-68034848D01*
X139591592Y-67962330D01*
X139513105Y-67862769D01*
X139317317Y-67678591D01*
X139096457Y-67525374D01*
X139092264Y-67523306D01*
X138859564Y-67408551D01*
X138859561Y-67408550D01*
X138855376Y-67406486D01*
X138807745Y-67391239D01*
X138716495Y-67362030D01*
X138599370Y-67324538D01*
X138594763Y-67323788D01*
X138594760Y-67323787D01*
X138338674Y-67282081D01*
X138338675Y-67282081D01*
X138334063Y-67281330D01*
X138203719Y-67279624D01*
X138069961Y-67277873D01*
X138069958Y-67277873D01*
X138065284Y-67277812D01*
X137798937Y-67314060D01*
X137540874Y-67389278D01*
X137296763Y-67501815D01*
X137292854Y-67504378D01*
X137075881Y-67646631D01*
X137075876Y-67646635D01*
X137071968Y-67649197D01*
X137068476Y-67652314D01*
X136892006Y-67809820D01*
X136871426Y-67828188D01*
X136699544Y-68034854D01*
X136697121Y-68038847D01*
X136570808Y-68247004D01*
X136560096Y-68264656D01*
X136558287Y-68268970D01*
X136558285Y-68268974D01*
X136460266Y-68502725D01*
X136415478Y-68557811D01*
X136344069Y-68580000D01*
X130048000Y-68580000D01*
X130046141Y-70480412D01*
X130041836Y-74879627D01*
X130021767Y-74947728D01*
X129968066Y-74994169D01*
X129951105Y-75000467D01*
X129920874Y-75009278D01*
X129676763Y-75121815D01*
X129625112Y-75155679D01*
X129455881Y-75266631D01*
X129455876Y-75266635D01*
X129451968Y-75269197D01*
X129355433Y-75355358D01*
X129262841Y-75438000D01*
X129251426Y-75448188D01*
X129079544Y-75654854D01*
X128940096Y-75884656D01*
X128938287Y-75888970D01*
X128938285Y-75888974D01*
X128837957Y-76128231D01*
X128836148Y-76132545D01*
X128769981Y-76393077D01*
X128743050Y-76660526D01*
X128743274Y-76665192D01*
X128743274Y-76665197D01*
X128746558Y-76733553D01*
X128755947Y-76929019D01*
X128808388Y-77192656D01*
X128899220Y-77445646D01*
X128901432Y-77449762D01*
X128901433Y-77449765D01*
X128936050Y-77514189D01*
X129026450Y-77682431D01*
X129029241Y-77686168D01*
X129029245Y-77686175D01*
X129141720Y-77836796D01*
X129187281Y-77897810D01*
X129190590Y-77901090D01*
X129190595Y-77901096D01*
X129374863Y-78083762D01*
X129378180Y-78087050D01*
X129381942Y-78089808D01*
X129381945Y-78089811D01*
X129582823Y-78237100D01*
X129594954Y-78245995D01*
X129599089Y-78248171D01*
X129599093Y-78248173D01*
X129796250Y-78351903D01*
X129832840Y-78371154D01*
X129927926Y-78404359D01*
X129953802Y-78413396D01*
X130011520Y-78454738D01*
X130037723Y-78520722D01*
X130038261Y-78532474D01*
X130022338Y-94806077D01*
X129998458Y-119212260D01*
X129998446Y-119224292D01*
X129978377Y-119292393D01*
X129924676Y-119338834D01*
X129854392Y-119348869D01*
X129798385Y-119326105D01*
X129722957Y-119271303D01*
X129722956Y-119271302D01*
X129717615Y-119267422D01*
X129711587Y-119264738D01*
X129711585Y-119264737D01*
X129558783Y-119196705D01*
X129558781Y-119196705D01*
X129552752Y-119194020D01*
X129464492Y-119175260D01*
X129382689Y-119157872D01*
X129382685Y-119157872D01*
X129376232Y-119156500D01*
X129195768Y-119156500D01*
X129189315Y-119157872D01*
X129189311Y-119157872D01*
X129107508Y-119175260D01*
X129019248Y-119194020D01*
X129013219Y-119196704D01*
X129013217Y-119196705D01*
X128860416Y-119264737D01*
X128860414Y-119264738D01*
X128854386Y-119267422D01*
X128849045Y-119271302D01*
X128849044Y-119271303D01*
X128713731Y-119369613D01*
X128713729Y-119369615D01*
X128708387Y-119373496D01*
X128703966Y-119378406D01*
X128703965Y-119378407D01*
X128601153Y-119492592D01*
X128587633Y-119507607D01*
X128497401Y-119663893D01*
X128441635Y-119835525D01*
X128422771Y-120015000D01*
X126278956Y-120015000D01*
X126402776Y-119928301D01*
X126552301Y-119778776D01*
X126673589Y-119605558D01*
X126719265Y-119507607D01*
X126760633Y-119418892D01*
X126760634Y-119418891D01*
X126762956Y-119413910D01*
X126774826Y-119369613D01*
X126816262Y-119214970D01*
X126816262Y-119214968D01*
X126817686Y-119209655D01*
X126836116Y-118999000D01*
X126817686Y-118788345D01*
X126762956Y-118584090D01*
X126757430Y-118572239D01*
X126675912Y-118397423D01*
X126675910Y-118397420D01*
X126673589Y-118392442D01*
X126552301Y-118219224D01*
X126402776Y-118069699D01*
X126229558Y-117948411D01*
X126224580Y-117946090D01*
X126224577Y-117946088D01*
X126042892Y-117861367D01*
X126042891Y-117861366D01*
X126037910Y-117859044D01*
X126032602Y-117857622D01*
X126032600Y-117857621D01*
X125838970Y-117805738D01*
X125838968Y-117805738D01*
X125833655Y-117804314D01*
X125623000Y-117785884D01*
X125412345Y-117804314D01*
X125407032Y-117805738D01*
X125407030Y-117805738D01*
X125213400Y-117857621D01*
X125213398Y-117857622D01*
X125208090Y-117859044D01*
X125203109Y-117861366D01*
X125203108Y-117861367D01*
X125021423Y-117946088D01*
X125021420Y-117946090D01*
X125016442Y-117948411D01*
X124843224Y-118069699D01*
X124693699Y-118219224D01*
X124572411Y-118392442D01*
X124570090Y-118397420D01*
X124570088Y-118397423D01*
X124488570Y-118572239D01*
X124483044Y-118584090D01*
X124481622Y-118589398D01*
X124481621Y-118589400D01*
X124474707Y-118615204D01*
X124437755Y-118675827D01*
X124373894Y-118706848D01*
X124303400Y-118698420D01*
X124248653Y-118653217D01*
X124231293Y-118615204D01*
X124224379Y-118589400D01*
X124224378Y-118589398D01*
X124222956Y-118584090D01*
X124217430Y-118572239D01*
X124135912Y-118397423D01*
X124135910Y-118397420D01*
X124133589Y-118392442D01*
X124012301Y-118219224D01*
X123862776Y-118069699D01*
X123689558Y-117948411D01*
X123684580Y-117946090D01*
X123684577Y-117946088D01*
X123502892Y-117861367D01*
X123502891Y-117861366D01*
X123497910Y-117859044D01*
X123492602Y-117857622D01*
X123492600Y-117857621D01*
X123298970Y-117805738D01*
X123298968Y-117805738D01*
X123293655Y-117804314D01*
X123083000Y-117785884D01*
X122872345Y-117804314D01*
X122867032Y-117805738D01*
X122867030Y-117805738D01*
X122673400Y-117857621D01*
X122673398Y-117857622D01*
X122668090Y-117859044D01*
X122663109Y-117861366D01*
X122663108Y-117861367D01*
X122481423Y-117946088D01*
X122481420Y-117946090D01*
X122476442Y-117948411D01*
X122303224Y-118069699D01*
X122153699Y-118219224D01*
X122032411Y-118392442D01*
X122030090Y-118397420D01*
X122030088Y-118397423D01*
X121948570Y-118572239D01*
X121943044Y-118584090D01*
X121888314Y-118788345D01*
X121869884Y-118999000D01*
X110363500Y-118999000D01*
X110363500Y-115268526D01*
X111979050Y-115268526D01*
X111979274Y-115273192D01*
X111979274Y-115273197D01*
X111985460Y-115401971D01*
X111991947Y-115537019D01*
X112044388Y-115800656D01*
X112135220Y-116053646D01*
X112137432Y-116057762D01*
X112137433Y-116057765D01*
X112163111Y-116105554D01*
X112262450Y-116290431D01*
X112265241Y-116294168D01*
X112265245Y-116294175D01*
X112346887Y-116403506D01*
X112423281Y-116505810D01*
X112426590Y-116509090D01*
X112426595Y-116509096D01*
X112576473Y-116657671D01*
X112614180Y-116695050D01*
X112617942Y-116697808D01*
X112617945Y-116697811D01*
X112730299Y-116780192D01*
X112830954Y-116853995D01*
X112835089Y-116856171D01*
X112835093Y-116856173D01*
X113064698Y-116976975D01*
X113068840Y-116979154D01*
X113322613Y-117067775D01*
X113327206Y-117068647D01*
X113582109Y-117117042D01*
X113582112Y-117117042D01*
X113586698Y-117117913D01*
X113714370Y-117122929D01*
X113850625Y-117128283D01*
X113850630Y-117128283D01*
X113855293Y-117128466D01*
X113959607Y-117117042D01*
X114117844Y-117099713D01*
X114117850Y-117099712D01*
X114122497Y-117099203D01*
X114127021Y-117098012D01*
X114377918Y-117031956D01*
X114377920Y-117031955D01*
X114382441Y-117030765D01*
X114386738Y-117028919D01*
X114625120Y-116926502D01*
X114625122Y-116926501D01*
X114629414Y-116924657D01*
X114748071Y-116851230D01*
X114854017Y-116785669D01*
X114854021Y-116785666D01*
X114857990Y-116783210D01*
X115063149Y-116609530D01*
X115240382Y-116407434D01*
X115385797Y-116181361D01*
X115496199Y-115936278D01*
X115533209Y-115805051D01*
X115567893Y-115682072D01*
X115567894Y-115682069D01*
X115569163Y-115677568D01*
X115587043Y-115537019D01*
X115602688Y-115414045D01*
X115602688Y-115414041D01*
X115603086Y-115410915D01*
X115603226Y-115405598D01*
X115605488Y-115319160D01*
X115605571Y-115316000D01*
X115602043Y-115268526D01*
X122520050Y-115268526D01*
X122520274Y-115273192D01*
X122520274Y-115273197D01*
X122526460Y-115401971D01*
X122532947Y-115537019D01*
X122585388Y-115800656D01*
X122676220Y-116053646D01*
X122678432Y-116057762D01*
X122678433Y-116057765D01*
X122704111Y-116105554D01*
X122803450Y-116290431D01*
X122806241Y-116294168D01*
X122806245Y-116294175D01*
X122887887Y-116403506D01*
X122964281Y-116505810D01*
X122967590Y-116509090D01*
X122967595Y-116509096D01*
X123117473Y-116657671D01*
X123155180Y-116695050D01*
X123158942Y-116697808D01*
X123158945Y-116697811D01*
X123271299Y-116780192D01*
X123371954Y-116853995D01*
X123376089Y-116856171D01*
X123376093Y-116856173D01*
X123605698Y-116976975D01*
X123609840Y-116979154D01*
X123863613Y-117067775D01*
X123868206Y-117068647D01*
X124123109Y-117117042D01*
X124123112Y-117117042D01*
X124127698Y-117117913D01*
X124255370Y-117122929D01*
X124391625Y-117128283D01*
X124391630Y-117128283D01*
X124396293Y-117128466D01*
X124500607Y-117117042D01*
X124658844Y-117099713D01*
X124658850Y-117099712D01*
X124663497Y-117099203D01*
X124668021Y-117098012D01*
X124918918Y-117031956D01*
X124918920Y-117031955D01*
X124923441Y-117030765D01*
X124927738Y-117028919D01*
X125166120Y-116926502D01*
X125166122Y-116926501D01*
X125170414Y-116924657D01*
X125289071Y-116851230D01*
X125395017Y-116785669D01*
X125395021Y-116785666D01*
X125398990Y-116783210D01*
X125604149Y-116609530D01*
X125781382Y-116407434D01*
X125926797Y-116181361D01*
X126037199Y-115936278D01*
X126074209Y-115805051D01*
X126108893Y-115682072D01*
X126108894Y-115682069D01*
X126110163Y-115677568D01*
X126128043Y-115537019D01*
X126143688Y-115414045D01*
X126143688Y-115414041D01*
X126144086Y-115410915D01*
X126144226Y-115405598D01*
X126146488Y-115319160D01*
X126146571Y-115316000D01*
X126126650Y-115047937D01*
X126125596Y-115043277D01*
X126068361Y-114790331D01*
X126068360Y-114790326D01*
X126067327Y-114785763D01*
X125969902Y-114535238D01*
X125836518Y-114301864D01*
X125833162Y-114297606D01*
X125711800Y-114143659D01*
X125670105Y-114090769D01*
X125474317Y-113906591D01*
X125253457Y-113753374D01*
X125249264Y-113751306D01*
X125016564Y-113636551D01*
X125016561Y-113636550D01*
X125012376Y-113634486D01*
X124964745Y-113619239D01*
X124910621Y-113601914D01*
X124756370Y-113552538D01*
X124751763Y-113551788D01*
X124751760Y-113551787D01*
X124530563Y-113515763D01*
X124491063Y-113509330D01*
X124360719Y-113507624D01*
X124226961Y-113505873D01*
X124226958Y-113505873D01*
X124222284Y-113505812D01*
X123955937Y-113542060D01*
X123697874Y-113617278D01*
X123453763Y-113729815D01*
X123449854Y-113732378D01*
X123232881Y-113874631D01*
X123232876Y-113874635D01*
X123228968Y-113877197D01*
X123225476Y-113880314D01*
X123039841Y-114046000D01*
X123028426Y-114056188D01*
X122856544Y-114262854D01*
X122717096Y-114492656D01*
X122715287Y-114496970D01*
X122715285Y-114496974D01*
X122614957Y-114736231D01*
X122613148Y-114740545D01*
X122546981Y-115001077D01*
X122520050Y-115268526D01*
X115602043Y-115268526D01*
X115585650Y-115047937D01*
X115584596Y-115043277D01*
X115527361Y-114790331D01*
X115527360Y-114790326D01*
X115526327Y-114785763D01*
X115428902Y-114535238D01*
X115295518Y-114301864D01*
X115292162Y-114297606D01*
X115170800Y-114143659D01*
X115129105Y-114090769D01*
X114933317Y-113906591D01*
X114712457Y-113753374D01*
X114708264Y-113751306D01*
X114475564Y-113636551D01*
X114475561Y-113636550D01*
X114471376Y-113634486D01*
X114423745Y-113619239D01*
X114369621Y-113601914D01*
X114215370Y-113552538D01*
X114210763Y-113551788D01*
X114210760Y-113551787D01*
X113989563Y-113515763D01*
X113950063Y-113509330D01*
X113819719Y-113507624D01*
X113685961Y-113505873D01*
X113685958Y-113505873D01*
X113681284Y-113505812D01*
X113414937Y-113542060D01*
X113156874Y-113617278D01*
X112912763Y-113729815D01*
X112908854Y-113732378D01*
X112691881Y-113874631D01*
X112691876Y-113874635D01*
X112687968Y-113877197D01*
X112684476Y-113880314D01*
X112498841Y-114046000D01*
X112487426Y-114056188D01*
X112315544Y-114262854D01*
X112176096Y-114492656D01*
X112174287Y-114496970D01*
X112174285Y-114496974D01*
X112073957Y-114736231D01*
X112072148Y-114740545D01*
X112005981Y-115001077D01*
X111979050Y-115268526D01*
X110363500Y-115268526D01*
X110363500Y-79139261D01*
X120127294Y-79139261D01*
X120136590Y-79151276D01*
X120166189Y-79172001D01*
X120175677Y-79177479D01*
X120357277Y-79262159D01*
X120367571Y-79265907D01*
X120561122Y-79317769D01*
X120571909Y-79319671D01*
X120771525Y-79337135D01*
X120782475Y-79337135D01*
X120982091Y-79319671D01*
X120992878Y-79317769D01*
X121186429Y-79265907D01*
X121196723Y-79262159D01*
X121378323Y-79177479D01*
X121387811Y-79172001D01*
X121418248Y-79150689D01*
X121426623Y-79140212D01*
X121419554Y-79126764D01*
X120789812Y-78497022D01*
X120775868Y-78489408D01*
X120774035Y-78489539D01*
X120767420Y-78493790D01*
X120133724Y-79127486D01*
X120127294Y-79139261D01*
X110363500Y-79139261D01*
X110363500Y-78130475D01*
X119564865Y-78130475D01*
X119582329Y-78330091D01*
X119584231Y-78340878D01*
X119636093Y-78534429D01*
X119639841Y-78544723D01*
X119724521Y-78726323D01*
X119729999Y-78735811D01*
X119751311Y-78766248D01*
X119761788Y-78774623D01*
X119775236Y-78767554D01*
X120404978Y-78137812D01*
X120411356Y-78126132D01*
X121141408Y-78126132D01*
X121141539Y-78127965D01*
X121145790Y-78134580D01*
X121779486Y-78768276D01*
X121791261Y-78774706D01*
X121803276Y-78765410D01*
X121824001Y-78735811D01*
X121829479Y-78726323D01*
X121914159Y-78544723D01*
X121917907Y-78534429D01*
X121969769Y-78340878D01*
X121971671Y-78330091D01*
X121989135Y-78130475D01*
X121989135Y-78119525D01*
X121971671Y-77919909D01*
X121969769Y-77909122D01*
X121917907Y-77715571D01*
X121914159Y-77705277D01*
X121829479Y-77523677D01*
X121824001Y-77514189D01*
X121802689Y-77483752D01*
X121792212Y-77475377D01*
X121778764Y-77482446D01*
X121149022Y-78112188D01*
X121141408Y-78126132D01*
X120411356Y-78126132D01*
X120412592Y-78123868D01*
X120412461Y-78122035D01*
X120408210Y-78115420D01*
X119774514Y-77481724D01*
X119762739Y-77475294D01*
X119750724Y-77484590D01*
X119729999Y-77514189D01*
X119724521Y-77523677D01*
X119639841Y-77705277D01*
X119636093Y-77715571D01*
X119584231Y-77909122D01*
X119582329Y-77919909D01*
X119564865Y-78119525D01*
X119564865Y-78130475D01*
X110363500Y-78130475D01*
X110363500Y-75585000D01*
X119563884Y-75585000D01*
X119582314Y-75795655D01*
X119583738Y-75800968D01*
X119583738Y-75800970D01*
X119605091Y-75880658D01*
X119637044Y-75999910D01*
X119639366Y-76004891D01*
X119639367Y-76004892D01*
X119698893Y-76132545D01*
X119726411Y-76191558D01*
X119847699Y-76364776D01*
X119997224Y-76514301D01*
X120170442Y-76635589D01*
X120175420Y-76637910D01*
X120175423Y-76637912D01*
X120357108Y-76722633D01*
X120362090Y-76724956D01*
X120367397Y-76726378D01*
X120367408Y-76726382D01*
X120394171Y-76733553D01*
X120454793Y-76770504D01*
X120485815Y-76834365D01*
X120477386Y-76904860D01*
X120432182Y-76959606D01*
X120394170Y-76976966D01*
X120367574Y-76984092D01*
X120357277Y-76987841D01*
X120175677Y-77072521D01*
X120166189Y-77077999D01*
X120135752Y-77099311D01*
X120127377Y-77109788D01*
X120134446Y-77123236D01*
X120764188Y-77752978D01*
X120778132Y-77760592D01*
X120779965Y-77760461D01*
X120786580Y-77756210D01*
X121420276Y-77122514D01*
X121426706Y-77110739D01*
X121417410Y-77098724D01*
X121387811Y-77077999D01*
X121378323Y-77072521D01*
X121196723Y-76987841D01*
X121186426Y-76984092D01*
X121159830Y-76976966D01*
X121099207Y-76940014D01*
X121068186Y-76876154D01*
X121076614Y-76805659D01*
X121121817Y-76750912D01*
X121159829Y-76733553D01*
X121186592Y-76726382D01*
X121186603Y-76726378D01*
X121191910Y-76724956D01*
X121196892Y-76722633D01*
X121378577Y-76637912D01*
X121378580Y-76637910D01*
X121383558Y-76635589D01*
X121556776Y-76514301D01*
X121706301Y-76364776D01*
X121827589Y-76191558D01*
X121855108Y-76132545D01*
X121914633Y-76004892D01*
X121914634Y-76004891D01*
X121916956Y-75999910D01*
X121948910Y-75880658D01*
X121970262Y-75800970D01*
X121970262Y-75800968D01*
X121971686Y-75795655D01*
X121990116Y-75585000D01*
X121971686Y-75374345D01*
X121968040Y-75360739D01*
X121918379Y-75175400D01*
X121918378Y-75175398D01*
X121916956Y-75170090D01*
X121895640Y-75124378D01*
X121829912Y-74983423D01*
X121829910Y-74983420D01*
X121827589Y-74978442D01*
X121706301Y-74805224D01*
X121556776Y-74655699D01*
X121383558Y-74534411D01*
X121378580Y-74532090D01*
X121378577Y-74532088D01*
X121196892Y-74447367D01*
X121196891Y-74447366D01*
X121191910Y-74445044D01*
X121186602Y-74443622D01*
X121186600Y-74443621D01*
X120992970Y-74391738D01*
X120992968Y-74391738D01*
X120987655Y-74390314D01*
X120777000Y-74371884D01*
X120566345Y-74390314D01*
X120561032Y-74391738D01*
X120561030Y-74391738D01*
X120367400Y-74443621D01*
X120367398Y-74443622D01*
X120362090Y-74445044D01*
X120357109Y-74447366D01*
X120357108Y-74447367D01*
X120175423Y-74532088D01*
X120175420Y-74532090D01*
X120170442Y-74534411D01*
X119997224Y-74655699D01*
X119847699Y-74805224D01*
X119726411Y-74978442D01*
X119724090Y-74983420D01*
X119724088Y-74983423D01*
X119658360Y-75124378D01*
X119637044Y-75170090D01*
X119635622Y-75175398D01*
X119635621Y-75175400D01*
X119585960Y-75360739D01*
X119582314Y-75374345D01*
X119563884Y-75585000D01*
X110363500Y-75585000D01*
X110363500Y-70564526D01*
X111852050Y-70564526D01*
X111852274Y-70569192D01*
X111852274Y-70569197D01*
X111854179Y-70608849D01*
X111864947Y-70833019D01*
X111917388Y-71096656D01*
X112008220Y-71349646D01*
X112135450Y-71586431D01*
X112138241Y-71590168D01*
X112138245Y-71590175D01*
X112219887Y-71699506D01*
X112296281Y-71801810D01*
X112299590Y-71805090D01*
X112299595Y-71805096D01*
X112483863Y-71987762D01*
X112487180Y-71991050D01*
X112490942Y-71993808D01*
X112490945Y-71993811D01*
X112603299Y-72076192D01*
X112703954Y-72149995D01*
X112708089Y-72152171D01*
X112708093Y-72152173D01*
X112937698Y-72272975D01*
X112941840Y-72275154D01*
X113195613Y-72363775D01*
X113200206Y-72364647D01*
X113455109Y-72413042D01*
X113455112Y-72413042D01*
X113459698Y-72413913D01*
X113587370Y-72418929D01*
X113723625Y-72424283D01*
X113723630Y-72424283D01*
X113728293Y-72424466D01*
X113845126Y-72411671D01*
X113990844Y-72395713D01*
X113990850Y-72395712D01*
X113995497Y-72395203D01*
X114000021Y-72394012D01*
X114250918Y-72327956D01*
X114250920Y-72327955D01*
X114255441Y-72326765D01*
X114259738Y-72324919D01*
X114498120Y-72222502D01*
X114498122Y-72222501D01*
X114502414Y-72220657D01*
X114621071Y-72147230D01*
X114727017Y-72081669D01*
X114727021Y-72081666D01*
X114730990Y-72079210D01*
X114936149Y-71905530D01*
X115113382Y-71703434D01*
X115157350Y-71635079D01*
X115256269Y-71481291D01*
X115258797Y-71477361D01*
X115369199Y-71232278D01*
X115406209Y-71101051D01*
X115440893Y-70978072D01*
X115440894Y-70978069D01*
X115442163Y-70973568D01*
X115458176Y-70847697D01*
X115475688Y-70710045D01*
X115475688Y-70710041D01*
X115476086Y-70706915D01*
X115478571Y-70612000D01*
X115473951Y-70549827D01*
X115488850Y-70480412D01*
X115538913Y-70430070D01*
X115608245Y-70414787D01*
X115674834Y-70439413D01*
X115708724Y-70477490D01*
X115786033Y-70611393D01*
X115790451Y-70616300D01*
X115790452Y-70616301D01*
X115902365Y-70740593D01*
X115906787Y-70745504D01*
X115912129Y-70749385D01*
X115912131Y-70749387D01*
X116047443Y-70847697D01*
X116052785Y-70851578D01*
X116058813Y-70854262D01*
X116058815Y-70854263D01*
X116211617Y-70922295D01*
X116217648Y-70924980D01*
X116305908Y-70943740D01*
X116387711Y-70961128D01*
X116387715Y-70961128D01*
X116394168Y-70962500D01*
X116574632Y-70962500D01*
X116581085Y-70961128D01*
X116581089Y-70961128D01*
X116662892Y-70943740D01*
X116751152Y-70924980D01*
X116757183Y-70922295D01*
X116909985Y-70854263D01*
X116909987Y-70854262D01*
X116916015Y-70851578D01*
X116921357Y-70847697D01*
X117056669Y-70749387D01*
X117056671Y-70749385D01*
X117062013Y-70745504D01*
X117066435Y-70740593D01*
X117178348Y-70616301D01*
X117178349Y-70616300D01*
X117182767Y-70611393D01*
X117272999Y-70455107D01*
X117322832Y-70301735D01*
X117326725Y-70289754D01*
X117326725Y-70289753D01*
X117328765Y-70283475D01*
X117347629Y-70104000D01*
X117328765Y-69924525D01*
X117301646Y-69841060D01*
X117299619Y-69770092D01*
X117336281Y-69709294D01*
X117399994Y-69677969D01*
X117447676Y-69678877D01*
X117505311Y-69691128D01*
X117505315Y-69691128D01*
X117511768Y-69692500D01*
X117692232Y-69692500D01*
X117698685Y-69691128D01*
X117698689Y-69691128D01*
X117780492Y-69673740D01*
X117868752Y-69654980D01*
X117987922Y-69601922D01*
X118027585Y-69584263D01*
X118027587Y-69584262D01*
X118033615Y-69581578D01*
X118072521Y-69553311D01*
X118174269Y-69479387D01*
X118174271Y-69479385D01*
X118179613Y-69475504D01*
X118300367Y-69341393D01*
X118390599Y-69185107D01*
X118442356Y-69025815D01*
X118444325Y-69019754D01*
X118444325Y-69019753D01*
X118446365Y-69013475D01*
X118465229Y-68834000D01*
X118446365Y-68654525D01*
X118428037Y-68598115D01*
X118392641Y-68489178D01*
X118390599Y-68482893D01*
X118300367Y-68326607D01*
X118286849Y-68311593D01*
X118184035Y-68197407D01*
X118184034Y-68197406D01*
X118179613Y-68192496D01*
X118172411Y-68187263D01*
X118038957Y-68090303D01*
X118038956Y-68090302D01*
X118033615Y-68086422D01*
X118027583Y-68083737D01*
X118027579Y-68083734D01*
X118021050Y-68080827D01*
X117966953Y-68034848D01*
X117946303Y-67966921D01*
X117965655Y-67898613D01*
X118018865Y-67851611D01*
X118046100Y-67842473D01*
X118075147Y-67836299D01*
X118122752Y-67826180D01*
X118128783Y-67823495D01*
X118281585Y-67755463D01*
X118281587Y-67755462D01*
X118287615Y-67752778D01*
X118385312Y-67681797D01*
X118428269Y-67650587D01*
X118428271Y-67650585D01*
X118433613Y-67646704D01*
X118470713Y-67605500D01*
X118549948Y-67517501D01*
X118549949Y-67517500D01*
X118554367Y-67512593D01*
X118644599Y-67356307D01*
X118676695Y-67257525D01*
X118698325Y-67190954D01*
X118698325Y-67190953D01*
X118700365Y-67184675D01*
X118719229Y-67005200D01*
X118700365Y-66825725D01*
X118689282Y-66791613D01*
X118646641Y-66660378D01*
X118644599Y-66654093D01*
X118639061Y-66644500D01*
X118577123Y-66537222D01*
X118554367Y-66497807D01*
X118440978Y-66371875D01*
X118438035Y-66368607D01*
X118438034Y-66368606D01*
X118433613Y-66363696D01*
X118336850Y-66293393D01*
X118292957Y-66261503D01*
X118292956Y-66261502D01*
X118287615Y-66257622D01*
X118281587Y-66254938D01*
X118281585Y-66254937D01*
X118141125Y-66192400D01*
X148133171Y-66192400D01*
X148152035Y-66371875D01*
X148207801Y-66543507D01*
X148298033Y-66699793D01*
X148302451Y-66704700D01*
X148302452Y-66704701D01*
X148414365Y-66828993D01*
X148418787Y-66833904D01*
X148424129Y-66837785D01*
X148424131Y-66837787D01*
X148559443Y-66936097D01*
X148564785Y-66939978D01*
X148570813Y-66942662D01*
X148570815Y-66942663D01*
X148618730Y-66963996D01*
X148729648Y-67013380D01*
X148817908Y-67032140D01*
X148899711Y-67049528D01*
X148899715Y-67049528D01*
X148906168Y-67050900D01*
X149086632Y-67050900D01*
X149093085Y-67049528D01*
X149093089Y-67049528D01*
X149174892Y-67032140D01*
X149263152Y-67013380D01*
X149374070Y-66963996D01*
X149421985Y-66942663D01*
X149421987Y-66942662D01*
X149428015Y-66939978D01*
X149433357Y-66936097D01*
X149568669Y-66837787D01*
X149568671Y-66837785D01*
X149574013Y-66833904D01*
X149578435Y-66828993D01*
X149690348Y-66704701D01*
X149690349Y-66704700D01*
X149694767Y-66699793D01*
X149784999Y-66543507D01*
X149832700Y-66396697D01*
X149872773Y-66338091D01*
X149926336Y-66312386D01*
X149974352Y-66302180D01*
X149980383Y-66299495D01*
X150133185Y-66231463D01*
X150133187Y-66231462D01*
X150139215Y-66228778D01*
X150250297Y-66148072D01*
X150279869Y-66126587D01*
X150279871Y-66126585D01*
X150285213Y-66122704D01*
X150378148Y-66019489D01*
X150401548Y-65993501D01*
X150401549Y-65993500D01*
X150405967Y-65988593D01*
X150496199Y-65832307D01*
X150526170Y-65740066D01*
X150566244Y-65681460D01*
X150619806Y-65655756D01*
X150679086Y-65643155D01*
X150679092Y-65643153D01*
X150685552Y-65641780D01*
X150778839Y-65600246D01*
X150844385Y-65571063D01*
X150844387Y-65571062D01*
X150850415Y-65568378D01*
X150855757Y-65564497D01*
X150991069Y-65466187D01*
X150991071Y-65466185D01*
X150996413Y-65462304D01*
X151000835Y-65457393D01*
X151112748Y-65333101D01*
X151112749Y-65333100D01*
X151117167Y-65328193D01*
X151207399Y-65171907D01*
X151249077Y-65043633D01*
X151261125Y-65006554D01*
X151261125Y-65006553D01*
X151263165Y-65000275D01*
X151282029Y-64820800D01*
X151271598Y-64721558D01*
X151263855Y-64647889D01*
X151263855Y-64647888D01*
X151263165Y-64641325D01*
X151207399Y-64469693D01*
X151117167Y-64313407D01*
X150996413Y-64179296D01*
X150967832Y-64158530D01*
X150855757Y-64077103D01*
X150855756Y-64077102D01*
X150850415Y-64073222D01*
X150844387Y-64070538D01*
X150844385Y-64070537D01*
X150691583Y-64002505D01*
X150691581Y-64002505D01*
X150685552Y-63999820D01*
X150597292Y-63981060D01*
X150515489Y-63963672D01*
X150515485Y-63963672D01*
X150509032Y-63962300D01*
X150328568Y-63962300D01*
X150322115Y-63963672D01*
X150322111Y-63963672D01*
X150240308Y-63981060D01*
X150152048Y-63999820D01*
X150146019Y-64002504D01*
X150146017Y-64002505D01*
X149993216Y-64070537D01*
X149993214Y-64070538D01*
X149987186Y-64073222D01*
X149981845Y-64077102D01*
X149981844Y-64077103D01*
X149846531Y-64175413D01*
X149846529Y-64175415D01*
X149841187Y-64179296D01*
X149720433Y-64313407D01*
X149630201Y-64469693D01*
X149628159Y-64475978D01*
X149600230Y-64561934D01*
X149560156Y-64620540D01*
X149506594Y-64646244D01*
X149447314Y-64658845D01*
X149447308Y-64658847D01*
X149440848Y-64660220D01*
X149434819Y-64662904D01*
X149434817Y-64662905D01*
X149282016Y-64730937D01*
X149282014Y-64730938D01*
X149275986Y-64733622D01*
X149270645Y-64737502D01*
X149270644Y-64737503D01*
X149135331Y-64835813D01*
X149135329Y-64835815D01*
X149129987Y-64839696D01*
X149125566Y-64844606D01*
X149125565Y-64844607D01*
X149049693Y-64928872D01*
X149009233Y-64973807D01*
X148919001Y-65130093D01*
X148889945Y-65219519D01*
X148871300Y-65276903D01*
X148831227Y-65335509D01*
X148777664Y-65361214D01*
X148729648Y-65371420D01*
X148723619Y-65374104D01*
X148723617Y-65374105D01*
X148570816Y-65442137D01*
X148570814Y-65442138D01*
X148564786Y-65444822D01*
X148559445Y-65448702D01*
X148559444Y-65448703D01*
X148424131Y-65547013D01*
X148424129Y-65547015D01*
X148418787Y-65550896D01*
X148414366Y-65555806D01*
X148414365Y-65555807D01*
X148400629Y-65571063D01*
X148298033Y-65685007D01*
X148294732Y-65690725D01*
X148239725Y-65786000D01*
X148207801Y-65841293D01*
X148152035Y-66012925D01*
X148151345Y-66019488D01*
X148151345Y-66019489D01*
X148140088Y-66126587D01*
X148133171Y-66192400D01*
X118141125Y-66192400D01*
X118128783Y-66186905D01*
X118128781Y-66186905D01*
X118122752Y-66184220D01*
X118034492Y-66165460D01*
X117952689Y-66148072D01*
X117952685Y-66148072D01*
X117946232Y-66146700D01*
X117765768Y-66146700D01*
X117759315Y-66148072D01*
X117759311Y-66148072D01*
X117677508Y-66165460D01*
X117589248Y-66184220D01*
X117583219Y-66186904D01*
X117583217Y-66186905D01*
X117430416Y-66254937D01*
X117430414Y-66254938D01*
X117424386Y-66257622D01*
X117419045Y-66261502D01*
X117419044Y-66261503D01*
X117283731Y-66359813D01*
X117283729Y-66359815D01*
X117278387Y-66363696D01*
X117273966Y-66368606D01*
X117273965Y-66368607D01*
X117271023Y-66371875D01*
X117157633Y-66497807D01*
X117134877Y-66537222D01*
X117072940Y-66644500D01*
X117067401Y-66654093D01*
X117065359Y-66660378D01*
X117022719Y-66791613D01*
X117011635Y-66825725D01*
X116992771Y-67005200D01*
X117011635Y-67184675D01*
X117013675Y-67190953D01*
X117013675Y-67190954D01*
X117035305Y-67257525D01*
X117067401Y-67356307D01*
X117157633Y-67512593D01*
X117162051Y-67517500D01*
X117162052Y-67517501D01*
X117241287Y-67605500D01*
X117278387Y-67646704D01*
X117283729Y-67650585D01*
X117283731Y-67650587D01*
X117326688Y-67681797D01*
X117424385Y-67752778D01*
X117430417Y-67755463D01*
X117430421Y-67755466D01*
X117436950Y-67758373D01*
X117491047Y-67804352D01*
X117511697Y-67872279D01*
X117492345Y-67940587D01*
X117439135Y-67987589D01*
X117411900Y-67996727D01*
X117382853Y-68002901D01*
X117335248Y-68013020D01*
X117329219Y-68015704D01*
X117329217Y-68015705D01*
X117176416Y-68083737D01*
X117176414Y-68083738D01*
X117170386Y-68086422D01*
X117141939Y-68107090D01*
X117117260Y-68125020D01*
X117050392Y-68148878D01*
X116981241Y-68132797D01*
X116969139Y-68125019D01*
X116921357Y-68090303D01*
X116921356Y-68090302D01*
X116916015Y-68086422D01*
X116909987Y-68083738D01*
X116909985Y-68083737D01*
X116757183Y-68015705D01*
X116757181Y-68015705D01*
X116751152Y-68013020D01*
X116662643Y-67994207D01*
X116581089Y-67976872D01*
X116581085Y-67976872D01*
X116574632Y-67975500D01*
X116394168Y-67975500D01*
X116387715Y-67976872D01*
X116387711Y-67976872D01*
X116306157Y-67994207D01*
X116217648Y-68013020D01*
X116211619Y-68015704D01*
X116211617Y-68015705D01*
X116058816Y-68083737D01*
X116058814Y-68083738D01*
X116052786Y-68086422D01*
X116047445Y-68090302D01*
X116047444Y-68090303D01*
X115912131Y-68188613D01*
X115912129Y-68188615D01*
X115906787Y-68192496D01*
X115902366Y-68197406D01*
X115902365Y-68197407D01*
X115799552Y-68311593D01*
X115786033Y-68326607D01*
X115695801Y-68482893D01*
X115693759Y-68489178D01*
X115658364Y-68598115D01*
X115640035Y-68654525D01*
X115621171Y-68834000D01*
X115640035Y-69013475D01*
X115642075Y-69019753D01*
X115642075Y-69019754D01*
X115644044Y-69025815D01*
X115695801Y-69185107D01*
X115786033Y-69341393D01*
X115824009Y-69383569D01*
X115825017Y-69384689D01*
X115855734Y-69448697D01*
X115846970Y-69519151D01*
X115825017Y-69553311D01*
X115797148Y-69584263D01*
X115786033Y-69596607D01*
X115782730Y-69602328D01*
X115739059Y-69677969D01*
X115695801Y-69752893D01*
X115640035Y-69924525D01*
X115639345Y-69931089D01*
X115639345Y-69931090D01*
X115630147Y-70018604D01*
X115603134Y-70084261D01*
X115544912Y-70124891D01*
X115473967Y-70127594D01*
X115412823Y-70091512D01*
X115387404Y-70051102D01*
X115335738Y-69918246D01*
X115301902Y-69831238D01*
X115168518Y-69597864D01*
X115155680Y-69581578D01*
X115075119Y-69479387D01*
X115002105Y-69386769D01*
X114806317Y-69202591D01*
X114585457Y-69049374D01*
X114581264Y-69047306D01*
X114348564Y-68932551D01*
X114348561Y-68932550D01*
X114344376Y-68930486D01*
X114296745Y-68915239D01*
X114242621Y-68897914D01*
X114088370Y-68848538D01*
X114083763Y-68847788D01*
X114083760Y-68847787D01*
X113827674Y-68806081D01*
X113827675Y-68806081D01*
X113823063Y-68805330D01*
X113692719Y-68803624D01*
X113558961Y-68801873D01*
X113558958Y-68801873D01*
X113554284Y-68801812D01*
X113287937Y-68838060D01*
X113283451Y-68839368D01*
X113283449Y-68839368D01*
X113254565Y-68847787D01*
X113029874Y-68913278D01*
X112785763Y-69025815D01*
X112781854Y-69028378D01*
X112564881Y-69170631D01*
X112564876Y-69170635D01*
X112560968Y-69173197D01*
X112557476Y-69176314D01*
X112372521Y-69341393D01*
X112360426Y-69352188D01*
X112188544Y-69558854D01*
X112049096Y-69788656D01*
X111945148Y-70036545D01*
X111878981Y-70297077D01*
X111852050Y-70564526D01*
X110363500Y-70564526D01*
X110363500Y-62103000D01*
X122580771Y-62103000D01*
X122599635Y-62282475D01*
X122601675Y-62288753D01*
X122601675Y-62288754D01*
X122615207Y-62330402D01*
X122655401Y-62454107D01*
X122745633Y-62610393D01*
X122750051Y-62615300D01*
X122750052Y-62615301D01*
X122861965Y-62739593D01*
X122866387Y-62744504D01*
X122871729Y-62748385D01*
X122871731Y-62748387D01*
X123007043Y-62846697D01*
X123012385Y-62850578D01*
X123018413Y-62853262D01*
X123018415Y-62853263D01*
X123169014Y-62920314D01*
X123177248Y-62923980D01*
X123265508Y-62942740D01*
X123347311Y-62960128D01*
X123347315Y-62960128D01*
X123353768Y-62961500D01*
X123534232Y-62961500D01*
X123540685Y-62960128D01*
X123540689Y-62960128D01*
X123622492Y-62942740D01*
X123710752Y-62923980D01*
X123718986Y-62920314D01*
X123869585Y-62853263D01*
X123869587Y-62853262D01*
X123875615Y-62850578D01*
X123880957Y-62846697D01*
X123921107Y-62817526D01*
X174971050Y-62817526D01*
X174971274Y-62822192D01*
X174971274Y-62822197D01*
X174976163Y-62923980D01*
X174983947Y-63086019D01*
X175036388Y-63349656D01*
X175127220Y-63602646D01*
X175254450Y-63839431D01*
X175257241Y-63843168D01*
X175257245Y-63843175D01*
X175347225Y-63963672D01*
X175415281Y-64054810D01*
X175418590Y-64058090D01*
X175418595Y-64058096D01*
X175536941Y-64175413D01*
X175606180Y-64244050D01*
X175609942Y-64246808D01*
X175609945Y-64246811D01*
X175717475Y-64325655D01*
X175822954Y-64402995D01*
X175827089Y-64405171D01*
X175827093Y-64405173D01*
X176054085Y-64524600D01*
X176060840Y-64528154D01*
X176314613Y-64616775D01*
X176319206Y-64617647D01*
X176574109Y-64666042D01*
X176574112Y-64666042D01*
X176578698Y-64666913D01*
X176706370Y-64671929D01*
X176842625Y-64677283D01*
X176842630Y-64677283D01*
X176847293Y-64677466D01*
X176951607Y-64666042D01*
X177109844Y-64648713D01*
X177109850Y-64648712D01*
X177114497Y-64648203D01*
X177121938Y-64646244D01*
X177369918Y-64580956D01*
X177369920Y-64580955D01*
X177374441Y-64579765D01*
X177490482Y-64529910D01*
X177617120Y-64475502D01*
X177617122Y-64475501D01*
X177621414Y-64473657D01*
X177740071Y-64400230D01*
X177846017Y-64334669D01*
X177846021Y-64334666D01*
X177849990Y-64332210D01*
X178055149Y-64158530D01*
X178093324Y-64115000D01*
X179253884Y-64115000D01*
X179272314Y-64325655D01*
X179327044Y-64529910D01*
X179329366Y-64534891D01*
X179329367Y-64534892D01*
X179395851Y-64677466D01*
X179416411Y-64721558D01*
X179537699Y-64894776D01*
X179687224Y-65044301D01*
X179860442Y-65165589D01*
X179865420Y-65167910D01*
X179865423Y-65167912D01*
X180047108Y-65252633D01*
X180052090Y-65254956D01*
X180057398Y-65256378D01*
X180057400Y-65256379D01*
X180251030Y-65308262D01*
X180251032Y-65308262D01*
X180256345Y-65309686D01*
X180467000Y-65328116D01*
X180677655Y-65309686D01*
X180682968Y-65308262D01*
X180682970Y-65308262D01*
X180876600Y-65256379D01*
X180876602Y-65256378D01*
X180881910Y-65254956D01*
X180886892Y-65252633D01*
X181068577Y-65167912D01*
X181068580Y-65167910D01*
X181073558Y-65165589D01*
X181246776Y-65044301D01*
X181396301Y-64894776D01*
X181517589Y-64721558D01*
X181538150Y-64677466D01*
X181604633Y-64534892D01*
X181604634Y-64534891D01*
X181606956Y-64529910D01*
X181661686Y-64325655D01*
X181680116Y-64115000D01*
X181661686Y-63904345D01*
X181615067Y-63730361D01*
X181608379Y-63705400D01*
X181608378Y-63705398D01*
X181606956Y-63700090D01*
X181561517Y-63602646D01*
X181519912Y-63513423D01*
X181519910Y-63513420D01*
X181517589Y-63508442D01*
X181396301Y-63335224D01*
X181246776Y-63185699D01*
X181073558Y-63064411D01*
X181068580Y-63062090D01*
X181068577Y-63062088D01*
X180886892Y-62977367D01*
X180886891Y-62977366D01*
X180881910Y-62975044D01*
X180876602Y-62973622D01*
X180876600Y-62973621D01*
X180850796Y-62966707D01*
X180790173Y-62929755D01*
X180759152Y-62865894D01*
X180767580Y-62795400D01*
X180812783Y-62740653D01*
X180850796Y-62723293D01*
X180876600Y-62716379D01*
X180876602Y-62716378D01*
X180881910Y-62714956D01*
X180886892Y-62712633D01*
X181068577Y-62627912D01*
X181068580Y-62627910D01*
X181073558Y-62625589D01*
X181076256Y-62623700D01*
X185610871Y-62623700D01*
X185611561Y-62630265D01*
X185623164Y-62740653D01*
X185629735Y-62803175D01*
X185631775Y-62809453D01*
X185631775Y-62809454D01*
X185636536Y-62824106D01*
X185685501Y-62974807D01*
X185775733Y-63131093D01*
X185896487Y-63265204D01*
X186042485Y-63371278D01*
X186048513Y-63373962D01*
X186048515Y-63373963D01*
X186201317Y-63441995D01*
X186207348Y-63444680D01*
X186295608Y-63463440D01*
X186377411Y-63480828D01*
X186377415Y-63480828D01*
X186383868Y-63482200D01*
X186564332Y-63482200D01*
X186570785Y-63480828D01*
X186570789Y-63480828D01*
X186652592Y-63463440D01*
X186740852Y-63444680D01*
X186746883Y-63441995D01*
X186899685Y-63373963D01*
X186899687Y-63373962D01*
X186905715Y-63371278D01*
X187051713Y-63265204D01*
X187172467Y-63131093D01*
X187262699Y-62974807D01*
X187311664Y-62824106D01*
X187316425Y-62809454D01*
X187316425Y-62809453D01*
X187318465Y-62803175D01*
X187325037Y-62740653D01*
X187336639Y-62630265D01*
X187337329Y-62623700D01*
X187318465Y-62444225D01*
X187262699Y-62272593D01*
X187172467Y-62116307D01*
X187166397Y-62109565D01*
X187056135Y-61987107D01*
X187056134Y-61987106D01*
X187051713Y-61982196D01*
X186970960Y-61923525D01*
X186911057Y-61880003D01*
X186911056Y-61880002D01*
X186905715Y-61876122D01*
X186899687Y-61873438D01*
X186899685Y-61873437D01*
X186746883Y-61805405D01*
X186746881Y-61805405D01*
X186740852Y-61802720D01*
X186634785Y-61780175D01*
X186570789Y-61766572D01*
X186570785Y-61766572D01*
X186564332Y-61765200D01*
X186383868Y-61765200D01*
X186377415Y-61766572D01*
X186377411Y-61766572D01*
X186313415Y-61780175D01*
X186207348Y-61802720D01*
X186201319Y-61805404D01*
X186201317Y-61805405D01*
X186048516Y-61873437D01*
X186048514Y-61873438D01*
X186042486Y-61876122D01*
X186037145Y-61880002D01*
X186037144Y-61880003D01*
X185901831Y-61978313D01*
X185901829Y-61978315D01*
X185896487Y-61982196D01*
X185892066Y-61987106D01*
X185892065Y-61987107D01*
X185781804Y-62109565D01*
X185775733Y-62116307D01*
X185685501Y-62272593D01*
X185629735Y-62444225D01*
X185610871Y-62623700D01*
X181076256Y-62623700D01*
X181246776Y-62504301D01*
X181396301Y-62354776D01*
X181517589Y-62181558D01*
X181582827Y-62041656D01*
X181604633Y-61994892D01*
X181604634Y-61994891D01*
X181606956Y-61989910D01*
X181610064Y-61978313D01*
X181660262Y-61790970D01*
X181660262Y-61790968D01*
X181661686Y-61785655D01*
X181680116Y-61575000D01*
X181678532Y-61556900D01*
X183223271Y-61556900D01*
X183242135Y-61736375D01*
X183244175Y-61742653D01*
X183244175Y-61742654D01*
X183247177Y-61751893D01*
X183297901Y-61908007D01*
X183388133Y-62064293D01*
X183392551Y-62069200D01*
X183392552Y-62069201D01*
X183440115Y-62122025D01*
X183508887Y-62198404D01*
X183514229Y-62202285D01*
X183514231Y-62202287D01*
X183640569Y-62294077D01*
X183654885Y-62304478D01*
X183660913Y-62307162D01*
X183660915Y-62307163D01*
X183776604Y-62358671D01*
X183819748Y-62377880D01*
X183908008Y-62396640D01*
X183989811Y-62414028D01*
X183989815Y-62414028D01*
X183996268Y-62415400D01*
X184176732Y-62415400D01*
X184183185Y-62414028D01*
X184183189Y-62414028D01*
X184264992Y-62396640D01*
X184353252Y-62377880D01*
X184396396Y-62358671D01*
X184512085Y-62307163D01*
X184512087Y-62307162D01*
X184518115Y-62304478D01*
X184532431Y-62294077D01*
X184658769Y-62202287D01*
X184658771Y-62202285D01*
X184664113Y-62198404D01*
X184732885Y-62122025D01*
X184780448Y-62069201D01*
X184780449Y-62069200D01*
X184784867Y-62064293D01*
X184875099Y-61908007D01*
X184925823Y-61751893D01*
X184928825Y-61742654D01*
X184928825Y-61742653D01*
X184930865Y-61736375D01*
X184949729Y-61556900D01*
X184930865Y-61377425D01*
X184922844Y-61352737D01*
X184888121Y-61245872D01*
X184875099Y-61205793D01*
X184861399Y-61182063D01*
X184814907Y-61101538D01*
X184784867Y-61049507D01*
X184757381Y-61018980D01*
X184668535Y-60920307D01*
X184668534Y-60920306D01*
X184664113Y-60915396D01*
X184565002Y-60843387D01*
X184523457Y-60813203D01*
X184523456Y-60813202D01*
X184518115Y-60809322D01*
X184512087Y-60806638D01*
X184512085Y-60806637D01*
X184359283Y-60738605D01*
X184359281Y-60738605D01*
X184353252Y-60735920D01*
X184232723Y-60710301D01*
X184183189Y-60699772D01*
X184183185Y-60699772D01*
X184176732Y-60698400D01*
X183996268Y-60698400D01*
X183989815Y-60699772D01*
X183989811Y-60699772D01*
X183940277Y-60710301D01*
X183819748Y-60735920D01*
X183813719Y-60738604D01*
X183813717Y-60738605D01*
X183660916Y-60806637D01*
X183660914Y-60806638D01*
X183654886Y-60809322D01*
X183649545Y-60813202D01*
X183649544Y-60813203D01*
X183514231Y-60911513D01*
X183514229Y-60911515D01*
X183508887Y-60915396D01*
X183504466Y-60920306D01*
X183504465Y-60920307D01*
X183415620Y-61018980D01*
X183388133Y-61049507D01*
X183358093Y-61101538D01*
X183311602Y-61182063D01*
X183297901Y-61205793D01*
X183284879Y-61245872D01*
X183250157Y-61352737D01*
X183242135Y-61377425D01*
X183223271Y-61556900D01*
X181678532Y-61556900D01*
X181661686Y-61364345D01*
X181647832Y-61312642D01*
X181608379Y-61165400D01*
X181608378Y-61165398D01*
X181606956Y-61160090D01*
X181559855Y-61059081D01*
X181519912Y-60973423D01*
X181519910Y-60973420D01*
X181517589Y-60968442D01*
X181396301Y-60795224D01*
X181246776Y-60645699D01*
X181073558Y-60524411D01*
X181068580Y-60522090D01*
X181068577Y-60522088D01*
X180886892Y-60437367D01*
X180886891Y-60437366D01*
X180881910Y-60435044D01*
X180876602Y-60433622D01*
X180876600Y-60433621D01*
X180682970Y-60381738D01*
X180682968Y-60381738D01*
X180677655Y-60380314D01*
X180467000Y-60361884D01*
X180256345Y-60380314D01*
X180251032Y-60381738D01*
X180251030Y-60381738D01*
X180057400Y-60433621D01*
X180057398Y-60433622D01*
X180052090Y-60435044D01*
X180047109Y-60437366D01*
X180047108Y-60437367D01*
X179865423Y-60522088D01*
X179865420Y-60522090D01*
X179860442Y-60524411D01*
X179687224Y-60645699D01*
X179537699Y-60795224D01*
X179416411Y-60968442D01*
X179414090Y-60973420D01*
X179414088Y-60973423D01*
X179374145Y-61059081D01*
X179327044Y-61160090D01*
X179325622Y-61165398D01*
X179325621Y-61165400D01*
X179286168Y-61312642D01*
X179272314Y-61364345D01*
X179253884Y-61575000D01*
X179272314Y-61785655D01*
X179273738Y-61790968D01*
X179273738Y-61790970D01*
X179323937Y-61978313D01*
X179327044Y-61989910D01*
X179329366Y-61994891D01*
X179329367Y-61994892D01*
X179351174Y-62041656D01*
X179416411Y-62181558D01*
X179537699Y-62354776D01*
X179687224Y-62504301D01*
X179860442Y-62625589D01*
X179865420Y-62627910D01*
X179865423Y-62627912D01*
X180047108Y-62712633D01*
X180052090Y-62714956D01*
X180057398Y-62716378D01*
X180057400Y-62716379D01*
X180083204Y-62723293D01*
X180143827Y-62760245D01*
X180174848Y-62824106D01*
X180166420Y-62894600D01*
X180121217Y-62949347D01*
X180083204Y-62966707D01*
X180057400Y-62973621D01*
X180057398Y-62973622D01*
X180052090Y-62975044D01*
X180047109Y-62977366D01*
X180047108Y-62977367D01*
X179865423Y-63062088D01*
X179865420Y-63062090D01*
X179860442Y-63064411D01*
X179687224Y-63185699D01*
X179537699Y-63335224D01*
X179416411Y-63508442D01*
X179414090Y-63513420D01*
X179414088Y-63513423D01*
X179372483Y-63602646D01*
X179327044Y-63700090D01*
X179325622Y-63705398D01*
X179325621Y-63705400D01*
X179318933Y-63730361D01*
X179272314Y-63904345D01*
X179253884Y-64115000D01*
X178093324Y-64115000D01*
X178232382Y-63956434D01*
X178269306Y-63899030D01*
X178375269Y-63734291D01*
X178377797Y-63730361D01*
X178488199Y-63485278D01*
X178519593Y-63373963D01*
X178559893Y-63231072D01*
X178559894Y-63231069D01*
X178561163Y-63226568D01*
X178579043Y-63086019D01*
X178594688Y-62963045D01*
X178594688Y-62963041D01*
X178595086Y-62959915D01*
X178597571Y-62865000D01*
X178593443Y-62809454D01*
X178577996Y-62601592D01*
X178577996Y-62601591D01*
X178577650Y-62596937D01*
X178555808Y-62500406D01*
X178519361Y-62339331D01*
X178519360Y-62339326D01*
X178518327Y-62334763D01*
X178420902Y-62084238D01*
X178287518Y-61850864D01*
X178121105Y-61639769D01*
X177925317Y-61455591D01*
X177768751Y-61346976D01*
X177708299Y-61305039D01*
X177708296Y-61305037D01*
X177704457Y-61302374D01*
X177700264Y-61300306D01*
X177467564Y-61185551D01*
X177467561Y-61185550D01*
X177463376Y-61183486D01*
X177415745Y-61168239D01*
X177361621Y-61150914D01*
X177207370Y-61101538D01*
X177202763Y-61100788D01*
X177202760Y-61100787D01*
X176995846Y-61067089D01*
X176942063Y-61058330D01*
X176811719Y-61056624D01*
X176677961Y-61054873D01*
X176677958Y-61054873D01*
X176673284Y-61054812D01*
X176406937Y-61091060D01*
X176148874Y-61166278D01*
X175904763Y-61278815D01*
X175900854Y-61281378D01*
X175683881Y-61423631D01*
X175683876Y-61423635D01*
X175679968Y-61426197D01*
X175643443Y-61458797D01*
X175490161Y-61595607D01*
X175479426Y-61605188D01*
X175447615Y-61643437D01*
X175312908Y-61805405D01*
X175307544Y-61811854D01*
X175168096Y-62041656D01*
X175166287Y-62045970D01*
X175166285Y-62045974D01*
X175111519Y-62176577D01*
X175064148Y-62289545D01*
X174997981Y-62550077D01*
X174971050Y-62817526D01*
X123921107Y-62817526D01*
X124016269Y-62748387D01*
X124016271Y-62748385D01*
X124021613Y-62744504D01*
X124026035Y-62739593D01*
X124137948Y-62615301D01*
X124137949Y-62615300D01*
X124142367Y-62610393D01*
X124232599Y-62454107D01*
X124272793Y-62330402D01*
X124286325Y-62288754D01*
X124286325Y-62288753D01*
X124288365Y-62282475D01*
X124307229Y-62103000D01*
X124295866Y-61994892D01*
X124289055Y-61930089D01*
X124289055Y-61930088D01*
X124288365Y-61923525D01*
X124285183Y-61913730D01*
X124249986Y-61805405D01*
X124232599Y-61751893D01*
X124142367Y-61595607D01*
X124123813Y-61575000D01*
X124026035Y-61466407D01*
X124026034Y-61466406D01*
X124021613Y-61461496D01*
X124013486Y-61455591D01*
X123880957Y-61359303D01*
X123880956Y-61359302D01*
X123875615Y-61355422D01*
X123869587Y-61352738D01*
X123869585Y-61352737D01*
X123716783Y-61284705D01*
X123716781Y-61284705D01*
X123710752Y-61282020D01*
X123622492Y-61263260D01*
X123540689Y-61245872D01*
X123540685Y-61245872D01*
X123534232Y-61244500D01*
X123353768Y-61244500D01*
X123347315Y-61245872D01*
X123347311Y-61245872D01*
X123265508Y-61263260D01*
X123177248Y-61282020D01*
X123171219Y-61284704D01*
X123171217Y-61284705D01*
X123018416Y-61352737D01*
X123018414Y-61352738D01*
X123012386Y-61355422D01*
X123007045Y-61359302D01*
X123007044Y-61359303D01*
X122871731Y-61457613D01*
X122871729Y-61457615D01*
X122866387Y-61461496D01*
X122861966Y-61466406D01*
X122861965Y-61466407D01*
X122764188Y-61575000D01*
X122745633Y-61595607D01*
X122655401Y-61751893D01*
X122638014Y-61805405D01*
X122602818Y-61913730D01*
X122599635Y-61923525D01*
X122598945Y-61930088D01*
X122598945Y-61930089D01*
X122592134Y-61994892D01*
X122580771Y-62103000D01*
X110363500Y-62103000D01*
X110363500Y-60992134D01*
X111902500Y-60992134D01*
X111909255Y-61054316D01*
X111960385Y-61190705D01*
X112047739Y-61307261D01*
X112164295Y-61394615D01*
X112300684Y-61445745D01*
X112362866Y-61452500D01*
X114459134Y-61452500D01*
X114521316Y-61445745D01*
X114657705Y-61394615D01*
X114774261Y-61307261D01*
X114861615Y-61190705D01*
X114912745Y-61054316D01*
X114919500Y-60992134D01*
X114919500Y-60198000D01*
X144424771Y-60198000D01*
X144443635Y-60377475D01*
X144499401Y-60549107D01*
X144589633Y-60705393D01*
X144594051Y-60710300D01*
X144594052Y-60710301D01*
X144619537Y-60738605D01*
X144710387Y-60839504D01*
X144715729Y-60843385D01*
X144715731Y-60843387D01*
X144851043Y-60941697D01*
X144856385Y-60945578D01*
X144862413Y-60948262D01*
X144862415Y-60948263D01*
X145015217Y-61016295D01*
X145021248Y-61018980D01*
X145109508Y-61037740D01*
X145191311Y-61055128D01*
X145191315Y-61055128D01*
X145197768Y-61056500D01*
X145378232Y-61056500D01*
X145384685Y-61055128D01*
X145384689Y-61055128D01*
X145466492Y-61037740D01*
X145554752Y-61018980D01*
X145560783Y-61016295D01*
X145713585Y-60948263D01*
X145713587Y-60948262D01*
X145719615Y-60945578D01*
X145724957Y-60941697D01*
X145860269Y-60843387D01*
X145860271Y-60843385D01*
X145865613Y-60839504D01*
X145956463Y-60738605D01*
X145981948Y-60710301D01*
X145981949Y-60710300D01*
X145986367Y-60705393D01*
X146076599Y-60549107D01*
X146132365Y-60377475D01*
X146151229Y-60198000D01*
X146132365Y-60018525D01*
X146076599Y-59846893D01*
X145986367Y-59690607D01*
X145865613Y-59556496D01*
X145719615Y-59450422D01*
X145713587Y-59447738D01*
X145713585Y-59447737D01*
X145560783Y-59379705D01*
X145560781Y-59379705D01*
X145554752Y-59377020D01*
X145466492Y-59358260D01*
X145384689Y-59340872D01*
X145384685Y-59340872D01*
X145378232Y-59339500D01*
X145197768Y-59339500D01*
X145191315Y-59340872D01*
X145191311Y-59340872D01*
X145109508Y-59358260D01*
X145021248Y-59377020D01*
X145015219Y-59379704D01*
X145015217Y-59379705D01*
X144862416Y-59447737D01*
X144862414Y-59447738D01*
X144856386Y-59450422D01*
X144851045Y-59454302D01*
X144851044Y-59454303D01*
X144715731Y-59552613D01*
X144715729Y-59552615D01*
X144710387Y-59556496D01*
X144589633Y-59690607D01*
X144499401Y-59846893D01*
X144443635Y-60018525D01*
X144424771Y-60198000D01*
X114919500Y-60198000D01*
X114919500Y-58895866D01*
X114912745Y-58833684D01*
X114861615Y-58697295D01*
X114774261Y-58580739D01*
X114657705Y-58493385D01*
X114521316Y-58442255D01*
X114459134Y-58435500D01*
X112362866Y-58435500D01*
X112300684Y-58442255D01*
X112164295Y-58493385D01*
X112047739Y-58580739D01*
X111960385Y-58697295D01*
X111909255Y-58833684D01*
X111902500Y-58895866D01*
X111902500Y-60992134D01*
X110363500Y-60992134D01*
X110363500Y-57928100D01*
X156057971Y-57928100D01*
X156076835Y-58107575D01*
X156078875Y-58113853D01*
X156078875Y-58113854D01*
X156101449Y-58183330D01*
X156132601Y-58279207D01*
X156222833Y-58435493D01*
X156227251Y-58440400D01*
X156227252Y-58440401D01*
X156231419Y-58445029D01*
X156343587Y-58569604D01*
X156348929Y-58573485D01*
X156348931Y-58573487D01*
X156353440Y-58576763D01*
X156489585Y-58675678D01*
X156495613Y-58678362D01*
X156495615Y-58678363D01*
X156648417Y-58746395D01*
X156654448Y-58749080D01*
X156742708Y-58767840D01*
X156824511Y-58785228D01*
X156824515Y-58785228D01*
X156830968Y-58786600D01*
X157011432Y-58786600D01*
X157017885Y-58785228D01*
X157017889Y-58785228D01*
X157099692Y-58767840D01*
X157187952Y-58749080D01*
X157193983Y-58746395D01*
X157346785Y-58678363D01*
X157346787Y-58678362D01*
X157352815Y-58675678D01*
X157488960Y-58576763D01*
X157493469Y-58573487D01*
X157493471Y-58573485D01*
X157498813Y-58569604D01*
X157610981Y-58445029D01*
X157615148Y-58440401D01*
X157615149Y-58440400D01*
X157619567Y-58435493D01*
X157709799Y-58279207D01*
X157740951Y-58183330D01*
X157763525Y-58113854D01*
X157763525Y-58113853D01*
X157765565Y-58107575D01*
X157784429Y-57928100D01*
X157765565Y-57748625D01*
X157709799Y-57576993D01*
X157619567Y-57420707D01*
X157537422Y-57329475D01*
X157503235Y-57291507D01*
X157503234Y-57291506D01*
X157498813Y-57286596D01*
X157465756Y-57262578D01*
X157358157Y-57184403D01*
X157358156Y-57184402D01*
X157352815Y-57180522D01*
X157346787Y-57177838D01*
X157346785Y-57177837D01*
X157193983Y-57109805D01*
X157193981Y-57109805D01*
X157187952Y-57107120D01*
X157099692Y-57088360D01*
X157017889Y-57070972D01*
X157017885Y-57070972D01*
X157011432Y-57069600D01*
X156830968Y-57069600D01*
X156824515Y-57070972D01*
X156824511Y-57070972D01*
X156742708Y-57088360D01*
X156654448Y-57107120D01*
X156648419Y-57109804D01*
X156648417Y-57109805D01*
X156495616Y-57177837D01*
X156495614Y-57177838D01*
X156489586Y-57180522D01*
X156484245Y-57184402D01*
X156484244Y-57184403D01*
X156348931Y-57282713D01*
X156348929Y-57282715D01*
X156343587Y-57286596D01*
X156339166Y-57291506D01*
X156339165Y-57291507D01*
X156304979Y-57329475D01*
X156222833Y-57420707D01*
X156132601Y-57576993D01*
X156076835Y-57748625D01*
X156057971Y-57928100D01*
X110363500Y-57928100D01*
X110363500Y-56946800D01*
X148768171Y-56946800D01*
X148787035Y-57126275D01*
X148789075Y-57132553D01*
X148789075Y-57132554D01*
X148803788Y-57177837D01*
X148842801Y-57297907D01*
X148846104Y-57303629D01*
X148846105Y-57303630D01*
X148865575Y-57337352D01*
X148933033Y-57454193D01*
X148937451Y-57459100D01*
X148937452Y-57459101D01*
X149049365Y-57583393D01*
X149053787Y-57588304D01*
X149059129Y-57592185D01*
X149059131Y-57592187D01*
X149155635Y-57662301D01*
X149199785Y-57694378D01*
X149205813Y-57697062D01*
X149205815Y-57697063D01*
X149321625Y-57748625D01*
X149364648Y-57767780D01*
X149452908Y-57786540D01*
X149534711Y-57803928D01*
X149534715Y-57803928D01*
X149541168Y-57805300D01*
X149721632Y-57805300D01*
X149728085Y-57803928D01*
X149728089Y-57803928D01*
X149809892Y-57786540D01*
X149898152Y-57767780D01*
X149941175Y-57748625D01*
X150056985Y-57697063D01*
X150056987Y-57697062D01*
X150063015Y-57694378D01*
X150107165Y-57662301D01*
X150203669Y-57592187D01*
X150203671Y-57592185D01*
X150209013Y-57588304D01*
X150213435Y-57583393D01*
X150325348Y-57459101D01*
X150325349Y-57459100D01*
X150329767Y-57454193D01*
X150397225Y-57337352D01*
X150416695Y-57303630D01*
X150416696Y-57303629D01*
X150419999Y-57297907D01*
X150459012Y-57177837D01*
X150473725Y-57132554D01*
X150473725Y-57132553D01*
X150475765Y-57126275D01*
X150494629Y-56946800D01*
X150479083Y-56798893D01*
X150476455Y-56773889D01*
X150476455Y-56773888D01*
X150475765Y-56767325D01*
X150419999Y-56595693D01*
X150373411Y-56515000D01*
X165125771Y-56515000D01*
X165144635Y-56694475D01*
X165200401Y-56866107D01*
X165290633Y-57022393D01*
X165411387Y-57156504D01*
X165416729Y-57160385D01*
X165416731Y-57160387D01*
X165457362Y-57189907D01*
X165557385Y-57262578D01*
X165563413Y-57265262D01*
X165563415Y-57265263D01*
X165716217Y-57333295D01*
X165722248Y-57335980D01*
X165810508Y-57354740D01*
X165892311Y-57372128D01*
X165892315Y-57372128D01*
X165898768Y-57373500D01*
X166079232Y-57373500D01*
X166085685Y-57372128D01*
X166085689Y-57372128D01*
X166167492Y-57354740D01*
X166255752Y-57335980D01*
X166261783Y-57333295D01*
X166414585Y-57265263D01*
X166414587Y-57265262D01*
X166420615Y-57262578D01*
X166520638Y-57189907D01*
X166561269Y-57160387D01*
X166561271Y-57160385D01*
X166566613Y-57156504D01*
X166572469Y-57150000D01*
X169164371Y-57150000D01*
X169165061Y-57156565D01*
X169180519Y-57303630D01*
X169183235Y-57329475D01*
X169185275Y-57335753D01*
X169185275Y-57335754D01*
X169185794Y-57337352D01*
X169239001Y-57501107D01*
X169329233Y-57657393D01*
X169333651Y-57662300D01*
X169333652Y-57662301D01*
X169417289Y-57755189D01*
X169449987Y-57791504D01*
X169455329Y-57795385D01*
X169455331Y-57795387D01*
X169590643Y-57893697D01*
X169595985Y-57897578D01*
X169602013Y-57900262D01*
X169602015Y-57900263D01*
X169649793Y-57921535D01*
X169760848Y-57970980D01*
X169849108Y-57989740D01*
X169930911Y-58007128D01*
X169930915Y-58007128D01*
X169937368Y-58008500D01*
X170117832Y-58008500D01*
X170124285Y-58007128D01*
X170124289Y-58007128D01*
X170206092Y-57989740D01*
X170294352Y-57970980D01*
X170405407Y-57921535D01*
X170453185Y-57900263D01*
X170453187Y-57900262D01*
X170459215Y-57897578D01*
X170464557Y-57893697D01*
X170599869Y-57795387D01*
X170599871Y-57795385D01*
X170605213Y-57791504D01*
X170637911Y-57755189D01*
X170721548Y-57662301D01*
X170721549Y-57662300D01*
X170725967Y-57657393D01*
X170816199Y-57501107D01*
X170869406Y-57337352D01*
X170869925Y-57335754D01*
X170869925Y-57335753D01*
X170871965Y-57329475D01*
X170874682Y-57303630D01*
X170890139Y-57156565D01*
X170890829Y-57150000D01*
X176225571Y-57150000D01*
X176226261Y-57156565D01*
X176241719Y-57303630D01*
X176244435Y-57329475D01*
X176246475Y-57335753D01*
X176246475Y-57335754D01*
X176246994Y-57337352D01*
X176300201Y-57501107D01*
X176390433Y-57657393D01*
X176394851Y-57662300D01*
X176394852Y-57662301D01*
X176478489Y-57755189D01*
X176511187Y-57791504D01*
X176516529Y-57795385D01*
X176516531Y-57795387D01*
X176651843Y-57893697D01*
X176657185Y-57897578D01*
X176663213Y-57900262D01*
X176663215Y-57900263D01*
X176710993Y-57921535D01*
X176822048Y-57970980D01*
X176910308Y-57989740D01*
X176992111Y-58007128D01*
X176992115Y-58007128D01*
X176998568Y-58008500D01*
X177179032Y-58008500D01*
X177185485Y-58007128D01*
X177185489Y-58007128D01*
X177221793Y-57999411D01*
X177240009Y-57995539D01*
X177310799Y-58000941D01*
X177367431Y-58043758D01*
X177386038Y-58079850D01*
X177417801Y-58177607D01*
X177508033Y-58333893D01*
X177512451Y-58338800D01*
X177512452Y-58338801D01*
X177608100Y-58445029D01*
X177628787Y-58468004D01*
X177634129Y-58471885D01*
X177634131Y-58471887D01*
X177768627Y-58569604D01*
X177774785Y-58574078D01*
X177780813Y-58576762D01*
X177780815Y-58576763D01*
X177805872Y-58587919D01*
X177939648Y-58647480D01*
X178027908Y-58666240D01*
X178109711Y-58683628D01*
X178109715Y-58683628D01*
X178116168Y-58685000D01*
X178296632Y-58685000D01*
X178303085Y-58683628D01*
X178303089Y-58683628D01*
X178384892Y-58666240D01*
X178473152Y-58647480D01*
X178606928Y-58587919D01*
X178631985Y-58576763D01*
X178631987Y-58576762D01*
X178638015Y-58574078D01*
X178644173Y-58569604D01*
X178778669Y-58471887D01*
X178778671Y-58471885D01*
X178784013Y-58468004D01*
X178804700Y-58445029D01*
X178900348Y-58338801D01*
X178900349Y-58338800D01*
X178904767Y-58333893D01*
X178994999Y-58177607D01*
X179050765Y-58005975D01*
X179069629Y-57826500D01*
X179050765Y-57647025D01*
X179028011Y-57576993D01*
X178997041Y-57481678D01*
X178994999Y-57475393D01*
X178904767Y-57319107D01*
X178890832Y-57303630D01*
X178788435Y-57189907D01*
X178788434Y-57189906D01*
X178784013Y-57184996D01*
X178777856Y-57180522D01*
X178643357Y-57082803D01*
X178643356Y-57082802D01*
X178638015Y-57078922D01*
X178631987Y-57076238D01*
X178631985Y-57076237D01*
X178479183Y-57008205D01*
X178479181Y-57008205D01*
X178473152Y-57005520D01*
X178384892Y-56986760D01*
X178303089Y-56969372D01*
X178303085Y-56969372D01*
X178296632Y-56968000D01*
X178116168Y-56968000D01*
X178109715Y-56969372D01*
X178109711Y-56969372D01*
X178080605Y-56975559D01*
X178055191Y-56980961D01*
X177984401Y-56975559D01*
X177927769Y-56932742D01*
X177909162Y-56896650D01*
X177879441Y-56805178D01*
X177877399Y-56798893D01*
X177787167Y-56642607D01*
X177744926Y-56595693D01*
X177670835Y-56513407D01*
X177670834Y-56513406D01*
X177666413Y-56508496D01*
X177571321Y-56439407D01*
X177525757Y-56406303D01*
X177525756Y-56406302D01*
X177520415Y-56402422D01*
X177514387Y-56399738D01*
X177514385Y-56399737D01*
X177361583Y-56331705D01*
X177361581Y-56331705D01*
X177355552Y-56329020D01*
X177267043Y-56310207D01*
X177185489Y-56292872D01*
X177185485Y-56292872D01*
X177179032Y-56291500D01*
X176998568Y-56291500D01*
X176992115Y-56292872D01*
X176992111Y-56292872D01*
X176910557Y-56310207D01*
X176822048Y-56329020D01*
X176816019Y-56331704D01*
X176816017Y-56331705D01*
X176663216Y-56399737D01*
X176663214Y-56399738D01*
X176657186Y-56402422D01*
X176651845Y-56406302D01*
X176651844Y-56406303D01*
X176516531Y-56504613D01*
X176516529Y-56504615D01*
X176511187Y-56508496D01*
X176506766Y-56513406D01*
X176506765Y-56513407D01*
X176432675Y-56595693D01*
X176390433Y-56642607D01*
X176300201Y-56798893D01*
X176298159Y-56805178D01*
X176250011Y-56953365D01*
X176244435Y-56970525D01*
X176225571Y-57150000D01*
X170890829Y-57150000D01*
X170871965Y-56970525D01*
X170866390Y-56953365D01*
X170818241Y-56805178D01*
X170816199Y-56798893D01*
X170725967Y-56642607D01*
X170683726Y-56595693D01*
X170609635Y-56513407D01*
X170609634Y-56513406D01*
X170605213Y-56508496D01*
X170510121Y-56439407D01*
X170464557Y-56406303D01*
X170464556Y-56406302D01*
X170459215Y-56402422D01*
X170453187Y-56399738D01*
X170453185Y-56399737D01*
X170300383Y-56331705D01*
X170300381Y-56331705D01*
X170294352Y-56329020D01*
X170205843Y-56310207D01*
X170124289Y-56292872D01*
X170124285Y-56292872D01*
X170117832Y-56291500D01*
X169937368Y-56291500D01*
X169930915Y-56292872D01*
X169930911Y-56292872D01*
X169849357Y-56310207D01*
X169760848Y-56329020D01*
X169754819Y-56331704D01*
X169754817Y-56331705D01*
X169602016Y-56399737D01*
X169602014Y-56399738D01*
X169595986Y-56402422D01*
X169590645Y-56406302D01*
X169590644Y-56406303D01*
X169455331Y-56504613D01*
X169455329Y-56504615D01*
X169449987Y-56508496D01*
X169445566Y-56513406D01*
X169445565Y-56513407D01*
X169371475Y-56595693D01*
X169329233Y-56642607D01*
X169239001Y-56798893D01*
X169236959Y-56805178D01*
X169188811Y-56953365D01*
X169183235Y-56970525D01*
X169164371Y-57150000D01*
X166572469Y-57150000D01*
X166687367Y-57022393D01*
X166777599Y-56866107D01*
X166833365Y-56694475D01*
X166852229Y-56515000D01*
X166833365Y-56335525D01*
X166831252Y-56329020D01*
X166779641Y-56170178D01*
X166777599Y-56163893D01*
X166755618Y-56125820D01*
X166690668Y-56013325D01*
X166687367Y-56007607D01*
X166566613Y-55873496D01*
X166420615Y-55767422D01*
X166414587Y-55764738D01*
X166414585Y-55764737D01*
X166261783Y-55696705D01*
X166261781Y-55696705D01*
X166255752Y-55694020D01*
X166167492Y-55675260D01*
X166085689Y-55657872D01*
X166085685Y-55657872D01*
X166079232Y-55656500D01*
X165898768Y-55656500D01*
X165892315Y-55657872D01*
X165892311Y-55657872D01*
X165810508Y-55675260D01*
X165722248Y-55694020D01*
X165716219Y-55696704D01*
X165716217Y-55696705D01*
X165563416Y-55764737D01*
X165563414Y-55764738D01*
X165557386Y-55767422D01*
X165552045Y-55771302D01*
X165552044Y-55771303D01*
X165416731Y-55869613D01*
X165416729Y-55869615D01*
X165411387Y-55873496D01*
X165290633Y-56007607D01*
X165287332Y-56013325D01*
X165222383Y-56125820D01*
X165200401Y-56163893D01*
X165198359Y-56170178D01*
X165146749Y-56329020D01*
X165144635Y-56335525D01*
X165125771Y-56515000D01*
X150373411Y-56515000D01*
X150329767Y-56439407D01*
X150209013Y-56305296D01*
X150190025Y-56291500D01*
X150068357Y-56203103D01*
X150068356Y-56203102D01*
X150063015Y-56199222D01*
X150056987Y-56196538D01*
X150056985Y-56196537D01*
X149904183Y-56128505D01*
X149904181Y-56128505D01*
X149898152Y-56125820D01*
X149809892Y-56107060D01*
X149728089Y-56089672D01*
X149728085Y-56089672D01*
X149721632Y-56088300D01*
X149541168Y-56088300D01*
X149534715Y-56089672D01*
X149534711Y-56089672D01*
X149452908Y-56107060D01*
X149364648Y-56125820D01*
X149358619Y-56128504D01*
X149358617Y-56128505D01*
X149205816Y-56196537D01*
X149205814Y-56196538D01*
X149199786Y-56199222D01*
X149194445Y-56203102D01*
X149194444Y-56203103D01*
X149059131Y-56301413D01*
X149059129Y-56301415D01*
X149053787Y-56305296D01*
X148933033Y-56439407D01*
X148842801Y-56595693D01*
X148787035Y-56767325D01*
X148786345Y-56773888D01*
X148786345Y-56773889D01*
X148783717Y-56798893D01*
X148768171Y-56946800D01*
X110363500Y-56946800D01*
X110363500Y-52987669D01*
X119904001Y-52987669D01*
X119904371Y-52994490D01*
X119909895Y-53045352D01*
X119913521Y-53060604D01*
X119958676Y-53181054D01*
X119967214Y-53196649D01*
X120043715Y-53298724D01*
X120056276Y-53311285D01*
X120158351Y-53387786D01*
X120173946Y-53396324D01*
X120294394Y-53441478D01*
X120309649Y-53445105D01*
X120360514Y-53450631D01*
X120367328Y-53451000D01*
X121139885Y-53451000D01*
X121155124Y-53446525D01*
X121156329Y-53445135D01*
X121158000Y-53437452D01*
X121158000Y-53432884D01*
X121666000Y-53432884D01*
X121670475Y-53448123D01*
X121671865Y-53449328D01*
X121679548Y-53450999D01*
X122456669Y-53450999D01*
X122463490Y-53450629D01*
X122514352Y-53445105D01*
X122529604Y-53441479D01*
X122650054Y-53396324D01*
X122665649Y-53387786D01*
X122767724Y-53311285D01*
X122780285Y-53298724D01*
X122856786Y-53196649D01*
X122865324Y-53181054D01*
X122910478Y-53060606D01*
X122914105Y-53045351D01*
X122919631Y-52994486D01*
X122920000Y-52987672D01*
X122920000Y-52215115D01*
X122915525Y-52199876D01*
X122914135Y-52198671D01*
X122906452Y-52197000D01*
X121684115Y-52197000D01*
X121668876Y-52201475D01*
X121667671Y-52202865D01*
X121666000Y-52210548D01*
X121666000Y-53432884D01*
X121158000Y-53432884D01*
X121158000Y-52215115D01*
X121153525Y-52199876D01*
X121152135Y-52198671D01*
X121144452Y-52197000D01*
X119922116Y-52197000D01*
X119906877Y-52201475D01*
X119905672Y-52202865D01*
X119904001Y-52210548D01*
X119904001Y-52987669D01*
X110363500Y-52987669D01*
X110363500Y-52149526D01*
X130267050Y-52149526D01*
X130267274Y-52154192D01*
X130267274Y-52154197D01*
X130272927Y-52271872D01*
X130279947Y-52418019D01*
X130332388Y-52681656D01*
X130423220Y-52934646D01*
X130425432Y-52938762D01*
X130425433Y-52938765D01*
X130472117Y-53025648D01*
X130550450Y-53171431D01*
X130553241Y-53175168D01*
X130553245Y-53175175D01*
X130645285Y-53298431D01*
X130711281Y-53386810D01*
X130714590Y-53390090D01*
X130714595Y-53390096D01*
X130839394Y-53513810D01*
X130902180Y-53576050D01*
X130905942Y-53578808D01*
X130905945Y-53578811D01*
X131022415Y-53664210D01*
X131118954Y-53734995D01*
X131123089Y-53737171D01*
X131123093Y-53737173D01*
X131321261Y-53841435D01*
X131356840Y-53860154D01*
X131610613Y-53948775D01*
X131615206Y-53949647D01*
X131870109Y-53998042D01*
X131870112Y-53998042D01*
X131874698Y-53998913D01*
X132002370Y-54003929D01*
X132138625Y-54009283D01*
X132138630Y-54009283D01*
X132143293Y-54009466D01*
X132247607Y-53998042D01*
X132405844Y-53980713D01*
X132405850Y-53980712D01*
X132410497Y-53980203D01*
X132415021Y-53979012D01*
X132665918Y-53912956D01*
X132665920Y-53912955D01*
X132670441Y-53911765D01*
X132674738Y-53909919D01*
X132818858Y-53848000D01*
X157632771Y-53848000D01*
X157651635Y-54027475D01*
X157653675Y-54033753D01*
X157653675Y-54033754D01*
X157655303Y-54038765D01*
X157707401Y-54199107D01*
X157797633Y-54355393D01*
X157918387Y-54489504D01*
X158064385Y-54595578D01*
X158070413Y-54598262D01*
X158070415Y-54598263D01*
X158223217Y-54666295D01*
X158229248Y-54668980D01*
X158317508Y-54687740D01*
X158399311Y-54705128D01*
X158399315Y-54705128D01*
X158405768Y-54706500D01*
X158586232Y-54706500D01*
X158592685Y-54705128D01*
X158592689Y-54705128D01*
X158674492Y-54687740D01*
X158762752Y-54668980D01*
X158768783Y-54666295D01*
X158921585Y-54598263D01*
X158921587Y-54598262D01*
X158927615Y-54595578D01*
X159073613Y-54489504D01*
X159194367Y-54355393D01*
X159284599Y-54199107D01*
X159336697Y-54038765D01*
X159338325Y-54033754D01*
X159338325Y-54033753D01*
X159340365Y-54027475D01*
X159359229Y-53848000D01*
X159354972Y-53807502D01*
X159341055Y-53675089D01*
X159341055Y-53675088D01*
X159340365Y-53668525D01*
X159337983Y-53661192D01*
X159286641Y-53503178D01*
X159284599Y-53496893D01*
X159278896Y-53487014D01*
X159239597Y-53418947D01*
X159194367Y-53340607D01*
X159167966Y-53311285D01*
X159078035Y-53211407D01*
X159078034Y-53211406D01*
X159073613Y-53206496D01*
X159038596Y-53181054D01*
X158932957Y-53104303D01*
X158932956Y-53104302D01*
X158927615Y-53100422D01*
X158921587Y-53097738D01*
X158921585Y-53097737D01*
X158768783Y-53029705D01*
X158768781Y-53029705D01*
X158762752Y-53027020D01*
X158674492Y-53008260D01*
X158592689Y-52990872D01*
X158592685Y-52990872D01*
X158586232Y-52989500D01*
X158405768Y-52989500D01*
X158399315Y-52990872D01*
X158399311Y-52990872D01*
X158317508Y-53008260D01*
X158229248Y-53027020D01*
X158223219Y-53029704D01*
X158223217Y-53029705D01*
X158070416Y-53097737D01*
X158070414Y-53097738D01*
X158064386Y-53100422D01*
X158059045Y-53104302D01*
X158059044Y-53104303D01*
X157923731Y-53202613D01*
X157923729Y-53202615D01*
X157918387Y-53206496D01*
X157913966Y-53211406D01*
X157913965Y-53211407D01*
X157824035Y-53311285D01*
X157797633Y-53340607D01*
X157752403Y-53418947D01*
X157713105Y-53487014D01*
X157707401Y-53496893D01*
X157705359Y-53503178D01*
X157654018Y-53661192D01*
X157651635Y-53668525D01*
X157650945Y-53675088D01*
X157650945Y-53675089D01*
X157637028Y-53807502D01*
X157632771Y-53848000D01*
X132818858Y-53848000D01*
X132913120Y-53807502D01*
X132913122Y-53807501D01*
X132917414Y-53805657D01*
X133036071Y-53732230D01*
X133142017Y-53666669D01*
X133142021Y-53666666D01*
X133145990Y-53664210D01*
X133351149Y-53490530D01*
X133528382Y-53288434D01*
X133577928Y-53211407D01*
X133671269Y-53066291D01*
X133673797Y-53062361D01*
X133784199Y-52817278D01*
X133821345Y-52685568D01*
X133855893Y-52563072D01*
X133855894Y-52563069D01*
X133857163Y-52558568D01*
X133875331Y-52415758D01*
X133890688Y-52295045D01*
X133890688Y-52295041D01*
X133891086Y-52291915D01*
X133893571Y-52197000D01*
X133873650Y-51928937D01*
X133849581Y-51822565D01*
X133848096Y-51816000D01*
X152552771Y-51816000D01*
X152571635Y-51995475D01*
X152573675Y-52001753D01*
X152573675Y-52001754D01*
X152577568Y-52013735D01*
X152627401Y-52167107D01*
X152630704Y-52172829D01*
X152630705Y-52172830D01*
X152662689Y-52228227D01*
X152717633Y-52323393D01*
X152722051Y-52328300D01*
X152722052Y-52328301D01*
X152806963Y-52422604D01*
X152838387Y-52457504D01*
X152843729Y-52461385D01*
X152843731Y-52461387D01*
X152977489Y-52558568D01*
X152984385Y-52563578D01*
X152990413Y-52566262D01*
X152990415Y-52566263D01*
X153143217Y-52634295D01*
X153149248Y-52636980D01*
X153237508Y-52655740D01*
X153319311Y-52673128D01*
X153319315Y-52673128D01*
X153325768Y-52674500D01*
X153506232Y-52674500D01*
X153512685Y-52673128D01*
X153512689Y-52673128D01*
X153594492Y-52655740D01*
X153682752Y-52636980D01*
X153688783Y-52634295D01*
X153841585Y-52566263D01*
X153841587Y-52566262D01*
X153847615Y-52563578D01*
X153854511Y-52558568D01*
X153988269Y-52461387D01*
X153988271Y-52461385D01*
X153993613Y-52457504D01*
X154025037Y-52422604D01*
X154109948Y-52328301D01*
X154109949Y-52328300D01*
X154114367Y-52323393D01*
X154141426Y-52276526D01*
X174971050Y-52276526D01*
X174971274Y-52281192D01*
X174971274Y-52281197D01*
X174973179Y-52320851D01*
X174983947Y-52545019D01*
X175036388Y-52808656D01*
X175127220Y-53061646D01*
X175129432Y-53065762D01*
X175129433Y-53065765D01*
X175183999Y-53167316D01*
X175254450Y-53298431D01*
X175257241Y-53302168D01*
X175257245Y-53302175D01*
X175321174Y-53387786D01*
X175415281Y-53513810D01*
X175418590Y-53517090D01*
X175418595Y-53517096D01*
X175569480Y-53666669D01*
X175606180Y-53703050D01*
X175609942Y-53705808D01*
X175609945Y-53705811D01*
X175748635Y-53807502D01*
X175822954Y-53861995D01*
X175827089Y-53864171D01*
X175827093Y-53864173D01*
X176056698Y-53984975D01*
X176060840Y-53987154D01*
X176314613Y-54075775D01*
X176319206Y-54076647D01*
X176574109Y-54125042D01*
X176574112Y-54125042D01*
X176578698Y-54125913D01*
X176706370Y-54130929D01*
X176842625Y-54136283D01*
X176842630Y-54136283D01*
X176847293Y-54136466D01*
X176951607Y-54125042D01*
X177109844Y-54107713D01*
X177109850Y-54107712D01*
X177114497Y-54107203D01*
X177119021Y-54106012D01*
X177369918Y-54039956D01*
X177369920Y-54039955D01*
X177374441Y-54038765D01*
X177378738Y-54036919D01*
X177617120Y-53934502D01*
X177617122Y-53934501D01*
X177621414Y-53932657D01*
X177742099Y-53857975D01*
X177846017Y-53793669D01*
X177846021Y-53793666D01*
X177849990Y-53791210D01*
X178055149Y-53617530D01*
X178232382Y-53415434D01*
X178276835Y-53346325D01*
X178340609Y-53247176D01*
X178377797Y-53189361D01*
X178488199Y-52944278D01*
X178525287Y-52812775D01*
X178559893Y-52690072D01*
X178559894Y-52690069D01*
X178561163Y-52685568D01*
X178579043Y-52545019D01*
X178594688Y-52422045D01*
X178594688Y-52422041D01*
X178595086Y-52418915D01*
X178597571Y-52324000D01*
X178585912Y-52167107D01*
X178577996Y-52060592D01*
X178577996Y-52060591D01*
X178577650Y-52055937D01*
X178549967Y-51933592D01*
X178519361Y-51798331D01*
X178519360Y-51798326D01*
X178518327Y-51793763D01*
X178420902Y-51543238D01*
X178287518Y-51309864D01*
X178121105Y-51098769D01*
X177925317Y-50914591D01*
X177746870Y-50790797D01*
X177708299Y-50764039D01*
X177708296Y-50764037D01*
X177704457Y-50761374D01*
X177698015Y-50758197D01*
X177467564Y-50644551D01*
X177467561Y-50644550D01*
X177463376Y-50642486D01*
X177415745Y-50627239D01*
X177358322Y-50608858D01*
X177207370Y-50560538D01*
X177202763Y-50559788D01*
X177202760Y-50559787D01*
X176946674Y-50518081D01*
X176946675Y-50518081D01*
X176942063Y-50517330D01*
X176811719Y-50515624D01*
X176677961Y-50513873D01*
X176677958Y-50513873D01*
X176673284Y-50513812D01*
X176406937Y-50550060D01*
X176148874Y-50625278D01*
X175904763Y-50737815D01*
X175900854Y-50740378D01*
X175683881Y-50882631D01*
X175683876Y-50882635D01*
X175679968Y-50885197D01*
X175479426Y-51064188D01*
X175307544Y-51270854D01*
X175168096Y-51500656D01*
X175166287Y-51504970D01*
X175166285Y-51504974D01*
X175090994Y-51684525D01*
X175064148Y-51748545D01*
X174997981Y-52009077D01*
X174971050Y-52276526D01*
X154141426Y-52276526D01*
X154169311Y-52228227D01*
X154201295Y-52172830D01*
X154201296Y-52172829D01*
X154204599Y-52167107D01*
X154254432Y-52013735D01*
X154258325Y-52001754D01*
X154258325Y-52001753D01*
X154260365Y-51995475D01*
X154279229Y-51816000D01*
X154271686Y-51744231D01*
X154261055Y-51643089D01*
X154261055Y-51643088D01*
X154260365Y-51636525D01*
X154204599Y-51464893D01*
X154174165Y-51412179D01*
X154117668Y-51314325D01*
X154114367Y-51308607D01*
X154083970Y-51274847D01*
X153998035Y-51179407D01*
X153998034Y-51179406D01*
X153993613Y-51174496D01*
X153946492Y-51140260D01*
X153852957Y-51072303D01*
X153852956Y-51072302D01*
X153847615Y-51068422D01*
X153841587Y-51065738D01*
X153841585Y-51065737D01*
X153688783Y-50997705D01*
X153688781Y-50997705D01*
X153682752Y-50995020D01*
X153590620Y-50975437D01*
X153512689Y-50958872D01*
X153512685Y-50958872D01*
X153506232Y-50957500D01*
X153325768Y-50957500D01*
X153319315Y-50958872D01*
X153319311Y-50958872D01*
X153241380Y-50975437D01*
X153149248Y-50995020D01*
X153143219Y-50997704D01*
X153143217Y-50997705D01*
X152990416Y-51065737D01*
X152990414Y-51065738D01*
X152984386Y-51068422D01*
X152979045Y-51072302D01*
X152979044Y-51072303D01*
X152843731Y-51170613D01*
X152843729Y-51170615D01*
X152838387Y-51174496D01*
X152833966Y-51179406D01*
X152833965Y-51179407D01*
X152748031Y-51274847D01*
X152717633Y-51308607D01*
X152714332Y-51314325D01*
X152657836Y-51412179D01*
X152627401Y-51464893D01*
X152571635Y-51636525D01*
X152570945Y-51643088D01*
X152570945Y-51643089D01*
X152560314Y-51744231D01*
X152552771Y-51816000D01*
X133848096Y-51816000D01*
X133815361Y-51671331D01*
X133815360Y-51671326D01*
X133814327Y-51666763D01*
X133716902Y-51416238D01*
X133583518Y-51182864D01*
X133576922Y-51174496D01*
X133489962Y-51064188D01*
X133417105Y-50971769D01*
X133221317Y-50787591D01*
X133015127Y-50644551D01*
X133004299Y-50637039D01*
X133004296Y-50637037D01*
X133000457Y-50634374D01*
X132985989Y-50627239D01*
X132763564Y-50517551D01*
X132763561Y-50517550D01*
X132759376Y-50515486D01*
X132754147Y-50513812D01*
X132657621Y-50482914D01*
X132503370Y-50433538D01*
X132498763Y-50432788D01*
X132498760Y-50432787D01*
X132242674Y-50391081D01*
X132242675Y-50391081D01*
X132238063Y-50390330D01*
X132107719Y-50388624D01*
X131973961Y-50386873D01*
X131973958Y-50386873D01*
X131969284Y-50386812D01*
X131702937Y-50423060D01*
X131698451Y-50424368D01*
X131698449Y-50424368D01*
X131656236Y-50436672D01*
X131444874Y-50498278D01*
X131200763Y-50610815D01*
X131196854Y-50613378D01*
X130979881Y-50755631D01*
X130979876Y-50755635D01*
X130975968Y-50758197D01*
X130969423Y-50764039D01*
X130797152Y-50917797D01*
X130775426Y-50937188D01*
X130603544Y-51143854D01*
X130464096Y-51373656D01*
X130360148Y-51621545D01*
X130293981Y-51882077D01*
X130267050Y-52149526D01*
X110363500Y-52149526D01*
X110363500Y-51670885D01*
X119904000Y-51670885D01*
X119908475Y-51686124D01*
X119909865Y-51687329D01*
X119917548Y-51689000D01*
X121139885Y-51689000D01*
X121155124Y-51684525D01*
X121156329Y-51683135D01*
X121158000Y-51675452D01*
X121158000Y-51670885D01*
X121666000Y-51670885D01*
X121670475Y-51686124D01*
X121671865Y-51687329D01*
X121679548Y-51689000D01*
X122901884Y-51689000D01*
X122917123Y-51684525D01*
X122918328Y-51683135D01*
X122919999Y-51675452D01*
X122919999Y-50898331D01*
X122919629Y-50891510D01*
X122914105Y-50840648D01*
X122910479Y-50825396D01*
X122865324Y-50704946D01*
X122856786Y-50689351D01*
X122780285Y-50587276D01*
X122767724Y-50574715D01*
X122665649Y-50498214D01*
X122650054Y-50489676D01*
X122529606Y-50444522D01*
X122514351Y-50440895D01*
X122463486Y-50435369D01*
X122456672Y-50435000D01*
X121684115Y-50435000D01*
X121668876Y-50439475D01*
X121667671Y-50440865D01*
X121666000Y-50448548D01*
X121666000Y-51670885D01*
X121158000Y-51670885D01*
X121158000Y-50453116D01*
X121153525Y-50437877D01*
X121152135Y-50436672D01*
X121144452Y-50435001D01*
X120367331Y-50435001D01*
X120360510Y-50435371D01*
X120309648Y-50440895D01*
X120294396Y-50444521D01*
X120173946Y-50489676D01*
X120158351Y-50498214D01*
X120056276Y-50574715D01*
X120043715Y-50587276D01*
X119967214Y-50689351D01*
X119958676Y-50704946D01*
X119913522Y-50825394D01*
X119909895Y-50840649D01*
X119904369Y-50891514D01*
X119904000Y-50898328D01*
X119904000Y-51670885D01*
X110363500Y-51670885D01*
X110363500Y-49021500D01*
X110383502Y-48953379D01*
X110437158Y-48906886D01*
X110489500Y-48895500D01*
X203200500Y-48895500D01*
X203268621Y-48915502D01*
G37*
%TD.AperFunction*%
M02*
