%TF.GenerationSoftware,KiCad,Pcbnew,(6.0.7-1)-1*%
%TF.CreationDate,2023-05-01T11:39:35-04:00*%
%TF.ProjectId,antenna-db,616e7465-6e6e-4612-9d64-622e6b696361,rev?*%
%TF.SameCoordinates,Original*%
%TF.FileFunction,Copper,L1,Top*%
%TF.FilePolarity,Positive*%
%FSLAX46Y46*%
G04 Gerber Fmt 4.6, Leading zero omitted, Abs format (unit mm)*
G04 Created by KiCad (PCBNEW (6.0.7-1)-1) date 2023-05-01 11:39:35*
%MOMM*%
%LPD*%
G01*
G04 APERTURE LIST*
G04 Aperture macros list*
%AMRoundRect*
0 Rectangle with rounded corners*
0 $1 Rounding radius*
0 $2 $3 $4 $5 $6 $7 $8 $9 X,Y pos of 4 corners*
0 Add a 4 corners polygon primitive as box body*
4,1,4,$2,$3,$4,$5,$6,$7,$8,$9,$2,$3,0*
0 Add four circle primitives for the rounded corners*
1,1,$1+$1,$2,$3*
1,1,$1+$1,$4,$5*
1,1,$1+$1,$6,$7*
1,1,$1+$1,$8,$9*
0 Add four rect primitives between the rounded corners*
20,1,$1+$1,$2,$3,$4,$5,0*
20,1,$1+$1,$4,$5,$6,$7,0*
20,1,$1+$1,$6,$7,$8,$9,0*
20,1,$1+$1,$8,$9,$2,$3,0*%
G04 Aperture macros list end*
%TA.AperFunction,SMDPad,CuDef*%
%ADD10RoundRect,0.033000X-0.117000X0.747000X-0.117000X-0.747000X0.117000X-0.747000X0.117000X0.747000X0*%
%TD*%
%TA.AperFunction,SMDPad,CuDef*%
%ADD11RoundRect,0.033000X0.747000X0.117000X-0.747000X0.117000X-0.747000X-0.117000X0.747000X-0.117000X0*%
%TD*%
%TA.AperFunction,SMDPad,CuDef*%
%ADD12RoundRect,0.033000X0.117000X-0.747000X0.117000X0.747000X-0.117000X0.747000X-0.117000X-0.747000X0*%
%TD*%
%TA.AperFunction,SMDPad,CuDef*%
%ADD13RoundRect,0.033000X-0.747000X-0.117000X0.747000X-0.117000X0.747000X0.117000X-0.747000X0.117000X0*%
%TD*%
%TA.AperFunction,SMDPad,CuDef*%
%ADD14R,3.180000X1.270000*%
%TD*%
%TA.AperFunction,ComponentPad*%
%ADD15R,2.000000X2.000000*%
%TD*%
%TA.AperFunction,SMDPad,CuDef*%
%ADD16R,1.270000X3.180000*%
%TD*%
%TA.AperFunction,SMDPad,CuDef*%
%ADD17RoundRect,0.225000X0.250000X-0.225000X0.250000X0.225000X-0.250000X0.225000X-0.250000X-0.225000X0*%
%TD*%
%TA.AperFunction,SMDPad,CuDef*%
%ADD18RoundRect,0.225000X0.225000X0.250000X-0.225000X0.250000X-0.225000X-0.250000X0.225000X-0.250000X0*%
%TD*%
%TA.AperFunction,SMDPad,CuDef*%
%ADD19RoundRect,0.225000X-0.225000X-0.250000X0.225000X-0.250000X0.225000X0.250000X-0.225000X0.250000X0*%
%TD*%
%TA.AperFunction,ComponentPad*%
%ADD20C,1.400000*%
%TD*%
%TA.AperFunction,SMDPad,CuDef*%
%ADD21RoundRect,0.218750X0.256250X-0.218750X0.256250X0.218750X-0.256250X0.218750X-0.256250X-0.218750X0*%
%TD*%
%TA.AperFunction,SMDPad,CuDef*%
%ADD22RoundRect,0.200000X0.275000X-0.200000X0.275000X0.200000X-0.275000X0.200000X-0.275000X-0.200000X0*%
%TD*%
%TA.AperFunction,SMDPad,CuDef*%
%ADD23RoundRect,0.225000X-0.250000X0.225000X-0.250000X-0.225000X0.250000X-0.225000X0.250000X0.225000X0*%
%TD*%
%TA.AperFunction,SMDPad,CuDef*%
%ADD24R,0.889000X0.711200*%
%TD*%
%TA.AperFunction,ConnectorPad*%
%ADD25C,4.400000*%
%TD*%
%TA.AperFunction,ComponentPad*%
%ADD26C,2.600000*%
%TD*%
%TA.AperFunction,SMDPad,CuDef*%
%ADD27RoundRect,0.218750X-0.256250X0.218750X-0.256250X-0.218750X0.256250X-0.218750X0.256250X0.218750X0*%
%TD*%
%TA.AperFunction,ComponentPad*%
%ADD28R,4.000000X4.000000*%
%TD*%
%TA.AperFunction,SMDPad,CuDef*%
%ADD29R,0.711200X0.889000*%
%TD*%
%TA.AperFunction,SMDPad,CuDef*%
%ADD30RoundRect,0.150000X-0.825000X-0.150000X0.825000X-0.150000X0.825000X0.150000X-0.825000X0.150000X0*%
%TD*%
%TA.AperFunction,SMDPad,CuDef*%
%ADD31R,2.290000X3.000000*%
%TD*%
%TA.AperFunction,SMDPad,CuDef*%
%ADD32R,0.400000X0.650000*%
%TD*%
%TA.AperFunction,SMDPad,CuDef*%
%ADD33RoundRect,0.237500X0.250000X0.237500X-0.250000X0.237500X-0.250000X-0.237500X0.250000X-0.237500X0*%
%TD*%
%TA.AperFunction,SMDPad,CuDef*%
%ADD34RoundRect,0.200000X-0.275000X0.200000X-0.275000X-0.200000X0.275000X-0.200000X0.275000X0.200000X0*%
%TD*%
%TA.AperFunction,SMDPad,CuDef*%
%ADD35RoundRect,0.237500X-0.250000X-0.237500X0.250000X-0.237500X0.250000X0.237500X-0.250000X0.237500X0*%
%TD*%
%TA.AperFunction,ViaPad*%
%ADD36C,0.700000*%
%TD*%
%TA.AperFunction,Conductor*%
%ADD37C,0.254000*%
%TD*%
%TA.AperFunction,Conductor*%
%ADD38C,0.293370*%
%TD*%
%TA.AperFunction,Conductor*%
%ADD39C,1.016000*%
%TD*%
%TA.AperFunction,Conductor*%
%ADD40C,0.508000*%
%TD*%
G04 APERTURE END LIST*
D10*
X154095000Y-55764000D03*
X154595000Y-55764000D03*
X155095000Y-55764000D03*
X155595000Y-55764000D03*
X156095000Y-55764000D03*
X156595000Y-55764000D03*
X157095000Y-55764000D03*
X157595000Y-55764000D03*
X158095000Y-55764000D03*
X158595000Y-55764000D03*
X159095000Y-55764000D03*
X159595000Y-55764000D03*
D11*
X161025000Y-57194000D03*
X161025000Y-57694000D03*
X161025000Y-58194000D03*
X161025000Y-58694000D03*
X161025000Y-59194000D03*
X161025000Y-59694000D03*
X161025000Y-60194000D03*
X161025000Y-60694000D03*
X161025000Y-61194000D03*
X161025000Y-61694000D03*
X161025000Y-62194000D03*
X161025000Y-62694000D03*
D12*
X159595000Y-64124000D03*
X159095000Y-64124000D03*
X158595000Y-64124000D03*
X158095000Y-64124000D03*
X157595000Y-64124000D03*
X157095000Y-64124000D03*
X156595000Y-64124000D03*
X156095000Y-64124000D03*
X155595000Y-64124000D03*
X155095000Y-64124000D03*
X154595000Y-64124000D03*
X154095000Y-64124000D03*
D13*
X152665000Y-62694000D03*
X152665000Y-62194000D03*
X152665000Y-61694000D03*
X152665000Y-61194000D03*
X152665000Y-60694000D03*
X152665000Y-60194000D03*
X152665000Y-59694000D03*
X152665000Y-59194000D03*
X152665000Y-58694000D03*
X152665000Y-58194000D03*
X152665000Y-57694000D03*
X152665000Y-57194000D03*
D14*
X189157000Y-96520000D03*
X189157000Y-93980000D03*
X189157000Y-91440000D03*
D15*
X160909000Y-120777000D03*
X166497000Y-120777000D03*
X147167600Y-120751600D03*
X152806400Y-120751600D03*
D16*
X188468000Y-129594000D03*
X185928000Y-129594000D03*
X125476000Y-61153000D03*
X128016000Y-61153000D03*
D14*
X189157000Y-79502000D03*
X189157000Y-82042000D03*
X189157000Y-84582000D03*
X189157000Y-87122000D03*
X189157000Y-101092000D03*
X189157000Y-103632000D03*
X189157000Y-106172000D03*
D17*
X150774400Y-56959800D03*
X150774400Y-55409800D03*
D18*
X160287000Y-66167000D03*
X158737000Y-66167000D03*
D19*
X153644000Y-52972000D03*
X155194000Y-52972000D03*
D20*
X133096000Y-129266000D03*
X133096000Y-126726000D03*
X123083000Y-118999000D03*
X125623000Y-118999000D03*
X188107000Y-71628000D03*
X190647000Y-71628000D03*
X180467000Y-64115000D03*
X180467000Y-61575000D03*
D21*
X148082000Y-61734500D03*
X148082000Y-60159500D03*
D20*
X132969000Y-136672000D03*
X132969000Y-139212000D03*
D22*
X130429000Y-124015000D03*
X130429000Y-122365000D03*
X128905000Y-124015000D03*
X128905000Y-122365000D03*
X185648600Y-67563000D03*
X185648600Y-65913000D03*
X184124600Y-67563000D03*
X184124600Y-65913000D03*
D23*
X146558000Y-60172000D03*
X146558000Y-61722000D03*
D17*
X149606000Y-61722000D03*
X149606000Y-60172000D03*
D15*
X200279000Y-130810000D03*
X192278000Y-138811000D03*
X113411000Y-59944000D03*
X121412000Y-51943000D03*
D20*
X189484000Y-115463000D03*
X189484000Y-112923000D03*
X120777000Y-75585000D03*
X120777000Y-78125000D03*
D23*
X163322000Y-56629000D03*
X163322000Y-58179000D03*
X164846000Y-56629000D03*
X164846000Y-58179000D03*
D24*
X166027100Y-96672400D03*
X166027100Y-94132400D03*
X162344100Y-94132400D03*
X162344100Y-95402400D03*
X162344100Y-96672400D03*
D25*
X189357000Y-75438000D03*
D26*
X189357000Y-75438000D03*
D22*
X156705000Y-53035000D03*
X156705000Y-51385000D03*
D27*
X181737000Y-128467000D03*
X181737000Y-130042000D03*
D25*
X124333000Y-115316000D03*
D26*
X124333000Y-115316000D03*
D17*
X117602000Y-69964000D03*
X117602000Y-71514000D03*
X126746000Y-70345000D03*
X126746000Y-71895000D03*
D28*
X174371000Y-95377000D03*
D25*
X136906000Y-138430000D03*
D26*
X136906000Y-138430000D03*
D25*
X138176000Y-69088000D03*
D26*
X138176000Y-69088000D03*
D29*
X155549600Y-100139500D03*
X156819600Y-100139500D03*
X158089600Y-100139500D03*
X158089600Y-103822500D03*
X155549600Y-103822500D03*
D25*
X113792000Y-115316000D03*
D26*
X113792000Y-115316000D03*
X200025000Y-120269000D03*
D25*
X200025000Y-120269000D03*
D30*
X119699000Y-67564000D03*
X119699000Y-68834000D03*
X119699000Y-70104000D03*
X119699000Y-71374000D03*
X124649000Y-71374000D03*
X124649000Y-70104000D03*
X124649000Y-68834000D03*
X124649000Y-67564000D03*
D31*
X122174000Y-69469000D03*
D26*
X144272000Y-95377000D03*
D25*
X144272000Y-95377000D03*
D28*
X156972000Y-77724000D03*
D32*
X184109600Y-64513000D03*
X184759600Y-64513000D03*
X185409600Y-64513000D03*
X185409600Y-62613000D03*
X184109600Y-62613000D03*
D28*
X156845000Y-112903000D03*
D17*
X190689000Y-124485000D03*
X190689000Y-122935000D03*
D25*
X183134000Y-114046000D03*
D26*
X183134000Y-114046000D03*
D25*
X176784000Y-52324000D03*
D26*
X176784000Y-52324000D03*
D28*
X139192000Y-95377000D03*
D33*
X192490500Y-121424000D03*
X190665500Y-121424000D03*
D26*
X175514000Y-121666000D03*
D25*
X175514000Y-121666000D03*
D34*
X181737000Y-133127500D03*
X181737000Y-131477500D03*
D25*
X199898000Y-75438000D03*
D26*
X199898000Y-75438000D03*
D25*
X132080000Y-52197000D03*
D26*
X132080000Y-52197000D03*
D18*
X148095000Y-58420000D03*
X146545000Y-58420000D03*
D25*
X156845000Y-82804000D03*
D26*
X156845000Y-82804000D03*
D21*
X132207000Y-62255500D03*
X132207000Y-60680500D03*
D30*
X183642000Y-120408000D03*
X183642000Y-121678000D03*
X183642000Y-122948000D03*
X183642000Y-124218000D03*
X188592000Y-124218000D03*
X188592000Y-122948000D03*
X188592000Y-121678000D03*
X188592000Y-120408000D03*
D31*
X186117000Y-122313000D03*
D35*
X128547500Y-67183000D03*
X126722500Y-67183000D03*
D25*
X130556000Y-76708000D03*
D26*
X130556000Y-76708000D03*
D34*
X183261000Y-128429500D03*
X183261000Y-130079500D03*
D25*
X169291000Y-95377000D03*
D26*
X169291000Y-95377000D03*
D25*
X176784000Y-62865000D03*
D26*
X176784000Y-62865000D03*
D25*
X156845000Y-107823000D03*
D26*
X156845000Y-107823000D03*
D17*
X181545000Y-124485000D03*
X181545000Y-122935000D03*
D22*
X130683000Y-62293000D03*
X130683000Y-60643000D03*
D33*
X126722500Y-68834000D03*
X128547500Y-68834000D03*
D25*
X181610000Y-138557000D03*
D26*
X181610000Y-138557000D03*
D32*
X129144000Y-120965000D03*
X129794000Y-120965000D03*
X130444000Y-120965000D03*
X130444000Y-119065000D03*
X129144000Y-119065000D03*
D25*
X136906000Y-127889000D03*
D26*
X136906000Y-127889000D03*
X113665000Y-70612000D03*
D25*
X113665000Y-70612000D03*
D22*
X132207000Y-59245000D03*
X132207000Y-57595000D03*
D35*
X190665500Y-119900000D03*
X192490500Y-119900000D03*
D36*
X176326800Y-116840000D03*
X137160000Y-116636800D03*
X140360400Y-116636800D03*
X172161200Y-133299200D03*
X172161200Y-125069600D03*
X172161200Y-120954800D03*
X172161200Y-129184400D03*
X172161200Y-137414000D03*
X172161200Y-116840000D03*
X179730400Y-116840000D03*
X179781200Y-108204000D03*
X179781200Y-104089200D03*
X179781200Y-112318800D03*
X179781200Y-99974400D03*
X179781200Y-91744800D03*
X179781200Y-83515200D03*
X179781200Y-79400400D03*
X179781200Y-87630000D03*
X179781200Y-99974400D03*
X179781200Y-95859600D03*
X179781200Y-75285600D03*
X175107600Y-72491600D03*
X166878000Y-72491600D03*
X162763200Y-72491600D03*
X170992800Y-72491600D03*
X179222400Y-72491600D03*
X150418800Y-72491600D03*
X142189200Y-72491600D03*
X138074400Y-72491600D03*
X146304000Y-72491600D03*
X158648400Y-72491600D03*
X154533600Y-72491600D03*
X133959600Y-72491600D03*
X133959600Y-75488800D03*
X133959600Y-83718400D03*
X133959600Y-87833200D03*
X133959600Y-79603600D03*
X133959600Y-67259200D03*
X133959600Y-100177600D03*
X133959600Y-108407200D03*
X133959600Y-112522000D03*
X133959600Y-104292400D03*
X133959600Y-91948000D03*
X133959600Y-96062800D03*
X133959600Y-116636800D03*
X140360400Y-123647200D03*
X140360400Y-131876800D03*
X140360400Y-135991600D03*
X140360400Y-127762000D03*
X140360400Y-119532400D03*
X140360400Y-140106400D03*
X149504400Y-59096500D03*
X149453600Y-68630800D03*
X148996400Y-66192400D03*
X151337442Y-69337758D03*
X149707600Y-65481200D03*
X199034400Y-49428400D03*
X174294800Y-49428400D03*
X186690000Y-49428400D03*
X182524400Y-49428400D03*
X194919600Y-49428400D03*
X178409600Y-49428400D03*
X190804800Y-49428400D03*
X166065200Y-49428400D03*
X161899600Y-49428400D03*
X157784800Y-49428400D03*
X170180000Y-49428400D03*
X145440400Y-49428400D03*
X141274800Y-49428400D03*
X153670000Y-49428400D03*
X137160000Y-49428400D03*
X149555200Y-49428400D03*
X124815600Y-49428400D03*
X120650000Y-49428400D03*
X133045200Y-49428400D03*
X116535200Y-49428400D03*
X128930400Y-49428400D03*
X112420400Y-49428400D03*
X202793600Y-50596800D03*
X202793600Y-62941200D03*
X202793600Y-67106800D03*
X202793600Y-54711600D03*
X202793600Y-71221600D03*
X202793600Y-58826400D03*
X202793600Y-83566000D03*
X202793600Y-87731600D03*
X202793600Y-75336400D03*
X202793600Y-91846400D03*
X202793600Y-79451200D03*
X202793600Y-104241600D03*
X202793600Y-108407200D03*
X202793600Y-96012000D03*
X202793600Y-112522000D03*
X202793600Y-100126800D03*
X202793600Y-116636800D03*
X202793600Y-124866400D03*
X202793600Y-120751600D03*
X202793600Y-129032000D03*
X202793600Y-137261600D03*
X202793600Y-133146800D03*
X202641200Y-141376400D03*
X194411600Y-141376400D03*
X198526400Y-141376400D03*
X190296800Y-141376400D03*
X182067200Y-141376400D03*
X186182000Y-141376400D03*
X177952400Y-141376400D03*
X169722800Y-141376400D03*
X173837600Y-141376400D03*
X165608000Y-141376400D03*
X157378400Y-141376400D03*
X161493200Y-141376400D03*
X158089600Y-99060000D03*
X155549600Y-99009200D03*
X178206400Y-57826500D03*
X177088800Y-57150000D03*
X170027600Y-57150000D03*
X153263600Y-141376400D03*
X149148800Y-141376400D03*
X145034000Y-141376400D03*
X140919200Y-141376400D03*
X136804400Y-141376400D03*
X132689600Y-141376400D03*
X128574800Y-141376400D03*
X124460000Y-141376400D03*
X120345200Y-141376400D03*
X192989200Y-87680800D03*
X192430400Y-86614000D03*
X191820800Y-87680800D03*
X191312800Y-86614000D03*
X193243200Y-79908400D03*
X192633600Y-79095600D03*
X191922400Y-79908400D03*
X191363600Y-79095600D03*
X150418800Y-64820800D03*
X153924000Y-70087900D03*
X156921200Y-57928100D03*
X143357600Y-70154800D03*
X158496000Y-53848000D03*
X190703200Y-125526800D03*
X192481200Y-118821200D03*
X186131200Y-125018800D03*
X186131200Y-119583200D03*
X188569600Y-119583200D03*
X181559200Y-121869200D03*
X180340000Y-121970800D03*
X180340000Y-122986800D03*
X180086000Y-124866400D03*
X117856000Y-67005200D03*
X117602000Y-68834000D03*
X116484400Y-70104000D03*
X116484400Y-68834000D03*
X185928000Y-131826000D03*
X186474100Y-62623700D03*
X184086500Y-61556900D03*
X186626500Y-64554100D03*
X153416000Y-51816000D03*
X155194000Y-51816000D03*
X157861000Y-51435000D03*
X149631400Y-55168800D03*
X149631400Y-56946800D03*
X145288000Y-60198000D03*
X145288000Y-58420000D03*
X145288000Y-61976000D03*
X165989000Y-56515000D03*
X165989000Y-58293000D03*
X160528000Y-67437000D03*
X158750000Y-67437000D03*
X156083000Y-67605500D03*
X156845000Y-65786000D03*
X155829000Y-65786000D03*
X128016000Y-58801000D03*
X116230400Y-141376400D03*
X112141000Y-141376400D03*
X110896400Y-136398000D03*
X110896400Y-132334000D03*
X110896400Y-128270000D03*
X110896400Y-124206000D03*
X110896400Y-120142000D03*
X110896400Y-112014000D03*
X110896400Y-107950000D03*
X110896400Y-103886000D03*
X110896400Y-99822000D03*
X110896400Y-95758000D03*
X110896400Y-91694000D03*
X110896400Y-87630000D03*
X110896400Y-83566000D03*
X110896400Y-79502000D03*
X110896400Y-75438000D03*
X110896400Y-67310000D03*
X110896400Y-63246000D03*
X110896400Y-57861200D03*
X110896400Y-51003200D03*
X110896400Y-55067200D03*
X123444000Y-62103000D03*
X123444000Y-51943000D03*
X121412000Y-54102000D03*
X122174000Y-71501000D03*
X122174000Y-67310000D03*
X124587000Y-66548000D03*
X129794000Y-67183000D03*
X128016000Y-71882000D03*
X117602000Y-72771000D03*
X120777000Y-79883000D03*
X129286000Y-120015000D03*
X131318000Y-121031000D03*
D37*
X199186800Y-106172000D02*
X201523600Y-103835200D01*
X201523600Y-103835200D02*
X201523600Y-81076800D01*
X148349000Y-58420000D02*
X150012400Y-58420000D01*
X166624000Y-50495200D02*
X149555200Y-50495200D01*
X201523600Y-81076800D02*
X197053200Y-76606400D01*
X170992800Y-54864000D02*
X166624000Y-50495200D01*
X197053200Y-76606400D02*
X197053200Y-57505600D01*
X189157000Y-106172000D02*
X199186800Y-106172000D01*
X194411600Y-54864000D02*
X170992800Y-54864000D01*
X149555200Y-50495200D02*
X148082000Y-51968400D01*
X197053200Y-57505600D02*
X194411600Y-54864000D01*
X151786400Y-60194000D02*
X152665000Y-60194000D01*
X148082000Y-51968400D02*
X148082000Y-58661000D01*
X148082000Y-58661000D02*
X148095000Y-58674000D01*
X148095000Y-58674000D02*
X148349000Y-58420000D01*
X150012400Y-58420000D02*
X151786400Y-60194000D01*
X146545000Y-58420000D02*
X145288000Y-58420000D01*
X149606000Y-59198100D02*
X149504400Y-59096500D01*
X149606000Y-60172000D02*
X149606000Y-59198100D01*
X150596000Y-60172000D02*
X149606000Y-60172000D01*
X189157000Y-91440000D02*
X185674000Y-91440000D01*
X184048400Y-70104000D02*
X182575200Y-68630800D01*
X182575200Y-68630800D02*
X149453600Y-68630800D01*
X185674000Y-91440000D02*
X184048400Y-89814400D01*
X184048400Y-89814400D02*
X184048400Y-70104000D01*
X150418800Y-64058800D02*
X151783600Y-62694000D01*
X151783600Y-62694000D02*
X152665000Y-62694000D01*
X150418800Y-64820800D02*
X150418800Y-64058800D01*
X150794152Y-62960952D02*
X150006752Y-63748352D01*
X149707600Y-64047504D02*
X149707600Y-65481200D01*
X150006752Y-63748352D02*
X149707600Y-64047504D01*
X152665000Y-62194000D02*
X151561104Y-62194000D01*
X151561104Y-62194000D02*
X150794152Y-62960952D01*
X127635000Y-75184000D02*
X127635000Y-78613000D01*
X130444000Y-81422000D02*
X130444000Y-119065000D01*
X136652000Y-66167000D02*
X127635000Y-75184000D01*
X142113000Y-67945000D02*
X140335000Y-66167000D01*
X127635000Y-78613000D02*
X130444000Y-81422000D01*
X155743500Y-67945000D02*
X142113000Y-67945000D01*
X156083000Y-67605500D02*
X155743500Y-67945000D01*
X140335000Y-66167000D02*
X136652000Y-66167000D01*
X157095000Y-64124000D02*
X157095000Y-65536000D01*
X157095000Y-65536000D02*
X156845000Y-65786000D01*
X151419052Y-61694000D02*
X149761926Y-63351126D01*
X152665000Y-61694000D02*
X151419052Y-61694000D01*
X149761926Y-63351126D02*
X148996400Y-64116652D01*
X148996400Y-64116652D02*
X148996400Y-66192400D01*
X132207000Y-60680500D02*
X133451500Y-60680500D01*
X133451500Y-60680500D02*
X133985000Y-61214000D01*
X133985000Y-61214000D02*
X133985000Y-64516000D01*
X133985000Y-64516000D02*
X135182000Y-65713000D01*
X135182000Y-65713000D02*
X141151000Y-65713000D01*
X141151000Y-65713000D02*
X142307400Y-66869400D01*
X142307400Y-66869400D02*
X157031600Y-66869400D01*
X157595000Y-66306000D02*
X157595000Y-64124000D01*
X157031600Y-66869400D02*
X157595000Y-66306000D01*
X151337442Y-69337758D02*
X151392484Y-69392800D01*
X182270400Y-69392800D02*
X183235600Y-70358000D01*
X183235600Y-70358000D02*
X183235600Y-93370400D01*
X151392484Y-69392800D02*
X182270400Y-69392800D01*
X183235600Y-93370400D02*
X183845200Y-93980000D01*
X183845200Y-93980000D02*
X189157000Y-93980000D01*
X153924000Y-70087900D02*
X153940100Y-70104000D01*
X181102000Y-70104000D02*
X182270400Y-71272400D01*
X182270400Y-71272400D02*
X182270400Y-95656400D01*
X153940100Y-70104000D02*
X181102000Y-70104000D01*
X182270400Y-95656400D02*
X183134000Y-96520000D01*
X183134000Y-96520000D02*
X189157000Y-96520000D01*
X181356000Y-71678800D02*
X181356000Y-107950000D01*
X178511200Y-127304800D02*
X181248400Y-130042000D01*
X184353200Y-117754400D02*
X181254400Y-117754400D01*
X178511200Y-120497600D02*
X178511200Y-127304800D01*
X186537600Y-115570000D02*
X184353200Y-117754400D01*
X143357600Y-70154800D02*
X143967200Y-70764400D01*
X143967200Y-70764400D02*
X180441600Y-70764400D01*
X180441600Y-70764400D02*
X181356000Y-71678800D01*
X181356000Y-107950000D02*
X186537600Y-113131600D01*
X186537600Y-113131600D02*
X186537600Y-115570000D01*
X181254400Y-117754400D02*
X178511200Y-120497600D01*
X181248400Y-130042000D02*
X181737000Y-130042000D01*
D38*
X158089600Y-100139500D02*
X158089600Y-99060000D01*
X155549600Y-100139500D02*
X155549600Y-99009200D01*
X162344100Y-110903000D02*
G75*
G02*
X160344100Y-112903000I-2000000J0D01*
G01*
X162344100Y-96672400D02*
X162344100Y-110903000D01*
X160344100Y-112903000D02*
X156845000Y-112903000D01*
X160344100Y-77724000D02*
G75*
G02*
X162344100Y-79724000I0J-2000000D01*
G01*
X162344100Y-94132400D02*
X162344100Y-79724000D01*
X160344100Y-77724000D02*
X156972000Y-77724000D01*
X153099286Y-104456700D02*
G75*
G03*
X152806400Y-105163814I707114J-707100D01*
G01*
X153440600Y-104115386D02*
G75*
G02*
X154147714Y-103822500I707100J-707114D01*
G01*
X155549600Y-103822500D02*
X154147714Y-103822500D01*
X152806400Y-105163814D02*
X152806400Y-120751600D01*
X153440607Y-104115393D02*
X153099293Y-104456707D01*
X158089600Y-103092000D02*
G75*
G03*
X156089600Y-101092000I-2000000J0D01*
G01*
X147167600Y-103092000D02*
G75*
G02*
X149167600Y-101092000I2000000J0D01*
G01*
X156089600Y-101092000D02*
X149167600Y-101092000D01*
X147167600Y-103092000D02*
X147167600Y-120751600D01*
X158089600Y-103822500D02*
X158089600Y-103092000D01*
X166027100Y-96672400D02*
X166027100Y-120307100D01*
X166027100Y-120307100D02*
X166497000Y-120777000D01*
X166027100Y-94132400D02*
X165271200Y-94132400D01*
X160909020Y-119471827D02*
G75*
G02*
X161494787Y-118057615I1999980J27D01*
G01*
X163271200Y-96132400D02*
X163271200Y-115452773D01*
X162685427Y-116867001D02*
G75*
G03*
X163271200Y-115452773I-1414227J1414201D01*
G01*
X163271200Y-96132400D02*
G75*
G02*
X165271200Y-94132400I2000000J0D01*
G01*
X160909000Y-119471827D02*
X160909000Y-120777000D01*
X162685413Y-116866987D02*
X161494786Y-118057614D01*
D37*
X184124600Y-67563000D02*
X183488600Y-67563000D01*
X183488600Y-67563000D02*
X182968900Y-67043300D01*
X182968900Y-67043300D02*
X182968900Y-62674500D01*
X182968900Y-62674500D02*
X181864000Y-61569600D01*
X181864000Y-61569600D02*
X181366800Y-61569600D01*
X181366800Y-61569600D02*
X181361400Y-61575000D01*
X181361400Y-61575000D02*
X180467000Y-61575000D01*
X185648600Y-67563000D02*
X189229000Y-67563000D01*
X189229000Y-67563000D02*
X190647000Y-68981000D01*
X190647000Y-68981000D02*
X190647000Y-71628000D01*
X155595000Y-55764000D02*
X155595000Y-56636600D01*
X155595000Y-56636600D02*
X156210000Y-57251600D01*
X156210000Y-57251600D02*
X159594283Y-57251600D01*
X159594283Y-57251600D02*
X161778683Y-55067200D01*
X161778683Y-55067200D02*
X167132000Y-55067200D01*
X167132000Y-55067200D02*
X169214800Y-57150000D01*
X169214800Y-57150000D02*
X170027600Y-57150000D01*
X178206400Y-57826500D02*
X191227300Y-57826500D01*
X191227300Y-57826500D02*
X194462400Y-61061600D01*
X194462400Y-61061600D02*
X194462400Y-81534000D01*
X194462400Y-81534000D02*
X193954400Y-82042000D01*
X193954400Y-82042000D02*
X189157000Y-82042000D01*
X177088800Y-57150000D02*
X192227200Y-57150000D01*
X192227200Y-57150000D02*
X195122800Y-60045600D01*
X195122800Y-60045600D02*
X195122800Y-83921600D01*
X195122800Y-83921600D02*
X194462400Y-84582000D01*
X194462400Y-84582000D02*
X189157000Y-84582000D01*
X189157000Y-101092000D02*
X198882000Y-101092000D01*
X198882000Y-101092000D02*
X200152000Y-99822000D01*
X163118800Y-59283600D02*
X162029200Y-58194000D01*
X162029200Y-58194000D02*
X161025000Y-58194000D01*
X200152000Y-99822000D02*
X200152000Y-82143600D01*
X200152000Y-82143600D02*
X195681600Y-77673200D01*
X195681600Y-77673200D02*
X195681600Y-59029600D01*
X169214800Y-59283600D02*
X163118800Y-59283600D01*
X195681600Y-59029600D02*
X192887600Y-56235600D01*
X192887600Y-56235600D02*
X172262800Y-56235600D01*
X172262800Y-56235600D02*
X169214800Y-59283600D01*
X200812400Y-81534000D02*
X196392800Y-77114400D01*
X199339200Y-103632000D02*
X200812400Y-102158800D01*
X189157000Y-103632000D02*
X199339200Y-103632000D01*
X165455600Y-51816000D02*
X160629600Y-51816000D01*
X160629600Y-51816000D02*
X159595000Y-52850600D01*
X200812400Y-102158800D02*
X200812400Y-81534000D01*
X196392800Y-77114400D02*
X196392800Y-58267600D01*
X196392800Y-58267600D02*
X193598800Y-55473600D01*
X169113200Y-55473600D02*
X165455600Y-51816000D01*
X193598800Y-55473600D02*
X169113200Y-55473600D01*
X159595000Y-52850600D02*
X159595000Y-55764000D01*
X155095000Y-56778652D02*
X156244448Y-57928100D01*
X156244448Y-57928100D02*
X156921200Y-57928100D01*
X155095000Y-55764000D02*
X155095000Y-56778652D01*
X158595000Y-53947000D02*
X158595000Y-55764000D01*
X158496000Y-53848000D02*
X158595000Y-53947000D01*
X189484000Y-112923000D02*
X187401200Y-115005800D01*
X187401200Y-115005800D02*
X187401200Y-116941600D01*
X187401200Y-116941600D02*
X185623200Y-118719600D01*
X185623200Y-118719600D02*
X182626000Y-118719600D01*
X182626000Y-118719600D02*
X181102000Y-120243600D01*
X181102000Y-120243600D02*
X179527200Y-120243600D01*
X179527200Y-120243600D02*
X179070000Y-120700800D01*
X179730400Y-126847600D02*
X187553600Y-126847600D01*
X187553600Y-126847600D02*
X188468000Y-127762000D01*
X179070000Y-120700800D02*
X179070000Y-126187200D01*
X179070000Y-126187200D02*
X179730400Y-126847600D01*
X188468000Y-127762000D02*
X188468000Y-129594000D01*
D39*
X200279000Y-130810000D02*
X194106800Y-130810000D01*
X194106800Y-130810000D02*
X192490500Y-129193700D01*
X192490500Y-129193700D02*
X192490500Y-121424000D01*
X190689000Y-125512600D02*
X190703200Y-125526800D01*
X190689000Y-124485000D02*
X190689000Y-125512600D01*
X192490500Y-118830500D02*
X192481200Y-118821200D01*
X192490500Y-119900000D02*
X192490500Y-118830500D01*
X186117000Y-125004600D02*
X186131200Y-125018800D01*
X186117000Y-122313000D02*
X186117000Y-125004600D01*
X186117000Y-119597400D02*
X186131200Y-119583200D01*
X186117000Y-122313000D02*
X186117000Y-119597400D01*
X188592000Y-119605600D02*
X188569600Y-119583200D01*
X188592000Y-120408000D02*
X188592000Y-119605600D01*
X180086000Y-124866400D02*
X180467400Y-124485000D01*
X180467400Y-124485000D02*
X181545000Y-124485000D01*
D37*
X183642000Y-121678000D02*
X182536400Y-121678000D01*
X182536400Y-121678000D02*
X181102000Y-120243600D01*
X119319420Y-68834000D02*
X117856000Y-67370580D01*
X119699000Y-68834000D02*
X119319420Y-68834000D01*
X117856000Y-67370580D02*
X117856000Y-67005200D01*
X185928000Y-129594000D02*
X185928000Y-131826000D01*
X185409600Y-62613000D02*
X186463400Y-62613000D01*
X186463400Y-62613000D02*
X186474100Y-62623700D01*
X184109600Y-61580000D02*
X184086500Y-61556900D01*
X184109600Y-62613000D02*
X184109600Y-61580000D01*
X186585400Y-64513000D02*
X186626500Y-64554100D01*
X185409600Y-64513000D02*
X186585400Y-64513000D01*
X165989000Y-56515000D02*
X165875000Y-56629000D01*
X165875000Y-56629000D02*
X164846000Y-56629000D01*
X165989000Y-58293000D02*
X165875000Y-58179000D01*
X165875000Y-58179000D02*
X164846000Y-58179000D01*
X160287000Y-67196000D02*
X160287000Y-66167000D01*
X160528000Y-67437000D02*
X160287000Y-67196000D01*
X145288000Y-61976000D02*
X145542000Y-61722000D01*
X145542000Y-61722000D02*
X146558000Y-61722000D01*
X149631400Y-55168800D02*
X149872400Y-55409800D01*
X149872400Y-55409800D02*
X150774400Y-55409800D01*
X153416000Y-51816000D02*
X153644000Y-52044000D01*
X153644000Y-52044000D02*
X153644000Y-52972000D01*
X155194000Y-52972000D02*
X155194000Y-51816000D01*
X157811000Y-51385000D02*
X157861000Y-51435000D01*
X156705000Y-51385000D02*
X157811000Y-51385000D01*
X156095000Y-55764000D02*
X156095000Y-54471000D01*
X156095000Y-54471000D02*
X156705000Y-53861000D01*
X156705000Y-53861000D02*
X156705000Y-53035000D01*
X155194000Y-52972000D02*
X155194000Y-53962000D01*
X155194000Y-53962000D02*
X154595000Y-54561000D01*
X154595000Y-54561000D02*
X154595000Y-55764000D01*
X153644000Y-52972000D02*
X153644000Y-54203000D01*
X153644000Y-54203000D02*
X154051000Y-54610000D01*
X154051000Y-54610000D02*
X154051000Y-55720000D01*
X154051000Y-55720000D02*
X154095000Y-55764000D01*
X149644400Y-56959800D02*
X149631400Y-56946800D01*
X150774400Y-56959800D02*
X149644400Y-56959800D01*
X150774400Y-56959800D02*
X150932400Y-57117800D01*
X151034000Y-57194000D02*
X152665000Y-57194000D01*
X145314000Y-60172000D02*
X145288000Y-60198000D01*
X146558000Y-60172000D02*
X145314000Y-60172000D01*
X152665000Y-61194000D02*
X151277000Y-61194000D01*
X151277000Y-61194000D02*
X150749000Y-61722000D01*
X150749000Y-61722000D02*
X149606000Y-61722000D01*
X150596000Y-60172000D02*
X151118000Y-60694000D01*
X151118000Y-60694000D02*
X152665000Y-60694000D01*
X148082000Y-60159500D02*
X146570500Y-60159500D01*
X146570500Y-60159500D02*
X146558000Y-60172000D01*
X149606000Y-61722000D02*
X148094500Y-61722000D01*
X148094500Y-61722000D02*
X148082000Y-61734500D01*
X163322000Y-58179000D02*
X164846000Y-58179000D01*
X163322000Y-56629000D02*
X164846000Y-56629000D01*
X161025000Y-57694000D02*
X162215000Y-57694000D01*
X162215000Y-57694000D02*
X162700000Y-58179000D01*
X162700000Y-58179000D02*
X163322000Y-58179000D01*
X161025000Y-57194000D02*
X162135000Y-57194000D01*
X162135000Y-57194000D02*
X162700000Y-56629000D01*
X162700000Y-56629000D02*
X163322000Y-56629000D01*
X158737000Y-67424000D02*
X158750000Y-67437000D01*
X158737000Y-66167000D02*
X158737000Y-67424000D01*
X156595000Y-64124000D02*
X156595000Y-65020000D01*
X156595000Y-65020000D02*
X155829000Y-65786000D01*
X159595000Y-64124000D02*
X159595000Y-64980000D01*
X159595000Y-64980000D02*
X160287000Y-65672000D01*
X160287000Y-65672000D02*
X160287000Y-66167000D01*
X159095000Y-64124000D02*
X159095000Y-65187000D01*
X159095000Y-65187000D02*
X158737000Y-65545000D01*
X158737000Y-65545000D02*
X158737000Y-66167000D01*
X132207000Y-57595000D02*
X126301000Y-57595000D01*
X126301000Y-57595000D02*
X125476000Y-58420000D01*
X125476000Y-58420000D02*
X125476000Y-61153000D01*
X128016000Y-61153000D02*
X128016000Y-58801000D01*
X124394000Y-61153000D02*
X123444000Y-62103000D01*
X125476000Y-61153000D02*
X124394000Y-61153000D01*
D39*
X121412000Y-51943000D02*
X123444000Y-51943000D01*
X121412000Y-51943000D02*
X121412000Y-54102000D01*
X130188000Y-70345000D02*
X128638000Y-70345000D01*
X128547500Y-70254500D02*
X128638000Y-70345000D01*
X128638000Y-70345000D02*
X126746000Y-70345000D01*
X128547500Y-68834000D02*
X128547500Y-70254500D01*
X113411000Y-59944000D02*
X113411000Y-63500000D01*
X129921000Y-64897000D02*
X131010000Y-65986000D01*
X113411000Y-63500000D02*
X114808000Y-64897000D01*
X131010000Y-65986000D02*
X131010000Y-69523000D01*
X114808000Y-64897000D02*
X129921000Y-64897000D01*
X131010000Y-69523000D02*
X130188000Y-70345000D01*
D37*
X130683000Y-60643000D02*
X130683000Y-58166000D01*
X130683000Y-58166000D02*
X131254000Y-57595000D01*
X131254000Y-57595000D02*
X132207000Y-57595000D01*
X132207000Y-62255500D02*
X130720500Y-62255500D01*
X130720500Y-62255500D02*
X130683000Y-62293000D01*
X132207000Y-59245000D02*
X132207000Y-60680500D01*
D39*
X122174000Y-69469000D02*
X122174000Y-71501000D01*
X122174000Y-69469000D02*
X122174000Y-67310000D01*
X124649000Y-66610000D02*
X124587000Y-66548000D01*
X124649000Y-67564000D02*
X124649000Y-66610000D01*
X128547500Y-67183000D02*
X129794000Y-67183000D01*
X128003000Y-71895000D02*
X128016000Y-71882000D01*
X126746000Y-71895000D02*
X128003000Y-71895000D01*
X117602000Y-71514000D02*
X117602000Y-72771000D01*
D37*
X120777000Y-78125000D02*
X120777000Y-79883000D01*
X129144000Y-119873000D02*
X129286000Y-120015000D01*
X129144000Y-119065000D02*
X129144000Y-119873000D01*
X128905000Y-124015000D02*
X127317000Y-124015000D01*
X127317000Y-124015000D02*
X125623000Y-122321000D01*
X125623000Y-122321000D02*
X125623000Y-118999000D01*
X132270000Y-124015000D02*
X133096000Y-124841000D01*
X130429000Y-124015000D02*
X132270000Y-124015000D01*
X133096000Y-124841000D02*
X133096000Y-126726000D01*
X129144000Y-120965000D02*
X129144000Y-122126000D01*
X129144000Y-122126000D02*
X128905000Y-122365000D01*
X129794000Y-120965000D02*
X129794000Y-121730000D01*
X129794000Y-121730000D02*
X130429000Y-122365000D01*
X131252000Y-120965000D02*
X131318000Y-121031000D01*
X130444000Y-120965000D02*
X131252000Y-120965000D01*
X183261000Y-130079500D02*
X183261000Y-132461000D01*
X183261000Y-132461000D02*
X182594500Y-133127500D01*
X182594500Y-133127500D02*
X181737000Y-133127500D01*
X188468000Y-129594000D02*
X188468000Y-132588000D01*
X188468000Y-132588000D02*
X187928500Y-133127500D01*
X187928500Y-133127500D02*
X181737000Y-133127500D01*
X184109600Y-64513000D02*
X184109600Y-65898000D01*
X184109600Y-65898000D02*
X184124600Y-65913000D01*
X184759600Y-64513000D02*
X184759600Y-65024000D01*
X184759600Y-65024000D02*
X185648600Y-65913000D01*
X181737000Y-130042000D02*
X181737000Y-131477500D01*
X181737000Y-128467000D02*
X183223500Y-128467000D01*
X183223500Y-128467000D02*
X183261000Y-128429500D01*
D40*
X183629000Y-122935000D02*
X183642000Y-122948000D01*
%TA.AperFunction,Conductor*%
G36*
X118179121Y-68473002D02*
G01*
X118225614Y-68526658D01*
X118237000Y-68579000D01*
X118237000Y-69723000D01*
X120524000Y-69723000D01*
X120592121Y-69743002D01*
X120638614Y-69796658D01*
X120650000Y-69849000D01*
X120650000Y-70409800D01*
X120629998Y-70477921D01*
X120576342Y-70524414D01*
X120524000Y-70535800D01*
X116254800Y-70535800D01*
X116186679Y-70515798D01*
X116140186Y-70462142D01*
X116128800Y-70409800D01*
X116128800Y-68579000D01*
X116148802Y-68510879D01*
X116202458Y-68464386D01*
X116254800Y-68453000D01*
X118111000Y-68453000D01*
X118179121Y-68473002D01*
G37*
%TD.AperFunction*%
%TA.AperFunction,Conductor*%
G36*
X127196121Y-66822002D02*
G01*
X127242614Y-66875658D01*
X127254000Y-66928000D01*
X127254000Y-69216000D01*
X127233998Y-69284121D01*
X127180342Y-69330614D01*
X127128000Y-69342000D01*
X126237000Y-69342000D01*
X126168879Y-69321998D01*
X126122386Y-69268342D01*
X126111000Y-69216000D01*
X126111000Y-69088000D01*
X123824000Y-69088000D01*
X123755879Y-69067998D01*
X123709386Y-69014342D01*
X123698000Y-68962000D01*
X123698000Y-68579000D01*
X123718002Y-68510879D01*
X123771658Y-68464386D01*
X123824000Y-68453000D01*
X126111000Y-68453000D01*
X126111000Y-66928000D01*
X126131002Y-66859879D01*
X126184658Y-66813386D01*
X126237000Y-66802000D01*
X127128000Y-66802000D01*
X127196121Y-66822002D01*
G37*
%TD.AperFunction*%
%TA.AperFunction,Conductor*%
G36*
X127323121Y-69870002D02*
G01*
X127369614Y-69923658D01*
X127381000Y-69976000D01*
X127381000Y-70613000D01*
X127360998Y-70681121D01*
X127307342Y-70727614D01*
X127255000Y-70739000D01*
X126237000Y-70739000D01*
X126168879Y-70718998D01*
X126122386Y-70665342D01*
X126111000Y-70613000D01*
X126111000Y-70358000D01*
X123824000Y-70358000D01*
X123755879Y-70337998D01*
X123709386Y-70284342D01*
X123698000Y-70232000D01*
X123698000Y-69976000D01*
X123718002Y-69907879D01*
X123771658Y-69861386D01*
X123824000Y-69850000D01*
X127255000Y-69850000D01*
X127323121Y-69870002D01*
G37*
%TD.AperFunction*%
%TA.AperFunction,Conductor*%
G36*
X181924776Y-121533602D02*
G01*
X181945750Y-121550505D01*
X181979495Y-121584250D01*
X182013521Y-121646562D01*
X182016400Y-121673345D01*
X182016400Y-122631200D01*
X184532000Y-122631200D01*
X184600121Y-122651202D01*
X184646614Y-122704858D01*
X184658000Y-122757200D01*
X184658000Y-123114800D01*
X184637998Y-123182921D01*
X184584342Y-123229414D01*
X184532000Y-123240800D01*
X182016400Y-123240800D01*
X182016400Y-123267200D01*
X181996398Y-123335321D01*
X181942742Y-123381814D01*
X181890400Y-123393200D01*
X180059600Y-123393200D01*
X179991479Y-123373198D01*
X179944986Y-123319542D01*
X179933600Y-123267200D01*
X179933600Y-121639600D01*
X179953602Y-121571479D01*
X180007258Y-121524986D01*
X180059600Y-121513600D01*
X181856655Y-121513600D01*
X181924776Y-121533602D01*
G37*
%TD.AperFunction*%
%TA.AperFunction,Conductor*%
G36*
X191127921Y-119450802D02*
G01*
X191174414Y-119504458D01*
X191185800Y-119556800D01*
X191185800Y-121844800D01*
X191165798Y-121912921D01*
X191112142Y-121959414D01*
X191059800Y-121970800D01*
X187705000Y-121970800D01*
X187636879Y-121950798D01*
X187590386Y-121897142D01*
X187579000Y-121844800D01*
X187579000Y-121461800D01*
X187599002Y-121393679D01*
X187652658Y-121347186D01*
X187705000Y-121335800D01*
X190144400Y-121335800D01*
X190144400Y-119556800D01*
X190164402Y-119488679D01*
X190218058Y-119442186D01*
X190270400Y-119430800D01*
X191059800Y-119430800D01*
X191127921Y-119450802D01*
G37*
%TD.AperFunction*%
%TA.AperFunction,Conductor*%
G36*
X192931321Y-120924002D02*
G01*
X192977814Y-120977658D01*
X192989200Y-121030000D01*
X192989200Y-123267200D01*
X192969198Y-123335321D01*
X192915542Y-123381814D01*
X192863200Y-123393200D01*
X187730400Y-123393200D01*
X187662279Y-123373198D01*
X187615786Y-123319542D01*
X187604400Y-123267200D01*
X187604400Y-122757200D01*
X187624402Y-122689079D01*
X187678058Y-122642586D01*
X187730400Y-122631200D01*
X190042800Y-122631200D01*
X190042800Y-122554000D01*
X190062802Y-122485879D01*
X190116458Y-122439386D01*
X190168800Y-122428000D01*
X192024000Y-122428000D01*
X192024000Y-121030000D01*
X192044002Y-120961879D01*
X192097658Y-120915386D01*
X192150000Y-120904000D01*
X192863200Y-120904000D01*
X192931321Y-120924002D01*
G37*
%TD.AperFunction*%
%TA.AperFunction,Conductor*%
G36*
X193591721Y-78709202D02*
G01*
X193638214Y-78762858D01*
X193649600Y-78815200D01*
X193649600Y-80239600D01*
X193629598Y-80307721D01*
X193575942Y-80354214D01*
X193523600Y-80365600D01*
X187425600Y-80365600D01*
X187357479Y-80345598D01*
X187310986Y-80291942D01*
X187299600Y-80239600D01*
X187299600Y-78815200D01*
X187319602Y-78747079D01*
X187373258Y-78700586D01*
X187425600Y-78689200D01*
X193523600Y-78689200D01*
X193591721Y-78709202D01*
G37*
%TD.AperFunction*%
%TA.AperFunction,Conductor*%
G36*
X193388521Y-86278402D02*
G01*
X193435014Y-86332058D01*
X193446400Y-86384400D01*
X193446400Y-87960154D01*
X193426398Y-88028275D01*
X193372742Y-88074768D01*
X193319359Y-88086150D01*
X192085564Y-88075953D01*
X187424558Y-88037433D01*
X187356606Y-88016868D01*
X187310558Y-87962830D01*
X187299600Y-87911437D01*
X187299600Y-86384400D01*
X187319602Y-86316279D01*
X187373258Y-86269786D01*
X187425600Y-86258400D01*
X193320400Y-86258400D01*
X193388521Y-86278402D01*
G37*
%TD.AperFunction*%
%TA.AperFunction,Conductor*%
G36*
X180975141Y-140872358D02*
G01*
X181159302Y-140919642D01*
X181458973Y-140957500D01*
X181761027Y-140957500D01*
X182060698Y-140919642D01*
X182244859Y-140872358D01*
X182276193Y-140868400D01*
X203834000Y-140868400D01*
X203834000Y-142240000D01*
X203813998Y-142308121D01*
X203760342Y-142354614D01*
X203708000Y-142366000D01*
X109982000Y-142366000D01*
X109913879Y-142345998D01*
X109867386Y-142292342D01*
X109856000Y-142240000D01*
X109856000Y-140868400D01*
X180943807Y-140868400D01*
X180975141Y-140872358D01*
G37*
%TD.AperFunction*%
%TA.AperFunction,Conductor*%
G36*
X180586921Y-71597202D02*
G01*
X180633414Y-71650858D01*
X180644800Y-71703200D01*
X180644800Y-117425200D01*
X180624798Y-117493321D01*
X180571142Y-117539814D01*
X180518800Y-117551200D01*
X172923200Y-117551200D01*
X172923200Y-140868400D01*
X171348400Y-140868400D01*
X171348400Y-140817600D01*
X171398942Y-116152941D01*
X171419084Y-116084862D01*
X171472835Y-116038479D01*
X171524942Y-116027200D01*
X179120800Y-116027200D01*
X179120800Y-73101200D01*
X134569200Y-73101200D01*
X134569200Y-116027200D01*
X140895057Y-116027200D01*
X140963178Y-116047202D01*
X141009671Y-116100858D01*
X141021057Y-116152942D01*
X141023944Y-117564748D01*
X141071600Y-140868400D01*
X139496800Y-140868400D01*
X139496800Y-117500400D01*
X133171200Y-117500400D01*
X133103079Y-117480398D01*
X133056586Y-117426742D01*
X133045200Y-117374400D01*
X133045200Y-71703200D01*
X133065202Y-71635079D01*
X133118858Y-71588586D01*
X133171200Y-71577200D01*
X180518800Y-71577200D01*
X180586921Y-71597202D01*
G37*
%TD.AperFunction*%
%TA.AperFunction,Conductor*%
G36*
X203683737Y-48412332D02*
G01*
X203751847Y-48432371D01*
X203798311Y-48486052D01*
X203809669Y-48538263D01*
X203834000Y-92820331D01*
X203834000Y-140868400D01*
X202336400Y-140868400D01*
X202336400Y-120943379D01*
X202342567Y-120904443D01*
X202344577Y-120898258D01*
X202354681Y-120867160D01*
X202411280Y-120570457D01*
X202430246Y-120269000D01*
X202411280Y-119967543D01*
X202354681Y-119670840D01*
X202342567Y-119633557D01*
X202336400Y-119594621D01*
X202336400Y-49885600D01*
X132746193Y-49885600D01*
X132714859Y-49881642D01*
X132530698Y-49834358D01*
X132231027Y-49796500D01*
X131928973Y-49796500D01*
X131629302Y-49834358D01*
X131445141Y-49881642D01*
X131413807Y-49885600D01*
X111353600Y-49885600D01*
X111353600Y-69937621D01*
X111347433Y-69976557D01*
X111335319Y-70013840D01*
X111278720Y-70310543D01*
X111259754Y-70612000D01*
X111278720Y-70913457D01*
X111335319Y-71210160D01*
X111336546Y-71213936D01*
X111347433Y-71247443D01*
X111353600Y-71286379D01*
X111353600Y-140868400D01*
X109856000Y-140868400D01*
X109856000Y-48514000D01*
X109876002Y-48445879D01*
X109929658Y-48399386D01*
X109982000Y-48388000D01*
X158669600Y-48388000D01*
X203683737Y-48412332D01*
G37*
%TD.AperFunction*%
M02*
