G04 #@! TF.GenerationSoftware,KiCad,Pcbnew,(6.0.7-1)-1*
G04 #@! TF.CreationDate,2023-01-01T23:11:57-05:00*
G04 #@! TF.ProjectId,obc-db,6f62632d-6462-42e6-9b69-6361645f7063,rev?*
G04 #@! TF.SameCoordinates,Original*
G04 #@! TF.FileFunction,Profile,NP*
%FSLAX46Y46*%
G04 Gerber Fmt 4.6, Leading zero omitted, Abs format (unit mm)*
G04 Created by KiCad (PCBNEW (6.0.7-1)-1) date 2023-01-01 23:11:57*
%MOMM*%
%LPD*%
G01*
G04 APERTURE LIST*
G04 #@! TA.AperFunction,Profile*
%ADD10C,0.100000*%
G04 #@! TD*
G04 APERTURE END LIST*
D10*
X114300000Y-46990000D02*
G75*
G03*
X109220000Y-52070000I0J-5080000D01*
G01*
X145461200Y-48133000D02*
G75*
G03*
X144318223Y-46990000I-1143000J0D01*
G01*
X199390000Y-83566000D02*
X199390000Y-52070000D01*
X111506000Y-85598000D02*
G75*
G03*
X110363000Y-84455000I-1143000J0D01*
G01*
X110363000Y-105329200D02*
G75*
G03*
X109220000Y-106472223I0J-1143000D01*
G01*
X146604223Y-49276000D02*
X164592000Y-49276000D01*
X194310000Y-142875000D02*
G75*
G03*
X199390000Y-137795000I0J5080000D01*
G01*
X198247000Y-84709000D02*
G75*
G03*
X199390000Y-83566000I0J1143000D01*
G01*
X114300000Y-46990000D02*
X144318223Y-46990000D01*
X109220000Y-106472223D02*
X109220000Y-137795000D01*
X164592000Y-49276000D02*
G75*
G03*
X165735000Y-48133000I0J1143000D01*
G01*
X198247000Y-84709000D02*
G75*
G03*
X197104000Y-85852000I0J-1143000D01*
G01*
X166878000Y-46990000D02*
G75*
G03*
X165735000Y-48133000I0J-1143000D01*
G01*
X166878000Y-46990000D02*
X194310000Y-46990000D01*
X165989000Y-141732000D02*
G75*
G03*
X167132000Y-142875000I1143000J0D01*
G01*
X197104000Y-104394000D02*
G75*
G03*
X198247000Y-105537000I1143000J0D01*
G01*
X167132000Y-142875000D02*
X194310000Y-142875000D01*
X197104000Y-104394000D02*
X197104000Y-85852000D01*
X199390000Y-137795000D02*
X199390000Y-106680000D01*
X114300000Y-142875000D02*
X143764000Y-142875000D01*
X145923000Y-140716000D02*
X164973000Y-140716000D01*
X145923000Y-140716000D02*
G75*
G03*
X144907000Y-141732000I0J-1016000D01*
G01*
X165989000Y-141732000D02*
G75*
G03*
X164973000Y-140716000I-1016000J0D01*
G01*
X143764000Y-142875000D02*
G75*
G03*
X144907000Y-141732000I0J1143000D01*
G01*
X199390000Y-106680000D02*
G75*
G03*
X198247000Y-105537000I-1143000J0D01*
G01*
X145461200Y-48133000D02*
G75*
G03*
X146604223Y-49276000I1143000J0D01*
G01*
X111506000Y-85598000D02*
X111506000Y-104186223D01*
X110363000Y-105329200D02*
G75*
G03*
X111506000Y-104186223I0J1143000D01*
G01*
X109220000Y-52070000D02*
X109220000Y-83312000D01*
X109220000Y-137795000D02*
G75*
G03*
X114300000Y-142875000I5080000J0D01*
G01*
X199390000Y-52070000D02*
G75*
G03*
X194310000Y-46990000I-5080000J0D01*
G01*
X109220000Y-83312000D02*
G75*
G03*
X110363000Y-84455000I1143000J0D01*
G01*
M02*
