M48
; DRILL file {KiCad (6.0.7-1)-1} date Sunday, January 01, 2023 at 11:13:16 pm
; FORMAT={-:-/ absolute / metric / decimal}
; #@! TF.CreationDate,2023-01-01T23:13:16-05:00
; #@! TF.GenerationSoftware,Kicad,Pcbnew,(6.0.7-1)-1
; #@! TF.FileFunction,Plated,1,4,PTH
FMAT,2
METRIC
; #@! TA.AperFunction,Plated,PTH,ViaDrill
T1C0.400
; #@! TA.AperFunction,Plated,PTH,ViaDrill
T2C0.600
; #@! TA.AperFunction,Plated,PTH,ComponentDrill
T3C1.000
; #@! TA.AperFunction,Plated,PTH,ComponentDrill
T4C1.651
; #@! TA.AperFunction,Plated,PTH,ComponentDrill
T5C2.200
; #@! TA.AperFunction,Plated,PTH,ComponentDrill
T6C3.200
%
G90
G05
T1
X114.15Y-132.0
X114.2Y-116.45
X122.4Y-122.5
X123.7Y-116.45
X123.75Y-130.85
X125.8Y-123.6
X125.85Y-121.4
X125.9Y-126.9
X125.95Y-125.8
X126.15Y-119.7
X152.511Y-115.561
T2
X127.702Y-132.134
X129.226Y-132.134
X130.81Y-89.916
X130.81Y-96.774
X131.318Y-111.76
X132.274Y-130.864
X132.274Y-132.388
X132.274Y-136.96
X132.334Y-63.246
X132.461Y-89.662
X132.588Y-96.774
X132.588Y-111.76
X133.477Y-64.451
X136.525Y-64.451
X137.414Y-87.376
X137.414Y-89.154
X137.414Y-91.186
X137.732Y-96.273
X140.208Y-61.976
X143.002Y-92.71
X143.256Y-88.9
X154.051Y-120.777
X154.686Y-139.7
X155.575Y-113.538
X155.575Y-117.221
X156.464Y-110.744
X158.496Y-77.216
X158.496Y-80.899
X161.036Y-77.281
X161.036Y-81.026
X166.37Y-75.184
X166.37Y-81.534
X166.37Y-82.804
X166.37Y-84.074
X166.37Y-139.7
X167.564Y-63.17
X167.64Y-48.006
X168.275Y-107.315
X168.275Y-108.712
X168.275Y-110.109
X170.18Y-62.42
X176.022Y-73.914
X176.276Y-78.486
X176.276Y-85.661
X178.562Y-115.57
X180.086Y-118.364
X181.61Y-100.33
X181.61Y-102.87
X181.61Y-115.57
X182.118Y-64.451
X183.134Y-109.982
X184.912Y-113.792
X185.928Y-109.982
X186.436Y-62.992
X186.436Y-64.008
X187.198Y-111.183
X187.452Y-64.008
X187.452Y-112.836
X188.468Y-64.008
X188.595Y-84.201
X188.722Y-100.33
X189.357Y-78.613
X190.474Y-80.772
X191.008Y-64.516
X192.913Y-76.708
X193.294Y-106.934
X193.294Y-117.856
X193.294Y-120.396
X193.548Y-109.22
X194.31Y-58.674
X194.564Y-60.198
X194.818Y-69.088
X196.811Y-83.273
T3
X123.19Y-52.07
X123.19Y-54.61
X123.19Y-57.15
X123.19Y-59.69
X125.73Y-52.07
X125.73Y-54.61
X125.73Y-57.15
X125.73Y-59.69
X128.27Y-52.07
X128.27Y-54.61
X128.27Y-57.15
X128.27Y-59.69
X130.81Y-52.07
X130.81Y-54.61
X130.81Y-57.15
X130.81Y-59.69
X133.35Y-52.07
X133.35Y-54.61
X133.35Y-57.15
X133.35Y-59.69
X135.606Y-67.33
X135.606Y-69.87
X135.89Y-52.07
X135.89Y-54.61
X135.89Y-57.15
X135.89Y-59.69
X138.146Y-67.33
X138.146Y-69.87
X138.43Y-52.07
X138.43Y-54.61
X138.43Y-57.15
X138.43Y-59.69
X140.686Y-67.33
X140.686Y-69.87
X140.97Y-52.07
X140.97Y-54.61
X140.97Y-57.15
X140.97Y-59.69
X143.226Y-67.33
X143.226Y-69.87
X143.51Y-52.07
X143.51Y-54.61
X143.51Y-57.15
X143.51Y-59.69
X145.766Y-67.33
X145.766Y-69.87
X146.05Y-52.07
X146.05Y-54.61
X146.05Y-57.15
X146.05Y-59.69
X148.306Y-67.33
X148.306Y-69.87
X148.59Y-52.07
X148.59Y-54.61
X148.59Y-57.15
X148.59Y-59.69
X150.846Y-67.33
X150.846Y-69.87
X151.13Y-52.07
X151.13Y-54.61
X151.13Y-57.15
X151.13Y-59.69
X153.386Y-67.33
X153.386Y-69.87
X153.67Y-52.07
X153.67Y-54.61
X153.67Y-57.15
X153.67Y-59.69
X155.926Y-67.33
X155.926Y-69.87
X156.21Y-52.07
X156.21Y-54.61
X156.21Y-57.15
X156.21Y-59.69
X158.466Y-67.33
X158.466Y-69.87
X158.75Y-52.07
X158.75Y-54.61
X158.75Y-57.15
X158.75Y-59.69
X161.006Y-67.33
X161.006Y-69.87
X161.29Y-52.07
X161.29Y-54.61
X161.29Y-57.15
X161.29Y-59.69
X163.546Y-67.33
X163.546Y-69.87
X163.83Y-52.07
X163.83Y-54.61
X163.83Y-57.15
X163.83Y-59.69
X166.086Y-67.33
X166.086Y-69.87
X166.37Y-52.07
X166.37Y-54.61
X166.37Y-57.15
X166.37Y-59.69
X168.626Y-67.33
X168.626Y-69.87
X168.91Y-52.07
X168.91Y-54.61
X168.91Y-57.15
X168.91Y-59.69
X171.166Y-67.33
X171.166Y-69.87
X171.45Y-52.07
X171.45Y-54.61
X171.45Y-57.15
X171.45Y-59.69
X173.706Y-67.33
X173.706Y-69.87
X173.99Y-52.07
X173.99Y-54.61
X173.99Y-57.15
X173.99Y-59.69
X176.246Y-67.33
X176.246Y-69.87
X176.53Y-52.07
X176.53Y-54.61
X176.53Y-57.15
X176.53Y-59.69
X178.786Y-67.33
X178.786Y-69.87
X179.07Y-52.07
X179.07Y-54.61
X179.07Y-57.15
X179.07Y-59.69
X181.326Y-67.33
X181.326Y-69.87
X181.61Y-52.07
X181.61Y-54.61
X181.61Y-57.15
X181.61Y-59.69
X183.866Y-67.33
X183.866Y-69.87
X184.113Y-90.145
X184.113Y-92.685
X184.113Y-95.225
X184.113Y-97.765
X184.113Y-100.305
X184.113Y-102.845
X184.15Y-52.07
X184.15Y-54.61
X184.15Y-57.15
X184.15Y-59.69
X186.653Y-90.145
X186.653Y-92.685
X186.653Y-95.225
X186.653Y-97.765
X186.653Y-100.305
X186.653Y-102.845
X186.69Y-52.07
X186.69Y-54.61
X186.69Y-57.15
X186.69Y-59.69
X196.088Y-108.077
X196.088Y-110.617
X196.088Y-113.157
X196.088Y-115.697
X196.088Y-119.38
X196.088Y-121.92
X196.088Y-124.46
X196.088Y-127.0
T4
X174.142Y-139.954
X178.892Y-139.954
X183.642Y-139.954
T5
X130.81Y-68.58
X130.81Y-117.602
X188.976Y-68.58
X188.976Y-117.602
T6
X114.3Y-137.795
X118.11Y-52.07
X191.77Y-52.07
X194.31Y-137.795
T0
M30
